<?xml version="1.0" encoding="us-ascii" standalone="no"?><svg xmlns="http://www.w3.org/2000/svg" xmlns:xlink="http://www.w3.org/1999/xlink" contentStyleType="text/css" height="1204px" preserveAspectRatio="none" style="width:1294px;height:1204px;background:#FFFFFF;" version="1.1" viewBox="0 0 1294 1204" width="1294px" zoomAndPan="magnify"><defs/><g><text fill="#888888" font-family="sans-serif" font-size="10" lengthAdjust="spacing" textLength="45" x="1235.5" y="9.2822">Schema</text><text fill="#000000" font-family="sans-serif" font-size="14" font-weight="bold" lengthAdjust="spacing" textLength="97" x="591.75" y="35.6357">All schemas</text><!--class BetrokkeneBijKlantcontact--><g id="elem_BetrokkeneBijKlantcontact"><rect codeLine="4" fill="#F1F1F1" height="194.6719" id="BetrokkeneBijKlantcontact" rx="2.5" ry="2.5" style="stroke:#181818;stroke-width:0.5;" width="241" x="10.5" y="64.9375"/><ellipse cx="30.45" cy="80.9375" fill="#ADD1B2" rx="11" ry="11" style="stroke:#181818;stroke-width:1.0;"/><path d="M32.7938,76.6094 C31.8563,76.1719 31.2625,76.0313 30.3875,76.0313 C27.7625,76.0313 25.7625,78.1094 25.7625,80.8281 L25.7625,81.9531 C25.7625,84.5313 27.8719,86.4219 30.7625,86.4219 C31.9813,86.4219 33.1375,86.125 33.8875,85.5781 C34.4656,85.1719 34.7938,84.7188 34.7938,84.3281 C34.7938,83.875 34.4031,83.4844 33.9344,83.4844 C33.7156,83.4844 33.5125,83.5625 33.325,83.75 C32.8719,84.2344 32.8719,84.2344 32.6844,84.3281 C32.2625,84.5938 31.575,84.7188 30.8094,84.7188 C28.7625,84.7188 27.4656,83.625 27.4656,81.9219 L27.4656,80.8281 C27.4656,79.0469 28.7156,77.7344 30.45,77.7344 C31.0281,77.7344 31.6375,77.8906 32.1063,78.1406 C32.5906,78.4219 32.7625,78.6406 32.8563,79.0469 C32.9188,79.4531 32.95,79.5781 33.0906,79.7031 C33.2313,79.8438 33.4656,79.9531 33.6844,79.9531 C33.95,79.9531 34.2156,79.8125 34.3875,79.5938 C34.4969,79.4375 34.5281,79.25 34.5281,78.8281 L34.5281,77.4063 C34.5281,76.9688 34.5125,76.8438 34.4188,76.6875 C34.2625,76.4219 33.9813,76.2813 33.6844,76.2813 C33.3875,76.2813 33.1844,76.375 32.9656,76.6875 L32.7938,76.6094 Z " fill="#000000"/><text fill="#000000" font-family="sans-serif" font-size="14" lengthAdjust="spacing" textLength="198" x="45.55" y="85.7842">BetrokkeneBijKlantcontact</text><line style="stroke:#181818;stroke-width:0.5;" x1="11.5" x2="250.5" y1="96.9375" y2="96.9375"/><ellipse cx="21.5" cy="110.5859" fill="none" rx="3" ry="3" style="stroke:#038048;stroke-width:1.0;"/><text fill="#000000" font-family="sans-serif" font-size="14" lengthAdjust="spacing" textLength="149" x="30.5" y="113.9326">bezoekadres: object</text><ellipse cx="21.5" cy="126.8828" fill="none" rx="3" ry="3" style="stroke:#038048;stroke-width:1.0;"/><text fill="#000000" font-family="sans-serif" font-size="14" lengthAdjust="spacing" textLength="215" x="30.5" y="130.2295">correspondentieadres: object</text><ellipse cx="21.5" cy="143.1797" fill="none" rx="3" ry="3" style="stroke:#038048;stroke-width:1.0;"/><text fill="#000000" font-family="sans-serif" font-size="14" lengthAdjust="spacing" textLength="157" x="30.5" y="146.5264">klantcontactId: string</text><ellipse cx="21.5" cy="159.4766" fill="none" rx="3" ry="3" style="stroke:#038048;stroke-width:1.0;"/><text fill="#000000" font-family="sans-serif" font-size="14" lengthAdjust="spacing" textLength="170" x="30.5" y="162.8232">organisatienaam: string</text><ellipse cx="21.5" cy="175.7734" fill="none" rx="3" ry="3" style="stroke:#038048;stroke-width:1.0;"/><text fill="#000000" font-family="sans-serif" font-size="14" lengthAdjust="spacing" textLength="103" x="30.5" y="179.1201">partijId: string</text><ellipse cx="21.5" cy="192.0703" fill="none" rx="3" ry="3" style="stroke:#038048;stroke-width:1.0;"/><text fill="#000000" font-family="sans-serif" font-size="14" lengthAdjust="spacing" textLength="161" x="30.5" y="195.417">persoonsnaam: object</text><ellipse cx="21.5" cy="208.3672" fill="none" rx="3" ry="3" style="stroke:#038048;stroke-width:1.0;"/><text fill="#000000" font-family="sans-serif" font-size="14" lengthAdjust="spacing" textLength="70" x="30.5" y="211.7139">rol: string</text><ellipse cx="21.5" cy="224.6641" fill="none" rx="3" ry="3" style="stroke:#038048;stroke-width:1.0;"/><text fill="#000000" font-family="sans-serif" font-size="14" lengthAdjust="spacing" textLength="173" x="30.5" y="228.0107">voorkeurskanaal: object</text><ellipse cx="21.5" cy="240.9609" fill="none" rx="3" ry="3" style="stroke:#038048;stroke-width:1.0;"/><text fill="#000000" font-family="sans-serif" font-size="14" lengthAdjust="spacing" textLength="154" x="30.5" y="244.3076">voorkeurstaal: object</text><line style="stroke:#181818;stroke-width:0.5;" x1="11.5" x2="250.5" y1="251.6094" y2="251.6094"/></g><!--class Partij--><g id="elem_Partij"><rect codeLine="15" fill="#F1F1F1" height="210.9688" id="Partij" rx="2.5" ry="2.5" style="stroke:#181818;stroke-width:0.5;" width="241" x="286.5" y="56.9375"/><ellipse cx="383.75" cy="72.9375" fill="#ADD1B2" rx="11" ry="11" style="stroke:#181818;stroke-width:1.0;"/><path d="M386.0938,68.6094 C385.1563,68.1719 384.5625,68.0313 383.6875,68.0313 C381.0625,68.0313 379.0625,70.1094 379.0625,72.8281 L379.0625,73.9531 C379.0625,76.5313 381.1719,78.4219 384.0625,78.4219 C385.2813,78.4219 386.4375,78.125 387.1875,77.5781 C387.7656,77.1719 388.0938,76.7188 388.0938,76.3281 C388.0938,75.875 387.7031,75.4844 387.2344,75.4844 C387.0156,75.4844 386.8125,75.5625 386.625,75.75 C386.1719,76.2344 386.1719,76.2344 385.9844,76.3281 C385.5625,76.5938 384.875,76.7188 384.1094,76.7188 C382.0625,76.7188 380.7656,75.625 380.7656,73.9219 L380.7656,72.8281 C380.7656,71.0469 382.0156,69.7344 383.75,69.7344 C384.3281,69.7344 384.9375,69.8906 385.4063,70.1406 C385.8906,70.4219 386.0625,70.6406 386.1563,71.0469 C386.2188,71.4531 386.25,71.5781 386.3906,71.7031 C386.5313,71.8438 386.7656,71.9531 386.9844,71.9531 C387.25,71.9531 387.5156,71.8125 387.6875,71.5938 C387.7969,71.4375 387.8281,71.25 387.8281,70.8281 L387.8281,69.4063 C387.8281,68.9688 387.8125,68.8438 387.7188,68.6875 C387.5625,68.4219 387.2813,68.2813 386.9844,68.2813 C386.6875,68.2813 386.4844,68.375 386.2656,68.6875 L386.0938,68.6094 Z " fill="#000000"/><text fill="#000000" font-family="sans-serif" font-size="14" lengthAdjust="spacing" textLength="38" x="404.25" y="77.7842">Partij</text><line style="stroke:#181818;stroke-width:0.5;" x1="287.5" x2="526.5" y1="88.9375" y2="88.9375"/><ellipse cx="297.5" cy="102.5859" fill="none" rx="3" ry="3" style="stroke:#038048;stroke-width:1.0;"/><text fill="#000000" font-family="sans-serif" font-size="14" lengthAdjust="spacing" textLength="149" x="306.5" y="105.9326">bezoekadres: object</text><ellipse cx="297.5" cy="118.8828" fill="none" rx="3" ry="3" style="stroke:#038048;stroke-width:1.0;"/><text fill="#000000" font-family="sans-serif" font-size="14" lengthAdjust="spacing" textLength="215" x="306.5" y="122.2295">correspondentieadres: object</text><ellipse cx="297.5" cy="135.1797" fill="none" rx="3" ry="3" style="stroke:#038048;stroke-width:1.0;"/><text fill="#000000" font-family="sans-serif" font-size="14" lengthAdjust="spacing" textLength="190" x="306.5" y="138.5264">externeIdentificatie: array</text><ellipse cx="297.5" cy="151.4766" fill="none" rx="3" ry="3" style="stroke:#038048;stroke-width:1.0;"/><text fill="#000000" font-family="sans-serif" font-size="14" lengthAdjust="spacing" textLength="154" x="306.5" y="154.8232">interneNotitie: string</text><ellipse cx="297.5" cy="167.7734" fill="none" rx="3" ry="3" style="stroke:#038048;stroke-width:1.0;"/><text fill="#000000" font-family="sans-serif" font-size="14" lengthAdjust="spacing" textLength="127" x="306.5" y="171.1201">klanttaakId: array</text><ellipse cx="297.5" cy="184.0703" fill="none" rx="3" ry="3" style="stroke:#038048;stroke-width:1.0;"/><text fill="#000000" font-family="sans-serif" font-size="14" lengthAdjust="spacing" textLength="122" x="306.5" y="187.417">nummer: integer</text><ellipse cx="297.5" cy="200.3672" fill="none" rx="3" ry="3" style="stroke:#038048;stroke-width:1.0;"/><text fill="#000000" font-family="sans-serif" font-size="14" lengthAdjust="spacing" textLength="170" x="306.5" y="203.7139">organisatienaam: string</text><ellipse cx="297.5" cy="216.6641" fill="none" rx="3" ry="3" style="stroke:#038048;stroke-width:1.0;"/><text fill="#000000" font-family="sans-serif" font-size="14" lengthAdjust="spacing" textLength="161" x="306.5" y="220.0107">persoonsnaam: object</text><ellipse cx="297.5" cy="232.9609" fill="none" rx="3" ry="3" style="stroke:#038048;stroke-width:1.0;"/><text fill="#000000" font-family="sans-serif" font-size="14" lengthAdjust="spacing" textLength="173" x="306.5" y="236.3076">voorkeurskanaal: object</text><ellipse cx="297.5" cy="249.2578" fill="none" rx="3" ry="3" style="stroke:#038048;stroke-width:1.0;"/><text fill="#000000" font-family="sans-serif" font-size="14" lengthAdjust="spacing" textLength="154" x="306.5" y="252.6045">voorkeurstaal: object</text><line style="stroke:#181818;stroke-width:0.5;" x1="287.5" x2="526.5" y1="259.9063" y2="259.9063"/></g><!--class TaakFormulier--><g id="elem_TaakFormulier"><rect codeLine="27" fill="#F1F1F1" height="80.5938" id="TaakFormulier" rx="2.5" ry="2.5" style="stroke:#181818;stroke-width:0.5;" width="134" x="563" y="121.9375"/><ellipse cx="578" cy="137.9375" fill="#ADD1B2" rx="11" ry="11" style="stroke:#181818;stroke-width:1.0;"/><path d="M580.3438,133.6094 C579.4063,133.1719 578.8125,133.0313 577.9375,133.0313 C575.3125,133.0313 573.3125,135.1094 573.3125,137.8281 L573.3125,138.9531 C573.3125,141.5313 575.4219,143.4219 578.3125,143.4219 C579.5313,143.4219 580.6875,143.125 581.4375,142.5781 C582.0156,142.1719 582.3438,141.7188 582.3438,141.3281 C582.3438,140.875 581.9531,140.4844 581.4844,140.4844 C581.2656,140.4844 581.0625,140.5625 580.875,140.75 C580.4219,141.2344 580.4219,141.2344 580.2344,141.3281 C579.8125,141.5938 579.125,141.7188 578.3594,141.7188 C576.3125,141.7188 575.0156,140.625 575.0156,138.9219 L575.0156,137.8281 C575.0156,136.0469 576.2656,134.7344 578,134.7344 C578.5781,134.7344 579.1875,134.8906 579.6563,135.1406 C580.1406,135.4219 580.3125,135.6406 580.4063,136.0469 C580.4688,136.4531 580.5,136.5781 580.6406,136.7031 C580.7813,136.8438 581.0156,136.9531 581.2344,136.9531 C581.5,136.9531 581.7656,136.8125 581.9375,136.5938 C582.0469,136.4375 582.0781,136.25 582.0781,135.8281 L582.0781,134.4063 C582.0781,133.9688 582.0625,133.8438 581.9688,133.6875 C581.8125,133.4219 581.5313,133.2813 581.2344,133.2813 C580.9375,133.2813 580.7344,133.375 580.5156,133.6875 L580.3438,133.6094 Z " fill="#000000"/><text fill="#000000" font-family="sans-serif" font-size="14" lengthAdjust="spacing" textLength="102" x="592" y="142.7842">TaakFormulier</text><line style="stroke:#181818;stroke-width:0.5;" x1="564" x2="696" y1="153.9375" y2="153.9375"/><ellipse cx="574" cy="167.5859" fill="none" rx="3" ry="3" style="stroke:#038048;stroke-width:1.0;"/><text fill="#000000" font-family="sans-serif" font-size="14" lengthAdjust="spacing" textLength="85" x="583" y="170.9326">type: string</text><ellipse cx="574" cy="183.8828" fill="none" rx="3" ry="3" style="stroke:#038048;stroke-width:1.0;"/><text fill="#000000" font-family="sans-serif" font-size="14" lengthAdjust="spacing" textLength="88" x="583" y="187.2295">value: string</text><line style="stroke:#181818;stroke-width:0.5;" x1="564" x2="696" y1="194.5313" y2="194.5313"/></g><!--class Bijlage--><g id="elem_Bijlage"><rect codeLine="31" fill="#F1F1F1" height="129.4844" id="Bijlage" rx="2.5" ry="2.5" style="stroke:#181818;stroke-width:0.5;" width="257" x="732.5" y="97.9375"/><ellipse cx="832.75" cy="113.9375" fill="#ADD1B2" rx="11" ry="11" style="stroke:#181818;stroke-width:1.0;"/><path d="M835.0938,109.6094 C834.1563,109.1719 833.5625,109.0313 832.6875,109.0313 C830.0625,109.0313 828.0625,111.1094 828.0625,113.8281 L828.0625,114.9531 C828.0625,117.5313 830.1719,119.4219 833.0625,119.4219 C834.2813,119.4219 835.4375,119.125 836.1875,118.5781 C836.7656,118.1719 837.0938,117.7188 837.0938,117.3281 C837.0938,116.875 836.7031,116.4844 836.2344,116.4844 C836.0156,116.4844 835.8125,116.5625 835.625,116.75 C835.1719,117.2344 835.1719,117.2344 834.9844,117.3281 C834.5625,117.5938 833.875,117.7188 833.1094,117.7188 C831.0625,117.7188 829.7656,116.625 829.7656,114.9219 L829.7656,113.8281 C829.7656,112.0469 831.0156,110.7344 832.75,110.7344 C833.3281,110.7344 833.9375,110.8906 834.4063,111.1406 C834.8906,111.4219 835.0625,111.6406 835.1563,112.0469 C835.2188,112.4531 835.25,112.5781 835.3906,112.7031 C835.5313,112.8438 835.7656,112.9531 835.9844,112.9531 C836.25,112.9531 836.5156,112.8125 836.6875,112.5938 C836.7969,112.4375 836.8281,112.25 836.8281,111.8281 L836.8281,110.4063 C836.8281,109.9688 836.8125,109.8438 836.7188,109.6875 C836.5625,109.4219 836.2813,109.2813 835.9844,109.2813 C835.6875,109.2813 835.4844,109.375 835.2656,109.6875 L835.0938,109.6094 Z " fill="#000000"/><text fill="#000000" font-family="sans-serif" font-size="14" lengthAdjust="spacing" textLength="48" x="853.25" y="118.7842">Bijlage</text><line style="stroke:#181818;stroke-width:0.5;" x1="733.5" x2="988.5" y1="129.9375" y2="129.9375"/><ellipse cx="743.5" cy="143.5859" fill="none" rx="3" ry="3" style="stroke:#038048;stroke-width:1.0;"/><text fill="#000000" font-family="sans-serif" font-size="14" lengthAdjust="spacing" textLength="112" x="752.5" y="146.9326">externId: string</text><ellipse cx="743.5" cy="159.8828" fill="none" rx="3" ry="3" style="stroke:#038048;stroke-width:1.0;"/><text fill="#000000" font-family="sans-serif" font-size="14" lengthAdjust="spacing" textLength="160" x="752.5" y="163.2295">externRegister: string</text><ellipse cx="743.5" cy="176.1797" fill="none" rx="3" ry="3" style="stroke:#038048;stroke-width:1.0;"/><text fill="#000000" font-family="sans-serif" font-size="14" lengthAdjust="spacing" textLength="231" x="752.5" y="179.5264">indicatieWeerTeGeven: boolean</text><ellipse cx="743.5" cy="192.4766" fill="none" rx="3" ry="3" style="stroke:#038048;stroke-width:1.0;"/><text fill="#000000" font-family="sans-serif" font-size="14" lengthAdjust="spacing" textLength="157" x="752.5" y="195.8232">klantcontactId: string</text><ellipse cx="743.5" cy="208.7734" fill="none" rx="3" ry="3" style="stroke:#038048;stroke-width:1.0;"/><text fill="#000000" font-family="sans-serif" font-size="14" lengthAdjust="spacing" textLength="142" x="752.5" y="212.1201">omschrijving: string</text><line style="stroke:#181818;stroke-width:0.5;" x1="733.5" x2="988.5" y1="219.4219" y2="219.4219"/></g><!--class Actor--><g id="elem_Actor"><rect codeLine="38" fill="#F1F1F1" height="80.5938" id="Actor" rx="2.5" ry="2.5" style="stroke:#181818;stroke-width:0.5;" width="177" x="1024.5" y="121.9375"/><ellipse cx="1088.75" cy="137.9375" fill="#ADD1B2" rx="11" ry="11" style="stroke:#181818;stroke-width:1.0;"/><path d="M1091.0938,133.6094 C1090.1563,133.1719 1089.5625,133.0313 1088.6875,133.0313 C1086.0625,133.0313 1084.0625,135.1094 1084.0625,137.8281 L1084.0625,138.9531 C1084.0625,141.5313 1086.1719,143.4219 1089.0625,143.4219 C1090.2813,143.4219 1091.4375,143.125 1092.1875,142.5781 C1092.7656,142.1719 1093.0938,141.7188 1093.0938,141.3281 C1093.0938,140.875 1092.7031,140.4844 1092.2344,140.4844 C1092.0156,140.4844 1091.8125,140.5625 1091.625,140.75 C1091.1719,141.2344 1091.1719,141.2344 1090.9844,141.3281 C1090.5625,141.5938 1089.875,141.7188 1089.1094,141.7188 C1087.0625,141.7188 1085.7656,140.625 1085.7656,138.9219 L1085.7656,137.8281 C1085.7656,136.0469 1087.0156,134.7344 1088.75,134.7344 C1089.3281,134.7344 1089.9375,134.8906 1090.4063,135.1406 C1090.8906,135.4219 1091.0625,135.6406 1091.1563,136.0469 C1091.2188,136.4531 1091.25,136.5781 1091.3906,136.7031 C1091.5313,136.8438 1091.7656,136.9531 1091.9844,136.9531 C1092.25,136.9531 1092.5156,136.8125 1092.6875,136.5938 C1092.7969,136.4375 1092.8281,136.25 1092.8281,135.8281 L1092.8281,134.4063 C1092.8281,133.9688 1092.8125,133.8438 1092.7188,133.6875 C1092.5625,133.4219 1092.2813,133.2813 1091.9844,133.2813 C1091.6875,133.2813 1091.4844,133.375 1091.2656,133.6875 L1091.0938,133.6094 Z " fill="#000000"/><text fill="#000000" font-family="sans-serif" font-size="14" lengthAdjust="spacing" textLength="40" x="1109.25" y="142.7842">Actor</text><line style="stroke:#181818;stroke-width:0.5;" x1="1025.5" x2="1200.5" y1="153.9375" y2="153.9375"/><ellipse cx="1035.5" cy="167.5859" fill="none" rx="3" ry="3" style="stroke:#038048;stroke-width:1.0;"/><text fill="#000000" font-family="sans-serif" font-size="14" lengthAdjust="spacing" textLength="151" x="1044.5" y="170.9326">klantcontactId: array</text><ellipse cx="1035.5" cy="183.8828" fill="none" rx="3" ry="3" style="stroke:#038048;stroke-width:1.0;"/><text fill="#000000" font-family="sans-serif" font-size="14" lengthAdjust="spacing" textLength="90" x="1044.5" y="187.2295">naam: string</text><line style="stroke:#181818;stroke-width:0.5;" x1="1025.5" x2="1200.5" y1="194.5313" y2="194.5313"/></g><!--class TaakIdentificatie--><g id="elem_TaakIdentificatie"><rect codeLine="42" fill="#F1F1F1" height="80.5938" id="TaakIdentificatie" rx="2.5" ry="2.5" style="stroke:#181818;stroke-width:0.5;" width="154" x="54" y="425.4375"/><ellipse cx="69" cy="441.4375" fill="#ADD1B2" rx="11" ry="11" style="stroke:#181818;stroke-width:1.0;"/><path d="M71.3438,437.1094 C70.4063,436.6719 69.8125,436.5313 68.9375,436.5313 C66.3125,436.5313 64.3125,438.6094 64.3125,441.3281 L64.3125,442.4531 C64.3125,445.0313 66.4219,446.9219 69.3125,446.9219 C70.5313,446.9219 71.6875,446.625 72.4375,446.0781 C73.0156,445.6719 73.3438,445.2188 73.3438,444.8281 C73.3438,444.375 72.9531,443.9844 72.4844,443.9844 C72.2656,443.9844 72.0625,444.0625 71.875,444.25 C71.4219,444.7344 71.4219,444.7344 71.2344,444.8281 C70.8125,445.0938 70.125,445.2188 69.3594,445.2188 C67.3125,445.2188 66.0156,444.125 66.0156,442.4219 L66.0156,441.3281 C66.0156,439.5469 67.2656,438.2344 69,438.2344 C69.5781,438.2344 70.1875,438.3906 70.6563,438.6406 C71.1406,438.9219 71.3125,439.1406 71.4063,439.5469 C71.4688,439.9531 71.5,440.0781 71.6406,440.2031 C71.7813,440.3438 72.0156,440.4531 72.2344,440.4531 C72.5,440.4531 72.7656,440.3125 72.9375,440.0938 C73.0469,439.9375 73.0781,439.75 73.0781,439.3281 L73.0781,437.9063 C73.0781,437.4688 73.0625,437.3438 72.9688,437.1875 C72.8125,436.9219 72.5313,436.7813 72.2344,436.7813 C71.9375,436.7813 71.7344,436.875 71.5156,437.1875 L71.3438,437.1094 Z " fill="#000000"/><text fill="#000000" font-family="sans-serif" font-size="14" lengthAdjust="spacing" textLength="122" x="83" y="446.2842">TaakIdentificatie</text><line style="stroke:#181818;stroke-width:0.5;" x1="55" x2="207" y1="457.4375" y2="457.4375"/><ellipse cx="65" cy="471.0859" fill="none" rx="3" ry="3" style="stroke:#038048;stroke-width:1.0;"/><text fill="#000000" font-family="sans-serif" font-size="14" lengthAdjust="spacing" textLength="85" x="74" y="474.4326">type: string</text><ellipse cx="65" cy="487.3828" fill="none" rx="3" ry="3" style="stroke:#038048;stroke-width:1.0;"/><text fill="#000000" font-family="sans-serif" font-size="14" lengthAdjust="spacing" textLength="88" x="74" y="490.7295">value: string</text><line style="stroke:#181818;stroke-width:0.5;" x1="55" x2="207" y1="498.0313" y2="498.0313"/></g><!--class Voorkeur--><g id="elem_Voorkeur"><rect codeLine="46" fill="#F1F1F1" height="80.5938" id="Voorkeur" rx="2.5" ry="2.5" style="stroke:#181818;stroke-width:0.5;" width="116" x="243" y="425.4375"/><ellipse cx="266.1" cy="441.4375" fill="#ADD1B2" rx="11" ry="11" style="stroke:#181818;stroke-width:1.0;"/><path d="M268.4438,437.1094 C267.5063,436.6719 266.9125,436.5313 266.0375,436.5313 C263.4125,436.5313 261.4125,438.6094 261.4125,441.3281 L261.4125,442.4531 C261.4125,445.0313 263.5219,446.9219 266.4125,446.9219 C267.6313,446.9219 268.7875,446.625 269.5375,446.0781 C270.1156,445.6719 270.4438,445.2188 270.4438,444.8281 C270.4438,444.375 270.0531,443.9844 269.5844,443.9844 C269.3656,443.9844 269.1625,444.0625 268.975,444.25 C268.5219,444.7344 268.5219,444.7344 268.3344,444.8281 C267.9125,445.0938 267.225,445.2188 266.4594,445.2188 C264.4125,445.2188 263.1156,444.125 263.1156,442.4219 L263.1156,441.3281 C263.1156,439.5469 264.3656,438.2344 266.1,438.2344 C266.6781,438.2344 267.2875,438.3906 267.7563,438.6406 C268.2406,438.9219 268.4125,439.1406 268.5063,439.5469 C268.5688,439.9531 268.6,440.0781 268.7406,440.2031 C268.8813,440.3438 269.1156,440.4531 269.3344,440.4531 C269.6,440.4531 269.8656,440.3125 270.0375,440.0938 C270.1469,439.9375 270.1781,439.75 270.1781,439.3281 L270.1781,437.9063 C270.1781,437.4688 270.1625,437.3438 270.0688,437.1875 C269.9125,436.9219 269.6313,436.7813 269.3344,436.7813 C269.0375,436.7813 268.8344,436.875 268.6156,437.1875 L268.4438,437.1094 Z " fill="#000000"/><text fill="#000000" font-family="sans-serif" font-size="14" lengthAdjust="spacing" textLength="66" x="281.9" y="446.2842">Voorkeur</text><line style="stroke:#181818;stroke-width:0.5;" x1="244" x2="358" y1="457.4375" y2="457.4375"/><ellipse cx="254" cy="471.0859" fill="none" rx="3" ry="3" style="stroke:#038048;stroke-width:1.0;"/><text fill="#000000" font-family="sans-serif" font-size="14" lengthAdjust="spacing" textLength="86" x="263" y="474.4326">code: string</text><ellipse cx="254" cy="487.3828" fill="none" rx="3" ry="3" style="stroke:#038048;stroke-width:1.0;"/><text fill="#000000" font-family="sans-serif" font-size="14" lengthAdjust="spacing" textLength="90" x="263" y="490.7295">naam: string</text><line style="stroke:#181818;stroke-width:0.5;" x1="244" x2="358" y1="498.0313" y2="498.0313"/></g><!--class Correspondentieadres--><g id="elem_Correspondentieadres"><rect codeLine="50" fill="#F1F1F1" height="276.1563" id="Correspondentieadres" rx="2.5" ry="2.5" style="stroke:#181818;stroke-width:0.5;" width="276" x="394" y="327.9375"/><ellipse cx="447.25" cy="343.9375" fill="#ADD1B2" rx="11" ry="11" style="stroke:#181818;stroke-width:1.0;"/><path d="M449.5938,339.6094 C448.6563,339.1719 448.0625,339.0313 447.1875,339.0313 C444.5625,339.0313 442.5625,341.1094 442.5625,343.8281 L442.5625,344.9531 C442.5625,347.5313 444.6719,349.4219 447.5625,349.4219 C448.7813,349.4219 449.9375,349.125 450.6875,348.5781 C451.2656,348.1719 451.5938,347.7188 451.5938,347.3281 C451.5938,346.875 451.2031,346.4844 450.7344,346.4844 C450.5156,346.4844 450.3125,346.5625 450.125,346.75 C449.6719,347.2344 449.6719,347.2344 449.4844,347.3281 C449.0625,347.5938 448.375,347.7188 447.6094,347.7188 C445.5625,347.7188 444.2656,346.625 444.2656,344.9219 L444.2656,343.8281 C444.2656,342.0469 445.5156,340.7344 447.25,340.7344 C447.8281,340.7344 448.4375,340.8906 448.9063,341.1406 C449.3906,341.4219 449.5625,341.6406 449.6563,342.0469 C449.7188,342.4531 449.75,342.5781 449.8906,342.7031 C450.0313,342.8438 450.2656,342.9531 450.4844,342.9531 C450.75,342.9531 451.0156,342.8125 451.1875,342.5938 C451.2969,342.4375 451.3281,342.25 451.3281,341.8281 L451.3281,340.4063 C451.3281,339.9688 451.3125,339.8438 451.2188,339.6875 C451.0625,339.4219 450.7813,339.2813 450.4844,339.2813 C450.1875,339.2813 449.9844,339.375 449.7656,339.6875 L449.5938,339.6094 Z " fill="#000000"/><text fill="#000000" font-family="sans-serif" font-size="14" lengthAdjust="spacing" textLength="161" x="467.75" y="348.7842">Correspondentieadres</text><line style="stroke:#181818;stroke-width:0.5;" x1="395" x2="669" y1="359.9375" y2="359.9375"/><ellipse cx="405" cy="373.5859" fill="none" rx="3" ry="3" style="stroke:#038048;stroke-width:1.0;"/><text fill="#000000" font-family="sans-serif" font-size="14" lengthAdjust="spacing" textLength="235" x="414" y="376.9326">aanduidingBijHuisnummer: string</text><ellipse cx="405" cy="389.8828" fill="none" rx="3" ry="3" style="stroke:#038048;stroke-width:1.0;"/><text fill="#000000" font-family="sans-serif" font-size="14" lengthAdjust="spacing" textLength="213" x="414" y="393.2295">adresregelBuitenland1: string</text><ellipse cx="405" cy="406.1797" fill="none" rx="3" ry="3" style="stroke:#038048;stroke-width:1.0;"/><text fill="#000000" font-family="sans-serif" font-size="14" lengthAdjust="spacing" textLength="212" x="414" y="409.5264">adresregelBuitenland2: string</text><ellipse cx="405" cy="422.4766" fill="none" rx="3" ry="3" style="stroke:#038048;stroke-width:1.0;"/><text fill="#000000" font-family="sans-serif" font-size="14" lengthAdjust="spacing" textLength="213" x="414" y="425.8232">adresregelBuitenland3: string</text><ellipse cx="405" cy="438.7734" fill="none" rx="3" ry="3" style="stroke:#038048;stroke-width:1.0;"/><text fill="#000000" font-family="sans-serif" font-size="14" lengthAdjust="spacing" textLength="190" x="414" y="442.1201">antwoordnummer: integer</text><ellipse cx="405" cy="455.0703" fill="none" rx="3" ry="3" style="stroke:#038048;stroke-width:1.0;"/><text fill="#000000" font-family="sans-serif" font-size="14" lengthAdjust="spacing" textLength="121" x="414" y="458.417">huisletter: string</text><ellipse cx="405" cy="471.3672" fill="none" rx="3" ry="3" style="stroke:#038048;stroke-width:1.0;"/><text fill="#000000" font-family="sans-serif" font-size="14" lengthAdjust="spacing" textLength="150" x="414" y="474.7139">huisnummer: integer</text><ellipse cx="405" cy="487.6641" fill="none" rx="3" ry="3" style="stroke:#038048;stroke-width:1.0;"/><text fill="#000000" font-family="sans-serif" font-size="14" lengthAdjust="spacing" textLength="221" x="414" y="491.0107">huisnummertoevoeging: string</text><ellipse cx="405" cy="503.9609" fill="none" rx="3" ry="3" style="stroke:#038048;stroke-width:1.0;"/><text fill="#000000" font-family="sans-serif" font-size="14" lengthAdjust="spacing" textLength="86" x="414" y="507.3076">land: object</text><ellipse cx="405" cy="520.2578" fill="none" rx="3" ry="3" style="stroke:#038048;stroke-width:1.0;"/><text fill="#000000" font-family="sans-serif" font-size="14" lengthAdjust="spacing" textLength="180" x="414" y="523.6045">postbusnummer: integer</text><ellipse cx="405" cy="536.5547" fill="none" rx="3" ry="3" style="stroke:#038048;stroke-width:1.0;"/><text fill="#000000" font-family="sans-serif" font-size="14" lengthAdjust="spacing" textLength="119" x="414" y="539.9014">postcode: string</text><ellipse cx="405" cy="552.8516" fill="none" rx="3" ry="3" style="stroke:#038048;stroke-width:1.0;"/><text fill="#000000" font-family="sans-serif" font-size="14" lengthAdjust="spacing" textLength="250" x="414" y="556.1982">soortCorrespondentieadres: string</text><ellipse cx="405" cy="569.1484" fill="none" rx="3" ry="3" style="stroke:#038048;stroke-width:1.0;"/><text fill="#000000" font-family="sans-serif" font-size="14" lengthAdjust="spacing" textLength="94" x="414" y="572.4951">straat: string</text><ellipse cx="405" cy="585.4453" fill="none" rx="3" ry="3" style="stroke:#038048;stroke-width:1.0;"/><text fill="#000000" font-family="sans-serif" font-size="14" lengthAdjust="spacing" textLength="133" x="414" y="588.792">woonplaats: string</text><line style="stroke:#181818;stroke-width:0.5;" x1="395" x2="669" y1="596.0938" y2="596.0938"/></g><!--class Medewerker--><g id="elem_Medewerker"><rect codeLine="66" fill="#F1F1F1" height="162.0781" id="Medewerker" rx="2.5" ry="2.5" style="stroke:#181818;stroke-width:0.5;" width="199" x="705.5" y="384.9375"/><ellipse cx="756.25" cy="400.9375" fill="#ADD1B2" rx="11" ry="11" style="stroke:#181818;stroke-width:1.0;"/><path d="M758.5938,396.6094 C757.6563,396.1719 757.0625,396.0313 756.1875,396.0313 C753.5625,396.0313 751.5625,398.1094 751.5625,400.8281 L751.5625,401.9531 C751.5625,404.5313 753.6719,406.4219 756.5625,406.4219 C757.7813,406.4219 758.9375,406.125 759.6875,405.5781 C760.2656,405.1719 760.5938,404.7188 760.5938,404.3281 C760.5938,403.875 760.2031,403.4844 759.7344,403.4844 C759.5156,403.4844 759.3125,403.5625 759.125,403.75 C758.6719,404.2344 758.6719,404.2344 758.4844,404.3281 C758.0625,404.5938 757.375,404.7188 756.6094,404.7188 C754.5625,404.7188 753.2656,403.625 753.2656,401.9219 L753.2656,400.8281 C753.2656,399.0469 754.5156,397.7344 756.25,397.7344 C756.8281,397.7344 757.4375,397.8906 757.9063,398.1406 C758.3906,398.4219 758.5625,398.6406 758.6563,399.0469 C758.7188,399.4531 758.75,399.5781 758.8906,399.7031 C759.0313,399.8438 759.2656,399.9531 759.4844,399.9531 C759.75,399.9531 760.0156,399.8125 760.1875,399.5938 C760.2969,399.4375 760.3281,399.25 760.3281,398.8281 L760.3281,397.4063 C760.3281,396.9688 760.3125,396.8438 760.2188,396.6875 C760.0625,396.4219 759.7813,396.2813 759.4844,396.2813 C759.1875,396.2813 758.9844,396.375 758.7656,396.6875 L758.5938,396.6094 Z " fill="#000000"/><text fill="#000000" font-family="sans-serif" font-size="14" lengthAdjust="spacing" textLength="89" x="776.75" y="405.7842">Medewerker</text><line style="stroke:#181818;stroke-width:0.5;" x1="706.5" x2="903.5" y1="416.9375" y2="416.9375"/><ellipse cx="716.5" cy="430.5859" fill="none" rx="3" ry="3" style="stroke:#038048;stroke-width:1.0;"/><text fill="#000000" font-family="sans-serif" font-size="14" lengthAdjust="spacing" textLength="151" x="725.5" y="433.9326">klantcontactId: array</text><ellipse cx="716.5" cy="446.8828" fill="none" rx="3" ry="3" style="stroke:#038048;stroke-width:1.0;"/><text fill="#000000" font-family="sans-serif" font-size="14" lengthAdjust="spacing" textLength="90" x="725.5" y="450.2295">naam: string</text><ellipse cx="716.5" cy="463.1797" fill="none" rx="3" ry="3" style="stroke:#038048;stroke-width:1.0;"/><text fill="#000000" font-family="sans-serif" font-size="14" lengthAdjust="spacing" textLength="127" x="725.5" y="466.5264">eMailadres: string</text><ellipse cx="716.5" cy="479.4766" fill="none" rx="3" ry="3" style="stroke:#038048;stroke-width:1.0;"/><text fill="#000000" font-family="sans-serif" font-size="14" lengthAdjust="spacing" textLength="112" x="725.5" y="482.8232">externId: string</text><ellipse cx="716.5" cy="495.7734" fill="none" rx="3" ry="3" style="stroke:#038048;stroke-width:1.0;"/><text fill="#000000" font-family="sans-serif" font-size="14" lengthAdjust="spacing" textLength="160" x="725.5" y="499.1201">externRegister: string</text><ellipse cx="716.5" cy="512.0703" fill="none" rx="3" ry="3" style="stroke:#038048;stroke-width:1.0;"/><text fill="#000000" font-family="sans-serif" font-size="14" lengthAdjust="spacing" textLength="102" x="725.5" y="515.417">functie: string</text><ellipse cx="716.5" cy="528.3672" fill="none" rx="3" ry="3" style="stroke:#038048;stroke-width:1.0;"/><text fill="#000000" font-family="sans-serif" font-size="14" lengthAdjust="spacing" textLength="173" x="725.5" y="531.7139">telefoonnummer: string</text><line style="stroke:#181818;stroke-width:0.5;" x1="706.5" x2="903.5" y1="539.0156" y2="539.0156"/></g><!--class Bericht--><g id="elem_Bericht"><rect codeLine="75" fill="#F1F1F1" height="210.9688" id="Bericht" rx="2.5" ry="2.5" style="stroke:#181818;stroke-width:0.5;" width="314" x="940" y="360.4375"/><ellipse cx="1066.25" cy="376.4375" fill="#ADD1B2" rx="11" ry="11" style="stroke:#181818;stroke-width:1.0;"/><path d="M1068.5938,372.1094 C1067.6563,371.6719 1067.0625,371.5313 1066.1875,371.5313 C1063.5625,371.5313 1061.5625,373.6094 1061.5625,376.3281 L1061.5625,377.4531 C1061.5625,380.0313 1063.6719,381.9219 1066.5625,381.9219 C1067.7813,381.9219 1068.9375,381.625 1069.6875,381.0781 C1070.2656,380.6719 1070.5938,380.2188 1070.5938,379.8281 C1070.5938,379.375 1070.2031,378.9844 1069.7344,378.9844 C1069.5156,378.9844 1069.3125,379.0625 1069.125,379.25 C1068.6719,379.7344 1068.6719,379.7344 1068.4844,379.8281 C1068.0625,380.0938 1067.375,380.2188 1066.6094,380.2188 C1064.5625,380.2188 1063.2656,379.125 1063.2656,377.4219 L1063.2656,376.3281 C1063.2656,374.5469 1064.5156,373.2344 1066.25,373.2344 C1066.8281,373.2344 1067.4375,373.3906 1067.9063,373.6406 C1068.3906,373.9219 1068.5625,374.1406 1068.6563,374.5469 C1068.7188,374.9531 1068.75,375.0781 1068.8906,375.2031 C1069.0313,375.3438 1069.2656,375.4531 1069.4844,375.4531 C1069.75,375.4531 1070.0156,375.3125 1070.1875,375.0938 C1070.2969,374.9375 1070.3281,374.75 1070.3281,374.3281 L1070.3281,372.9063 C1070.3281,372.4688 1070.3125,372.3438 1070.2188,372.1875 C1070.0625,371.9219 1069.7813,371.7813 1069.4844,371.7813 C1069.1875,371.7813 1068.9844,371.875 1068.7656,372.1875 L1068.5938,372.1094 Z " fill="#000000"/><text fill="#000000" font-family="sans-serif" font-size="14" lengthAdjust="spacing" textLength="53" x="1086.75" y="381.2842">Bericht</text><line style="stroke:#181818;stroke-width:0.5;" x1="941" x2="1253" y1="392.4375" y2="392.4375"/><ellipse cx="951" cy="406.0859" fill="none" rx="3" ry="3" style="stroke:#038048;stroke-width:1.0;"/><text fill="#000000" font-family="sans-serif" font-size="14" lengthAdjust="spacing" textLength="64" x="960" y="409.4326">id: string</text><ellipse cx="951" cy="422.3828" fill="none" rx="3" ry="3" style="stroke:#038048;stroke-width:1.0;"/><text fill="#000000" font-family="sans-serif" font-size="14" lengthAdjust="spacing" textLength="136" x="960" y="425.7295">gebruikerID: string</text><ellipse cx="951" cy="438.6797" fill="none" rx="3" ry="3" style="stroke:#038048;stroke-width:1.0;"/><text fill="#000000" font-family="sans-serif" font-size="14" lengthAdjust="spacing" textLength="161" x="960" y="442.0264">soortGebruiker: string</text><ellipse cx="951" cy="454.9766" fill="none" rx="3" ry="3" style="stroke:#038048;stroke-width:1.0;"/><text fill="#000000" font-family="sans-serif" font-size="14" lengthAdjust="spacing" textLength="129" x="960" y="458.3232">onderwerp: string</text><ellipse cx="951" cy="471.2734" fill="none" rx="3" ry="3" style="stroke:#038048;stroke-width:1.0;"/><text fill="#000000" font-family="sans-serif" font-size="14" lengthAdjust="spacing" textLength="143" x="960" y="474.6201">berichttekst: string</text><ellipse cx="951" cy="487.5703" fill="none" rx="3" ry="3" style="stroke:#038048;stroke-width:1.0;"/><text fill="#000000" font-family="sans-serif" font-size="14" lengthAdjust="spacing" textLength="125" x="960" y="490.917">referentie: string</text><ellipse cx="951" cy="503.8672" fill="none" rx="3" ry="3" style="stroke:#038048;stroke-width:1.0;"/><text fill="#000000" font-family="sans-serif" font-size="14" lengthAdjust="spacing" textLength="212" x="960" y="507.2139">handelingsPerspectief: string</text><ellipse cx="951" cy="520.1641" fill="none" rx="3" ry="3" style="stroke:#038048;stroke-width:1.0;"/><text fill="#000000" font-family="sans-serif" font-size="14" lengthAdjust="spacing" textLength="288" x="960" y="523.5107">eindDatumHandelingsTermijn: datetime</text><ellipse cx="951" cy="536.4609" fill="none" rx="3" ry="3" style="stroke:#038048;stroke-width:1.0;"/><text fill="#000000" font-family="sans-serif" font-size="14" lengthAdjust="spacing" textLength="102" x="960" y="539.8076">bijlagen: array</text><ellipse cx="951" cy="552.7578" fill="none" rx="3" ry="3" style="stroke:#038048;stroke-width:1.0;"/><text fill="#000000" font-family="sans-serif" font-size="14" lengthAdjust="spacing" textLength="131" x="960" y="556.1045">geopend: boolean</text><line style="stroke:#181818;stroke-width:0.5;" x1="941" x2="1253" y1="563.4063" y2="563.4063"/></g><!--class Klantcontact--><g id="elem_Klantcontact"><rect codeLine="87" fill="#F1F1F1" height="243.5625" id="Klantcontact" rx="2.5" ry="2.5" style="stroke:#181818;stroke-width:0.5;" width="248" x="7" y="663.9375"/><ellipse cx="79.75" cy="679.9375" fill="#ADD1B2" rx="11" ry="11" style="stroke:#181818;stroke-width:1.0;"/><path d="M82.0938,675.6094 C81.1563,675.1719 80.5625,675.0313 79.6875,675.0313 C77.0625,675.0313 75.0625,677.1094 75.0625,679.8281 L75.0625,680.9531 C75.0625,683.5313 77.1719,685.4219 80.0625,685.4219 C81.2813,685.4219 82.4375,685.125 83.1875,684.5781 C83.7656,684.1719 84.0938,683.7188 84.0938,683.3281 C84.0938,682.875 83.7031,682.4844 83.2344,682.4844 C83.0156,682.4844 82.8125,682.5625 82.625,682.75 C82.1719,683.2344 82.1719,683.2344 81.9844,683.3281 C81.5625,683.5938 80.875,683.7188 80.1094,683.7188 C78.0625,683.7188 76.7656,682.625 76.7656,680.9219 L76.7656,679.8281 C76.7656,678.0469 78.0156,676.7344 79.75,676.7344 C80.3281,676.7344 80.9375,676.8906 81.4063,677.1406 C81.8906,677.4219 82.0625,677.6406 82.1563,678.0469 C82.2188,678.4531 82.25,678.5781 82.3906,678.7031 C82.5313,678.8438 82.7656,678.9531 82.9844,678.9531 C83.25,678.9531 83.5156,678.8125 83.6875,678.5938 C83.7969,678.4375 83.8281,678.25 83.8281,677.8281 L83.8281,676.4063 C83.8281,675.9688 83.8125,675.8438 83.7188,675.6875 C83.5625,675.4219 83.2813,675.2813 82.9844,675.2813 C82.6875,675.2813 82.4844,675.375 82.2656,675.6875 L82.0938,675.6094 Z " fill="#000000"/><text fill="#000000" font-family="sans-serif" font-size="14" lengthAdjust="spacing" textLength="94" x="100.25" y="684.7842">Klantcontact</text><line style="stroke:#181818;stroke-width:0.5;" x1="8" x2="254" y1="695.9375" y2="695.9375"/><ellipse cx="18" cy="709.5859" fill="none" rx="3" ry="3" style="stroke:#038048;stroke-width:1.0;"/><text fill="#000000" font-family="sans-serif" font-size="14" lengthAdjust="spacing" textLength="102" x="27" y="712.9326">actorId: string</text><ellipse cx="18" cy="725.8828" fill="none" rx="3" ry="3" style="stroke:#038048;stroke-width:1.0;"/><text fill="#000000" font-family="sans-serif" font-size="14" lengthAdjust="spacing" textLength="112" x="27" y="729.2295">bijlageId: string</text><ellipse cx="18" cy="742.1797" fill="none" rx="3" ry="3" style="stroke:#038048;stroke-width:1.0;"/><text fill="#000000" font-family="sans-serif" font-size="14" lengthAdjust="spacing" textLength="211" x="27" y="745.5264">gaatOverInterneTaakId: array</text><ellipse cx="18" cy="758.4766" fill="none" rx="3" ry="3" style="stroke:#038048;stroke-width:1.0;"/><text fill="#000000" font-family="sans-serif" font-size="14" lengthAdjust="spacing" textLength="196" x="27" y="761.8232">geregistreerdOp: datetime</text><ellipse cx="18" cy="774.7734" fill="none" rx="3" ry="3" style="stroke:#038048;stroke-width:1.0;"/><text fill="#000000" font-family="sans-serif" font-size="14" lengthAdjust="spacing" textLength="222" x="27" y="778.1201">indicatieContactMislukt: string</text><ellipse cx="18" cy="791.0703" fill="none" rx="3" ry="3" style="stroke:#038048;stroke-width:1.0;"/><text fill="#000000" font-family="sans-serif" font-size="14" lengthAdjust="spacing" textLength="99" x="27" y="794.417">inhoud: string</text><ellipse cx="18" cy="807.3672" fill="none" rx="3" ry="3" style="stroke:#038048;stroke-width:1.0;"/><text fill="#000000" font-family="sans-serif" font-size="14" lengthAdjust="spacing" textLength="160" x="27" y="810.7139">initiatiefnemer: string</text><ellipse cx="18" cy="823.6641" fill="none" rx="3" ry="3" style="stroke:#038048;stroke-width:1.0;"/><text fill="#000000" font-family="sans-serif" font-size="14" lengthAdjust="spacing" textLength="218" x="27" y="827.0107">interneTaakOntstaanUit: array</text><ellipse cx="18" cy="839.9609" fill="none" rx="3" ry="3" style="stroke:#038048;stroke-width:1.0;"/><text fill="#000000" font-family="sans-serif" font-size="14" lengthAdjust="spacing" textLength="102" x="27" y="843.3076">kanaal: object</text><ellipse cx="18" cy="856.2578" fill="none" rx="3" ry="3" style="stroke:#038048;stroke-width:1.0;"/><text fill="#000000" font-family="sans-serif" font-size="14" lengthAdjust="spacing" textLength="122" x="27" y="859.6045">nummer: integer</text><ellipse cx="18" cy="872.5547" fill="none" rx="3" ry="3" style="stroke:#038048;stroke-width:1.0;"/><text fill="#000000" font-family="sans-serif" font-size="14" lengthAdjust="spacing" textLength="129" x="27" y="875.9014">onderwerp: string</text><ellipse cx="18" cy="888.8516" fill="none" rx="3" ry="3" style="stroke:#038048;stroke-width:1.0;"/><text fill="#000000" font-family="sans-serif" font-size="14" lengthAdjust="spacing" textLength="212" x="27" y="892.1982">plaatsgevondenOp: datetime</text><line style="stroke:#181818;stroke-width:0.5;" x1="8" x2="254" y1="899.5" y2="899.5"/></g><!--class Bezoekadres--><g id="elem_Bezoekadres"><rect codeLine="101" fill="#F1F1F1" height="243.5625" id="Bezoekadres" rx="2.5" ry="2.5" style="stroke:#181818;stroke-width:0.5;" width="261" x="290.5" y="663.9375"/><ellipse cx="370.25" cy="679.9375" fill="#ADD1B2" rx="11" ry="11" style="stroke:#181818;stroke-width:1.0;"/><path d="M372.5938,675.6094 C371.6563,675.1719 371.0625,675.0313 370.1875,675.0313 C367.5625,675.0313 365.5625,677.1094 365.5625,679.8281 L365.5625,680.9531 C365.5625,683.5313 367.6719,685.4219 370.5625,685.4219 C371.7813,685.4219 372.9375,685.125 373.6875,684.5781 C374.2656,684.1719 374.5938,683.7188 374.5938,683.3281 C374.5938,682.875 374.2031,682.4844 373.7344,682.4844 C373.5156,682.4844 373.3125,682.5625 373.125,682.75 C372.6719,683.2344 372.6719,683.2344 372.4844,683.3281 C372.0625,683.5938 371.375,683.7188 370.6094,683.7188 C368.5625,683.7188 367.2656,682.625 367.2656,680.9219 L367.2656,679.8281 C367.2656,678.0469 368.5156,676.7344 370.25,676.7344 C370.8281,676.7344 371.4375,676.8906 371.9063,677.1406 C372.3906,677.4219 372.5625,677.6406 372.6563,678.0469 C372.7188,678.4531 372.75,678.5781 372.8906,678.7031 C373.0313,678.8438 373.2656,678.9531 373.4844,678.9531 C373.75,678.9531 374.0156,678.8125 374.1875,678.5938 C374.2969,678.4375 374.3281,678.25 374.3281,677.8281 L374.3281,676.4063 C374.3281,675.9688 374.3125,675.8438 374.2188,675.6875 C374.0625,675.4219 373.7813,675.2813 373.4844,675.2813 C373.1875,675.2813 372.9844,675.375 372.7656,675.6875 L372.5938,675.6094 Z " fill="#000000"/><text fill="#000000" font-family="sans-serif" font-size="14" lengthAdjust="spacing" textLength="93" x="390.75" y="684.7842">Bezoekadres</text><line style="stroke:#181818;stroke-width:0.5;" x1="291.5" x2="550.5" y1="695.9375" y2="695.9375"/><ellipse cx="301.5" cy="709.5859" fill="none" rx="3" ry="3" style="stroke:#038048;stroke-width:1.0;"/><text fill="#000000" font-family="sans-serif" font-size="14" lengthAdjust="spacing" textLength="235" x="310.5" y="712.9326">aanduidingBijHuisnummer: string</text><ellipse cx="301.5" cy="725.8828" fill="none" rx="3" ry="3" style="stroke:#038048;stroke-width:1.0;"/><text fill="#000000" font-family="sans-serif" font-size="14" lengthAdjust="spacing" textLength="213" x="310.5" y="729.2295">adresregelBuitenland1: string</text><ellipse cx="301.5" cy="742.1797" fill="none" rx="3" ry="3" style="stroke:#038048;stroke-width:1.0;"/><text fill="#000000" font-family="sans-serif" font-size="14" lengthAdjust="spacing" textLength="212" x="310.5" y="745.5264">adresregelBuitenland2: string</text><ellipse cx="301.5" cy="758.4766" fill="none" rx="3" ry="3" style="stroke:#038048;stroke-width:1.0;"/><text fill="#000000" font-family="sans-serif" font-size="14" lengthAdjust="spacing" textLength="213" x="310.5" y="761.8232">adresregelBuitenland3: string</text><ellipse cx="301.5" cy="774.7734" fill="none" rx="3" ry="3" style="stroke:#038048;stroke-width:1.0;"/><text fill="#000000" font-family="sans-serif" font-size="14" lengthAdjust="spacing" textLength="121" x="310.5" y="778.1201">huisletter: string</text><ellipse cx="301.5" cy="791.0703" fill="none" rx="3" ry="3" style="stroke:#038048;stroke-width:1.0;"/><text fill="#000000" font-family="sans-serif" font-size="14" lengthAdjust="spacing" textLength="150" x="310.5" y="794.417">huisnummer: integer</text><ellipse cx="301.5" cy="807.3672" fill="none" rx="3" ry="3" style="stroke:#038048;stroke-width:1.0;"/><text fill="#000000" font-family="sans-serif" font-size="14" lengthAdjust="spacing" textLength="221" x="310.5" y="810.7139">huisnummertoevoeging: string</text><ellipse cx="301.5" cy="823.6641" fill="none" rx="3" ry="3" style="stroke:#038048;stroke-width:1.0;"/><text fill="#000000" font-family="sans-serif" font-size="14" lengthAdjust="spacing" textLength="86" x="310.5" y="827.0107">land: object</text><ellipse cx="301.5" cy="839.9609" fill="none" rx="3" ry="3" style="stroke:#038048;stroke-width:1.0;"/><text fill="#000000" font-family="sans-serif" font-size="14" lengthAdjust="spacing" textLength="119" x="310.5" y="843.3076">postcode: string</text><ellipse cx="301.5" cy="856.2578" fill="none" rx="3" ry="3" style="stroke:#038048;stroke-width:1.0;"/><text fill="#000000" font-family="sans-serif" font-size="14" lengthAdjust="spacing" textLength="182" x="310.5" y="859.6045">soortBezoekadres: string</text><ellipse cx="301.5" cy="872.5547" fill="none" rx="3" ry="3" style="stroke:#038048;stroke-width:1.0;"/><text fill="#000000" font-family="sans-serif" font-size="14" lengthAdjust="spacing" textLength="94" x="310.5" y="875.9014">straat: string</text><ellipse cx="301.5" cy="888.8516" fill="none" rx="3" ry="3" style="stroke:#038048;stroke-width:1.0;"/><text fill="#000000" font-family="sans-serif" font-size="14" lengthAdjust="spacing" textLength="133" x="310.5" y="892.1982">woonplaats: string</text><line style="stroke:#181818;stroke-width:0.5;" x1="291.5" x2="550.5" y1="899.5" y2="899.5"/></g><!--class OrganisatorischeEenheid--><g id="elem_OrganisatorischeEenheid"><rect codeLine="115" fill="#F1F1F1" height="178.375" id="OrganisatorischeEenheid" rx="2.5" ry="2.5" style="stroke:#181818;stroke-width:0.5;" width="211" x="586.5" y="696.9375"/><ellipse cx="601.5" cy="712.9375" fill="#ADD1B2" rx="11" ry="11" style="stroke:#181818;stroke-width:1.0;"/><path d="M603.8438,708.6094 C602.9063,708.1719 602.3125,708.0313 601.4375,708.0313 C598.8125,708.0313 596.8125,710.1094 596.8125,712.8281 L596.8125,713.9531 C596.8125,716.5313 598.9219,718.4219 601.8125,718.4219 C603.0313,718.4219 604.1875,718.125 604.9375,717.5781 C605.5156,717.1719 605.8438,716.7188 605.8438,716.3281 C605.8438,715.875 605.4531,715.4844 604.9844,715.4844 C604.7656,715.4844 604.5625,715.5625 604.375,715.75 C603.9219,716.2344 603.9219,716.2344 603.7344,716.3281 C603.3125,716.5938 602.625,716.7188 601.8594,716.7188 C599.8125,716.7188 598.5156,715.625 598.5156,713.9219 L598.5156,712.8281 C598.5156,711.0469 599.7656,709.7344 601.5,709.7344 C602.0781,709.7344 602.6875,709.8906 603.1563,710.1406 C603.6406,710.4219 603.8125,710.6406 603.9063,711.0469 C603.9688,711.4531 604,711.5781 604.1406,711.7031 C604.2813,711.8438 604.5156,711.9531 604.7344,711.9531 C605,711.9531 605.2656,711.8125 605.4375,711.5938 C605.5469,711.4375 605.5781,711.25 605.5781,710.8281 L605.5781,709.4063 C605.5781,708.9688 605.5625,708.8438 605.4688,708.6875 C605.3125,708.4219 605.0313,708.2813 604.7344,708.2813 C604.4375,708.2813 604.2344,708.375 604.0156,708.6875 L603.8438,708.6094 Z " fill="#000000"/><text fill="#000000" font-family="sans-serif" font-size="14" lengthAdjust="spacing" textLength="179" x="615.5" y="717.7842">OrganisatorischeEenheid</text><line style="stroke:#181818;stroke-width:0.5;" x1="587.5" x2="796.5" y1="728.9375" y2="728.9375"/><ellipse cx="597.5" cy="742.5859" fill="none" rx="3" ry="3" style="stroke:#038048;stroke-width:1.0;"/><text fill="#000000" font-family="sans-serif" font-size="14" lengthAdjust="spacing" textLength="151" x="606.5" y="745.9326">klantcontactId: array</text><ellipse cx="597.5" cy="758.8828" fill="none" rx="3" ry="3" style="stroke:#038048;stroke-width:1.0;"/><text fill="#000000" font-family="sans-serif" font-size="14" lengthAdjust="spacing" textLength="90" x="606.5" y="762.2295">naam: string</text><ellipse cx="597.5" cy="775.1797" fill="none" rx="3" ry="3" style="stroke:#038048;stroke-width:1.0;"/><text fill="#000000" font-family="sans-serif" font-size="14" lengthAdjust="spacing" textLength="127" x="606.5" y="778.5264">eMailadres: string</text><ellipse cx="597.5" cy="791.4766" fill="none" rx="3" ry="3" style="stroke:#038048;stroke-width:1.0;"/><text fill="#000000" font-family="sans-serif" font-size="14" lengthAdjust="spacing" textLength="112" x="606.5" y="794.8232">externId: string</text><ellipse cx="597.5" cy="807.7734" fill="none" rx="3" ry="3" style="stroke:#038048;stroke-width:1.0;"/><text fill="#000000" font-family="sans-serif" font-size="14" lengthAdjust="spacing" textLength="160" x="606.5" y="811.1201">externRegister: string</text><ellipse cx="597.5" cy="824.0703" fill="none" rx="3" ry="3" style="stroke:#038048;stroke-width:1.0;"/><text fill="#000000" font-family="sans-serif" font-size="14" lengthAdjust="spacing" textLength="133" x="606.5" y="827.417">faxnummer: string</text><ellipse cx="597.5" cy="840.3672" fill="none" rx="3" ry="3" style="stroke:#038048;stroke-width:1.0;"/><text fill="#000000" font-family="sans-serif" font-size="14" lengthAdjust="spacing" textLength="142" x="606.5" y="843.7139">omschrijving: string</text><ellipse cx="597.5" cy="856.6641" fill="none" rx="3" ry="3" style="stroke:#038048;stroke-width:1.0;"/><text fill="#000000" font-family="sans-serif" font-size="14" lengthAdjust="spacing" textLength="173" x="606.5" y="860.0107">telefoonnummer: string</text><line style="stroke:#181818;stroke-width:0.5;" x1="587.5" x2="796.5" y1="867.3125" y2="867.3125"/></g><!--class DigitaalAdres--><g id="elem_DigitaalAdres"><rect codeLine="125" fill="#F1F1F1" height="96.8906" id="DigitaalAdres" rx="2.5" ry="2.5" style="stroke:#181818;stroke-width:0.5;" width="216" x="833" y="737.4375"/><ellipse cx="888.75" cy="753.4375" fill="#ADD1B2" rx="11" ry="11" style="stroke:#181818;stroke-width:1.0;"/><path d="M891.0938,749.1094 C890.1563,748.6719 889.5625,748.5313 888.6875,748.5313 C886.0625,748.5313 884.0625,750.6094 884.0625,753.3281 L884.0625,754.4531 C884.0625,757.0313 886.1719,758.9219 889.0625,758.9219 C890.2813,758.9219 891.4375,758.625 892.1875,758.0781 C892.7656,757.6719 893.0938,757.2188 893.0938,756.8281 C893.0938,756.375 892.7031,755.9844 892.2344,755.9844 C892.0156,755.9844 891.8125,756.0625 891.625,756.25 C891.1719,756.7344 891.1719,756.7344 890.9844,756.8281 C890.5625,757.0938 889.875,757.2188 889.1094,757.2188 C887.0625,757.2188 885.7656,756.125 885.7656,754.4219 L885.7656,753.3281 C885.7656,751.5469 887.0156,750.2344 888.75,750.2344 C889.3281,750.2344 889.9375,750.3906 890.4063,750.6406 C890.8906,750.9219 891.0625,751.1406 891.1563,751.5469 C891.2188,751.9531 891.25,752.0781 891.3906,752.2031 C891.5313,752.3438 891.7656,752.4531 891.9844,752.4531 C892.25,752.4531 892.5156,752.3125 892.6875,752.0938 C892.7969,751.9375 892.8281,751.75 892.8281,751.3281 L892.8281,749.9063 C892.8281,749.4688 892.8125,749.3438 892.7188,749.1875 C892.5625,748.9219 892.2813,748.7813 891.9844,748.7813 C891.6875,748.7813 891.4844,748.875 891.2656,749.1875 L891.0938,749.1094 Z " fill="#000000"/><text fill="#000000" font-family="sans-serif" font-size="14" lengthAdjust="spacing" textLength="96" x="909.25" y="758.2842">DigitaalAdres</text><line style="stroke:#181818;stroke-width:0.5;" x1="834" x2="1048" y1="769.4375" y2="769.4375"/><ellipse cx="844" cy="783.0859" fill="none" rx="3" ry="3" style="stroke:#038048;stroke-width:1.0;"/><text fill="#000000" font-family="sans-serif" font-size="14" lengthAdjust="spacing" textLength="90" x="853" y="786.4326">adres: string</text><ellipse cx="844" cy="799.3828" fill="none" rx="3" ry="3" style="stroke:#038048;stroke-width:1.0;"/><text fill="#000000" font-family="sans-serif" font-size="14" lengthAdjust="spacing" textLength="142" x="853" y="802.7295">omschrijving: string</text><ellipse cx="844" cy="815.6797" fill="none" rx="3" ry="3" style="stroke:#038048;stroke-width:1.0;"/><text fill="#000000" font-family="sans-serif" font-size="14" lengthAdjust="spacing" textLength="190" x="853" y="819.0264">soortDigitaalAdres: object</text><line style="stroke:#181818;stroke-width:0.5;" x1="834" x2="1048" y1="826.3281" y2="826.3281"/></g><!--class Land--><g id="elem_Land"><rect codeLine="130" fill="#F1F1F1" height="113.1875" id="Land" rx="2.5" ry="2.5" style="stroke:#181818;stroke-width:0.5;" width="203" x="1084.5" y="729.4375"/><ellipse cx="1164.75" cy="745.4375" fill="#ADD1B2" rx="11" ry="11" style="stroke:#181818;stroke-width:1.0;"/><path d="M1167.0938,741.1094 C1166.1563,740.6719 1165.5625,740.5313 1164.6875,740.5313 C1162.0625,740.5313 1160.0625,742.6094 1160.0625,745.3281 L1160.0625,746.4531 C1160.0625,749.0313 1162.1719,750.9219 1165.0625,750.9219 C1166.2813,750.9219 1167.4375,750.625 1168.1875,750.0781 C1168.7656,749.6719 1169.0938,749.2188 1169.0938,748.8281 C1169.0938,748.375 1168.7031,747.9844 1168.2344,747.9844 C1168.0156,747.9844 1167.8125,748.0625 1167.625,748.25 C1167.1719,748.7344 1167.1719,748.7344 1166.9844,748.8281 C1166.5625,749.0938 1165.875,749.2188 1165.1094,749.2188 C1163.0625,749.2188 1161.7656,748.125 1161.7656,746.4219 L1161.7656,745.3281 C1161.7656,743.5469 1163.0156,742.2344 1164.75,742.2344 C1165.3281,742.2344 1165.9375,742.3906 1166.4063,742.6406 C1166.8906,742.9219 1167.0625,743.1406 1167.1563,743.5469 C1167.2188,743.9531 1167.25,744.0781 1167.3906,744.2031 C1167.5313,744.3438 1167.7656,744.4531 1167.9844,744.4531 C1168.25,744.4531 1168.5156,744.3125 1168.6875,744.0938 C1168.7969,743.9375 1168.8281,743.75 1168.8281,743.3281 L1168.8281,741.9063 C1168.8281,741.4688 1168.8125,741.3438 1168.7188,741.1875 C1168.5625,740.9219 1168.2813,740.7813 1167.9844,740.7813 C1167.6875,740.7813 1167.4844,740.875 1167.2656,741.1875 L1167.0938,741.1094 Z " fill="#000000"/><text fill="#000000" font-family="sans-serif" font-size="14" lengthAdjust="spacing" textLength="34" x="1185.25" y="750.2842">Land</text><line style="stroke:#181818;stroke-width:0.5;" x1="1085.5" x2="1286.5" y1="761.4375" y2="761.4375"/><ellipse cx="1095.5" cy="775.0859" fill="none" rx="3" ry="3" style="stroke:#038048;stroke-width:1.0;"/><text fill="#000000" font-family="sans-serif" font-size="14" lengthAdjust="spacing" textLength="153" x="1104.5" y="778.4326">einddatumLand: date</text><ellipse cx="1095.5" cy="791.3828" fill="none" rx="3" ry="3" style="stroke:#038048;stroke-width:1.0;"/><text fill="#000000" font-family="sans-serif" font-size="14" lengthAdjust="spacing" textLength="177" x="1104.5" y="794.7295">ingangsdatumLand: date</text><ellipse cx="1095.5" cy="807.6797" fill="none" rx="3" ry="3" style="stroke:#038048;stroke-width:1.0;"/><text fill="#000000" font-family="sans-serif" font-size="14" lengthAdjust="spacing" textLength="116" x="1104.5" y="811.0264">landcode: string</text><ellipse cx="1095.5" cy="823.9766" fill="none" rx="3" ry="3" style="stroke:#038048;stroke-width:1.0;"/><text fill="#000000" font-family="sans-serif" font-size="14" lengthAdjust="spacing" textLength="120" x="1104.5" y="827.3232">landnaam: string</text><line style="stroke:#181818;stroke-width:0.5;" x1="1085.5" x2="1286.5" y1="834.625" y2="834.625"/></g><!--class InterneTaak--><g id="elem_InterneTaak"><rect codeLine="136" fill="#F1F1F1" height="129.4844" id="InterneTaak" rx="2.5" ry="2.5" style="stroke:#181818;stroke-width:0.5;" width="223" x="19.5" y="1008.9375"/><ellipse cx="83.25" cy="1024.9375" fill="#ADD1B2" rx="11" ry="11" style="stroke:#181818;stroke-width:1.0;"/><path d="M85.5938,1020.6094 C84.6563,1020.1719 84.0625,1020.0313 83.1875,1020.0313 C80.5625,1020.0313 78.5625,1022.1094 78.5625,1024.8281 L78.5625,1025.9531 C78.5625,1028.5313 80.6719,1030.4219 83.5625,1030.4219 C84.7813,1030.4219 85.9375,1030.125 86.6875,1029.5781 C87.2656,1029.1719 87.5938,1028.7188 87.5938,1028.3281 C87.5938,1027.875 87.2031,1027.4844 86.7344,1027.4844 C86.5156,1027.4844 86.3125,1027.5625 86.125,1027.75 C85.6719,1028.2344 85.6719,1028.2344 85.4844,1028.3281 C85.0625,1028.5938 84.375,1028.7188 83.6094,1028.7188 C81.5625,1028.7188 80.2656,1027.625 80.2656,1025.9219 L80.2656,1024.8281 C80.2656,1023.0469 81.5156,1021.7344 83.25,1021.7344 C83.8281,1021.7344 84.4375,1021.8906 84.9063,1022.1406 C85.3906,1022.4219 85.5625,1022.6406 85.6563,1023.0469 C85.7188,1023.4531 85.75,1023.5781 85.8906,1023.7031 C86.0313,1023.8438 86.2656,1023.9531 86.4844,1023.9531 C86.75,1023.9531 87.0156,1023.8125 87.1875,1023.5938 C87.2969,1023.4375 87.3281,1023.25 87.3281,1022.8281 L87.3281,1021.4063 C87.3281,1020.9688 87.3125,1020.8438 87.2188,1020.6875 C87.0625,1020.4219 86.7813,1020.2813 86.4844,1020.2813 C86.1875,1020.2813 85.9844,1020.375 85.7656,1020.6875 L85.5938,1020.6094 Z " fill="#000000"/><text fill="#000000" font-family="sans-serif" font-size="14" lengthAdjust="spacing" textLength="87" x="103.75" y="1029.7842">InterneTaak</text><line style="stroke:#181818;stroke-width:0.5;" x1="20.5" x2="241.5" y1="1040.9375" y2="1040.9375"/><ellipse cx="30.5" cy="1054.5859" fill="none" rx="3" ry="3" style="stroke:#038048;stroke-width:1.0;"/><text fill="#000000" font-family="sans-serif" font-size="14" lengthAdjust="spacing" textLength="102" x="39.5" y="1057.9326">actorId: string</text><ellipse cx="30.5" cy="1070.8828" fill="none" rx="3" ry="3" style="stroke:#038048;stroke-width:1.0;"/><text fill="#000000" font-family="sans-serif" font-size="14" lengthAdjust="spacing" textLength="196" x="39.5" y="1074.2295">geregistreerdOp: datetime</text><ellipse cx="30.5" cy="1087.1797" fill="none" rx="3" ry="3" style="stroke:#038048;stroke-width:1.0;"/><text fill="#000000" font-family="sans-serif" font-size="14" lengthAdjust="spacing" textLength="197" x="39.5" y="1090.5264">gevraagdeHandeling: string</text><ellipse cx="30.5" cy="1103.4766" fill="none" rx="3" ry="3" style="stroke:#038048;stroke-width:1.0;"/><text fill="#000000" font-family="sans-serif" font-size="14" lengthAdjust="spacing" textLength="122" x="39.5" y="1106.8232">nummer: integer</text><ellipse cx="30.5" cy="1119.7734" fill="none" rx="3" ry="3" style="stroke:#038048;stroke-width:1.0;"/><text fill="#000000" font-family="sans-serif" font-size="14" lengthAdjust="spacing" textLength="95" x="39.5" y="1123.1201">status: string</text><line style="stroke:#181818;stroke-width:0.5;" x1="20.5" x2="241.5" y1="1130.4219" y2="1130.4219"/></g><!--class Taak--><g id="elem_Taak"><rect codeLine="143" fill="#F1F1F1" height="210.9688" id="Taak" rx="2.5" ry="2.5" style="stroke:#181818;stroke-width:0.5;" width="209" x="277.5" y="967.9375"/><ellipse cx="360.75" cy="983.9375" fill="#ADD1B2" rx="11" ry="11" style="stroke:#181818;stroke-width:1.0;"/><path d="M363.0938,979.6094 C362.1563,979.1719 361.5625,979.0313 360.6875,979.0313 C358.0625,979.0313 356.0625,981.1094 356.0625,983.8281 L356.0625,984.9531 C356.0625,987.5313 358.1719,989.4219 361.0625,989.4219 C362.2813,989.4219 363.4375,989.125 364.1875,988.5781 C364.7656,988.1719 365.0938,987.7188 365.0938,987.3281 C365.0938,986.875 364.7031,986.4844 364.2344,986.4844 C364.0156,986.4844 363.8125,986.5625 363.625,986.75 C363.1719,987.2344 363.1719,987.2344 362.9844,987.3281 C362.5625,987.5938 361.875,987.7188 361.1094,987.7188 C359.0625,987.7188 357.7656,986.625 357.7656,984.9219 L357.7656,983.8281 C357.7656,982.0469 359.0156,980.7344 360.75,980.7344 C361.3281,980.7344 361.9375,980.8906 362.4063,981.1406 C362.8906,981.4219 363.0625,981.6406 363.1563,982.0469 C363.2188,982.4531 363.25,982.5781 363.3906,982.7031 C363.5313,982.8438 363.7656,982.9531 363.9844,982.9531 C364.25,982.9531 364.5156,982.8125 364.6875,982.5938 C364.7969,982.4375 364.8281,982.25 364.8281,981.8281 L364.8281,980.4063 C364.8281,979.9688 364.8125,979.8438 364.7188,979.6875 C364.5625,979.4219 364.2813,979.2813 363.9844,979.2813 C363.6875,979.2813 363.4844,979.375 363.2656,979.6875 L363.0938,979.6094 Z " fill="#000000"/><text fill="#000000" font-family="sans-serif" font-size="14" lengthAdjust="spacing" textLength="34" x="381.25" y="988.7842">Taak</text><line style="stroke:#181818;stroke-width:0.5;" x1="278.5" x2="485.5" y1="999.9375" y2="999.9375"/><ellipse cx="288.5" cy="1013.5859" fill="none" rx="3" ry="3" style="stroke:#038048;stroke-width:1.0;"/><text fill="#000000" font-family="sans-serif" font-size="14" lengthAdjust="spacing" textLength="64" x="297.5" y="1016.9326">id: string</text><ellipse cx="288.5" cy="1029.8828" fill="none" rx="3" ry="3" style="stroke:#038048;stroke-width:1.0;"/><text fill="#000000" font-family="sans-serif" font-size="14" lengthAdjust="spacing" textLength="88" x="297.5" y="1033.2295">data: object</text><ellipse cx="288.5" cy="1046.1797" fill="none" rx="3" ry="3" style="stroke:#038048;stroke-width:1.0;"/><text fill="#000000" font-family="sans-serif" font-size="14" lengthAdjust="spacing" textLength="84" x="297.5" y="1049.5264">zaak: string</text><ellipse cx="288.5" cy="1062.4766" fill="none" rx="3" ry="3" style="stroke:#038048;stroke-width:1.0;"/><text fill="#000000" font-family="sans-serif" font-size="14" lengthAdjust="spacing" textLength="82" x="297.5" y="1065.8232">title: string</text><ellipse cx="288.5" cy="1078.7734" fill="none" rx="3" ry="3" style="stroke:#038048;stroke-width:1.0;"/><text fill="#000000" font-family="sans-serif" font-size="14" lengthAdjust="spacing" textLength="95" x="297.5" y="1082.1201">status: string</text><ellipse cx="288.5" cy="1095.0703" fill="none" rx="3" ry="3" style="stroke:#038048;stroke-width:1.0;"/><text fill="#000000" font-family="sans-serif" font-size="14" lengthAdjust="spacing" textLength="122" x="297.5" y="1098.417">formulier: object</text><ellipse cx="288.5" cy="1111.3672" fill="none" rx="3" ry="3" style="stroke:#038048;stroke-width:1.0;"/><text fill="#000000" font-family="sans-serif" font-size="14" lengthAdjust="spacing" textLength="152" x="297.5" y="1114.7139">verloopdatum: string</text><ellipse cx="288.5" cy="1127.6641" fill="none" rx="3" ry="3" style="stroke:#038048;stroke-width:1.0;"/><text fill="#000000" font-family="sans-serif" font-size="14" lengthAdjust="spacing" textLength="144" x="297.5" y="1131.0107">identificatie: object</text><ellipse cx="288.5" cy="1143.9609" fill="none" rx="3" ry="3" style="stroke:#038048;stroke-width:1.0;"/><text fill="#000000" font-family="sans-serif" font-size="14" lengthAdjust="spacing" textLength="171" x="297.5" y="1147.3076">verzonden_data: object</text><ellipse cx="288.5" cy="1160.2578" fill="none" rx="3" ry="3" style="stroke:#038048;stroke-width:1.0;"/><text fill="#000000" font-family="sans-serif" font-size="14" lengthAdjust="spacing" textLength="183" x="297.5" y="1163.6045">verwerker_taak_id: string</text><line style="stroke:#181818;stroke-width:0.5;" x1="278.5" x2="485.5" y1="1170.9063" y2="1170.9063"/></g><!--class SoortExternId--><g id="elem_SoortExternId"><rect codeLine="155" fill="#F1F1F1" height="96.8906" id="SoortExternId" rx="2.5" ry="2.5" style="stroke:#181818;stroke-width:0.5;" width="186" x="522" y="1024.9375"/><ellipse cx="560.85" cy="1040.9375" fill="#ADD1B2" rx="11" ry="11" style="stroke:#181818;stroke-width:1.0;"/><path d="M563.1938,1036.6094 C562.2563,1036.1719 561.6625,1036.0313 560.7875,1036.0313 C558.1625,1036.0313 556.1625,1038.1094 556.1625,1040.8281 L556.1625,1041.9531 C556.1625,1044.5313 558.2719,1046.4219 561.1625,1046.4219 C562.3813,1046.4219 563.5375,1046.125 564.2875,1045.5781 C564.8656,1045.1719 565.1938,1044.7188 565.1938,1044.3281 C565.1938,1043.875 564.8031,1043.4844 564.3344,1043.4844 C564.1156,1043.4844 563.9125,1043.5625 563.725,1043.75 C563.2719,1044.2344 563.2719,1044.2344 563.0844,1044.3281 C562.6625,1044.5938 561.975,1044.7188 561.2094,1044.7188 C559.1625,1044.7188 557.8656,1043.625 557.8656,1041.9219 L557.8656,1040.8281 C557.8656,1039.0469 559.1156,1037.7344 560.85,1037.7344 C561.4281,1037.7344 562.0375,1037.8906 562.5063,1038.1406 C562.9906,1038.4219 563.1625,1038.6406 563.2563,1039.0469 C563.3188,1039.4531 563.35,1039.5781 563.4906,1039.7031 C563.6313,1039.8438 563.8656,1039.9531 564.0844,1039.9531 C564.35,1039.9531 564.6156,1039.8125 564.7875,1039.5938 C564.8969,1039.4375 564.9281,1039.25 564.9281,1038.8281 L564.9281,1037.4063 C564.9281,1036.9688 564.9125,1036.8438 564.8188,1036.6875 C564.6625,1036.4219 564.3813,1036.2813 564.0844,1036.2813 C563.7875,1036.2813 563.5844,1036.375 563.3656,1036.6875 L563.1938,1036.6094 Z " fill="#000000"/><text fill="#000000" font-family="sans-serif" font-size="14" lengthAdjust="spacing" textLength="101" x="580.15" y="1045.7842">SoortExternId</text><line style="stroke:#181818;stroke-width:0.5;" x1="523" x2="707" y1="1056.9375" y2="1056.9375"/><ellipse cx="533" cy="1070.5859" fill="none" rx="3" ry="3" style="stroke:#038048;stroke-width:1.0;"/><text fill="#000000" font-family="sans-serif" font-size="14" lengthAdjust="spacing" textLength="86" x="542" y="1073.9326">code: string</text><ellipse cx="533" cy="1086.8828" fill="none" rx="3" ry="3" style="stroke:#038048;stroke-width:1.0;"/><text fill="#000000" font-family="sans-serif" font-size="14" lengthAdjust="spacing" textLength="160" x="542" y="1090.2295">externRegister: string</text><ellipse cx="533" cy="1103.1797" fill="none" rx="3" ry="3" style="stroke:#038048;stroke-width:1.0;"/><text fill="#000000" font-family="sans-serif" font-size="14" lengthAdjust="spacing" textLength="90" x="542" y="1106.5264">naam: string</text><line style="stroke:#181818;stroke-width:0.5;" x1="523" x2="707" y1="1113.8281" y2="1113.8281"/></g><!--class Persoonsnaam--><g id="elem_Persoonsnaam"><rect codeLine="160" fill="#F1F1F1" height="96.8906" id="Persoonsnaam" rx="2.5" ry="2.5" style="stroke:#181818;stroke-width:0.5;" width="252" x="743" y="1024.9375"/><ellipse cx="812.75" cy="1040.9375" fill="#ADD1B2" rx="11" ry="11" style="stroke:#181818;stroke-width:1.0;"/><path d="M815.0938,1036.6094 C814.1563,1036.1719 813.5625,1036.0313 812.6875,1036.0313 C810.0625,1036.0313 808.0625,1038.1094 808.0625,1040.8281 L808.0625,1041.9531 C808.0625,1044.5313 810.1719,1046.4219 813.0625,1046.4219 C814.2813,1046.4219 815.4375,1046.125 816.1875,1045.5781 C816.7656,1045.1719 817.0938,1044.7188 817.0938,1044.3281 C817.0938,1043.875 816.7031,1043.4844 816.2344,1043.4844 C816.0156,1043.4844 815.8125,1043.5625 815.625,1043.75 C815.1719,1044.2344 815.1719,1044.2344 814.9844,1044.3281 C814.5625,1044.5938 813.875,1044.7188 813.1094,1044.7188 C811.0625,1044.7188 809.7656,1043.625 809.7656,1041.9219 L809.7656,1040.8281 C809.7656,1039.0469 811.0156,1037.7344 812.75,1037.7344 C813.3281,1037.7344 813.9375,1037.8906 814.4063,1038.1406 C814.8906,1038.4219 815.0625,1038.6406 815.1563,1039.0469 C815.2188,1039.4531 815.25,1039.5781 815.3906,1039.7031 C815.5313,1039.8438 815.7656,1039.9531 815.9844,1039.9531 C816.25,1039.9531 816.5156,1039.8125 816.6875,1039.5938 C816.7969,1039.4375 816.8281,1039.25 816.8281,1038.8281 L816.8281,1037.4063 C816.8281,1036.9688 816.8125,1036.8438 816.7188,1036.6875 C816.5625,1036.4219 816.2813,1036.2813 815.9844,1036.2813 C815.6875,1036.2813 815.4844,1036.375 815.2656,1036.6875 L815.0938,1036.6094 Z " fill="#000000"/><text fill="#000000" font-family="sans-serif" font-size="14" lengthAdjust="spacing" textLength="104" x="833.25" y="1045.7842">Persoonsnaam</text><line style="stroke:#181818;stroke-width:0.5;" x1="744" x2="994" y1="1056.9375" y2="1056.9375"/><ellipse cx="754" cy="1070.5859" fill="none" rx="3" ry="3" style="stroke:#038048;stroke-width:1.0;"/><text fill="#000000" font-family="sans-serif" font-size="14" lengthAdjust="spacing" textLength="137" x="763" y="1073.9326">achternaam: string</text><ellipse cx="754" cy="1086.8828" fill="none" rx="3" ry="3" style="stroke:#038048;stroke-width:1.0;"/><text fill="#000000" font-family="sans-serif" font-size="14" lengthAdjust="spacing" textLength="122" x="763" y="1090.2295">voornaam: string</text><ellipse cx="754" cy="1103.1797" fill="none" rx="3" ry="3" style="stroke:#038048;stroke-width:1.0;"/><text fill="#000000" font-family="sans-serif" font-size="14" lengthAdjust="spacing" textLength="226" x="763" y="1106.5264">voorvoegselAchternaam: string</text><line style="stroke:#181818;stroke-width:0.5;" x1="744" x2="994" y1="1113.8281" y2="1113.8281"/></g><!--class ExterneIdentificatie--><g id="elem_ExterneIdentificatie"><rect codeLine="165" fill="#F1F1F1" height="96.8906" id="ExterneIdentificatie" rx="2.5" ry="2.5" style="stroke:#181818;stroke-width:0.5;" width="219" x="1030.5" y="1024.9375"/><ellipse cx="1064.4" cy="1040.9375" fill="#ADD1B2" rx="11" ry="11" style="stroke:#181818;stroke-width:1.0;"/><path d="M1066.7438,1036.6094 C1065.8063,1036.1719 1065.2125,1036.0313 1064.3375,1036.0313 C1061.7125,1036.0313 1059.7125,1038.1094 1059.7125,1040.8281 L1059.7125,1041.9531 C1059.7125,1044.5313 1061.8219,1046.4219 1064.7125,1046.4219 C1065.9313,1046.4219 1067.0875,1046.125 1067.8375,1045.5781 C1068.4156,1045.1719 1068.7438,1044.7188 1068.7438,1044.3281 C1068.7438,1043.875 1068.3531,1043.4844 1067.8844,1043.4844 C1067.6656,1043.4844 1067.4625,1043.5625 1067.275,1043.75 C1066.8219,1044.2344 1066.8219,1044.2344 1066.6344,1044.3281 C1066.2125,1044.5938 1065.525,1044.7188 1064.7594,1044.7188 C1062.7125,1044.7188 1061.4156,1043.625 1061.4156,1041.9219 L1061.4156,1040.8281 C1061.4156,1039.0469 1062.6656,1037.7344 1064.4,1037.7344 C1064.9781,1037.7344 1065.5875,1037.8906 1066.0563,1038.1406 C1066.5406,1038.4219 1066.7125,1038.6406 1066.8063,1039.0469 C1066.8688,1039.4531 1066.9,1039.5781 1067.0406,1039.7031 C1067.1813,1039.8438 1067.4156,1039.9531 1067.6344,1039.9531 C1067.9,1039.9531 1068.1656,1039.8125 1068.3375,1039.5938 C1068.4469,1039.4375 1068.4781,1039.25 1068.4781,1038.8281 L1068.4781,1037.4063 C1068.4781,1036.9688 1068.4625,1036.8438 1068.3688,1036.6875 C1068.2125,1036.4219 1067.9313,1036.2813 1067.6344,1036.2813 C1067.3375,1036.2813 1067.1344,1036.375 1066.9156,1036.6875 L1066.7438,1036.6094 Z " fill="#000000"/><text fill="#000000" font-family="sans-serif" font-size="14" lengthAdjust="spacing" textLength="145" x="1082.6" y="1045.7842">ExterneIdentificatie</text><line style="stroke:#181818;stroke-width:0.5;" x1="1031.5" x2="1248.5" y1="1056.9375" y2="1056.9375"/><ellipse cx="1041.5" cy="1070.5859" fill="none" rx="3" ry="3" style="stroke:#038048;stroke-width:1.0;"/><text fill="#000000" font-family="sans-serif" font-size="14" lengthAdjust="spacing" textLength="193" x="1050.5" y="1073.9326">anderSoortExternId: string</text><ellipse cx="1041.5" cy="1086.8828" fill="none" rx="3" ry="3" style="stroke:#038048;stroke-width:1.0;"/><text fill="#000000" font-family="sans-serif" font-size="14" lengthAdjust="spacing" textLength="112" x="1050.5" y="1090.2295">externId: string</text><ellipse cx="1041.5" cy="1103.1797" fill="none" rx="3" ry="3" style="stroke:#038048;stroke-width:1.0;"/><text fill="#000000" font-family="sans-serif" font-size="14" lengthAdjust="spacing" textLength="155" x="1050.5" y="1106.5264">soortExternId: object</text><line style="stroke:#181818;stroke-width:0.5;" x1="1031.5" x2="1248.5" y1="1113.8281" y2="1113.8281"/></g><text fill="#888888" font-family="sans-serif" font-size="10" lengthAdjust="spacing" textLength="402" x="439.25" y="1194.1885">Common Gateway Plugin | Commongateway | Customerinteractionbundle</text><!--SRC=[pLTDSzGm3BttL-JE2RZjRVj1sw6b7LhWsF76sgmtZfsnvUq7yD-HdMHh9swNbXdW65csfQUdPmK5IfWLSoaBMwwWONPlgJM2cHK7kccqAeuPmYsxBowbguGgVlJsgZVJjxEe6p12qJPMej1guHINKEojW75_r5KuUg-KpDfY7z3ekWO5-sBzKJA5fLP86ullUqNnfbZ0WuQQSGDsLkZ56aeCzb8RChLQSL0eOEfGHsUTybbXaMAgmf8s5LF2Cjgd66kIjPOP5ElHXXQCrLhPpZkwn6YPE6wqDZKuOsj6lZBntQvXlFApn-4otFkdISCTeQxWDAmlHUbJd1NC67OVraDL57pIAC9A57h0YqAhVUwFEvHh6byqlxC2ink_fw1wFJJN5DG7RHed1PWU8Rnlq_0tJBf7ox2LE2LP1Vsc3frHRJlZPwY43KIFbeJY7OJV0Cmr7CC6rAnOQ2s1gPqaQwY5Z5Xlo329QrwY7b8Pdn5X7uCRev7KzsM8VEsXxdULcgUxidSUP7ZN7y2OuavmyYQiJvom0s6YCuE_8Vh8VISG52NCt-xqUBVJuttgeV2MakCvngueC0auBl0gYdVitjbHmqOJDw8QUWT_UyBWLbjSkEnXVca2C_M8mODiEyTUQ1Z3n4GfgbQIrKwgT0uSRe6g-q9cXIuuPq9E0tXfnooTAiV2WY21NX4r8iQsHUcjA5U3t8lqgWeMnWdAwFHm2j_ni9Zs7Q5f28OsiIwwMn1gc-9fO0acm9yoWmeCahxi9GbQ2pwhPOe2gSCXGzUSR5slmJHYJHB1wJb4qK1tTQT1AiQ_0js2fz0W9WCQcHUGUQqObQ0_SsIjY1ON6mAhK_dhYPWJ9KFL3EaPlsX7WMxbxg2x_vnwnjKuaiILTdnaehV4RrigQ2OAketaGg6NT_L5O1nIvZN8FZdPgdQDK56B-XPA4dgar_Of_UyKww-eKbvwzkC9uzMASp4C0je8Fp0UWLg1uFzEVjXTffZPb_WtbEbGLC8F9FEOF9COdpmzu9oSCPbipgXWmsn2tSUzd9o58deUznr445Ssj-JBFQckDsRVy4WKdX6MvnM2EeteKN7OQbuwEsH8IpsFpcQdcBpaquKi8V43kQPbw_vI4jOcbmGg30DZEcY2aLgt0SrKgDA9ETto4EJbPXBP9aWIFK0tVcw-YH8Pqhpo73ZgMVpKoFKCeRELl8n6x6qfL_wCSLlvkJfhzEfXGSwdsuPBZZ9_4iDbNekJp7OthKtTXpxu1G00]--></g></svg>