<?xml version="1.0" encoding="us-ascii" standalone="no"?><svg xmlns="http://www.w3.org/2000/svg" xmlns:xlink="http://www.w3.org/1999/xlink" contentStyleType="text/css" height="1171px" preserveAspectRatio="none" style="width:1087px;height:1171px;background:#FFFFFF;" version="1.1" viewBox="0 0 1087 1171" width="1087px" zoomAndPan="magnify"><defs/><g><text fill="#888888" font-family="sans-serif" font-size="10" lengthAdjust="spacing" textLength="45" x="1028" y="9.2822">Schema</text><text fill="#000000" font-family="sans-serif" font-size="14" font-weight="bold" lengthAdjust="spacing" textLength="97" x="488" y="35.6357">All schemas</text><!--class Voorkeur--><g id="elem_Voorkeur"><rect codeLine="4" fill="#F1F1F1" height="80.5938" id="Voorkeur" rx="2.5" ry="2.5" style="stroke:#181818;stroke-width:0.5;" width="116" x="77.5" y="121.9375"/><ellipse cx="100.6" cy="137.9375" fill="#ADD1B2" rx="11" ry="11" style="stroke:#181818;stroke-width:1.0;"/><path d="M102.9438,133.6094 C102.0063,133.1719 101.4125,133.0313 100.5375,133.0313 C97.9125,133.0313 95.9125,135.1094 95.9125,137.8281 L95.9125,138.9531 C95.9125,141.5313 98.0219,143.4219 100.9125,143.4219 C102.1313,143.4219 103.2875,143.125 104.0375,142.5781 C104.6156,142.1719 104.9438,141.7188 104.9438,141.3281 C104.9438,140.875 104.5531,140.4844 104.0844,140.4844 C103.8656,140.4844 103.6625,140.5625 103.475,140.75 C103.0219,141.2344 103.0219,141.2344 102.8344,141.3281 C102.4125,141.5938 101.725,141.7188 100.9594,141.7188 C98.9125,141.7188 97.6156,140.625 97.6156,138.9219 L97.6156,137.8281 C97.6156,136.0469 98.8656,134.7344 100.6,134.7344 C101.1781,134.7344 101.7875,134.8906 102.2563,135.1406 C102.7406,135.4219 102.9125,135.6406 103.0063,136.0469 C103.0688,136.4531 103.1,136.5781 103.2406,136.7031 C103.3813,136.8438 103.6156,136.9531 103.8344,136.9531 C104.1,136.9531 104.3656,136.8125 104.5375,136.5938 C104.6469,136.4375 104.6781,136.25 104.6781,135.8281 L104.6781,134.4063 C104.6781,133.9688 104.6625,133.8438 104.5688,133.6875 C104.4125,133.4219 104.1313,133.2813 103.8344,133.2813 C103.5375,133.2813 103.3344,133.375 103.1156,133.6875 L102.9438,133.6094 Z " fill="#000000"/><text fill="#000000" font-family="sans-serif" font-size="14" lengthAdjust="spacing" textLength="66" x="116.4" y="142.7842">Voorkeur</text><line style="stroke:#181818;stroke-width:0.5;" x1="78.5" x2="192.5" y1="153.9375" y2="153.9375"/><ellipse cx="88.5" cy="167.5859" fill="none" rx="3" ry="3" style="stroke:#038048;stroke-width:1.0;"/><text fill="#000000" font-family="sans-serif" font-size="14" lengthAdjust="spacing" textLength="86" x="97.5" y="170.9326">code: string</text><ellipse cx="88.5" cy="183.8828" fill="none" rx="3" ry="3" style="stroke:#038048;stroke-width:1.0;"/><text fill="#000000" font-family="sans-serif" font-size="14" lengthAdjust="spacing" textLength="90" x="97.5" y="187.2295">naam: string</text><line style="stroke:#181818;stroke-width:0.5;" x1="78.5" x2="192.5" y1="194.5313" y2="194.5313"/></g><!--class Partij--><g id="elem_Partij"><rect codeLine="8" fill="#F1F1F1" height="210.9688" id="Partij" rx="2.5" ry="2.5" style="stroke:#181818;stroke-width:0.5;" width="241" x="229" y="56.9375"/><ellipse cx="326.25" cy="72.9375" fill="#ADD1B2" rx="11" ry="11" style="stroke:#181818;stroke-width:1.0;"/><path d="M328.5938,68.6094 C327.6563,68.1719 327.0625,68.0313 326.1875,68.0313 C323.5625,68.0313 321.5625,70.1094 321.5625,72.8281 L321.5625,73.9531 C321.5625,76.5313 323.6719,78.4219 326.5625,78.4219 C327.7813,78.4219 328.9375,78.125 329.6875,77.5781 C330.2656,77.1719 330.5938,76.7188 330.5938,76.3281 C330.5938,75.875 330.2031,75.4844 329.7344,75.4844 C329.5156,75.4844 329.3125,75.5625 329.125,75.75 C328.6719,76.2344 328.6719,76.2344 328.4844,76.3281 C328.0625,76.5938 327.375,76.7188 326.6094,76.7188 C324.5625,76.7188 323.2656,75.625 323.2656,73.9219 L323.2656,72.8281 C323.2656,71.0469 324.5156,69.7344 326.25,69.7344 C326.8281,69.7344 327.4375,69.8906 327.9063,70.1406 C328.3906,70.4219 328.5625,70.6406 328.6563,71.0469 C328.7188,71.4531 328.75,71.5781 328.8906,71.7031 C329.0313,71.8438 329.2656,71.9531 329.4844,71.9531 C329.75,71.9531 330.0156,71.8125 330.1875,71.5938 C330.2969,71.4375 330.3281,71.25 330.3281,70.8281 L330.3281,69.4063 C330.3281,68.9688 330.3125,68.8438 330.2188,68.6875 C330.0625,68.4219 329.7813,68.2813 329.4844,68.2813 C329.1875,68.2813 328.9844,68.375 328.7656,68.6875 L328.5938,68.6094 Z " fill="#000000"/><text fill="#000000" font-family="sans-serif" font-size="14" lengthAdjust="spacing" textLength="38" x="346.75" y="77.7842">Partij</text><line style="stroke:#181818;stroke-width:0.5;" x1="230" x2="469" y1="88.9375" y2="88.9375"/><ellipse cx="240" cy="102.5859" fill="none" rx="3" ry="3" style="stroke:#038048;stroke-width:1.0;"/><text fill="#000000" font-family="sans-serif" font-size="14" lengthAdjust="spacing" textLength="149" x="249" y="105.9326">bezoekadres: object</text><ellipse cx="240" cy="118.8828" fill="none" rx="3" ry="3" style="stroke:#038048;stroke-width:1.0;"/><text fill="#000000" font-family="sans-serif" font-size="14" lengthAdjust="spacing" textLength="215" x="249" y="122.2295">correspondentieadres: object</text><ellipse cx="240" cy="135.1797" fill="none" rx="3" ry="3" style="stroke:#038048;stroke-width:1.0;"/><text fill="#000000" font-family="sans-serif" font-size="14" lengthAdjust="spacing" textLength="190" x="249" y="138.5264">externeIdentificatie: array</text><ellipse cx="240" cy="151.4766" fill="none" rx="3" ry="3" style="stroke:#038048;stroke-width:1.0;"/><text fill="#000000" font-family="sans-serif" font-size="14" lengthAdjust="spacing" textLength="154" x="249" y="154.8232">interneNotitie: string</text><ellipse cx="240" cy="167.7734" fill="none" rx="3" ry="3" style="stroke:#038048;stroke-width:1.0;"/><text fill="#000000" font-family="sans-serif" font-size="14" lengthAdjust="spacing" textLength="127" x="249" y="171.1201">klanttaakId: array</text><ellipse cx="240" cy="184.0703" fill="none" rx="3" ry="3" style="stroke:#038048;stroke-width:1.0;"/><text fill="#000000" font-family="sans-serif" font-size="14" lengthAdjust="spacing" textLength="122" x="249" y="187.417">nummer: integer</text><ellipse cx="240" cy="200.3672" fill="none" rx="3" ry="3" style="stroke:#038048;stroke-width:1.0;"/><text fill="#000000" font-family="sans-serif" font-size="14" lengthAdjust="spacing" textLength="170" x="249" y="203.7139">organisatienaam: string</text><ellipse cx="240" cy="216.6641" fill="none" rx="3" ry="3" style="stroke:#038048;stroke-width:1.0;"/><text fill="#000000" font-family="sans-serif" font-size="14" lengthAdjust="spacing" textLength="161" x="249" y="220.0107">persoonsnaam: object</text><ellipse cx="240" cy="232.9609" fill="none" rx="3" ry="3" style="stroke:#038048;stroke-width:1.0;"/><text fill="#000000" font-family="sans-serif" font-size="14" lengthAdjust="spacing" textLength="173" x="249" y="236.3076">voorkeurskanaal: object</text><ellipse cx="240" cy="249.2578" fill="none" rx="3" ry="3" style="stroke:#038048;stroke-width:1.0;"/><text fill="#000000" font-family="sans-serif" font-size="14" lengthAdjust="spacing" textLength="154" x="249" y="252.6045">voorkeurstaal: object</text><line style="stroke:#181818;stroke-width:0.5;" x1="230" x2="469" y1="259.9063" y2="259.9063"/></g><!--class ExterneIdentificatie--><g id="elem_ExterneIdentificatie"><rect codeLine="20" fill="#F1F1F1" height="96.8906" id="ExterneIdentificatie" rx="2.5" ry="2.5" style="stroke:#181818;stroke-width:0.5;" width="219" x="505" y="113.9375"/><ellipse cx="538.9" cy="129.9375" fill="#ADD1B2" rx="11" ry="11" style="stroke:#181818;stroke-width:1.0;"/><path d="M541.2438,125.6094 C540.3063,125.1719 539.7125,125.0313 538.8375,125.0313 C536.2125,125.0313 534.2125,127.1094 534.2125,129.8281 L534.2125,130.9531 C534.2125,133.5313 536.3219,135.4219 539.2125,135.4219 C540.4313,135.4219 541.5875,135.125 542.3375,134.5781 C542.9156,134.1719 543.2438,133.7188 543.2438,133.3281 C543.2438,132.875 542.8531,132.4844 542.3844,132.4844 C542.1656,132.4844 541.9625,132.5625 541.775,132.75 C541.3219,133.2344 541.3219,133.2344 541.1344,133.3281 C540.7125,133.5938 540.025,133.7188 539.2594,133.7188 C537.2125,133.7188 535.9156,132.625 535.9156,130.9219 L535.9156,129.8281 C535.9156,128.0469 537.1656,126.7344 538.9,126.7344 C539.4781,126.7344 540.0875,126.8906 540.5563,127.1406 C541.0406,127.4219 541.2125,127.6406 541.3063,128.0469 C541.3688,128.4531 541.4,128.5781 541.5406,128.7031 C541.6813,128.8438 541.9156,128.9531 542.1344,128.9531 C542.4,128.9531 542.6656,128.8125 542.8375,128.5938 C542.9469,128.4375 542.9781,128.25 542.9781,127.8281 L542.9781,126.4063 C542.9781,125.9688 542.9625,125.8438 542.8688,125.6875 C542.7125,125.4219 542.4313,125.2813 542.1344,125.2813 C541.8375,125.2813 541.6344,125.375 541.4156,125.6875 L541.2438,125.6094 Z " fill="#000000"/><text fill="#000000" font-family="sans-serif" font-size="14" lengthAdjust="spacing" textLength="145" x="557.1" y="134.7842">ExterneIdentificatie</text><line style="stroke:#181818;stroke-width:0.5;" x1="506" x2="723" y1="145.9375" y2="145.9375"/><ellipse cx="516" cy="159.5859" fill="none" rx="3" ry="3" style="stroke:#038048;stroke-width:1.0;"/><text fill="#000000" font-family="sans-serif" font-size="14" lengthAdjust="spacing" textLength="193" x="525" y="162.9326">anderSoortExternId: string</text><ellipse cx="516" cy="175.8828" fill="none" rx="3" ry="3" style="stroke:#038048;stroke-width:1.0;"/><text fill="#000000" font-family="sans-serif" font-size="14" lengthAdjust="spacing" textLength="112" x="525" y="179.2295">externId: string</text><ellipse cx="516" cy="192.1797" fill="none" rx="3" ry="3" style="stroke:#038048;stroke-width:1.0;"/><text fill="#000000" font-family="sans-serif" font-size="14" lengthAdjust="spacing" textLength="155" x="525" y="195.5264">soortExternId: object</text><line style="stroke:#181818;stroke-width:0.5;" x1="506" x2="723" y1="202.8281" y2="202.8281"/></g><!--class Land--><g id="elem_Land"><rect codeLine="25" fill="#F1F1F1" height="113.1875" id="Land" rx="2.5" ry="2.5" style="stroke:#181818;stroke-width:0.5;" width="203" x="759" y="105.9375"/><ellipse cx="839.25" cy="121.9375" fill="#ADD1B2" rx="11" ry="11" style="stroke:#181818;stroke-width:1.0;"/><path d="M841.5938,117.6094 C840.6563,117.1719 840.0625,117.0313 839.1875,117.0313 C836.5625,117.0313 834.5625,119.1094 834.5625,121.8281 L834.5625,122.9531 C834.5625,125.5313 836.6719,127.4219 839.5625,127.4219 C840.7813,127.4219 841.9375,127.125 842.6875,126.5781 C843.2656,126.1719 843.5938,125.7188 843.5938,125.3281 C843.5938,124.875 843.2031,124.4844 842.7344,124.4844 C842.5156,124.4844 842.3125,124.5625 842.125,124.75 C841.6719,125.2344 841.6719,125.2344 841.4844,125.3281 C841.0625,125.5938 840.375,125.7188 839.6094,125.7188 C837.5625,125.7188 836.2656,124.625 836.2656,122.9219 L836.2656,121.8281 C836.2656,120.0469 837.5156,118.7344 839.25,118.7344 C839.8281,118.7344 840.4375,118.8906 840.9063,119.1406 C841.3906,119.4219 841.5625,119.6406 841.6563,120.0469 C841.7188,120.4531 841.75,120.5781 841.8906,120.7031 C842.0313,120.8438 842.2656,120.9531 842.4844,120.9531 C842.75,120.9531 843.0156,120.8125 843.1875,120.5938 C843.2969,120.4375 843.3281,120.25 843.3281,119.8281 L843.3281,118.4063 C843.3281,117.9688 843.3125,117.8438 843.2188,117.6875 C843.0625,117.4219 842.7813,117.2813 842.4844,117.2813 C842.1875,117.2813 841.9844,117.375 841.7656,117.6875 L841.5938,117.6094 Z " fill="#000000"/><text fill="#000000" font-family="sans-serif" font-size="14" lengthAdjust="spacing" textLength="34" x="859.75" y="126.7842">Land</text><line style="stroke:#181818;stroke-width:0.5;" x1="760" x2="961" y1="137.9375" y2="137.9375"/><ellipse cx="770" cy="151.5859" fill="none" rx="3" ry="3" style="stroke:#038048;stroke-width:1.0;"/><text fill="#000000" font-family="sans-serif" font-size="14" lengthAdjust="spacing" textLength="153" x="779" y="154.9326">einddatumLand: date</text><ellipse cx="770" cy="167.8828" fill="none" rx="3" ry="3" style="stroke:#038048;stroke-width:1.0;"/><text fill="#000000" font-family="sans-serif" font-size="14" lengthAdjust="spacing" textLength="177" x="779" y="171.2295">ingangsdatumLand: date</text><ellipse cx="770" cy="184.1797" fill="none" rx="3" ry="3" style="stroke:#038048;stroke-width:1.0;"/><text fill="#000000" font-family="sans-serif" font-size="14" lengthAdjust="spacing" textLength="116" x="779" y="187.5264">landcode: string</text><ellipse cx="770" cy="200.4766" fill="none" rx="3" ry="3" style="stroke:#038048;stroke-width:1.0;"/><text fill="#000000" font-family="sans-serif" font-size="14" lengthAdjust="spacing" textLength="120" x="779" y="203.8232">landnaam: string</text><line style="stroke:#181818;stroke-width:0.5;" x1="760" x2="961" y1="211.125" y2="211.125"/></g><!--class Medewerker--><g id="elem_Medewerker"><rect codeLine="31" fill="#F1F1F1" height="162.0781" id="Medewerker" rx="2.5" ry="2.5" style="stroke:#181818;stroke-width:0.5;" width="199" x="36" y="384.9375"/><ellipse cx="86.75" cy="400.9375" fill="#ADD1B2" rx="11" ry="11" style="stroke:#181818;stroke-width:1.0;"/><path d="M89.0938,396.6094 C88.1563,396.1719 87.5625,396.0313 86.6875,396.0313 C84.0625,396.0313 82.0625,398.1094 82.0625,400.8281 L82.0625,401.9531 C82.0625,404.5313 84.1719,406.4219 87.0625,406.4219 C88.2813,406.4219 89.4375,406.125 90.1875,405.5781 C90.7656,405.1719 91.0938,404.7188 91.0938,404.3281 C91.0938,403.875 90.7031,403.4844 90.2344,403.4844 C90.0156,403.4844 89.8125,403.5625 89.625,403.75 C89.1719,404.2344 89.1719,404.2344 88.9844,404.3281 C88.5625,404.5938 87.875,404.7188 87.1094,404.7188 C85.0625,404.7188 83.7656,403.625 83.7656,401.9219 L83.7656,400.8281 C83.7656,399.0469 85.0156,397.7344 86.75,397.7344 C87.3281,397.7344 87.9375,397.8906 88.4063,398.1406 C88.8906,398.4219 89.0625,398.6406 89.1563,399.0469 C89.2188,399.4531 89.25,399.5781 89.3906,399.7031 C89.5313,399.8438 89.7656,399.9531 89.9844,399.9531 C90.25,399.9531 90.5156,399.8125 90.6875,399.5938 C90.7969,399.4375 90.8281,399.25 90.8281,398.8281 L90.8281,397.4063 C90.8281,396.9688 90.8125,396.8438 90.7188,396.6875 C90.5625,396.4219 90.2813,396.2813 89.9844,396.2813 C89.6875,396.2813 89.4844,396.375 89.2656,396.6875 L89.0938,396.6094 Z " fill="#000000"/><text fill="#000000" font-family="sans-serif" font-size="14" lengthAdjust="spacing" textLength="89" x="107.25" y="405.7842">Medewerker</text><line style="stroke:#181818;stroke-width:0.5;" x1="37" x2="234" y1="416.9375" y2="416.9375"/><ellipse cx="47" cy="430.5859" fill="none" rx="3" ry="3" style="stroke:#038048;stroke-width:1.0;"/><text fill="#000000" font-family="sans-serif" font-size="14" lengthAdjust="spacing" textLength="151" x="56" y="433.9326">klantcontactId: array</text><ellipse cx="47" cy="446.8828" fill="none" rx="3" ry="3" style="stroke:#038048;stroke-width:1.0;"/><text fill="#000000" font-family="sans-serif" font-size="14" lengthAdjust="spacing" textLength="90" x="56" y="450.2295">naam: string</text><ellipse cx="47" cy="463.1797" fill="none" rx="3" ry="3" style="stroke:#038048;stroke-width:1.0;"/><text fill="#000000" font-family="sans-serif" font-size="14" lengthAdjust="spacing" textLength="127" x="56" y="466.5264">eMailadres: string</text><ellipse cx="47" cy="479.4766" fill="none" rx="3" ry="3" style="stroke:#038048;stroke-width:1.0;"/><text fill="#000000" font-family="sans-serif" font-size="14" lengthAdjust="spacing" textLength="112" x="56" y="482.8232">externId: string</text><ellipse cx="47" cy="495.7734" fill="none" rx="3" ry="3" style="stroke:#038048;stroke-width:1.0;"/><text fill="#000000" font-family="sans-serif" font-size="14" lengthAdjust="spacing" textLength="160" x="56" y="499.1201">externRegister: string</text><ellipse cx="47" cy="512.0703" fill="none" rx="3" ry="3" style="stroke:#038048;stroke-width:1.0;"/><text fill="#000000" font-family="sans-serif" font-size="14" lengthAdjust="spacing" textLength="102" x="56" y="515.417">functie: string</text><ellipse cx="47" cy="528.3672" fill="none" rx="3" ry="3" style="stroke:#038048;stroke-width:1.0;"/><text fill="#000000" font-family="sans-serif" font-size="14" lengthAdjust="spacing" textLength="173" x="56" y="531.7139">telefoonnummer: string</text><line style="stroke:#181818;stroke-width:0.5;" x1="37" x2="234" y1="539.0156" y2="539.0156"/></g><!--class Correspondentieadres--><g id="elem_Correspondentieadres"><rect codeLine="40" fill="#F1F1F1" height="276.1563" id="Correspondentieadres" rx="2.5" ry="2.5" style="stroke:#181818;stroke-width:0.5;" width="276" x="270.5" y="327.9375"/><ellipse cx="323.75" cy="343.9375" fill="#ADD1B2" rx="11" ry="11" style="stroke:#181818;stroke-width:1.0;"/><path d="M326.0938,339.6094 C325.1563,339.1719 324.5625,339.0313 323.6875,339.0313 C321.0625,339.0313 319.0625,341.1094 319.0625,343.8281 L319.0625,344.9531 C319.0625,347.5313 321.1719,349.4219 324.0625,349.4219 C325.2813,349.4219 326.4375,349.125 327.1875,348.5781 C327.7656,348.1719 328.0938,347.7188 328.0938,347.3281 C328.0938,346.875 327.7031,346.4844 327.2344,346.4844 C327.0156,346.4844 326.8125,346.5625 326.625,346.75 C326.1719,347.2344 326.1719,347.2344 325.9844,347.3281 C325.5625,347.5938 324.875,347.7188 324.1094,347.7188 C322.0625,347.7188 320.7656,346.625 320.7656,344.9219 L320.7656,343.8281 C320.7656,342.0469 322.0156,340.7344 323.75,340.7344 C324.3281,340.7344 324.9375,340.8906 325.4063,341.1406 C325.8906,341.4219 326.0625,341.6406 326.1563,342.0469 C326.2188,342.4531 326.25,342.5781 326.3906,342.7031 C326.5313,342.8438 326.7656,342.9531 326.9844,342.9531 C327.25,342.9531 327.5156,342.8125 327.6875,342.5938 C327.7969,342.4375 327.8281,342.25 327.8281,341.8281 L327.8281,340.4063 C327.8281,339.9688 327.8125,339.8438 327.7188,339.6875 C327.5625,339.4219 327.2813,339.2813 326.9844,339.2813 C326.6875,339.2813 326.4844,339.375 326.2656,339.6875 L326.0938,339.6094 Z " fill="#000000"/><text fill="#000000" font-family="sans-serif" font-size="14" lengthAdjust="spacing" textLength="161" x="344.25" y="348.7842">Correspondentieadres</text><line style="stroke:#181818;stroke-width:0.5;" x1="271.5" x2="545.5" y1="359.9375" y2="359.9375"/><ellipse cx="281.5" cy="373.5859" fill="none" rx="3" ry="3" style="stroke:#038048;stroke-width:1.0;"/><text fill="#000000" font-family="sans-serif" font-size="14" lengthAdjust="spacing" textLength="235" x="290.5" y="376.9326">aanduidingBijHuisnummer: string</text><ellipse cx="281.5" cy="389.8828" fill="none" rx="3" ry="3" style="stroke:#038048;stroke-width:1.0;"/><text fill="#000000" font-family="sans-serif" font-size="14" lengthAdjust="spacing" textLength="213" x="290.5" y="393.2295">adresregelBuitenland1: string</text><ellipse cx="281.5" cy="406.1797" fill="none" rx="3" ry="3" style="stroke:#038048;stroke-width:1.0;"/><text fill="#000000" font-family="sans-serif" font-size="14" lengthAdjust="spacing" textLength="212" x="290.5" y="409.5264">adresregelBuitenland2: string</text><ellipse cx="281.5" cy="422.4766" fill="none" rx="3" ry="3" style="stroke:#038048;stroke-width:1.0;"/><text fill="#000000" font-family="sans-serif" font-size="14" lengthAdjust="spacing" textLength="213" x="290.5" y="425.8232">adresregelBuitenland3: string</text><ellipse cx="281.5" cy="438.7734" fill="none" rx="3" ry="3" style="stroke:#038048;stroke-width:1.0;"/><text fill="#000000" font-family="sans-serif" font-size="14" lengthAdjust="spacing" textLength="190" x="290.5" y="442.1201">antwoordnummer: integer</text><ellipse cx="281.5" cy="455.0703" fill="none" rx="3" ry="3" style="stroke:#038048;stroke-width:1.0;"/><text fill="#000000" font-family="sans-serif" font-size="14" lengthAdjust="spacing" textLength="121" x="290.5" y="458.417">huisletter: string</text><ellipse cx="281.5" cy="471.3672" fill="none" rx="3" ry="3" style="stroke:#038048;stroke-width:1.0;"/><text fill="#000000" font-family="sans-serif" font-size="14" lengthAdjust="spacing" textLength="150" x="290.5" y="474.7139">huisnummer: integer</text><ellipse cx="281.5" cy="487.6641" fill="none" rx="3" ry="3" style="stroke:#038048;stroke-width:1.0;"/><text fill="#000000" font-family="sans-serif" font-size="14" lengthAdjust="spacing" textLength="221" x="290.5" y="491.0107">huisnummertoevoeging: string</text><ellipse cx="281.5" cy="503.9609" fill="none" rx="3" ry="3" style="stroke:#038048;stroke-width:1.0;"/><text fill="#000000" font-family="sans-serif" font-size="14" lengthAdjust="spacing" textLength="86" x="290.5" y="507.3076">land: object</text><ellipse cx="281.5" cy="520.2578" fill="none" rx="3" ry="3" style="stroke:#038048;stroke-width:1.0;"/><text fill="#000000" font-family="sans-serif" font-size="14" lengthAdjust="spacing" textLength="180" x="290.5" y="523.6045">postbusnummer: integer</text><ellipse cx="281.5" cy="536.5547" fill="none" rx="3" ry="3" style="stroke:#038048;stroke-width:1.0;"/><text fill="#000000" font-family="sans-serif" font-size="14" lengthAdjust="spacing" textLength="119" x="290.5" y="539.9014">postcode: string</text><ellipse cx="281.5" cy="552.8516" fill="none" rx="3" ry="3" style="stroke:#038048;stroke-width:1.0;"/><text fill="#000000" font-family="sans-serif" font-size="14" lengthAdjust="spacing" textLength="250" x="290.5" y="556.1982">soortCorrespondentieadres: string</text><ellipse cx="281.5" cy="569.1484" fill="none" rx="3" ry="3" style="stroke:#038048;stroke-width:1.0;"/><text fill="#000000" font-family="sans-serif" font-size="14" lengthAdjust="spacing" textLength="94" x="290.5" y="572.4951">straat: string</text><ellipse cx="281.5" cy="585.4453" fill="none" rx="3" ry="3" style="stroke:#038048;stroke-width:1.0;"/><text fill="#000000" font-family="sans-serif" font-size="14" lengthAdjust="spacing" textLength="133" x="290.5" y="588.792">woonplaats: string</text><line style="stroke:#181818;stroke-width:0.5;" x1="271.5" x2="545.5" y1="596.0938" y2="596.0938"/></g><!--class Bezoekadres--><g id="elem_Bezoekadres"><rect codeLine="56" fill="#F1F1F1" height="243.5625" id="Bezoekadres" rx="2.5" ry="2.5" style="stroke:#181818;stroke-width:0.5;" width="261" x="582" y="343.9375"/><ellipse cx="661.75" cy="359.9375" fill="#ADD1B2" rx="11" ry="11" style="stroke:#181818;stroke-width:1.0;"/><path d="M664.0938,355.6094 C663.1563,355.1719 662.5625,355.0313 661.6875,355.0313 C659.0625,355.0313 657.0625,357.1094 657.0625,359.8281 L657.0625,360.9531 C657.0625,363.5313 659.1719,365.4219 662.0625,365.4219 C663.2813,365.4219 664.4375,365.125 665.1875,364.5781 C665.7656,364.1719 666.0938,363.7188 666.0938,363.3281 C666.0938,362.875 665.7031,362.4844 665.2344,362.4844 C665.0156,362.4844 664.8125,362.5625 664.625,362.75 C664.1719,363.2344 664.1719,363.2344 663.9844,363.3281 C663.5625,363.5938 662.875,363.7188 662.1094,363.7188 C660.0625,363.7188 658.7656,362.625 658.7656,360.9219 L658.7656,359.8281 C658.7656,358.0469 660.0156,356.7344 661.75,356.7344 C662.3281,356.7344 662.9375,356.8906 663.4063,357.1406 C663.8906,357.4219 664.0625,357.6406 664.1563,358.0469 C664.2188,358.4531 664.25,358.5781 664.3906,358.7031 C664.5313,358.8438 664.7656,358.9531 664.9844,358.9531 C665.25,358.9531 665.5156,358.8125 665.6875,358.5938 C665.7969,358.4375 665.8281,358.25 665.8281,357.8281 L665.8281,356.4063 C665.8281,355.9688 665.8125,355.8438 665.7188,355.6875 C665.5625,355.4219 665.2813,355.2813 664.9844,355.2813 C664.6875,355.2813 664.4844,355.375 664.2656,355.6875 L664.0938,355.6094 Z " fill="#000000"/><text fill="#000000" font-family="sans-serif" font-size="14" lengthAdjust="spacing" textLength="93" x="682.25" y="364.7842">Bezoekadres</text><line style="stroke:#181818;stroke-width:0.5;" x1="583" x2="842" y1="375.9375" y2="375.9375"/><ellipse cx="593" cy="389.5859" fill="none" rx="3" ry="3" style="stroke:#038048;stroke-width:1.0;"/><text fill="#000000" font-family="sans-serif" font-size="14" lengthAdjust="spacing" textLength="235" x="602" y="392.9326">aanduidingBijHuisnummer: string</text><ellipse cx="593" cy="405.8828" fill="none" rx="3" ry="3" style="stroke:#038048;stroke-width:1.0;"/><text fill="#000000" font-family="sans-serif" font-size="14" lengthAdjust="spacing" textLength="213" x="602" y="409.2295">adresregelBuitenland1: string</text><ellipse cx="593" cy="422.1797" fill="none" rx="3" ry="3" style="stroke:#038048;stroke-width:1.0;"/><text fill="#000000" font-family="sans-serif" font-size="14" lengthAdjust="spacing" textLength="212" x="602" y="425.5264">adresregelBuitenland2: string</text><ellipse cx="593" cy="438.4766" fill="none" rx="3" ry="3" style="stroke:#038048;stroke-width:1.0;"/><text fill="#000000" font-family="sans-serif" font-size="14" lengthAdjust="spacing" textLength="213" x="602" y="441.8232">adresregelBuitenland3: string</text><ellipse cx="593" cy="454.7734" fill="none" rx="3" ry="3" style="stroke:#038048;stroke-width:1.0;"/><text fill="#000000" font-family="sans-serif" font-size="14" lengthAdjust="spacing" textLength="121" x="602" y="458.1201">huisletter: string</text><ellipse cx="593" cy="471.0703" fill="none" rx="3" ry="3" style="stroke:#038048;stroke-width:1.0;"/><text fill="#000000" font-family="sans-serif" font-size="14" lengthAdjust="spacing" textLength="150" x="602" y="474.417">huisnummer: integer</text><ellipse cx="593" cy="487.3672" fill="none" rx="3" ry="3" style="stroke:#038048;stroke-width:1.0;"/><text fill="#000000" font-family="sans-serif" font-size="14" lengthAdjust="spacing" textLength="221" x="602" y="490.7139">huisnummertoevoeging: string</text><ellipse cx="593" cy="503.6641" fill="none" rx="3" ry="3" style="stroke:#038048;stroke-width:1.0;"/><text fill="#000000" font-family="sans-serif" font-size="14" lengthAdjust="spacing" textLength="86" x="602" y="507.0107">land: object</text><ellipse cx="593" cy="519.9609" fill="none" rx="3" ry="3" style="stroke:#038048;stroke-width:1.0;"/><text fill="#000000" font-family="sans-serif" font-size="14" lengthAdjust="spacing" textLength="119" x="602" y="523.3076">postcode: string</text><ellipse cx="593" cy="536.2578" fill="none" rx="3" ry="3" style="stroke:#038048;stroke-width:1.0;"/><text fill="#000000" font-family="sans-serif" font-size="14" lengthAdjust="spacing" textLength="182" x="602" y="539.6045">soortBezoekadres: string</text><ellipse cx="593" cy="552.5547" fill="none" rx="3" ry="3" style="stroke:#038048;stroke-width:1.0;"/><text fill="#000000" font-family="sans-serif" font-size="14" lengthAdjust="spacing" textLength="94" x="602" y="555.9014">straat: string</text><ellipse cx="593" cy="568.8516" fill="none" rx="3" ry="3" style="stroke:#038048;stroke-width:1.0;"/><text fill="#000000" font-family="sans-serif" font-size="14" lengthAdjust="spacing" textLength="133" x="602" y="572.1982">woonplaats: string</text><line style="stroke:#181818;stroke-width:0.5;" x1="583" x2="842" y1="579.5" y2="579.5"/></g><!--class Actor--><g id="elem_Actor"><rect codeLine="70" fill="#F1F1F1" height="80.5938" id="Actor" rx="2.5" ry="2.5" style="stroke:#181818;stroke-width:0.5;" width="177" x="878" y="425.4375"/><ellipse cx="942.25" cy="441.4375" fill="#ADD1B2" rx="11" ry="11" style="stroke:#181818;stroke-width:1.0;"/><path d="M944.5938,437.1094 C943.6563,436.6719 943.0625,436.5313 942.1875,436.5313 C939.5625,436.5313 937.5625,438.6094 937.5625,441.3281 L937.5625,442.4531 C937.5625,445.0313 939.6719,446.9219 942.5625,446.9219 C943.7813,446.9219 944.9375,446.625 945.6875,446.0781 C946.2656,445.6719 946.5938,445.2188 946.5938,444.8281 C946.5938,444.375 946.2031,443.9844 945.7344,443.9844 C945.5156,443.9844 945.3125,444.0625 945.125,444.25 C944.6719,444.7344 944.6719,444.7344 944.4844,444.8281 C944.0625,445.0938 943.375,445.2188 942.6094,445.2188 C940.5625,445.2188 939.2656,444.125 939.2656,442.4219 L939.2656,441.3281 C939.2656,439.5469 940.5156,438.2344 942.25,438.2344 C942.8281,438.2344 943.4375,438.3906 943.9063,438.6406 C944.3906,438.9219 944.5625,439.1406 944.6563,439.5469 C944.7188,439.9531 944.75,440.0781 944.8906,440.2031 C945.0313,440.3438 945.2656,440.4531 945.4844,440.4531 C945.75,440.4531 946.0156,440.3125 946.1875,440.0938 C946.2969,439.9375 946.3281,439.75 946.3281,439.3281 L946.3281,437.9063 C946.3281,437.4688 946.3125,437.3438 946.2188,437.1875 C946.0625,436.9219 945.7813,436.7813 945.4844,436.7813 C945.1875,436.7813 944.9844,436.875 944.7656,437.1875 L944.5938,437.1094 Z " fill="#000000"/><text fill="#000000" font-family="sans-serif" font-size="14" lengthAdjust="spacing" textLength="40" x="962.75" y="446.2842">Actor</text><line style="stroke:#181818;stroke-width:0.5;" x1="879" x2="1054" y1="457.4375" y2="457.4375"/><ellipse cx="889" cy="471.0859" fill="none" rx="3" ry="3" style="stroke:#038048;stroke-width:1.0;"/><text fill="#000000" font-family="sans-serif" font-size="14" lengthAdjust="spacing" textLength="151" x="898" y="474.4326">klantcontactId: array</text><ellipse cx="889" cy="487.3828" fill="none" rx="3" ry="3" style="stroke:#038048;stroke-width:1.0;"/><text fill="#000000" font-family="sans-serif" font-size="14" lengthAdjust="spacing" textLength="90" x="898" y="490.7295">naam: string</text><line style="stroke:#181818;stroke-width:0.5;" x1="879" x2="1054" y1="498.0313" y2="498.0313"/></g><!--class Bijlage--><g id="elem_Bijlage"><rect codeLine="74" fill="#F1F1F1" height="129.4844" id="Bijlage" rx="2.5" ry="2.5" style="stroke:#181818;stroke-width:0.5;" width="257" x="7" y="688.4375"/><ellipse cx="107.25" cy="704.4375" fill="#ADD1B2" rx="11" ry="11" style="stroke:#181818;stroke-width:1.0;"/><path d="M109.5938,700.1094 C108.6563,699.6719 108.0625,699.5313 107.1875,699.5313 C104.5625,699.5313 102.5625,701.6094 102.5625,704.3281 L102.5625,705.4531 C102.5625,708.0313 104.6719,709.9219 107.5625,709.9219 C108.7813,709.9219 109.9375,709.625 110.6875,709.0781 C111.2656,708.6719 111.5938,708.2188 111.5938,707.8281 C111.5938,707.375 111.2031,706.9844 110.7344,706.9844 C110.5156,706.9844 110.3125,707.0625 110.125,707.25 C109.6719,707.7344 109.6719,707.7344 109.4844,707.8281 C109.0625,708.0938 108.375,708.2188 107.6094,708.2188 C105.5625,708.2188 104.2656,707.125 104.2656,705.4219 L104.2656,704.3281 C104.2656,702.5469 105.5156,701.2344 107.25,701.2344 C107.8281,701.2344 108.4375,701.3906 108.9063,701.6406 C109.3906,701.9219 109.5625,702.1406 109.6563,702.5469 C109.7188,702.9531 109.75,703.0781 109.8906,703.2031 C110.0313,703.3438 110.2656,703.4531 110.4844,703.4531 C110.75,703.4531 111.0156,703.3125 111.1875,703.0938 C111.2969,702.9375 111.3281,702.75 111.3281,702.3281 L111.3281,700.9063 C111.3281,700.4688 111.3125,700.3438 111.2188,700.1875 C111.0625,699.9219 110.7813,699.7813 110.4844,699.7813 C110.1875,699.7813 109.9844,699.875 109.7656,700.1875 L109.5938,700.1094 Z " fill="#000000"/><text fill="#000000" font-family="sans-serif" font-size="14" lengthAdjust="spacing" textLength="48" x="127.75" y="709.2842">Bijlage</text><line style="stroke:#181818;stroke-width:0.5;" x1="8" x2="263" y1="720.4375" y2="720.4375"/><ellipse cx="18" cy="734.0859" fill="none" rx="3" ry="3" style="stroke:#038048;stroke-width:1.0;"/><text fill="#000000" font-family="sans-serif" font-size="14" lengthAdjust="spacing" textLength="112" x="27" y="737.4326">externId: string</text><ellipse cx="18" cy="750.3828" fill="none" rx="3" ry="3" style="stroke:#038048;stroke-width:1.0;"/><text fill="#000000" font-family="sans-serif" font-size="14" lengthAdjust="spacing" textLength="160" x="27" y="753.7295">externRegister: string</text><ellipse cx="18" cy="766.6797" fill="none" rx="3" ry="3" style="stroke:#038048;stroke-width:1.0;"/><text fill="#000000" font-family="sans-serif" font-size="14" lengthAdjust="spacing" textLength="231" x="27" y="770.0264">indicatieWeerTeGeven: boolean</text><ellipse cx="18" cy="782.9766" fill="none" rx="3" ry="3" style="stroke:#038048;stroke-width:1.0;"/><text fill="#000000" font-family="sans-serif" font-size="14" lengthAdjust="spacing" textLength="157" x="27" y="786.3232">klantcontactId: string</text><ellipse cx="18" cy="799.2734" fill="none" rx="3" ry="3" style="stroke:#038048;stroke-width:1.0;"/><text fill="#000000" font-family="sans-serif" font-size="14" lengthAdjust="spacing" textLength="142" x="27" y="802.6201">omschrijving: string</text><line style="stroke:#181818;stroke-width:0.5;" x1="8" x2="263" y1="809.9219" y2="809.9219"/></g><!--class SoortExternId--><g id="elem_SoortExternId"><rect codeLine="81" fill="#F1F1F1" height="96.8906" id="SoortExternId" rx="2.5" ry="2.5" style="stroke:#181818;stroke-width:0.5;" width="186" x="299.5" y="704.4375"/><ellipse cx="338.35" cy="720.4375" fill="#ADD1B2" rx="11" ry="11" style="stroke:#181818;stroke-width:1.0;"/><path d="M340.6938,716.1094 C339.7563,715.6719 339.1625,715.5313 338.2875,715.5313 C335.6625,715.5313 333.6625,717.6094 333.6625,720.3281 L333.6625,721.4531 C333.6625,724.0313 335.7719,725.9219 338.6625,725.9219 C339.8813,725.9219 341.0375,725.625 341.7875,725.0781 C342.3656,724.6719 342.6938,724.2188 342.6938,723.8281 C342.6938,723.375 342.3031,722.9844 341.8344,722.9844 C341.6156,722.9844 341.4125,723.0625 341.225,723.25 C340.7719,723.7344 340.7719,723.7344 340.5844,723.8281 C340.1625,724.0938 339.475,724.2188 338.7094,724.2188 C336.6625,724.2188 335.3656,723.125 335.3656,721.4219 L335.3656,720.3281 C335.3656,718.5469 336.6156,717.2344 338.35,717.2344 C338.9281,717.2344 339.5375,717.3906 340.0063,717.6406 C340.4906,717.9219 340.6625,718.1406 340.7563,718.5469 C340.8188,718.9531 340.85,719.0781 340.9906,719.2031 C341.1313,719.3438 341.3656,719.4531 341.5844,719.4531 C341.85,719.4531 342.1156,719.3125 342.2875,719.0938 C342.3969,718.9375 342.4281,718.75 342.4281,718.3281 L342.4281,716.9063 C342.4281,716.4688 342.4125,716.3438 342.3188,716.1875 C342.1625,715.9219 341.8813,715.7813 341.5844,715.7813 C341.2875,715.7813 341.0844,715.875 340.8656,716.1875 L340.6938,716.1094 Z " fill="#000000"/><text fill="#000000" font-family="sans-serif" font-size="14" lengthAdjust="spacing" textLength="101" x="357.65" y="725.2842">SoortExternId</text><line style="stroke:#181818;stroke-width:0.5;" x1="300.5" x2="484.5" y1="736.4375" y2="736.4375"/><ellipse cx="310.5" cy="750.0859" fill="none" rx="3" ry="3" style="stroke:#038048;stroke-width:1.0;"/><text fill="#000000" font-family="sans-serif" font-size="14" lengthAdjust="spacing" textLength="86" x="319.5" y="753.4326">code: string</text><ellipse cx="310.5" cy="766.3828" fill="none" rx="3" ry="3" style="stroke:#038048;stroke-width:1.0;"/><text fill="#000000" font-family="sans-serif" font-size="14" lengthAdjust="spacing" textLength="160" x="319.5" y="769.7295">externRegister: string</text><ellipse cx="310.5" cy="782.6797" fill="none" rx="3" ry="3" style="stroke:#038048;stroke-width:1.0;"/><text fill="#000000" font-family="sans-serif" font-size="14" lengthAdjust="spacing" textLength="90" x="319.5" y="786.0264">naam: string</text><line style="stroke:#181818;stroke-width:0.5;" x1="300.5" x2="484.5" y1="793.3281" y2="793.3281"/></g><!--class OrganisatorischeEenheid--><g id="elem_OrganisatorischeEenheid"><rect codeLine="86" fill="#F1F1F1" height="178.375" id="OrganisatorischeEenheid" rx="2.5" ry="2.5" style="stroke:#181818;stroke-width:0.5;" width="211" x="521" y="663.9375"/><ellipse cx="536" cy="679.9375" fill="#ADD1B2" rx="11" ry="11" style="stroke:#181818;stroke-width:1.0;"/><path d="M538.3438,675.6094 C537.4063,675.1719 536.8125,675.0313 535.9375,675.0313 C533.3125,675.0313 531.3125,677.1094 531.3125,679.8281 L531.3125,680.9531 C531.3125,683.5313 533.4219,685.4219 536.3125,685.4219 C537.5313,685.4219 538.6875,685.125 539.4375,684.5781 C540.0156,684.1719 540.3438,683.7188 540.3438,683.3281 C540.3438,682.875 539.9531,682.4844 539.4844,682.4844 C539.2656,682.4844 539.0625,682.5625 538.875,682.75 C538.4219,683.2344 538.4219,683.2344 538.2344,683.3281 C537.8125,683.5938 537.125,683.7188 536.3594,683.7188 C534.3125,683.7188 533.0156,682.625 533.0156,680.9219 L533.0156,679.8281 C533.0156,678.0469 534.2656,676.7344 536,676.7344 C536.5781,676.7344 537.1875,676.8906 537.6563,677.1406 C538.1406,677.4219 538.3125,677.6406 538.4063,678.0469 C538.4688,678.4531 538.5,678.5781 538.6406,678.7031 C538.7813,678.8438 539.0156,678.9531 539.2344,678.9531 C539.5,678.9531 539.7656,678.8125 539.9375,678.5938 C540.0469,678.4375 540.0781,678.25 540.0781,677.8281 L540.0781,676.4063 C540.0781,675.9688 540.0625,675.8438 539.9688,675.6875 C539.8125,675.4219 539.5313,675.2813 539.2344,675.2813 C538.9375,675.2813 538.7344,675.375 538.5156,675.6875 L538.3438,675.6094 Z " fill="#000000"/><text fill="#000000" font-family="sans-serif" font-size="14" lengthAdjust="spacing" textLength="179" x="550" y="684.7842">OrganisatorischeEenheid</text><line style="stroke:#181818;stroke-width:0.5;" x1="522" x2="731" y1="695.9375" y2="695.9375"/><ellipse cx="532" cy="709.5859" fill="none" rx="3" ry="3" style="stroke:#038048;stroke-width:1.0;"/><text fill="#000000" font-family="sans-serif" font-size="14" lengthAdjust="spacing" textLength="151" x="541" y="712.9326">klantcontactId: array</text><ellipse cx="532" cy="725.8828" fill="none" rx="3" ry="3" style="stroke:#038048;stroke-width:1.0;"/><text fill="#000000" font-family="sans-serif" font-size="14" lengthAdjust="spacing" textLength="90" x="541" y="729.2295">naam: string</text><ellipse cx="532" cy="742.1797" fill="none" rx="3" ry="3" style="stroke:#038048;stroke-width:1.0;"/><text fill="#000000" font-family="sans-serif" font-size="14" lengthAdjust="spacing" textLength="127" x="541" y="745.5264">eMailadres: string</text><ellipse cx="532" cy="758.4766" fill="none" rx="3" ry="3" style="stroke:#038048;stroke-width:1.0;"/><text fill="#000000" font-family="sans-serif" font-size="14" lengthAdjust="spacing" textLength="112" x="541" y="761.8232">externId: string</text><ellipse cx="532" cy="774.7734" fill="none" rx="3" ry="3" style="stroke:#038048;stroke-width:1.0;"/><text fill="#000000" font-family="sans-serif" font-size="14" lengthAdjust="spacing" textLength="160" x="541" y="778.1201">externRegister: string</text><ellipse cx="532" cy="791.0703" fill="none" rx="3" ry="3" style="stroke:#038048;stroke-width:1.0;"/><text fill="#000000" font-family="sans-serif" font-size="14" lengthAdjust="spacing" textLength="133" x="541" y="794.417">faxnummer: string</text><ellipse cx="532" cy="807.3672" fill="none" rx="3" ry="3" style="stroke:#038048;stroke-width:1.0;"/><text fill="#000000" font-family="sans-serif" font-size="14" lengthAdjust="spacing" textLength="142" x="541" y="810.7139">omschrijving: string</text><ellipse cx="532" cy="823.6641" fill="none" rx="3" ry="3" style="stroke:#038048;stroke-width:1.0;"/><text fill="#000000" font-family="sans-serif" font-size="14" lengthAdjust="spacing" textLength="173" x="541" y="827.0107">telefoonnummer: string</text><line style="stroke:#181818;stroke-width:0.5;" x1="522" x2="731" y1="834.3125" y2="834.3125"/></g><!--class DigitaalAdres--><g id="elem_DigitaalAdres"><rect codeLine="96" fill="#F1F1F1" height="96.8906" id="DigitaalAdres" rx="2.5" ry="2.5" style="stroke:#181818;stroke-width:0.5;" width="216" x="767.5" y="704.4375"/><ellipse cx="823.25" cy="720.4375" fill="#ADD1B2" rx="11" ry="11" style="stroke:#181818;stroke-width:1.0;"/><path d="M825.5938,716.1094 C824.6563,715.6719 824.0625,715.5313 823.1875,715.5313 C820.5625,715.5313 818.5625,717.6094 818.5625,720.3281 L818.5625,721.4531 C818.5625,724.0313 820.6719,725.9219 823.5625,725.9219 C824.7813,725.9219 825.9375,725.625 826.6875,725.0781 C827.2656,724.6719 827.5938,724.2188 827.5938,723.8281 C827.5938,723.375 827.2031,722.9844 826.7344,722.9844 C826.5156,722.9844 826.3125,723.0625 826.125,723.25 C825.6719,723.7344 825.6719,723.7344 825.4844,723.8281 C825.0625,724.0938 824.375,724.2188 823.6094,724.2188 C821.5625,724.2188 820.2656,723.125 820.2656,721.4219 L820.2656,720.3281 C820.2656,718.5469 821.5156,717.2344 823.25,717.2344 C823.8281,717.2344 824.4375,717.3906 824.9063,717.6406 C825.3906,717.9219 825.5625,718.1406 825.6563,718.5469 C825.7188,718.9531 825.75,719.0781 825.8906,719.2031 C826.0313,719.3438 826.2656,719.4531 826.4844,719.4531 C826.75,719.4531 827.0156,719.3125 827.1875,719.0938 C827.2969,718.9375 827.3281,718.75 827.3281,718.3281 L827.3281,716.9063 C827.3281,716.4688 827.3125,716.3438 827.2188,716.1875 C827.0625,715.9219 826.7813,715.7813 826.4844,715.7813 C826.1875,715.7813 825.9844,715.875 825.7656,716.1875 L825.5938,716.1094 Z " fill="#000000"/><text fill="#000000" font-family="sans-serif" font-size="14" lengthAdjust="spacing" textLength="96" x="843.75" y="725.2842">DigitaalAdres</text><line style="stroke:#181818;stroke-width:0.5;" x1="768.5" x2="982.5" y1="736.4375" y2="736.4375"/><ellipse cx="778.5" cy="750.0859" fill="none" rx="3" ry="3" style="stroke:#038048;stroke-width:1.0;"/><text fill="#000000" font-family="sans-serif" font-size="14" lengthAdjust="spacing" textLength="90" x="787.5" y="753.4326">adres: string</text><ellipse cx="778.5" cy="766.3828" fill="none" rx="3" ry="3" style="stroke:#038048;stroke-width:1.0;"/><text fill="#000000" font-family="sans-serif" font-size="14" lengthAdjust="spacing" textLength="142" x="787.5" y="769.7295">omschrijving: string</text><ellipse cx="778.5" cy="782.6797" fill="none" rx="3" ry="3" style="stroke:#038048;stroke-width:1.0;"/><text fill="#000000" font-family="sans-serif" font-size="14" lengthAdjust="spacing" textLength="190" x="787.5" y="786.0264">soortDigitaalAdres: object</text><line style="stroke:#181818;stroke-width:0.5;" x1="768.5" x2="982.5" y1="793.3281" y2="793.3281"/></g><!--class Persoonsnaam--><g id="elem_Persoonsnaam"><rect codeLine="101" fill="#F1F1F1" height="96.8906" id="Persoonsnaam" rx="2.5" ry="2.5" style="stroke:#181818;stroke-width:0.5;" width="252" x="9.5" y="975.4375"/><ellipse cx="79.25" cy="991.4375" fill="#ADD1B2" rx="11" ry="11" style="stroke:#181818;stroke-width:1.0;"/><path d="M81.5938,987.1094 C80.6563,986.6719 80.0625,986.5313 79.1875,986.5313 C76.5625,986.5313 74.5625,988.6094 74.5625,991.3281 L74.5625,992.4531 C74.5625,995.0313 76.6719,996.9219 79.5625,996.9219 C80.7813,996.9219 81.9375,996.625 82.6875,996.0781 C83.2656,995.6719 83.5938,995.2188 83.5938,994.8281 C83.5938,994.375 83.2031,993.9844 82.7344,993.9844 C82.5156,993.9844 82.3125,994.0625 82.125,994.25 C81.6719,994.7344 81.6719,994.7344 81.4844,994.8281 C81.0625,995.0938 80.375,995.2188 79.6094,995.2188 C77.5625,995.2188 76.2656,994.125 76.2656,992.4219 L76.2656,991.3281 C76.2656,989.5469 77.5156,988.2344 79.25,988.2344 C79.8281,988.2344 80.4375,988.3906 80.9063,988.6406 C81.3906,988.9219 81.5625,989.1406 81.6563,989.5469 C81.7188,989.9531 81.75,990.0781 81.8906,990.2031 C82.0313,990.3438 82.2656,990.4531 82.4844,990.4531 C82.75,990.4531 83.0156,990.3125 83.1875,990.0938 C83.2969,989.9375 83.3281,989.75 83.3281,989.3281 L83.3281,987.9063 C83.3281,987.4688 83.3125,987.3438 83.2188,987.1875 C83.0625,986.9219 82.7813,986.7813 82.4844,986.7813 C82.1875,986.7813 81.9844,986.875 81.7656,987.1875 L81.5938,987.1094 Z " fill="#000000"/><text fill="#000000" font-family="sans-serif" font-size="14" lengthAdjust="spacing" textLength="104" x="99.75" y="996.2842">Persoonsnaam</text><line style="stroke:#181818;stroke-width:0.5;" x1="10.5" x2="260.5" y1="1007.4375" y2="1007.4375"/><ellipse cx="20.5" cy="1021.0859" fill="none" rx="3" ry="3" style="stroke:#038048;stroke-width:1.0;"/><text fill="#000000" font-family="sans-serif" font-size="14" lengthAdjust="spacing" textLength="137" x="29.5" y="1024.4326">achternaam: string</text><ellipse cx="20.5" cy="1037.3828" fill="none" rx="3" ry="3" style="stroke:#038048;stroke-width:1.0;"/><text fill="#000000" font-family="sans-serif" font-size="14" lengthAdjust="spacing" textLength="122" x="29.5" y="1040.7295">voornaam: string</text><ellipse cx="20.5" cy="1053.6797" fill="none" rx="3" ry="3" style="stroke:#038048;stroke-width:1.0;"/><text fill="#000000" font-family="sans-serif" font-size="14" lengthAdjust="spacing" textLength="226" x="29.5" y="1057.0264">voorvoegselAchternaam: string</text><line style="stroke:#181818;stroke-width:0.5;" x1="10.5" x2="260.5" y1="1064.3281" y2="1064.3281"/></g><!--class InterneTaak--><g id="elem_InterneTaak"><rect codeLine="106" fill="#F1F1F1" height="129.4844" id="InterneTaak" rx="2.5" ry="2.5" style="stroke:#181818;stroke-width:0.5;" width="223" x="297" y="959.4375"/><ellipse cx="360.75" cy="975.4375" fill="#ADD1B2" rx="11" ry="11" style="stroke:#181818;stroke-width:1.0;"/><path d="M363.0938,971.1094 C362.1563,970.6719 361.5625,970.5313 360.6875,970.5313 C358.0625,970.5313 356.0625,972.6094 356.0625,975.3281 L356.0625,976.4531 C356.0625,979.0313 358.1719,980.9219 361.0625,980.9219 C362.2813,980.9219 363.4375,980.625 364.1875,980.0781 C364.7656,979.6719 365.0938,979.2188 365.0938,978.8281 C365.0938,978.375 364.7031,977.9844 364.2344,977.9844 C364.0156,977.9844 363.8125,978.0625 363.625,978.25 C363.1719,978.7344 363.1719,978.7344 362.9844,978.8281 C362.5625,979.0938 361.875,979.2188 361.1094,979.2188 C359.0625,979.2188 357.7656,978.125 357.7656,976.4219 L357.7656,975.3281 C357.7656,973.5469 359.0156,972.2344 360.75,972.2344 C361.3281,972.2344 361.9375,972.3906 362.4063,972.6406 C362.8906,972.9219 363.0625,973.1406 363.1563,973.5469 C363.2188,973.9531 363.25,974.0781 363.3906,974.2031 C363.5313,974.3438 363.7656,974.4531 363.9844,974.4531 C364.25,974.4531 364.5156,974.3125 364.6875,974.0938 C364.7969,973.9375 364.8281,973.75 364.8281,973.3281 L364.8281,971.9063 C364.8281,971.4688 364.8125,971.3438 364.7188,971.1875 C364.5625,970.9219 364.2813,970.7813 363.9844,970.7813 C363.6875,970.7813 363.4844,970.875 363.2656,971.1875 L363.0938,971.1094 Z " fill="#000000"/><text fill="#000000" font-family="sans-serif" font-size="14" lengthAdjust="spacing" textLength="87" x="381.25" y="980.2842">InterneTaak</text><line style="stroke:#181818;stroke-width:0.5;" x1="298" x2="519" y1="991.4375" y2="991.4375"/><ellipse cx="308" cy="1005.0859" fill="none" rx="3" ry="3" style="stroke:#038048;stroke-width:1.0;"/><text fill="#000000" font-family="sans-serif" font-size="14" lengthAdjust="spacing" textLength="102" x="317" y="1008.4326">actorId: string</text><ellipse cx="308" cy="1021.3828" fill="none" rx="3" ry="3" style="stroke:#038048;stroke-width:1.0;"/><text fill="#000000" font-family="sans-serif" font-size="14" lengthAdjust="spacing" textLength="196" x="317" y="1024.7295">geregistreerdOp: datetime</text><ellipse cx="308" cy="1037.6797" fill="none" rx="3" ry="3" style="stroke:#038048;stroke-width:1.0;"/><text fill="#000000" font-family="sans-serif" font-size="14" lengthAdjust="spacing" textLength="197" x="317" y="1041.0264">gevraagdeHandeling: string</text><ellipse cx="308" cy="1053.9766" fill="none" rx="3" ry="3" style="stroke:#038048;stroke-width:1.0;"/><text fill="#000000" font-family="sans-serif" font-size="14" lengthAdjust="spacing" textLength="122" x="317" y="1057.3232">nummer: integer</text><ellipse cx="308" cy="1070.2734" fill="none" rx="3" ry="3" style="stroke:#038048;stroke-width:1.0;"/><text fill="#000000" font-family="sans-serif" font-size="14" lengthAdjust="spacing" textLength="95" x="317" y="1073.6201">status: string</text><line style="stroke:#181818;stroke-width:0.5;" x1="298" x2="519" y1="1080.9219" y2="1080.9219"/></g><!--class Klantcontact--><g id="elem_Klantcontact"><rect codeLine="113" fill="#F1F1F1" height="243.5625" id="Klantcontact" rx="2.5" ry="2.5" style="stroke:#181818;stroke-width:0.5;" width="248" x="555.5" y="901.9375"/><ellipse cx="628.25" cy="917.9375" fill="#ADD1B2" rx="11" ry="11" style="stroke:#181818;stroke-width:1.0;"/><path d="M630.5938,913.6094 C629.6563,913.1719 629.0625,913.0313 628.1875,913.0313 C625.5625,913.0313 623.5625,915.1094 623.5625,917.8281 L623.5625,918.9531 C623.5625,921.5313 625.6719,923.4219 628.5625,923.4219 C629.7813,923.4219 630.9375,923.125 631.6875,922.5781 C632.2656,922.1719 632.5938,921.7188 632.5938,921.3281 C632.5938,920.875 632.2031,920.4844 631.7344,920.4844 C631.5156,920.4844 631.3125,920.5625 631.125,920.75 C630.6719,921.2344 630.6719,921.2344 630.4844,921.3281 C630.0625,921.5938 629.375,921.7188 628.6094,921.7188 C626.5625,921.7188 625.2656,920.625 625.2656,918.9219 L625.2656,917.8281 C625.2656,916.0469 626.5156,914.7344 628.25,914.7344 C628.8281,914.7344 629.4375,914.8906 629.9063,915.1406 C630.3906,915.4219 630.5625,915.6406 630.6563,916.0469 C630.7188,916.4531 630.75,916.5781 630.8906,916.7031 C631.0313,916.8438 631.2656,916.9531 631.4844,916.9531 C631.75,916.9531 632.0156,916.8125 632.1875,916.5938 C632.2969,916.4375 632.3281,916.25 632.3281,915.8281 L632.3281,914.4063 C632.3281,913.9688 632.3125,913.8438 632.2188,913.6875 C632.0625,913.4219 631.7813,913.2813 631.4844,913.2813 C631.1875,913.2813 630.9844,913.375 630.7656,913.6875 L630.5938,913.6094 Z " fill="#000000"/><text fill="#000000" font-family="sans-serif" font-size="14" lengthAdjust="spacing" textLength="94" x="648.75" y="922.7842">Klantcontact</text><line style="stroke:#181818;stroke-width:0.5;" x1="556.5" x2="802.5" y1="933.9375" y2="933.9375"/><ellipse cx="566.5" cy="947.5859" fill="none" rx="3" ry="3" style="stroke:#038048;stroke-width:1.0;"/><text fill="#000000" font-family="sans-serif" font-size="14" lengthAdjust="spacing" textLength="102" x="575.5" y="950.9326">actorId: string</text><ellipse cx="566.5" cy="963.8828" fill="none" rx="3" ry="3" style="stroke:#038048;stroke-width:1.0;"/><text fill="#000000" font-family="sans-serif" font-size="14" lengthAdjust="spacing" textLength="112" x="575.5" y="967.2295">bijlageId: string</text><ellipse cx="566.5" cy="980.1797" fill="none" rx="3" ry="3" style="stroke:#038048;stroke-width:1.0;"/><text fill="#000000" font-family="sans-serif" font-size="14" lengthAdjust="spacing" textLength="211" x="575.5" y="983.5264">gaatOverInterneTaakId: array</text><ellipse cx="566.5" cy="996.4766" fill="none" rx="3" ry="3" style="stroke:#038048;stroke-width:1.0;"/><text fill="#000000" font-family="sans-serif" font-size="14" lengthAdjust="spacing" textLength="196" x="575.5" y="999.8232">geregistreerdOp: datetime</text><ellipse cx="566.5" cy="1012.7734" fill="none" rx="3" ry="3" style="stroke:#038048;stroke-width:1.0;"/><text fill="#000000" font-family="sans-serif" font-size="14" lengthAdjust="spacing" textLength="222" x="575.5" y="1016.1201">indicatieContactMislukt: string</text><ellipse cx="566.5" cy="1029.0703" fill="none" rx="3" ry="3" style="stroke:#038048;stroke-width:1.0;"/><text fill="#000000" font-family="sans-serif" font-size="14" lengthAdjust="spacing" textLength="99" x="575.5" y="1032.417">inhoud: string</text><ellipse cx="566.5" cy="1045.3672" fill="none" rx="3" ry="3" style="stroke:#038048;stroke-width:1.0;"/><text fill="#000000" font-family="sans-serif" font-size="14" lengthAdjust="spacing" textLength="160" x="575.5" y="1048.7139">initiatiefnemer: string</text><ellipse cx="566.5" cy="1061.6641" fill="none" rx="3" ry="3" style="stroke:#038048;stroke-width:1.0;"/><text fill="#000000" font-family="sans-serif" font-size="14" lengthAdjust="spacing" textLength="218" x="575.5" y="1065.0107">interneTaakOntstaanUit: array</text><ellipse cx="566.5" cy="1077.9609" fill="none" rx="3" ry="3" style="stroke:#038048;stroke-width:1.0;"/><text fill="#000000" font-family="sans-serif" font-size="14" lengthAdjust="spacing" textLength="102" x="575.5" y="1081.3076">kanaal: object</text><ellipse cx="566.5" cy="1094.2578" fill="none" rx="3" ry="3" style="stroke:#038048;stroke-width:1.0;"/><text fill="#000000" font-family="sans-serif" font-size="14" lengthAdjust="spacing" textLength="122" x="575.5" y="1097.6045">nummer: integer</text><ellipse cx="566.5" cy="1110.5547" fill="none" rx="3" ry="3" style="stroke:#038048;stroke-width:1.0;"/><text fill="#000000" font-family="sans-serif" font-size="14" lengthAdjust="spacing" textLength="129" x="575.5" y="1113.9014">onderwerp: string</text><ellipse cx="566.5" cy="1126.8516" fill="none" rx="3" ry="3" style="stroke:#038048;stroke-width:1.0;"/><text fill="#000000" font-family="sans-serif" font-size="14" lengthAdjust="spacing" textLength="212" x="575.5" y="1130.1982">plaatsgevondenOp: datetime</text><line style="stroke:#181818;stroke-width:0.5;" x1="556.5" x2="802.5" y1="1137.5" y2="1137.5"/></g><!--class BetrokkeneBijKlantcontact--><g id="elem_BetrokkeneBijKlantcontact"><rect codeLine="127" fill="#F1F1F1" height="194.6719" id="BetrokkeneBijKlantcontact" rx="2.5" ry="2.5" style="stroke:#181818;stroke-width:0.5;" width="241" x="839" y="926.4375"/><ellipse cx="858.95" cy="942.4375" fill="#ADD1B2" rx="11" ry="11" style="stroke:#181818;stroke-width:1.0;"/><path d="M861.2938,938.1094 C860.3563,937.6719 859.7625,937.5313 858.8875,937.5313 C856.2625,937.5313 854.2625,939.6094 854.2625,942.3281 L854.2625,943.4531 C854.2625,946.0313 856.3719,947.9219 859.2625,947.9219 C860.4813,947.9219 861.6375,947.625 862.3875,947.0781 C862.9656,946.6719 863.2938,946.2188 863.2938,945.8281 C863.2938,945.375 862.9031,944.9844 862.4344,944.9844 C862.2156,944.9844 862.0125,945.0625 861.825,945.25 C861.3719,945.7344 861.3719,945.7344 861.1844,945.8281 C860.7625,946.0938 860.075,946.2188 859.3094,946.2188 C857.2625,946.2188 855.9656,945.125 855.9656,943.4219 L855.9656,942.3281 C855.9656,940.5469 857.2156,939.2344 858.95,939.2344 C859.5281,939.2344 860.1375,939.3906 860.6063,939.6406 C861.0906,939.9219 861.2625,940.1406 861.3563,940.5469 C861.4188,940.9531 861.45,941.0781 861.5906,941.2031 C861.7313,941.3438 861.9656,941.4531 862.1844,941.4531 C862.45,941.4531 862.7156,941.3125 862.8875,941.0938 C862.9969,940.9375 863.0281,940.75 863.0281,940.3281 L863.0281,938.9063 C863.0281,938.4688 863.0125,938.3438 862.9188,938.1875 C862.7625,937.9219 862.4813,937.7813 862.1844,937.7813 C861.8875,937.7813 861.6844,937.875 861.4656,938.1875 L861.2938,938.1094 Z " fill="#000000"/><text fill="#000000" font-family="sans-serif" font-size="14" lengthAdjust="spacing" textLength="198" x="874.05" y="947.2842">BetrokkeneBijKlantcontact</text><line style="stroke:#181818;stroke-width:0.5;" x1="840" x2="1079" y1="958.4375" y2="958.4375"/><ellipse cx="850" cy="972.0859" fill="none" rx="3" ry="3" style="stroke:#038048;stroke-width:1.0;"/><text fill="#000000" font-family="sans-serif" font-size="14" lengthAdjust="spacing" textLength="149" x="859" y="975.4326">bezoekadres: object</text><ellipse cx="850" cy="988.3828" fill="none" rx="3" ry="3" style="stroke:#038048;stroke-width:1.0;"/><text fill="#000000" font-family="sans-serif" font-size="14" lengthAdjust="spacing" textLength="215" x="859" y="991.7295">correspondentieadres: object</text><ellipse cx="850" cy="1004.6797" fill="none" rx="3" ry="3" style="stroke:#038048;stroke-width:1.0;"/><text fill="#000000" font-family="sans-serif" font-size="14" lengthAdjust="spacing" textLength="157" x="859" y="1008.0264">klantcontactId: string</text><ellipse cx="850" cy="1020.9766" fill="none" rx="3" ry="3" style="stroke:#038048;stroke-width:1.0;"/><text fill="#000000" font-family="sans-serif" font-size="14" lengthAdjust="spacing" textLength="170" x="859" y="1024.3232">organisatienaam: string</text><ellipse cx="850" cy="1037.2734" fill="none" rx="3" ry="3" style="stroke:#038048;stroke-width:1.0;"/><text fill="#000000" font-family="sans-serif" font-size="14" lengthAdjust="spacing" textLength="103" x="859" y="1040.6201">partijId: string</text><ellipse cx="850" cy="1053.5703" fill="none" rx="3" ry="3" style="stroke:#038048;stroke-width:1.0;"/><text fill="#000000" font-family="sans-serif" font-size="14" lengthAdjust="spacing" textLength="161" x="859" y="1056.917">persoonsnaam: object</text><ellipse cx="850" cy="1069.8672" fill="none" rx="3" ry="3" style="stroke:#038048;stroke-width:1.0;"/><text fill="#000000" font-family="sans-serif" font-size="14" lengthAdjust="spacing" textLength="70" x="859" y="1073.2139">rol: string</text><ellipse cx="850" cy="1086.1641" fill="none" rx="3" ry="3" style="stroke:#038048;stroke-width:1.0;"/><text fill="#000000" font-family="sans-serif" font-size="14" lengthAdjust="spacing" textLength="173" x="859" y="1089.5107">voorkeurskanaal: object</text><ellipse cx="850" cy="1102.4609" fill="none" rx="3" ry="3" style="stroke:#038048;stroke-width:1.0;"/><text fill="#000000" font-family="sans-serif" font-size="14" lengthAdjust="spacing" textLength="154" x="859" y="1105.8076">voorkeurstaal: object</text><line style="stroke:#181818;stroke-width:0.5;" x1="840" x2="1079" y1="1113.1094" y2="1113.1094"/></g><text fill="#888888" font-family="sans-serif" font-size="10" lengthAdjust="spacing" textLength="402" x="335.5" y="1160.7822">Common Gateway Plugin | Commongateway | Customerinteractionbundle</text><!--SRC=[pLPBSzCm4BxdL-ZE2RZbbeHEwK19XnOuAzR6LYnB6McTjZp-EolPJcLPJMaFmCtUbtQ_VQ941NEsK8gveeA6kzdM60GxPolJD4QpSuvmo-_PbMfBgTdFdbxsPFfl7Pe6hDIanWkKHczQBHImMGLSU5FNmVIiKDmvzjKOMqDhsOyPOwzOOGGvu93qoq3Gd3T7mgzUwOfRbBjUPGFV3THSM71pPZOxAB0tPOcqDrg0HWbJ0RWZ5pLS1FvM5foavenRo-y3FuIWuPD16JYHLxNY6f7p-aB46hfj6X-Xrop11fgn9TVIUUEZM3nl3zOPert7Y5mxzAYucXDFvNaOSmPepZ91zK1nGi9UapPsGjxto1d84TrOF7di8vdiZOFKGd1i6q-RC_g47aGAltGv5c4e9ldsn6pEBq70BL3aGwc471H68rLPaeOKPxZaKlK5y5J47V4pbDA5mezOsrONQIKWAA0UqKFg4wzNcI8Sqa6HjbAGz5BkthVI9IQ2Z9UtL4jgsKe4xT5v_QJ4coSbteubDDvIdaMkV2joJ06cK5IHlwbuHqS31qCewdAItr4vxut3JPirvbcJ0WaLkShsTYo5bdCSaIX4lLT4TPCiBHz6o7-NdB-IW3pAotYolXZSHO7ccJrxp8lSALuEy-kvxKeJgPj_tm3i3Pp30VISROnHm7NMdKZPDBG1hTmTOlm6lqP3zB7DTSApRB3hOL4OA_tsFGDTWHJ_RjhnkqpHPt7vWq7uJfRIBwn5t6GJ7n-r7kfnP6EoZAwYPJeyK5G-l1GWlq6pHDyl3jHYgZOySj7T13Uq-ezlKC8ILAaP0wAM2a-izztEGzb0pprG_vG2tlkDhD9GSrrDknxRQMjzY8hYX3kRherI9wbRrmUmKKZZmZeTnR6xLjtxbpIcsXgJ3gnCAn8I7LDURQkXcJJiqPErHd_Vw2yIOvSovr3svlAN3XqB-_6r5UOJeH_MnYYWXqM0rjGrQA3Haq7tnRVcgKbpwa0CXswYyEZLQ8sQbFGphyZV]--></g></svg>