<?xml version="1.0" encoding="us-ascii" standalone="no"?><svg xmlns="http://www.w3.org/2000/svg" xmlns:xlink="http://www.w3.org/1999/xlink" contentStyleType="text/css" height="1393px" preserveAspectRatio="none" style="width:1315px;height:1393px;background:#FFFFFF;" version="1.1" viewBox="0 0 1315 1393" width="1315px" zoomAndPan="magnify"><defs/><g><text fill="#888888" font-family="sans-serif" font-size="10" lengthAdjust="spacing" textLength="45" x="1256" y="9.2822">Schema</text><text fill="#000000" font-family="sans-serif" font-size="14" font-weight="bold" lengthAdjust="spacing" textLength="97" x="602" y="35.6357">All schemas</text><!--class Organisatie--><g id="elem_Organisatie"><rect codeLine="4" fill="#F1F1F1" height="64.2969" id="Organisatie" rx="2.5" ry="2.5" style="stroke:#181818;stroke-width:0.5;" width="116" x="69.5" y="105.9375"/><ellipse cx="85.4" cy="121.9375" fill="#ADD1B2" rx="11" ry="11" style="stroke:#181818;stroke-width:1.0;"/><path d="M87.7438,117.6094 C86.8063,117.1719 86.2125,117.0313 85.3375,117.0313 C82.7125,117.0313 80.7125,119.1094 80.7125,121.8281 L80.7125,122.9531 C80.7125,125.5313 82.8219,127.4219 85.7125,127.4219 C86.9313,127.4219 88.0875,127.125 88.8375,126.5781 C89.4156,126.1719 89.7438,125.7188 89.7438,125.3281 C89.7438,124.875 89.3531,124.4844 88.8844,124.4844 C88.6656,124.4844 88.4625,124.5625 88.275,124.75 C87.8219,125.2344 87.8219,125.2344 87.6344,125.3281 C87.2125,125.5938 86.525,125.7188 85.7594,125.7188 C83.7125,125.7188 82.4156,124.625 82.4156,122.9219 L82.4156,121.8281 C82.4156,120.0469 83.6656,118.7344 85.4,118.7344 C85.9781,118.7344 86.5875,118.8906 87.0563,119.1406 C87.5406,119.4219 87.7125,119.6406 87.8063,120.0469 C87.8688,120.4531 87.9,120.5781 88.0406,120.7031 C88.1813,120.8438 88.4156,120.9531 88.6344,120.9531 C88.9,120.9531 89.1656,120.8125 89.3375,120.5938 C89.4469,120.4375 89.4781,120.25 89.4781,119.8281 L89.4781,118.4063 C89.4781,117.9688 89.4625,117.8438 89.3688,117.6875 C89.2125,117.4219 88.9313,117.2813 88.6344,117.2813 C88.3375,117.2813 88.1344,117.375 87.9156,117.6875 L87.7438,117.6094 Z " fill="#000000"/><text fill="#000000" font-family="sans-serif" font-size="14" lengthAdjust="spacing" textLength="82" x="99.6" y="126.7842">Organisatie</text><line style="stroke:#181818;stroke-width:0.5;" x1="70.5" x2="184.5" y1="137.9375" y2="137.9375"/><ellipse cx="80.5" cy="151.5859" fill="none" rx="3" ry="3" style="stroke:#038048;stroke-width:1.0;"/><text fill="#000000" font-family="sans-serif" font-size="14" lengthAdjust="spacing" textLength="90" x="89.5" y="154.9326">naam: string</text><line style="stroke:#181818;stroke-width:0.5;" x1="70.5" x2="184.5" y1="162.2344" y2="162.2344"/></g><!--class Persoonsnaam--><g id="elem_Persoonsnaam"><rect codeLine="7" fill="#F1F1F1" height="64.2969" id="Persoonsnaam" rx="2.5" ry="2.5" style="stroke:#181818;stroke-width:0.5;" width="177" x="221" y="105.9375"/><ellipse cx="254.45" cy="121.9375" fill="#ADD1B2" rx="11" ry="11" style="stroke:#181818;stroke-width:1.0;"/><path d="M256.7938,117.6094 C255.8563,117.1719 255.2625,117.0313 254.3875,117.0313 C251.7625,117.0313 249.7625,119.1094 249.7625,121.8281 L249.7625,122.9531 C249.7625,125.5313 251.8719,127.4219 254.7625,127.4219 C255.9813,127.4219 257.1375,127.125 257.8875,126.5781 C258.4656,126.1719 258.7938,125.7188 258.7938,125.3281 C258.7938,124.875 258.4031,124.4844 257.9344,124.4844 C257.7156,124.4844 257.5125,124.5625 257.325,124.75 C256.8719,125.2344 256.8719,125.2344 256.6844,125.3281 C256.2625,125.5938 255.575,125.7188 254.8094,125.7188 C252.7625,125.7188 251.4656,124.625 251.4656,122.9219 L251.4656,121.8281 C251.4656,120.0469 252.7156,118.7344 254.45,118.7344 C255.0281,118.7344 255.6375,118.8906 256.1063,119.1406 C256.5906,119.4219 256.7625,119.6406 256.8563,120.0469 C256.9188,120.4531 256.95,120.5781 257.0906,120.7031 C257.2313,120.8438 257.4656,120.9531 257.6844,120.9531 C257.95,120.9531 258.2156,120.8125 258.3875,120.5938 C258.4969,120.4375 258.5281,120.25 258.5281,119.8281 L258.5281,118.4063 C258.5281,117.9688 258.5125,117.8438 258.4188,117.6875 C258.2625,117.4219 257.9813,117.2813 257.6844,117.2813 C257.3875,117.2813 257.1844,117.375 256.9656,117.6875 L256.7938,117.6094 Z " fill="#000000"/><text fill="#000000" font-family="sans-serif" font-size="14" lengthAdjust="spacing" textLength="104" x="272.55" y="126.7842">Persoonsnaam</text><line style="stroke:#181818;stroke-width:0.5;" x1="222" x2="397" y1="137.9375" y2="137.9375"/><ellipse cx="232" cy="151.5859" fill="none" rx="3" ry="3" style="stroke:#038048;stroke-width:1.0;"/><text fill="#000000" font-family="sans-serif" font-size="14" lengthAdjust="spacing" textLength="151" x="241" y="154.9326">contactnaam: object</text><line style="stroke:#181818;stroke-width:0.5;" x1="222" x2="397" y1="162.2344" y2="162.2344"/></g><!--class InterneTaak--><g id="elem_InterneTaak"><rect codeLine="10" fill="#F1F1F1" height="162.0781" id="InterneTaak" rx="2.5" ry="2.5" style="stroke:#181818;stroke-width:0.5;" width="223" x="433" y="56.9375"/><ellipse cx="496.75" cy="72.9375" fill="#ADD1B2" rx="11" ry="11" style="stroke:#181818;stroke-width:1.0;"/><path d="M499.0938,68.6094 C498.1563,68.1719 497.5625,68.0313 496.6875,68.0313 C494.0625,68.0313 492.0625,70.1094 492.0625,72.8281 L492.0625,73.9531 C492.0625,76.5313 494.1719,78.4219 497.0625,78.4219 C498.2813,78.4219 499.4375,78.125 500.1875,77.5781 C500.7656,77.1719 501.0938,76.7188 501.0938,76.3281 C501.0938,75.875 500.7031,75.4844 500.2344,75.4844 C500.0156,75.4844 499.8125,75.5625 499.625,75.75 C499.1719,76.2344 499.1719,76.2344 498.9844,76.3281 C498.5625,76.5938 497.875,76.7188 497.1094,76.7188 C495.0625,76.7188 493.7656,75.625 493.7656,73.9219 L493.7656,72.8281 C493.7656,71.0469 495.0156,69.7344 496.75,69.7344 C497.3281,69.7344 497.9375,69.8906 498.4063,70.1406 C498.8906,70.4219 499.0625,70.6406 499.1563,71.0469 C499.2188,71.4531 499.25,71.5781 499.3906,71.7031 C499.5313,71.8438 499.7656,71.9531 499.9844,71.9531 C500.25,71.9531 500.5156,71.8125 500.6875,71.5938 C500.7969,71.4375 500.8281,71.25 500.8281,70.8281 L500.8281,69.4063 C500.8281,68.9688 500.8125,68.8438 500.7188,68.6875 C500.5625,68.4219 500.2813,68.2813 499.9844,68.2813 C499.6875,68.2813 499.4844,68.375 499.2656,68.6875 L499.0938,68.6094 Z " fill="#000000"/><text fill="#000000" font-family="sans-serif" font-size="14" lengthAdjust="spacing" textLength="87" x="517.25" y="77.7842">InterneTaak</text><line style="stroke:#181818;stroke-width:0.5;" x1="434" x2="655" y1="88.9375" y2="88.9375"/><ellipse cx="444" cy="102.5859" fill="none" rx="3" ry="3" style="stroke:#038048;stroke-width:1.0;"/><text fill="#000000" font-family="sans-serif" font-size="14" lengthAdjust="spacing" textLength="186" x="453" y="105.9326">toegewezenOp: datetime</text><ellipse cx="444" cy="118.8828" fill="none" rx="3" ry="3" style="stroke:#038048;stroke-width:1.0;"/><text fill="#000000" font-family="sans-serif" font-size="14" lengthAdjust="spacing" textLength="197" x="453" y="122.2295">gevraagdeHandeling: string</text><ellipse cx="444" cy="135.1797" fill="none" rx="3" ry="3" style="stroke:#038048;stroke-width:1.0;"/><text fill="#000000" font-family="sans-serif" font-size="14" lengthAdjust="spacing" textLength="122" x="453" y="138.5264">nummer: integer</text><ellipse cx="444" cy="151.4766" fill="none" rx="3" ry="3" style="stroke:#038048;stroke-width:1.0;"/><text fill="#000000" font-family="sans-serif" font-size="14" lengthAdjust="spacing" textLength="95" x="453" y="154.8232">status: string</text><ellipse cx="444" cy="167.7734" fill="none" rx="3" ry="3" style="stroke:#038048;stroke-width:1.0;"/><text fill="#000000" font-family="sans-serif" font-size="14" lengthAdjust="spacing" textLength="130" x="453" y="171.1201">toelichting: string</text><ellipse cx="444" cy="184.0703" fill="none" rx="3" ry="3" style="stroke:#038048;stroke-width:1.0;"/><text fill="#000000" font-family="sans-serif" font-size="14" lengthAdjust="spacing" textLength="94" x="453" y="187.417">actor: object</text><ellipse cx="444" cy="200.3672" fill="none" rx="3" ry="3" style="stroke:#038048;stroke-width:1.0;"/><text fill="#000000" font-family="sans-serif" font-size="14" lengthAdjust="spacing" textLength="149" x="453" y="203.7139">klantcontact: object</text><line style="stroke:#181818;stroke-width:0.5;" x1="434" x2="655" y1="211.0156" y2="211.0156"/></g><!--class Medewerker--><g id="elem_Medewerker"><rect codeLine="19" fill="#F1F1F1" height="96.8906" id="Medewerker" rx="2.5" ry="2.5" style="stroke:#181818;stroke-width:0.5;" width="199" x="691" y="89.4375"/><ellipse cx="741.75" cy="105.4375" fill="#ADD1B2" rx="11" ry="11" style="stroke:#181818;stroke-width:1.0;"/><path d="M744.0938,101.1094 C743.1563,100.6719 742.5625,100.5313 741.6875,100.5313 C739.0625,100.5313 737.0625,102.6094 737.0625,105.3281 L737.0625,106.4531 C737.0625,109.0313 739.1719,110.9219 742.0625,110.9219 C743.2813,110.9219 744.4375,110.625 745.1875,110.0781 C745.7656,109.6719 746.0938,109.2188 746.0938,108.8281 C746.0938,108.375 745.7031,107.9844 745.2344,107.9844 C745.0156,107.9844 744.8125,108.0625 744.625,108.25 C744.1719,108.7344 744.1719,108.7344 743.9844,108.8281 C743.5625,109.0938 742.875,109.2188 742.1094,109.2188 C740.0625,109.2188 738.7656,108.125 738.7656,106.4219 L738.7656,105.3281 C738.7656,103.5469 740.0156,102.2344 741.75,102.2344 C742.3281,102.2344 742.9375,102.3906 743.4063,102.6406 C743.8906,102.9219 744.0625,103.1406 744.1563,103.5469 C744.2188,103.9531 744.25,104.0781 744.3906,104.2031 C744.5313,104.3438 744.7656,104.4531 744.9844,104.4531 C745.25,104.4531 745.5156,104.3125 745.6875,104.0938 C745.7969,103.9375 745.8281,103.75 745.8281,103.3281 L745.8281,101.9063 C745.8281,101.4688 745.8125,101.3438 745.7188,101.1875 C745.5625,100.9219 745.2813,100.7813 744.9844,100.7813 C744.6875,100.7813 744.4844,100.875 744.2656,101.1875 L744.0938,101.1094 Z " fill="#000000"/><text fill="#000000" font-family="sans-serif" font-size="14" lengthAdjust="spacing" textLength="89" x="762.25" y="110.2842">Medewerker</text><line style="stroke:#181818;stroke-width:0.5;" x1="692" x2="889" y1="121.4375" y2="121.4375"/><ellipse cx="702" cy="135.0859" fill="none" rx="3" ry="3" style="stroke:#038048;stroke-width:1.0;"/><text fill="#000000" font-family="sans-serif" font-size="14" lengthAdjust="spacing" textLength="127" x="711" y="138.4326">eMailadres: string</text><ellipse cx="702" cy="151.3828" fill="none" rx="3" ry="3" style="stroke:#038048;stroke-width:1.0;"/><text fill="#000000" font-family="sans-serif" font-size="14" lengthAdjust="spacing" textLength="102" x="711" y="154.7295">functie: string</text><ellipse cx="702" cy="167.6797" fill="none" rx="3" ry="3" style="stroke:#038048;stroke-width:1.0;"/><text fill="#000000" font-family="sans-serif" font-size="14" lengthAdjust="spacing" textLength="173" x="711" y="171.0264">telefoonnummer: string</text><line style="stroke:#181818;stroke-width:0.5;" x1="692" x2="889" y1="178.3281" y2="178.3281"/></g><!--class OrganisatorischeEenheid--><g id="elem_OrganisatorischeEenheid"><rect codeLine="24" fill="#F1F1F1" height="96.8906" id="OrganisatorischeEenheid" rx="2.5" ry="2.5" style="stroke:#181818;stroke-width:0.5;" width="211" x="925" y="89.4375"/><ellipse cx="940" cy="105.4375" fill="#ADD1B2" rx="11" ry="11" style="stroke:#181818;stroke-width:1.0;"/><path d="M942.3438,101.1094 C941.4063,100.6719 940.8125,100.5313 939.9375,100.5313 C937.3125,100.5313 935.3125,102.6094 935.3125,105.3281 L935.3125,106.4531 C935.3125,109.0313 937.4219,110.9219 940.3125,110.9219 C941.5313,110.9219 942.6875,110.625 943.4375,110.0781 C944.0156,109.6719 944.3438,109.2188 944.3438,108.8281 C944.3438,108.375 943.9531,107.9844 943.4844,107.9844 C943.2656,107.9844 943.0625,108.0625 942.875,108.25 C942.4219,108.7344 942.4219,108.7344 942.2344,108.8281 C941.8125,109.0938 941.125,109.2188 940.3594,109.2188 C938.3125,109.2188 937.0156,108.125 937.0156,106.4219 L937.0156,105.3281 C937.0156,103.5469 938.2656,102.2344 940,102.2344 C940.5781,102.2344 941.1875,102.3906 941.6563,102.6406 C942.1406,102.9219 942.3125,103.1406 942.4063,103.5469 C942.4688,103.9531 942.5,104.0781 942.6406,104.2031 C942.7813,104.3438 943.0156,104.4531 943.2344,104.4531 C943.5,104.4531 943.7656,104.3125 943.9375,104.0938 C944.0469,103.9375 944.0781,103.75 944.0781,103.3281 L944.0781,101.9063 C944.0781,101.4688 944.0625,101.3438 943.9688,101.1875 C943.8125,100.9219 943.5313,100.7813 943.2344,100.7813 C942.9375,100.7813 942.7344,100.875 942.5156,101.1875 L942.3438,101.1094 Z " fill="#000000"/><text fill="#000000" font-family="sans-serif" font-size="14" lengthAdjust="spacing" textLength="179" x="954" y="110.2842">OrganisatorischeEenheid</text><line style="stroke:#181818;stroke-width:0.5;" x1="926" x2="1135" y1="121.4375" y2="121.4375"/><ellipse cx="936" cy="135.0859" fill="none" rx="3" ry="3" style="stroke:#038048;stroke-width:1.0;"/><text fill="#000000" font-family="sans-serif" font-size="14" lengthAdjust="spacing" textLength="142" x="945" y="138.4326">omschrijving: string</text><ellipse cx="936" cy="151.3828" fill="none" rx="3" ry="3" style="stroke:#038048;stroke-width:1.0;"/><text fill="#000000" font-family="sans-serif" font-size="14" lengthAdjust="spacing" textLength="127" x="945" y="154.7295">eMailadres: string</text><ellipse cx="936" cy="167.6797" fill="none" rx="3" ry="3" style="stroke:#038048;stroke-width:1.0;"/><text fill="#000000" font-family="sans-serif" font-size="14" lengthAdjust="spacing" textLength="173" x="945" y="171.0264">telefoonnummer: string</text><line style="stroke:#181818;stroke-width:0.5;" x1="926" x2="1135" y1="178.3281" y2="178.3281"/></g><!--class Contactpersoon--><g id="elem_Contactpersoon"><rect codeLine="29" fill="#F1F1F1" height="80.5938" id="Contactpersoon" rx="2.5" ry="2.5" style="stroke:#181818;stroke-width:0.5;" width="177" x="39" y="392.9375"/><ellipse cx="66.6" cy="408.9375" fill="#ADD1B2" rx="11" ry="11" style="stroke:#181818;stroke-width:1.0;"/><path d="M68.9438,404.6094 C68.0063,404.1719 67.4125,404.0313 66.5375,404.0313 C63.9125,404.0313 61.9125,406.1094 61.9125,408.8281 L61.9125,409.9531 C61.9125,412.5313 64.0219,414.4219 66.9125,414.4219 C68.1313,414.4219 69.2875,414.125 70.0375,413.5781 C70.6156,413.1719 70.9438,412.7188 70.9438,412.3281 C70.9438,411.875 70.5531,411.4844 70.0844,411.4844 C69.8656,411.4844 69.6625,411.5625 69.475,411.75 C69.0219,412.2344 69.0219,412.2344 68.8344,412.3281 C68.4125,412.5938 67.725,412.7188 66.9594,412.7188 C64.9125,412.7188 63.6156,411.625 63.6156,409.9219 L63.6156,408.8281 C63.6156,407.0469 64.8656,405.7344 66.6,405.7344 C67.1781,405.7344 67.7875,405.8906 68.2563,406.1406 C68.7406,406.4219 68.9125,406.6406 69.0063,407.0469 C69.0688,407.4531 69.1,407.5781 69.2406,407.7031 C69.3813,407.8438 69.6156,407.9531 69.8344,407.9531 C70.1,407.9531 70.3656,407.8125 70.5375,407.5938 C70.6469,407.4375 70.6781,407.25 70.6781,406.8281 L70.6781,405.4063 C70.6781,404.9688 70.6625,404.8438 70.5688,404.6875 C70.4125,404.4219 70.1313,404.2813 69.8344,404.2813 C69.5375,404.2813 69.3344,404.375 69.1156,404.6875 L68.9438,404.6094 Z " fill="#000000"/><text fill="#000000" font-family="sans-serif" font-size="14" lengthAdjust="spacing" textLength="117" x="83.4" y="413.7842">Contactpersoon</text><line style="stroke:#181818;stroke-width:0.5;" x1="40" x2="215" y1="424.9375" y2="424.9375"/><ellipse cx="50" cy="438.5859" fill="none" rx="3" ry="3" style="stroke:#038048;stroke-width:1.0;"/><text fill="#000000" font-family="sans-serif" font-size="14" lengthAdjust="spacing" textLength="151" x="59" y="441.9326">contactnaam: object</text><ellipse cx="50" cy="454.8828" fill="none" rx="3" ry="3" style="stroke:#038048;stroke-width:1.0;"/><text fill="#000000" font-family="sans-serif" font-size="14" lengthAdjust="spacing" textLength="136" x="59" y="458.2295">organisatie: object</text><line style="stroke:#181818;stroke-width:0.5;" x1="40" x2="215" y1="465.5313" y2="465.5313"/></g><!--class Bezoekadres--><g id="elem_Bezoekadres"><rect codeLine="33" fill="#F1F1F1" height="243.5625" id="Bezoekadres" rx="2.5" ry="2.5" style="stroke:#181818;stroke-width:0.5;" width="261" x="251" y="311.4375"/><ellipse cx="330.75" cy="327.4375" fill="#ADD1B2" rx="11" ry="11" style="stroke:#181818;stroke-width:1.0;"/><path d="M333.0938,323.1094 C332.1563,322.6719 331.5625,322.5313 330.6875,322.5313 C328.0625,322.5313 326.0625,324.6094 326.0625,327.3281 L326.0625,328.4531 C326.0625,331.0313 328.1719,332.9219 331.0625,332.9219 C332.2813,332.9219 333.4375,332.625 334.1875,332.0781 C334.7656,331.6719 335.0938,331.2188 335.0938,330.8281 C335.0938,330.375 334.7031,329.9844 334.2344,329.9844 C334.0156,329.9844 333.8125,330.0625 333.625,330.25 C333.1719,330.7344 333.1719,330.7344 332.9844,330.8281 C332.5625,331.0938 331.875,331.2188 331.1094,331.2188 C329.0625,331.2188 327.7656,330.125 327.7656,328.4219 L327.7656,327.3281 C327.7656,325.5469 329.0156,324.2344 330.75,324.2344 C331.3281,324.2344 331.9375,324.3906 332.4063,324.6406 C332.8906,324.9219 333.0625,325.1406 333.1563,325.5469 C333.2188,325.9531 333.25,326.0781 333.3906,326.2031 C333.5313,326.3438 333.7656,326.4531 333.9844,326.4531 C334.25,326.4531 334.5156,326.3125 334.6875,326.0938 C334.7969,325.9375 334.8281,325.75 334.8281,325.3281 L334.8281,323.9063 C334.8281,323.4688 334.8125,323.3438 334.7188,323.1875 C334.5625,322.9219 334.2813,322.7813 333.9844,322.7813 C333.6875,322.7813 333.4844,322.875 333.2656,323.1875 L333.0938,323.1094 Z " fill="#000000"/><text fill="#000000" font-family="sans-serif" font-size="14" lengthAdjust="spacing" textLength="93" x="351.25" y="332.2842">Bezoekadres</text><line style="stroke:#181818;stroke-width:0.5;" x1="252" x2="511" y1="343.4375" y2="343.4375"/><ellipse cx="262" cy="357.0859" fill="none" rx="3" ry="3" style="stroke:#038048;stroke-width:1.0;"/><text fill="#000000" font-family="sans-serif" font-size="14" lengthAdjust="spacing" textLength="235" x="271" y="360.4326">aanduidingBijHuisnummer: string</text><ellipse cx="262" cy="373.3828" fill="none" rx="3" ry="3" style="stroke:#038048;stroke-width:1.0;"/><text fill="#000000" font-family="sans-serif" font-size="14" lengthAdjust="spacing" textLength="213" x="271" y="376.7295">adresregelBuitenland1: string</text><ellipse cx="262" cy="389.6797" fill="none" rx="3" ry="3" style="stroke:#038048;stroke-width:1.0;"/><text fill="#000000" font-family="sans-serif" font-size="14" lengthAdjust="spacing" textLength="212" x="271" y="393.0264">adresregelBuitenland2: string</text><ellipse cx="262" cy="405.9766" fill="none" rx="3" ry="3" style="stroke:#038048;stroke-width:1.0;"/><text fill="#000000" font-family="sans-serif" font-size="14" lengthAdjust="spacing" textLength="213" x="271" y="409.3232">adresregelBuitenland3: string</text><ellipse cx="262" cy="422.2734" fill="none" rx="3" ry="3" style="stroke:#038048;stroke-width:1.0;"/><text fill="#000000" font-family="sans-serif" font-size="14" lengthAdjust="spacing" textLength="121" x="271" y="425.6201">huisletter: string</text><ellipse cx="262" cy="438.5703" fill="none" rx="3" ry="3" style="stroke:#038048;stroke-width:1.0;"/><text fill="#000000" font-family="sans-serif" font-size="14" lengthAdjust="spacing" textLength="150" x="271" y="441.917">huisnummer: integer</text><ellipse cx="262" cy="454.8672" fill="none" rx="3" ry="3" style="stroke:#038048;stroke-width:1.0;"/><text fill="#000000" font-family="sans-serif" font-size="14" lengthAdjust="spacing" textLength="221" x="271" y="458.2139">huisnummertoevoeging: string</text><ellipse cx="262" cy="471.1641" fill="none" rx="3" ry="3" style="stroke:#038048;stroke-width:1.0;"/><text fill="#000000" font-family="sans-serif" font-size="14" lengthAdjust="spacing" textLength="86" x="271" y="474.5107">land: object</text><ellipse cx="262" cy="487.4609" fill="none" rx="3" ry="3" style="stroke:#038048;stroke-width:1.0;"/><text fill="#000000" font-family="sans-serif" font-size="14" lengthAdjust="spacing" textLength="119" x="271" y="490.8076">postcode: string</text><ellipse cx="262" cy="503.7578" fill="none" rx="3" ry="3" style="stroke:#038048;stroke-width:1.0;"/><text fill="#000000" font-family="sans-serif" font-size="14" lengthAdjust="spacing" textLength="182" x="271" y="507.1045">soortBezoekadres: string</text><ellipse cx="262" cy="520.0547" fill="none" rx="3" ry="3" style="stroke:#038048;stroke-width:1.0;"/><text fill="#000000" font-family="sans-serif" font-size="14" lengthAdjust="spacing" textLength="94" x="271" y="523.4014">straat: string</text><ellipse cx="262" cy="536.3516" fill="none" rx="3" ry="3" style="stroke:#038048;stroke-width:1.0;"/><text fill="#000000" font-family="sans-serif" font-size="14" lengthAdjust="spacing" textLength="133" x="271" y="539.6982">woonplaats: string</text><line style="stroke:#181818;stroke-width:0.5;" x1="252" x2="511" y1="547" y2="547"/></g><!--class Partij--><g id="elem_Partij"><rect codeLine="47" fill="#F1F1F1" height="308.75" id="Partij" rx="2.5" ry="2.5" style="stroke:#181818;stroke-width:0.5;" width="268" x="547.5" y="278.9375"/><ellipse cx="658.25" cy="294.9375" fill="#ADD1B2" rx="11" ry="11" style="stroke:#181818;stroke-width:1.0;"/><path d="M660.5938,290.6094 C659.6563,290.1719 659.0625,290.0313 658.1875,290.0313 C655.5625,290.0313 653.5625,292.1094 653.5625,294.8281 L653.5625,295.9531 C653.5625,298.5313 655.6719,300.4219 658.5625,300.4219 C659.7813,300.4219 660.9375,300.125 661.6875,299.5781 C662.2656,299.1719 662.5938,298.7188 662.5938,298.3281 C662.5938,297.875 662.2031,297.4844 661.7344,297.4844 C661.5156,297.4844 661.3125,297.5625 661.125,297.75 C660.6719,298.2344 660.6719,298.2344 660.4844,298.3281 C660.0625,298.5938 659.375,298.7188 658.6094,298.7188 C656.5625,298.7188 655.2656,297.625 655.2656,295.9219 L655.2656,294.8281 C655.2656,293.0469 656.5156,291.7344 658.25,291.7344 C658.8281,291.7344 659.4375,291.8906 659.9063,292.1406 C660.3906,292.4219 660.5625,292.6406 660.6563,293.0469 C660.7188,293.4531 660.75,293.5781 660.8906,293.7031 C661.0313,293.8438 661.2656,293.9531 661.4844,293.9531 C661.75,293.9531 662.0156,293.8125 662.1875,293.5938 C662.2969,293.4375 662.3281,293.25 662.3281,292.8281 L662.3281,291.4063 C662.3281,290.9688 662.3125,290.8438 662.2188,290.6875 C662.0625,290.4219 661.7813,290.2813 661.4844,290.2813 C661.1875,290.2813 660.9844,290.375 660.7656,290.6875 L660.5938,290.6094 Z " fill="#000000"/><text fill="#000000" font-family="sans-serif" font-size="14" lengthAdjust="spacing" textLength="38" x="678.75" y="299.7842">Partij</text><line style="stroke:#181818;stroke-width:0.5;" x1="548.5" x2="814.5" y1="310.9375" y2="310.9375"/><ellipse cx="558.5" cy="324.5859" fill="none" rx="3" ry="3" style="stroke:#038048;stroke-width:1.0;"/><text fill="#000000" font-family="sans-serif" font-size="14" lengthAdjust="spacing" textLength="122" x="567.5" y="327.9326">nummer: integer</text><ellipse cx="558.5" cy="340.8828" fill="none" rx="3" ry="3" style="stroke:#038048;stroke-width:1.0;"/><text fill="#000000" font-family="sans-serif" font-size="14" lengthAdjust="spacing" textLength="154" x="567.5" y="344.2295">interneNotitie: string</text><ellipse cx="558.5" cy="357.1797" fill="none" rx="3" ry="3" style="stroke:#038048;stroke-width:1.0;"/><text fill="#000000" font-family="sans-serif" font-size="14" lengthAdjust="spacing" textLength="242" x="567.5" y="360.5264">indicatieGeheimhouding: boolean</text><ellipse cx="558.5" cy="373.4766" fill="none" rx="3" ry="3" style="stroke:#038048;stroke-width:1.0;"/><text fill="#000000" font-family="sans-serif" font-size="14" lengthAdjust="spacing" textLength="154" x="567.5" y="376.8232">voorkeurstaal: object</text><ellipse cx="558.5" cy="389.7734" fill="none" rx="3" ry="3" style="stroke:#038048;stroke-width:1.0;"/><text fill="#000000" font-family="sans-serif" font-size="14" lengthAdjust="spacing" textLength="173" x="567.5" y="393.1201">indicatieActief: boolean</text><ellipse cx="558.5" cy="406.0703" fill="none" rx="3" ry="3" style="stroke:#038048;stroke-width:1.0;"/><text fill="#000000" font-family="sans-serif" font-size="14" lengthAdjust="spacing" textLength="127" x="567.5" y="409.417">soortPartij: string</text><ellipse cx="558.5" cy="422.3672" fill="none" rx="3" ry="3" style="stroke:#038048;stroke-width:1.0;"/><text fill="#000000" font-family="sans-serif" font-size="14" lengthAdjust="spacing" textLength="136" x="567.5" y="425.7139">organisatie: object</text><ellipse cx="558.5" cy="438.6641" fill="none" rx="3" ry="3" style="stroke:#038048;stroke-width:1.0;"/><text fill="#000000" font-family="sans-serif" font-size="14" lengthAdjust="spacing" textLength="115" x="567.5" y="442.0107">persoon: object</text><ellipse cx="558.5" cy="454.9609" fill="none" rx="3" ry="3" style="stroke:#038048;stroke-width:1.0;"/><text fill="#000000" font-family="sans-serif" font-size="14" lengthAdjust="spacing" textLength="171" x="567.5" y="458.3076">contactpersoon: object</text><ellipse cx="558.5" cy="471.2578" fill="none" rx="3" ry="3" style="stroke:#038048;stroke-width:1.0;"/><text fill="#000000" font-family="sans-serif" font-size="14" lengthAdjust="spacing" textLength="173" x="567.5" y="474.6045">voorkeurskanaal: object</text><ellipse cx="558.5" cy="487.5547" fill="none" rx="3" ry="3" style="stroke:#038048;stroke-width:1.0;"/><text fill="#000000" font-family="sans-serif" font-size="14" lengthAdjust="spacing" textLength="188" x="567.5" y="490.9014">verstrekteAdressen: array</text><ellipse cx="558.5" cy="503.8516" fill="none" rx="3" ry="3" style="stroke:#038048;stroke-width:1.0;"/><text fill="#000000" font-family="sans-serif" font-size="14" lengthAdjust="spacing" textLength="149" x="567.5" y="507.1982">bezoekadres: object</text><ellipse cx="558.5" cy="520.1484" fill="none" rx="3" ry="3" style="stroke:#038048;stroke-width:1.0;"/><text fill="#000000" font-family="sans-serif" font-size="14" lengthAdjust="spacing" textLength="215" x="567.5" y="523.4951">correspondentieadres: object</text><ellipse cx="558.5" cy="536.4453" fill="none" rx="3" ry="3" style="stroke:#038048;stroke-width:1.0;"/><text fill="#000000" font-family="sans-serif" font-size="14" lengthAdjust="spacing" textLength="197" x="567.5" y="539.792">externeIdentificaties: array</text><ellipse cx="558.5" cy="552.7422" fill="none" rx="3" ry="3" style="stroke:#038048;stroke-width:1.0;"/><text fill="#000000" font-family="sans-serif" font-size="14" lengthAdjust="spacing" textLength="194" x="567.5" y="556.0889">vertegenwoordiger: object</text><ellipse cx="558.5" cy="569.0391" fill="none" rx="3" ry="3" style="stroke:#038048;stroke-width:1.0;"/><text fill="#000000" font-family="sans-serif" font-size="14" lengthAdjust="spacing" textLength="197" x="567.5" y="572.3857">vertegenwoordigde: object</text><line style="stroke:#181818;stroke-width:0.5;" x1="548.5" x2="814.5" y1="579.6875" y2="579.6875"/></g><!--class Klantcontact--><g id="elem_Klantcontact"><rect codeLine="65" fill="#F1F1F1" height="259.8594" id="Klantcontact" rx="2.5" ry="2.5" style="stroke:#181818;stroke-width:0.5;" width="245" x="851" y="303.4375"/><ellipse cx="922.25" cy="319.4375" fill="#ADD1B2" rx="11" ry="11" style="stroke:#181818;stroke-width:1.0;"/><path d="M924.5938,315.1094 C923.6563,314.6719 923.0625,314.5313 922.1875,314.5313 C919.5625,314.5313 917.5625,316.6094 917.5625,319.3281 L917.5625,320.4531 C917.5625,323.0313 919.6719,324.9219 922.5625,324.9219 C923.7813,324.9219 924.9375,324.625 925.6875,324.0781 C926.2656,323.6719 926.5938,323.2188 926.5938,322.8281 C926.5938,322.375 926.2031,321.9844 925.7344,321.9844 C925.5156,321.9844 925.3125,322.0625 925.125,322.25 C924.6719,322.7344 924.6719,322.7344 924.4844,322.8281 C924.0625,323.0938 923.375,323.2188 922.6094,323.2188 C920.5625,323.2188 919.2656,322.125 919.2656,320.4219 L919.2656,319.3281 C919.2656,317.5469 920.5156,316.2344 922.25,316.2344 C922.8281,316.2344 923.4375,316.3906 923.9063,316.6406 C924.3906,316.9219 924.5625,317.1406 924.6563,317.5469 C924.7188,317.9531 924.75,318.0781 924.8906,318.2031 C925.0313,318.3438 925.2656,318.4531 925.4844,318.4531 C925.75,318.4531 926.0156,318.3125 926.1875,318.0938 C926.2969,317.9375 926.3281,317.75 926.3281,317.3281 L926.3281,315.9063 C926.3281,315.4688 926.3125,315.3438 926.2188,315.1875 C926.0625,314.9219 925.7813,314.7813 925.4844,314.7813 C925.1875,314.7813 924.9844,314.875 924.7656,315.1875 L924.5938,315.1094 Z " fill="#000000"/><text fill="#000000" font-family="sans-serif" font-size="14" lengthAdjust="spacing" textLength="94" x="942.75" y="324.2842">Klantcontact</text><line style="stroke:#181818;stroke-width:0.5;" x1="852" x2="1095" y1="335.4375" y2="335.4375"/><ellipse cx="862" cy="349.0859" fill="none" rx="3" ry="3" style="stroke:#038048;stroke-width:1.0;"/><text fill="#000000" font-family="sans-serif" font-size="14" lengthAdjust="spacing" textLength="122" x="871" y="352.4326">nummer: integer</text><ellipse cx="862" cy="365.3828" fill="none" rx="3" ry="3" style="stroke:#038048;stroke-width:1.0;"/><text fill="#000000" font-family="sans-serif" font-size="14" lengthAdjust="spacing" textLength="129" x="871" y="368.7295">onderwerp: string</text><ellipse cx="862" cy="381.6797" fill="none" rx="3" ry="3" style="stroke:#038048;stroke-width:1.0;"/><text fill="#000000" font-family="sans-serif" font-size="14" lengthAdjust="spacing" textLength="102" x="871" y="385.0264">kanaal: object</text><ellipse cx="862" cy="397.9766" fill="none" rx="3" ry="3" style="stroke:#038048;stroke-width:1.0;"/><text fill="#000000" font-family="sans-serif" font-size="14" lengthAdjust="spacing" textLength="99" x="871" y="401.3232">inhoud: string</text><ellipse cx="862" cy="414.2734" fill="none" rx="3" ry="3" style="stroke:#038048;stroke-width:1.0;"/><text fill="#000000" font-family="sans-serif" font-size="14" lengthAdjust="spacing" textLength="219" x="871" y="417.6201">indicatieContactGelukt: string</text><ellipse cx="862" cy="430.5703" fill="none" rx="3" ry="3" style="stroke:#038048;stroke-width:1.0;"/><text fill="#000000" font-family="sans-serif" font-size="14" lengthAdjust="spacing" textLength="78" x="871" y="433.917">taal: string</text><ellipse cx="862" cy="446.8672" fill="none" rx="3" ry="3" style="stroke:#038048;stroke-width:1.0;"/><text fill="#000000" font-family="sans-serif" font-size="14" lengthAdjust="spacing" textLength="145" x="871" y="450.2139">vertrouwelijk: string</text><ellipse cx="862" cy="463.1641" fill="none" rx="3" ry="3" style="stroke:#038048;stroke-width:1.0;"/><text fill="#000000" font-family="sans-serif" font-size="14" lengthAdjust="spacing" textLength="212" x="871" y="466.5107">plaatsgevondenOp: datetime</text><ellipse cx="862" cy="479.4609" fill="none" rx="3" ry="3" style="stroke:#038048;stroke-width:1.0;"/><text fill="#000000" font-family="sans-serif" font-size="14" lengthAdjust="spacing" textLength="90" x="871" y="482.8076">actors: array</text><ellipse cx="862" cy="495.7578" fill="none" rx="3" ry="3" style="stroke:#038048;stroke-width:1.0;"/><text fill="#000000" font-family="sans-serif" font-size="14" lengthAdjust="spacing" textLength="93" x="871" y="499.1045">bijlage: array</text><ellipse cx="862" cy="512.0547" fill="none" rx="3" ry="3" style="stroke:#038048;stroke-width:1.0;"/><text fill="#000000" font-family="sans-serif" font-size="14" lengthAdjust="spacing" textLength="122" x="871" y="515.4014">gaatOver: object</text><ellipse cx="862" cy="528.3516" fill="none" rx="3" ry="3" style="stroke:#038048;stroke-width:1.0;"/><text fill="#000000" font-family="sans-serif" font-size="14" lengthAdjust="spacing" textLength="218" x="871" y="531.6982">interneTaakOntstaanUit: array</text><ellipse cx="862" cy="544.6484" fill="none" rx="3" ry="3" style="stroke:#038048;stroke-width:1.0;"/><text fill="#000000" font-family="sans-serif" font-size="14" lengthAdjust="spacing" textLength="196" x="871" y="547.9951">geregistreerdOp: datetime</text><line style="stroke:#181818;stroke-width:0.5;" x1="852" x2="1095" y1="555.2969" y2="555.2969"/></g><!--class Identificator--><g id="elem_Identificator"><rect codeLine="80" fill="#F1F1F1" height="113.1875" id="Identificator" rx="2.5" ry="2.5" style="stroke:#181818;stroke-width:0.5;" width="177" x="1131" y="376.9375"/><ellipse cx="1170.75" cy="392.9375" fill="#ADD1B2" rx="11" ry="11" style="stroke:#181818;stroke-width:1.0;"/><path d="M1173.0938,388.6094 C1172.1563,388.1719 1171.5625,388.0313 1170.6875,388.0313 C1168.0625,388.0313 1166.0625,390.1094 1166.0625,392.8281 L1166.0625,393.9531 C1166.0625,396.5313 1168.1719,398.4219 1171.0625,398.4219 C1172.2813,398.4219 1173.4375,398.125 1174.1875,397.5781 C1174.7656,397.1719 1175.0938,396.7188 1175.0938,396.3281 C1175.0938,395.875 1174.7031,395.4844 1174.2344,395.4844 C1174.0156,395.4844 1173.8125,395.5625 1173.625,395.75 C1173.1719,396.2344 1173.1719,396.2344 1172.9844,396.3281 C1172.5625,396.5938 1171.875,396.7188 1171.1094,396.7188 C1169.0625,396.7188 1167.7656,395.625 1167.7656,393.9219 L1167.7656,392.8281 C1167.7656,391.0469 1169.0156,389.7344 1170.75,389.7344 C1171.3281,389.7344 1171.9375,389.8906 1172.4063,390.1406 C1172.8906,390.4219 1173.0625,390.6406 1173.1563,391.0469 C1173.2188,391.4531 1173.25,391.5781 1173.3906,391.7031 C1173.5313,391.8438 1173.7656,391.9531 1173.9844,391.9531 C1174.25,391.9531 1174.5156,391.8125 1174.6875,391.5938 C1174.7969,391.4375 1174.8281,391.25 1174.8281,390.8281 L1174.8281,389.4063 C1174.8281,388.9688 1174.8125,388.8438 1174.7188,388.6875 C1174.5625,388.4219 1174.2813,388.2813 1173.9844,388.2813 C1173.6875,388.2813 1173.4844,388.375 1173.2656,388.6875 L1173.0938,388.6094 Z " fill="#000000"/><text fill="#000000" font-family="sans-serif" font-size="14" lengthAdjust="spacing" textLength="90" x="1190.25" y="397.7842">Identificator</text><line style="stroke:#181818;stroke-width:0.5;" x1="1132" x2="1307" y1="408.9375" y2="408.9375"/><ellipse cx="1142" cy="422.5859" fill="none" rx="3" ry="3" style="stroke:#038048;stroke-width:1.0;"/><text fill="#000000" font-family="sans-serif" font-size="14" lengthAdjust="spacing" textLength="132" x="1151" y="425.9326">objecttype: string</text><ellipse cx="1142" cy="438.8828" fill="none" rx="3" ry="3" style="stroke:#038048;stroke-width:1.0;"/><text fill="#000000" font-family="sans-serif" font-size="14" lengthAdjust="spacing" textLength="151" x="1151" y="442.2295">soortObjectId: string</text><ellipse cx="1142" cy="455.1797" fill="none" rx="3" ry="3" style="stroke:#038048;stroke-width:1.0;"/><text fill="#000000" font-family="sans-serif" font-size="14" lengthAdjust="spacing" textLength="111" x="1151" y="458.5264">objectId: string</text><ellipse cx="1142" cy="471.4766" fill="none" rx="3" ry="3" style="stroke:#038048;stroke-width:1.0;"/><text fill="#000000" font-family="sans-serif" font-size="14" lengthAdjust="spacing" textLength="108" x="1151" y="474.8232">register: string</text><line style="stroke:#181818;stroke-width:0.5;" x1="1132" x2="1307" y1="482.125" y2="482.125"/></g><!--class TaakIdentificatie--><g id="elem_TaakIdentificatie"><rect codeLine="86" fill="#F1F1F1" height="80.5938" id="TaakIdentificatie" rx="2.5" ry="2.5" style="stroke:#181818;stroke-width:0.5;" width="154" x="50.5" y="712.9375"/><ellipse cx="65.5" cy="728.9375" fill="#ADD1B2" rx="11" ry="11" style="stroke:#181818;stroke-width:1.0;"/><path d="M67.8438,724.6094 C66.9063,724.1719 66.3125,724.0313 65.4375,724.0313 C62.8125,724.0313 60.8125,726.1094 60.8125,728.8281 L60.8125,729.9531 C60.8125,732.5313 62.9219,734.4219 65.8125,734.4219 C67.0313,734.4219 68.1875,734.125 68.9375,733.5781 C69.5156,733.1719 69.8438,732.7188 69.8438,732.3281 C69.8438,731.875 69.4531,731.4844 68.9844,731.4844 C68.7656,731.4844 68.5625,731.5625 68.375,731.75 C67.9219,732.2344 67.9219,732.2344 67.7344,732.3281 C67.3125,732.5938 66.625,732.7188 65.8594,732.7188 C63.8125,732.7188 62.5156,731.625 62.5156,729.9219 L62.5156,728.8281 C62.5156,727.0469 63.7656,725.7344 65.5,725.7344 C66.0781,725.7344 66.6875,725.8906 67.1563,726.1406 C67.6406,726.4219 67.8125,726.6406 67.9063,727.0469 C67.9688,727.4531 68,727.5781 68.1406,727.7031 C68.2813,727.8438 68.5156,727.9531 68.7344,727.9531 C69,727.9531 69.2656,727.8125 69.4375,727.5938 C69.5469,727.4375 69.5781,727.25 69.5781,726.8281 L69.5781,725.4063 C69.5781,724.9688 69.5625,724.8438 69.4688,724.6875 C69.3125,724.4219 69.0313,724.2813 68.7344,724.2813 C68.4375,724.2813 68.2344,724.375 68.0156,724.6875 L67.8438,724.6094 Z " fill="#000000"/><text fill="#000000" font-family="sans-serif" font-size="14" lengthAdjust="spacing" textLength="122" x="79.5" y="733.7842">TaakIdentificatie</text><line style="stroke:#181818;stroke-width:0.5;" x1="51.5" x2="203.5" y1="744.9375" y2="744.9375"/><ellipse cx="61.5" cy="758.5859" fill="none" rx="3" ry="3" style="stroke:#038048;stroke-width:1.0;"/><text fill="#000000" font-family="sans-serif" font-size="14" lengthAdjust="spacing" textLength="85" x="70.5" y="761.9326">type: string</text><ellipse cx="61.5" cy="774.8828" fill="none" rx="3" ry="3" style="stroke:#038048;stroke-width:1.0;"/><text fill="#000000" font-family="sans-serif" font-size="14" lengthAdjust="spacing" textLength="88" x="70.5" y="778.2295">value: string</text><line style="stroke:#181818;stroke-width:0.5;" x1="51.5" x2="203.5" y1="785.5313" y2="785.5313"/></g><!--class GeautomatiseerdeActor--><g id="elem_GeautomatiseerdeActor"><rect codeLine="90" fill="#F1F1F1" height="80.5938" id="GeautomatiseerdeActor" rx="2.5" ry="2.5" style="stroke:#181818;stroke-width:0.5;" width="206" x="239.5" y="712.9375"/><ellipse cx="254.5" cy="728.9375" fill="#ADD1B2" rx="11" ry="11" style="stroke:#181818;stroke-width:1.0;"/><path d="M256.8438,724.6094 C255.9063,724.1719 255.3125,724.0313 254.4375,724.0313 C251.8125,724.0313 249.8125,726.1094 249.8125,728.8281 L249.8125,729.9531 C249.8125,732.5313 251.9219,734.4219 254.8125,734.4219 C256.0313,734.4219 257.1875,734.125 257.9375,733.5781 C258.5156,733.1719 258.8438,732.7188 258.8438,732.3281 C258.8438,731.875 258.4531,731.4844 257.9844,731.4844 C257.7656,731.4844 257.5625,731.5625 257.375,731.75 C256.9219,732.2344 256.9219,732.2344 256.7344,732.3281 C256.3125,732.5938 255.625,732.7188 254.8594,732.7188 C252.8125,732.7188 251.5156,731.625 251.5156,729.9219 L251.5156,728.8281 C251.5156,727.0469 252.7656,725.7344 254.5,725.7344 C255.0781,725.7344 255.6875,725.8906 256.1563,726.1406 C256.6406,726.4219 256.8125,726.6406 256.9063,727.0469 C256.9688,727.4531 257,727.5781 257.1406,727.7031 C257.2813,727.8438 257.5156,727.9531 257.7344,727.9531 C258,727.9531 258.2656,727.8125 258.4375,727.5938 C258.5469,727.4375 258.5781,727.25 258.5781,726.8281 L258.5781,725.4063 C258.5781,724.9688 258.5625,724.8438 258.4688,724.6875 C258.3125,724.4219 258.0313,724.2813 257.7344,724.2813 C257.4375,724.2813 257.2344,724.375 257.0156,724.6875 L256.8438,724.6094 Z " fill="#000000"/><text fill="#000000" font-family="sans-serif" font-size="14" lengthAdjust="spacing" textLength="174" x="268.5" y="733.7842">GeautomatiseerdeActor</text><line style="stroke:#181818;stroke-width:0.5;" x1="240.5" x2="444.5" y1="744.9375" y2="744.9375"/><ellipse cx="250.5" cy="758.5859" fill="none" rx="3" ry="3" style="stroke:#038048;stroke-width:1.0;"/><text fill="#000000" font-family="sans-serif" font-size="14" lengthAdjust="spacing" textLength="102" x="259.5" y="761.9326">functie: string</text><ellipse cx="250.5" cy="774.8828" fill="none" rx="3" ry="3" style="stroke:#038048;stroke-width:1.0;"/><text fill="#000000" font-family="sans-serif" font-size="14" lengthAdjust="spacing" textLength="142" x="259.5" y="778.2295">omschrijving: string</text><line style="stroke:#181818;stroke-width:0.5;" x1="240.5" x2="444.5" y1="785.5313" y2="785.5313"/></g><!--class Onderwerpobject--><g id="elem_Onderwerpobject"><rect codeLine="94" fill="#F1F1F1" height="80.5938" id="Onderwerpobject" rx="2.5" ry="2.5" style="stroke:#181818;stroke-width:0.5;" width="219" x="481" y="712.9375"/><ellipse cx="523" cy="728.9375" fill="#ADD1B2" rx="11" ry="11" style="stroke:#181818;stroke-width:1.0;"/><path d="M525.3438,724.6094 C524.4063,724.1719 523.8125,724.0313 522.9375,724.0313 C520.3125,724.0313 518.3125,726.1094 518.3125,728.8281 L518.3125,729.9531 C518.3125,732.5313 520.4219,734.4219 523.3125,734.4219 C524.5313,734.4219 525.6875,734.125 526.4375,733.5781 C527.0156,733.1719 527.3438,732.7188 527.3438,732.3281 C527.3438,731.875 526.9531,731.4844 526.4844,731.4844 C526.2656,731.4844 526.0625,731.5625 525.875,731.75 C525.4219,732.2344 525.4219,732.2344 525.2344,732.3281 C524.8125,732.5938 524.125,732.7188 523.3594,732.7188 C521.3125,732.7188 520.0156,731.625 520.0156,729.9219 L520.0156,728.8281 C520.0156,727.0469 521.2656,725.7344 523,725.7344 C523.5781,725.7344 524.1875,725.8906 524.6563,726.1406 C525.1406,726.4219 525.3125,726.6406 525.4063,727.0469 C525.4688,727.4531 525.5,727.5781 525.6406,727.7031 C525.7813,727.8438 526.0156,727.9531 526.2344,727.9531 C526.5,727.9531 526.7656,727.8125 526.9375,727.5938 C527.0469,727.4375 527.0781,727.25 527.0781,726.8281 L527.0781,725.4063 C527.0781,724.9688 527.0625,724.8438 526.9688,724.6875 C526.8125,724.4219 526.5313,724.2813 526.2344,724.2813 C525.9375,724.2813 525.7344,724.375 525.5156,724.6875 L525.3438,724.6094 Z " fill="#000000"/><text fill="#000000" font-family="sans-serif" font-size="14" lengthAdjust="spacing" textLength="127" x="543" y="733.7842">Onderwerpobject</text><line style="stroke:#181818;stroke-width:0.5;" x1="482" x2="699" y1="744.9375" y2="744.9375"/><ellipse cx="492" cy="758.5859" fill="none" rx="3" ry="3" style="stroke:#038048;stroke-width:1.0;"/><text fill="#000000" font-family="sans-serif" font-size="14" lengthAdjust="spacing" textLength="193" x="501" y="761.9326">objectIdentificator: object</text><ellipse cx="492" cy="774.8828" fill="none" rx="3" ry="3" style="stroke:#038048;stroke-width:1.0;"/><text fill="#000000" font-family="sans-serif" font-size="14" lengthAdjust="spacing" textLength="151" x="501" y="778.2295">klantContact: object</text><line style="stroke:#181818;stroke-width:0.5;" x1="482" x2="699" y1="785.5313" y2="785.5313"/></g><!--class Taak--><g id="elem_Taak"><rect codeLine="98" fill="#F1F1F1" height="210.9688" id="Taak" rx="2.5" ry="2.5" style="stroke:#181818;stroke-width:0.5;" width="209" x="735" y="647.9375"/><ellipse cx="818.25" cy="663.9375" fill="#ADD1B2" rx="11" ry="11" style="stroke:#181818;stroke-width:1.0;"/><path d="M820.5938,659.6094 C819.6563,659.1719 819.0625,659.0313 818.1875,659.0313 C815.5625,659.0313 813.5625,661.1094 813.5625,663.8281 L813.5625,664.9531 C813.5625,667.5313 815.6719,669.4219 818.5625,669.4219 C819.7813,669.4219 820.9375,669.125 821.6875,668.5781 C822.2656,668.1719 822.5938,667.7188 822.5938,667.3281 C822.5938,666.875 822.2031,666.4844 821.7344,666.4844 C821.5156,666.4844 821.3125,666.5625 821.125,666.75 C820.6719,667.2344 820.6719,667.2344 820.4844,667.3281 C820.0625,667.5938 819.375,667.7188 818.6094,667.7188 C816.5625,667.7188 815.2656,666.625 815.2656,664.9219 L815.2656,663.8281 C815.2656,662.0469 816.5156,660.7344 818.25,660.7344 C818.8281,660.7344 819.4375,660.8906 819.9063,661.1406 C820.3906,661.4219 820.5625,661.6406 820.6563,662.0469 C820.7188,662.4531 820.75,662.5781 820.8906,662.7031 C821.0313,662.8438 821.2656,662.9531 821.4844,662.9531 C821.75,662.9531 822.0156,662.8125 822.1875,662.5938 C822.2969,662.4375 822.3281,662.25 822.3281,661.8281 L822.3281,660.4063 C822.3281,659.9688 822.3125,659.8438 822.2188,659.6875 C822.0625,659.4219 821.7813,659.2813 821.4844,659.2813 C821.1875,659.2813 820.9844,659.375 820.7656,659.6875 L820.5938,659.6094 Z " fill="#000000"/><text fill="#000000" font-family="sans-serif" font-size="14" lengthAdjust="spacing" textLength="34" x="838.75" y="668.7842">Taak</text><line style="stroke:#181818;stroke-width:0.5;" x1="736" x2="943" y1="679.9375" y2="679.9375"/><ellipse cx="746" cy="693.5859" fill="none" rx="3" ry="3" style="stroke:#038048;stroke-width:1.0;"/><text fill="#000000" font-family="sans-serif" font-size="14" lengthAdjust="spacing" textLength="64" x="755" y="696.9326">id: string</text><ellipse cx="746" cy="709.8828" fill="none" rx="3" ry="3" style="stroke:#038048;stroke-width:1.0;"/><text fill="#000000" font-family="sans-serif" font-size="14" lengthAdjust="spacing" textLength="77" x="755" y="713.2295">data: array</text><ellipse cx="746" cy="726.1797" fill="none" rx="3" ry="3" style="stroke:#038048;stroke-width:1.0;"/><text fill="#000000" font-family="sans-serif" font-size="14" lengthAdjust="spacing" textLength="84" x="755" y="729.5264">zaak: string</text><ellipse cx="746" cy="742.4766" fill="none" rx="3" ry="3" style="stroke:#038048;stroke-width:1.0;"/><text fill="#000000" font-family="sans-serif" font-size="14" lengthAdjust="spacing" textLength="82" x="755" y="745.8232">title: string</text><ellipse cx="746" cy="758.7734" fill="none" rx="3" ry="3" style="stroke:#038048;stroke-width:1.0;"/><text fill="#000000" font-family="sans-serif" font-size="14" lengthAdjust="spacing" textLength="95" x="755" y="762.1201">status: string</text><ellipse cx="746" cy="775.0703" fill="none" rx="3" ry="3" style="stroke:#038048;stroke-width:1.0;"/><text fill="#000000" font-family="sans-serif" font-size="14" lengthAdjust="spacing" textLength="122" x="755" y="778.417">formulier: object</text><ellipse cx="746" cy="791.3672" fill="none" rx="3" ry="3" style="stroke:#038048;stroke-width:1.0;"/><text fill="#000000" font-family="sans-serif" font-size="14" lengthAdjust="spacing" textLength="152" x="755" y="794.7139">verloopdatum: string</text><ellipse cx="746" cy="807.6641" fill="none" rx="3" ry="3" style="stroke:#038048;stroke-width:1.0;"/><text fill="#000000" font-family="sans-serif" font-size="14" lengthAdjust="spacing" textLength="144" x="755" y="811.0107">identificatie: object</text><ellipse cx="746" cy="823.9609" fill="none" rx="3" ry="3" style="stroke:#038048;stroke-width:1.0;"/><text fill="#000000" font-family="sans-serif" font-size="14" lengthAdjust="spacing" textLength="160" x="755" y="827.3076">verzonden_data: array</text><ellipse cx="746" cy="840.2578" fill="none" rx="3" ry="3" style="stroke:#038048;stroke-width:1.0;"/><text fill="#000000" font-family="sans-serif" font-size="14" lengthAdjust="spacing" textLength="183" x="755" y="843.6045">verwerker_taak_id: string</text><line style="stroke:#181818;stroke-width:0.5;" x1="736" x2="943" y1="850.9063" y2="850.9063"/></g><!--class Bijlage--><g id="elem_Bijlage"><rect codeLine="110" fill="#F1F1F1" height="80.5938" id="Bijlage" rx="2.5" ry="2.5" style="stroke:#181818;stroke-width:0.5;" width="219" x="979" y="712.9375"/><ellipse cx="1060.25" cy="728.9375" fill="#ADD1B2" rx="11" ry="11" style="stroke:#181818;stroke-width:1.0;"/><path d="M1062.5938,724.6094 C1061.6563,724.1719 1061.0625,724.0313 1060.1875,724.0313 C1057.5625,724.0313 1055.5625,726.1094 1055.5625,728.8281 L1055.5625,729.9531 C1055.5625,732.5313 1057.6719,734.4219 1060.5625,734.4219 C1061.7813,734.4219 1062.9375,734.125 1063.6875,733.5781 C1064.2656,733.1719 1064.5938,732.7188 1064.5938,732.3281 C1064.5938,731.875 1064.2031,731.4844 1063.7344,731.4844 C1063.5156,731.4844 1063.3125,731.5625 1063.125,731.75 C1062.6719,732.2344 1062.6719,732.2344 1062.4844,732.3281 C1062.0625,732.5938 1061.375,732.7188 1060.6094,732.7188 C1058.5625,732.7188 1057.2656,731.625 1057.2656,729.9219 L1057.2656,728.8281 C1057.2656,727.0469 1058.5156,725.7344 1060.25,725.7344 C1060.8281,725.7344 1061.4375,725.8906 1061.9063,726.1406 C1062.3906,726.4219 1062.5625,726.6406 1062.6563,727.0469 C1062.7188,727.4531 1062.75,727.5781 1062.8906,727.7031 C1063.0313,727.8438 1063.2656,727.9531 1063.4844,727.9531 C1063.75,727.9531 1064.0156,727.8125 1064.1875,727.5938 C1064.2969,727.4375 1064.3281,727.25 1064.3281,726.8281 L1064.3281,725.4063 C1064.3281,724.9688 1064.3125,724.8438 1064.2188,724.6875 C1064.0625,724.4219 1063.7813,724.2813 1063.4844,724.2813 C1063.1875,724.2813 1062.9844,724.375 1062.7656,724.6875 L1062.5938,724.6094 Z " fill="#000000"/><text fill="#000000" font-family="sans-serif" font-size="14" lengthAdjust="spacing" textLength="48" x="1080.75" y="733.7842">Bijlage</text><line style="stroke:#181818;stroke-width:0.5;" x1="980" x2="1197" y1="744.9375" y2="744.9375"/><ellipse cx="990" cy="758.5859" fill="none" rx="3" ry="3" style="stroke:#038048;stroke-width:1.0;"/><text fill="#000000" font-family="sans-serif" font-size="14" lengthAdjust="spacing" textLength="193" x="999" y="761.9326">objectIdentificator: object</text><ellipse cx="990" cy="774.8828" fill="none" rx="3" ry="3" style="stroke:#038048;stroke-width:1.0;"/><text fill="#000000" font-family="sans-serif" font-size="14" lengthAdjust="spacing" textLength="149" x="999" y="778.2295">klantcontact: object</text><line style="stroke:#181818;stroke-width:0.5;" x1="980" x2="1197" y1="785.5313" y2="785.5313"/></g><!--class BetrokkeneBijKlantcontact--><g id="elem_BetrokkeneBijKlantcontact"><rect codeLine="114" fill="#F1F1F1" height="210.9688" id="BetrokkeneBijKlantcontact" rx="2.5" ry="2.5" style="stroke:#181818;stroke-width:0.5;" width="241" x="7" y="951.4375"/><ellipse cx="26.95" cy="967.4375" fill="#ADD1B2" rx="11" ry="11" style="stroke:#181818;stroke-width:1.0;"/><path d="M29.2938,963.1094 C28.3563,962.6719 27.7625,962.5313 26.8875,962.5313 C24.2625,962.5313 22.2625,964.6094 22.2625,967.3281 L22.2625,968.4531 C22.2625,971.0313 24.3719,972.9219 27.2625,972.9219 C28.4813,972.9219 29.6375,972.625 30.3875,972.0781 C30.9656,971.6719 31.2938,971.2188 31.2938,970.8281 C31.2938,970.375 30.9031,969.9844 30.4344,969.9844 C30.2156,969.9844 30.0125,970.0625 29.825,970.25 C29.3719,970.7344 29.3719,970.7344 29.1844,970.8281 C28.7625,971.0938 28.075,971.2188 27.3094,971.2188 C25.2625,971.2188 23.9656,970.125 23.9656,968.4219 L23.9656,967.3281 C23.9656,965.5469 25.2156,964.2344 26.95,964.2344 C27.5281,964.2344 28.1375,964.3906 28.6063,964.6406 C29.0906,964.9219 29.2625,965.1406 29.3563,965.5469 C29.4188,965.9531 29.45,966.0781 29.5906,966.2031 C29.7313,966.3438 29.9656,966.4531 30.1844,966.4531 C30.45,966.4531 30.7156,966.3125 30.8875,966.0938 C30.9969,965.9375 31.0281,965.75 31.0281,965.3281 L31.0281,963.9063 C31.0281,963.4688 31.0125,963.3438 30.9188,963.1875 C30.7625,962.9219 30.4813,962.7813 30.1844,962.7813 C29.8875,962.7813 29.6844,962.875 29.4656,963.1875 L29.2938,963.1094 Z " fill="#000000"/><text fill="#000000" font-family="sans-serif" font-size="14" lengthAdjust="spacing" textLength="198" x="42.05" y="972.2842">BetrokkeneBijKlantcontact</text><line style="stroke:#181818;stroke-width:0.5;" x1="8" x2="247" y1="983.4375" y2="983.4375"/><ellipse cx="18" cy="997.0859" fill="none" rx="3" ry="3" style="stroke:#038048;stroke-width:1.0;"/><text fill="#000000" font-family="sans-serif" font-size="14" lengthAdjust="spacing" textLength="149" x="27" y="1000.4326">klantcontact: object</text><ellipse cx="18" cy="1013.3828" fill="none" rx="3" ry="3" style="stroke:#038048;stroke-width:1.0;"/><text fill="#000000" font-family="sans-serif" font-size="14" lengthAdjust="spacing" textLength="95" x="27" y="1016.7295">partij: object</text><ellipse cx="18" cy="1029.6797" fill="none" rx="3" ry="3" style="stroke:#038048;stroke-width:1.0;"/><text fill="#000000" font-family="sans-serif" font-size="14" lengthAdjust="spacing" textLength="70" x="27" y="1033.0264">rol: string</text><ellipse cx="18" cy="1045.9766" fill="none" rx="3" ry="3" style="stroke:#038048;stroke-width:1.0;"/><text fill="#000000" font-family="sans-serif" font-size="14" lengthAdjust="spacing" textLength="132" x="27" y="1049.3232">intitiator: boolean</text><ellipse cx="18" cy="1062.2734" fill="none" rx="3" ry="3" style="stroke:#038048;stroke-width:1.0;"/><text fill="#000000" font-family="sans-serif" font-size="14" lengthAdjust="spacing" textLength="170" x="27" y="1065.6201">organisatienaam: string</text><ellipse cx="18" cy="1078.5703" fill="none" rx="3" ry="3" style="stroke:#038048;stroke-width:1.0;"/><text fill="#000000" font-family="sans-serif" font-size="14" lengthAdjust="spacing" textLength="151" x="27" y="1081.917">contactnaam: object</text><ellipse cx="18" cy="1094.8672" fill="none" rx="3" ry="3" style="stroke:#038048;stroke-width:1.0;"/><text fill="#000000" font-family="sans-serif" font-size="14" lengthAdjust="spacing" textLength="149" x="27" y="1098.2139">bezoekadres: object</text><ellipse cx="18" cy="1111.1641" fill="none" rx="3" ry="3" style="stroke:#038048;stroke-width:1.0;"/><text fill="#000000" font-family="sans-serif" font-size="14" lengthAdjust="spacing" textLength="215" x="27" y="1114.5107">correspondentieadres: object</text><ellipse cx="18" cy="1127.4609" fill="none" rx="3" ry="3" style="stroke:#038048;stroke-width:1.0;"/><text fill="#000000" font-family="sans-serif" font-size="14" lengthAdjust="spacing" textLength="204" x="27" y="1130.8076">communicatiekanaal: object</text><ellipse cx="18" cy="1143.7578" fill="none" rx="3" ry="3" style="stroke:#038048;stroke-width:1.0;"/><text fill="#000000" font-family="sans-serif" font-size="14" lengthAdjust="spacing" textLength="154" x="27" y="1147.1045">voorkeurstaal: object</text><line style="stroke:#181818;stroke-width:0.5;" x1="8" x2="247" y1="1154.4063" y2="1154.4063"/></g><!--class Correspondentieadres--><g id="elem_Correspondentieadres"><rect codeLine="126" fill="#F1F1F1" height="276.1563" id="Correspondentieadres" rx="2.5" ry="2.5" style="stroke:#181818;stroke-width:0.5;" width="276" x="283.5" y="918.9375"/><ellipse cx="336.75" cy="934.9375" fill="#ADD1B2" rx="11" ry="11" style="stroke:#181818;stroke-width:1.0;"/><path d="M339.0938,930.6094 C338.1563,930.1719 337.5625,930.0313 336.6875,930.0313 C334.0625,930.0313 332.0625,932.1094 332.0625,934.8281 L332.0625,935.9531 C332.0625,938.5313 334.1719,940.4219 337.0625,940.4219 C338.2813,940.4219 339.4375,940.125 340.1875,939.5781 C340.7656,939.1719 341.0938,938.7188 341.0938,938.3281 C341.0938,937.875 340.7031,937.4844 340.2344,937.4844 C340.0156,937.4844 339.8125,937.5625 339.625,937.75 C339.1719,938.2344 339.1719,938.2344 338.9844,938.3281 C338.5625,938.5938 337.875,938.7188 337.1094,938.7188 C335.0625,938.7188 333.7656,937.625 333.7656,935.9219 L333.7656,934.8281 C333.7656,933.0469 335.0156,931.7344 336.75,931.7344 C337.3281,931.7344 337.9375,931.8906 338.4063,932.1406 C338.8906,932.4219 339.0625,932.6406 339.1563,933.0469 C339.2188,933.4531 339.25,933.5781 339.3906,933.7031 C339.5313,933.8438 339.7656,933.9531 339.9844,933.9531 C340.25,933.9531 340.5156,933.8125 340.6875,933.5938 C340.7969,933.4375 340.8281,933.25 340.8281,932.8281 L340.8281,931.4063 C340.8281,930.9688 340.8125,930.8438 340.7188,930.6875 C340.5625,930.4219 340.2813,930.2813 339.9844,930.2813 C339.6875,930.2813 339.4844,930.375 339.2656,930.6875 L339.0938,930.6094 Z " fill="#000000"/><text fill="#000000" font-family="sans-serif" font-size="14" lengthAdjust="spacing" textLength="161" x="357.25" y="939.7842">Correspondentieadres</text><line style="stroke:#181818;stroke-width:0.5;" x1="284.5" x2="558.5" y1="950.9375" y2="950.9375"/><ellipse cx="294.5" cy="964.5859" fill="none" rx="3" ry="3" style="stroke:#038048;stroke-width:1.0;"/><text fill="#000000" font-family="sans-serif" font-size="14" lengthAdjust="spacing" textLength="235" x="303.5" y="967.9326">aanduidingBijHuisnummer: string</text><ellipse cx="294.5" cy="980.8828" fill="none" rx="3" ry="3" style="stroke:#038048;stroke-width:1.0;"/><text fill="#000000" font-family="sans-serif" font-size="14" lengthAdjust="spacing" textLength="213" x="303.5" y="984.2295">adresregelBuitenland1: string</text><ellipse cx="294.5" cy="997.1797" fill="none" rx="3" ry="3" style="stroke:#038048;stroke-width:1.0;"/><text fill="#000000" font-family="sans-serif" font-size="14" lengthAdjust="spacing" textLength="212" x="303.5" y="1000.5264">adresregelBuitenland2: string</text><ellipse cx="294.5" cy="1013.4766" fill="none" rx="3" ry="3" style="stroke:#038048;stroke-width:1.0;"/><text fill="#000000" font-family="sans-serif" font-size="14" lengthAdjust="spacing" textLength="213" x="303.5" y="1016.8232">adresregelBuitenland3: string</text><ellipse cx="294.5" cy="1029.7734" fill="none" rx="3" ry="3" style="stroke:#038048;stroke-width:1.0;"/><text fill="#000000" font-family="sans-serif" font-size="14" lengthAdjust="spacing" textLength="190" x="303.5" y="1033.1201">antwoordnummer: integer</text><ellipse cx="294.5" cy="1046.0703" fill="none" rx="3" ry="3" style="stroke:#038048;stroke-width:1.0;"/><text fill="#000000" font-family="sans-serif" font-size="14" lengthAdjust="spacing" textLength="121" x="303.5" y="1049.417">huisletter: string</text><ellipse cx="294.5" cy="1062.3672" fill="none" rx="3" ry="3" style="stroke:#038048;stroke-width:1.0;"/><text fill="#000000" font-family="sans-serif" font-size="14" lengthAdjust="spacing" textLength="150" x="303.5" y="1065.7139">huisnummer: integer</text><ellipse cx="294.5" cy="1078.6641" fill="none" rx="3" ry="3" style="stroke:#038048;stroke-width:1.0;"/><text fill="#000000" font-family="sans-serif" font-size="14" lengthAdjust="spacing" textLength="221" x="303.5" y="1082.0107">huisnummertoevoeging: string</text><ellipse cx="294.5" cy="1094.9609" fill="none" rx="3" ry="3" style="stroke:#038048;stroke-width:1.0;"/><text fill="#000000" font-family="sans-serif" font-size="14" lengthAdjust="spacing" textLength="86" x="303.5" y="1098.3076">land: object</text><ellipse cx="294.5" cy="1111.2578" fill="none" rx="3" ry="3" style="stroke:#038048;stroke-width:1.0;"/><text fill="#000000" font-family="sans-serif" font-size="14" lengthAdjust="spacing" textLength="180" x="303.5" y="1114.6045">postbusnummer: integer</text><ellipse cx="294.5" cy="1127.5547" fill="none" rx="3" ry="3" style="stroke:#038048;stroke-width:1.0;"/><text fill="#000000" font-family="sans-serif" font-size="14" lengthAdjust="spacing" textLength="119" x="303.5" y="1130.9014">postcode: string</text><ellipse cx="294.5" cy="1143.8516" fill="none" rx="3" ry="3" style="stroke:#038048;stroke-width:1.0;"/><text fill="#000000" font-family="sans-serif" font-size="14" lengthAdjust="spacing" textLength="250" x="303.5" y="1147.1982">soortCorrespondentieadres: string</text><ellipse cx="294.5" cy="1160.1484" fill="none" rx="3" ry="3" style="stroke:#038048;stroke-width:1.0;"/><text fill="#000000" font-family="sans-serif" font-size="14" lengthAdjust="spacing" textLength="94" x="303.5" y="1163.4951">straat: string</text><ellipse cx="294.5" cy="1176.4453" fill="none" rx="3" ry="3" style="stroke:#038048;stroke-width:1.0;"/><text fill="#000000" font-family="sans-serif" font-size="14" lengthAdjust="spacing" textLength="133" x="303.5" y="1179.792">woonplaats: string</text><line style="stroke:#181818;stroke-width:0.5;" x1="284.5" x2="558.5" y1="1187.0938" y2="1187.0938"/></g><!--class Voorkeur--><g id="elem_Voorkeur"><rect codeLine="142" fill="#F1F1F1" height="80.5938" id="Voorkeur" rx="2.5" ry="2.5" style="stroke:#181818;stroke-width:0.5;" width="116" x="594.5" y="1016.4375"/><ellipse cx="617.6" cy="1032.4375" fill="#ADD1B2" rx="11" ry="11" style="stroke:#181818;stroke-width:1.0;"/><path d="M619.9438,1028.1094 C619.0063,1027.6719 618.4125,1027.5313 617.5375,1027.5313 C614.9125,1027.5313 612.9125,1029.6094 612.9125,1032.3281 L612.9125,1033.4531 C612.9125,1036.0313 615.0219,1037.9219 617.9125,1037.9219 C619.1313,1037.9219 620.2875,1037.625 621.0375,1037.0781 C621.6156,1036.6719 621.9438,1036.2188 621.9438,1035.8281 C621.9438,1035.375 621.5531,1034.9844 621.0844,1034.9844 C620.8656,1034.9844 620.6625,1035.0625 620.475,1035.25 C620.0219,1035.7344 620.0219,1035.7344 619.8344,1035.8281 C619.4125,1036.0938 618.725,1036.2188 617.9594,1036.2188 C615.9125,1036.2188 614.6156,1035.125 614.6156,1033.4219 L614.6156,1032.3281 C614.6156,1030.5469 615.8656,1029.2344 617.6,1029.2344 C618.1781,1029.2344 618.7875,1029.3906 619.2563,1029.6406 C619.7406,1029.9219 619.9125,1030.1406 620.0063,1030.5469 C620.0688,1030.9531 620.1,1031.0781 620.2406,1031.2031 C620.3813,1031.3438 620.6156,1031.4531 620.8344,1031.4531 C621.1,1031.4531 621.3656,1031.3125 621.5375,1031.0938 C621.6469,1030.9375 621.6781,1030.75 621.6781,1030.3281 L621.6781,1028.9063 C621.6781,1028.4688 621.6625,1028.3438 621.5688,1028.1875 C621.4125,1027.9219 621.1313,1027.7813 620.8344,1027.7813 C620.5375,1027.7813 620.3344,1027.875 620.1156,1028.1875 L619.9438,1028.1094 Z " fill="#000000"/><text fill="#000000" font-family="sans-serif" font-size="14" lengthAdjust="spacing" textLength="66" x="633.4" y="1037.2842">Voorkeur</text><line style="stroke:#181818;stroke-width:0.5;" x1="595.5" x2="709.5" y1="1048.4375" y2="1048.4375"/><ellipse cx="605.5" cy="1062.0859" fill="none" rx="3" ry="3" style="stroke:#038048;stroke-width:1.0;"/><text fill="#000000" font-family="sans-serif" font-size="14" lengthAdjust="spacing" textLength="86" x="614.5" y="1065.4326">code: string</text><ellipse cx="605.5" cy="1078.3828" fill="none" rx="3" ry="3" style="stroke:#038048;stroke-width:1.0;"/><text fill="#000000" font-family="sans-serif" font-size="14" lengthAdjust="spacing" textLength="90" x="614.5" y="1081.7295">naam: string</text><line style="stroke:#181818;stroke-width:0.5;" x1="595.5" x2="709.5" y1="1089.0313" y2="1089.0313"/></g><!--class Actor--><g id="elem_Actor"><rect codeLine="146" fill="#F1F1F1" height="145.7813" id="Actor" rx="2.5" ry="2.5" style="stroke:#181818;stroke-width:0.5;" width="259" x="746" y="983.9375"/><ellipse cx="851.25" cy="999.9375" fill="#ADD1B2" rx="11" ry="11" style="stroke:#181818;stroke-width:1.0;"/><path d="M853.5938,995.6094 C852.6563,995.1719 852.0625,995.0313 851.1875,995.0313 C848.5625,995.0313 846.5625,997.1094 846.5625,999.8281 L846.5625,1000.9531 C846.5625,1003.5313 848.6719,1005.4219 851.5625,1005.4219 C852.7813,1005.4219 853.9375,1005.125 854.6875,1004.5781 C855.2656,1004.1719 855.5938,1003.7188 855.5938,1003.3281 C855.5938,1002.875 855.2031,1002.4844 854.7344,1002.4844 C854.5156,1002.4844 854.3125,1002.5625 854.125,1002.75 C853.6719,1003.2344 853.6719,1003.2344 853.4844,1003.3281 C853.0625,1003.5938 852.375,1003.7188 851.6094,1003.7188 C849.5625,1003.7188 848.2656,1002.625 848.2656,1000.9219 L848.2656,999.8281 C848.2656,998.0469 849.5156,996.7344 851.25,996.7344 C851.8281,996.7344 852.4375,996.8906 852.9063,997.1406 C853.3906,997.4219 853.5625,997.6406 853.6563,998.0469 C853.7188,998.4531 853.75,998.5781 853.8906,998.7031 C854.0313,998.8438 854.2656,998.9531 854.4844,998.9531 C854.75,998.9531 855.0156,998.8125 855.1875,998.5938 C855.2969,998.4375 855.3281,998.25 855.3281,997.8281 L855.3281,996.4063 C855.3281,995.9688 855.3125,995.8438 855.2188,995.6875 C855.0625,995.4219 854.7813,995.2813 854.4844,995.2813 C854.1875,995.2813 853.9844,995.375 853.7656,995.6875 L853.5938,995.6094 Z " fill="#000000"/><text fill="#000000" font-family="sans-serif" font-size="14" lengthAdjust="spacing" textLength="40" x="871.75" y="1004.7842">Actor</text><line style="stroke:#181818;stroke-width:0.5;" x1="747" x2="1004" y1="1015.9375" y2="1015.9375"/><ellipse cx="757" cy="1029.5859" fill="none" rx="3" ry="3" style="stroke:#038048;stroke-width:1.0;"/><text fill="#000000" font-family="sans-serif" font-size="14" lengthAdjust="spacing" textLength="138" x="766" y="1032.9326">klantcontact: array</text><ellipse cx="757" cy="1045.8828" fill="none" rx="3" ry="3" style="stroke:#038048;stroke-width:1.0;"/><text fill="#000000" font-family="sans-serif" font-size="14" lengthAdjust="spacing" textLength="90" x="766" y="1049.2295">naam: string</text><ellipse cx="757" cy="1062.1797" fill="none" rx="3" ry="3" style="stroke:#038048;stroke-width:1.0;"/><text fill="#000000" font-family="sans-serif" font-size="14" lengthAdjust="spacing" textLength="129" x="766" y="1065.5264">soortActor: string</text><ellipse cx="757" cy="1078.4766" fill="none" rx="3" ry="3" style="stroke:#038048;stroke-width:1.0;"/><text fill="#000000" font-family="sans-serif" font-size="14" lengthAdjust="spacing" textLength="147" x="766" y="1081.8232">medewerker: object</text><ellipse cx="757" cy="1094.7734" fill="none" rx="3" ry="3" style="stroke:#038048;stroke-width:1.0;"/><text fill="#000000" font-family="sans-serif" font-size="14" lengthAdjust="spacing" textLength="228" x="766" y="1098.1201">geautomatiseerdeActor: object</text><ellipse cx="757" cy="1111.0703" fill="none" rx="3" ry="3" style="stroke:#038048;stroke-width:1.0;"/><text fill="#000000" font-family="sans-serif" font-size="14" lengthAdjust="spacing" textLength="233" x="766" y="1114.417">organisatorischeEenheid: object</text><line style="stroke:#181818;stroke-width:0.5;" x1="747" x2="1004" y1="1121.7188" y2="1121.7188"/></g><!--class ExterneIdentificatie--><g id="elem_ExterneIdentificatie"><rect codeLine="154" fill="#F1F1F1" height="80.5938" id="ExterneIdentificatie" rx="2.5" ry="2.5" style="stroke:#181818;stroke-width:0.5;" width="255" x="1040" y="1016.4375"/><ellipse cx="1090.75" cy="1032.4375" fill="#ADD1B2" rx="11" ry="11" style="stroke:#181818;stroke-width:1.0;"/><path d="M1093.0938,1028.1094 C1092.1563,1027.6719 1091.5625,1027.5313 1090.6875,1027.5313 C1088.0625,1027.5313 1086.0625,1029.6094 1086.0625,1032.3281 L1086.0625,1033.4531 C1086.0625,1036.0313 1088.1719,1037.9219 1091.0625,1037.9219 C1092.2813,1037.9219 1093.4375,1037.625 1094.1875,1037.0781 C1094.7656,1036.6719 1095.0938,1036.2188 1095.0938,1035.8281 C1095.0938,1035.375 1094.7031,1034.9844 1094.2344,1034.9844 C1094.0156,1034.9844 1093.8125,1035.0625 1093.625,1035.25 C1093.1719,1035.7344 1093.1719,1035.7344 1092.9844,1035.8281 C1092.5625,1036.0938 1091.875,1036.2188 1091.1094,1036.2188 C1089.0625,1036.2188 1087.7656,1035.125 1087.7656,1033.4219 L1087.7656,1032.3281 C1087.7656,1030.5469 1089.0156,1029.2344 1090.75,1029.2344 C1091.3281,1029.2344 1091.9375,1029.3906 1092.4063,1029.6406 C1092.8906,1029.9219 1093.0625,1030.1406 1093.1563,1030.5469 C1093.2188,1030.9531 1093.25,1031.0781 1093.3906,1031.2031 C1093.5313,1031.3438 1093.7656,1031.4531 1093.9844,1031.4531 C1094.25,1031.4531 1094.5156,1031.3125 1094.6875,1031.0938 C1094.7969,1030.9375 1094.8281,1030.75 1094.8281,1030.3281 L1094.8281,1028.9063 C1094.8281,1028.4688 1094.8125,1028.3438 1094.7188,1028.1875 C1094.5625,1027.9219 1094.2813,1027.7813 1093.9844,1027.7813 C1093.6875,1027.7813 1093.4844,1027.875 1093.2656,1028.1875 L1093.0938,1028.1094 Z " fill="#000000"/><text fill="#000000" font-family="sans-serif" font-size="14" lengthAdjust="spacing" textLength="145" x="1111.25" y="1037.2842">ExterneIdentificatie</text><line style="stroke:#181818;stroke-width:0.5;" x1="1041" x2="1294" y1="1048.4375" y2="1048.4375"/><ellipse cx="1051" cy="1062.0859" fill="none" rx="3" ry="3" style="stroke:#038048;stroke-width:1.0;"/><text fill="#000000" font-family="sans-serif" font-size="14" lengthAdjust="spacing" textLength="229" x="1060" y="1065.4326">anderePartijIdentificator: string</text><ellipse cx="1051" cy="1078.3828" fill="none" rx="3" ry="3" style="stroke:#038048;stroke-width:1.0;"/><text fill="#000000" font-family="sans-serif" font-size="14" lengthAdjust="spacing" textLength="185" x="1060" y="1081.7295">partijIdentificator: object</text><line style="stroke:#181818;stroke-width:0.5;" x1="1041" x2="1294" y1="1089.0313" y2="1089.0313"/></g><!--class Land--><g id="elem_Land"><rect codeLine="158" fill="#F1F1F1" height="113.1875" id="Land" rx="2.5" ry="2.5" style="stroke:#181818;stroke-width:0.5;" width="203" x="26" y="1254.9375"/><ellipse cx="106.25" cy="1270.9375" fill="#ADD1B2" rx="11" ry="11" style="stroke:#181818;stroke-width:1.0;"/><path d="M108.5938,1266.6094 C107.6563,1266.1719 107.0625,1266.0313 106.1875,1266.0313 C103.5625,1266.0313 101.5625,1268.1094 101.5625,1270.8281 L101.5625,1271.9531 C101.5625,1274.5313 103.6719,1276.4219 106.5625,1276.4219 C107.7813,1276.4219 108.9375,1276.125 109.6875,1275.5781 C110.2656,1275.1719 110.5938,1274.7188 110.5938,1274.3281 C110.5938,1273.875 110.2031,1273.4844 109.7344,1273.4844 C109.5156,1273.4844 109.3125,1273.5625 109.125,1273.75 C108.6719,1274.2344 108.6719,1274.2344 108.4844,1274.3281 C108.0625,1274.5938 107.375,1274.7188 106.6094,1274.7188 C104.5625,1274.7188 103.2656,1273.625 103.2656,1271.9219 L103.2656,1270.8281 C103.2656,1269.0469 104.5156,1267.7344 106.25,1267.7344 C106.8281,1267.7344 107.4375,1267.8906 107.9063,1268.1406 C108.3906,1268.4219 108.5625,1268.6406 108.6563,1269.0469 C108.7188,1269.4531 108.75,1269.5781 108.8906,1269.7031 C109.0313,1269.8438 109.2656,1269.9531 109.4844,1269.9531 C109.75,1269.9531 110.0156,1269.8125 110.1875,1269.5938 C110.2969,1269.4375 110.3281,1269.25 110.3281,1268.8281 L110.3281,1267.4063 C110.3281,1266.9688 110.3125,1266.8438 110.2188,1266.6875 C110.0625,1266.4219 109.7813,1266.2813 109.4844,1266.2813 C109.1875,1266.2813 108.9844,1266.375 108.7656,1266.6875 L108.5938,1266.6094 Z " fill="#000000"/><text fill="#000000" font-family="sans-serif" font-size="14" lengthAdjust="spacing" textLength="34" x="126.75" y="1275.7842">Land</text><line style="stroke:#181818;stroke-width:0.5;" x1="27" x2="228" y1="1286.9375" y2="1286.9375"/><ellipse cx="37" cy="1300.5859" fill="none" rx="3" ry="3" style="stroke:#038048;stroke-width:1.0;"/><text fill="#000000" font-family="sans-serif" font-size="14" lengthAdjust="spacing" textLength="153" x="46" y="1303.9326">einddatumLand: date</text><ellipse cx="37" cy="1316.8828" fill="none" rx="3" ry="3" style="stroke:#038048;stroke-width:1.0;"/><text fill="#000000" font-family="sans-serif" font-size="14" lengthAdjust="spacing" textLength="177" x="46" y="1320.2295">ingangsdatumLand: date</text><ellipse cx="37" cy="1333.1797" fill="none" rx="3" ry="3" style="stroke:#038048;stroke-width:1.0;"/><text fill="#000000" font-family="sans-serif" font-size="14" lengthAdjust="spacing" textLength="116" x="46" y="1336.5264">landcode: string</text><ellipse cx="37" cy="1349.4766" fill="none" rx="3" ry="3" style="stroke:#038048;stroke-width:1.0;"/><text fill="#000000" font-family="sans-serif" font-size="14" lengthAdjust="spacing" textLength="120" x="46" y="1352.8232">landnaam: string</text><line style="stroke:#181818;stroke-width:0.5;" x1="27" x2="228" y1="1360.125" y2="1360.125"/></g><!--class DigitaalAdres--><g id="elem_DigitaalAdres"><rect codeLine="164" fill="#F1F1F1" height="96.8906" id="DigitaalAdres" rx="2.5" ry="2.5" style="stroke:#181818;stroke-width:0.5;" width="211" x="264" y="1262.9375"/><ellipse cx="317.25" cy="1278.9375" fill="#ADD1B2" rx="11" ry="11" style="stroke:#181818;stroke-width:1.0;"/><path d="M319.5938,1274.6094 C318.6563,1274.1719 318.0625,1274.0313 317.1875,1274.0313 C314.5625,1274.0313 312.5625,1276.1094 312.5625,1278.8281 L312.5625,1279.9531 C312.5625,1282.5313 314.6719,1284.4219 317.5625,1284.4219 C318.7813,1284.4219 319.9375,1284.125 320.6875,1283.5781 C321.2656,1283.1719 321.5938,1282.7188 321.5938,1282.3281 C321.5938,1281.875 321.2031,1281.4844 320.7344,1281.4844 C320.5156,1281.4844 320.3125,1281.5625 320.125,1281.75 C319.6719,1282.2344 319.6719,1282.2344 319.4844,1282.3281 C319.0625,1282.5938 318.375,1282.7188 317.6094,1282.7188 C315.5625,1282.7188 314.2656,1281.625 314.2656,1279.9219 L314.2656,1278.8281 C314.2656,1277.0469 315.5156,1275.7344 317.25,1275.7344 C317.8281,1275.7344 318.4375,1275.8906 318.9063,1276.1406 C319.3906,1276.4219 319.5625,1276.6406 319.6563,1277.0469 C319.7188,1277.4531 319.75,1277.5781 319.8906,1277.7031 C320.0313,1277.8438 320.2656,1277.9531 320.4844,1277.9531 C320.75,1277.9531 321.0156,1277.8125 321.1875,1277.5938 C321.2969,1277.4375 321.3281,1277.25 321.3281,1276.8281 L321.3281,1275.4063 C321.3281,1274.9688 321.3125,1274.8438 321.2188,1274.6875 C321.0625,1274.4219 320.7813,1274.2813 320.4844,1274.2813 C320.1875,1274.2813 319.9844,1274.375 319.7656,1274.6875 L319.5938,1274.6094 Z " fill="#000000"/><text fill="#000000" font-family="sans-serif" font-size="14" lengthAdjust="spacing" textLength="96" x="337.75" y="1283.7842">DigitaalAdres</text><line style="stroke:#181818;stroke-width:0.5;" x1="265" x2="474" y1="1294.9375" y2="1294.9375"/><ellipse cx="275" cy="1308.5859" fill="none" rx="3" ry="3" style="stroke:#038048;stroke-width:1.0;"/><text fill="#000000" font-family="sans-serif" font-size="14" lengthAdjust="spacing" textLength="90" x="284" y="1311.9326">adres: string</text><ellipse cx="275" cy="1324.8828" fill="none" rx="3" ry="3" style="stroke:#038048;stroke-width:1.0;"/><text fill="#000000" font-family="sans-serif" font-size="14" lengthAdjust="spacing" textLength="142" x="284" y="1328.2295">omschrijving: string</text><ellipse cx="275" cy="1341.1797" fill="none" rx="3" ry="3" style="stroke:#038048;stroke-width:1.0;"/><text fill="#000000" font-family="sans-serif" font-size="14" lengthAdjust="spacing" textLength="185" x="284" y="1344.5264">soortDigitaalAdres: string</text><line style="stroke:#181818;stroke-width:0.5;" x1="265" x2="474" y1="1351.8281" y2="1351.8281"/></g><!--class Contactnaam--><g id="elem_Contactnaam"><rect codeLine="169" fill="#F1F1F1" height="113.1875" id="Contactnaam" rx="2.5" ry="2.5" style="stroke:#181818;stroke-width:0.5;" width="252" x="510.5" y="1254.9375"/><ellipse cx="583.75" cy="1270.9375" fill="#ADD1B2" rx="11" ry="11" style="stroke:#181818;stroke-width:1.0;"/><path d="M586.0938,1266.6094 C585.1563,1266.1719 584.5625,1266.0313 583.6875,1266.0313 C581.0625,1266.0313 579.0625,1268.1094 579.0625,1270.8281 L579.0625,1271.9531 C579.0625,1274.5313 581.1719,1276.4219 584.0625,1276.4219 C585.2813,1276.4219 586.4375,1276.125 587.1875,1275.5781 C587.7656,1275.1719 588.0938,1274.7188 588.0938,1274.3281 C588.0938,1273.875 587.7031,1273.4844 587.2344,1273.4844 C587.0156,1273.4844 586.8125,1273.5625 586.625,1273.75 C586.1719,1274.2344 586.1719,1274.2344 585.9844,1274.3281 C585.5625,1274.5938 584.875,1274.7188 584.1094,1274.7188 C582.0625,1274.7188 580.7656,1273.625 580.7656,1271.9219 L580.7656,1270.8281 C580.7656,1269.0469 582.0156,1267.7344 583.75,1267.7344 C584.3281,1267.7344 584.9375,1267.8906 585.4063,1268.1406 C585.8906,1268.4219 586.0625,1268.6406 586.1563,1269.0469 C586.2188,1269.4531 586.25,1269.5781 586.3906,1269.7031 C586.5313,1269.8438 586.7656,1269.9531 586.9844,1269.9531 C587.25,1269.9531 587.5156,1269.8125 587.6875,1269.5938 C587.7969,1269.4375 587.8281,1269.25 587.8281,1268.8281 L587.8281,1267.4063 C587.8281,1266.9688 587.8125,1266.8438 587.7188,1266.6875 C587.5625,1266.4219 587.2813,1266.2813 586.9844,1266.2813 C586.6875,1266.2813 586.4844,1266.375 586.2656,1266.6875 L586.0938,1266.6094 Z " fill="#000000"/><text fill="#000000" font-family="sans-serif" font-size="14" lengthAdjust="spacing" textLength="97" x="604.25" y="1275.7842">Contactnaam</text><line style="stroke:#181818;stroke-width:0.5;" x1="511.5" x2="761.5" y1="1286.9375" y2="1286.9375"/><ellipse cx="521.5" cy="1300.5859" fill="none" rx="3" ry="3" style="stroke:#038048;stroke-width:1.0;"/><text fill="#000000" font-family="sans-serif" font-size="14" lengthAdjust="spacing" textLength="137" x="530.5" y="1303.9326">achternaam: string</text><ellipse cx="521.5" cy="1316.8828" fill="none" rx="3" ry="3" style="stroke:#038048;stroke-width:1.0;"/><text fill="#000000" font-family="sans-serif" font-size="14" lengthAdjust="spacing" textLength="122" x="530.5" y="1320.2295">voornaam: string</text><ellipse cx="521.5" cy="1333.1797" fill="none" rx="3" ry="3" style="stroke:#038048;stroke-width:1.0;"/><text fill="#000000" font-family="sans-serif" font-size="14" lengthAdjust="spacing" textLength="226" x="530.5" y="1336.5264">voorvoegselAchternaam: string</text><ellipse cx="521.5" cy="1349.4766" fill="none" rx="3" ry="3" style="stroke:#038048;stroke-width:1.0;"/><text fill="#000000" font-family="sans-serif" font-size="14" lengthAdjust="spacing" textLength="132" x="530.5" y="1352.8232">voorletters: string</text><line style="stroke:#181818;stroke-width:0.5;" x1="511.5" x2="761.5" y1="1360.125" y2="1360.125"/></g><text fill="#888888" font-family="sans-serif" font-size="10" lengthAdjust="spacing" textLength="402" x="449.5" y="1383.4072">Common Gateway Plugin | Commongateway | Customerinteractionbundle</text><!--SRC=[pLV9Rjim4BtxAtJlgUqjDoSDqg197Q3BDQ2biKoB8WqkTkEs_zuXASiSYaxG00Lwr72PnpTl5bbk1LnKSo4gKw-XPsQsKig2lgYkLDyhMTqm2tlsL3q8rt9P_HhixM36RsUiwa5pYSTORRcIIoSR0TLi3QpnLtq9LyzgmOof5hfbaXjcELG_PrNrffACzHULiNX5E_izR7i0RPIInYyE-sebBJg8szLo0xKTjzzwxnA-CjODkws25lPm0BdONbGDuhMyXx3KmauprZRmaSa61BeTtGSyhkyzRF-Y5dIm6SkiCsGREX2yNjlyE49KUWJeBPrWqWxe9yZleK6OkWCz08TxnWLhD51tAoUHNA0GG036InuHPnoEL2lDVNYlGQw1DuCVrQDDyyqkVy0P02yukuhlsyQuFHEouFiaWWaXbt1Gq0N_moqCm-HuWzuk-UQZuoQ34FRu_HhZ9IuTjo2HykRjYplUlRZZFTcnHkS2hCsShnDCgMfETXJB3WMPK-qz46Asog1I6Xfc95JRX1QwQ57BbfZs682jGAkPfXNJbc-EYLU0p6CYVLQMvshZik6r3zaDe8pwjN9DUCzIAG5CXZqxXDg1qvWlJ92NZQVdNiOhUYoyC68ZBaiw2JH5bH5RJGH8baPK7PCvhXtkjnew2tFFhG4yohHcJs5rcR9Ed6aqRHNM3udWfXlWH-3nDgoluijDUZFwzQnB39PkU0iwHvMkDjCq-PGKbMVYwH5gh2zRmck11ovzGCi17tBx1eJhgDHYc1E31wwLssDjt7Ha9IeIQsyWRLAKGzaa32tvHh0MKbEBLons6LVyLFiNqdhboM_SacE0MSrzc44tnFFOFqvnKiT275tOfsqX6nTXxPRofKh6wBbGC3rU8ezZuyeTxfXmC3b-0ynXuyM3nh_AfzM8lDGhYkL-x1H7bSGd4088DTE-TdMchoMjc5D6a7oMHkU0EwceubH2Yjoa_QwKxftWqxmHIctHXUkfbbEcyoE78Cd77DWkS8AT-H4rrJqcpnXxLPJet_1rRWwu1CoRhWC9U6aXkOk7GruDPJCnQIMoHFRLFE99osvINiaGzbphVdL5h75mT386e5I7YvtZD5rCR__lfWCCKAZNvqQ1VpuvB5tnilD3nLKnQA-UBhuFCHodlyndST9F2nSL-IaJ9-eCwETnqaxC_JXC4sxQKgqi3wHqL9xeyBhGreywz3KKuX2JrO2q2vRMCoTtUDNnPm1xS2XcTo7UlcyD6OruMrDQyigOCE-DHVO_y9RxZ9kd6JMHmTb_XH07SiUv7uFaHuxXNnEocCVKLu2YqUlVW9YVFnOpA_7z1m00]--></g></svg>