<?xml version="1.0" encoding="us-ascii" standalone="no"?><svg xmlns="http://www.w3.org/2000/svg" xmlns:xlink="http://www.w3.org/1999/xlink" contentStyleType="text/css" height="1589px" preserveAspectRatio="none" style="width:1426px;height:1589px;background:#FFFFFF;" version="1.1" viewBox="0 0 1426 1589" width="1426px" zoomAndPan="magnify"><defs/><g><text fill="#888888" font-family="sans-serif" font-size="10" lengthAdjust="spacing" textLength="45" x="1367.5" y="9.2822">Schema</text><text fill="#000000" font-family="sans-serif" font-size="14" font-weight="bold" lengthAdjust="spacing" textLength="97" x="657.75" y="35.6357">All schemas</text><!--class Klant--><g id="elem_Klant"><rect codeLine="4" fill="#F1F1F1" height="325.0469" id="Klant" rx="2.5" ry="2.5" style="stroke:#181818;stroke-width:0.5;" width="252" x="19" y="56.9375"/><ellipse cx="121.75" cy="72.9375" fill="#ADD1B2" rx="11" ry="11" style="stroke:#181818;stroke-width:1.0;"/><path d="M124.0938,68.6094 C123.1563,68.1719 122.5625,68.0313 121.6875,68.0313 C119.0625,68.0313 117.0625,70.1094 117.0625,72.8281 L117.0625,73.9531 C117.0625,76.5313 119.1719,78.4219 122.0625,78.4219 C123.2813,78.4219 124.4375,78.125 125.1875,77.5781 C125.7656,77.1719 126.0938,76.7188 126.0938,76.3281 C126.0938,75.875 125.7031,75.4844 125.2344,75.4844 C125.0156,75.4844 124.8125,75.5625 124.625,75.75 C124.1719,76.2344 124.1719,76.2344 123.9844,76.3281 C123.5625,76.5938 122.875,76.7188 122.1094,76.7188 C120.0625,76.7188 118.7656,75.625 118.7656,73.9219 L118.7656,72.8281 C118.7656,71.0469 120.0156,69.7344 121.75,69.7344 C122.3281,69.7344 122.9375,69.8906 123.4063,70.1406 C123.8906,70.4219 124.0625,70.6406 124.1563,71.0469 C124.2188,71.4531 124.25,71.5781 124.3906,71.7031 C124.5313,71.8438 124.7656,71.9531 124.9844,71.9531 C125.25,71.9531 125.5156,71.8125 125.6875,71.5938 C125.7969,71.4375 125.8281,71.25 125.8281,70.8281 L125.8281,69.4063 C125.8281,68.9688 125.8125,68.8438 125.7188,68.6875 C125.5625,68.4219 125.2813,68.2813 124.9844,68.2813 C124.6875,68.2813 124.4844,68.375 124.2656,68.6875 L124.0938,68.6094 Z " fill="#000000"/><text fill="#000000" font-family="sans-serif" font-size="14" lengthAdjust="spacing" textLength="38" x="142.25" y="77.7842">Klant</text><line style="stroke:#181818;stroke-width:0.5;" x1="20" x2="270" y1="88.9375" y2="88.9375"/><ellipse cx="30" cy="102.5859" fill="none" rx="3" ry="3" style="stroke:#038048;stroke-width:1.0;"/><text fill="#000000" font-family="sans-serif" font-size="14" lengthAdjust="spacing" textLength="69" x="39" y="105.9326">url: string</text><ellipse cx="30" cy="118.8828" fill="none" rx="3" ry="3" style="stroke:#038048;stroke-width:1.0;"/><text fill="#000000" font-family="sans-serif" font-size="14" lengthAdjust="spacing" textLength="165" x="39" y="122.2295">bronorganisatie: string</text><ellipse cx="30" cy="135.1797" fill="none" rx="3" ry="3" style="stroke:#038048;stroke-width:1.0;"/><text fill="#000000" font-family="sans-serif" font-size="14" lengthAdjust="spacing" textLength="148" x="39" y="138.5264">klantnummer: string</text><ellipse cx="30" cy="151.4766" fill="none" rx="3" ry="3" style="stroke:#038048;stroke-width:1.0;"/><text fill="#000000" font-family="sans-serif" font-size="14" lengthAdjust="spacing" textLength="145" x="39" y="154.8232">bedrijfsnaam: string</text><ellipse cx="30" cy="167.7734" fill="none" rx="3" ry="3" style="stroke:#038048;stroke-width:1.0;"/><text fill="#000000" font-family="sans-serif" font-size="14" lengthAdjust="spacing" textLength="102" x="39" y="171.1201">functie: string</text><ellipse cx="30" cy="184.0703" fill="none" rx="3" ry="3" style="stroke:#038048;stroke-width:1.0;"/><text fill="#000000" font-family="sans-serif" font-size="14" lengthAdjust="spacing" textLength="127" x="39" y="187.417">websiteUrl: string</text><ellipse cx="30" cy="200.3672" fill="none" rx="3" ry="3" style="stroke:#038048;stroke-width:1.0;"/><text fill="#000000" font-family="sans-serif" font-size="14" lengthAdjust="spacing" textLength="122" x="39" y="203.7139">voornaam: string</text><ellipse cx="30" cy="216.6641" fill="none" rx="3" ry="3" style="stroke:#038048;stroke-width:1.0;"/><text fill="#000000" font-family="sans-serif" font-size="14" lengthAdjust="spacing" textLength="226" x="39" y="220.0107">voorvoegselAchternaam: string</text><ellipse cx="30" cy="232.9609" fill="none" rx="3" ry="3" style="stroke:#038048;stroke-width:1.0;"/><text fill="#000000" font-family="sans-serif" font-size="14" lengthAdjust="spacing" textLength="137" x="39" y="236.3076">achternaam: string</text><ellipse cx="30" cy="249.2578" fill="none" rx="3" ry="3" style="stroke:#038048;stroke-width:1.0;"/><text fill="#000000" font-family="sans-serif" font-size="14" lengthAdjust="spacing" textLength="173" x="39" y="252.6045">telefoonnummer: string</text><ellipse cx="30" cy="265.5547" fill="none" rx="3" ry="3" style="stroke:#038048;stroke-width:1.0;"/><text fill="#000000" font-family="sans-serif" font-size="14" lengthAdjust="spacing" textLength="129" x="39" y="268.9014">emailadres: string</text><ellipse cx="30" cy="281.8516" fill="none" rx="3" ry="3" style="stroke:#038048;stroke-width:1.0;"/><text fill="#000000" font-family="sans-serif" font-size="14" lengthAdjust="spacing" textLength="75" x="39" y="285.1982">adres: Any</text><ellipse cx="30" cy="298.1484" fill="none" rx="3" ry="3" style="stroke:#038048;stroke-width:1.0;"/><text fill="#000000" font-family="sans-serif" font-size="14" lengthAdjust="spacing" textLength="104" x="39" y="301.4951">subject: string</text><ellipse cx="30" cy="314.4453" fill="none" rx="3" ry="3" style="stroke:#038048;stroke-width:1.0;"/><text fill="#000000" font-family="sans-serif" font-size="14" lengthAdjust="spacing" textLength="140" x="39" y="317.792">subjectType: string</text><ellipse cx="30" cy="330.7422" fill="none" rx="3" ry="3" style="stroke:#038048;stroke-width:1.0;"/><text fill="#000000" font-family="sans-serif" font-size="14" lengthAdjust="spacing" textLength="161" x="39" y="334.0889">aanmaakkanaal: string</text><ellipse cx="30" cy="347.0391" fill="none" rx="3" ry="3" style="stroke:#038048;stroke-width:1.0;"/><text fill="#000000" font-family="sans-serif" font-size="14" lengthAdjust="spacing" textLength="139" x="39" y="350.3857">geverifieerd: string</text><ellipse cx="30" cy="363.3359" fill="none" rx="3" ry="3" style="stroke:#038048;stroke-width:1.0;"/><text fill="#000000" font-family="sans-serif" font-size="14" lengthAdjust="spacing" textLength="177" x="39" y="366.6826">subjectIdentificatie: Any</text><line style="stroke:#181818;stroke-width:0.5;" x1="20" x2="270" y1="373.9844" y2="373.9844"/></g><!--class BetrokkeneBijKlantcontact--><g id="elem_BetrokkeneBijKlantcontact"><rect codeLine="23" fill="#F1F1F1" height="194.6719" id="BetrokkeneBijKlantcontact" rx="2.5" ry="2.5" style="stroke:#181818;stroke-width:0.5;" width="241" x="306.5" y="121.9375"/><ellipse cx="326.45" cy="137.9375" fill="#ADD1B2" rx="11" ry="11" style="stroke:#181818;stroke-width:1.0;"/><path d="M328.7938,133.6094 C327.8563,133.1719 327.2625,133.0313 326.3875,133.0313 C323.7625,133.0313 321.7625,135.1094 321.7625,137.8281 L321.7625,138.9531 C321.7625,141.5313 323.8719,143.4219 326.7625,143.4219 C327.9813,143.4219 329.1375,143.125 329.8875,142.5781 C330.4656,142.1719 330.7938,141.7188 330.7938,141.3281 C330.7938,140.875 330.4031,140.4844 329.9344,140.4844 C329.7156,140.4844 329.5125,140.5625 329.325,140.75 C328.8719,141.2344 328.8719,141.2344 328.6844,141.3281 C328.2625,141.5938 327.575,141.7188 326.8094,141.7188 C324.7625,141.7188 323.4656,140.625 323.4656,138.9219 L323.4656,137.8281 C323.4656,136.0469 324.7156,134.7344 326.45,134.7344 C327.0281,134.7344 327.6375,134.8906 328.1063,135.1406 C328.5906,135.4219 328.7625,135.6406 328.8563,136.0469 C328.9188,136.4531 328.95,136.5781 329.0906,136.7031 C329.2313,136.8438 329.4656,136.9531 329.6844,136.9531 C329.95,136.9531 330.2156,136.8125 330.3875,136.5938 C330.4969,136.4375 330.5281,136.25 330.5281,135.8281 L330.5281,134.4063 C330.5281,133.9688 330.5125,133.8438 330.4188,133.6875 C330.2625,133.4219 329.9813,133.2813 329.6844,133.2813 C329.3875,133.2813 329.1844,133.375 328.9656,133.6875 L328.7938,133.6094 Z " fill="#000000"/><text fill="#000000" font-family="sans-serif" font-size="14" lengthAdjust="spacing" textLength="198" x="341.55" y="142.7842">BetrokkeneBijKlantcontact</text><line style="stroke:#181818;stroke-width:0.5;" x1="307.5" x2="546.5" y1="153.9375" y2="153.9375"/><ellipse cx="317.5" cy="167.5859" fill="none" rx="3" ry="3" style="stroke:#038048;stroke-width:1.0;"/><text fill="#000000" font-family="sans-serif" font-size="14" lengthAdjust="spacing" textLength="149" x="326.5" y="170.9326">bezoekadres: object</text><ellipse cx="317.5" cy="183.8828" fill="none" rx="3" ry="3" style="stroke:#038048;stroke-width:1.0;"/><text fill="#000000" font-family="sans-serif" font-size="14" lengthAdjust="spacing" textLength="215" x="326.5" y="187.2295">correspondentieadres: object</text><ellipse cx="317.5" cy="200.1797" fill="none" rx="3" ry="3" style="stroke:#038048;stroke-width:1.0;"/><text fill="#000000" font-family="sans-serif" font-size="14" lengthAdjust="spacing" textLength="157" x="326.5" y="203.5264">klantcontactId: string</text><ellipse cx="317.5" cy="216.4766" fill="none" rx="3" ry="3" style="stroke:#038048;stroke-width:1.0;"/><text fill="#000000" font-family="sans-serif" font-size="14" lengthAdjust="spacing" textLength="170" x="326.5" y="219.8232">organisatienaam: string</text><ellipse cx="317.5" cy="232.7734" fill="none" rx="3" ry="3" style="stroke:#038048;stroke-width:1.0;"/><text fill="#000000" font-family="sans-serif" font-size="14" lengthAdjust="spacing" textLength="103" x="326.5" y="236.1201">partijId: string</text><ellipse cx="317.5" cy="249.0703" fill="none" rx="3" ry="3" style="stroke:#038048;stroke-width:1.0;"/><text fill="#000000" font-family="sans-serif" font-size="14" lengthAdjust="spacing" textLength="161" x="326.5" y="252.417">persoonsnaam: object</text><ellipse cx="317.5" cy="265.3672" fill="none" rx="3" ry="3" style="stroke:#038048;stroke-width:1.0;"/><text fill="#000000" font-family="sans-serif" font-size="14" lengthAdjust="spacing" textLength="70" x="326.5" y="268.7139">rol: string</text><ellipse cx="317.5" cy="281.6641" fill="none" rx="3" ry="3" style="stroke:#038048;stroke-width:1.0;"/><text fill="#000000" font-family="sans-serif" font-size="14" lengthAdjust="spacing" textLength="173" x="326.5" y="285.0107">voorkeurskanaal: object</text><ellipse cx="317.5" cy="297.9609" fill="none" rx="3" ry="3" style="stroke:#038048;stroke-width:1.0;"/><text fill="#000000" font-family="sans-serif" font-size="14" lengthAdjust="spacing" textLength="154" x="326.5" y="301.3076">voorkeurstaal: object</text><line style="stroke:#181818;stroke-width:0.5;" x1="307.5" x2="546.5" y1="308.6094" y2="308.6094"/></g><!--class Partij--><g id="elem_Partij"><rect codeLine="34" fill="#F1F1F1" height="227.2656" id="Partij" rx="2.5" ry="2.5" style="stroke:#181818;stroke-width:0.5;" width="241" x="582.5" y="105.9375"/><ellipse cx="679.75" cy="121.9375" fill="#ADD1B2" rx="11" ry="11" style="stroke:#181818;stroke-width:1.0;"/><path d="M682.0938,117.6094 C681.1563,117.1719 680.5625,117.0313 679.6875,117.0313 C677.0625,117.0313 675.0625,119.1094 675.0625,121.8281 L675.0625,122.9531 C675.0625,125.5313 677.1719,127.4219 680.0625,127.4219 C681.2813,127.4219 682.4375,127.125 683.1875,126.5781 C683.7656,126.1719 684.0938,125.7188 684.0938,125.3281 C684.0938,124.875 683.7031,124.4844 683.2344,124.4844 C683.0156,124.4844 682.8125,124.5625 682.625,124.75 C682.1719,125.2344 682.1719,125.2344 681.9844,125.3281 C681.5625,125.5938 680.875,125.7188 680.1094,125.7188 C678.0625,125.7188 676.7656,124.625 676.7656,122.9219 L676.7656,121.8281 C676.7656,120.0469 678.0156,118.7344 679.75,118.7344 C680.3281,118.7344 680.9375,118.8906 681.4063,119.1406 C681.8906,119.4219 682.0625,119.6406 682.1563,120.0469 C682.2188,120.4531 682.25,120.5781 682.3906,120.7031 C682.5313,120.8438 682.7656,120.9531 682.9844,120.9531 C683.25,120.9531 683.5156,120.8125 683.6875,120.5938 C683.7969,120.4375 683.8281,120.25 683.8281,119.8281 L683.8281,118.4063 C683.8281,117.9688 683.8125,117.8438 683.7188,117.6875 C683.5625,117.4219 683.2813,117.2813 682.9844,117.2813 C682.6875,117.2813 682.4844,117.375 682.2656,117.6875 L682.0938,117.6094 Z " fill="#000000"/><text fill="#000000" font-family="sans-serif" font-size="14" lengthAdjust="spacing" textLength="38" x="700.25" y="126.7842">Partij</text><line style="stroke:#181818;stroke-width:0.5;" x1="583.5" x2="822.5" y1="137.9375" y2="137.9375"/><ellipse cx="593.5" cy="151.5859" fill="none" rx="3" ry="3" style="stroke:#038048;stroke-width:1.0;"/><text fill="#000000" font-family="sans-serif" font-size="14" lengthAdjust="spacing" textLength="149" x="602.5" y="154.9326">bezoekadres: object</text><ellipse cx="593.5" cy="167.8828" fill="none" rx="3" ry="3" style="stroke:#038048;stroke-width:1.0;"/><text fill="#000000" font-family="sans-serif" font-size="14" lengthAdjust="spacing" textLength="215" x="602.5" y="171.2295">correspondentieadres: object</text><ellipse cx="593.5" cy="184.1797" fill="none" rx="3" ry="3" style="stroke:#038048;stroke-width:1.0;"/><text fill="#000000" font-family="sans-serif" font-size="14" lengthAdjust="spacing" textLength="190" x="602.5" y="187.5264">externeIdentificatie: array</text><ellipse cx="593.5" cy="200.4766" fill="none" rx="3" ry="3" style="stroke:#038048;stroke-width:1.0;"/><text fill="#000000" font-family="sans-serif" font-size="14" lengthAdjust="spacing" textLength="154" x="602.5" y="203.8232">interneNotitie: string</text><ellipse cx="593.5" cy="216.7734" fill="none" rx="3" ry="3" style="stroke:#038048;stroke-width:1.0;"/><text fill="#000000" font-family="sans-serif" font-size="14" lengthAdjust="spacing" textLength="127" x="602.5" y="220.1201">klanttaakId: array</text><ellipse cx="593.5" cy="233.0703" fill="none" rx="3" ry="3" style="stroke:#038048;stroke-width:1.0;"/><text fill="#000000" font-family="sans-serif" font-size="14" lengthAdjust="spacing" textLength="122" x="602.5" y="236.417">nummer: integer</text><ellipse cx="593.5" cy="249.3672" fill="none" rx="3" ry="3" style="stroke:#038048;stroke-width:1.0;"/><text fill="#000000" font-family="sans-serif" font-size="14" lengthAdjust="spacing" textLength="170" x="602.5" y="252.7139">organisatienaam: string</text><ellipse cx="593.5" cy="265.6641" fill="none" rx="3" ry="3" style="stroke:#038048;stroke-width:1.0;"/><text fill="#000000" font-family="sans-serif" font-size="14" lengthAdjust="spacing" textLength="161" x="602.5" y="269.0107">persoonsnaam: object</text><ellipse cx="593.5" cy="281.9609" fill="none" rx="3" ry="3" style="stroke:#038048;stroke-width:1.0;"/><text fill="#000000" font-family="sans-serif" font-size="14" lengthAdjust="spacing" textLength="173" x="602.5" y="285.3076">voorkeurskanaal: object</text><ellipse cx="593.5" cy="298.2578" fill="none" rx="3" ry="3" style="stroke:#038048;stroke-width:1.0;"/><text fill="#000000" font-family="sans-serif" font-size="14" lengthAdjust="spacing" textLength="154" x="602.5" y="301.6045">voorkeurstaal: object</text><ellipse cx="593.5" cy="314.5547" fill="none" rx="3" ry="3" style="stroke:#038048;stroke-width:1.0;"/><text fill="#000000" font-family="sans-serif" font-size="14" lengthAdjust="spacing" textLength="171" x="602.5" y="317.9014">wasBereikbaarOp: array</text><line style="stroke:#181818;stroke-width:0.5;" x1="583.5" x2="822.5" y1="325.2031" y2="325.2031"/></g><!--class TaakFormulier--><g id="elem_TaakFormulier"><rect codeLine="47" fill="#F1F1F1" height="80.5938" id="TaakFormulier" rx="2.5" ry="2.5" style="stroke:#181818;stroke-width:0.5;" width="134" x="859" y="178.9375"/><ellipse cx="874" cy="194.9375" fill="#ADD1B2" rx="11" ry="11" style="stroke:#181818;stroke-width:1.0;"/><path d="M876.3438,190.6094 C875.4063,190.1719 874.8125,190.0313 873.9375,190.0313 C871.3125,190.0313 869.3125,192.1094 869.3125,194.8281 L869.3125,195.9531 C869.3125,198.5313 871.4219,200.4219 874.3125,200.4219 C875.5313,200.4219 876.6875,200.125 877.4375,199.5781 C878.0156,199.1719 878.3438,198.7188 878.3438,198.3281 C878.3438,197.875 877.9531,197.4844 877.4844,197.4844 C877.2656,197.4844 877.0625,197.5625 876.875,197.75 C876.4219,198.2344 876.4219,198.2344 876.2344,198.3281 C875.8125,198.5938 875.125,198.7188 874.3594,198.7188 C872.3125,198.7188 871.0156,197.625 871.0156,195.9219 L871.0156,194.8281 C871.0156,193.0469 872.2656,191.7344 874,191.7344 C874.5781,191.7344 875.1875,191.8906 875.6563,192.1406 C876.1406,192.4219 876.3125,192.6406 876.4063,193.0469 C876.4688,193.4531 876.5,193.5781 876.6406,193.7031 C876.7813,193.8438 877.0156,193.9531 877.2344,193.9531 C877.5,193.9531 877.7656,193.8125 877.9375,193.5938 C878.0469,193.4375 878.0781,193.25 878.0781,192.8281 L878.0781,191.4063 C878.0781,190.9688 878.0625,190.8438 877.9688,190.6875 C877.8125,190.4219 877.5313,190.2813 877.2344,190.2813 C876.9375,190.2813 876.7344,190.375 876.5156,190.6875 L876.3438,190.6094 Z " fill="#000000"/><text fill="#000000" font-family="sans-serif" font-size="14" lengthAdjust="spacing" textLength="102" x="888" y="199.7842">TaakFormulier</text><line style="stroke:#181818;stroke-width:0.5;" x1="860" x2="992" y1="210.9375" y2="210.9375"/><ellipse cx="870" cy="224.5859" fill="none" rx="3" ry="3" style="stroke:#038048;stroke-width:1.0;"/><text fill="#000000" font-family="sans-serif" font-size="14" lengthAdjust="spacing" textLength="85" x="879" y="227.9326">type: string</text><ellipse cx="870" cy="240.8828" fill="none" rx="3" ry="3" style="stroke:#038048;stroke-width:1.0;"/><text fill="#000000" font-family="sans-serif" font-size="14" lengthAdjust="spacing" textLength="88" x="879" y="244.2295">value: string</text><line style="stroke:#181818;stroke-width:0.5;" x1="860" x2="992" y1="251.5313" y2="251.5313"/></g><!--class Bijlage--><g id="elem_Bijlage"><rect codeLine="51" fill="#F1F1F1" height="129.4844" id="Bijlage" rx="2.5" ry="2.5" style="stroke:#181818;stroke-width:0.5;" width="257" x="1028.5" y="154.9375"/><ellipse cx="1128.75" cy="170.9375" fill="#ADD1B2" rx="11" ry="11" style="stroke:#181818;stroke-width:1.0;"/><path d="M1131.0938,166.6094 C1130.1563,166.1719 1129.5625,166.0313 1128.6875,166.0313 C1126.0625,166.0313 1124.0625,168.1094 1124.0625,170.8281 L1124.0625,171.9531 C1124.0625,174.5313 1126.1719,176.4219 1129.0625,176.4219 C1130.2813,176.4219 1131.4375,176.125 1132.1875,175.5781 C1132.7656,175.1719 1133.0938,174.7188 1133.0938,174.3281 C1133.0938,173.875 1132.7031,173.4844 1132.2344,173.4844 C1132.0156,173.4844 1131.8125,173.5625 1131.625,173.75 C1131.1719,174.2344 1131.1719,174.2344 1130.9844,174.3281 C1130.5625,174.5938 1129.875,174.7188 1129.1094,174.7188 C1127.0625,174.7188 1125.7656,173.625 1125.7656,171.9219 L1125.7656,170.8281 C1125.7656,169.0469 1127.0156,167.7344 1128.75,167.7344 C1129.3281,167.7344 1129.9375,167.8906 1130.4063,168.1406 C1130.8906,168.4219 1131.0625,168.6406 1131.1563,169.0469 C1131.2188,169.4531 1131.25,169.5781 1131.3906,169.7031 C1131.5313,169.8438 1131.7656,169.9531 1131.9844,169.9531 C1132.25,169.9531 1132.5156,169.8125 1132.6875,169.5938 C1132.7969,169.4375 1132.8281,169.25 1132.8281,168.8281 L1132.8281,167.4063 C1132.8281,166.9688 1132.8125,166.8438 1132.7188,166.6875 C1132.5625,166.4219 1132.2813,166.2813 1131.9844,166.2813 C1131.6875,166.2813 1131.4844,166.375 1131.2656,166.6875 L1131.0938,166.6094 Z " fill="#000000"/><text fill="#000000" font-family="sans-serif" font-size="14" lengthAdjust="spacing" textLength="48" x="1149.25" y="175.7842">Bijlage</text><line style="stroke:#181818;stroke-width:0.5;" x1="1029.5" x2="1284.5" y1="186.9375" y2="186.9375"/><ellipse cx="1039.5" cy="200.5859" fill="none" rx="3" ry="3" style="stroke:#038048;stroke-width:1.0;"/><text fill="#000000" font-family="sans-serif" font-size="14" lengthAdjust="spacing" textLength="112" x="1048.5" y="203.9326">externId: string</text><ellipse cx="1039.5" cy="216.8828" fill="none" rx="3" ry="3" style="stroke:#038048;stroke-width:1.0;"/><text fill="#000000" font-family="sans-serif" font-size="14" lengthAdjust="spacing" textLength="160" x="1048.5" y="220.2295">externRegister: string</text><ellipse cx="1039.5" cy="233.1797" fill="none" rx="3" ry="3" style="stroke:#038048;stroke-width:1.0;"/><text fill="#000000" font-family="sans-serif" font-size="14" lengthAdjust="spacing" textLength="231" x="1048.5" y="236.5264">indicatieWeerTeGeven: boolean</text><ellipse cx="1039.5" cy="249.4766" fill="none" rx="3" ry="3" style="stroke:#038048;stroke-width:1.0;"/><text fill="#000000" font-family="sans-serif" font-size="14" lengthAdjust="spacing" textLength="157" x="1048.5" y="252.8232">klantcontactId: string</text><ellipse cx="1039.5" cy="265.7734" fill="none" rx="3" ry="3" style="stroke:#038048;stroke-width:1.0;"/><text fill="#000000" font-family="sans-serif" font-size="14" lengthAdjust="spacing" textLength="142" x="1048.5" y="269.1201">omschrijving: string</text><line style="stroke:#181818;stroke-width:0.5;" x1="1029.5" x2="1284.5" y1="276.4219" y2="276.4219"/></g><!--class VerblijfAdres--><g id="elem_VerblijfAdres"><rect codeLine="58" fill="#F1F1F1" height="194.6719" id="VerblijfAdres" rx="2.5" ry="2.5" style="stroke:#181818;stroke-width:0.5;" width="276" x="7" y="482.4375"/><ellipse cx="93.75" cy="498.4375" fill="#ADD1B2" rx="11" ry="11" style="stroke:#181818;stroke-width:1.0;"/><path d="M96.0938,494.1094 C95.1563,493.6719 94.5625,493.5313 93.6875,493.5313 C91.0625,493.5313 89.0625,495.6094 89.0625,498.3281 L89.0625,499.4531 C89.0625,502.0313 91.1719,503.9219 94.0625,503.9219 C95.2813,503.9219 96.4375,503.625 97.1875,503.0781 C97.7656,502.6719 98.0938,502.2188 98.0938,501.8281 C98.0938,501.375 97.7031,500.9844 97.2344,500.9844 C97.0156,500.9844 96.8125,501.0625 96.625,501.25 C96.1719,501.7344 96.1719,501.7344 95.9844,501.8281 C95.5625,502.0938 94.875,502.2188 94.1094,502.2188 C92.0625,502.2188 90.7656,501.125 90.7656,499.4219 L90.7656,498.3281 C90.7656,496.5469 92.0156,495.2344 93.75,495.2344 C94.3281,495.2344 94.9375,495.3906 95.4063,495.6406 C95.8906,495.9219 96.0625,496.1406 96.1563,496.5469 C96.2188,496.9531 96.25,497.0781 96.3906,497.2031 C96.5313,497.3438 96.7656,497.4531 96.9844,497.4531 C97.25,497.4531 97.5156,497.3125 97.6875,497.0938 C97.7969,496.9375 97.8281,496.75 97.8281,496.3281 L97.8281,494.9063 C97.8281,494.4688 97.8125,494.3438 97.7188,494.1875 C97.5625,493.9219 97.2813,493.7813 96.9844,493.7813 C96.6875,493.7813 96.4844,493.875 96.2656,494.1875 L96.0938,494.1094 Z " fill="#000000"/><text fill="#000000" font-family="sans-serif" font-size="14" lengthAdjust="spacing" textLength="94" x="114.25" y="503.2842">VerblijfAdres</text><line style="stroke:#181818;stroke-width:0.5;" x1="8" x2="282" y1="514.4375" y2="514.4375"/><ellipse cx="18" cy="528.0859" fill="none" rx="3" ry="3" style="stroke:#038048;stroke-width:1.0;"/><text fill="#000000" font-family="sans-serif" font-size="14" lengthAdjust="spacing" textLength="64" x="27" y="531.4326">id: string</text><ellipse cx="18" cy="544.3828" fill="none" rx="3" ry="3" style="stroke:#038048;stroke-width:1.0;"/><text fill="#000000" font-family="sans-serif" font-size="14" lengthAdjust="spacing" textLength="164" x="27" y="547.7295">aoaIdentificatie: string</text><ellipse cx="18" cy="560.6797" fill="none" rx="3" ry="3" style="stroke:#038048;stroke-width:1.0;"/><text fill="#000000" font-family="sans-serif" font-size="14" lengthAdjust="spacing" textLength="201" x="27" y="564.0264">wplWoonplaatsNaam: string</text><ellipse cx="18" cy="576.9766" fill="none" rx="3" ry="3" style="stroke:#038048;stroke-width:1.0;"/><text fill="#000000" font-family="sans-serif" font-size="14" lengthAdjust="spacing" textLength="250" x="27" y="580.3232">gorOpenbareRuimteNaam: integer</text><ellipse cx="18" cy="593.2734" fill="none" rx="3" ry="3" style="stroke:#038048;stroke-width:1.0;"/><text fill="#000000" font-family="sans-serif" font-size="14" lengthAdjust="spacing" textLength="143" x="27" y="596.6201">aoaPostcode: string</text><ellipse cx="18" cy="609.5703" fill="none" rx="3" ry="3" style="stroke:#038048;stroke-width:1.0;"/><text fill="#000000" font-family="sans-serif" font-size="14" lengthAdjust="spacing" textLength="165" x="27" y="612.917">aoaHuisnummer: string</text><ellipse cx="18" cy="625.8672" fill="none" rx="3" ry="3" style="stroke:#038048;stroke-width:1.0;"/><text fill="#000000" font-family="sans-serif" font-size="14" lengthAdjust="spacing" textLength="147" x="27" y="629.2139">aoaHuisletter: string</text><ellipse cx="18" cy="642.1641" fill="none" rx="3" ry="3" style="stroke:#038048;stroke-width:1.0;"/><text fill="#000000" font-family="sans-serif" font-size="14" lengthAdjust="spacing" textLength="247" x="27" y="645.5107">aoaHuisnummertoevoeging: string</text><ellipse cx="18" cy="658.4609" fill="none" rx="3" ry="3" style="stroke:#038048;stroke-width:1.0;"/><text fill="#000000" font-family="sans-serif" font-size="14" lengthAdjust="spacing" textLength="214" x="27" y="661.8076">inpLocatiebeschrijving: string</text><line style="stroke:#181818;stroke-width:0.5;" x1="8" x2="282" y1="669.1094" y2="669.1094"/></g><!--class Actor--><g id="elem_Actor"><rect codeLine="69" fill="#F1F1F1" height="80.5938" id="Actor" rx="2.5" ry="2.5" style="stroke:#181818;stroke-width:0.5;" width="177" x="318.5" y="539.4375"/><ellipse cx="382.75" cy="555.4375" fill="#ADD1B2" rx="11" ry="11" style="stroke:#181818;stroke-width:1.0;"/><path d="M385.0938,551.1094 C384.1563,550.6719 383.5625,550.5313 382.6875,550.5313 C380.0625,550.5313 378.0625,552.6094 378.0625,555.3281 L378.0625,556.4531 C378.0625,559.0313 380.1719,560.9219 383.0625,560.9219 C384.2813,560.9219 385.4375,560.625 386.1875,560.0781 C386.7656,559.6719 387.0938,559.2188 387.0938,558.8281 C387.0938,558.375 386.7031,557.9844 386.2344,557.9844 C386.0156,557.9844 385.8125,558.0625 385.625,558.25 C385.1719,558.7344 385.1719,558.7344 384.9844,558.8281 C384.5625,559.0938 383.875,559.2188 383.1094,559.2188 C381.0625,559.2188 379.7656,558.125 379.7656,556.4219 L379.7656,555.3281 C379.7656,553.5469 381.0156,552.2344 382.75,552.2344 C383.3281,552.2344 383.9375,552.3906 384.4063,552.6406 C384.8906,552.9219 385.0625,553.1406 385.1563,553.5469 C385.2188,553.9531 385.25,554.0781 385.3906,554.2031 C385.5313,554.3438 385.7656,554.4531 385.9844,554.4531 C386.25,554.4531 386.5156,554.3125 386.6875,554.0938 C386.7969,553.9375 386.8281,553.75 386.8281,553.3281 L386.8281,551.9063 C386.8281,551.4688 386.8125,551.3438 386.7188,551.1875 C386.5625,550.9219 386.2813,550.7813 385.9844,550.7813 C385.6875,550.7813 385.4844,550.875 385.2656,551.1875 L385.0938,551.1094 Z " fill="#000000"/><text fill="#000000" font-family="sans-serif" font-size="14" lengthAdjust="spacing" textLength="40" x="403.25" y="560.2842">Actor</text><line style="stroke:#181818;stroke-width:0.5;" x1="319.5" x2="494.5" y1="571.4375" y2="571.4375"/><ellipse cx="329.5" cy="585.0859" fill="none" rx="3" ry="3" style="stroke:#038048;stroke-width:1.0;"/><text fill="#000000" font-family="sans-serif" font-size="14" lengthAdjust="spacing" textLength="151" x="338.5" y="588.4326">klantcontactId: array</text><ellipse cx="329.5" cy="601.3828" fill="none" rx="3" ry="3" style="stroke:#038048;stroke-width:1.0;"/><text fill="#000000" font-family="sans-serif" font-size="14" lengthAdjust="spacing" textLength="90" x="338.5" y="604.7295">naam: string</text><line style="stroke:#181818;stroke-width:0.5;" x1="319.5" x2="494.5" y1="612.0313" y2="612.0313"/></g><!--class TaakIdentificatie--><g id="elem_TaakIdentificatie"><rect codeLine="73" fill="#F1F1F1" height="80.5938" id="TaakIdentificatie" rx="2.5" ry="2.5" style="stroke:#181818;stroke-width:0.5;" width="154" x="531" y="539.4375"/><ellipse cx="546" cy="555.4375" fill="#ADD1B2" rx="11" ry="11" style="stroke:#181818;stroke-width:1.0;"/><path d="M548.3438,551.1094 C547.4063,550.6719 546.8125,550.5313 545.9375,550.5313 C543.3125,550.5313 541.3125,552.6094 541.3125,555.3281 L541.3125,556.4531 C541.3125,559.0313 543.4219,560.9219 546.3125,560.9219 C547.5313,560.9219 548.6875,560.625 549.4375,560.0781 C550.0156,559.6719 550.3438,559.2188 550.3438,558.8281 C550.3438,558.375 549.9531,557.9844 549.4844,557.9844 C549.2656,557.9844 549.0625,558.0625 548.875,558.25 C548.4219,558.7344 548.4219,558.7344 548.2344,558.8281 C547.8125,559.0938 547.125,559.2188 546.3594,559.2188 C544.3125,559.2188 543.0156,558.125 543.0156,556.4219 L543.0156,555.3281 C543.0156,553.5469 544.2656,552.2344 546,552.2344 C546.5781,552.2344 547.1875,552.3906 547.6563,552.6406 C548.1406,552.9219 548.3125,553.1406 548.4063,553.5469 C548.4688,553.9531 548.5,554.0781 548.6406,554.2031 C548.7813,554.3438 549.0156,554.4531 549.2344,554.4531 C549.5,554.4531 549.7656,554.3125 549.9375,554.0938 C550.0469,553.9375 550.0781,553.75 550.0781,553.3281 L550.0781,551.9063 C550.0781,551.4688 550.0625,551.3438 549.9688,551.1875 C549.8125,550.9219 549.5313,550.7813 549.2344,550.7813 C548.9375,550.7813 548.7344,550.875 548.5156,551.1875 L548.3438,551.1094 Z " fill="#000000"/><text fill="#000000" font-family="sans-serif" font-size="14" lengthAdjust="spacing" textLength="122" x="560" y="560.2842">TaakIdentificatie</text><line style="stroke:#181818;stroke-width:0.5;" x1="532" x2="684" y1="571.4375" y2="571.4375"/><ellipse cx="542" cy="585.0859" fill="none" rx="3" ry="3" style="stroke:#038048;stroke-width:1.0;"/><text fill="#000000" font-family="sans-serif" font-size="14" lengthAdjust="spacing" textLength="85" x="551" y="588.4326">type: string</text><ellipse cx="542" cy="601.3828" fill="none" rx="3" ry="3" style="stroke:#038048;stroke-width:1.0;"/><text fill="#000000" font-family="sans-serif" font-size="14" lengthAdjust="spacing" textLength="88" x="551" y="604.7295">value: string</text><line style="stroke:#181818;stroke-width:0.5;" x1="532" x2="684" y1="612.0313" y2="612.0313"/></g><!--class Voorkeur--><g id="elem_Voorkeur"><rect codeLine="77" fill="#F1F1F1" height="80.5938" id="Voorkeur" rx="2.5" ry="2.5" style="stroke:#181818;stroke-width:0.5;" width="116" x="720" y="539.4375"/><ellipse cx="743.1" cy="555.4375" fill="#ADD1B2" rx="11" ry="11" style="stroke:#181818;stroke-width:1.0;"/><path d="M745.4438,551.1094 C744.5063,550.6719 743.9125,550.5313 743.0375,550.5313 C740.4125,550.5313 738.4125,552.6094 738.4125,555.3281 L738.4125,556.4531 C738.4125,559.0313 740.5219,560.9219 743.4125,560.9219 C744.6313,560.9219 745.7875,560.625 746.5375,560.0781 C747.1156,559.6719 747.4438,559.2188 747.4438,558.8281 C747.4438,558.375 747.0531,557.9844 746.5844,557.9844 C746.3656,557.9844 746.1625,558.0625 745.975,558.25 C745.5219,558.7344 745.5219,558.7344 745.3344,558.8281 C744.9125,559.0938 744.225,559.2188 743.4594,559.2188 C741.4125,559.2188 740.1156,558.125 740.1156,556.4219 L740.1156,555.3281 C740.1156,553.5469 741.3656,552.2344 743.1,552.2344 C743.6781,552.2344 744.2875,552.3906 744.7563,552.6406 C745.2406,552.9219 745.4125,553.1406 745.5063,553.5469 C745.5688,553.9531 745.6,554.0781 745.7406,554.2031 C745.8813,554.3438 746.1156,554.4531 746.3344,554.4531 C746.6,554.4531 746.8656,554.3125 747.0375,554.0938 C747.1469,553.9375 747.1781,553.75 747.1781,553.3281 L747.1781,551.9063 C747.1781,551.4688 747.1625,551.3438 747.0688,551.1875 C746.9125,550.9219 746.6313,550.7813 746.3344,550.7813 C746.0375,550.7813 745.8344,550.875 745.6156,551.1875 L745.4438,551.1094 Z " fill="#000000"/><text fill="#000000" font-family="sans-serif" font-size="14" lengthAdjust="spacing" textLength="66" x="758.9" y="560.2842">Voorkeur</text><line style="stroke:#181818;stroke-width:0.5;" x1="721" x2="835" y1="571.4375" y2="571.4375"/><ellipse cx="731" cy="585.0859" fill="none" rx="3" ry="3" style="stroke:#038048;stroke-width:1.0;"/><text fill="#000000" font-family="sans-serif" font-size="14" lengthAdjust="spacing" textLength="86" x="740" y="588.4326">code: string</text><ellipse cx="731" cy="601.3828" fill="none" rx="3" ry="3" style="stroke:#038048;stroke-width:1.0;"/><text fill="#000000" font-family="sans-serif" font-size="14" lengthAdjust="spacing" textLength="90" x="740" y="604.7295">naam: string</text><line style="stroke:#181818;stroke-width:0.5;" x1="721" x2="835" y1="612.0313" y2="612.0313"/></g><!--class Correspondentieadres--><g id="elem_Correspondentieadres"><rect codeLine="81" fill="#F1F1F1" height="276.1563" id="Correspondentieadres" rx="2.5" ry="2.5" style="stroke:#181818;stroke-width:0.5;" width="276" x="871" y="441.9375"/><ellipse cx="924.25" cy="457.9375" fill="#ADD1B2" rx="11" ry="11" style="stroke:#181818;stroke-width:1.0;"/><path d="M926.5938,453.6094 C925.6563,453.1719 925.0625,453.0313 924.1875,453.0313 C921.5625,453.0313 919.5625,455.1094 919.5625,457.8281 L919.5625,458.9531 C919.5625,461.5313 921.6719,463.4219 924.5625,463.4219 C925.7813,463.4219 926.9375,463.125 927.6875,462.5781 C928.2656,462.1719 928.5938,461.7188 928.5938,461.3281 C928.5938,460.875 928.2031,460.4844 927.7344,460.4844 C927.5156,460.4844 927.3125,460.5625 927.125,460.75 C926.6719,461.2344 926.6719,461.2344 926.4844,461.3281 C926.0625,461.5938 925.375,461.7188 924.6094,461.7188 C922.5625,461.7188 921.2656,460.625 921.2656,458.9219 L921.2656,457.8281 C921.2656,456.0469 922.5156,454.7344 924.25,454.7344 C924.8281,454.7344 925.4375,454.8906 925.9063,455.1406 C926.3906,455.4219 926.5625,455.6406 926.6563,456.0469 C926.7188,456.4531 926.75,456.5781 926.8906,456.7031 C927.0313,456.8438 927.2656,456.9531 927.4844,456.9531 C927.75,456.9531 928.0156,456.8125 928.1875,456.5938 C928.2969,456.4375 928.3281,456.25 928.3281,455.8281 L928.3281,454.4063 C928.3281,453.9688 928.3125,453.8438 928.2188,453.6875 C928.0625,453.4219 927.7813,453.2813 927.4844,453.2813 C927.1875,453.2813 926.9844,453.375 926.7656,453.6875 L926.5938,453.6094 Z " fill="#000000"/><text fill="#000000" font-family="sans-serif" font-size="14" lengthAdjust="spacing" textLength="161" x="944.75" y="462.7842">Correspondentieadres</text><line style="stroke:#181818;stroke-width:0.5;" x1="872" x2="1146" y1="473.9375" y2="473.9375"/><ellipse cx="882" cy="487.5859" fill="none" rx="3" ry="3" style="stroke:#038048;stroke-width:1.0;"/><text fill="#000000" font-family="sans-serif" font-size="14" lengthAdjust="spacing" textLength="235" x="891" y="490.9326">aanduidingBijHuisnummer: string</text><ellipse cx="882" cy="503.8828" fill="none" rx="3" ry="3" style="stroke:#038048;stroke-width:1.0;"/><text fill="#000000" font-family="sans-serif" font-size="14" lengthAdjust="spacing" textLength="213" x="891" y="507.2295">adresregelBuitenland1: string</text><ellipse cx="882" cy="520.1797" fill="none" rx="3" ry="3" style="stroke:#038048;stroke-width:1.0;"/><text fill="#000000" font-family="sans-serif" font-size="14" lengthAdjust="spacing" textLength="212" x="891" y="523.5264">adresregelBuitenland2: string</text><ellipse cx="882" cy="536.4766" fill="none" rx="3" ry="3" style="stroke:#038048;stroke-width:1.0;"/><text fill="#000000" font-family="sans-serif" font-size="14" lengthAdjust="spacing" textLength="213" x="891" y="539.8232">adresregelBuitenland3: string</text><ellipse cx="882" cy="552.7734" fill="none" rx="3" ry="3" style="stroke:#038048;stroke-width:1.0;"/><text fill="#000000" font-family="sans-serif" font-size="14" lengthAdjust="spacing" textLength="190" x="891" y="556.1201">antwoordnummer: integer</text><ellipse cx="882" cy="569.0703" fill="none" rx="3" ry="3" style="stroke:#038048;stroke-width:1.0;"/><text fill="#000000" font-family="sans-serif" font-size="14" lengthAdjust="spacing" textLength="121" x="891" y="572.417">huisletter: string</text><ellipse cx="882" cy="585.3672" fill="none" rx="3" ry="3" style="stroke:#038048;stroke-width:1.0;"/><text fill="#000000" font-family="sans-serif" font-size="14" lengthAdjust="spacing" textLength="150" x="891" y="588.7139">huisnummer: integer</text><ellipse cx="882" cy="601.6641" fill="none" rx="3" ry="3" style="stroke:#038048;stroke-width:1.0;"/><text fill="#000000" font-family="sans-serif" font-size="14" lengthAdjust="spacing" textLength="221" x="891" y="605.0107">huisnummertoevoeging: string</text><ellipse cx="882" cy="617.9609" fill="none" rx="3" ry="3" style="stroke:#038048;stroke-width:1.0;"/><text fill="#000000" font-family="sans-serif" font-size="14" lengthAdjust="spacing" textLength="86" x="891" y="621.3076">land: object</text><ellipse cx="882" cy="634.2578" fill="none" rx="3" ry="3" style="stroke:#038048;stroke-width:1.0;"/><text fill="#000000" font-family="sans-serif" font-size="14" lengthAdjust="spacing" textLength="180" x="891" y="637.6045">postbusnummer: integer</text><ellipse cx="882" cy="650.5547" fill="none" rx="3" ry="3" style="stroke:#038048;stroke-width:1.0;"/><text fill="#000000" font-family="sans-serif" font-size="14" lengthAdjust="spacing" textLength="119" x="891" y="653.9014">postcode: string</text><ellipse cx="882" cy="666.8516" fill="none" rx="3" ry="3" style="stroke:#038048;stroke-width:1.0;"/><text fill="#000000" font-family="sans-serif" font-size="14" lengthAdjust="spacing" textLength="250" x="891" y="670.1982">soortCorrespondentieadres: string</text><ellipse cx="882" cy="683.1484" fill="none" rx="3" ry="3" style="stroke:#038048;stroke-width:1.0;"/><text fill="#000000" font-family="sans-serif" font-size="14" lengthAdjust="spacing" textLength="94" x="891" y="686.4951">straat: string</text><ellipse cx="882" cy="699.4453" fill="none" rx="3" ry="3" style="stroke:#038048;stroke-width:1.0;"/><text fill="#000000" font-family="sans-serif" font-size="14" lengthAdjust="spacing" textLength="133" x="891" y="702.792">woonplaats: string</text><line style="stroke:#181818;stroke-width:0.5;" x1="872" x2="1146" y1="710.0938" y2="710.0938"/></g><!--class Medewerker--><g id="elem_Medewerker"><rect codeLine="97" fill="#F1F1F1" height="162.0781" id="Medewerker" rx="2.5" ry="2.5" style="stroke:#181818;stroke-width:0.5;" width="199" x="45.5" y="818.9375"/><ellipse cx="96.25" cy="834.9375" fill="#ADD1B2" rx="11" ry="11" style="stroke:#181818;stroke-width:1.0;"/><path d="M98.5938,830.6094 C97.6563,830.1719 97.0625,830.0313 96.1875,830.0313 C93.5625,830.0313 91.5625,832.1094 91.5625,834.8281 L91.5625,835.9531 C91.5625,838.5313 93.6719,840.4219 96.5625,840.4219 C97.7813,840.4219 98.9375,840.125 99.6875,839.5781 C100.2656,839.1719 100.5938,838.7188 100.5938,838.3281 C100.5938,837.875 100.2031,837.4844 99.7344,837.4844 C99.5156,837.4844 99.3125,837.5625 99.125,837.75 C98.6719,838.2344 98.6719,838.2344 98.4844,838.3281 C98.0625,838.5938 97.375,838.7188 96.6094,838.7188 C94.5625,838.7188 93.2656,837.625 93.2656,835.9219 L93.2656,834.8281 C93.2656,833.0469 94.5156,831.7344 96.25,831.7344 C96.8281,831.7344 97.4375,831.8906 97.9063,832.1406 C98.3906,832.4219 98.5625,832.6406 98.6563,833.0469 C98.7188,833.4531 98.75,833.5781 98.8906,833.7031 C99.0313,833.8438 99.2656,833.9531 99.4844,833.9531 C99.75,833.9531 100.0156,833.8125 100.1875,833.5938 C100.2969,833.4375 100.3281,833.25 100.3281,832.8281 L100.3281,831.4063 C100.3281,830.9688 100.3125,830.8438 100.2188,830.6875 C100.0625,830.4219 99.7813,830.2813 99.4844,830.2813 C99.1875,830.2813 98.9844,830.375 98.7656,830.6875 L98.5938,830.6094 Z " fill="#000000"/><text fill="#000000" font-family="sans-serif" font-size="14" lengthAdjust="spacing" textLength="89" x="116.75" y="839.7842">Medewerker</text><line style="stroke:#181818;stroke-width:0.5;" x1="46.5" x2="243.5" y1="850.9375" y2="850.9375"/><ellipse cx="56.5" cy="864.5859" fill="none" rx="3" ry="3" style="stroke:#038048;stroke-width:1.0;"/><text fill="#000000" font-family="sans-serif" font-size="14" lengthAdjust="spacing" textLength="151" x="65.5" y="867.9326">klantcontactId: array</text><ellipse cx="56.5" cy="880.8828" fill="none" rx="3" ry="3" style="stroke:#038048;stroke-width:1.0;"/><text fill="#000000" font-family="sans-serif" font-size="14" lengthAdjust="spacing" textLength="90" x="65.5" y="884.2295">naam: string</text><ellipse cx="56.5" cy="897.1797" fill="none" rx="3" ry="3" style="stroke:#038048;stroke-width:1.0;"/><text fill="#000000" font-family="sans-serif" font-size="14" lengthAdjust="spacing" textLength="127" x="65.5" y="900.5264">eMailadres: string</text><ellipse cx="56.5" cy="913.4766" fill="none" rx="3" ry="3" style="stroke:#038048;stroke-width:1.0;"/><text fill="#000000" font-family="sans-serif" font-size="14" lengthAdjust="spacing" textLength="112" x="65.5" y="916.8232">externId: string</text><ellipse cx="56.5" cy="929.7734" fill="none" rx="3" ry="3" style="stroke:#038048;stroke-width:1.0;"/><text fill="#000000" font-family="sans-serif" font-size="14" lengthAdjust="spacing" textLength="160" x="65.5" y="933.1201">externRegister: string</text><ellipse cx="56.5" cy="946.0703" fill="none" rx="3" ry="3" style="stroke:#038048;stroke-width:1.0;"/><text fill="#000000" font-family="sans-serif" font-size="14" lengthAdjust="spacing" textLength="102" x="65.5" y="949.417">functie: string</text><ellipse cx="56.5" cy="962.3672" fill="none" rx="3" ry="3" style="stroke:#038048;stroke-width:1.0;"/><text fill="#000000" font-family="sans-serif" font-size="14" lengthAdjust="spacing" textLength="173" x="65.5" y="965.7139">telefoonnummer: string</text><line style="stroke:#181818;stroke-width:0.5;" x1="46.5" x2="243.5" y1="973.0156" y2="973.0156"/></g><!--class Bericht--><g id="elem_Bericht"><rect codeLine="106" fill="#F1F1F1" height="210.9688" id="Bericht" rx="2.5" ry="2.5" style="stroke:#181818;stroke-width:0.5;" width="314" x="280" y="794.4375"/><ellipse cx="406.25" cy="810.4375" fill="#ADD1B2" rx="11" ry="11" style="stroke:#181818;stroke-width:1.0;"/><path d="M408.5938,806.1094 C407.6563,805.6719 407.0625,805.5313 406.1875,805.5313 C403.5625,805.5313 401.5625,807.6094 401.5625,810.3281 L401.5625,811.4531 C401.5625,814.0313 403.6719,815.9219 406.5625,815.9219 C407.7813,815.9219 408.9375,815.625 409.6875,815.0781 C410.2656,814.6719 410.5938,814.2188 410.5938,813.8281 C410.5938,813.375 410.2031,812.9844 409.7344,812.9844 C409.5156,812.9844 409.3125,813.0625 409.125,813.25 C408.6719,813.7344 408.6719,813.7344 408.4844,813.8281 C408.0625,814.0938 407.375,814.2188 406.6094,814.2188 C404.5625,814.2188 403.2656,813.125 403.2656,811.4219 L403.2656,810.3281 C403.2656,808.5469 404.5156,807.2344 406.25,807.2344 C406.8281,807.2344 407.4375,807.3906 407.9063,807.6406 C408.3906,807.9219 408.5625,808.1406 408.6563,808.5469 C408.7188,808.9531 408.75,809.0781 408.8906,809.2031 C409.0313,809.3438 409.2656,809.4531 409.4844,809.4531 C409.75,809.4531 410.0156,809.3125 410.1875,809.0938 C410.2969,808.9375 410.3281,808.75 410.3281,808.3281 L410.3281,806.9063 C410.3281,806.4688 410.3125,806.3438 410.2188,806.1875 C410.0625,805.9219 409.7813,805.7813 409.4844,805.7813 C409.1875,805.7813 408.9844,805.875 408.7656,806.1875 L408.5938,806.1094 Z " fill="#000000"/><text fill="#000000" font-family="sans-serif" font-size="14" lengthAdjust="spacing" textLength="53" x="426.75" y="815.2842">Bericht</text><line style="stroke:#181818;stroke-width:0.5;" x1="281" x2="593" y1="826.4375" y2="826.4375"/><ellipse cx="291" cy="840.0859" fill="none" rx="3" ry="3" style="stroke:#038048;stroke-width:1.0;"/><text fill="#000000" font-family="sans-serif" font-size="14" lengthAdjust="spacing" textLength="64" x="300" y="843.4326">id: string</text><ellipse cx="291" cy="856.3828" fill="none" rx="3" ry="3" style="stroke:#038048;stroke-width:1.0;"/><text fill="#000000" font-family="sans-serif" font-size="14" lengthAdjust="spacing" textLength="136" x="300" y="859.7295">gebruikerID: string</text><ellipse cx="291" cy="872.6797" fill="none" rx="3" ry="3" style="stroke:#038048;stroke-width:1.0;"/><text fill="#000000" font-family="sans-serif" font-size="14" lengthAdjust="spacing" textLength="161" x="300" y="876.0264">soortGebruiker: string</text><ellipse cx="291" cy="888.9766" fill="none" rx="3" ry="3" style="stroke:#038048;stroke-width:1.0;"/><text fill="#000000" font-family="sans-serif" font-size="14" lengthAdjust="spacing" textLength="129" x="300" y="892.3232">onderwerp: string</text><ellipse cx="291" cy="905.2734" fill="none" rx="3" ry="3" style="stroke:#038048;stroke-width:1.0;"/><text fill="#000000" font-family="sans-serif" font-size="14" lengthAdjust="spacing" textLength="143" x="300" y="908.6201">berichttekst: string</text><ellipse cx="291" cy="921.5703" fill="none" rx="3" ry="3" style="stroke:#038048;stroke-width:1.0;"/><text fill="#000000" font-family="sans-serif" font-size="14" lengthAdjust="spacing" textLength="125" x="300" y="924.917">referentie: string</text><ellipse cx="291" cy="937.8672" fill="none" rx="3" ry="3" style="stroke:#038048;stroke-width:1.0;"/><text fill="#000000" font-family="sans-serif" font-size="14" lengthAdjust="spacing" textLength="212" x="300" y="941.2139">handelingsPerspectief: string</text><ellipse cx="291" cy="954.1641" fill="none" rx="3" ry="3" style="stroke:#038048;stroke-width:1.0;"/><text fill="#000000" font-family="sans-serif" font-size="14" lengthAdjust="spacing" textLength="288" x="300" y="957.5107">eindDatumHandelingsTermijn: datetime</text><ellipse cx="291" cy="970.4609" fill="none" rx="3" ry="3" style="stroke:#038048;stroke-width:1.0;"/><text fill="#000000" font-family="sans-serif" font-size="14" lengthAdjust="spacing" textLength="102" x="300" y="973.8076">bijlagen: array</text><ellipse cx="291" cy="986.7578" fill="none" rx="3" ry="3" style="stroke:#038048;stroke-width:1.0;"/><text fill="#000000" font-family="sans-serif" font-size="14" lengthAdjust="spacing" textLength="131" x="300" y="990.1045">geopend: boolean</text><line style="stroke:#181818;stroke-width:0.5;" x1="281" x2="593" y1="997.4063" y2="997.4063"/></g><!--class Klantcontact--><g id="elem_Klantcontact"><rect codeLine="118" fill="#F1F1F1" height="243.5625" id="Klantcontact" rx="2.5" ry="2.5" style="stroke:#181818;stroke-width:0.5;" width="248" x="629" y="777.9375"/><ellipse cx="701.75" cy="793.9375" fill="#ADD1B2" rx="11" ry="11" style="stroke:#181818;stroke-width:1.0;"/><path d="M704.0938,789.6094 C703.1563,789.1719 702.5625,789.0313 701.6875,789.0313 C699.0625,789.0313 697.0625,791.1094 697.0625,793.8281 L697.0625,794.9531 C697.0625,797.5313 699.1719,799.4219 702.0625,799.4219 C703.2813,799.4219 704.4375,799.125 705.1875,798.5781 C705.7656,798.1719 706.0938,797.7188 706.0938,797.3281 C706.0938,796.875 705.7031,796.4844 705.2344,796.4844 C705.0156,796.4844 704.8125,796.5625 704.625,796.75 C704.1719,797.2344 704.1719,797.2344 703.9844,797.3281 C703.5625,797.5938 702.875,797.7188 702.1094,797.7188 C700.0625,797.7188 698.7656,796.625 698.7656,794.9219 L698.7656,793.8281 C698.7656,792.0469 700.0156,790.7344 701.75,790.7344 C702.3281,790.7344 702.9375,790.8906 703.4063,791.1406 C703.8906,791.4219 704.0625,791.6406 704.1563,792.0469 C704.2188,792.4531 704.25,792.5781 704.3906,792.7031 C704.5313,792.8438 704.7656,792.9531 704.9844,792.9531 C705.25,792.9531 705.5156,792.8125 705.6875,792.5938 C705.7969,792.4375 705.8281,792.25 705.8281,791.8281 L705.8281,790.4063 C705.8281,789.9688 705.8125,789.8438 705.7188,789.6875 C705.5625,789.4219 705.2813,789.2813 704.9844,789.2813 C704.6875,789.2813 704.4844,789.375 704.2656,789.6875 L704.0938,789.6094 Z " fill="#000000"/><text fill="#000000" font-family="sans-serif" font-size="14" lengthAdjust="spacing" textLength="94" x="722.25" y="798.7842">Klantcontact</text><line style="stroke:#181818;stroke-width:0.5;" x1="630" x2="876" y1="809.9375" y2="809.9375"/><ellipse cx="640" cy="823.5859" fill="none" rx="3" ry="3" style="stroke:#038048;stroke-width:1.0;"/><text fill="#000000" font-family="sans-serif" font-size="14" lengthAdjust="spacing" textLength="102" x="649" y="826.9326">actorId: string</text><ellipse cx="640" cy="839.8828" fill="none" rx="3" ry="3" style="stroke:#038048;stroke-width:1.0;"/><text fill="#000000" font-family="sans-serif" font-size="14" lengthAdjust="spacing" textLength="112" x="649" y="843.2295">bijlageId: string</text><ellipse cx="640" cy="856.1797" fill="none" rx="3" ry="3" style="stroke:#038048;stroke-width:1.0;"/><text fill="#000000" font-family="sans-serif" font-size="14" lengthAdjust="spacing" textLength="211" x="649" y="859.5264">gaatOverInterneTaakId: array</text><ellipse cx="640" cy="872.4766" fill="none" rx="3" ry="3" style="stroke:#038048;stroke-width:1.0;"/><text fill="#000000" font-family="sans-serif" font-size="14" lengthAdjust="spacing" textLength="196" x="649" y="875.8232">geregistreerdOp: datetime</text><ellipse cx="640" cy="888.7734" fill="none" rx="3" ry="3" style="stroke:#038048;stroke-width:1.0;"/><text fill="#000000" font-family="sans-serif" font-size="14" lengthAdjust="spacing" textLength="222" x="649" y="892.1201">indicatieContactMislukt: string</text><ellipse cx="640" cy="905.0703" fill="none" rx="3" ry="3" style="stroke:#038048;stroke-width:1.0;"/><text fill="#000000" font-family="sans-serif" font-size="14" lengthAdjust="spacing" textLength="99" x="649" y="908.417">inhoud: string</text><ellipse cx="640" cy="921.3672" fill="none" rx="3" ry="3" style="stroke:#038048;stroke-width:1.0;"/><text fill="#000000" font-family="sans-serif" font-size="14" lengthAdjust="spacing" textLength="160" x="649" y="924.7139">initiatiefnemer: string</text><ellipse cx="640" cy="937.6641" fill="none" rx="3" ry="3" style="stroke:#038048;stroke-width:1.0;"/><text fill="#000000" font-family="sans-serif" font-size="14" lengthAdjust="spacing" textLength="218" x="649" y="941.0107">interneTaakOntstaanUit: array</text><ellipse cx="640" cy="953.9609" fill="none" rx="3" ry="3" style="stroke:#038048;stroke-width:1.0;"/><text fill="#000000" font-family="sans-serif" font-size="14" lengthAdjust="spacing" textLength="102" x="649" y="957.3076">kanaal: object</text><ellipse cx="640" cy="970.2578" fill="none" rx="3" ry="3" style="stroke:#038048;stroke-width:1.0;"/><text fill="#000000" font-family="sans-serif" font-size="14" lengthAdjust="spacing" textLength="122" x="649" y="973.6045">nummer: integer</text><ellipse cx="640" cy="986.5547" fill="none" rx="3" ry="3" style="stroke:#038048;stroke-width:1.0;"/><text fill="#000000" font-family="sans-serif" font-size="14" lengthAdjust="spacing" textLength="129" x="649" y="989.9014">onderwerp: string</text><ellipse cx="640" cy="1002.8516" fill="none" rx="3" ry="3" style="stroke:#038048;stroke-width:1.0;"/><text fill="#000000" font-family="sans-serif" font-size="14" lengthAdjust="spacing" textLength="212" x="649" y="1006.1982">plaatsgevondenOp: datetime</text><line style="stroke:#181818;stroke-width:0.5;" x1="630" x2="876" y1="1013.5" y2="1013.5"/></g><!--class Bezoekadres--><g id="elem_Bezoekadres"><rect codeLine="132" fill="#F1F1F1" height="243.5625" id="Bezoekadres" rx="2.5" ry="2.5" style="stroke:#181818;stroke-width:0.5;" width="261" x="912.5" y="777.9375"/><ellipse cx="992.25" cy="793.9375" fill="#ADD1B2" rx="11" ry="11" style="stroke:#181818;stroke-width:1.0;"/><path d="M994.5938,789.6094 C993.6563,789.1719 993.0625,789.0313 992.1875,789.0313 C989.5625,789.0313 987.5625,791.1094 987.5625,793.8281 L987.5625,794.9531 C987.5625,797.5313 989.6719,799.4219 992.5625,799.4219 C993.7813,799.4219 994.9375,799.125 995.6875,798.5781 C996.2656,798.1719 996.5938,797.7188 996.5938,797.3281 C996.5938,796.875 996.2031,796.4844 995.7344,796.4844 C995.5156,796.4844 995.3125,796.5625 995.125,796.75 C994.6719,797.2344 994.6719,797.2344 994.4844,797.3281 C994.0625,797.5938 993.375,797.7188 992.6094,797.7188 C990.5625,797.7188 989.2656,796.625 989.2656,794.9219 L989.2656,793.8281 C989.2656,792.0469 990.5156,790.7344 992.25,790.7344 C992.8281,790.7344 993.4375,790.8906 993.9063,791.1406 C994.3906,791.4219 994.5625,791.6406 994.6563,792.0469 C994.7188,792.4531 994.75,792.5781 994.8906,792.7031 C995.0313,792.8438 995.2656,792.9531 995.4844,792.9531 C995.75,792.9531 996.0156,792.8125 996.1875,792.5938 C996.2969,792.4375 996.3281,792.25 996.3281,791.8281 L996.3281,790.4063 C996.3281,789.9688 996.3125,789.8438 996.2188,789.6875 C996.0625,789.4219 995.7813,789.2813 995.4844,789.2813 C995.1875,789.2813 994.9844,789.375 994.7656,789.6875 L994.5938,789.6094 Z " fill="#000000"/><text fill="#000000" font-family="sans-serif" font-size="14" lengthAdjust="spacing" textLength="93" x="1012.75" y="798.7842">Bezoekadres</text><line style="stroke:#181818;stroke-width:0.5;" x1="913.5" x2="1172.5" y1="809.9375" y2="809.9375"/><ellipse cx="923.5" cy="823.5859" fill="none" rx="3" ry="3" style="stroke:#038048;stroke-width:1.0;"/><text fill="#000000" font-family="sans-serif" font-size="14" lengthAdjust="spacing" textLength="235" x="932.5" y="826.9326">aanduidingBijHuisnummer: string</text><ellipse cx="923.5" cy="839.8828" fill="none" rx="3" ry="3" style="stroke:#038048;stroke-width:1.0;"/><text fill="#000000" font-family="sans-serif" font-size="14" lengthAdjust="spacing" textLength="213" x="932.5" y="843.2295">adresregelBuitenland1: string</text><ellipse cx="923.5" cy="856.1797" fill="none" rx="3" ry="3" style="stroke:#038048;stroke-width:1.0;"/><text fill="#000000" font-family="sans-serif" font-size="14" lengthAdjust="spacing" textLength="212" x="932.5" y="859.5264">adresregelBuitenland2: string</text><ellipse cx="923.5" cy="872.4766" fill="none" rx="3" ry="3" style="stroke:#038048;stroke-width:1.0;"/><text fill="#000000" font-family="sans-serif" font-size="14" lengthAdjust="spacing" textLength="213" x="932.5" y="875.8232">adresregelBuitenland3: string</text><ellipse cx="923.5" cy="888.7734" fill="none" rx="3" ry="3" style="stroke:#038048;stroke-width:1.0;"/><text fill="#000000" font-family="sans-serif" font-size="14" lengthAdjust="spacing" textLength="121" x="932.5" y="892.1201">huisletter: string</text><ellipse cx="923.5" cy="905.0703" fill="none" rx="3" ry="3" style="stroke:#038048;stroke-width:1.0;"/><text fill="#000000" font-family="sans-serif" font-size="14" lengthAdjust="spacing" textLength="150" x="932.5" y="908.417">huisnummer: integer</text><ellipse cx="923.5" cy="921.3672" fill="none" rx="3" ry="3" style="stroke:#038048;stroke-width:1.0;"/><text fill="#000000" font-family="sans-serif" font-size="14" lengthAdjust="spacing" textLength="221" x="932.5" y="924.7139">huisnummertoevoeging: string</text><ellipse cx="923.5" cy="937.6641" fill="none" rx="3" ry="3" style="stroke:#038048;stroke-width:1.0;"/><text fill="#000000" font-family="sans-serif" font-size="14" lengthAdjust="spacing" textLength="86" x="932.5" y="941.0107">land: object</text><ellipse cx="923.5" cy="953.9609" fill="none" rx="3" ry="3" style="stroke:#038048;stroke-width:1.0;"/><text fill="#000000" font-family="sans-serif" font-size="14" lengthAdjust="spacing" textLength="119" x="932.5" y="957.3076">postcode: string</text><ellipse cx="923.5" cy="970.2578" fill="none" rx="3" ry="3" style="stroke:#038048;stroke-width:1.0;"/><text fill="#000000" font-family="sans-serif" font-size="14" lengthAdjust="spacing" textLength="182" x="932.5" y="973.6045">soortBezoekadres: string</text><ellipse cx="923.5" cy="986.5547" fill="none" rx="3" ry="3" style="stroke:#038048;stroke-width:1.0;"/><text fill="#000000" font-family="sans-serif" font-size="14" lengthAdjust="spacing" textLength="94" x="932.5" y="989.9014">straat: string</text><ellipse cx="923.5" cy="1002.8516" fill="none" rx="3" ry="3" style="stroke:#038048;stroke-width:1.0;"/><text fill="#000000" font-family="sans-serif" font-size="14" lengthAdjust="spacing" textLength="133" x="932.5" y="1006.1982">woonplaats: string</text><line style="stroke:#181818;stroke-width:0.5;" x1="913.5" x2="1172.5" y1="1013.5" y2="1013.5"/></g><!--class OrganisatorischeEenheid--><g id="elem_OrganisatorischeEenheid"><rect codeLine="146" fill="#F1F1F1" height="178.375" id="OrganisatorischeEenheid" rx="2.5" ry="2.5" style="stroke:#181818;stroke-width:0.5;" width="211" x="1208.5" y="810.9375"/><ellipse cx="1223.5" cy="826.9375" fill="#ADD1B2" rx="11" ry="11" style="stroke:#181818;stroke-width:1.0;"/><path d="M1225.8438,822.6094 C1224.9063,822.1719 1224.3125,822.0313 1223.4375,822.0313 C1220.8125,822.0313 1218.8125,824.1094 1218.8125,826.8281 L1218.8125,827.9531 C1218.8125,830.5313 1220.9219,832.4219 1223.8125,832.4219 C1225.0313,832.4219 1226.1875,832.125 1226.9375,831.5781 C1227.5156,831.1719 1227.8438,830.7188 1227.8438,830.3281 C1227.8438,829.875 1227.4531,829.4844 1226.9844,829.4844 C1226.7656,829.4844 1226.5625,829.5625 1226.375,829.75 C1225.9219,830.2344 1225.9219,830.2344 1225.7344,830.3281 C1225.3125,830.5938 1224.625,830.7188 1223.8594,830.7188 C1221.8125,830.7188 1220.5156,829.625 1220.5156,827.9219 L1220.5156,826.8281 C1220.5156,825.0469 1221.7656,823.7344 1223.5,823.7344 C1224.0781,823.7344 1224.6875,823.8906 1225.1563,824.1406 C1225.6406,824.4219 1225.8125,824.6406 1225.9063,825.0469 C1225.9688,825.4531 1226,825.5781 1226.1406,825.7031 C1226.2813,825.8438 1226.5156,825.9531 1226.7344,825.9531 C1227,825.9531 1227.2656,825.8125 1227.4375,825.5938 C1227.5469,825.4375 1227.5781,825.25 1227.5781,824.8281 L1227.5781,823.4063 C1227.5781,822.9688 1227.5625,822.8438 1227.4688,822.6875 C1227.3125,822.4219 1227.0313,822.2813 1226.7344,822.2813 C1226.4375,822.2813 1226.2344,822.375 1226.0156,822.6875 L1225.8438,822.6094 Z " fill="#000000"/><text fill="#000000" font-family="sans-serif" font-size="14" lengthAdjust="spacing" textLength="179" x="1237.5" y="831.7842">OrganisatorischeEenheid</text><line style="stroke:#181818;stroke-width:0.5;" x1="1209.5" x2="1418.5" y1="842.9375" y2="842.9375"/><ellipse cx="1219.5" cy="856.5859" fill="none" rx="3" ry="3" style="stroke:#038048;stroke-width:1.0;"/><text fill="#000000" font-family="sans-serif" font-size="14" lengthAdjust="spacing" textLength="151" x="1228.5" y="859.9326">klantcontactId: array</text><ellipse cx="1219.5" cy="872.8828" fill="none" rx="3" ry="3" style="stroke:#038048;stroke-width:1.0;"/><text fill="#000000" font-family="sans-serif" font-size="14" lengthAdjust="spacing" textLength="90" x="1228.5" y="876.2295">naam: string</text><ellipse cx="1219.5" cy="889.1797" fill="none" rx="3" ry="3" style="stroke:#038048;stroke-width:1.0;"/><text fill="#000000" font-family="sans-serif" font-size="14" lengthAdjust="spacing" textLength="127" x="1228.5" y="892.5264">eMailadres: string</text><ellipse cx="1219.5" cy="905.4766" fill="none" rx="3" ry="3" style="stroke:#038048;stroke-width:1.0;"/><text fill="#000000" font-family="sans-serif" font-size="14" lengthAdjust="spacing" textLength="112" x="1228.5" y="908.8232">externId: string</text><ellipse cx="1219.5" cy="921.7734" fill="none" rx="3" ry="3" style="stroke:#038048;stroke-width:1.0;"/><text fill="#000000" font-family="sans-serif" font-size="14" lengthAdjust="spacing" textLength="160" x="1228.5" y="925.1201">externRegister: string</text><ellipse cx="1219.5" cy="938.0703" fill="none" rx="3" ry="3" style="stroke:#038048;stroke-width:1.0;"/><text fill="#000000" font-family="sans-serif" font-size="14" lengthAdjust="spacing" textLength="133" x="1228.5" y="941.417">faxnummer: string</text><ellipse cx="1219.5" cy="954.3672" fill="none" rx="3" ry="3" style="stroke:#038048;stroke-width:1.0;"/><text fill="#000000" font-family="sans-serif" font-size="14" lengthAdjust="spacing" textLength="142" x="1228.5" y="957.7139">omschrijving: string</text><ellipse cx="1219.5" cy="970.6641" fill="none" rx="3" ry="3" style="stroke:#038048;stroke-width:1.0;"/><text fill="#000000" font-family="sans-serif" font-size="14" lengthAdjust="spacing" textLength="173" x="1228.5" y="974.0107">telefoonnummer: string</text><line style="stroke:#181818;stroke-width:0.5;" x1="1209.5" x2="1418.5" y1="981.3125" y2="981.3125"/></g><!--class DigitaalAdres--><g id="elem_DigitaalAdres"><rect codeLine="156" fill="#F1F1F1" height="96.8906" id="DigitaalAdres" rx="2.5" ry="2.5" style="stroke:#181818;stroke-width:0.5;" width="216" x="37" y="1146.9375"/><ellipse cx="92.75" cy="1162.9375" fill="#ADD1B2" rx="11" ry="11" style="stroke:#181818;stroke-width:1.0;"/><path d="M95.0938,1158.6094 C94.1563,1158.1719 93.5625,1158.0313 92.6875,1158.0313 C90.0625,1158.0313 88.0625,1160.1094 88.0625,1162.8281 L88.0625,1163.9531 C88.0625,1166.5313 90.1719,1168.4219 93.0625,1168.4219 C94.2813,1168.4219 95.4375,1168.125 96.1875,1167.5781 C96.7656,1167.1719 97.0938,1166.7188 97.0938,1166.3281 C97.0938,1165.875 96.7031,1165.4844 96.2344,1165.4844 C96.0156,1165.4844 95.8125,1165.5625 95.625,1165.75 C95.1719,1166.2344 95.1719,1166.2344 94.9844,1166.3281 C94.5625,1166.5938 93.875,1166.7188 93.1094,1166.7188 C91.0625,1166.7188 89.7656,1165.625 89.7656,1163.9219 L89.7656,1162.8281 C89.7656,1161.0469 91.0156,1159.7344 92.75,1159.7344 C93.3281,1159.7344 93.9375,1159.8906 94.4063,1160.1406 C94.8906,1160.4219 95.0625,1160.6406 95.1563,1161.0469 C95.2188,1161.4531 95.25,1161.5781 95.3906,1161.7031 C95.5313,1161.8438 95.7656,1161.9531 95.9844,1161.9531 C96.25,1161.9531 96.5156,1161.8125 96.6875,1161.5938 C96.7969,1161.4375 96.8281,1161.25 96.8281,1160.8281 L96.8281,1159.4063 C96.8281,1158.9688 96.8125,1158.8438 96.7188,1158.6875 C96.5625,1158.4219 96.2813,1158.2813 95.9844,1158.2813 C95.6875,1158.2813 95.4844,1158.375 95.2656,1158.6875 L95.0938,1158.6094 Z " fill="#000000"/><text fill="#000000" font-family="sans-serif" font-size="14" lengthAdjust="spacing" textLength="96" x="113.25" y="1167.7842">DigitaalAdres</text><line style="stroke:#181818;stroke-width:0.5;" x1="38" x2="252" y1="1178.9375" y2="1178.9375"/><ellipse cx="48" cy="1192.5859" fill="none" rx="3" ry="3" style="stroke:#038048;stroke-width:1.0;"/><text fill="#000000" font-family="sans-serif" font-size="14" lengthAdjust="spacing" textLength="90" x="57" y="1195.9326">adres: string</text><ellipse cx="48" cy="1208.8828" fill="none" rx="3" ry="3" style="stroke:#038048;stroke-width:1.0;"/><text fill="#000000" font-family="sans-serif" font-size="14" lengthAdjust="spacing" textLength="142" x="57" y="1212.2295">omschrijving: string</text><ellipse cx="48" cy="1225.1797" fill="none" rx="3" ry="3" style="stroke:#038048;stroke-width:1.0;"/><text fill="#000000" font-family="sans-serif" font-size="14" lengthAdjust="spacing" textLength="190" x="57" y="1228.5264">soortDigitaalAdres: object</text><line style="stroke:#181818;stroke-width:0.5;" x1="38" x2="252" y1="1235.8281" y2="1235.8281"/></g><!--class Land--><g id="elem_Land"><rect codeLine="161" fill="#F1F1F1" height="113.1875" id="Land" rx="2.5" ry="2.5" style="stroke:#181818;stroke-width:0.5;" width="203" x="288.5" y="1138.9375"/><ellipse cx="368.75" cy="1154.9375" fill="#ADD1B2" rx="11" ry="11" style="stroke:#181818;stroke-width:1.0;"/><path d="M371.0938,1150.6094 C370.1563,1150.1719 369.5625,1150.0313 368.6875,1150.0313 C366.0625,1150.0313 364.0625,1152.1094 364.0625,1154.8281 L364.0625,1155.9531 C364.0625,1158.5313 366.1719,1160.4219 369.0625,1160.4219 C370.2813,1160.4219 371.4375,1160.125 372.1875,1159.5781 C372.7656,1159.1719 373.0938,1158.7188 373.0938,1158.3281 C373.0938,1157.875 372.7031,1157.4844 372.2344,1157.4844 C372.0156,1157.4844 371.8125,1157.5625 371.625,1157.75 C371.1719,1158.2344 371.1719,1158.2344 370.9844,1158.3281 C370.5625,1158.5938 369.875,1158.7188 369.1094,1158.7188 C367.0625,1158.7188 365.7656,1157.625 365.7656,1155.9219 L365.7656,1154.8281 C365.7656,1153.0469 367.0156,1151.7344 368.75,1151.7344 C369.3281,1151.7344 369.9375,1151.8906 370.4063,1152.1406 C370.8906,1152.4219 371.0625,1152.6406 371.1563,1153.0469 C371.2188,1153.4531 371.25,1153.5781 371.3906,1153.7031 C371.5313,1153.8438 371.7656,1153.9531 371.9844,1153.9531 C372.25,1153.9531 372.5156,1153.8125 372.6875,1153.5938 C372.7969,1153.4375 372.8281,1153.25 372.8281,1152.8281 L372.8281,1151.4063 C372.8281,1150.9688 372.8125,1150.8438 372.7188,1150.6875 C372.5625,1150.4219 372.2813,1150.2813 371.9844,1150.2813 C371.6875,1150.2813 371.4844,1150.375 371.2656,1150.6875 L371.0938,1150.6094 Z " fill="#000000"/><text fill="#000000" font-family="sans-serif" font-size="14" lengthAdjust="spacing" textLength="34" x="389.25" y="1159.7842">Land</text><line style="stroke:#181818;stroke-width:0.5;" x1="289.5" x2="490.5" y1="1170.9375" y2="1170.9375"/><ellipse cx="299.5" cy="1184.5859" fill="none" rx="3" ry="3" style="stroke:#038048;stroke-width:1.0;"/><text fill="#000000" font-family="sans-serif" font-size="14" lengthAdjust="spacing" textLength="153" x="308.5" y="1187.9326">einddatumLand: date</text><ellipse cx="299.5" cy="1200.8828" fill="none" rx="3" ry="3" style="stroke:#038048;stroke-width:1.0;"/><text fill="#000000" font-family="sans-serif" font-size="14" lengthAdjust="spacing" textLength="177" x="308.5" y="1204.2295">ingangsdatumLand: date</text><ellipse cx="299.5" cy="1217.1797" fill="none" rx="3" ry="3" style="stroke:#038048;stroke-width:1.0;"/><text fill="#000000" font-family="sans-serif" font-size="14" lengthAdjust="spacing" textLength="116" x="308.5" y="1220.5264">landcode: string</text><ellipse cx="299.5" cy="1233.4766" fill="none" rx="3" ry="3" style="stroke:#038048;stroke-width:1.0;"/><text fill="#000000" font-family="sans-serif" font-size="14" lengthAdjust="spacing" textLength="120" x="308.5" y="1236.8232">landnaam: string</text><line style="stroke:#181818;stroke-width:0.5;" x1="289.5" x2="490.5" y1="1244.125" y2="1244.125"/></g><!--class InterneTaak--><g id="elem_InterneTaak"><rect codeLine="167" fill="#F1F1F1" height="129.4844" id="InterneTaak" rx="2.5" ry="2.5" style="stroke:#181818;stroke-width:0.5;" width="223" x="526.5" y="1130.9375"/><ellipse cx="590.25" cy="1146.9375" fill="#ADD1B2" rx="11" ry="11" style="stroke:#181818;stroke-width:1.0;"/><path d="M592.5938,1142.6094 C591.6563,1142.1719 591.0625,1142.0313 590.1875,1142.0313 C587.5625,1142.0313 585.5625,1144.1094 585.5625,1146.8281 L585.5625,1147.9531 C585.5625,1150.5313 587.6719,1152.4219 590.5625,1152.4219 C591.7813,1152.4219 592.9375,1152.125 593.6875,1151.5781 C594.2656,1151.1719 594.5938,1150.7188 594.5938,1150.3281 C594.5938,1149.875 594.2031,1149.4844 593.7344,1149.4844 C593.5156,1149.4844 593.3125,1149.5625 593.125,1149.75 C592.6719,1150.2344 592.6719,1150.2344 592.4844,1150.3281 C592.0625,1150.5938 591.375,1150.7188 590.6094,1150.7188 C588.5625,1150.7188 587.2656,1149.625 587.2656,1147.9219 L587.2656,1146.8281 C587.2656,1145.0469 588.5156,1143.7344 590.25,1143.7344 C590.8281,1143.7344 591.4375,1143.8906 591.9063,1144.1406 C592.3906,1144.4219 592.5625,1144.6406 592.6563,1145.0469 C592.7188,1145.4531 592.75,1145.5781 592.8906,1145.7031 C593.0313,1145.8438 593.2656,1145.9531 593.4844,1145.9531 C593.75,1145.9531 594.0156,1145.8125 594.1875,1145.5938 C594.2969,1145.4375 594.3281,1145.25 594.3281,1144.8281 L594.3281,1143.4063 C594.3281,1142.9688 594.3125,1142.8438 594.2188,1142.6875 C594.0625,1142.4219 593.7813,1142.2813 593.4844,1142.2813 C593.1875,1142.2813 592.9844,1142.375 592.7656,1142.6875 L592.5938,1142.6094 Z " fill="#000000"/><text fill="#000000" font-family="sans-serif" font-size="14" lengthAdjust="spacing" textLength="87" x="610.75" y="1151.7842">InterneTaak</text><line style="stroke:#181818;stroke-width:0.5;" x1="527.5" x2="748.5" y1="1162.9375" y2="1162.9375"/><ellipse cx="537.5" cy="1176.5859" fill="none" rx="3" ry="3" style="stroke:#038048;stroke-width:1.0;"/><text fill="#000000" font-family="sans-serif" font-size="14" lengthAdjust="spacing" textLength="102" x="546.5" y="1179.9326">actorId: string</text><ellipse cx="537.5" cy="1192.8828" fill="none" rx="3" ry="3" style="stroke:#038048;stroke-width:1.0;"/><text fill="#000000" font-family="sans-serif" font-size="14" lengthAdjust="spacing" textLength="196" x="546.5" y="1196.2295">geregistreerdOp: datetime</text><ellipse cx="537.5" cy="1209.1797" fill="none" rx="3" ry="3" style="stroke:#038048;stroke-width:1.0;"/><text fill="#000000" font-family="sans-serif" font-size="14" lengthAdjust="spacing" textLength="197" x="546.5" y="1212.5264">gevraagdeHandeling: string</text><ellipse cx="537.5" cy="1225.4766" fill="none" rx="3" ry="3" style="stroke:#038048;stroke-width:1.0;"/><text fill="#000000" font-family="sans-serif" font-size="14" lengthAdjust="spacing" textLength="122" x="546.5" y="1228.8232">nummer: integer</text><ellipse cx="537.5" cy="1241.7734" fill="none" rx="3" ry="3" style="stroke:#038048;stroke-width:1.0;"/><text fill="#000000" font-family="sans-serif" font-size="14" lengthAdjust="spacing" textLength="95" x="546.5" y="1245.1201">status: string</text><line style="stroke:#181818;stroke-width:0.5;" x1="527.5" x2="748.5" y1="1252.4219" y2="1252.4219"/></g><!--class SubjectIdentificatie--><g id="elem_SubjectIdentificatie"><rect codeLine="174" fill="#F1F1F1" height="227.2656" id="SubjectIdentificatie" rx="2.5" ry="2.5" style="stroke:#181818;stroke-width:0.5;" width="273" x="784.5" y="1081.9375"/><ellipse cx="845.25" cy="1097.9375" fill="#ADD1B2" rx="11" ry="11" style="stroke:#181818;stroke-width:1.0;"/><path d="M847.5938,1093.6094 C846.6563,1093.1719 846.0625,1093.0313 845.1875,1093.0313 C842.5625,1093.0313 840.5625,1095.1094 840.5625,1097.8281 L840.5625,1098.9531 C840.5625,1101.5313 842.6719,1103.4219 845.5625,1103.4219 C846.7813,1103.4219 847.9375,1103.125 848.6875,1102.5781 C849.2656,1102.1719 849.5938,1101.7188 849.5938,1101.3281 C849.5938,1100.875 849.2031,1100.4844 848.7344,1100.4844 C848.5156,1100.4844 848.3125,1100.5625 848.125,1100.75 C847.6719,1101.2344 847.6719,1101.2344 847.4844,1101.3281 C847.0625,1101.5938 846.375,1101.7188 845.6094,1101.7188 C843.5625,1101.7188 842.2656,1100.625 842.2656,1098.9219 L842.2656,1097.8281 C842.2656,1096.0469 843.5156,1094.7344 845.25,1094.7344 C845.8281,1094.7344 846.4375,1094.8906 846.9063,1095.1406 C847.3906,1095.4219 847.5625,1095.6406 847.6563,1096.0469 C847.7188,1096.4531 847.75,1096.5781 847.8906,1096.7031 C848.0313,1096.8438 848.2656,1096.9531 848.4844,1096.9531 C848.75,1096.9531 849.0156,1096.8125 849.1875,1096.5938 C849.2969,1096.4375 849.3281,1096.25 849.3281,1095.8281 L849.3281,1094.4063 C849.3281,1093.9688 849.3125,1093.8438 849.2188,1093.6875 C849.0625,1093.4219 848.7813,1093.2813 848.4844,1093.2813 C848.1875,1093.2813 847.9844,1093.375 847.7656,1093.6875 L847.5938,1093.6094 Z " fill="#000000"/><text fill="#000000" font-family="sans-serif" font-size="14" lengthAdjust="spacing" textLength="143" x="865.75" y="1102.7842">SubjectIdentificatie</text><line style="stroke:#181818;stroke-width:0.5;" x1="785.5" x2="1056.5" y1="1113.9375" y2="1113.9375"/><ellipse cx="795.5" cy="1127.5859" fill="none" rx="3" ry="3" style="stroke:#038048;stroke-width:1.0;"/><text fill="#000000" font-family="sans-serif" font-size="14" lengthAdjust="spacing" textLength="100" x="804.5" y="1130.9326">inpBsn: string</text><ellipse cx="795.5" cy="1143.8828" fill="none" rx="3" ry="3" style="stroke:#038048;stroke-width:1.0;"/><text fill="#000000" font-family="sans-serif" font-size="14" lengthAdjust="spacing" textLength="166" x="804.5" y="1147.2295">anpIdentificatie: string</text><ellipse cx="795.5" cy="1160.1797" fill="none" rx="3" ry="3" style="stroke:#038048;stroke-width:1.0;"/><text fill="#000000" font-family="sans-serif" font-size="14" lengthAdjust="spacing" textLength="145" x="804.5" y="1163.5264">inpANummer: string</text><ellipse cx="795.5" cy="1176.4766" fill="none" rx="3" ry="3" style="stroke:#038048;stroke-width:1.0;"/><text fill="#000000" font-family="sans-serif" font-size="14" lengthAdjust="spacing" textLength="158" x="804.5" y="1179.8232">geslachtsnaam: string</text><ellipse cx="795.5" cy="1192.7734" fill="none" rx="3" ry="3" style="stroke:#038048;stroke-width:1.0;"/><text fill="#000000" font-family="sans-serif" font-size="14" lengthAdjust="spacing" textLength="247" x="804.5" y="1196.1201">voorvoegselGeslachtsnaam: string</text><ellipse cx="795.5" cy="1209.0703" fill="none" rx="3" ry="3" style="stroke:#038048;stroke-width:1.0;"/><text fill="#000000" font-family="sans-serif" font-size="14" lengthAdjust="spacing" textLength="132" x="804.5" y="1212.417">voorletters: string</text><ellipse cx="795.5" cy="1225.3672" fill="none" rx="3" ry="3" style="stroke:#038048;stroke-width:1.0;"/><text fill="#000000" font-family="sans-serif" font-size="14" lengthAdjust="spacing" textLength="132" x="804.5" y="1228.7139">voornamen: string</text><ellipse cx="795.5" cy="1241.6641" fill="none" rx="3" ry="3" style="stroke:#038048;stroke-width:1.0;"/><text fill="#000000" font-family="sans-serif" font-size="14" lengthAdjust="spacing" textLength="196" x="804.5" y="1245.0107">geslachtsaanduiding: string</text><ellipse cx="795.5" cy="1257.9609" fill="none" rx="3" ry="3" style="stroke:#038048;stroke-width:1.0;"/><text fill="#000000" font-family="sans-serif" font-size="14" lengthAdjust="spacing" textLength="165" x="804.5" y="1261.3076">geboortedatum: string</text><ellipse cx="795.5" cy="1274.2578" fill="none" rx="3" ry="3" style="stroke:#038048;stroke-width:1.0;"/><text fill="#000000" font-family="sans-serif" font-size="14" lengthAdjust="spacing" textLength="133" x="804.5" y="1277.6045">verblijfsadres: Any</text><ellipse cx="795.5" cy="1290.5547" fill="none" rx="3" ry="3" style="stroke:#038048;stroke-width:1.0;"/><text fill="#000000" font-family="sans-serif" font-size="14" lengthAdjust="spacing" textLength="206" x="804.5" y="1293.9014">subVerblijfBuitenland: string</text><line style="stroke:#181818;stroke-width:0.5;" x1="785.5" x2="1056.5" y1="1301.2031" y2="1301.2031"/></g><!--class Taak--><g id="elem_Taak"><rect codeLine="187" fill="#F1F1F1" height="210.9688" id="Taak" rx="2.5" ry="2.5" style="stroke:#181818;stroke-width:0.5;" width="209" x="1092.5" y="1089.9375"/><ellipse cx="1175.75" cy="1105.9375" fill="#ADD1B2" rx="11" ry="11" style="stroke:#181818;stroke-width:1.0;"/><path d="M1178.0938,1101.6094 C1177.1563,1101.1719 1176.5625,1101.0313 1175.6875,1101.0313 C1173.0625,1101.0313 1171.0625,1103.1094 1171.0625,1105.8281 L1171.0625,1106.9531 C1171.0625,1109.5313 1173.1719,1111.4219 1176.0625,1111.4219 C1177.2813,1111.4219 1178.4375,1111.125 1179.1875,1110.5781 C1179.7656,1110.1719 1180.0938,1109.7188 1180.0938,1109.3281 C1180.0938,1108.875 1179.7031,1108.4844 1179.2344,1108.4844 C1179.0156,1108.4844 1178.8125,1108.5625 1178.625,1108.75 C1178.1719,1109.2344 1178.1719,1109.2344 1177.9844,1109.3281 C1177.5625,1109.5938 1176.875,1109.7188 1176.1094,1109.7188 C1174.0625,1109.7188 1172.7656,1108.625 1172.7656,1106.9219 L1172.7656,1105.8281 C1172.7656,1104.0469 1174.0156,1102.7344 1175.75,1102.7344 C1176.3281,1102.7344 1176.9375,1102.8906 1177.4063,1103.1406 C1177.8906,1103.4219 1178.0625,1103.6406 1178.1563,1104.0469 C1178.2188,1104.4531 1178.25,1104.5781 1178.3906,1104.7031 C1178.5313,1104.8438 1178.7656,1104.9531 1178.9844,1104.9531 C1179.25,1104.9531 1179.5156,1104.8125 1179.6875,1104.5938 C1179.7969,1104.4375 1179.8281,1104.25 1179.8281,1103.8281 L1179.8281,1102.4063 C1179.8281,1101.9688 1179.8125,1101.8438 1179.7188,1101.6875 C1179.5625,1101.4219 1179.2813,1101.2813 1178.9844,1101.2813 C1178.6875,1101.2813 1178.4844,1101.375 1178.2656,1101.6875 L1178.0938,1101.6094 Z " fill="#000000"/><text fill="#000000" font-family="sans-serif" font-size="14" lengthAdjust="spacing" textLength="34" x="1196.25" y="1110.7842">Taak</text><line style="stroke:#181818;stroke-width:0.5;" x1="1093.5" x2="1300.5" y1="1121.9375" y2="1121.9375"/><ellipse cx="1103.5" cy="1135.5859" fill="none" rx="3" ry="3" style="stroke:#038048;stroke-width:1.0;"/><text fill="#000000" font-family="sans-serif" font-size="14" lengthAdjust="spacing" textLength="64" x="1112.5" y="1138.9326">id: string</text><ellipse cx="1103.5" cy="1151.8828" fill="none" rx="3" ry="3" style="stroke:#038048;stroke-width:1.0;"/><text fill="#000000" font-family="sans-serif" font-size="14" lengthAdjust="spacing" textLength="88" x="1112.5" y="1155.2295">data: object</text><ellipse cx="1103.5" cy="1168.1797" fill="none" rx="3" ry="3" style="stroke:#038048;stroke-width:1.0;"/><text fill="#000000" font-family="sans-serif" font-size="14" lengthAdjust="spacing" textLength="84" x="1112.5" y="1171.5264">zaak: string</text><ellipse cx="1103.5" cy="1184.4766" fill="none" rx="3" ry="3" style="stroke:#038048;stroke-width:1.0;"/><text fill="#000000" font-family="sans-serif" font-size="14" lengthAdjust="spacing" textLength="82" x="1112.5" y="1187.8232">title: string</text><ellipse cx="1103.5" cy="1200.7734" fill="none" rx="3" ry="3" style="stroke:#038048;stroke-width:1.0;"/><text fill="#000000" font-family="sans-serif" font-size="14" lengthAdjust="spacing" textLength="95" x="1112.5" y="1204.1201">status: string</text><ellipse cx="1103.5" cy="1217.0703" fill="none" rx="3" ry="3" style="stroke:#038048;stroke-width:1.0;"/><text fill="#000000" font-family="sans-serif" font-size="14" lengthAdjust="spacing" textLength="122" x="1112.5" y="1220.417">formulier: object</text><ellipse cx="1103.5" cy="1233.3672" fill="none" rx="3" ry="3" style="stroke:#038048;stroke-width:1.0;"/><text fill="#000000" font-family="sans-serif" font-size="14" lengthAdjust="spacing" textLength="152" x="1112.5" y="1236.7139">verloopdatum: string</text><ellipse cx="1103.5" cy="1249.6641" fill="none" rx="3" ry="3" style="stroke:#038048;stroke-width:1.0;"/><text fill="#000000" font-family="sans-serif" font-size="14" lengthAdjust="spacing" textLength="144" x="1112.5" y="1253.0107">identificatie: object</text><ellipse cx="1103.5" cy="1265.9609" fill="none" rx="3" ry="3" style="stroke:#038048;stroke-width:1.0;"/><text fill="#000000" font-family="sans-serif" font-size="14" lengthAdjust="spacing" textLength="171" x="1112.5" y="1269.3076">verzonden_data: object</text><ellipse cx="1103.5" cy="1282.2578" fill="none" rx="3" ry="3" style="stroke:#038048;stroke-width:1.0;"/><text fill="#000000" font-family="sans-serif" font-size="14" lengthAdjust="spacing" textLength="183" x="1112.5" y="1285.6045">verwerker_taak_id: string</text><line style="stroke:#181818;stroke-width:0.5;" x1="1093.5" x2="1300.5" y1="1292.9063" y2="1292.9063"/></g><!--class SoortExternId--><g id="elem_SoortExternId"><rect codeLine="199" fill="#F1F1F1" height="96.8906" id="SoortExternId" rx="2.5" ry="2.5" style="stroke:#181818;stroke-width:0.5;" width="186" x="52" y="1417.9375"/><ellipse cx="90.85" cy="1433.9375" fill="#ADD1B2" rx="11" ry="11" style="stroke:#181818;stroke-width:1.0;"/><path d="M93.1938,1429.6094 C92.2563,1429.1719 91.6625,1429.0313 90.7875,1429.0313 C88.1625,1429.0313 86.1625,1431.1094 86.1625,1433.8281 L86.1625,1434.9531 C86.1625,1437.5313 88.2719,1439.4219 91.1625,1439.4219 C92.3813,1439.4219 93.5375,1439.125 94.2875,1438.5781 C94.8656,1438.1719 95.1938,1437.7188 95.1938,1437.3281 C95.1938,1436.875 94.8031,1436.4844 94.3344,1436.4844 C94.1156,1436.4844 93.9125,1436.5625 93.725,1436.75 C93.2719,1437.2344 93.2719,1437.2344 93.0844,1437.3281 C92.6625,1437.5938 91.975,1437.7188 91.2094,1437.7188 C89.1625,1437.7188 87.8656,1436.625 87.8656,1434.9219 L87.8656,1433.8281 C87.8656,1432.0469 89.1156,1430.7344 90.85,1430.7344 C91.4281,1430.7344 92.0375,1430.8906 92.5063,1431.1406 C92.9906,1431.4219 93.1625,1431.6406 93.2563,1432.0469 C93.3188,1432.4531 93.35,1432.5781 93.4906,1432.7031 C93.6313,1432.8438 93.8656,1432.9531 94.0844,1432.9531 C94.35,1432.9531 94.6156,1432.8125 94.7875,1432.5938 C94.8969,1432.4375 94.9281,1432.25 94.9281,1431.8281 L94.9281,1430.4063 C94.9281,1429.9688 94.9125,1429.8438 94.8188,1429.6875 C94.6625,1429.4219 94.3813,1429.2813 94.0844,1429.2813 C93.7875,1429.2813 93.5844,1429.375 93.3656,1429.6875 L93.1938,1429.6094 Z " fill="#000000"/><text fill="#000000" font-family="sans-serif" font-size="14" lengthAdjust="spacing" textLength="101" x="110.15" y="1438.7842">SoortExternId</text><line style="stroke:#181818;stroke-width:0.5;" x1="53" x2="237" y1="1449.9375" y2="1449.9375"/><ellipse cx="63" cy="1463.5859" fill="none" rx="3" ry="3" style="stroke:#038048;stroke-width:1.0;"/><text fill="#000000" font-family="sans-serif" font-size="14" lengthAdjust="spacing" textLength="86" x="72" y="1466.9326">code: string</text><ellipse cx="63" cy="1479.8828" fill="none" rx="3" ry="3" style="stroke:#038048;stroke-width:1.0;"/><text fill="#000000" font-family="sans-serif" font-size="14" lengthAdjust="spacing" textLength="160" x="72" y="1483.2295">externRegister: string</text><ellipse cx="63" cy="1496.1797" fill="none" rx="3" ry="3" style="stroke:#038048;stroke-width:1.0;"/><text fill="#000000" font-family="sans-serif" font-size="14" lengthAdjust="spacing" textLength="90" x="72" y="1499.5264">naam: string</text><line style="stroke:#181818;stroke-width:0.5;" x1="53" x2="237" y1="1506.8281" y2="1506.8281"/></g><!--class Persoonsnaam--><g id="elem_Persoonsnaam"><rect codeLine="204" fill="#F1F1F1" height="96.8906" id="Persoonsnaam" rx="2.5" ry="2.5" style="stroke:#181818;stroke-width:0.5;" width="252" x="273" y="1417.9375"/><ellipse cx="342.75" cy="1433.9375" fill="#ADD1B2" rx="11" ry="11" style="stroke:#181818;stroke-width:1.0;"/><path d="M345.0938,1429.6094 C344.1563,1429.1719 343.5625,1429.0313 342.6875,1429.0313 C340.0625,1429.0313 338.0625,1431.1094 338.0625,1433.8281 L338.0625,1434.9531 C338.0625,1437.5313 340.1719,1439.4219 343.0625,1439.4219 C344.2813,1439.4219 345.4375,1439.125 346.1875,1438.5781 C346.7656,1438.1719 347.0938,1437.7188 347.0938,1437.3281 C347.0938,1436.875 346.7031,1436.4844 346.2344,1436.4844 C346.0156,1436.4844 345.8125,1436.5625 345.625,1436.75 C345.1719,1437.2344 345.1719,1437.2344 344.9844,1437.3281 C344.5625,1437.5938 343.875,1437.7188 343.1094,1437.7188 C341.0625,1437.7188 339.7656,1436.625 339.7656,1434.9219 L339.7656,1433.8281 C339.7656,1432.0469 341.0156,1430.7344 342.75,1430.7344 C343.3281,1430.7344 343.9375,1430.8906 344.4063,1431.1406 C344.8906,1431.4219 345.0625,1431.6406 345.1563,1432.0469 C345.2188,1432.4531 345.25,1432.5781 345.3906,1432.7031 C345.5313,1432.8438 345.7656,1432.9531 345.9844,1432.9531 C346.25,1432.9531 346.5156,1432.8125 346.6875,1432.5938 C346.7969,1432.4375 346.8281,1432.25 346.8281,1431.8281 L346.8281,1430.4063 C346.8281,1429.9688 346.8125,1429.8438 346.7188,1429.6875 C346.5625,1429.4219 346.2813,1429.2813 345.9844,1429.2813 C345.6875,1429.2813 345.4844,1429.375 345.2656,1429.6875 L345.0938,1429.6094 Z " fill="#000000"/><text fill="#000000" font-family="sans-serif" font-size="14" lengthAdjust="spacing" textLength="104" x="363.25" y="1438.7842">Persoonsnaam</text><line style="stroke:#181818;stroke-width:0.5;" x1="274" x2="524" y1="1449.9375" y2="1449.9375"/><ellipse cx="284" cy="1463.5859" fill="none" rx="3" ry="3" style="stroke:#038048;stroke-width:1.0;"/><text fill="#000000" font-family="sans-serif" font-size="14" lengthAdjust="spacing" textLength="137" x="293" y="1466.9326">achternaam: string</text><ellipse cx="284" cy="1479.8828" fill="none" rx="3" ry="3" style="stroke:#038048;stroke-width:1.0;"/><text fill="#000000" font-family="sans-serif" font-size="14" lengthAdjust="spacing" textLength="122" x="293" y="1483.2295">voornaam: string</text><ellipse cx="284" cy="1496.1797" fill="none" rx="3" ry="3" style="stroke:#038048;stroke-width:1.0;"/><text fill="#000000" font-family="sans-serif" font-size="14" lengthAdjust="spacing" textLength="226" x="293" y="1499.5264">voorvoegselAchternaam: string</text><line style="stroke:#181818;stroke-width:0.5;" x1="274" x2="524" y1="1506.8281" y2="1506.8281"/></g><!--class ExterneIdentificatie--><g id="elem_ExterneIdentificatie"><rect codeLine="209" fill="#F1F1F1" height="96.8906" id="ExterneIdentificatie" rx="2.5" ry="2.5" style="stroke:#181818;stroke-width:0.5;" width="219" x="560.5" y="1417.9375"/><ellipse cx="594.4" cy="1433.9375" fill="#ADD1B2" rx="11" ry="11" style="stroke:#181818;stroke-width:1.0;"/><path d="M596.7438,1429.6094 C595.8063,1429.1719 595.2125,1429.0313 594.3375,1429.0313 C591.7125,1429.0313 589.7125,1431.1094 589.7125,1433.8281 L589.7125,1434.9531 C589.7125,1437.5313 591.8219,1439.4219 594.7125,1439.4219 C595.9313,1439.4219 597.0875,1439.125 597.8375,1438.5781 C598.4156,1438.1719 598.7438,1437.7188 598.7438,1437.3281 C598.7438,1436.875 598.3531,1436.4844 597.8844,1436.4844 C597.6656,1436.4844 597.4625,1436.5625 597.275,1436.75 C596.8219,1437.2344 596.8219,1437.2344 596.6344,1437.3281 C596.2125,1437.5938 595.525,1437.7188 594.7594,1437.7188 C592.7125,1437.7188 591.4156,1436.625 591.4156,1434.9219 L591.4156,1433.8281 C591.4156,1432.0469 592.6656,1430.7344 594.4,1430.7344 C594.9781,1430.7344 595.5875,1430.8906 596.0563,1431.1406 C596.5406,1431.4219 596.7125,1431.6406 596.8063,1432.0469 C596.8688,1432.4531 596.9,1432.5781 597.0406,1432.7031 C597.1813,1432.8438 597.4156,1432.9531 597.6344,1432.9531 C597.9,1432.9531 598.1656,1432.8125 598.3375,1432.5938 C598.4469,1432.4375 598.4781,1432.25 598.4781,1431.8281 L598.4781,1430.4063 C598.4781,1429.9688 598.4625,1429.8438 598.3688,1429.6875 C598.2125,1429.4219 597.9313,1429.2813 597.6344,1429.2813 C597.3375,1429.2813 597.1344,1429.375 596.9156,1429.6875 L596.7438,1429.6094 Z " fill="#000000"/><text fill="#000000" font-family="sans-serif" font-size="14" lengthAdjust="spacing" textLength="145" x="612.6" y="1438.7842">ExterneIdentificatie</text><line style="stroke:#181818;stroke-width:0.5;" x1="561.5" x2="778.5" y1="1449.9375" y2="1449.9375"/><ellipse cx="571.5" cy="1463.5859" fill="none" rx="3" ry="3" style="stroke:#038048;stroke-width:1.0;"/><text fill="#000000" font-family="sans-serif" font-size="14" lengthAdjust="spacing" textLength="193" x="580.5" y="1466.9326">anderSoortExternId: string</text><ellipse cx="571.5" cy="1479.8828" fill="none" rx="3" ry="3" style="stroke:#038048;stroke-width:1.0;"/><text fill="#000000" font-family="sans-serif" font-size="14" lengthAdjust="spacing" textLength="112" x="580.5" y="1483.2295">externId: string</text><ellipse cx="571.5" cy="1496.1797" fill="none" rx="3" ry="3" style="stroke:#038048;stroke-width:1.0;"/><text fill="#000000" font-family="sans-serif" font-size="14" lengthAdjust="spacing" textLength="155" x="580.5" y="1499.5264">soortExternId: object</text><line style="stroke:#181818;stroke-width:0.5;" x1="561.5" x2="778.5" y1="1506.8281" y2="1506.8281"/></g><!--class KlantAdres--><g id="elem_KlantAdres"><rect codeLine="214" fill="#F1F1F1" height="194.6719" id="KlantAdres" rx="2.5" ry="2.5" style="stroke:#181818;stroke-width:0.5;" width="247" x="814.5" y="1368.9375"/><ellipse cx="894.25" cy="1384.9375" fill="#ADD1B2" rx="11" ry="11" style="stroke:#181818;stroke-width:1.0;"/><path d="M896.5938,1380.6094 C895.6563,1380.1719 895.0625,1380.0313 894.1875,1380.0313 C891.5625,1380.0313 889.5625,1382.1094 889.5625,1384.8281 L889.5625,1385.9531 C889.5625,1388.5313 891.6719,1390.4219 894.5625,1390.4219 C895.7813,1390.4219 896.9375,1390.125 897.6875,1389.5781 C898.2656,1389.1719 898.5938,1388.7188 898.5938,1388.3281 C898.5938,1387.875 898.2031,1387.4844 897.7344,1387.4844 C897.5156,1387.4844 897.3125,1387.5625 897.125,1387.75 C896.6719,1388.2344 896.6719,1388.2344 896.4844,1388.3281 C896.0625,1388.5938 895.375,1388.7188 894.6094,1388.7188 C892.5625,1388.7188 891.2656,1387.625 891.2656,1385.9219 L891.2656,1384.8281 C891.2656,1383.0469 892.5156,1381.7344 894.25,1381.7344 C894.8281,1381.7344 895.4375,1381.8906 895.9063,1382.1406 C896.3906,1382.4219 896.5625,1382.6406 896.6563,1383.0469 C896.7188,1383.4531 896.75,1383.5781 896.8906,1383.7031 C897.0313,1383.8438 897.2656,1383.9531 897.4844,1383.9531 C897.75,1383.9531 898.0156,1383.8125 898.1875,1383.5938 C898.2969,1383.4375 898.3281,1383.25 898.3281,1382.8281 L898.3281,1381.4063 C898.3281,1380.9688 898.3125,1380.8438 898.2188,1380.6875 C898.0625,1380.4219 897.7813,1380.2813 897.4844,1380.2813 C897.1875,1380.2813 896.9844,1380.375 896.7656,1380.6875 L896.5938,1380.6094 Z " fill="#000000"/><text fill="#000000" font-family="sans-serif" font-size="14" lengthAdjust="spacing" textLength="79" x="914.75" y="1389.7842">KlantAdres</text><line style="stroke:#181818;stroke-width:0.5;" x1="815.5" x2="1060.5" y1="1400.9375" y2="1400.9375"/><ellipse cx="825.5" cy="1414.5859" fill="none" rx="3" ry="3" style="stroke:#038048;stroke-width:1.0;"/><text fill="#000000" font-family="sans-serif" font-size="14" lengthAdjust="spacing" textLength="64" x="834.5" y="1417.9326">id: string</text><ellipse cx="825.5" cy="1430.8828" fill="none" rx="3" ry="3" style="stroke:#038048;stroke-width:1.0;"/><text fill="#000000" font-family="sans-serif" font-size="14" lengthAdjust="spacing" textLength="90" x="834.5" y="1434.2295">naam: string</text><ellipse cx="825.5" cy="1447.1797" fill="none" rx="3" ry="3" style="stroke:#038048;stroke-width:1.0;"/><text fill="#000000" font-family="sans-serif" font-size="14" lengthAdjust="spacing" textLength="133" x="834.5" y="1450.5264">straatnaam: string</text><ellipse cx="825.5" cy="1463.4766" fill="none" rx="3" ry="3" style="stroke:#038048;stroke-width:1.0;"/><text fill="#000000" font-family="sans-serif" font-size="14" lengthAdjust="spacing" textLength="150" x="834.5" y="1466.8232">huisnummer: integer</text><ellipse cx="825.5" cy="1479.7734" fill="none" rx="3" ry="3" style="stroke:#038048;stroke-width:1.0;"/><text fill="#000000" font-family="sans-serif" font-size="14" lengthAdjust="spacing" textLength="121" x="834.5" y="1483.1201">huisletter: string</text><ellipse cx="825.5" cy="1496.0703" fill="none" rx="3" ry="3" style="stroke:#038048;stroke-width:1.0;"/><text fill="#000000" font-family="sans-serif" font-size="14" lengthAdjust="spacing" textLength="221" x="834.5" y="1499.417">huisnummertoevoeging: string</text><ellipse cx="825.5" cy="1512.3672" fill="none" rx="3" ry="3" style="stroke:#038048;stroke-width:1.0;"/><text fill="#000000" font-family="sans-serif" font-size="14" lengthAdjust="spacing" textLength="119" x="834.5" y="1515.7139">postcode: string</text><ellipse cx="825.5" cy="1528.6641" fill="none" rx="3" ry="3" style="stroke:#038048;stroke-width:1.0;"/><text fill="#000000" font-family="sans-serif" font-size="14" lengthAdjust="spacing" textLength="172" x="834.5" y="1532.0107">woonplaatsnaam: string</text><ellipse cx="825.5" cy="1544.9609" fill="none" rx="3" ry="3" style="stroke:#038048;stroke-width:1.0;"/><text fill="#000000" font-family="sans-serif" font-size="14" lengthAdjust="spacing" textLength="116" x="834.5" y="1548.3076">landcode: string</text><line style="stroke:#181818;stroke-width:0.5;" x1="815.5" x2="1060.5" y1="1555.6094" y2="1555.6094"/></g><text fill="#888888" font-family="sans-serif" font-size="10" lengthAdjust="spacing" textLength="402" x="505.25" y="1578.8916">Common Gateway Plugin | Commongateway | Customerinteractionbundle</text><!--SRC=[pLXBS-Cs3BxdL-ZUKzjRRdQIPZFDmxF9xXupb0JBj2XImuUpIPl_Nf2IRBuiDzkPjaUH80ZW0pw0qbGpE2yMZ1Mgsa17rDbQ20tolBWGNITuSKqql93NOiLCGtdnvxZUZCluRPGM7KZAyHYfD1MyDBncK9njWDHMrQDJVLOnebJnEoDS5t-S5SLFXP7il50QppRkkvI22zaGJXNH58AzrfxZfkkiHlyCr99krueJqWKRQyEhMCaBb8fg-1BTknD29kVjuav0eu0jgWqwbqYG_B861XX5dZ4Mmq0PgIMeKD6mik2lxbEPSWkL3aJ6jQVNFlI84DuHqhO4pGYTQc27gAmfWAnpgcvgu1htgo7KzlBt4QCbQ2dQ5ZWiwTO1LWck4TmHjnBU1BIZrS9fS-kLaBZK2-vKGohGUhfkGgiyt9E8zaHgkeqEz20LHda4thj4YXJT5enKKv0ysVsUzdUcEApSlV_KQVXkimIYU1CfoG2tgnmEzqBJRDAZQQtr_N1YoYnxiW5vEdx7GlNnqBWg8ce94cXR4Y8V-icoAMfFQEzlGdQ6KP1Zy7ISjpl2p65bdtXqoqW3uw4XS17im-9dQAZIKNLHNW_H_OOv_mJNM03yl2Y5O43uoVpha06HINQuaDZr5MJ9a6KM5jpHEXgU9u942FkyqxDl243F2D7gFeQd4HX5u2MHyDdGJiCWuQEBsbT2eUarnBT-CbHbg6RSOQ1rVcSuemLOalET7aBPtmhdHmapSLbKMamGnx7rqjLtsC-I860VovIlOtQEfvB0PE-yo9Jgg01vj3QqHcdCmMCXjV8ICM5BWrs4eyFrpoSbVZafyMiemVKBEbVdYdoJHtJZsHkBpy9iRmzAkySaAqrMMP_BFwGLgI-o3EXBQOc97rR4lXmIbEwWXXT0T3-OMOuTxh8DzgDCafiTZhJrGy-K5EU1F3aqK4f3qQERopHyrzDco4SOJObXwADfnzsYeLLXF2MiaP9vRFG60GQ6Nsg5FQ07wzKwZ0AovYNHflkq5tq2sT4jKcUDKvwc7GnN3zpC_VWt892uwWF9lljJNZWq4CiL4GIZpcYrmRHumE7bPcYCJqd_mvHqg4axszW651YwRmCNm_rtM3EcrH6_ROIfeoLil_ROcaENT9Qz9GzSsux8lr3jcvHfeDakdKLrA0GSs5m91GuTqci_VVpl6EjVOQKyzIpzeUo76UTXcfs4fFOTT0Ly0xJ-x-Y7VC-0cPrG_WOpNTA6sXdE7rvI6uzgTt4ET2HpyYq2DiriM7srfPDR1wBDux62CCIDocrPk1DqxMAsXtkaC4Ciymo1bORfqTImvxnmTiWaBTQyDcdcF6RUKbCBuFrIyQYrzyTdH9HVtAUeDw2OVMYgkGVgzQpGK9igy-JjWESlEv1BtCTiDe23CTGtJiWgVSjEm_E1FhB3OBvpuaqau88t50spV_Y74HH_W9MhgEaz4ZvnG38X-jGR6g8K7dbpBFsSMBPpp8vz_Dc-s9vfwkQZ3TxLI0R79jSPNiWMnCfxtEqh8ljZuWT-SqoNN6NUiDDbjgK5dftcFXMAHtJYXeUPfrRYmy3soV9S0vhjLqVwKhOD7TfASdz2REz_0G00]--></g></svg>