<?xml version="1.0" encoding="us-ascii" standalone="no"?><svg xmlns="http://www.w3.org/2000/svg" xmlns:xlink="http://www.w3.org/1999/xlink" contentStyleType="text/css" height="1102px" preserveAspectRatio="none" style="width:1087px;height:1102px;background:#FFFFFF;" version="1.1" viewBox="0 0 1087 1102" width="1087px" zoomAndPan="magnify"><defs/><g><!--class Voorkeur--><g id="elem_Voorkeur"><rect codeLine="1" fill="#F1F1F1" height="80.5938" id="Voorkeur" rx="2.5" ry="2.5" style="stroke:#181818;stroke-width:0.5;" width="116" x="77.5" y="72"/><ellipse cx="100.6" cy="88" fill="#ADD1B2" rx="11" ry="11" style="stroke:#181818;stroke-width:1.0;"/><path d="M102.9438,83.6719 C102.0063,83.2344 101.4125,83.0938 100.5375,83.0938 C97.9125,83.0938 95.9125,85.1719 95.9125,87.8906 L95.9125,89.0156 C95.9125,91.5938 98.0219,93.4844 100.9125,93.4844 C102.1313,93.4844 103.2875,93.1875 104.0375,92.6406 C104.6156,92.2344 104.9438,91.7813 104.9438,91.3906 C104.9438,90.9375 104.5531,90.5469 104.0844,90.5469 C103.8656,90.5469 103.6625,90.625 103.475,90.8125 C103.0219,91.2969 103.0219,91.2969 102.8344,91.3906 C102.4125,91.6563 101.725,91.7813 100.9594,91.7813 C98.9125,91.7813 97.6156,90.6875 97.6156,88.9844 L97.6156,87.8906 C97.6156,86.1094 98.8656,84.7969 100.6,84.7969 C101.1781,84.7969 101.7875,84.9531 102.2563,85.2031 C102.7406,85.4844 102.9125,85.7031 103.0063,86.1094 C103.0688,86.5156 103.1,86.6406 103.2406,86.7656 C103.3813,86.9063 103.6156,87.0156 103.8344,87.0156 C104.1,87.0156 104.3656,86.875 104.5375,86.6563 C104.6469,86.5 104.6781,86.3125 104.6781,85.8906 L104.6781,84.4688 C104.6781,84.0313 104.6625,83.9063 104.5688,83.75 C104.4125,83.4844 104.1313,83.3438 103.8344,83.3438 C103.5375,83.3438 103.3344,83.4375 103.1156,83.75 L102.9438,83.6719 Z " fill="#000000"/><text fill="#000000" font-family="sans-serif" font-size="14" lengthAdjust="spacing" textLength="66" x="116.4" y="92.8467">Voorkeur</text><line style="stroke:#181818;stroke-width:0.5;" x1="78.5" x2="192.5" y1="104" y2="104"/><ellipse cx="88.5" cy="117.6484" fill="none" rx="3" ry="3" style="stroke:#038048;stroke-width:1.0;"/><text fill="#000000" font-family="sans-serif" font-size="14" lengthAdjust="spacing" textLength="86" x="97.5" y="120.9951">code: string</text><ellipse cx="88.5" cy="133.9453" fill="none" rx="3" ry="3" style="stroke:#038048;stroke-width:1.0;"/><text fill="#000000" font-family="sans-serif" font-size="14" lengthAdjust="spacing" textLength="90" x="97.5" y="137.292">naam: string</text><line style="stroke:#181818;stroke-width:0.5;" x1="78.5" x2="192.5" y1="144.5938" y2="144.5938"/></g><!--class Partij--><g id="elem_Partij"><rect codeLine="5" fill="#F1F1F1" height="210.9688" id="Partij" rx="2.5" ry="2.5" style="stroke:#181818;stroke-width:0.5;" width="241" x="229" y="7"/><ellipse cx="326.25" cy="23" fill="#ADD1B2" rx="11" ry="11" style="stroke:#181818;stroke-width:1.0;"/><path d="M328.5938,18.6719 C327.6563,18.2344 327.0625,18.0938 326.1875,18.0938 C323.5625,18.0938 321.5625,20.1719 321.5625,22.8906 L321.5625,24.0156 C321.5625,26.5938 323.6719,28.4844 326.5625,28.4844 C327.7813,28.4844 328.9375,28.1875 329.6875,27.6406 C330.2656,27.2344 330.5938,26.7813 330.5938,26.3906 C330.5938,25.9375 330.2031,25.5469 329.7344,25.5469 C329.5156,25.5469 329.3125,25.625 329.125,25.8125 C328.6719,26.2969 328.6719,26.2969 328.4844,26.3906 C328.0625,26.6563 327.375,26.7813 326.6094,26.7813 C324.5625,26.7813 323.2656,25.6875 323.2656,23.9844 L323.2656,22.8906 C323.2656,21.1094 324.5156,19.7969 326.25,19.7969 C326.8281,19.7969 327.4375,19.9531 327.9063,20.2031 C328.3906,20.4844 328.5625,20.7031 328.6563,21.1094 C328.7188,21.5156 328.75,21.6406 328.8906,21.7656 C329.0313,21.9063 329.2656,22.0156 329.4844,22.0156 C329.75,22.0156 330.0156,21.875 330.1875,21.6563 C330.2969,21.5 330.3281,21.3125 330.3281,20.8906 L330.3281,19.4688 C330.3281,19.0313 330.3125,18.9063 330.2188,18.75 C330.0625,18.4844 329.7813,18.3438 329.4844,18.3438 C329.1875,18.3438 328.9844,18.4375 328.7656,18.75 L328.5938,18.6719 Z " fill="#000000"/><text fill="#000000" font-family="sans-serif" font-size="14" lengthAdjust="spacing" textLength="38" x="346.75" y="27.8467">Partij</text><line style="stroke:#181818;stroke-width:0.5;" x1="230" x2="469" y1="39" y2="39"/><ellipse cx="240" cy="52.6484" fill="none" rx="3" ry="3" style="stroke:#038048;stroke-width:1.0;"/><text fill="#000000" font-family="sans-serif" font-size="14" lengthAdjust="spacing" textLength="149" x="249" y="55.9951">bezoekadres: object</text><ellipse cx="240" cy="68.9453" fill="none" rx="3" ry="3" style="stroke:#038048;stroke-width:1.0;"/><text fill="#000000" font-family="sans-serif" font-size="14" lengthAdjust="spacing" textLength="215" x="249" y="72.292">correspondentieadres: object</text><ellipse cx="240" cy="85.2422" fill="none" rx="3" ry="3" style="stroke:#038048;stroke-width:1.0;"/><text fill="#000000" font-family="sans-serif" font-size="14" lengthAdjust="spacing" textLength="190" x="249" y="88.5889">externeIdentificatie: array</text><ellipse cx="240" cy="101.5391" fill="none" rx="3" ry="3" style="stroke:#038048;stroke-width:1.0;"/><text fill="#000000" font-family="sans-serif" font-size="14" lengthAdjust="spacing" textLength="154" x="249" y="104.8857">interneNotitie: string</text><ellipse cx="240" cy="117.8359" fill="none" rx="3" ry="3" style="stroke:#038048;stroke-width:1.0;"/><text fill="#000000" font-family="sans-serif" font-size="14" lengthAdjust="spacing" textLength="127" x="249" y="121.1826">klanttaakId: array</text><ellipse cx="240" cy="134.1328" fill="none" rx="3" ry="3" style="stroke:#038048;stroke-width:1.0;"/><text fill="#000000" font-family="sans-serif" font-size="14" lengthAdjust="spacing" textLength="122" x="249" y="137.4795">nummer: integer</text><ellipse cx="240" cy="150.4297" fill="none" rx="3" ry="3" style="stroke:#038048;stroke-width:1.0;"/><text fill="#000000" font-family="sans-serif" font-size="14" lengthAdjust="spacing" textLength="170" x="249" y="153.7764">organisatienaam: string</text><ellipse cx="240" cy="166.7266" fill="none" rx="3" ry="3" style="stroke:#038048;stroke-width:1.0;"/><text fill="#000000" font-family="sans-serif" font-size="14" lengthAdjust="spacing" textLength="161" x="249" y="170.0732">persoonsnaam: object</text><ellipse cx="240" cy="183.0234" fill="none" rx="3" ry="3" style="stroke:#038048;stroke-width:1.0;"/><text fill="#000000" font-family="sans-serif" font-size="14" lengthAdjust="spacing" textLength="173" x="249" y="186.3701">voorkeurskanaal: object</text><ellipse cx="240" cy="199.3203" fill="none" rx="3" ry="3" style="stroke:#038048;stroke-width:1.0;"/><text fill="#000000" font-family="sans-serif" font-size="14" lengthAdjust="spacing" textLength="154" x="249" y="202.667">voorkeurstaal: object</text><line style="stroke:#181818;stroke-width:0.5;" x1="230" x2="469" y1="209.9688" y2="209.9688"/></g><!--class ExterneIdentificatie--><g id="elem_ExterneIdentificatie"><rect codeLine="17" fill="#F1F1F1" height="96.8906" id="ExterneIdentificatie" rx="2.5" ry="2.5" style="stroke:#181818;stroke-width:0.5;" width="219" x="505" y="64"/><ellipse cx="538.9" cy="80" fill="#ADD1B2" rx="11" ry="11" style="stroke:#181818;stroke-width:1.0;"/><path d="M541.2438,75.6719 C540.3063,75.2344 539.7125,75.0938 538.8375,75.0938 C536.2125,75.0938 534.2125,77.1719 534.2125,79.8906 L534.2125,81.0156 C534.2125,83.5938 536.3219,85.4844 539.2125,85.4844 C540.4313,85.4844 541.5875,85.1875 542.3375,84.6406 C542.9156,84.2344 543.2438,83.7813 543.2438,83.3906 C543.2438,82.9375 542.8531,82.5469 542.3844,82.5469 C542.1656,82.5469 541.9625,82.625 541.775,82.8125 C541.3219,83.2969 541.3219,83.2969 541.1344,83.3906 C540.7125,83.6563 540.025,83.7813 539.2594,83.7813 C537.2125,83.7813 535.9156,82.6875 535.9156,80.9844 L535.9156,79.8906 C535.9156,78.1094 537.1656,76.7969 538.9,76.7969 C539.4781,76.7969 540.0875,76.9531 540.5563,77.2031 C541.0406,77.4844 541.2125,77.7031 541.3063,78.1094 C541.3688,78.5156 541.4,78.6406 541.5406,78.7656 C541.6813,78.9063 541.9156,79.0156 542.1344,79.0156 C542.4,79.0156 542.6656,78.875 542.8375,78.6563 C542.9469,78.5 542.9781,78.3125 542.9781,77.8906 L542.9781,76.4688 C542.9781,76.0313 542.9625,75.9063 542.8688,75.75 C542.7125,75.4844 542.4313,75.3438 542.1344,75.3438 C541.8375,75.3438 541.6344,75.4375 541.4156,75.75 L541.2438,75.6719 Z " fill="#000000"/><text fill="#000000" font-family="sans-serif" font-size="14" lengthAdjust="spacing" textLength="145" x="557.1" y="84.8467">ExterneIdentificatie</text><line style="stroke:#181818;stroke-width:0.5;" x1="506" x2="723" y1="96" y2="96"/><ellipse cx="516" cy="109.6484" fill="none" rx="3" ry="3" style="stroke:#038048;stroke-width:1.0;"/><text fill="#000000" font-family="sans-serif" font-size="14" lengthAdjust="spacing" textLength="193" x="525" y="112.9951">anderSoortExternId: string</text><ellipse cx="516" cy="125.9453" fill="none" rx="3" ry="3" style="stroke:#038048;stroke-width:1.0;"/><text fill="#000000" font-family="sans-serif" font-size="14" lengthAdjust="spacing" textLength="112" x="525" y="129.292">externId: string</text><ellipse cx="516" cy="142.2422" fill="none" rx="3" ry="3" style="stroke:#038048;stroke-width:1.0;"/><text fill="#000000" font-family="sans-serif" font-size="14" lengthAdjust="spacing" textLength="155" x="525" y="145.5889">soortExternId: object</text><line style="stroke:#181818;stroke-width:0.5;" x1="506" x2="723" y1="152.8906" y2="152.8906"/></g><!--class Land--><g id="elem_Land"><rect codeLine="22" fill="#F1F1F1" height="113.1875" id="Land" rx="2.5" ry="2.5" style="stroke:#181818;stroke-width:0.5;" width="203" x="759" y="56"/><ellipse cx="839.25" cy="72" fill="#ADD1B2" rx="11" ry="11" style="stroke:#181818;stroke-width:1.0;"/><path d="M841.5938,67.6719 C840.6563,67.2344 840.0625,67.0938 839.1875,67.0938 C836.5625,67.0938 834.5625,69.1719 834.5625,71.8906 L834.5625,73.0156 C834.5625,75.5938 836.6719,77.4844 839.5625,77.4844 C840.7813,77.4844 841.9375,77.1875 842.6875,76.6406 C843.2656,76.2344 843.5938,75.7813 843.5938,75.3906 C843.5938,74.9375 843.2031,74.5469 842.7344,74.5469 C842.5156,74.5469 842.3125,74.625 842.125,74.8125 C841.6719,75.2969 841.6719,75.2969 841.4844,75.3906 C841.0625,75.6563 840.375,75.7813 839.6094,75.7813 C837.5625,75.7813 836.2656,74.6875 836.2656,72.9844 L836.2656,71.8906 C836.2656,70.1094 837.5156,68.7969 839.25,68.7969 C839.8281,68.7969 840.4375,68.9531 840.9063,69.2031 C841.3906,69.4844 841.5625,69.7031 841.6563,70.1094 C841.7188,70.5156 841.75,70.6406 841.8906,70.7656 C842.0313,70.9063 842.2656,71.0156 842.4844,71.0156 C842.75,71.0156 843.0156,70.875 843.1875,70.6563 C843.2969,70.5 843.3281,70.3125 843.3281,69.8906 L843.3281,68.4688 C843.3281,68.0313 843.3125,67.9063 843.2188,67.75 C843.0625,67.4844 842.7813,67.3438 842.4844,67.3438 C842.1875,67.3438 841.9844,67.4375 841.7656,67.75 L841.5938,67.6719 Z " fill="#000000"/><text fill="#000000" font-family="sans-serif" font-size="14" lengthAdjust="spacing" textLength="34" x="859.75" y="76.8467">Land</text><line style="stroke:#181818;stroke-width:0.5;" x1="760" x2="961" y1="88" y2="88"/><ellipse cx="770" cy="101.6484" fill="none" rx="3" ry="3" style="stroke:#038048;stroke-width:1.0;"/><text fill="#000000" font-family="sans-serif" font-size="14" lengthAdjust="spacing" textLength="153" x="779" y="104.9951">einddatumLand: date</text><ellipse cx="770" cy="117.9453" fill="none" rx="3" ry="3" style="stroke:#038048;stroke-width:1.0;"/><text fill="#000000" font-family="sans-serif" font-size="14" lengthAdjust="spacing" textLength="177" x="779" y="121.292">ingangsdatumLand: date</text><ellipse cx="770" cy="134.2422" fill="none" rx="3" ry="3" style="stroke:#038048;stroke-width:1.0;"/><text fill="#000000" font-family="sans-serif" font-size="14" lengthAdjust="spacing" textLength="116" x="779" y="137.5889">landcode: string</text><ellipse cx="770" cy="150.5391" fill="none" rx="3" ry="3" style="stroke:#038048;stroke-width:1.0;"/><text fill="#000000" font-family="sans-serif" font-size="14" lengthAdjust="spacing" textLength="120" x="779" y="153.8857">landnaam: string</text><line style="stroke:#181818;stroke-width:0.5;" x1="760" x2="961" y1="161.1875" y2="161.1875"/></g><!--class Medewerker--><g id="elem_Medewerker"><rect codeLine="28" fill="#F1F1F1" height="162.0781" id="Medewerker" rx="2.5" ry="2.5" style="stroke:#181818;stroke-width:0.5;" width="199" x="36" y="335"/><ellipse cx="86.75" cy="351" fill="#ADD1B2" rx="11" ry="11" style="stroke:#181818;stroke-width:1.0;"/><path d="M89.0938,346.6719 C88.1563,346.2344 87.5625,346.0938 86.6875,346.0938 C84.0625,346.0938 82.0625,348.1719 82.0625,350.8906 L82.0625,352.0156 C82.0625,354.5938 84.1719,356.4844 87.0625,356.4844 C88.2813,356.4844 89.4375,356.1875 90.1875,355.6406 C90.7656,355.2344 91.0938,354.7813 91.0938,354.3906 C91.0938,353.9375 90.7031,353.5469 90.2344,353.5469 C90.0156,353.5469 89.8125,353.625 89.625,353.8125 C89.1719,354.2969 89.1719,354.2969 88.9844,354.3906 C88.5625,354.6563 87.875,354.7813 87.1094,354.7813 C85.0625,354.7813 83.7656,353.6875 83.7656,351.9844 L83.7656,350.8906 C83.7656,349.1094 85.0156,347.7969 86.75,347.7969 C87.3281,347.7969 87.9375,347.9531 88.4063,348.2031 C88.8906,348.4844 89.0625,348.7031 89.1563,349.1094 C89.2188,349.5156 89.25,349.6406 89.3906,349.7656 C89.5313,349.9063 89.7656,350.0156 89.9844,350.0156 C90.25,350.0156 90.5156,349.875 90.6875,349.6563 C90.7969,349.5 90.8281,349.3125 90.8281,348.8906 L90.8281,347.4688 C90.8281,347.0313 90.8125,346.9063 90.7188,346.75 C90.5625,346.4844 90.2813,346.3438 89.9844,346.3438 C89.6875,346.3438 89.4844,346.4375 89.2656,346.75 L89.0938,346.6719 Z " fill="#000000"/><text fill="#000000" font-family="sans-serif" font-size="14" lengthAdjust="spacing" textLength="89" x="107.25" y="355.8467">Medewerker</text><line style="stroke:#181818;stroke-width:0.5;" x1="37" x2="234" y1="367" y2="367"/><ellipse cx="47" cy="380.6484" fill="none" rx="3" ry="3" style="stroke:#038048;stroke-width:1.0;"/><text fill="#000000" font-family="sans-serif" font-size="14" lengthAdjust="spacing" textLength="151" x="56" y="383.9951">klantcontactId: array</text><ellipse cx="47" cy="396.9453" fill="none" rx="3" ry="3" style="stroke:#038048;stroke-width:1.0;"/><text fill="#000000" font-family="sans-serif" font-size="14" lengthAdjust="spacing" textLength="90" x="56" y="400.292">naam: string</text><ellipse cx="47" cy="413.2422" fill="none" rx="3" ry="3" style="stroke:#038048;stroke-width:1.0;"/><text fill="#000000" font-family="sans-serif" font-size="14" lengthAdjust="spacing" textLength="127" x="56" y="416.5889">eMailadres: string</text><ellipse cx="47" cy="429.5391" fill="none" rx="3" ry="3" style="stroke:#038048;stroke-width:1.0;"/><text fill="#000000" font-family="sans-serif" font-size="14" lengthAdjust="spacing" textLength="112" x="56" y="432.8857">externId: string</text><ellipse cx="47" cy="445.8359" fill="none" rx="3" ry="3" style="stroke:#038048;stroke-width:1.0;"/><text fill="#000000" font-family="sans-serif" font-size="14" lengthAdjust="spacing" textLength="160" x="56" y="449.1826">externRegister: string</text><ellipse cx="47" cy="462.1328" fill="none" rx="3" ry="3" style="stroke:#038048;stroke-width:1.0;"/><text fill="#000000" font-family="sans-serif" font-size="14" lengthAdjust="spacing" textLength="102" x="56" y="465.4795">functie: string</text><ellipse cx="47" cy="478.4297" fill="none" rx="3" ry="3" style="stroke:#038048;stroke-width:1.0;"/><text fill="#000000" font-family="sans-serif" font-size="14" lengthAdjust="spacing" textLength="173" x="56" y="481.7764">telefoonnummer: string</text><line style="stroke:#181818;stroke-width:0.5;" x1="37" x2="234" y1="489.0781" y2="489.0781"/></g><!--class Correspondentieadres--><g id="elem_Correspondentieadres"><rect codeLine="37" fill="#F1F1F1" height="276.1563" id="Correspondentieadres" rx="2.5" ry="2.5" style="stroke:#181818;stroke-width:0.5;" width="276" x="270.5" y="278"/><ellipse cx="323.75" cy="294" fill="#ADD1B2" rx="11" ry="11" style="stroke:#181818;stroke-width:1.0;"/><path d="M326.0938,289.6719 C325.1563,289.2344 324.5625,289.0938 323.6875,289.0938 C321.0625,289.0938 319.0625,291.1719 319.0625,293.8906 L319.0625,295.0156 C319.0625,297.5938 321.1719,299.4844 324.0625,299.4844 C325.2813,299.4844 326.4375,299.1875 327.1875,298.6406 C327.7656,298.2344 328.0938,297.7813 328.0938,297.3906 C328.0938,296.9375 327.7031,296.5469 327.2344,296.5469 C327.0156,296.5469 326.8125,296.625 326.625,296.8125 C326.1719,297.2969 326.1719,297.2969 325.9844,297.3906 C325.5625,297.6563 324.875,297.7813 324.1094,297.7813 C322.0625,297.7813 320.7656,296.6875 320.7656,294.9844 L320.7656,293.8906 C320.7656,292.1094 322.0156,290.7969 323.75,290.7969 C324.3281,290.7969 324.9375,290.9531 325.4063,291.2031 C325.8906,291.4844 326.0625,291.7031 326.1563,292.1094 C326.2188,292.5156 326.25,292.6406 326.3906,292.7656 C326.5313,292.9063 326.7656,293.0156 326.9844,293.0156 C327.25,293.0156 327.5156,292.875 327.6875,292.6563 C327.7969,292.5 327.8281,292.3125 327.8281,291.8906 L327.8281,290.4688 C327.8281,290.0313 327.8125,289.9063 327.7188,289.75 C327.5625,289.4844 327.2813,289.3438 326.9844,289.3438 C326.6875,289.3438 326.4844,289.4375 326.2656,289.75 L326.0938,289.6719 Z " fill="#000000"/><text fill="#000000" font-family="sans-serif" font-size="14" lengthAdjust="spacing" textLength="161" x="344.25" y="298.8467">Correspondentieadres</text><line style="stroke:#181818;stroke-width:0.5;" x1="271.5" x2="545.5" y1="310" y2="310"/><ellipse cx="281.5" cy="323.6484" fill="none" rx="3" ry="3" style="stroke:#038048;stroke-width:1.0;"/><text fill="#000000" font-family="sans-serif" font-size="14" lengthAdjust="spacing" textLength="235" x="290.5" y="326.9951">aanduidingBijHuisnummer: string</text><ellipse cx="281.5" cy="339.9453" fill="none" rx="3" ry="3" style="stroke:#038048;stroke-width:1.0;"/><text fill="#000000" font-family="sans-serif" font-size="14" lengthAdjust="spacing" textLength="213" x="290.5" y="343.292">adresregelBuitenland1: string</text><ellipse cx="281.5" cy="356.2422" fill="none" rx="3" ry="3" style="stroke:#038048;stroke-width:1.0;"/><text fill="#000000" font-family="sans-serif" font-size="14" lengthAdjust="spacing" textLength="212" x="290.5" y="359.5889">adresregelBuitenland2: string</text><ellipse cx="281.5" cy="372.5391" fill="none" rx="3" ry="3" style="stroke:#038048;stroke-width:1.0;"/><text fill="#000000" font-family="sans-serif" font-size="14" lengthAdjust="spacing" textLength="213" x="290.5" y="375.8857">adresregelBuitenland3: string</text><ellipse cx="281.5" cy="388.8359" fill="none" rx="3" ry="3" style="stroke:#038048;stroke-width:1.0;"/><text fill="#000000" font-family="sans-serif" font-size="14" lengthAdjust="spacing" textLength="190" x="290.5" y="392.1826">antwoordnummer: integer</text><ellipse cx="281.5" cy="405.1328" fill="none" rx="3" ry="3" style="stroke:#038048;stroke-width:1.0;"/><text fill="#000000" font-family="sans-serif" font-size="14" lengthAdjust="spacing" textLength="121" x="290.5" y="408.4795">huisletter: string</text><ellipse cx="281.5" cy="421.4297" fill="none" rx="3" ry="3" style="stroke:#038048;stroke-width:1.0;"/><text fill="#000000" font-family="sans-serif" font-size="14" lengthAdjust="spacing" textLength="150" x="290.5" y="424.7764">huisnummer: integer</text><ellipse cx="281.5" cy="437.7266" fill="none" rx="3" ry="3" style="stroke:#038048;stroke-width:1.0;"/><text fill="#000000" font-family="sans-serif" font-size="14" lengthAdjust="spacing" textLength="221" x="290.5" y="441.0732">huisnummertoevoeging: string</text><ellipse cx="281.5" cy="454.0234" fill="none" rx="3" ry="3" style="stroke:#038048;stroke-width:1.0;"/><text fill="#000000" font-family="sans-serif" font-size="14" lengthAdjust="spacing" textLength="86" x="290.5" y="457.3701">land: object</text><ellipse cx="281.5" cy="470.3203" fill="none" rx="3" ry="3" style="stroke:#038048;stroke-width:1.0;"/><text fill="#000000" font-family="sans-serif" font-size="14" lengthAdjust="spacing" textLength="180" x="290.5" y="473.667">postbusnummer: integer</text><ellipse cx="281.5" cy="486.6172" fill="none" rx="3" ry="3" style="stroke:#038048;stroke-width:1.0;"/><text fill="#000000" font-family="sans-serif" font-size="14" lengthAdjust="spacing" textLength="119" x="290.5" y="489.9639">postcode: string</text><ellipse cx="281.5" cy="502.9141" fill="none" rx="3" ry="3" style="stroke:#038048;stroke-width:1.0;"/><text fill="#000000" font-family="sans-serif" font-size="14" lengthAdjust="spacing" textLength="250" x="290.5" y="506.2607">soortCorrespondentieadres: string</text><ellipse cx="281.5" cy="519.2109" fill="none" rx="3" ry="3" style="stroke:#038048;stroke-width:1.0;"/><text fill="#000000" font-family="sans-serif" font-size="14" lengthAdjust="spacing" textLength="94" x="290.5" y="522.5576">straat: string</text><ellipse cx="281.5" cy="535.5078" fill="none" rx="3" ry="3" style="stroke:#038048;stroke-width:1.0;"/><text fill="#000000" font-family="sans-serif" font-size="14" lengthAdjust="spacing" textLength="133" x="290.5" y="538.8545">woonplaats: string</text><line style="stroke:#181818;stroke-width:0.5;" x1="271.5" x2="545.5" y1="546.1563" y2="546.1563"/></g><!--class Bezoekadres--><g id="elem_Bezoekadres"><rect codeLine="53" fill="#F1F1F1" height="243.5625" id="Bezoekadres" rx="2.5" ry="2.5" style="stroke:#181818;stroke-width:0.5;" width="261" x="582" y="294"/><ellipse cx="661.75" cy="310" fill="#ADD1B2" rx="11" ry="11" style="stroke:#181818;stroke-width:1.0;"/><path d="M664.0938,305.6719 C663.1563,305.2344 662.5625,305.0938 661.6875,305.0938 C659.0625,305.0938 657.0625,307.1719 657.0625,309.8906 L657.0625,311.0156 C657.0625,313.5938 659.1719,315.4844 662.0625,315.4844 C663.2813,315.4844 664.4375,315.1875 665.1875,314.6406 C665.7656,314.2344 666.0938,313.7813 666.0938,313.3906 C666.0938,312.9375 665.7031,312.5469 665.2344,312.5469 C665.0156,312.5469 664.8125,312.625 664.625,312.8125 C664.1719,313.2969 664.1719,313.2969 663.9844,313.3906 C663.5625,313.6563 662.875,313.7813 662.1094,313.7813 C660.0625,313.7813 658.7656,312.6875 658.7656,310.9844 L658.7656,309.8906 C658.7656,308.1094 660.0156,306.7969 661.75,306.7969 C662.3281,306.7969 662.9375,306.9531 663.4063,307.2031 C663.8906,307.4844 664.0625,307.7031 664.1563,308.1094 C664.2188,308.5156 664.25,308.6406 664.3906,308.7656 C664.5313,308.9063 664.7656,309.0156 664.9844,309.0156 C665.25,309.0156 665.5156,308.875 665.6875,308.6563 C665.7969,308.5 665.8281,308.3125 665.8281,307.8906 L665.8281,306.4688 C665.8281,306.0313 665.8125,305.9063 665.7188,305.75 C665.5625,305.4844 665.2813,305.3438 664.9844,305.3438 C664.6875,305.3438 664.4844,305.4375 664.2656,305.75 L664.0938,305.6719 Z " fill="#000000"/><text fill="#000000" font-family="sans-serif" font-size="14" lengthAdjust="spacing" textLength="93" x="682.25" y="314.8467">Bezoekadres</text><line style="stroke:#181818;stroke-width:0.5;" x1="583" x2="842" y1="326" y2="326"/><ellipse cx="593" cy="339.6484" fill="none" rx="3" ry="3" style="stroke:#038048;stroke-width:1.0;"/><text fill="#000000" font-family="sans-serif" font-size="14" lengthAdjust="spacing" textLength="235" x="602" y="342.9951">aanduidingBijHuisnummer: string</text><ellipse cx="593" cy="355.9453" fill="none" rx="3" ry="3" style="stroke:#038048;stroke-width:1.0;"/><text fill="#000000" font-family="sans-serif" font-size="14" lengthAdjust="spacing" textLength="213" x="602" y="359.292">adresregelBuitenland1: string</text><ellipse cx="593" cy="372.2422" fill="none" rx="3" ry="3" style="stroke:#038048;stroke-width:1.0;"/><text fill="#000000" font-family="sans-serif" font-size="14" lengthAdjust="spacing" textLength="212" x="602" y="375.5889">adresregelBuitenland2: string</text><ellipse cx="593" cy="388.5391" fill="none" rx="3" ry="3" style="stroke:#038048;stroke-width:1.0;"/><text fill="#000000" font-family="sans-serif" font-size="14" lengthAdjust="spacing" textLength="213" x="602" y="391.8857">adresregelBuitenland3: string</text><ellipse cx="593" cy="404.8359" fill="none" rx="3" ry="3" style="stroke:#038048;stroke-width:1.0;"/><text fill="#000000" font-family="sans-serif" font-size="14" lengthAdjust="spacing" textLength="121" x="602" y="408.1826">huisletter: string</text><ellipse cx="593" cy="421.1328" fill="none" rx="3" ry="3" style="stroke:#038048;stroke-width:1.0;"/><text fill="#000000" font-family="sans-serif" font-size="14" lengthAdjust="spacing" textLength="150" x="602" y="424.4795">huisnummer: integer</text><ellipse cx="593" cy="437.4297" fill="none" rx="3" ry="3" style="stroke:#038048;stroke-width:1.0;"/><text fill="#000000" font-family="sans-serif" font-size="14" lengthAdjust="spacing" textLength="221" x="602" y="440.7764">huisnummertoevoeging: string</text><ellipse cx="593" cy="453.7266" fill="none" rx="3" ry="3" style="stroke:#038048;stroke-width:1.0;"/><text fill="#000000" font-family="sans-serif" font-size="14" lengthAdjust="spacing" textLength="86" x="602" y="457.0732">land: object</text><ellipse cx="593" cy="470.0234" fill="none" rx="3" ry="3" style="stroke:#038048;stroke-width:1.0;"/><text fill="#000000" font-family="sans-serif" font-size="14" lengthAdjust="spacing" textLength="119" x="602" y="473.3701">postcode: string</text><ellipse cx="593" cy="486.3203" fill="none" rx="3" ry="3" style="stroke:#038048;stroke-width:1.0;"/><text fill="#000000" font-family="sans-serif" font-size="14" lengthAdjust="spacing" textLength="182" x="602" y="489.667">soortBezoekadres: string</text><ellipse cx="593" cy="502.6172" fill="none" rx="3" ry="3" style="stroke:#038048;stroke-width:1.0;"/><text fill="#000000" font-family="sans-serif" font-size="14" lengthAdjust="spacing" textLength="94" x="602" y="505.9639">straat: string</text><ellipse cx="593" cy="518.9141" fill="none" rx="3" ry="3" style="stroke:#038048;stroke-width:1.0;"/><text fill="#000000" font-family="sans-serif" font-size="14" lengthAdjust="spacing" textLength="133" x="602" y="522.2607">woonplaats: string</text><line style="stroke:#181818;stroke-width:0.5;" x1="583" x2="842" y1="529.5625" y2="529.5625"/></g><!--class Actor--><g id="elem_Actor"><rect codeLine="67" fill="#F1F1F1" height="80.5938" id="Actor" rx="2.5" ry="2.5" style="stroke:#181818;stroke-width:0.5;" width="177" x="878" y="375.5"/><ellipse cx="942.25" cy="391.5" fill="#ADD1B2" rx="11" ry="11" style="stroke:#181818;stroke-width:1.0;"/><path d="M944.5938,387.1719 C943.6563,386.7344 943.0625,386.5938 942.1875,386.5938 C939.5625,386.5938 937.5625,388.6719 937.5625,391.3906 L937.5625,392.5156 C937.5625,395.0938 939.6719,396.9844 942.5625,396.9844 C943.7813,396.9844 944.9375,396.6875 945.6875,396.1406 C946.2656,395.7344 946.5938,395.2813 946.5938,394.8906 C946.5938,394.4375 946.2031,394.0469 945.7344,394.0469 C945.5156,394.0469 945.3125,394.125 945.125,394.3125 C944.6719,394.7969 944.6719,394.7969 944.4844,394.8906 C944.0625,395.1563 943.375,395.2813 942.6094,395.2813 C940.5625,395.2813 939.2656,394.1875 939.2656,392.4844 L939.2656,391.3906 C939.2656,389.6094 940.5156,388.2969 942.25,388.2969 C942.8281,388.2969 943.4375,388.4531 943.9063,388.7031 C944.3906,388.9844 944.5625,389.2031 944.6563,389.6094 C944.7188,390.0156 944.75,390.1406 944.8906,390.2656 C945.0313,390.4063 945.2656,390.5156 945.4844,390.5156 C945.75,390.5156 946.0156,390.375 946.1875,390.1563 C946.2969,390 946.3281,389.8125 946.3281,389.3906 L946.3281,387.9688 C946.3281,387.5313 946.3125,387.4063 946.2188,387.25 C946.0625,386.9844 945.7813,386.8438 945.4844,386.8438 C945.1875,386.8438 944.9844,386.9375 944.7656,387.25 L944.5938,387.1719 Z " fill="#000000"/><text fill="#000000" font-family="sans-serif" font-size="14" lengthAdjust="spacing" textLength="40" x="962.75" y="396.3467">Actor</text><line style="stroke:#181818;stroke-width:0.5;" x1="879" x2="1054" y1="407.5" y2="407.5"/><ellipse cx="889" cy="421.1484" fill="none" rx="3" ry="3" style="stroke:#038048;stroke-width:1.0;"/><text fill="#000000" font-family="sans-serif" font-size="14" lengthAdjust="spacing" textLength="151" x="898" y="424.4951">klantcontactId: array</text><ellipse cx="889" cy="437.4453" fill="none" rx="3" ry="3" style="stroke:#038048;stroke-width:1.0;"/><text fill="#000000" font-family="sans-serif" font-size="14" lengthAdjust="spacing" textLength="90" x="898" y="440.792">naam: string</text><line style="stroke:#181818;stroke-width:0.5;" x1="879" x2="1054" y1="448.0938" y2="448.0938"/></g><!--class Bijlage--><g id="elem_Bijlage"><rect codeLine="71" fill="#F1F1F1" height="129.4844" id="Bijlage" rx="2.5" ry="2.5" style="stroke:#181818;stroke-width:0.5;" width="257" x="7" y="638.5"/><ellipse cx="107.25" cy="654.5" fill="#ADD1B2" rx="11" ry="11" style="stroke:#181818;stroke-width:1.0;"/><path d="M109.5938,650.1719 C108.6563,649.7344 108.0625,649.5938 107.1875,649.5938 C104.5625,649.5938 102.5625,651.6719 102.5625,654.3906 L102.5625,655.5156 C102.5625,658.0938 104.6719,659.9844 107.5625,659.9844 C108.7813,659.9844 109.9375,659.6875 110.6875,659.1406 C111.2656,658.7344 111.5938,658.2813 111.5938,657.8906 C111.5938,657.4375 111.2031,657.0469 110.7344,657.0469 C110.5156,657.0469 110.3125,657.125 110.125,657.3125 C109.6719,657.7969 109.6719,657.7969 109.4844,657.8906 C109.0625,658.1563 108.375,658.2813 107.6094,658.2813 C105.5625,658.2813 104.2656,657.1875 104.2656,655.4844 L104.2656,654.3906 C104.2656,652.6094 105.5156,651.2969 107.25,651.2969 C107.8281,651.2969 108.4375,651.4531 108.9063,651.7031 C109.3906,651.9844 109.5625,652.2031 109.6563,652.6094 C109.7188,653.0156 109.75,653.1406 109.8906,653.2656 C110.0313,653.4063 110.2656,653.5156 110.4844,653.5156 C110.75,653.5156 111.0156,653.375 111.1875,653.1563 C111.2969,653 111.3281,652.8125 111.3281,652.3906 L111.3281,650.9688 C111.3281,650.5313 111.3125,650.4063 111.2188,650.25 C111.0625,649.9844 110.7813,649.8438 110.4844,649.8438 C110.1875,649.8438 109.9844,649.9375 109.7656,650.25 L109.5938,650.1719 Z " fill="#000000"/><text fill="#000000" font-family="sans-serif" font-size="14" lengthAdjust="spacing" textLength="48" x="127.75" y="659.3467">Bijlage</text><line style="stroke:#181818;stroke-width:0.5;" x1="8" x2="263" y1="670.5" y2="670.5"/><ellipse cx="18" cy="684.1484" fill="none" rx="3" ry="3" style="stroke:#038048;stroke-width:1.0;"/><text fill="#000000" font-family="sans-serif" font-size="14" lengthAdjust="spacing" textLength="112" x="27" y="687.4951">externId: string</text><ellipse cx="18" cy="700.4453" fill="none" rx="3" ry="3" style="stroke:#038048;stroke-width:1.0;"/><text fill="#000000" font-family="sans-serif" font-size="14" lengthAdjust="spacing" textLength="160" x="27" y="703.792">externRegister: string</text><ellipse cx="18" cy="716.7422" fill="none" rx="3" ry="3" style="stroke:#038048;stroke-width:1.0;"/><text fill="#000000" font-family="sans-serif" font-size="14" lengthAdjust="spacing" textLength="231" x="27" y="720.0889">indicatieWeerTeGeven: boolean</text><ellipse cx="18" cy="733.0391" fill="none" rx="3" ry="3" style="stroke:#038048;stroke-width:1.0;"/><text fill="#000000" font-family="sans-serif" font-size="14" lengthAdjust="spacing" textLength="157" x="27" y="736.3857">klantcontactId: string</text><ellipse cx="18" cy="749.3359" fill="none" rx="3" ry="3" style="stroke:#038048;stroke-width:1.0;"/><text fill="#000000" font-family="sans-serif" font-size="14" lengthAdjust="spacing" textLength="142" x="27" y="752.6826">omschrijving: string</text><line style="stroke:#181818;stroke-width:0.5;" x1="8" x2="263" y1="759.9844" y2="759.9844"/></g><!--class SoortExternId--><g id="elem_SoortExternId"><rect codeLine="78" fill="#F1F1F1" height="96.8906" id="SoortExternId" rx="2.5" ry="2.5" style="stroke:#181818;stroke-width:0.5;" width="186" x="299.5" y="654.5"/><ellipse cx="338.35" cy="670.5" fill="#ADD1B2" rx="11" ry="11" style="stroke:#181818;stroke-width:1.0;"/><path d="M340.6938,666.1719 C339.7563,665.7344 339.1625,665.5938 338.2875,665.5938 C335.6625,665.5938 333.6625,667.6719 333.6625,670.3906 L333.6625,671.5156 C333.6625,674.0938 335.7719,675.9844 338.6625,675.9844 C339.8813,675.9844 341.0375,675.6875 341.7875,675.1406 C342.3656,674.7344 342.6938,674.2813 342.6938,673.8906 C342.6938,673.4375 342.3031,673.0469 341.8344,673.0469 C341.6156,673.0469 341.4125,673.125 341.225,673.3125 C340.7719,673.7969 340.7719,673.7969 340.5844,673.8906 C340.1625,674.1563 339.475,674.2813 338.7094,674.2813 C336.6625,674.2813 335.3656,673.1875 335.3656,671.4844 L335.3656,670.3906 C335.3656,668.6094 336.6156,667.2969 338.35,667.2969 C338.9281,667.2969 339.5375,667.4531 340.0063,667.7031 C340.4906,667.9844 340.6625,668.2031 340.7563,668.6094 C340.8188,669.0156 340.85,669.1406 340.9906,669.2656 C341.1313,669.4063 341.3656,669.5156 341.5844,669.5156 C341.85,669.5156 342.1156,669.375 342.2875,669.1563 C342.3969,669 342.4281,668.8125 342.4281,668.3906 L342.4281,666.9688 C342.4281,666.5313 342.4125,666.4063 342.3188,666.25 C342.1625,665.9844 341.8813,665.8438 341.5844,665.8438 C341.2875,665.8438 341.0844,665.9375 340.8656,666.25 L340.6938,666.1719 Z " fill="#000000"/><text fill="#000000" font-family="sans-serif" font-size="14" lengthAdjust="spacing" textLength="101" x="357.65" y="675.3467">SoortExternId</text><line style="stroke:#181818;stroke-width:0.5;" x1="300.5" x2="484.5" y1="686.5" y2="686.5"/><ellipse cx="310.5" cy="700.1484" fill="none" rx="3" ry="3" style="stroke:#038048;stroke-width:1.0;"/><text fill="#000000" font-family="sans-serif" font-size="14" lengthAdjust="spacing" textLength="86" x="319.5" y="703.4951">code: string</text><ellipse cx="310.5" cy="716.4453" fill="none" rx="3" ry="3" style="stroke:#038048;stroke-width:1.0;"/><text fill="#000000" font-family="sans-serif" font-size="14" lengthAdjust="spacing" textLength="160" x="319.5" y="719.792">externRegister: string</text><ellipse cx="310.5" cy="732.7422" fill="none" rx="3" ry="3" style="stroke:#038048;stroke-width:1.0;"/><text fill="#000000" font-family="sans-serif" font-size="14" lengthAdjust="spacing" textLength="90" x="319.5" y="736.0889">naam: string</text><line style="stroke:#181818;stroke-width:0.5;" x1="300.5" x2="484.5" y1="743.3906" y2="743.3906"/></g><!--class OrganisatorischeEenheid--><g id="elem_OrganisatorischeEenheid"><rect codeLine="83" fill="#F1F1F1" height="178.375" id="OrganisatorischeEenheid" rx="2.5" ry="2.5" style="stroke:#181818;stroke-width:0.5;" width="211" x="521" y="614"/><ellipse cx="536" cy="630" fill="#ADD1B2" rx="11" ry="11" style="stroke:#181818;stroke-width:1.0;"/><path d="M538.3438,625.6719 C537.4063,625.2344 536.8125,625.0938 535.9375,625.0938 C533.3125,625.0938 531.3125,627.1719 531.3125,629.8906 L531.3125,631.0156 C531.3125,633.5938 533.4219,635.4844 536.3125,635.4844 C537.5313,635.4844 538.6875,635.1875 539.4375,634.6406 C540.0156,634.2344 540.3438,633.7813 540.3438,633.3906 C540.3438,632.9375 539.9531,632.5469 539.4844,632.5469 C539.2656,632.5469 539.0625,632.625 538.875,632.8125 C538.4219,633.2969 538.4219,633.2969 538.2344,633.3906 C537.8125,633.6563 537.125,633.7813 536.3594,633.7813 C534.3125,633.7813 533.0156,632.6875 533.0156,630.9844 L533.0156,629.8906 C533.0156,628.1094 534.2656,626.7969 536,626.7969 C536.5781,626.7969 537.1875,626.9531 537.6563,627.2031 C538.1406,627.4844 538.3125,627.7031 538.4063,628.1094 C538.4688,628.5156 538.5,628.6406 538.6406,628.7656 C538.7813,628.9063 539.0156,629.0156 539.2344,629.0156 C539.5,629.0156 539.7656,628.875 539.9375,628.6563 C540.0469,628.5 540.0781,628.3125 540.0781,627.8906 L540.0781,626.4688 C540.0781,626.0313 540.0625,625.9063 539.9688,625.75 C539.8125,625.4844 539.5313,625.3438 539.2344,625.3438 C538.9375,625.3438 538.7344,625.4375 538.5156,625.75 L538.3438,625.6719 Z " fill="#000000"/><text fill="#000000" font-family="sans-serif" font-size="14" lengthAdjust="spacing" textLength="179" x="550" y="634.8467">OrganisatorischeEenheid</text><line style="stroke:#181818;stroke-width:0.5;" x1="522" x2="731" y1="646" y2="646"/><ellipse cx="532" cy="659.6484" fill="none" rx="3" ry="3" style="stroke:#038048;stroke-width:1.0;"/><text fill="#000000" font-family="sans-serif" font-size="14" lengthAdjust="spacing" textLength="151" x="541" y="662.9951">klantcontactId: array</text><ellipse cx="532" cy="675.9453" fill="none" rx="3" ry="3" style="stroke:#038048;stroke-width:1.0;"/><text fill="#000000" font-family="sans-serif" font-size="14" lengthAdjust="spacing" textLength="90" x="541" y="679.292">naam: string</text><ellipse cx="532" cy="692.2422" fill="none" rx="3" ry="3" style="stroke:#038048;stroke-width:1.0;"/><text fill="#000000" font-family="sans-serif" font-size="14" lengthAdjust="spacing" textLength="127" x="541" y="695.5889">eMailadres: string</text><ellipse cx="532" cy="708.5391" fill="none" rx="3" ry="3" style="stroke:#038048;stroke-width:1.0;"/><text fill="#000000" font-family="sans-serif" font-size="14" lengthAdjust="spacing" textLength="112" x="541" y="711.8857">externId: string</text><ellipse cx="532" cy="724.8359" fill="none" rx="3" ry="3" style="stroke:#038048;stroke-width:1.0;"/><text fill="#000000" font-family="sans-serif" font-size="14" lengthAdjust="spacing" textLength="160" x="541" y="728.1826">externRegister: string</text><ellipse cx="532" cy="741.1328" fill="none" rx="3" ry="3" style="stroke:#038048;stroke-width:1.0;"/><text fill="#000000" font-family="sans-serif" font-size="14" lengthAdjust="spacing" textLength="133" x="541" y="744.4795">faxnummer: string</text><ellipse cx="532" cy="757.4297" fill="none" rx="3" ry="3" style="stroke:#038048;stroke-width:1.0;"/><text fill="#000000" font-family="sans-serif" font-size="14" lengthAdjust="spacing" textLength="142" x="541" y="760.7764">omschrijving: string</text><ellipse cx="532" cy="773.7266" fill="none" rx="3" ry="3" style="stroke:#038048;stroke-width:1.0;"/><text fill="#000000" font-family="sans-serif" font-size="14" lengthAdjust="spacing" textLength="173" x="541" y="777.0732">telefoonnummer: string</text><line style="stroke:#181818;stroke-width:0.5;" x1="522" x2="731" y1="784.375" y2="784.375"/></g><!--class DigitaalAdres--><g id="elem_DigitaalAdres"><rect codeLine="93" fill="#F1F1F1" height="96.8906" id="DigitaalAdres" rx="2.5" ry="2.5" style="stroke:#181818;stroke-width:0.5;" width="216" x="767.5" y="654.5"/><ellipse cx="823.25" cy="670.5" fill="#ADD1B2" rx="11" ry="11" style="stroke:#181818;stroke-width:1.0;"/><path d="M825.5938,666.1719 C824.6563,665.7344 824.0625,665.5938 823.1875,665.5938 C820.5625,665.5938 818.5625,667.6719 818.5625,670.3906 L818.5625,671.5156 C818.5625,674.0938 820.6719,675.9844 823.5625,675.9844 C824.7813,675.9844 825.9375,675.6875 826.6875,675.1406 C827.2656,674.7344 827.5938,674.2813 827.5938,673.8906 C827.5938,673.4375 827.2031,673.0469 826.7344,673.0469 C826.5156,673.0469 826.3125,673.125 826.125,673.3125 C825.6719,673.7969 825.6719,673.7969 825.4844,673.8906 C825.0625,674.1563 824.375,674.2813 823.6094,674.2813 C821.5625,674.2813 820.2656,673.1875 820.2656,671.4844 L820.2656,670.3906 C820.2656,668.6094 821.5156,667.2969 823.25,667.2969 C823.8281,667.2969 824.4375,667.4531 824.9063,667.7031 C825.3906,667.9844 825.5625,668.2031 825.6563,668.6094 C825.7188,669.0156 825.75,669.1406 825.8906,669.2656 C826.0313,669.4063 826.2656,669.5156 826.4844,669.5156 C826.75,669.5156 827.0156,669.375 827.1875,669.1563 C827.2969,669 827.3281,668.8125 827.3281,668.3906 L827.3281,666.9688 C827.3281,666.5313 827.3125,666.4063 827.2188,666.25 C827.0625,665.9844 826.7813,665.8438 826.4844,665.8438 C826.1875,665.8438 825.9844,665.9375 825.7656,666.25 L825.5938,666.1719 Z " fill="#000000"/><text fill="#000000" font-family="sans-serif" font-size="14" lengthAdjust="spacing" textLength="96" x="843.75" y="675.3467">DigitaalAdres</text><line style="stroke:#181818;stroke-width:0.5;" x1="768.5" x2="982.5" y1="686.5" y2="686.5"/><ellipse cx="778.5" cy="700.1484" fill="none" rx="3" ry="3" style="stroke:#038048;stroke-width:1.0;"/><text fill="#000000" font-family="sans-serif" font-size="14" lengthAdjust="spacing" textLength="90" x="787.5" y="703.4951">adres: string</text><ellipse cx="778.5" cy="716.4453" fill="none" rx="3" ry="3" style="stroke:#038048;stroke-width:1.0;"/><text fill="#000000" font-family="sans-serif" font-size="14" lengthAdjust="spacing" textLength="142" x="787.5" y="719.792">omschrijving: string</text><ellipse cx="778.5" cy="732.7422" fill="none" rx="3" ry="3" style="stroke:#038048;stroke-width:1.0;"/><text fill="#000000" font-family="sans-serif" font-size="14" lengthAdjust="spacing" textLength="190" x="787.5" y="736.0889">soortDigitaalAdres: object</text><line style="stroke:#181818;stroke-width:0.5;" x1="768.5" x2="982.5" y1="743.3906" y2="743.3906"/></g><!--class Persoonsnaam--><g id="elem_Persoonsnaam"><rect codeLine="98" fill="#F1F1F1" height="96.8906" id="Persoonsnaam" rx="2.5" ry="2.5" style="stroke:#181818;stroke-width:0.5;" width="252" x="9.5" y="925.5"/><ellipse cx="79.25" cy="941.5" fill="#ADD1B2" rx="11" ry="11" style="stroke:#181818;stroke-width:1.0;"/><path d="M81.5938,937.1719 C80.6563,936.7344 80.0625,936.5938 79.1875,936.5938 C76.5625,936.5938 74.5625,938.6719 74.5625,941.3906 L74.5625,942.5156 C74.5625,945.0938 76.6719,946.9844 79.5625,946.9844 C80.7813,946.9844 81.9375,946.6875 82.6875,946.1406 C83.2656,945.7344 83.5938,945.2813 83.5938,944.8906 C83.5938,944.4375 83.2031,944.0469 82.7344,944.0469 C82.5156,944.0469 82.3125,944.125 82.125,944.3125 C81.6719,944.7969 81.6719,944.7969 81.4844,944.8906 C81.0625,945.1563 80.375,945.2813 79.6094,945.2813 C77.5625,945.2813 76.2656,944.1875 76.2656,942.4844 L76.2656,941.3906 C76.2656,939.6094 77.5156,938.2969 79.25,938.2969 C79.8281,938.2969 80.4375,938.4531 80.9063,938.7031 C81.3906,938.9844 81.5625,939.2031 81.6563,939.6094 C81.7188,940.0156 81.75,940.1406 81.8906,940.2656 C82.0313,940.4063 82.2656,940.5156 82.4844,940.5156 C82.75,940.5156 83.0156,940.375 83.1875,940.1563 C83.2969,940 83.3281,939.8125 83.3281,939.3906 L83.3281,937.9688 C83.3281,937.5313 83.3125,937.4063 83.2188,937.25 C83.0625,936.9844 82.7813,936.8438 82.4844,936.8438 C82.1875,936.8438 81.9844,936.9375 81.7656,937.25 L81.5938,937.1719 Z " fill="#000000"/><text fill="#000000" font-family="sans-serif" font-size="14" lengthAdjust="spacing" textLength="104" x="99.75" y="946.3467">Persoonsnaam</text><line style="stroke:#181818;stroke-width:0.5;" x1="10.5" x2="260.5" y1="957.5" y2="957.5"/><ellipse cx="20.5" cy="971.1484" fill="none" rx="3" ry="3" style="stroke:#038048;stroke-width:1.0;"/><text fill="#000000" font-family="sans-serif" font-size="14" lengthAdjust="spacing" textLength="137" x="29.5" y="974.4951">achternaam: string</text><ellipse cx="20.5" cy="987.4453" fill="none" rx="3" ry="3" style="stroke:#038048;stroke-width:1.0;"/><text fill="#000000" font-family="sans-serif" font-size="14" lengthAdjust="spacing" textLength="122" x="29.5" y="990.792">voornaam: string</text><ellipse cx="20.5" cy="1003.7422" fill="none" rx="3" ry="3" style="stroke:#038048;stroke-width:1.0;"/><text fill="#000000" font-family="sans-serif" font-size="14" lengthAdjust="spacing" textLength="226" x="29.5" y="1007.0889">voorvoegselAchternaam: string</text><line style="stroke:#181818;stroke-width:0.5;" x1="10.5" x2="260.5" y1="1014.3906" y2="1014.3906"/></g><!--class InterneTaak--><g id="elem_InterneTaak"><rect codeLine="103" fill="#F1F1F1" height="129.4844" id="InterneTaak" rx="2.5" ry="2.5" style="stroke:#181818;stroke-width:0.5;" width="223" x="297" y="909.5"/><ellipse cx="360.75" cy="925.5" fill="#ADD1B2" rx="11" ry="11" style="stroke:#181818;stroke-width:1.0;"/><path d="M363.0938,921.1719 C362.1563,920.7344 361.5625,920.5938 360.6875,920.5938 C358.0625,920.5938 356.0625,922.6719 356.0625,925.3906 L356.0625,926.5156 C356.0625,929.0938 358.1719,930.9844 361.0625,930.9844 C362.2813,930.9844 363.4375,930.6875 364.1875,930.1406 C364.7656,929.7344 365.0938,929.2813 365.0938,928.8906 C365.0938,928.4375 364.7031,928.0469 364.2344,928.0469 C364.0156,928.0469 363.8125,928.125 363.625,928.3125 C363.1719,928.7969 363.1719,928.7969 362.9844,928.8906 C362.5625,929.1563 361.875,929.2813 361.1094,929.2813 C359.0625,929.2813 357.7656,928.1875 357.7656,926.4844 L357.7656,925.3906 C357.7656,923.6094 359.0156,922.2969 360.75,922.2969 C361.3281,922.2969 361.9375,922.4531 362.4063,922.7031 C362.8906,922.9844 363.0625,923.2031 363.1563,923.6094 C363.2188,924.0156 363.25,924.1406 363.3906,924.2656 C363.5313,924.4063 363.7656,924.5156 363.9844,924.5156 C364.25,924.5156 364.5156,924.375 364.6875,924.1563 C364.7969,924 364.8281,923.8125 364.8281,923.3906 L364.8281,921.9688 C364.8281,921.5313 364.8125,921.4063 364.7188,921.25 C364.5625,920.9844 364.2813,920.8438 363.9844,920.8438 C363.6875,920.8438 363.4844,920.9375 363.2656,921.25 L363.0938,921.1719 Z " fill="#000000"/><text fill="#000000" font-family="sans-serif" font-size="14" lengthAdjust="spacing" textLength="87" x="381.25" y="930.3467">InterneTaak</text><line style="stroke:#181818;stroke-width:0.5;" x1="298" x2="519" y1="941.5" y2="941.5"/><ellipse cx="308" cy="955.1484" fill="none" rx="3" ry="3" style="stroke:#038048;stroke-width:1.0;"/><text fill="#000000" font-family="sans-serif" font-size="14" lengthAdjust="spacing" textLength="102" x="317" y="958.4951">actorId: string</text><ellipse cx="308" cy="971.4453" fill="none" rx="3" ry="3" style="stroke:#038048;stroke-width:1.0;"/><text fill="#000000" font-family="sans-serif" font-size="14" lengthAdjust="spacing" textLength="196" x="317" y="974.792">geregistreerdOp: datetime</text><ellipse cx="308" cy="987.7422" fill="none" rx="3" ry="3" style="stroke:#038048;stroke-width:1.0;"/><text fill="#000000" font-family="sans-serif" font-size="14" lengthAdjust="spacing" textLength="197" x="317" y="991.0889">gevraagdeHandeling: string</text><ellipse cx="308" cy="1004.0391" fill="none" rx="3" ry="3" style="stroke:#038048;stroke-width:1.0;"/><text fill="#000000" font-family="sans-serif" font-size="14" lengthAdjust="spacing" textLength="122" x="317" y="1007.3857">nummer: integer</text><ellipse cx="308" cy="1020.3359" fill="none" rx="3" ry="3" style="stroke:#038048;stroke-width:1.0;"/><text fill="#000000" font-family="sans-serif" font-size="14" lengthAdjust="spacing" textLength="95" x="317" y="1023.6826">status: string</text><line style="stroke:#181818;stroke-width:0.5;" x1="298" x2="519" y1="1030.9844" y2="1030.9844"/></g><!--class Klantcontact--><g id="elem_Klantcontact"><rect codeLine="110" fill="#F1F1F1" height="243.5625" id="Klantcontact" rx="2.5" ry="2.5" style="stroke:#181818;stroke-width:0.5;" width="248" x="555.5" y="852"/><ellipse cx="628.25" cy="868" fill="#ADD1B2" rx="11" ry="11" style="stroke:#181818;stroke-width:1.0;"/><path d="M630.5938,863.6719 C629.6563,863.2344 629.0625,863.0938 628.1875,863.0938 C625.5625,863.0938 623.5625,865.1719 623.5625,867.8906 L623.5625,869.0156 C623.5625,871.5938 625.6719,873.4844 628.5625,873.4844 C629.7813,873.4844 630.9375,873.1875 631.6875,872.6406 C632.2656,872.2344 632.5938,871.7813 632.5938,871.3906 C632.5938,870.9375 632.2031,870.5469 631.7344,870.5469 C631.5156,870.5469 631.3125,870.625 631.125,870.8125 C630.6719,871.2969 630.6719,871.2969 630.4844,871.3906 C630.0625,871.6563 629.375,871.7813 628.6094,871.7813 C626.5625,871.7813 625.2656,870.6875 625.2656,868.9844 L625.2656,867.8906 C625.2656,866.1094 626.5156,864.7969 628.25,864.7969 C628.8281,864.7969 629.4375,864.9531 629.9063,865.2031 C630.3906,865.4844 630.5625,865.7031 630.6563,866.1094 C630.7188,866.5156 630.75,866.6406 630.8906,866.7656 C631.0313,866.9063 631.2656,867.0156 631.4844,867.0156 C631.75,867.0156 632.0156,866.875 632.1875,866.6563 C632.2969,866.5 632.3281,866.3125 632.3281,865.8906 L632.3281,864.4688 C632.3281,864.0313 632.3125,863.9063 632.2188,863.75 C632.0625,863.4844 631.7813,863.3438 631.4844,863.3438 C631.1875,863.3438 630.9844,863.4375 630.7656,863.75 L630.5938,863.6719 Z " fill="#000000"/><text fill="#000000" font-family="sans-serif" font-size="14" lengthAdjust="spacing" textLength="94" x="648.75" y="872.8467">Klantcontact</text><line style="stroke:#181818;stroke-width:0.5;" x1="556.5" x2="802.5" y1="884" y2="884"/><ellipse cx="566.5" cy="897.6484" fill="none" rx="3" ry="3" style="stroke:#038048;stroke-width:1.0;"/><text fill="#000000" font-family="sans-serif" font-size="14" lengthAdjust="spacing" textLength="102" x="575.5" y="900.9951">actorId: string</text><ellipse cx="566.5" cy="913.9453" fill="none" rx="3" ry="3" style="stroke:#038048;stroke-width:1.0;"/><text fill="#000000" font-family="sans-serif" font-size="14" lengthAdjust="spacing" textLength="112" x="575.5" y="917.292">bijlageId: string</text><ellipse cx="566.5" cy="930.2422" fill="none" rx="3" ry="3" style="stroke:#038048;stroke-width:1.0;"/><text fill="#000000" font-family="sans-serif" font-size="14" lengthAdjust="spacing" textLength="211" x="575.5" y="933.5889">gaatOverInterneTaakId: array</text><ellipse cx="566.5" cy="946.5391" fill="none" rx="3" ry="3" style="stroke:#038048;stroke-width:1.0;"/><text fill="#000000" font-family="sans-serif" font-size="14" lengthAdjust="spacing" textLength="196" x="575.5" y="949.8857">geregistreerdOp: datetime</text><ellipse cx="566.5" cy="962.8359" fill="none" rx="3" ry="3" style="stroke:#038048;stroke-width:1.0;"/><text fill="#000000" font-family="sans-serif" font-size="14" lengthAdjust="spacing" textLength="222" x="575.5" y="966.1826">indicatieContactMislukt: string</text><ellipse cx="566.5" cy="979.1328" fill="none" rx="3" ry="3" style="stroke:#038048;stroke-width:1.0;"/><text fill="#000000" font-family="sans-serif" font-size="14" lengthAdjust="spacing" textLength="99" x="575.5" y="982.4795">inhoud: string</text><ellipse cx="566.5" cy="995.4297" fill="none" rx="3" ry="3" style="stroke:#038048;stroke-width:1.0;"/><text fill="#000000" font-family="sans-serif" font-size="14" lengthAdjust="spacing" textLength="160" x="575.5" y="998.7764">initiatiefnemer: string</text><ellipse cx="566.5" cy="1011.7266" fill="none" rx="3" ry="3" style="stroke:#038048;stroke-width:1.0;"/><text fill="#000000" font-family="sans-serif" font-size="14" lengthAdjust="spacing" textLength="218" x="575.5" y="1015.0732">interneTaakOntstaanUit: array</text><ellipse cx="566.5" cy="1028.0234" fill="none" rx="3" ry="3" style="stroke:#038048;stroke-width:1.0;"/><text fill="#000000" font-family="sans-serif" font-size="14" lengthAdjust="spacing" textLength="102" x="575.5" y="1031.3701">kanaal: object</text><ellipse cx="566.5" cy="1044.3203" fill="none" rx="3" ry="3" style="stroke:#038048;stroke-width:1.0;"/><text fill="#000000" font-family="sans-serif" font-size="14" lengthAdjust="spacing" textLength="122" x="575.5" y="1047.667">nummer: integer</text><ellipse cx="566.5" cy="1060.6172" fill="none" rx="3" ry="3" style="stroke:#038048;stroke-width:1.0;"/><text fill="#000000" font-family="sans-serif" font-size="14" lengthAdjust="spacing" textLength="129" x="575.5" y="1063.9639">onderwerp: string</text><ellipse cx="566.5" cy="1076.9141" fill="none" rx="3" ry="3" style="stroke:#038048;stroke-width:1.0;"/><text fill="#000000" font-family="sans-serif" font-size="14" lengthAdjust="spacing" textLength="212" x="575.5" y="1080.2607">plaatsgevondenOp: datetime</text><line style="stroke:#181818;stroke-width:0.5;" x1="556.5" x2="802.5" y1="1087.5625" y2="1087.5625"/></g><!--class BetrokkeneBijKlantcontact--><g id="elem_BetrokkeneBijKlantcontact"><rect codeLine="124" fill="#F1F1F1" height="194.6719" id="BetrokkeneBijKlantcontact" rx="2.5" ry="2.5" style="stroke:#181818;stroke-width:0.5;" width="241" x="839" y="876.5"/><ellipse cx="858.95" cy="892.5" fill="#ADD1B2" rx="11" ry="11" style="stroke:#181818;stroke-width:1.0;"/><path d="M861.2938,888.1719 C860.3563,887.7344 859.7625,887.5938 858.8875,887.5938 C856.2625,887.5938 854.2625,889.6719 854.2625,892.3906 L854.2625,893.5156 C854.2625,896.0938 856.3719,897.9844 859.2625,897.9844 C860.4813,897.9844 861.6375,897.6875 862.3875,897.1406 C862.9656,896.7344 863.2938,896.2813 863.2938,895.8906 C863.2938,895.4375 862.9031,895.0469 862.4344,895.0469 C862.2156,895.0469 862.0125,895.125 861.825,895.3125 C861.3719,895.7969 861.3719,895.7969 861.1844,895.8906 C860.7625,896.1563 860.075,896.2813 859.3094,896.2813 C857.2625,896.2813 855.9656,895.1875 855.9656,893.4844 L855.9656,892.3906 C855.9656,890.6094 857.2156,889.2969 858.95,889.2969 C859.5281,889.2969 860.1375,889.4531 860.6063,889.7031 C861.0906,889.9844 861.2625,890.2031 861.3563,890.6094 C861.4188,891.0156 861.45,891.1406 861.5906,891.2656 C861.7313,891.4063 861.9656,891.5156 862.1844,891.5156 C862.45,891.5156 862.7156,891.375 862.8875,891.1563 C862.9969,891 863.0281,890.8125 863.0281,890.3906 L863.0281,888.9688 C863.0281,888.5313 863.0125,888.4063 862.9188,888.25 C862.7625,887.9844 862.4813,887.8438 862.1844,887.8438 C861.8875,887.8438 861.6844,887.9375 861.4656,888.25 L861.2938,888.1719 Z " fill="#000000"/><text fill="#000000" font-family="sans-serif" font-size="14" lengthAdjust="spacing" textLength="198" x="874.05" y="897.3467">BetrokkeneBijKlantcontact</text><line style="stroke:#181818;stroke-width:0.5;" x1="840" x2="1079" y1="908.5" y2="908.5"/><ellipse cx="850" cy="922.1484" fill="none" rx="3" ry="3" style="stroke:#038048;stroke-width:1.0;"/><text fill="#000000" font-family="sans-serif" font-size="14" lengthAdjust="spacing" textLength="149" x="859" y="925.4951">bezoekadres: object</text><ellipse cx="850" cy="938.4453" fill="none" rx="3" ry="3" style="stroke:#038048;stroke-width:1.0;"/><text fill="#000000" font-family="sans-serif" font-size="14" lengthAdjust="spacing" textLength="215" x="859" y="941.792">correspondentieadres: object</text><ellipse cx="850" cy="954.7422" fill="none" rx="3" ry="3" style="stroke:#038048;stroke-width:1.0;"/><text fill="#000000" font-family="sans-serif" font-size="14" lengthAdjust="spacing" textLength="157" x="859" y="958.0889">klantcontactId: string</text><ellipse cx="850" cy="971.0391" fill="none" rx="3" ry="3" style="stroke:#038048;stroke-width:1.0;"/><text fill="#000000" font-family="sans-serif" font-size="14" lengthAdjust="spacing" textLength="170" x="859" y="974.3857">organisatienaam: string</text><ellipse cx="850" cy="987.3359" fill="none" rx="3" ry="3" style="stroke:#038048;stroke-width:1.0;"/><text fill="#000000" font-family="sans-serif" font-size="14" lengthAdjust="spacing" textLength="103" x="859" y="990.6826">partijId: string</text><ellipse cx="850" cy="1003.6328" fill="none" rx="3" ry="3" style="stroke:#038048;stroke-width:1.0;"/><text fill="#000000" font-family="sans-serif" font-size="14" lengthAdjust="spacing" textLength="161" x="859" y="1006.9795">persoonsnaam: object</text><ellipse cx="850" cy="1019.9297" fill="none" rx="3" ry="3" style="stroke:#038048;stroke-width:1.0;"/><text fill="#000000" font-family="sans-serif" font-size="14" lengthAdjust="spacing" textLength="70" x="859" y="1023.2764">rol: string</text><ellipse cx="850" cy="1036.2266" fill="none" rx="3" ry="3" style="stroke:#038048;stroke-width:1.0;"/><text fill="#000000" font-family="sans-serif" font-size="14" lengthAdjust="spacing" textLength="173" x="859" y="1039.5732">voorkeurskanaal: object</text><ellipse cx="850" cy="1052.5234" fill="none" rx="3" ry="3" style="stroke:#038048;stroke-width:1.0;"/><text fill="#000000" font-family="sans-serif" font-size="14" lengthAdjust="spacing" textLength="154" x="859" y="1055.8701">voorkeurstaal: object</text><line style="stroke:#181818;stroke-width:0.5;" x1="840" x2="1079" y1="1063.1719" y2="1063.1719"/></g><!--SRC=[pLPBSzCm4BxtL_ZE2RZvbeGExPIG3XGuAzR6KInB6Mdj5XZ-EolPJcLPIKWFm4spB-r- -omaipRxghMfe37PpwiiUvKLcaEUMJH2bPwW6AiFX5zNXLUwPmR5hbTPmmyD5UC6R9xfzGuAx4qP8ksrug1Gm5G0dX2CWblFtuY2aLIUCMFOTyyNolC_QXIU4tXLIQOG6QjkUQYXche6atlD4eodQLCo9QmpFeh5yVPWhDRATep0jRP7nLQCU3BDmv0pG7ET2Ae7YX4IvZDfOoVaV0-SWHJHZiMZppwGoTuu2CKvmwPsj3oZ9_GWKlYbJR48Gpx9joCcSxu43ez0aG-budDGQ8Mim2WDCSwmP4Bs1N0kuexu2KfXqUKoO6qQLSILW21XGpaSKXzvlKWKuP0EYhGHdAJdOdVJ21kPy39Etb0joNaZ49H3v_LPYJTd9TwE9HG-Kfvvgdotv9W4ZA7O1lx6uXqTDRIQK5Jb9B-ZSjvhY-icQSon9WNYAtAHxErG2WrZE29HY6elYMedMPe_Zv3_BZb_9G5fbEVXP7qnkBC2zOKzUyYBs4bM3lFhqdQbYTJDlsy0vW7UGmigpzPQIs0gwKwWh6jRR8tOjI5-Wr-Z8NfiSvtmB1diQbWKsWZw6wv1RK7mVpVjs5EYw9Eu_C4WV2TAuHRMB6ooYOz7hVjw7DcOBAFxO9aE7nHR5ruCaDkWIQBh5mjoDbKRFhdjRe87Mls7FoXX4QhKZ1vHGuN7L_jkvw6eeUUsr3ybXnktaMKSQgghQTTZCssjkw0eJhYpxjeeTfAwTTM22K8Q5zRfA0xTjUZ-NzAOQYgCEd2h6nwHw9XoQXi5zQHX3vwi5BhxHdqH6BgKE8UIDvUxTEXOs8-lBJ-V27s_DaO1FIy2DBggG06DdWIwBxurJqsQKmUYFtGZXQDNez5oKj8NNf6_0G00]--></g></svg>