<?xml version="1.0" encoding="us-ascii" standalone="no"?><svg xmlns="http://www.w3.org/2000/svg" xmlns:xlink="http://www.w3.org/1999/xlink" contentStyleType="text/css" height="1119px" preserveAspectRatio="none" style="width:1549px;height:1119px;background:#FFFFFF;" version="1.1" viewBox="0 0 1549 1119" width="1549px" zoomAndPan="magnify"><defs/><g><!--class Voorkeur--><g id="elem_Voorkeur"><rect codeLine="1" fill="#F1F1F1" height="80.5938" id="Voorkeur" rx="2.5" ry="2.5" style="stroke:#181818;stroke-width:0.5;" width="116" x="229" y="121"/><ellipse cx="252.1" cy="137" fill="#ADD1B2" rx="11" ry="11" style="stroke:#181818;stroke-width:1.0;"/><path d="M254.4438,132.6719 C253.5063,132.2344 252.9125,132.0938 252.0375,132.0938 C249.4125,132.0938 247.4125,134.1719 247.4125,136.8906 L247.4125,138.0156 C247.4125,140.5938 249.5219,142.4844 252.4125,142.4844 C253.6313,142.4844 254.7875,142.1875 255.5375,141.6406 C256.1156,141.2344 256.4438,140.7813 256.4438,140.3906 C256.4438,139.9375 256.0531,139.5469 255.5844,139.5469 C255.3656,139.5469 255.1625,139.625 254.975,139.8125 C254.5219,140.2969 254.5219,140.2969 254.3344,140.3906 C253.9125,140.6563 253.225,140.7813 252.4594,140.7813 C250.4125,140.7813 249.1156,139.6875 249.1156,137.9844 L249.1156,136.8906 C249.1156,135.1094 250.3656,133.7969 252.1,133.7969 C252.6781,133.7969 253.2875,133.9531 253.7563,134.2031 C254.2406,134.4844 254.4125,134.7031 254.5063,135.1094 C254.5688,135.5156 254.6,135.6406 254.7406,135.7656 C254.8813,135.9063 255.1156,136.0156 255.3344,136.0156 C255.6,136.0156 255.8656,135.875 256.0375,135.6563 C256.1469,135.5 256.1781,135.3125 256.1781,134.8906 L256.1781,133.4688 C256.1781,133.0313 256.1625,132.9063 256.0688,132.75 C255.9125,132.4844 255.6313,132.3438 255.3344,132.3438 C255.0375,132.3438 254.8344,132.4375 254.6156,132.75 L254.4438,132.6719 Z " fill="#000000"/><text fill="#000000" font-family="sans-serif" font-size="14" lengthAdjust="spacing" textLength="66" x="267.9" y="141.8467">Voorkeur</text><line style="stroke:#181818;stroke-width:0.5;" x1="230" x2="344" y1="153" y2="153"/><ellipse cx="240" cy="166.6484" fill="none" rx="3" ry="3" style="stroke:#038048;stroke-width:1.0;"/><text fill="#000000" font-family="sans-serif" font-size="14" lengthAdjust="spacing" textLength="86" x="249" y="169.9951">code: string</text><ellipse cx="240" cy="182.9453" fill="none" rx="3" ry="3" style="stroke:#038048;stroke-width:1.0;"/><text fill="#000000" font-family="sans-serif" font-size="14" lengthAdjust="spacing" textLength="90" x="249" y="186.292">naam: string</text><line style="stroke:#181818;stroke-width:0.5;" x1="230" x2="344" y1="193.5938" y2="193.5938"/></g><!--class Contactnaam--><g id="elem_Contactnaam"><rect codeLine="5" fill="#F1F1F1" height="113.1875" id="Contactnaam" rx="2.5" ry="2.5" style="stroke:#181818;stroke-width:0.5;" width="252" x="380" y="105"/><ellipse cx="453.25" cy="121" fill="#ADD1B2" rx="11" ry="11" style="stroke:#181818;stroke-width:1.0;"/><path d="M455.5938,116.6719 C454.6563,116.2344 454.0625,116.0938 453.1875,116.0938 C450.5625,116.0938 448.5625,118.1719 448.5625,120.8906 L448.5625,122.0156 C448.5625,124.5938 450.6719,126.4844 453.5625,126.4844 C454.7813,126.4844 455.9375,126.1875 456.6875,125.6406 C457.2656,125.2344 457.5938,124.7813 457.5938,124.3906 C457.5938,123.9375 457.2031,123.5469 456.7344,123.5469 C456.5156,123.5469 456.3125,123.625 456.125,123.8125 C455.6719,124.2969 455.6719,124.2969 455.4844,124.3906 C455.0625,124.6563 454.375,124.7813 453.6094,124.7813 C451.5625,124.7813 450.2656,123.6875 450.2656,121.9844 L450.2656,120.8906 C450.2656,119.1094 451.5156,117.7969 453.25,117.7969 C453.8281,117.7969 454.4375,117.9531 454.9063,118.2031 C455.3906,118.4844 455.5625,118.7031 455.6563,119.1094 C455.7188,119.5156 455.75,119.6406 455.8906,119.7656 C456.0313,119.9063 456.2656,120.0156 456.4844,120.0156 C456.75,120.0156 457.0156,119.875 457.1875,119.6563 C457.2969,119.5 457.3281,119.3125 457.3281,118.8906 L457.3281,117.4688 C457.3281,117.0313 457.3125,116.9063 457.2188,116.75 C457.0625,116.4844 456.7813,116.3438 456.4844,116.3438 C456.1875,116.3438 455.9844,116.4375 455.7656,116.75 L455.5938,116.6719 Z " fill="#000000"/><text fill="#000000" font-family="sans-serif" font-size="14" lengthAdjust="spacing" textLength="97" x="473.75" y="125.8467">Contactnaam</text><line style="stroke:#181818;stroke-width:0.5;" x1="381" x2="631" y1="137" y2="137"/><ellipse cx="391" cy="150.6484" fill="none" rx="3" ry="3" style="stroke:#038048;stroke-width:1.0;"/><text fill="#000000" font-family="sans-serif" font-size="14" lengthAdjust="spacing" textLength="137" x="400" y="153.9951">achternaam: string</text><ellipse cx="391" cy="166.9453" fill="none" rx="3" ry="3" style="stroke:#038048;stroke-width:1.0;"/><text fill="#000000" font-family="sans-serif" font-size="14" lengthAdjust="spacing" textLength="122" x="400" y="170.292">voornaam: string</text><ellipse cx="391" cy="183.2422" fill="none" rx="3" ry="3" style="stroke:#038048;stroke-width:1.0;"/><text fill="#000000" font-family="sans-serif" font-size="14" lengthAdjust="spacing" textLength="226" x="400" y="186.5889">voorvoegselAchternaam: string</text><ellipse cx="391" cy="199.5391" fill="none" rx="3" ry="3" style="stroke:#038048;stroke-width:1.0;"/><text fill="#000000" font-family="sans-serif" font-size="14" lengthAdjust="spacing" textLength="132" x="400" y="202.8857">voorletters: string</text><line style="stroke:#181818;stroke-width:0.5;" x1="381" x2="631" y1="210.1875" y2="210.1875"/></g><!--class Partij--><g id="elem_Partij"><rect codeLine="11" fill="#F1F1F1" height="308.75" id="Partij" rx="2.5" ry="2.5" style="stroke:#181818;stroke-width:0.5;" width="268" x="667" y="7"/><ellipse cx="777.75" cy="23" fill="#ADD1B2" rx="11" ry="11" style="stroke:#181818;stroke-width:1.0;"/><path d="M780.0938,18.6719 C779.1563,18.2344 778.5625,18.0938 777.6875,18.0938 C775.0625,18.0938 773.0625,20.1719 773.0625,22.8906 L773.0625,24.0156 C773.0625,26.5938 775.1719,28.4844 778.0625,28.4844 C779.2813,28.4844 780.4375,28.1875 781.1875,27.6406 C781.7656,27.2344 782.0938,26.7813 782.0938,26.3906 C782.0938,25.9375 781.7031,25.5469 781.2344,25.5469 C781.0156,25.5469 780.8125,25.625 780.625,25.8125 C780.1719,26.2969 780.1719,26.2969 779.9844,26.3906 C779.5625,26.6563 778.875,26.7813 778.1094,26.7813 C776.0625,26.7813 774.7656,25.6875 774.7656,23.9844 L774.7656,22.8906 C774.7656,21.1094 776.0156,19.7969 777.75,19.7969 C778.3281,19.7969 778.9375,19.9531 779.4063,20.2031 C779.8906,20.4844 780.0625,20.7031 780.1563,21.1094 C780.2188,21.5156 780.25,21.6406 780.3906,21.7656 C780.5313,21.9063 780.7656,22.0156 780.9844,22.0156 C781.25,22.0156 781.5156,21.875 781.6875,21.6563 C781.7969,21.5 781.8281,21.3125 781.8281,20.8906 L781.8281,19.4688 C781.8281,19.0313 781.8125,18.9063 781.7188,18.75 C781.5625,18.4844 781.2813,18.3438 780.9844,18.3438 C780.6875,18.3438 780.4844,18.4375 780.2656,18.75 L780.0938,18.6719 Z " fill="#000000"/><text fill="#000000" font-family="sans-serif" font-size="14" lengthAdjust="spacing" textLength="38" x="798.25" y="27.8467">Partij</text><line style="stroke:#181818;stroke-width:0.5;" x1="668" x2="934" y1="39" y2="39"/><ellipse cx="678" cy="52.6484" fill="none" rx="3" ry="3" style="stroke:#038048;stroke-width:1.0;"/><text fill="#000000" font-family="sans-serif" font-size="14" lengthAdjust="spacing" textLength="122" x="687" y="55.9951">nummer: integer</text><ellipse cx="678" cy="68.9453" fill="none" rx="3" ry="3" style="stroke:#038048;stroke-width:1.0;"/><text fill="#000000" font-family="sans-serif" font-size="14" lengthAdjust="spacing" textLength="154" x="687" y="72.292">interneNotitie: string</text><ellipse cx="678" cy="85.2422" fill="none" rx="3" ry="3" style="stroke:#038048;stroke-width:1.0;"/><text fill="#000000" font-family="sans-serif" font-size="14" lengthAdjust="spacing" textLength="242" x="687" y="88.5889">indicatieGeheimhouding: boolean</text><ellipse cx="678" cy="101.5391" fill="none" rx="3" ry="3" style="stroke:#038048;stroke-width:1.0;"/><text fill="#000000" font-family="sans-serif" font-size="14" lengthAdjust="spacing" textLength="154" x="687" y="104.8857">voorkeurstaal: object</text><ellipse cx="678" cy="117.8359" fill="none" rx="3" ry="3" style="stroke:#038048;stroke-width:1.0;"/><text fill="#000000" font-family="sans-serif" font-size="14" lengthAdjust="spacing" textLength="173" x="687" y="121.1826">indicatieActief: boolean</text><ellipse cx="678" cy="134.1328" fill="none" rx="3" ry="3" style="stroke:#038048;stroke-width:1.0;"/><text fill="#000000" font-family="sans-serif" font-size="14" lengthAdjust="spacing" textLength="127" x="687" y="137.4795">soortPartij: string</text><ellipse cx="678" cy="150.4297" fill="none" rx="3" ry="3" style="stroke:#038048;stroke-width:1.0;"/><text fill="#000000" font-family="sans-serif" font-size="14" lengthAdjust="spacing" textLength="136" x="687" y="153.7764">organisatie: object</text><ellipse cx="678" cy="166.7266" fill="none" rx="3" ry="3" style="stroke:#038048;stroke-width:1.0;"/><text fill="#000000" font-family="sans-serif" font-size="14" lengthAdjust="spacing" textLength="115" x="687" y="170.0732">persoon: object</text><ellipse cx="678" cy="183.0234" fill="none" rx="3" ry="3" style="stroke:#038048;stroke-width:1.0;"/><text fill="#000000" font-family="sans-serif" font-size="14" lengthAdjust="spacing" textLength="171" x="687" y="186.3701">contactpersoon: object</text><ellipse cx="678" cy="199.3203" fill="none" rx="3" ry="3" style="stroke:#038048;stroke-width:1.0;"/><text fill="#000000" font-family="sans-serif" font-size="14" lengthAdjust="spacing" textLength="173" x="687" y="202.667">voorkeurskanaal: object</text><ellipse cx="678" cy="215.6172" fill="none" rx="3" ry="3" style="stroke:#038048;stroke-width:1.0;"/><text fill="#000000" font-family="sans-serif" font-size="14" lengthAdjust="spacing" textLength="188" x="687" y="218.9639">verstrekteAdressen: array</text><ellipse cx="678" cy="231.9141" fill="none" rx="3" ry="3" style="stroke:#038048;stroke-width:1.0;"/><text fill="#000000" font-family="sans-serif" font-size="14" lengthAdjust="spacing" textLength="149" x="687" y="235.2607">bezoekadres: object</text><ellipse cx="678" cy="248.2109" fill="none" rx="3" ry="3" style="stroke:#038048;stroke-width:1.0;"/><text fill="#000000" font-family="sans-serif" font-size="14" lengthAdjust="spacing" textLength="215" x="687" y="251.5576">correspondentieadres: object</text><ellipse cx="678" cy="264.5078" fill="none" rx="3" ry="3" style="stroke:#038048;stroke-width:1.0;"/><text fill="#000000" font-family="sans-serif" font-size="14" lengthAdjust="spacing" textLength="197" x="687" y="267.8545">externeIdentificaties: array</text><ellipse cx="678" cy="280.8047" fill="none" rx="3" ry="3" style="stroke:#038048;stroke-width:1.0;"/><text fill="#000000" font-family="sans-serif" font-size="14" lengthAdjust="spacing" textLength="194" x="687" y="284.1514">vertegenwoordiger: object</text><ellipse cx="678" cy="297.1016" fill="none" rx="3" ry="3" style="stroke:#038048;stroke-width:1.0;"/><text fill="#000000" font-family="sans-serif" font-size="14" lengthAdjust="spacing" textLength="197" x="687" y="300.4482">vertegenwoordigde: object</text><line style="stroke:#181818;stroke-width:0.5;" x1="668" x2="934" y1="307.75" y2="307.75"/></g><!--class ExterneIdentificatie--><g id="elem_ExterneIdentificatie"><rect codeLine="29" fill="#F1F1F1" height="80.5938" id="ExterneIdentificatie" rx="2.5" ry="2.5" style="stroke:#181818;stroke-width:0.5;" width="255" x="970.5" y="121"/><ellipse cx="1021.25" cy="137" fill="#ADD1B2" rx="11" ry="11" style="stroke:#181818;stroke-width:1.0;"/><path d="M1023.5938,132.6719 C1022.6563,132.2344 1022.0625,132.0938 1021.1875,132.0938 C1018.5625,132.0938 1016.5625,134.1719 1016.5625,136.8906 L1016.5625,138.0156 C1016.5625,140.5938 1018.6719,142.4844 1021.5625,142.4844 C1022.7813,142.4844 1023.9375,142.1875 1024.6875,141.6406 C1025.2656,141.2344 1025.5938,140.7813 1025.5938,140.3906 C1025.5938,139.9375 1025.2031,139.5469 1024.7344,139.5469 C1024.5156,139.5469 1024.3125,139.625 1024.125,139.8125 C1023.6719,140.2969 1023.6719,140.2969 1023.4844,140.3906 C1023.0625,140.6563 1022.375,140.7813 1021.6094,140.7813 C1019.5625,140.7813 1018.2656,139.6875 1018.2656,137.9844 L1018.2656,136.8906 C1018.2656,135.1094 1019.5156,133.7969 1021.25,133.7969 C1021.8281,133.7969 1022.4375,133.9531 1022.9063,134.2031 C1023.3906,134.4844 1023.5625,134.7031 1023.6563,135.1094 C1023.7188,135.5156 1023.75,135.6406 1023.8906,135.7656 C1024.0313,135.9063 1024.2656,136.0156 1024.4844,136.0156 C1024.75,136.0156 1025.0156,135.875 1025.1875,135.6563 C1025.2969,135.5 1025.3281,135.3125 1025.3281,134.8906 L1025.3281,133.4688 C1025.3281,133.0313 1025.3125,132.9063 1025.2188,132.75 C1025.0625,132.4844 1024.7813,132.3438 1024.4844,132.3438 C1024.1875,132.3438 1023.9844,132.4375 1023.7656,132.75 L1023.5938,132.6719 Z " fill="#000000"/><text fill="#000000" font-family="sans-serif" font-size="14" lengthAdjust="spacing" textLength="145" x="1041.75" y="141.8467">ExterneIdentificatie</text><line style="stroke:#181818;stroke-width:0.5;" x1="971.5" x2="1224.5" y1="153" y2="153"/><ellipse cx="981.5" cy="166.6484" fill="none" rx="3" ry="3" style="stroke:#038048;stroke-width:1.0;"/><text fill="#000000" font-family="sans-serif" font-size="14" lengthAdjust="spacing" textLength="229" x="990.5" y="169.9951">anderePartijIdentificator: string</text><ellipse cx="981.5" cy="182.9453" fill="none" rx="3" ry="3" style="stroke:#038048;stroke-width:1.0;"/><text fill="#000000" font-family="sans-serif" font-size="14" lengthAdjust="spacing" textLength="185" x="990.5" y="186.292">partijIdentificator: object</text><line style="stroke:#181818;stroke-width:0.5;" x1="971.5" x2="1224.5" y1="193.5938" y2="193.5938"/></g><!--class Land--><g id="elem_Land"><rect codeLine="33" fill="#F1F1F1" height="113.1875" id="Land" rx="2.5" ry="2.5" style="stroke:#181818;stroke-width:0.5;" width="203" x="1260.5" y="105"/><ellipse cx="1340.75" cy="121" fill="#ADD1B2" rx="11" ry="11" style="stroke:#181818;stroke-width:1.0;"/><path d="M1343.0938,116.6719 C1342.1563,116.2344 1341.5625,116.0938 1340.6875,116.0938 C1338.0625,116.0938 1336.0625,118.1719 1336.0625,120.8906 L1336.0625,122.0156 C1336.0625,124.5938 1338.1719,126.4844 1341.0625,126.4844 C1342.2813,126.4844 1343.4375,126.1875 1344.1875,125.6406 C1344.7656,125.2344 1345.0938,124.7813 1345.0938,124.3906 C1345.0938,123.9375 1344.7031,123.5469 1344.2344,123.5469 C1344.0156,123.5469 1343.8125,123.625 1343.625,123.8125 C1343.1719,124.2969 1343.1719,124.2969 1342.9844,124.3906 C1342.5625,124.6563 1341.875,124.7813 1341.1094,124.7813 C1339.0625,124.7813 1337.7656,123.6875 1337.7656,121.9844 L1337.7656,120.8906 C1337.7656,119.1094 1339.0156,117.7969 1340.75,117.7969 C1341.3281,117.7969 1341.9375,117.9531 1342.4063,118.2031 C1342.8906,118.4844 1343.0625,118.7031 1343.1563,119.1094 C1343.2188,119.5156 1343.25,119.6406 1343.3906,119.7656 C1343.5313,119.9063 1343.7656,120.0156 1343.9844,120.0156 C1344.25,120.0156 1344.5156,119.875 1344.6875,119.6563 C1344.7969,119.5 1344.8281,119.3125 1344.8281,118.8906 L1344.8281,117.4688 C1344.8281,117.0313 1344.8125,116.9063 1344.7188,116.75 C1344.5625,116.4844 1344.2813,116.3438 1343.9844,116.3438 C1343.6875,116.3438 1343.4844,116.4375 1343.2656,116.75 L1343.0938,116.6719 Z " fill="#000000"/><text fill="#000000" font-family="sans-serif" font-size="14" lengthAdjust="spacing" textLength="34" x="1361.25" y="125.8467">Land</text><line style="stroke:#181818;stroke-width:0.5;" x1="1261.5" x2="1462.5" y1="137" y2="137"/><ellipse cx="1271.5" cy="150.6484" fill="none" rx="3" ry="3" style="stroke:#038048;stroke-width:1.0;"/><text fill="#000000" font-family="sans-serif" font-size="14" lengthAdjust="spacing" textLength="153" x="1280.5" y="153.9951">einddatumLand: date</text><ellipse cx="1271.5" cy="166.9453" fill="none" rx="3" ry="3" style="stroke:#038048;stroke-width:1.0;"/><text fill="#000000" font-family="sans-serif" font-size="14" lengthAdjust="spacing" textLength="177" x="1280.5" y="170.292">ingangsdatumLand: date</text><ellipse cx="1271.5" cy="183.2422" fill="none" rx="3" ry="3" style="stroke:#038048;stroke-width:1.0;"/><text fill="#000000" font-family="sans-serif" font-size="14" lengthAdjust="spacing" textLength="116" x="1280.5" y="186.5889">landcode: string</text><ellipse cx="1271.5" cy="199.5391" fill="none" rx="3" ry="3" style="stroke:#038048;stroke-width:1.0;"/><text fill="#000000" font-family="sans-serif" font-size="14" lengthAdjust="spacing" textLength="120" x="1280.5" y="202.8857">landnaam: string</text><line style="stroke:#181818;stroke-width:0.5;" x1="1261.5" x2="1462.5" y1="210.1875" y2="210.1875"/></g><!--class Medewerker--><g id="elem_Medewerker"><rect codeLine="39" fill="#F1F1F1" height="96.8906" id="Medewerker" rx="2.5" ry="2.5" style="stroke:#181818;stroke-width:0.5;" width="199" x="187.5" y="465.5"/><ellipse cx="238.25" cy="481.5" fill="#ADD1B2" rx="11" ry="11" style="stroke:#181818;stroke-width:1.0;"/><path d="M240.5938,477.1719 C239.6563,476.7344 239.0625,476.5938 238.1875,476.5938 C235.5625,476.5938 233.5625,478.6719 233.5625,481.3906 L233.5625,482.5156 C233.5625,485.0938 235.6719,486.9844 238.5625,486.9844 C239.7813,486.9844 240.9375,486.6875 241.6875,486.1406 C242.2656,485.7344 242.5938,485.2813 242.5938,484.8906 C242.5938,484.4375 242.2031,484.0469 241.7344,484.0469 C241.5156,484.0469 241.3125,484.125 241.125,484.3125 C240.6719,484.7969 240.6719,484.7969 240.4844,484.8906 C240.0625,485.1563 239.375,485.2813 238.6094,485.2813 C236.5625,485.2813 235.2656,484.1875 235.2656,482.4844 L235.2656,481.3906 C235.2656,479.6094 236.5156,478.2969 238.25,478.2969 C238.8281,478.2969 239.4375,478.4531 239.9063,478.7031 C240.3906,478.9844 240.5625,479.2031 240.6563,479.6094 C240.7188,480.0156 240.75,480.1406 240.8906,480.2656 C241.0313,480.4063 241.2656,480.5156 241.4844,480.5156 C241.75,480.5156 242.0156,480.375 242.1875,480.1563 C242.2969,480 242.3281,479.8125 242.3281,479.3906 L242.3281,477.9688 C242.3281,477.5313 242.3125,477.4063 242.2188,477.25 C242.0625,476.9844 241.7813,476.8438 241.4844,476.8438 C241.1875,476.8438 240.9844,476.9375 240.7656,477.25 L240.5938,477.1719 Z " fill="#000000"/><text fill="#000000" font-family="sans-serif" font-size="14" lengthAdjust="spacing" textLength="89" x="258.75" y="486.3467">Medewerker</text><line style="stroke:#181818;stroke-width:0.5;" x1="188.5" x2="385.5" y1="497.5" y2="497.5"/><ellipse cx="198.5" cy="511.1484" fill="none" rx="3" ry="3" style="stroke:#038048;stroke-width:1.0;"/><text fill="#000000" font-family="sans-serif" font-size="14" lengthAdjust="spacing" textLength="127" x="207.5" y="514.4951">eMailadres: string</text><ellipse cx="198.5" cy="527.4453" fill="none" rx="3" ry="3" style="stroke:#038048;stroke-width:1.0;"/><text fill="#000000" font-family="sans-serif" font-size="14" lengthAdjust="spacing" textLength="102" x="207.5" y="530.792">functie: string</text><ellipse cx="198.5" cy="543.7422" fill="none" rx="3" ry="3" style="stroke:#038048;stroke-width:1.0;"/><text fill="#000000" font-family="sans-serif" font-size="14" lengthAdjust="spacing" textLength="173" x="207.5" y="547.0889">telefoonnummer: string</text><line style="stroke:#181818;stroke-width:0.5;" x1="188.5" x2="385.5" y1="554.3906" y2="554.3906"/></g><!--class Correspondentieadres--><g id="elem_Correspondentieadres"><rect codeLine="44" fill="#F1F1F1" height="276.1563" id="Correspondentieadres" rx="2.5" ry="2.5" style="stroke:#181818;stroke-width:0.5;" width="276" x="422" y="376"/><ellipse cx="475.25" cy="392" fill="#ADD1B2" rx="11" ry="11" style="stroke:#181818;stroke-width:1.0;"/><path d="M477.5938,387.6719 C476.6563,387.2344 476.0625,387.0938 475.1875,387.0938 C472.5625,387.0938 470.5625,389.1719 470.5625,391.8906 L470.5625,393.0156 C470.5625,395.5938 472.6719,397.4844 475.5625,397.4844 C476.7813,397.4844 477.9375,397.1875 478.6875,396.6406 C479.2656,396.2344 479.5938,395.7813 479.5938,395.3906 C479.5938,394.9375 479.2031,394.5469 478.7344,394.5469 C478.5156,394.5469 478.3125,394.625 478.125,394.8125 C477.6719,395.2969 477.6719,395.2969 477.4844,395.3906 C477.0625,395.6563 476.375,395.7813 475.6094,395.7813 C473.5625,395.7813 472.2656,394.6875 472.2656,392.9844 L472.2656,391.8906 C472.2656,390.1094 473.5156,388.7969 475.25,388.7969 C475.8281,388.7969 476.4375,388.9531 476.9063,389.2031 C477.3906,389.4844 477.5625,389.7031 477.6563,390.1094 C477.7188,390.5156 477.75,390.6406 477.8906,390.7656 C478.0313,390.9063 478.2656,391.0156 478.4844,391.0156 C478.75,391.0156 479.0156,390.875 479.1875,390.6563 C479.2969,390.5 479.3281,390.3125 479.3281,389.8906 L479.3281,388.4688 C479.3281,388.0313 479.3125,387.9063 479.2188,387.75 C479.0625,387.4844 478.7813,387.3438 478.4844,387.3438 C478.1875,387.3438 477.9844,387.4375 477.7656,387.75 L477.5938,387.6719 Z " fill="#000000"/><text fill="#000000" font-family="sans-serif" font-size="14" lengthAdjust="spacing" textLength="161" x="495.75" y="396.8467">Correspondentieadres</text><line style="stroke:#181818;stroke-width:0.5;" x1="423" x2="697" y1="408" y2="408"/><ellipse cx="433" cy="421.6484" fill="none" rx="3" ry="3" style="stroke:#038048;stroke-width:1.0;"/><text fill="#000000" font-family="sans-serif" font-size="14" lengthAdjust="spacing" textLength="235" x="442" y="424.9951">aanduidingBijHuisnummer: string</text><ellipse cx="433" cy="437.9453" fill="none" rx="3" ry="3" style="stroke:#038048;stroke-width:1.0;"/><text fill="#000000" font-family="sans-serif" font-size="14" lengthAdjust="spacing" textLength="213" x="442" y="441.292">adresregelBuitenland1: string</text><ellipse cx="433" cy="454.2422" fill="none" rx="3" ry="3" style="stroke:#038048;stroke-width:1.0;"/><text fill="#000000" font-family="sans-serif" font-size="14" lengthAdjust="spacing" textLength="212" x="442" y="457.5889">adresregelBuitenland2: string</text><ellipse cx="433" cy="470.5391" fill="none" rx="3" ry="3" style="stroke:#038048;stroke-width:1.0;"/><text fill="#000000" font-family="sans-serif" font-size="14" lengthAdjust="spacing" textLength="213" x="442" y="473.8857">adresregelBuitenland3: string</text><ellipse cx="433" cy="486.8359" fill="none" rx="3" ry="3" style="stroke:#038048;stroke-width:1.0;"/><text fill="#000000" font-family="sans-serif" font-size="14" lengthAdjust="spacing" textLength="190" x="442" y="490.1826">antwoordnummer: integer</text><ellipse cx="433" cy="503.1328" fill="none" rx="3" ry="3" style="stroke:#038048;stroke-width:1.0;"/><text fill="#000000" font-family="sans-serif" font-size="14" lengthAdjust="spacing" textLength="121" x="442" y="506.4795">huisletter: string</text><ellipse cx="433" cy="519.4297" fill="none" rx="3" ry="3" style="stroke:#038048;stroke-width:1.0;"/><text fill="#000000" font-family="sans-serif" font-size="14" lengthAdjust="spacing" textLength="150" x="442" y="522.7764">huisnummer: integer</text><ellipse cx="433" cy="535.7266" fill="none" rx="3" ry="3" style="stroke:#038048;stroke-width:1.0;"/><text fill="#000000" font-family="sans-serif" font-size="14" lengthAdjust="spacing" textLength="221" x="442" y="539.0732">huisnummertoevoeging: string</text><ellipse cx="433" cy="552.0234" fill="none" rx="3" ry="3" style="stroke:#038048;stroke-width:1.0;"/><text fill="#000000" font-family="sans-serif" font-size="14" lengthAdjust="spacing" textLength="86" x="442" y="555.3701">land: object</text><ellipse cx="433" cy="568.3203" fill="none" rx="3" ry="3" style="stroke:#038048;stroke-width:1.0;"/><text fill="#000000" font-family="sans-serif" font-size="14" lengthAdjust="spacing" textLength="180" x="442" y="571.667">postbusnummer: integer</text><ellipse cx="433" cy="584.6172" fill="none" rx="3" ry="3" style="stroke:#038048;stroke-width:1.0;"/><text fill="#000000" font-family="sans-serif" font-size="14" lengthAdjust="spacing" textLength="119" x="442" y="587.9639">postcode: string</text><ellipse cx="433" cy="600.9141" fill="none" rx="3" ry="3" style="stroke:#038048;stroke-width:1.0;"/><text fill="#000000" font-family="sans-serif" font-size="14" lengthAdjust="spacing" textLength="250" x="442" y="604.2607">soortCorrespondentieadres: string</text><ellipse cx="433" cy="617.2109" fill="none" rx="3" ry="3" style="stroke:#038048;stroke-width:1.0;"/><text fill="#000000" font-family="sans-serif" font-size="14" lengthAdjust="spacing" textLength="94" x="442" y="620.5576">straat: string</text><ellipse cx="433" cy="633.5078" fill="none" rx="3" ry="3" style="stroke:#038048;stroke-width:1.0;"/><text fill="#000000" font-family="sans-serif" font-size="14" lengthAdjust="spacing" textLength="133" x="442" y="636.8545">woonplaats: string</text><line style="stroke:#181818;stroke-width:0.5;" x1="423" x2="697" y1="644.1563" y2="644.1563"/></g><!--class Bezoekadres--><g id="elem_Bezoekadres"><rect codeLine="60" fill="#F1F1F1" height="243.5625" id="Bezoekadres" rx="2.5" ry="2.5" style="stroke:#181818;stroke-width:0.5;" width="261" x="733.5" y="392"/><ellipse cx="813.25" cy="408" fill="#ADD1B2" rx="11" ry="11" style="stroke:#181818;stroke-width:1.0;"/><path d="M815.5938,403.6719 C814.6563,403.2344 814.0625,403.0938 813.1875,403.0938 C810.5625,403.0938 808.5625,405.1719 808.5625,407.8906 L808.5625,409.0156 C808.5625,411.5938 810.6719,413.4844 813.5625,413.4844 C814.7813,413.4844 815.9375,413.1875 816.6875,412.6406 C817.2656,412.2344 817.5938,411.7813 817.5938,411.3906 C817.5938,410.9375 817.2031,410.5469 816.7344,410.5469 C816.5156,410.5469 816.3125,410.625 816.125,410.8125 C815.6719,411.2969 815.6719,411.2969 815.4844,411.3906 C815.0625,411.6563 814.375,411.7813 813.6094,411.7813 C811.5625,411.7813 810.2656,410.6875 810.2656,408.9844 L810.2656,407.8906 C810.2656,406.1094 811.5156,404.7969 813.25,404.7969 C813.8281,404.7969 814.4375,404.9531 814.9063,405.2031 C815.3906,405.4844 815.5625,405.7031 815.6563,406.1094 C815.7188,406.5156 815.75,406.6406 815.8906,406.7656 C816.0313,406.9063 816.2656,407.0156 816.4844,407.0156 C816.75,407.0156 817.0156,406.875 817.1875,406.6563 C817.2969,406.5 817.3281,406.3125 817.3281,405.8906 L817.3281,404.4688 C817.3281,404.0313 817.3125,403.9063 817.2188,403.75 C817.0625,403.4844 816.7813,403.3438 816.4844,403.3438 C816.1875,403.3438 815.9844,403.4375 815.7656,403.75 L815.5938,403.6719 Z " fill="#000000"/><text fill="#000000" font-family="sans-serif" font-size="14" lengthAdjust="spacing" textLength="93" x="833.75" y="412.8467">Bezoekadres</text><line style="stroke:#181818;stroke-width:0.5;" x1="734.5" x2="993.5" y1="424" y2="424"/><ellipse cx="744.5" cy="437.6484" fill="none" rx="3" ry="3" style="stroke:#038048;stroke-width:1.0;"/><text fill="#000000" font-family="sans-serif" font-size="14" lengthAdjust="spacing" textLength="235" x="753.5" y="440.9951">aanduidingBijHuisnummer: string</text><ellipse cx="744.5" cy="453.9453" fill="none" rx="3" ry="3" style="stroke:#038048;stroke-width:1.0;"/><text fill="#000000" font-family="sans-serif" font-size="14" lengthAdjust="spacing" textLength="213" x="753.5" y="457.292">adresregelBuitenland1: string</text><ellipse cx="744.5" cy="470.2422" fill="none" rx="3" ry="3" style="stroke:#038048;stroke-width:1.0;"/><text fill="#000000" font-family="sans-serif" font-size="14" lengthAdjust="spacing" textLength="212" x="753.5" y="473.5889">adresregelBuitenland2: string</text><ellipse cx="744.5" cy="486.5391" fill="none" rx="3" ry="3" style="stroke:#038048;stroke-width:1.0;"/><text fill="#000000" font-family="sans-serif" font-size="14" lengthAdjust="spacing" textLength="213" x="753.5" y="489.8857">adresregelBuitenland3: string</text><ellipse cx="744.5" cy="502.8359" fill="none" rx="3" ry="3" style="stroke:#038048;stroke-width:1.0;"/><text fill="#000000" font-family="sans-serif" font-size="14" lengthAdjust="spacing" textLength="121" x="753.5" y="506.1826">huisletter: string</text><ellipse cx="744.5" cy="519.1328" fill="none" rx="3" ry="3" style="stroke:#038048;stroke-width:1.0;"/><text fill="#000000" font-family="sans-serif" font-size="14" lengthAdjust="spacing" textLength="150" x="753.5" y="522.4795">huisnummer: integer</text><ellipse cx="744.5" cy="535.4297" fill="none" rx="3" ry="3" style="stroke:#038048;stroke-width:1.0;"/><text fill="#000000" font-family="sans-serif" font-size="14" lengthAdjust="spacing" textLength="221" x="753.5" y="538.7764">huisnummertoevoeging: string</text><ellipse cx="744.5" cy="551.7266" fill="none" rx="3" ry="3" style="stroke:#038048;stroke-width:1.0;"/><text fill="#000000" font-family="sans-serif" font-size="14" lengthAdjust="spacing" textLength="86" x="753.5" y="555.0732">land: object</text><ellipse cx="744.5" cy="568.0234" fill="none" rx="3" ry="3" style="stroke:#038048;stroke-width:1.0;"/><text fill="#000000" font-family="sans-serif" font-size="14" lengthAdjust="spacing" textLength="119" x="753.5" y="571.3701">postcode: string</text><ellipse cx="744.5" cy="584.3203" fill="none" rx="3" ry="3" style="stroke:#038048;stroke-width:1.0;"/><text fill="#000000" font-family="sans-serif" font-size="14" lengthAdjust="spacing" textLength="182" x="753.5" y="587.667">soortBezoekadres: string</text><ellipse cx="744.5" cy="600.6172" fill="none" rx="3" ry="3" style="stroke:#038048;stroke-width:1.0;"/><text fill="#000000" font-family="sans-serif" font-size="14" lengthAdjust="spacing" textLength="94" x="753.5" y="603.9639">straat: string</text><ellipse cx="744.5" cy="616.9141" fill="none" rx="3" ry="3" style="stroke:#038048;stroke-width:1.0;"/><text fill="#000000" font-family="sans-serif" font-size="14" lengthAdjust="spacing" textLength="133" x="753.5" y="620.2607">woonplaats: string</text><line style="stroke:#181818;stroke-width:0.5;" x1="734.5" x2="993.5" y1="627.5625" y2="627.5625"/></g><!--class Actor--><g id="elem_Actor"><rect codeLine="74" fill="#F1F1F1" height="145.7813" id="Actor" rx="2.5" ry="2.5" style="stroke:#181818;stroke-width:0.5;" width="259" x="1029.5" y="441"/><ellipse cx="1134.75" cy="457" fill="#ADD1B2" rx="11" ry="11" style="stroke:#181818;stroke-width:1.0;"/><path d="M1137.0938,452.6719 C1136.1563,452.2344 1135.5625,452.0938 1134.6875,452.0938 C1132.0625,452.0938 1130.0625,454.1719 1130.0625,456.8906 L1130.0625,458.0156 C1130.0625,460.5938 1132.1719,462.4844 1135.0625,462.4844 C1136.2813,462.4844 1137.4375,462.1875 1138.1875,461.6406 C1138.7656,461.2344 1139.0938,460.7813 1139.0938,460.3906 C1139.0938,459.9375 1138.7031,459.5469 1138.2344,459.5469 C1138.0156,459.5469 1137.8125,459.625 1137.625,459.8125 C1137.1719,460.2969 1137.1719,460.2969 1136.9844,460.3906 C1136.5625,460.6563 1135.875,460.7813 1135.1094,460.7813 C1133.0625,460.7813 1131.7656,459.6875 1131.7656,457.9844 L1131.7656,456.8906 C1131.7656,455.1094 1133.0156,453.7969 1134.75,453.7969 C1135.3281,453.7969 1135.9375,453.9531 1136.4063,454.2031 C1136.8906,454.4844 1137.0625,454.7031 1137.1563,455.1094 C1137.2188,455.5156 1137.25,455.6406 1137.3906,455.7656 C1137.5313,455.9063 1137.7656,456.0156 1137.9844,456.0156 C1138.25,456.0156 1138.5156,455.875 1138.6875,455.6563 C1138.7969,455.5 1138.8281,455.3125 1138.8281,454.8906 L1138.8281,453.4688 C1138.8281,453.0313 1138.8125,452.9063 1138.7188,452.75 C1138.5625,452.4844 1138.2813,452.3438 1137.9844,452.3438 C1137.6875,452.3438 1137.4844,452.4375 1137.2656,452.75 L1137.0938,452.6719 Z " fill="#000000"/><text fill="#000000" font-family="sans-serif" font-size="14" lengthAdjust="spacing" textLength="40" x="1155.25" y="461.8467">Actor</text><line style="stroke:#181818;stroke-width:0.5;" x1="1030.5" x2="1287.5" y1="473" y2="473"/><ellipse cx="1040.5" cy="486.6484" fill="none" rx="3" ry="3" style="stroke:#038048;stroke-width:1.0;"/><text fill="#000000" font-family="sans-serif" font-size="14" lengthAdjust="spacing" textLength="138" x="1049.5" y="489.9951">klantcontact: array</text><ellipse cx="1040.5" cy="502.9453" fill="none" rx="3" ry="3" style="stroke:#038048;stroke-width:1.0;"/><text fill="#000000" font-family="sans-serif" font-size="14" lengthAdjust="spacing" textLength="90" x="1049.5" y="506.292">naam: string</text><ellipse cx="1040.5" cy="519.2422" fill="none" rx="3" ry="3" style="stroke:#038048;stroke-width:1.0;"/><text fill="#000000" font-family="sans-serif" font-size="14" lengthAdjust="spacing" textLength="129" x="1049.5" y="522.5889">soortActor: string</text><ellipse cx="1040.5" cy="535.5391" fill="none" rx="3" ry="3" style="stroke:#038048;stroke-width:1.0;"/><text fill="#000000" font-family="sans-serif" font-size="14" lengthAdjust="spacing" textLength="147" x="1049.5" y="538.8857">medewerker: object</text><ellipse cx="1040.5" cy="551.8359" fill="none" rx="3" ry="3" style="stroke:#038048;stroke-width:1.0;"/><text fill="#000000" font-family="sans-serif" font-size="14" lengthAdjust="spacing" textLength="228" x="1049.5" y="555.1826">geautomatiseerdeActor: object</text><ellipse cx="1040.5" cy="568.1328" fill="none" rx="3" ry="3" style="stroke:#038048;stroke-width:1.0;"/><text fill="#000000" font-family="sans-serif" font-size="14" lengthAdjust="spacing" textLength="233" x="1049.5" y="571.4795">organisatorischeEenheid: object</text><line style="stroke:#181818;stroke-width:0.5;" x1="1030.5" x2="1287.5" y1="578.7813" y2="578.7813"/></g><!--class Bijlage--><g id="elem_Bijlage"><rect codeLine="82" fill="#F1F1F1" height="80.5938" id="Bijlage" rx="2.5" ry="2.5" style="stroke:#181818;stroke-width:0.5;" width="219" x="1323.5" y="473.5"/><ellipse cx="1404.75" cy="489.5" fill="#ADD1B2" rx="11" ry="11" style="stroke:#181818;stroke-width:1.0;"/><path d="M1407.0938,485.1719 C1406.1563,484.7344 1405.5625,484.5938 1404.6875,484.5938 C1402.0625,484.5938 1400.0625,486.6719 1400.0625,489.3906 L1400.0625,490.5156 C1400.0625,493.0938 1402.1719,494.9844 1405.0625,494.9844 C1406.2813,494.9844 1407.4375,494.6875 1408.1875,494.1406 C1408.7656,493.7344 1409.0938,493.2813 1409.0938,492.8906 C1409.0938,492.4375 1408.7031,492.0469 1408.2344,492.0469 C1408.0156,492.0469 1407.8125,492.125 1407.625,492.3125 C1407.1719,492.7969 1407.1719,492.7969 1406.9844,492.8906 C1406.5625,493.1563 1405.875,493.2813 1405.1094,493.2813 C1403.0625,493.2813 1401.7656,492.1875 1401.7656,490.4844 L1401.7656,489.3906 C1401.7656,487.6094 1403.0156,486.2969 1404.75,486.2969 C1405.3281,486.2969 1405.9375,486.4531 1406.4063,486.7031 C1406.8906,486.9844 1407.0625,487.2031 1407.1563,487.6094 C1407.2188,488.0156 1407.25,488.1406 1407.3906,488.2656 C1407.5313,488.4063 1407.7656,488.5156 1407.9844,488.5156 C1408.25,488.5156 1408.5156,488.375 1408.6875,488.1563 C1408.7969,488 1408.8281,487.8125 1408.8281,487.3906 L1408.8281,485.9688 C1408.8281,485.5313 1408.8125,485.4063 1408.7188,485.25 C1408.5625,484.9844 1408.2813,484.8438 1407.9844,484.8438 C1407.6875,484.8438 1407.4844,484.9375 1407.2656,485.25 L1407.0938,485.1719 Z " fill="#000000"/><text fill="#000000" font-family="sans-serif" font-size="14" lengthAdjust="spacing" textLength="48" x="1425.25" y="494.3467">Bijlage</text><line style="stroke:#181818;stroke-width:0.5;" x1="1324.5" x2="1541.5" y1="505.5" y2="505.5"/><ellipse cx="1334.5" cy="519.1484" fill="none" rx="3" ry="3" style="stroke:#038048;stroke-width:1.0;"/><text fill="#000000" font-family="sans-serif" font-size="14" lengthAdjust="spacing" textLength="193" x="1343.5" y="522.4951">objectIdentificator: object</text><ellipse cx="1334.5" cy="535.4453" fill="none" rx="3" ry="3" style="stroke:#038048;stroke-width:1.0;"/><text fill="#000000" font-family="sans-serif" font-size="14" lengthAdjust="spacing" textLength="149" x="1343.5" y="538.792">klantcontact: object</text><line style="stroke:#181818;stroke-width:0.5;" x1="1324.5" x2="1541.5" y1="546.0938" y2="546.0938"/></g><!--class OrganisatorischeEenheid--><g id="elem_OrganisatorischeEenheid"><rect codeLine="86" fill="#F1F1F1" height="96.8906" id="OrganisatorischeEenheid" rx="2.5" ry="2.5" style="stroke:#181818;stroke-width:0.5;" width="211" x="181.5" y="793.5"/><ellipse cx="196.5" cy="809.5" fill="#ADD1B2" rx="11" ry="11" style="stroke:#181818;stroke-width:1.0;"/><path d="M198.8438,805.1719 C197.9063,804.7344 197.3125,804.5938 196.4375,804.5938 C193.8125,804.5938 191.8125,806.6719 191.8125,809.3906 L191.8125,810.5156 C191.8125,813.0938 193.9219,814.9844 196.8125,814.9844 C198.0313,814.9844 199.1875,814.6875 199.9375,814.1406 C200.5156,813.7344 200.8438,813.2813 200.8438,812.8906 C200.8438,812.4375 200.4531,812.0469 199.9844,812.0469 C199.7656,812.0469 199.5625,812.125 199.375,812.3125 C198.9219,812.7969 198.9219,812.7969 198.7344,812.8906 C198.3125,813.1563 197.625,813.2813 196.8594,813.2813 C194.8125,813.2813 193.5156,812.1875 193.5156,810.4844 L193.5156,809.3906 C193.5156,807.6094 194.7656,806.2969 196.5,806.2969 C197.0781,806.2969 197.6875,806.4531 198.1563,806.7031 C198.6406,806.9844 198.8125,807.2031 198.9063,807.6094 C198.9688,808.0156 199,808.1406 199.1406,808.2656 C199.2813,808.4063 199.5156,808.5156 199.7344,808.5156 C200,808.5156 200.2656,808.375 200.4375,808.1563 C200.5469,808 200.5781,807.8125 200.5781,807.3906 L200.5781,805.9688 C200.5781,805.5313 200.5625,805.4063 200.4688,805.25 C200.3125,804.9844 200.0313,804.8438 199.7344,804.8438 C199.4375,804.8438 199.2344,804.9375 199.0156,805.25 L198.8438,805.1719 Z " fill="#000000"/><text fill="#000000" font-family="sans-serif" font-size="14" lengthAdjust="spacing" textLength="179" x="210.5" y="814.3467">OrganisatorischeEenheid</text><line style="stroke:#181818;stroke-width:0.5;" x1="182.5" x2="391.5" y1="825.5" y2="825.5"/><ellipse cx="192.5" cy="839.1484" fill="none" rx="3" ry="3" style="stroke:#038048;stroke-width:1.0;"/><text fill="#000000" font-family="sans-serif" font-size="14" lengthAdjust="spacing" textLength="142" x="201.5" y="842.4951">omschrijving: string</text><ellipse cx="192.5" cy="855.4453" fill="none" rx="3" ry="3" style="stroke:#038048;stroke-width:1.0;"/><text fill="#000000" font-family="sans-serif" font-size="14" lengthAdjust="spacing" textLength="127" x="201.5" y="858.792">eMailadres: string</text><ellipse cx="192.5" cy="871.7422" fill="none" rx="3" ry="3" style="stroke:#038048;stroke-width:1.0;"/><text fill="#000000" font-family="sans-serif" font-size="14" lengthAdjust="spacing" textLength="173" x="201.5" y="875.0889">telefoonnummer: string</text><line style="stroke:#181818;stroke-width:0.5;" x1="182.5" x2="391.5" y1="882.3906" y2="882.3906"/></g><!--class DigitaalAdres--><g id="elem_DigitaalAdres"><rect codeLine="91" fill="#F1F1F1" height="96.8906" id="DigitaalAdres" rx="2.5" ry="2.5" style="stroke:#181818;stroke-width:0.5;" width="216" x="428" y="793.5"/><ellipse cx="483.75" cy="809.5" fill="#ADD1B2" rx="11" ry="11" style="stroke:#181818;stroke-width:1.0;"/><path d="M486.0938,805.1719 C485.1563,804.7344 484.5625,804.5938 483.6875,804.5938 C481.0625,804.5938 479.0625,806.6719 479.0625,809.3906 L479.0625,810.5156 C479.0625,813.0938 481.1719,814.9844 484.0625,814.9844 C485.2813,814.9844 486.4375,814.6875 487.1875,814.1406 C487.7656,813.7344 488.0938,813.2813 488.0938,812.8906 C488.0938,812.4375 487.7031,812.0469 487.2344,812.0469 C487.0156,812.0469 486.8125,812.125 486.625,812.3125 C486.1719,812.7969 486.1719,812.7969 485.9844,812.8906 C485.5625,813.1563 484.875,813.2813 484.1094,813.2813 C482.0625,813.2813 480.7656,812.1875 480.7656,810.4844 L480.7656,809.3906 C480.7656,807.6094 482.0156,806.2969 483.75,806.2969 C484.3281,806.2969 484.9375,806.4531 485.4063,806.7031 C485.8906,806.9844 486.0625,807.2031 486.1563,807.6094 C486.2188,808.0156 486.25,808.1406 486.3906,808.2656 C486.5313,808.4063 486.7656,808.5156 486.9844,808.5156 C487.25,808.5156 487.5156,808.375 487.6875,808.1563 C487.7969,808 487.8281,807.8125 487.8281,807.3906 L487.8281,805.9688 C487.8281,805.5313 487.8125,805.4063 487.7188,805.25 C487.5625,804.9844 487.2813,804.8438 486.9844,804.8438 C486.6875,804.8438 486.4844,804.9375 486.2656,805.25 L486.0938,805.1719 Z " fill="#000000"/><text fill="#000000" font-family="sans-serif" font-size="14" lengthAdjust="spacing" textLength="96" x="504.25" y="814.3467">DigitaalAdres</text><line style="stroke:#181818;stroke-width:0.5;" x1="429" x2="643" y1="825.5" y2="825.5"/><ellipse cx="439" cy="839.1484" fill="none" rx="3" ry="3" style="stroke:#038048;stroke-width:1.0;"/><text fill="#000000" font-family="sans-serif" font-size="14" lengthAdjust="spacing" textLength="90" x="448" y="842.4951">adres: string</text><ellipse cx="439" cy="855.4453" fill="none" rx="3" ry="3" style="stroke:#038048;stroke-width:1.0;"/><text fill="#000000" font-family="sans-serif" font-size="14" lengthAdjust="spacing" textLength="142" x="448" y="858.792">omschrijving: string</text><ellipse cx="439" cy="871.7422" fill="none" rx="3" ry="3" style="stroke:#038048;stroke-width:1.0;"/><text fill="#000000" font-family="sans-serif" font-size="14" lengthAdjust="spacing" textLength="190" x="448" y="875.0889">soortDigitaalAdres: object</text><line style="stroke:#181818;stroke-width:0.5;" x1="429" x2="643" y1="882.3906" y2="882.3906"/></g><!--class InterneTaak--><g id="elem_InterneTaak"><rect codeLine="96" fill="#F1F1F1" height="162.0781" id="InterneTaak" rx="2.5" ry="2.5" style="stroke:#181818;stroke-width:0.5;" width="223" x="679.5" y="761"/><ellipse cx="743.25" cy="777" fill="#ADD1B2" rx="11" ry="11" style="stroke:#181818;stroke-width:1.0;"/><path d="M745.5938,772.6719 C744.6563,772.2344 744.0625,772.0938 743.1875,772.0938 C740.5625,772.0938 738.5625,774.1719 738.5625,776.8906 L738.5625,778.0156 C738.5625,780.5938 740.6719,782.4844 743.5625,782.4844 C744.7813,782.4844 745.9375,782.1875 746.6875,781.6406 C747.2656,781.2344 747.5938,780.7813 747.5938,780.3906 C747.5938,779.9375 747.2031,779.5469 746.7344,779.5469 C746.5156,779.5469 746.3125,779.625 746.125,779.8125 C745.6719,780.2969 745.6719,780.2969 745.4844,780.3906 C745.0625,780.6563 744.375,780.7813 743.6094,780.7813 C741.5625,780.7813 740.2656,779.6875 740.2656,777.9844 L740.2656,776.8906 C740.2656,775.1094 741.5156,773.7969 743.25,773.7969 C743.8281,773.7969 744.4375,773.9531 744.9063,774.2031 C745.3906,774.4844 745.5625,774.7031 745.6563,775.1094 C745.7188,775.5156 745.75,775.6406 745.8906,775.7656 C746.0313,775.9063 746.2656,776.0156 746.4844,776.0156 C746.75,776.0156 747.0156,775.875 747.1875,775.6563 C747.2969,775.5 747.3281,775.3125 747.3281,774.8906 L747.3281,773.4688 C747.3281,773.0313 747.3125,772.9063 747.2188,772.75 C747.0625,772.4844 746.7813,772.3438 746.4844,772.3438 C746.1875,772.3438 745.9844,772.4375 745.7656,772.75 L745.5938,772.6719 Z " fill="#000000"/><text fill="#000000" font-family="sans-serif" font-size="14" lengthAdjust="spacing" textLength="87" x="763.75" y="781.8467">InterneTaak</text><line style="stroke:#181818;stroke-width:0.5;" x1="680.5" x2="901.5" y1="793" y2="793"/><ellipse cx="690.5" cy="806.6484" fill="none" rx="3" ry="3" style="stroke:#038048;stroke-width:1.0;"/><text fill="#000000" font-family="sans-serif" font-size="14" lengthAdjust="spacing" textLength="186" x="699.5" y="809.9951">toegewezenOp: datetime</text><ellipse cx="690.5" cy="822.9453" fill="none" rx="3" ry="3" style="stroke:#038048;stroke-width:1.0;"/><text fill="#000000" font-family="sans-serif" font-size="14" lengthAdjust="spacing" textLength="197" x="699.5" y="826.292">gevraagdeHandeling: string</text><ellipse cx="690.5" cy="839.2422" fill="none" rx="3" ry="3" style="stroke:#038048;stroke-width:1.0;"/><text fill="#000000" font-family="sans-serif" font-size="14" lengthAdjust="spacing" textLength="122" x="699.5" y="842.5889">nummer: integer</text><ellipse cx="690.5" cy="855.5391" fill="none" rx="3" ry="3" style="stroke:#038048;stroke-width:1.0;"/><text fill="#000000" font-family="sans-serif" font-size="14" lengthAdjust="spacing" textLength="95" x="699.5" y="858.8857">status: string</text><ellipse cx="690.5" cy="871.8359" fill="none" rx="3" ry="3" style="stroke:#038048;stroke-width:1.0;"/><text fill="#000000" font-family="sans-serif" font-size="14" lengthAdjust="spacing" textLength="130" x="699.5" y="875.1826">toelichting: string</text><ellipse cx="690.5" cy="888.1328" fill="none" rx="3" ry="3" style="stroke:#038048;stroke-width:1.0;"/><text fill="#000000" font-family="sans-serif" font-size="14" lengthAdjust="spacing" textLength="94" x="699.5" y="891.4795">actor: object</text><ellipse cx="690.5" cy="904.4297" fill="none" rx="3" ry="3" style="stroke:#038048;stroke-width:1.0;"/><text fill="#000000" font-family="sans-serif" font-size="14" lengthAdjust="spacing" textLength="149" x="699.5" y="907.7764">klantcontact: object</text><line style="stroke:#181818;stroke-width:0.5;" x1="680.5" x2="901.5" y1="915.0781" y2="915.0781"/></g><!--class Klantcontact--><g id="elem_Klantcontact"><rect codeLine="105" fill="#F1F1F1" height="259.8594" id="Klantcontact" rx="2.5" ry="2.5" style="stroke:#181818;stroke-width:0.5;" width="245" x="937.5" y="712"/><ellipse cx="1008.75" cy="728" fill="#ADD1B2" rx="11" ry="11" style="stroke:#181818;stroke-width:1.0;"/><path d="M1011.0938,723.6719 C1010.1563,723.2344 1009.5625,723.0938 1008.6875,723.0938 C1006.0625,723.0938 1004.0625,725.1719 1004.0625,727.8906 L1004.0625,729.0156 C1004.0625,731.5938 1006.1719,733.4844 1009.0625,733.4844 C1010.2813,733.4844 1011.4375,733.1875 1012.1875,732.6406 C1012.7656,732.2344 1013.0938,731.7813 1013.0938,731.3906 C1013.0938,730.9375 1012.7031,730.5469 1012.2344,730.5469 C1012.0156,730.5469 1011.8125,730.625 1011.625,730.8125 C1011.1719,731.2969 1011.1719,731.2969 1010.9844,731.3906 C1010.5625,731.6563 1009.875,731.7813 1009.1094,731.7813 C1007.0625,731.7813 1005.7656,730.6875 1005.7656,728.9844 L1005.7656,727.8906 C1005.7656,726.1094 1007.0156,724.7969 1008.75,724.7969 C1009.3281,724.7969 1009.9375,724.9531 1010.4063,725.2031 C1010.8906,725.4844 1011.0625,725.7031 1011.1563,726.1094 C1011.2188,726.5156 1011.25,726.6406 1011.3906,726.7656 C1011.5313,726.9063 1011.7656,727.0156 1011.9844,727.0156 C1012.25,727.0156 1012.5156,726.875 1012.6875,726.6563 C1012.7969,726.5 1012.8281,726.3125 1012.8281,725.8906 L1012.8281,724.4688 C1012.8281,724.0313 1012.8125,723.9063 1012.7188,723.75 C1012.5625,723.4844 1012.2813,723.3438 1011.9844,723.3438 C1011.6875,723.3438 1011.4844,723.4375 1011.2656,723.75 L1011.0938,723.6719 Z " fill="#000000"/><text fill="#000000" font-family="sans-serif" font-size="14" lengthAdjust="spacing" textLength="94" x="1029.25" y="732.8467">Klantcontact</text><line style="stroke:#181818;stroke-width:0.5;" x1="938.5" x2="1181.5" y1="744" y2="744"/><ellipse cx="948.5" cy="757.6484" fill="none" rx="3" ry="3" style="stroke:#038048;stroke-width:1.0;"/><text fill="#000000" font-family="sans-serif" font-size="14" lengthAdjust="spacing" textLength="122" x="957.5" y="760.9951">nummer: integer</text><ellipse cx="948.5" cy="773.9453" fill="none" rx="3" ry="3" style="stroke:#038048;stroke-width:1.0;"/><text fill="#000000" font-family="sans-serif" font-size="14" lengthAdjust="spacing" textLength="129" x="957.5" y="777.292">onderwerp: string</text><ellipse cx="948.5" cy="790.2422" fill="none" rx="3" ry="3" style="stroke:#038048;stroke-width:1.0;"/><text fill="#000000" font-family="sans-serif" font-size="14" lengthAdjust="spacing" textLength="102" x="957.5" y="793.5889">kanaal: object</text><ellipse cx="948.5" cy="806.5391" fill="none" rx="3" ry="3" style="stroke:#038048;stroke-width:1.0;"/><text fill="#000000" font-family="sans-serif" font-size="14" lengthAdjust="spacing" textLength="99" x="957.5" y="809.8857">inhoud: string</text><ellipse cx="948.5" cy="822.8359" fill="none" rx="3" ry="3" style="stroke:#038048;stroke-width:1.0;"/><text fill="#000000" font-family="sans-serif" font-size="14" lengthAdjust="spacing" textLength="219" x="957.5" y="826.1826">indicatieContactGelukt: string</text><ellipse cx="948.5" cy="839.1328" fill="none" rx="3" ry="3" style="stroke:#038048;stroke-width:1.0;"/><text fill="#000000" font-family="sans-serif" font-size="14" lengthAdjust="spacing" textLength="78" x="957.5" y="842.4795">taal: string</text><ellipse cx="948.5" cy="855.4297" fill="none" rx="3" ry="3" style="stroke:#038048;stroke-width:1.0;"/><text fill="#000000" font-family="sans-serif" font-size="14" lengthAdjust="spacing" textLength="145" x="957.5" y="858.7764">vertrouwelijk: string</text><ellipse cx="948.5" cy="871.7266" fill="none" rx="3" ry="3" style="stroke:#038048;stroke-width:1.0;"/><text fill="#000000" font-family="sans-serif" font-size="14" lengthAdjust="spacing" textLength="212" x="957.5" y="875.0732">plaatsgevondenOp: datetime</text><ellipse cx="948.5" cy="888.0234" fill="none" rx="3" ry="3" style="stroke:#038048;stroke-width:1.0;"/><text fill="#000000" font-family="sans-serif" font-size="14" lengthAdjust="spacing" textLength="90" x="957.5" y="891.3701">actors: array</text><ellipse cx="948.5" cy="904.3203" fill="none" rx="3" ry="3" style="stroke:#038048;stroke-width:1.0;"/><text fill="#000000" font-family="sans-serif" font-size="14" lengthAdjust="spacing" textLength="93" x="957.5" y="907.667">bijlage: array</text><ellipse cx="948.5" cy="920.6172" fill="none" rx="3" ry="3" style="stroke:#038048;stroke-width:1.0;"/><text fill="#000000" font-family="sans-serif" font-size="14" lengthAdjust="spacing" textLength="122" x="957.5" y="923.9639">gaatOver: object</text><ellipse cx="948.5" cy="936.9141" fill="none" rx="3" ry="3" style="stroke:#038048;stroke-width:1.0;"/><text fill="#000000" font-family="sans-serif" font-size="14" lengthAdjust="spacing" textLength="218" x="957.5" y="940.2607">interneTaakOntstaanUit: array</text><ellipse cx="948.5" cy="953.2109" fill="none" rx="3" ry="3" style="stroke:#038048;stroke-width:1.0;"/><text fill="#000000" font-family="sans-serif" font-size="14" lengthAdjust="spacing" textLength="196" x="957.5" y="956.5576">geregistreerdOp: datetime</text><line style="stroke:#181818;stroke-width:0.5;" x1="938.5" x2="1181.5" y1="963.8594" y2="963.8594"/></g><!--class BetrokkeneBijKlantcontact--><g id="elem_BetrokkeneBijKlantcontact"><rect codeLine="120" fill="#F1F1F1" height="210.9688" id="BetrokkeneBijKlantcontact" rx="2.5" ry="2.5" style="stroke:#181818;stroke-width:0.5;" width="241" x="1217.5" y="736.5"/><ellipse cx="1237.45" cy="752.5" fill="#ADD1B2" rx="11" ry="11" style="stroke:#181818;stroke-width:1.0;"/><path d="M1239.7938,748.1719 C1238.8563,747.7344 1238.2625,747.5938 1237.3875,747.5938 C1234.7625,747.5938 1232.7625,749.6719 1232.7625,752.3906 L1232.7625,753.5156 C1232.7625,756.0938 1234.8719,757.9844 1237.7625,757.9844 C1238.9813,757.9844 1240.1375,757.6875 1240.8875,757.1406 C1241.4656,756.7344 1241.7938,756.2813 1241.7938,755.8906 C1241.7938,755.4375 1241.4031,755.0469 1240.9344,755.0469 C1240.7156,755.0469 1240.5125,755.125 1240.325,755.3125 C1239.8719,755.7969 1239.8719,755.7969 1239.6844,755.8906 C1239.2625,756.1563 1238.575,756.2813 1237.8094,756.2813 C1235.7625,756.2813 1234.4656,755.1875 1234.4656,753.4844 L1234.4656,752.3906 C1234.4656,750.6094 1235.7156,749.2969 1237.45,749.2969 C1238.0281,749.2969 1238.6375,749.4531 1239.1063,749.7031 C1239.5906,749.9844 1239.7625,750.2031 1239.8563,750.6094 C1239.9188,751.0156 1239.95,751.1406 1240.0906,751.2656 C1240.2313,751.4063 1240.4656,751.5156 1240.6844,751.5156 C1240.95,751.5156 1241.2156,751.375 1241.3875,751.1563 C1241.4969,751 1241.5281,750.8125 1241.5281,750.3906 L1241.5281,748.9688 C1241.5281,748.5313 1241.5125,748.4063 1241.4188,748.25 C1241.2625,747.9844 1240.9813,747.8438 1240.6844,747.8438 C1240.3875,747.8438 1240.1844,747.9375 1239.9656,748.25 L1239.7938,748.1719 Z " fill="#000000"/><text fill="#000000" font-family="sans-serif" font-size="14" lengthAdjust="spacing" textLength="198" x="1252.55" y="757.3467">BetrokkeneBijKlantcontact</text><line style="stroke:#181818;stroke-width:0.5;" x1="1218.5" x2="1457.5" y1="768.5" y2="768.5"/><ellipse cx="1228.5" cy="782.1484" fill="none" rx="3" ry="3" style="stroke:#038048;stroke-width:1.0;"/><text fill="#000000" font-family="sans-serif" font-size="14" lengthAdjust="spacing" textLength="149" x="1237.5" y="785.4951">klantcontact: object</text><ellipse cx="1228.5" cy="798.4453" fill="none" rx="3" ry="3" style="stroke:#038048;stroke-width:1.0;"/><text fill="#000000" font-family="sans-serif" font-size="14" lengthAdjust="spacing" textLength="95" x="1237.5" y="801.792">partij: object</text><ellipse cx="1228.5" cy="814.7422" fill="none" rx="3" ry="3" style="stroke:#038048;stroke-width:1.0;"/><text fill="#000000" font-family="sans-serif" font-size="14" lengthAdjust="spacing" textLength="70" x="1237.5" y="818.0889">rol: string</text><ellipse cx="1228.5" cy="831.0391" fill="none" rx="3" ry="3" style="stroke:#038048;stroke-width:1.0;"/><text fill="#000000" font-family="sans-serif" font-size="14" lengthAdjust="spacing" textLength="132" x="1237.5" y="834.3857">intitiator: boolean</text><ellipse cx="1228.5" cy="847.3359" fill="none" rx="3" ry="3" style="stroke:#038048;stroke-width:1.0;"/><text fill="#000000" font-family="sans-serif" font-size="14" lengthAdjust="spacing" textLength="170" x="1237.5" y="850.6826">organisatienaam: string</text><ellipse cx="1228.5" cy="863.6328" fill="none" rx="3" ry="3" style="stroke:#038048;stroke-width:1.0;"/><text fill="#000000" font-family="sans-serif" font-size="14" lengthAdjust="spacing" textLength="151" x="1237.5" y="866.9795">contactnaam: object</text><ellipse cx="1228.5" cy="879.9297" fill="none" rx="3" ry="3" style="stroke:#038048;stroke-width:1.0;"/><text fill="#000000" font-family="sans-serif" font-size="14" lengthAdjust="spacing" textLength="149" x="1237.5" y="883.2764">bezoekadres: object</text><ellipse cx="1228.5" cy="896.2266" fill="none" rx="3" ry="3" style="stroke:#038048;stroke-width:1.0;"/><text fill="#000000" font-family="sans-serif" font-size="14" lengthAdjust="spacing" textLength="215" x="1237.5" y="899.5732">correspondentieadres: object</text><ellipse cx="1228.5" cy="912.5234" fill="none" rx="3" ry="3" style="stroke:#038048;stroke-width:1.0;"/><text fill="#000000" font-family="sans-serif" font-size="14" lengthAdjust="spacing" textLength="204" x="1237.5" y="915.8701">communicatiekanaal: object</text><ellipse cx="1228.5" cy="928.8203" fill="none" rx="3" ry="3" style="stroke:#038048;stroke-width:1.0;"/><text fill="#000000" font-family="sans-serif" font-size="14" lengthAdjust="spacing" textLength="154" x="1237.5" y="932.167">voorkeurstaal: object</text><line style="stroke:#181818;stroke-width:0.5;" x1="1218.5" x2="1457.5" y1="939.4688" y2="939.4688"/></g><!--class Onderwerpobject--><g id="elem_Onderwerpobject"><rect codeLine="132" fill="#F1F1F1" height="80.5938" id="Onderwerpobject" rx="2.5" ry="2.5" style="stroke:#181818;stroke-width:0.5;" width="560" x="7" y="1032"/><ellipse cx="219.25" cy="1048" fill="#ADD1B2" rx="11" ry="11" style="stroke:#181818;stroke-width:1.0;"/><path d="M221.5938,1043.6719 C220.6563,1043.2344 220.0625,1043.0938 219.1875,1043.0938 C216.5625,1043.0938 214.5625,1045.1719 214.5625,1047.8906 L214.5625,1049.0156 C214.5625,1051.5938 216.6719,1053.4844 219.5625,1053.4844 C220.7813,1053.4844 221.9375,1053.1875 222.6875,1052.6406 C223.2656,1052.2344 223.5938,1051.7813 223.5938,1051.3906 C223.5938,1050.9375 223.2031,1050.5469 222.7344,1050.5469 C222.5156,1050.5469 222.3125,1050.625 222.125,1050.8125 C221.6719,1051.2969 221.6719,1051.2969 221.4844,1051.3906 C221.0625,1051.6563 220.375,1051.7813 219.6094,1051.7813 C217.5625,1051.7813 216.2656,1050.6875 216.2656,1048.9844 L216.2656,1047.8906 C216.2656,1046.1094 217.5156,1044.7969 219.25,1044.7969 C219.8281,1044.7969 220.4375,1044.9531 220.9063,1045.2031 C221.3906,1045.4844 221.5625,1045.7031 221.6563,1046.1094 C221.7188,1046.5156 221.75,1046.6406 221.8906,1046.7656 C222.0313,1046.9063 222.2656,1047.0156 222.4844,1047.0156 C222.75,1047.0156 223.0156,1046.875 223.1875,1046.6563 C223.2969,1046.5 223.3281,1046.3125 223.3281,1045.8906 L223.3281,1044.4688 C223.3281,1044.0313 223.3125,1043.9063 223.2188,1043.75 C223.0625,1043.4844 222.7813,1043.3438 222.4844,1043.3438 C222.1875,1043.3438 221.9844,1043.4375 221.7656,1043.75 L221.5938,1043.6719 Z " fill="#000000"/><text fill="#000000" font-family="sans-serif" font-size="14" lengthAdjust="spacing" textLength="127" x="239.75" y="1052.8467">Onderwerpobject</text><line style="stroke:#181818;stroke-width:0.5;" x1="8" x2="566" y1="1064" y2="1064"/><ellipse cx="18" cy="1077.6484" fill="none" rx="3" ry="3" style="stroke:#038048;stroke-width:1.0;"/><text fill="#000000" font-family="sans-serif" font-size="14" lengthAdjust="spacing" textLength="193" x="27" y="1080.9951">objectIdentificator: object</text><ellipse cx="18" cy="1093.9453" fill="none" rx="3" ry="3" style="stroke:#038048;stroke-width:1.0;"/><text fill="#000000" font-family="sans-serif" font-size="14" lengthAdjust="spacing" textLength="534" x="27" y="1097.292">klantContact: https://commongateway.nl/klant.klantcontact.schema.json</text><line style="stroke:#181818;stroke-width:0.5;" x1="8" x2="566" y1="1104.5938" y2="1104.5938"/></g><!--class Organisatie--><g id="elem_Organisatie"><rect codeLine="136" fill="#F1F1F1" height="64.2969" id="Organisatie" rx="2.5" ry="2.5" style="stroke:#181818;stroke-width:0.5;" width="116" x="602" y="1040.5"/><ellipse cx="617.9" cy="1056.5" fill="#ADD1B2" rx="11" ry="11" style="stroke:#181818;stroke-width:1.0;"/><path d="M620.2438,1052.1719 C619.3063,1051.7344 618.7125,1051.5938 617.8375,1051.5938 C615.2125,1051.5938 613.2125,1053.6719 613.2125,1056.3906 L613.2125,1057.5156 C613.2125,1060.0938 615.3219,1061.9844 618.2125,1061.9844 C619.4313,1061.9844 620.5875,1061.6875 621.3375,1061.1406 C621.9156,1060.7344 622.2438,1060.2813 622.2438,1059.8906 C622.2438,1059.4375 621.8531,1059.0469 621.3844,1059.0469 C621.1656,1059.0469 620.9625,1059.125 620.775,1059.3125 C620.3219,1059.7969 620.3219,1059.7969 620.1344,1059.8906 C619.7125,1060.1563 619.025,1060.2813 618.2594,1060.2813 C616.2125,1060.2813 614.9156,1059.1875 614.9156,1057.4844 L614.9156,1056.3906 C614.9156,1054.6094 616.1656,1053.2969 617.9,1053.2969 C618.4781,1053.2969 619.0875,1053.4531 619.5563,1053.7031 C620.0406,1053.9844 620.2125,1054.2031 620.3063,1054.6094 C620.3688,1055.0156 620.4,1055.1406 620.5406,1055.2656 C620.6813,1055.4063 620.9156,1055.5156 621.1344,1055.5156 C621.4,1055.5156 621.6656,1055.375 621.8375,1055.1563 C621.9469,1055 621.9781,1054.8125 621.9781,1054.3906 L621.9781,1052.9688 C621.9781,1052.5313 621.9625,1052.4063 621.8688,1052.25 C621.7125,1051.9844 621.4313,1051.8438 621.1344,1051.8438 C620.8375,1051.8438 620.6344,1051.9375 620.4156,1052.25 L620.2438,1052.1719 Z " fill="#000000"/><text fill="#000000" font-family="sans-serif" font-size="14" lengthAdjust="spacing" textLength="82" x="632.1" y="1061.3467">Organisatie</text><line style="stroke:#181818;stroke-width:0.5;" x1="603" x2="717" y1="1072.5" y2="1072.5"/><ellipse cx="613" cy="1086.1484" fill="none" rx="3" ry="3" style="stroke:#038048;stroke-width:1.0;"/><text fill="#000000" font-family="sans-serif" font-size="14" lengthAdjust="spacing" textLength="90" x="622" y="1089.4951">naam: string</text><line style="stroke:#181818;stroke-width:0.5;" x1="603" x2="717" y1="1096.7969" y2="1096.7969"/></g><!--class Contactpersoon--><g id="elem_Contactpersoon"><rect codeLine="139" fill="#F1F1F1" height="80.5938" id="Contactpersoon" rx="2.5" ry="2.5" style="stroke:#181818;stroke-width:0.5;" width="177" x="753.5" y="1032"/><ellipse cx="781.1" cy="1048" fill="#ADD1B2" rx="11" ry="11" style="stroke:#181818;stroke-width:1.0;"/><path d="M783.4438,1043.6719 C782.5063,1043.2344 781.9125,1043.0938 781.0375,1043.0938 C778.4125,1043.0938 776.4125,1045.1719 776.4125,1047.8906 L776.4125,1049.0156 C776.4125,1051.5938 778.5219,1053.4844 781.4125,1053.4844 C782.6313,1053.4844 783.7875,1053.1875 784.5375,1052.6406 C785.1156,1052.2344 785.4438,1051.7813 785.4438,1051.3906 C785.4438,1050.9375 785.0531,1050.5469 784.5844,1050.5469 C784.3656,1050.5469 784.1625,1050.625 783.975,1050.8125 C783.5219,1051.2969 783.5219,1051.2969 783.3344,1051.3906 C782.9125,1051.6563 782.225,1051.7813 781.4594,1051.7813 C779.4125,1051.7813 778.1156,1050.6875 778.1156,1048.9844 L778.1156,1047.8906 C778.1156,1046.1094 779.3656,1044.7969 781.1,1044.7969 C781.6781,1044.7969 782.2875,1044.9531 782.7563,1045.2031 C783.2406,1045.4844 783.4125,1045.7031 783.5063,1046.1094 C783.5688,1046.5156 783.6,1046.6406 783.7406,1046.7656 C783.8813,1046.9063 784.1156,1047.0156 784.3344,1047.0156 C784.6,1047.0156 784.8656,1046.875 785.0375,1046.6563 C785.1469,1046.5 785.1781,1046.3125 785.1781,1045.8906 L785.1781,1044.4688 C785.1781,1044.0313 785.1625,1043.9063 785.0688,1043.75 C784.9125,1043.4844 784.6313,1043.3438 784.3344,1043.3438 C784.0375,1043.3438 783.8344,1043.4375 783.6156,1043.75 L783.4438,1043.6719 Z " fill="#000000"/><text fill="#000000" font-family="sans-serif" font-size="14" lengthAdjust="spacing" textLength="117" x="797.9" y="1052.8467">Contactpersoon</text><line style="stroke:#181818;stroke-width:0.5;" x1="754.5" x2="929.5" y1="1064" y2="1064"/><ellipse cx="764.5" cy="1077.6484" fill="none" rx="3" ry="3" style="stroke:#038048;stroke-width:1.0;"/><text fill="#000000" font-family="sans-serif" font-size="14" lengthAdjust="spacing" textLength="151" x="773.5" y="1080.9951">contactnaam: object</text><ellipse cx="764.5" cy="1093.9453" fill="none" rx="3" ry="3" style="stroke:#038048;stroke-width:1.0;"/><text fill="#000000" font-family="sans-serif" font-size="14" lengthAdjust="spacing" textLength="136" x="773.5" y="1097.292">organisatie: object</text><line style="stroke:#181818;stroke-width:0.5;" x1="754.5" x2="929.5" y1="1104.5938" y2="1104.5938"/></g><!--SRC=[pLSxRzim4DxxAxGNSD1sysQdGHAqgJkqtMdfBD6YI8CysKsA_FSUIKacHIP1CXHT3FlUTn_luL8mOufVIkaMUbtyULSKxujILR0i36ekQqUGZ7KJuV5TwPGkbKHMekKDUgni47GaRCb7ifub7XNK1iJgQJK1I2oJ-FxEDFBzu5RsNGTwMN29K8DsDFjTI_Yca2EFa-6ouYKZwZKqmBj6zHMnbiLMAG5CJhvjGGmo9fQ5skwXn5XxLTB7BbOpf8O-jiYbqZMJt30NIc3iGBaf9IDQwSkQOqrHjKpEupgIF6fe4LQL1cE0L9dMxDvnj_2We6MMCtEcYNHGiW99mQK2yDlLyTRnTpvp4reclxRgyaInLRosECHHXTpgdFw8v5N6mVYSA2eDlfm1N-cejeSSV-RaAvaQZ081M37iEqjR5lGL1bm9ejhaM89-9YrXYTcsk8CAJa0uZTq4TuoBeRA1WLqlo_dJH12m8zJ75vrqN8hMM2iAf-Vs8Q_v_gRdPcR2oLXvJN28TSyHf4tXmuiI7r-K-1HBI7HevxgoeS1yIqSgJH3lNDpJKO4T5gvFPo343QKCRlkiCSjAK7GDUvbjWb0ADMCOaIX5UH14JMVJ-jnh_nqu_mI0V9NNuGXwSt5fwggniLhoZiEu34TIiacSVwSPaRkfKwCKQc0zgeu6aG7G5GoAWSGqpfNcfcpW2YHjaYePEuIsOFKupZmpFwZIT6QcDdcNe-cEQ9hlZtDydfWzByoPpxpcTl6jmZUS67dIgIjtP2D9vzQlvn-CjODzUc0reV40SdFminTv1mCWHteYj3nkx4OGStUvXqjx6_jPpefKwTAOgxFoLK1y2PZFt1zsc6XwN8V8LsPlSsaFaFo1CbnOro3wDkuGVvQ4nnArg5RzYNBSj_5-T8r4DNJpBIckIp_Qw5l_QaDIJIOsnrcVy3E66udsKf8_UTI8L0mQ6VOieJwAF9zd9KNTjY21UYLJsYmKvwqVaRGIipBQsy-tMNYa1STOCYdAyqqRsNxp_LIghkkbXpDtjMNlpAdfnqVawQ-P8vTZpHh4WrbUNDX05Dqu22Tslv3YmeajmW8lx63fs69lb4m7ptIMFVTdOBXQf_yH-Mhcpk77lm00]--></g></svg>