<?xml version="1.0" encoding="us-ascii" standalone="no"?><svg xmlns="http://www.w3.org/2000/svg" xmlns:xlink="http://www.w3.org/1999/xlink" contentStyleType="text/css" height="164px" preserveAspectRatio="none" style="width:410px;height:164px;background:#FFFFFF;" version="1.1" viewBox="0 0 410 164" width="410px" zoomAndPan="magnify"><defs/><g><text fill="#888888" font-family="sans-serif" font-size="10" lengthAdjust="spacing" textLength="45" x="357" y="9.2822">Schema</text><text fill="#000000" font-family="sans-serif" font-size="14" font-weight="bold" lengthAdjust="spacing" textLength="45" x="178.5" y="35.6357">Actor</text><!--class Actor--><g id="elem_Actor"><rect codeLine="5" fill="#F1F1F1" height="80.5938" id="Actor" rx="2.5" ry="2.5" style="stroke:#181818;stroke-width:0.5;" width="177" x="113" y="56.9375"/><ellipse cx="177.25" cy="72.9375" fill="#ADD1B2" rx="11" ry="11" style="stroke:#181818;stroke-width:1.0;"/><path d="M179.5938,68.6094 C178.6563,68.1719 178.0625,68.0313 177.1875,68.0313 C174.5625,68.0313 172.5625,70.1094 172.5625,72.8281 L172.5625,73.9531 C172.5625,76.5313 174.6719,78.4219 177.5625,78.4219 C178.7813,78.4219 179.9375,78.125 180.6875,77.5781 C181.2656,77.1719 181.5938,76.7188 181.5938,76.3281 C181.5938,75.875 181.2031,75.4844 180.7344,75.4844 C180.5156,75.4844 180.3125,75.5625 180.125,75.75 C179.6719,76.2344 179.6719,76.2344 179.4844,76.3281 C179.0625,76.5938 178.375,76.7188 177.6094,76.7188 C175.5625,76.7188 174.2656,75.625 174.2656,73.9219 L174.2656,72.8281 C174.2656,71.0469 175.5156,69.7344 177.25,69.7344 C177.8281,69.7344 178.4375,69.8906 178.9063,70.1406 C179.3906,70.4219 179.5625,70.6406 179.6563,71.0469 C179.7188,71.4531 179.75,71.5781 179.8906,71.7031 C180.0313,71.8438 180.2656,71.9531 180.4844,71.9531 C180.75,71.9531 181.0156,71.8125 181.1875,71.5938 C181.2969,71.4375 181.3281,71.25 181.3281,70.8281 L181.3281,69.4063 C181.3281,68.9688 181.3125,68.8438 181.2188,68.6875 C181.0625,68.4219 180.7813,68.2813 180.4844,68.2813 C180.1875,68.2813 179.9844,68.375 179.7656,68.6875 L179.5938,68.6094 Z " fill="#000000"/><text fill="#000000" font-family="sans-serif" font-size="14" lengthAdjust="spacing" textLength="40" x="197.75" y="77.7842">Actor</text><line style="stroke:#181818;stroke-width:0.5;" x1="114" x2="289" y1="88.9375" y2="88.9375"/><ellipse cx="124" cy="102.5859" fill="none" rx="3" ry="3" style="stroke:#038048;stroke-width:1.0;"/><text fill="#000000" font-family="sans-serif" font-size="14" lengthAdjust="spacing" textLength="151" x="133" y="105.9326">klantcontactId: array</text><ellipse cx="124" cy="118.8828" fill="none" rx="3" ry="3" style="stroke:#038048;stroke-width:1.0;"/><text fill="#000000" font-family="sans-serif" font-size="14" lengthAdjust="spacing" textLength="90" x="133" y="122.2295">naam: string</text><line style="stroke:#181818;stroke-width:0.5;" x1="114" x2="289" y1="129.5313" y2="129.5313"/></g><text fill="#888888" font-family="sans-serif" font-size="10" lengthAdjust="spacing" textLength="402" x="0" y="153.8135">Common Gateway Plugin | Commongateway | Customerinteractionbundle</text><!--SRC=[BOqn3a8X44HxJZ6zDw0p5iREn1EiiFA9i9l04lEZtbtKNywRl1dBLjXZ7qoRkwaQDu-3rgg28na_QCMvZ9G5husd3SyykcdbbcLg52ohN8V4md0BK_nENSB2bPmBXNh_t-3fW1tkXSI2Yatn53seDLf_ZH1LZsvpDxdt1m00]--></g></svg>