<?xml version="1.0" encoding="us-ascii" standalone="no"?><svg xmlns="http://www.w3.org/2000/svg" xmlns:xlink="http://www.w3.org/1999/xlink" contentStyleType="text/css" height="180px" preserveAspectRatio="none" style="width:410px;height:180px;background:#FFFFFF;" version="1.1" viewBox="0 0 410 180" width="410px" zoomAndPan="magnify"><defs/><g><text fill="#888888" font-family="sans-serif" font-size="10" lengthAdjust="spacing" textLength="45" x="357" y="9.2822">Schema</text><text fill="#000000" font-family="sans-serif" font-size="14" font-weight="bold" lengthAdjust="spacing" textLength="161" x="120.5" y="35.6357">ExterneIdentificatie</text><!--class ExterneIdentificatie--><g id="elem_ExterneIdentificatie"><rect codeLine="5" fill="#F1F1F1" height="96.8906" id="ExterneIdentificatie" rx="2.5" ry="2.5" style="stroke:#181818;stroke-width:0.5;" width="219" x="92" y="56.9375"/><ellipse cx="125.9" cy="72.9375" fill="#ADD1B2" rx="11" ry="11" style="stroke:#181818;stroke-width:1.0;"/><path d="M128.2438,68.6094 C127.3063,68.1719 126.7125,68.0313 125.8375,68.0313 C123.2125,68.0313 121.2125,70.1094 121.2125,72.8281 L121.2125,73.9531 C121.2125,76.5313 123.3219,78.4219 126.2125,78.4219 C127.4313,78.4219 128.5875,78.125 129.3375,77.5781 C129.9156,77.1719 130.2438,76.7188 130.2438,76.3281 C130.2438,75.875 129.8531,75.4844 129.3844,75.4844 C129.1656,75.4844 128.9625,75.5625 128.775,75.75 C128.3219,76.2344 128.3219,76.2344 128.1344,76.3281 C127.7125,76.5938 127.025,76.7188 126.2594,76.7188 C124.2125,76.7188 122.9156,75.625 122.9156,73.9219 L122.9156,72.8281 C122.9156,71.0469 124.1656,69.7344 125.9,69.7344 C126.4781,69.7344 127.0875,69.8906 127.5563,70.1406 C128.0406,70.4219 128.2125,70.6406 128.3063,71.0469 C128.3688,71.4531 128.4,71.5781 128.5406,71.7031 C128.6813,71.8438 128.9156,71.9531 129.1344,71.9531 C129.4,71.9531 129.6656,71.8125 129.8375,71.5938 C129.9469,71.4375 129.9781,71.25 129.9781,70.8281 L129.9781,69.4063 C129.9781,68.9688 129.9625,68.8438 129.8688,68.6875 C129.7125,68.4219 129.4313,68.2813 129.1344,68.2813 C128.8375,68.2813 128.6344,68.375 128.4156,68.6875 L128.2438,68.6094 Z " fill="#000000"/><text fill="#000000" font-family="sans-serif" font-size="14" lengthAdjust="spacing" textLength="145" x="144.1" y="77.7842">ExterneIdentificatie</text><line style="stroke:#181818;stroke-width:0.5;" x1="93" x2="310" y1="88.9375" y2="88.9375"/><ellipse cx="103" cy="102.5859" fill="none" rx="3" ry="3" style="stroke:#038048;stroke-width:1.0;"/><text fill="#000000" font-family="sans-serif" font-size="14" lengthAdjust="spacing" textLength="193" x="112" y="105.9326">anderSoortExternId: string</text><ellipse cx="103" cy="118.8828" fill="none" rx="3" ry="3" style="stroke:#038048;stroke-width:1.0;"/><text fill="#000000" font-family="sans-serif" font-size="14" lengthAdjust="spacing" textLength="112" x="112" y="122.2295">externId: string</text><ellipse cx="103" cy="135.1797" fill="none" rx="3" ry="3" style="stroke:#038048;stroke-width:1.0;"/><text fill="#000000" font-family="sans-serif" font-size="14" lengthAdjust="spacing" textLength="155" x="112" y="138.5264">soortExternId: object</text><line style="stroke:#181818;stroke-width:0.5;" x1="93" x2="310" y1="145.8281" y2="145.8281"/></g><text fill="#888888" font-family="sans-serif" font-size="10" lengthAdjust="spacing" textLength="402" x="0" y="170.1104">Common Gateway Plugin | Commongateway | Customerinteractionbundle</text><!--SRC=[ROqn3i8m34NtdC8xD-YA4Eg6r1EuYPiQ9RQKk09Kk3i1kY1r_C_F_njReWvETwCYr0SIuuaz6fERL1ljuAWvgy0PZMxuW4jQ8WiyDnuttF9IJJCLblQ6tbXbN2Ga0ZSJXa_Lu6VAw9nFMElkAgmEu00epHzKY_saFdHGhLN7xvdsOFtNTRoID_Tw0m00]--></g></svg>