<?xml version="1.0" encoding="us-ascii" standalone="no"?><svg xmlns="http://www.w3.org/2000/svg" xmlns:xlink="http://www.w3.org/1999/xlink" contentStyleType="text/css" height="180px" preserveAspectRatio="none" style="width:410px;height:180px;background:#FFFFFF;" version="1.1" viewBox="0 0 410 180" width="410px" zoomAndPan="magnify"><defs/><g><text fill="#888888" font-family="sans-serif" font-size="10" lengthAdjust="spacing" textLength="45" x="357" y="9.2822">Schema</text><text fill="#000000" font-family="sans-serif" font-size="14" font-weight="bold" lengthAdjust="spacing" textLength="119" x="141.5" y="35.6357">Persoonsnaam</text><!--class Persoonsnaam--><g id="elem_Persoonsnaam"><rect codeLine="5" fill="#F1F1F1" height="96.8906" id="Persoonsnaam" rx="2.5" ry="2.5" style="stroke:#181818;stroke-width:0.5;" width="252" x="75.5" y="56.9375"/><ellipse cx="145.25" cy="72.9375" fill="#ADD1B2" rx="11" ry="11" style="stroke:#181818;stroke-width:1.0;"/><path d="M147.5938,68.6094 C146.6563,68.1719 146.0625,68.0313 145.1875,68.0313 C142.5625,68.0313 140.5625,70.1094 140.5625,72.8281 L140.5625,73.9531 C140.5625,76.5313 142.6719,78.4219 145.5625,78.4219 C146.7813,78.4219 147.9375,78.125 148.6875,77.5781 C149.2656,77.1719 149.5938,76.7188 149.5938,76.3281 C149.5938,75.875 149.2031,75.4844 148.7344,75.4844 C148.5156,75.4844 148.3125,75.5625 148.125,75.75 C147.6719,76.2344 147.6719,76.2344 147.4844,76.3281 C147.0625,76.5938 146.375,76.7188 145.6094,76.7188 C143.5625,76.7188 142.2656,75.625 142.2656,73.9219 L142.2656,72.8281 C142.2656,71.0469 143.5156,69.7344 145.25,69.7344 C145.8281,69.7344 146.4375,69.8906 146.9063,70.1406 C147.3906,70.4219 147.5625,70.6406 147.6563,71.0469 C147.7188,71.4531 147.75,71.5781 147.8906,71.7031 C148.0313,71.8438 148.2656,71.9531 148.4844,71.9531 C148.75,71.9531 149.0156,71.8125 149.1875,71.5938 C149.2969,71.4375 149.3281,71.25 149.3281,70.8281 L149.3281,69.4063 C149.3281,68.9688 149.3125,68.8438 149.2188,68.6875 C149.0625,68.4219 148.7813,68.2813 148.4844,68.2813 C148.1875,68.2813 147.9844,68.375 147.7656,68.6875 L147.5938,68.6094 Z " fill="#000000"/><text fill="#000000" font-family="sans-serif" font-size="14" lengthAdjust="spacing" textLength="104" x="165.75" y="77.7842">Persoonsnaam</text><line style="stroke:#181818;stroke-width:0.5;" x1="76.5" x2="326.5" y1="88.9375" y2="88.9375"/><ellipse cx="86.5" cy="102.5859" fill="none" rx="3" ry="3" style="stroke:#038048;stroke-width:1.0;"/><text fill="#000000" font-family="sans-serif" font-size="14" lengthAdjust="spacing" textLength="137" x="95.5" y="105.9326">achternaam: string</text><ellipse cx="86.5" cy="118.8828" fill="none" rx="3" ry="3" style="stroke:#038048;stroke-width:1.0;"/><text fill="#000000" font-family="sans-serif" font-size="14" lengthAdjust="spacing" textLength="122" x="95.5" y="122.2295">voornaam: string</text><ellipse cx="86.5" cy="135.1797" fill="none" rx="3" ry="3" style="stroke:#038048;stroke-width:1.0;"/><text fill="#000000" font-family="sans-serif" font-size="14" lengthAdjust="spacing" textLength="226" x="95.5" y="138.5264">voorvoegselAchternaam: string</text><line style="stroke:#181818;stroke-width:0.5;" x1="76.5" x2="326.5" y1="145.8281" y2="145.8281"/></g><text fill="#888888" font-family="sans-serif" font-size="10" lengthAdjust="spacing" textLength="402" x="0" y="170.1104">Common Gateway Plugin | Commongateway | Customerinteractionbundle</text><!--SRC=[RSqn3i8m38NXFQVmpWso8GRMIfp0f2Q9bDXIx1GXwDr9KHS4ep_fVxPiXJnCr5I4bH6hkuaODGydgLKOpcXqnmTCfSVCyDezxZpkhYQLMkQHOR0iVEqy5mAN2ETjwX8ILNGk55Jz-WPF1t0036d46tXG6rFnmul8Vro4eb8v_cRh6m00]--></g></svg>