<?xml version="1.0" encoding="UTF-8" standalone="no"?><svg xmlns="http://www.w3.org/2000/svg" xmlns:xlink="http://www.w3.org/1999/xlink" contentScriptType="application/ecmascript" contentStyleType="text/css" height="219px" preserveAspectRatio="none" style="width:375px;height:219px;" version="1.1" viewBox="0 0 375 219" width="375px" zoomAndPan="magnify"><defs><filter height="300%" id="f1gqfm0109pgm1" width="300%" x="-1" y="-1"><feGaussianBlur result="blurOut" stdDeviation="2.0"/><feColorMatrix in="blurOut" result="blurOut2" type="matrix" values="0 0 0 0 0 0 0 0 0 0 0 0 0 0 0 0 0 0 .4 0"/><feOffset dx="4.0" dy="4.0" in="blurOut2" result="blurOut3"/><feBlend in="SourceGraphic" in2="blurOut3" mode="normal"/></filter></defs><g><text fill="#888888" font-family="sans-serif" font-size="10" lengthAdjust="spacingAndGlyphs" textLength="40" x="323" y="9.2822">Schema</text><text fill="#000000" font-family="sans-serif" font-size="18" lengthAdjust="spacingAndGlyphs" textLength="218" x="72.5" y="28.3486">OrganisatorischeEenheid</text><!--MD5=[452c4719d32d271196c958274c601892]
class OrganisatorischeEenheid--><rect fill="#FEFECE" filter="url(#f1gqfm0109pgm1)" height="150.4375" id="OrganisatorischeEenheid" style="stroke: #A80036; stroke-width: 1.5;" width="190" x="86.5" y="39.5938"/><ellipse cx="101.5" cy="55.5938" fill="#ADD1B2" rx="11" ry="11" style="stroke: #A80036; stroke-width: 1.0;"/><path d="M104.4688,61.2344 Q103.8906,61.5313 103.25,61.6719 Q102.6094,61.8281 101.9063,61.8281 Q99.4063,61.8281 98.0781,60.1875 Q96.7656,58.5313 96.7656,55.4063 Q96.7656,52.2813 98.0781,50.625 Q99.4063,48.9688 101.9063,48.9688 Q102.6094,48.9688 103.25,49.125 Q103.9063,49.2813 104.4688,49.5781 L104.4688,52.2969 Q103.8438,51.7188 103.25,51.4531 Q102.6563,51.1719 102.0313,51.1719 Q100.6875,51.1719 100,52.25 Q99.3125,53.3125 99.3125,55.4063 Q99.3125,57.5 100,58.5781 Q100.6875,59.6406 102.0313,59.6406 Q102.6563,59.6406 103.25,59.375 Q103.8438,59.0938 104.4688,58.5156 L104.4688,61.2344 Z "/><text fill="#000000" font-family="sans-serif" font-size="12" lengthAdjust="spacingAndGlyphs" textLength="158" x="115.5" y="59.748">OrganisatorischeEenheid</text><line style="stroke: #A80036; stroke-width: 1.5;" x1="87.5" x2="275.5" y1="71.5938" y2="71.5938"/><ellipse cx="97.5" cy="82.5938" fill="none" rx="3" ry="3" style="stroke: #038048; stroke-width: 1.0;"/><text fill="#000000" font-family="sans-serif" font-size="11" lengthAdjust="spacingAndGlyphs" textLength="116" x="106.5" y="85.8042">klantcontactId: array</text><ellipse cx="97.5" cy="95.3984" fill="none" rx="3" ry="3" style="stroke: #038048; stroke-width: 1.0;"/><text fill="#000000" font-family="sans-serif" font-size="11" lengthAdjust="spacingAndGlyphs" textLength="73" x="106.5" y="98.6089">naam: string</text><ellipse cx="97.5" cy="108.2031" fill="none" rx="3" ry="3" style="stroke: #038048; stroke-width: 1.0;"/><text fill="#000000" font-family="sans-serif" font-size="11" lengthAdjust="spacingAndGlyphs" textLength="103" x="106.5" y="111.4136">eMailadres: string</text><ellipse cx="97.5" cy="121.0078" fill="none" rx="3" ry="3" style="stroke: #038048; stroke-width: 1.0;"/><text fill="#000000" font-family="sans-serif" font-size="11" lengthAdjust="spacingAndGlyphs" textLength="87" x="106.5" y="124.2183">externId: string</text><ellipse cx="97.5" cy="133.8125" fill="none" rx="3" ry="3" style="stroke: #038048; stroke-width: 1.0;"/><text fill="#000000" font-family="sans-serif" font-size="11" lengthAdjust="spacingAndGlyphs" textLength="124" x="106.5" y="137.0229">externRegister: string</text><ellipse cx="97.5" cy="146.6172" fill="none" rx="3" ry="3" style="stroke: #038048; stroke-width: 1.0;"/><text fill="#000000" font-family="sans-serif" font-size="11" lengthAdjust="spacingAndGlyphs" textLength="106" x="106.5" y="149.8276">faxnummer: string</text><ellipse cx="97.5" cy="159.4219" fill="none" rx="3" ry="3" style="stroke: #038048; stroke-width: 1.0;"/><text fill="#000000" font-family="sans-serif" font-size="11" lengthAdjust="spacingAndGlyphs" textLength="113" x="106.5" y="162.6323">omschrijving: string</text><ellipse cx="97.5" cy="172.2266" fill="none" rx="3" ry="3" style="stroke: #038048; stroke-width: 1.0;"/><text fill="#000000" font-family="sans-serif" font-size="11" lengthAdjust="spacingAndGlyphs" textLength="135" x="106.5" y="175.437">telefoonnummer: string</text><line style="stroke: #A80036; stroke-width: 1.5;" x1="87.5" x2="275.5" y1="182.0313" y2="182.0313"/><text fill="#888888" font-family="sans-serif" font-size="10" lengthAdjust="spacingAndGlyphs" textLength="363" x="0" y="206.3135">Common Gateway Plugin | Commongateway | Customerinteractionbundle</text><!--MD5=[8d7b456858aed112c48181dc3cd8f2ee]
@startuml
title: OrganisatorischeEenheid
footer: Common Gateway Plugin | Commongateway | Customerinteractionbundle 
header: Schema

class OrganisatorischeEenheid {
  + klantcontactId: array
  + naam: string
  + eMailadres: string
  + externId: string
  + externRegister: string
  + faxnummer: string
  + omschrijving: string
  + telefoonnummer: string
}
@enduml

PlantUML version 1.2020.02(Sun Mar 01 10:22:07 UTC 2020)
(GPL source distribution)
Java Runtime: OpenJDK Runtime Environment
JVM: OpenJDK 64-Bit Server VM
Java Version: 11.0.20.1+1
Operating System: Linux
Default Encoding: UTF-8
Language: en
Country: null
--></g></svg>