<?xml version="1.0" encoding="UTF-8" standalone="no"?><svg xmlns="http://www.w3.org/2000/svg" xmlns:xlink="http://www.w3.org/1999/xlink" contentScriptType="application/ecmascript" contentStyleType="text/css" height="104px" preserveAspectRatio="none" style="width:222px;height:104px;" version="1.1" viewBox="0 0 222 104" width="222px" zoomAndPan="magnify"><defs><filter height="300%" id="fjzx6gzgr7ood" width="300%" x="-1" y="-1"><feGaussianBlur result="blurOut" stdDeviation="2.0"/><feColorMatrix in="blurOut" result="blurOut2" type="matrix" values="0 0 0 0 0 0 0 0 0 0 0 0 0 0 0 0 0 0 .4 0"/><feOffset dx="4.0" dy="4.0" in="blurOut2" result="blurOut3"/><feBlend in="SourceGraphic" in2="blurOut3" mode="normal"/></filter></defs><g><!--MD5=[db87c33da52680003de0e4b412da2e75]
class Persoonsnaam--><rect fill="#FEFECE" filter="url(#fjzx6gzgr7ood)" height="86.4141" id="Persoonsnaam" style="stroke: #A80036; stroke-width: 1.5;" width="204" x="7" y="7"/><ellipse cx="57.75" cy="23" fill="#ADD1B2" rx="11" ry="11" style="stroke: #A80036; stroke-width: 1.0;"/><path d="M60.7188,28.6406 Q60.1406,28.9375 59.5,29.0781 Q58.8594,29.2344 58.1563,29.2344 Q55.6563,29.2344 54.3281,27.5938 Q53.0156,25.9375 53.0156,22.8125 Q53.0156,19.6875 54.3281,18.0313 Q55.6563,16.375 58.1563,16.375 Q58.8594,16.375 59.5,16.5313 Q60.1563,16.6875 60.7188,16.9844 L60.7188,19.7031 Q60.0938,19.125 59.5,18.8594 Q58.9063,18.5781 58.2813,18.5781 Q56.9375,18.5781 56.25,19.6563 Q55.5625,20.7188 55.5625,22.8125 Q55.5625,24.9063 56.25,25.9844 Q56.9375,27.0469 58.2813,27.0469 Q58.9063,27.0469 59.5,26.7813 Q60.0938,26.5 60.7188,25.9219 L60.7188,28.6406 Z "/><text fill="#000000" font-family="sans-serif" font-size="12" lengthAdjust="spacingAndGlyphs" textLength="94" x="78.25" y="27.1543">Persoonsnaam</text><line style="stroke: #A80036; stroke-width: 1.5;" x1="8" x2="210" y1="39" y2="39"/><ellipse cx="18" cy="50" fill="none" rx="3" ry="3" style="stroke: #038048; stroke-width: 1.0;"/><text fill="#000000" font-family="sans-serif" font-size="11" lengthAdjust="spacingAndGlyphs" textLength="109" x="27" y="53.2104">achternaam: string</text><ellipse cx="18" cy="62.8047" fill="none" rx="3" ry="3" style="stroke: #038048; stroke-width: 1.0;"/><text fill="#000000" font-family="sans-serif" font-size="11" lengthAdjust="spacingAndGlyphs" textLength="98" x="27" y="66.0151">voornaam: string</text><ellipse cx="18" cy="75.6094" fill="none" rx="3" ry="3" style="stroke: #038048; stroke-width: 1.0;"/><text fill="#000000" font-family="sans-serif" font-size="11" lengthAdjust="spacingAndGlyphs" textLength="178" x="27" y="78.8198">voorvoegselAchternaam: string</text><line style="stroke: #A80036; stroke-width: 1.5;" x1="8" x2="210" y1="85.4141" y2="85.4141"/><!--MD5=[eb0885befac23c3b2aef86e494797f34]
@startuml
class Persoonsnaam {
  + achternaam: string
  + voornaam: string
  + voorvoegselAchternaam: string
}
@enduml

PlantUML version 1.2020.02(Sun Mar 01 10:22:07 UTC 2020)
(GPL source distribution)
Java Runtime: OpenJDK Runtime Environment
JVM: OpenJDK 64-Bit Server VM
Java Version: 11.0.20.1+1
Operating System: Linux
Default Encoding: UTF-8
Language: en
Country: null
--></g></svg>