<?xml version="1.0" encoding="us-ascii" standalone="no"?><svg xmlns="http://www.w3.org/2000/svg" xmlns:xlink="http://www.w3.org/1999/xlink" contentStyleType="text/css" height="164px" preserveAspectRatio="none" style="width:410px;height:164px;background:#FFFFFF;" version="1.1" viewBox="0 0 410 164" width="410px" zoomAndPan="magnify"><defs/><g><text fill="#888888" font-family="sans-serif" font-size="10" lengthAdjust="spacing" textLength="45" x="357" y="9.2822">Schema</text><text fill="#000000" font-family="sans-serif" font-size="14" font-weight="bold" lengthAdjust="spacing" textLength="73" x="164.5" y="35.6357">Voorkeur</text><!--class Voorkeur--><g id="elem_Voorkeur"><rect codeLine="5" fill="#F1F1F1" height="80.5938" id="Voorkeur" rx="2.5" ry="2.5" style="stroke:#181818;stroke-width:0.5;" width="116" x="143.5" y="56.9375"/><ellipse cx="166.6" cy="72.9375" fill="#ADD1B2" rx="11" ry="11" style="stroke:#181818;stroke-width:1.0;"/><path d="M168.9438,68.6094 C168.0063,68.1719 167.4125,68.0313 166.5375,68.0313 C163.9125,68.0313 161.9125,70.1094 161.9125,72.8281 L161.9125,73.9531 C161.9125,76.5313 164.0219,78.4219 166.9125,78.4219 C168.1313,78.4219 169.2875,78.125 170.0375,77.5781 C170.6156,77.1719 170.9438,76.7188 170.9438,76.3281 C170.9438,75.875 170.5531,75.4844 170.0844,75.4844 C169.8656,75.4844 169.6625,75.5625 169.475,75.75 C169.0219,76.2344 169.0219,76.2344 168.8344,76.3281 C168.4125,76.5938 167.725,76.7188 166.9594,76.7188 C164.9125,76.7188 163.6156,75.625 163.6156,73.9219 L163.6156,72.8281 C163.6156,71.0469 164.8656,69.7344 166.6,69.7344 C167.1781,69.7344 167.7875,69.8906 168.2563,70.1406 C168.7406,70.4219 168.9125,70.6406 169.0063,71.0469 C169.0688,71.4531 169.1,71.5781 169.2406,71.7031 C169.3813,71.8438 169.6156,71.9531 169.8344,71.9531 C170.1,71.9531 170.3656,71.8125 170.5375,71.5938 C170.6469,71.4375 170.6781,71.25 170.6781,70.8281 L170.6781,69.4063 C170.6781,68.9688 170.6625,68.8438 170.5688,68.6875 C170.4125,68.4219 170.1313,68.2813 169.8344,68.2813 C169.5375,68.2813 169.3344,68.375 169.1156,68.6875 L168.9438,68.6094 Z " fill="#000000"/><text fill="#000000" font-family="sans-serif" font-size="14" lengthAdjust="spacing" textLength="66" x="182.4" y="77.7842">Voorkeur</text><line style="stroke:#181818;stroke-width:0.5;" x1="144.5" x2="258.5" y1="88.9375" y2="88.9375"/><ellipse cx="154.5" cy="102.5859" fill="none" rx="3" ry="3" style="stroke:#038048;stroke-width:1.0;"/><text fill="#000000" font-family="sans-serif" font-size="14" lengthAdjust="spacing" textLength="86" x="163.5" y="105.9326">code: string</text><ellipse cx="154.5" cy="118.8828" fill="none" rx="3" ry="3" style="stroke:#038048;stroke-width:1.0;"/><text fill="#000000" font-family="sans-serif" font-size="14" lengthAdjust="spacing" textLength="90" x="163.5" y="122.2295">naam: string</text><line style="stroke:#181818;stroke-width:0.5;" x1="144.5" x2="258.5" y1="129.5313" y2="129.5313"/></g><text fill="#888888" font-family="sans-serif" font-size="10" lengthAdjust="spacing" textLength="402" x="0" y="153.8135">Common Gateway Plugin | Commongateway | Customerinteractionbundle</text><!--SRC=[FOqn3i8m34Ltdy8xD-ZAm8g4rDqa9eqQsrBY227etGcewlYVzD_px8KddCtgoht2myovJdWs4LEyaFEJNdWjFMN5pyxJZiVkpKsuPXqt2fvDxrrZOOI5AVvKjx2m440erDfHmZSWdZ1O7FdcGv3-G8da0DiN]--></g></svg>