<?xml version="1.0" encoding="UTF-8" standalone="no"?><svg xmlns="http://www.w3.org/2000/svg" xmlns:xlink="http://www.w3.org/1999/xlink" contentScriptType="application/ecmascript" contentStyleType="text/css" height="155px" preserveAspectRatio="none" style="width:375px;height:155px;" version="1.1" viewBox="0 0 375 155" width="375px" zoomAndPan="magnify"><defs><filter height="300%" id="frq5voh4u36wb" width="300%" x="-1" y="-1"><feGaussianBlur result="blurOut" stdDeviation="2.0"/><feColorMatrix in="blurOut" result="blurOut2" type="matrix" values="0 0 0 0 0 0 0 0 0 0 0 0 0 0 0 0 0 0 .4 0"/><feOffset dx="4.0" dy="4.0" in="blurOut2" result="blurOut3"/><feBlend in="SourceGraphic" in2="blurOut3" mode="normal"/></filter></defs><g><text fill="#888888" font-family="sans-serif" font-size="10" lengthAdjust="spacingAndGlyphs" textLength="40" x="323" y="9.2822">Schema</text><text fill="#000000" font-family="sans-serif" font-size="18" lengthAdjust="spacingAndGlyphs" textLength="127" x="118" y="28.3486">Persoonsnaam</text><!--MD5=[db87c33da52680003de0e4b412da2e75]
class Persoonsnaam--><rect fill="#FEFECE" filter="url(#frq5voh4u36wb)" height="86.4141" id="Persoonsnaam" style="stroke: #A80036; stroke-width: 1.5;" width="204" x="79.5" y="39.5938"/><ellipse cx="130.25" cy="55.5938" fill="#ADD1B2" rx="11" ry="11" style="stroke: #A80036; stroke-width: 1.0;"/><path d="M133.2188,61.2344 Q132.6406,61.5313 132,61.6719 Q131.3594,61.8281 130.6563,61.8281 Q128.1563,61.8281 126.8281,60.1875 Q125.5156,58.5313 125.5156,55.4063 Q125.5156,52.2813 126.8281,50.625 Q128.1563,48.9688 130.6563,48.9688 Q131.3594,48.9688 132,49.125 Q132.6563,49.2813 133.2188,49.5781 L133.2188,52.2969 Q132.5938,51.7188 132,51.4531 Q131.4063,51.1719 130.7813,51.1719 Q129.4375,51.1719 128.75,52.25 Q128.0625,53.3125 128.0625,55.4063 Q128.0625,57.5 128.75,58.5781 Q129.4375,59.6406 130.7813,59.6406 Q131.4063,59.6406 132,59.375 Q132.5938,59.0938 133.2188,58.5156 L133.2188,61.2344 Z "/><text fill="#000000" font-family="sans-serif" font-size="12" lengthAdjust="spacingAndGlyphs" textLength="94" x="150.75" y="59.748">Persoonsnaam</text><line style="stroke: #A80036; stroke-width: 1.5;" x1="80.5" x2="282.5" y1="71.5938" y2="71.5938"/><ellipse cx="90.5" cy="82.5938" fill="none" rx="3" ry="3" style="stroke: #038048; stroke-width: 1.0;"/><text fill="#000000" font-family="sans-serif" font-size="11" lengthAdjust="spacingAndGlyphs" textLength="109" x="99.5" y="85.8042">achternaam: string</text><ellipse cx="90.5" cy="95.3984" fill="none" rx="3" ry="3" style="stroke: #038048; stroke-width: 1.0;"/><text fill="#000000" font-family="sans-serif" font-size="11" lengthAdjust="spacingAndGlyphs" textLength="98" x="99.5" y="98.6089">voornaam: string</text><ellipse cx="90.5" cy="108.2031" fill="none" rx="3" ry="3" style="stroke: #038048; stroke-width: 1.0;"/><text fill="#000000" font-family="sans-serif" font-size="11" lengthAdjust="spacingAndGlyphs" textLength="178" x="99.5" y="111.4136">voorvoegselAchternaam: string</text><line style="stroke: #A80036; stroke-width: 1.5;" x1="80.5" x2="282.5" y1="118.0078" y2="118.0078"/><text fill="#888888" font-family="sans-serif" font-size="10" lengthAdjust="spacingAndGlyphs" textLength="363" x="0" y="142.29">Common Gateway Plugin | Commongateway | Customerinteractionbundle</text><!--MD5=[77c31a3fcbf185113dcf27c1f93816e4]
@startuml
title: Persoonsnaam
footer: Common Gateway Plugin | Commongateway | Customerinteractionbundle 
header: Schema

class Persoonsnaam {
  + achternaam: string
  + voornaam: string
  + voorvoegselAchternaam: string
}
@enduml

PlantUML version 1.2020.02(Sun Mar 01 10:22:07 UTC 2020)
(GPL source distribution)
Java Runtime: OpenJDK Runtime Environment
JVM: OpenJDK 64-Bit Server VM
Java Version: 11.0.20.1+1
Operating System: Linux
Default Encoding: UTF-8
Language: en
Country: null
--></g></svg>