<?xml version="1.0" encoding="UTF-8" standalone="no"?><svg xmlns="http://www.w3.org/2000/svg" xmlns:xlink="http://www.w3.org/1999/xlink" contentScriptType="application/ecmascript" contentStyleType="text/css" height="142px" preserveAspectRatio="none" style="width:375px;height:142px;" version="1.1" viewBox="0 0 375 142" width="375px" zoomAndPan="magnify"><defs><filter height="300%" id="f1tki3yn5x37cs" width="300%" x="-1" y="-1"><feGaussianBlur result="blurOut" stdDeviation="2.0"/><feColorMatrix in="blurOut" result="blurOut2" type="matrix" values="0 0 0 0 0 0 0 0 0 0 0 0 0 0 0 0 0 0 .4 0"/><feOffset dx="4.0" dy="4.0" in="blurOut2" result="blurOut3"/><feBlend in="SourceGraphic" in2="blurOut3" mode="normal"/></filter></defs><g><text fill="#888888" font-family="sans-serif" font-size="10" lengthAdjust="spacingAndGlyphs" textLength="40" x="323" y="9.2822">Schema</text><text fill="#000000" font-family="sans-serif" font-size="18" lengthAdjust="spacingAndGlyphs" textLength="47" x="158" y="28.3486">Actor</text><!--MD5=[44201db48fb57df1a9c7f5b6b15426b0]
class Actor--><rect fill="#FEFECE" filter="url(#f1tki3yn5x37cs)" height="73.6094" id="Actor" style="stroke: #A80036; stroke-width: 1.5;" width="142" x="110.5" y="39.5938"/><ellipse cx="160.75" cy="55.5938" fill="#ADD1B2" rx="11" ry="11" style="stroke: #A80036; stroke-width: 1.0;"/><path d="M163.7188,61.2344 Q163.1406,61.5313 162.5,61.6719 Q161.8594,61.8281 161.1563,61.8281 Q158.6563,61.8281 157.3281,60.1875 Q156.0156,58.5313 156.0156,55.4063 Q156.0156,52.2813 157.3281,50.625 Q158.6563,48.9688 161.1563,48.9688 Q161.8594,48.9688 162.5,49.125 Q163.1563,49.2813 163.7188,49.5781 L163.7188,52.2969 Q163.0938,51.7188 162.5,51.4531 Q161.9063,51.1719 161.2813,51.1719 Q159.9375,51.1719 159.25,52.25 Q158.5625,53.3125 158.5625,55.4063 Q158.5625,57.5 159.25,58.5781 Q159.9375,59.6406 161.2813,59.6406 Q161.9063,59.6406 162.5,59.375 Q163.0938,59.0938 163.7188,58.5156 L163.7188,61.2344 Z "/><text fill="#000000" font-family="sans-serif" font-size="12" lengthAdjust="spacingAndGlyphs" textLength="33" x="181.25" y="59.748">Actor</text><line style="stroke: #A80036; stroke-width: 1.5;" x1="111.5" x2="251.5" y1="71.5938" y2="71.5938"/><ellipse cx="121.5" cy="82.5938" fill="none" rx="3" ry="3" style="stroke: #038048; stroke-width: 1.0;"/><text fill="#000000" font-family="sans-serif" font-size="11" lengthAdjust="spacingAndGlyphs" textLength="116" x="130.5" y="85.8042">klantcontactId: array</text><ellipse cx="121.5" cy="95.3984" fill="none" rx="3" ry="3" style="stroke: #038048; stroke-width: 1.0;"/><text fill="#000000" font-family="sans-serif" font-size="11" lengthAdjust="spacingAndGlyphs" textLength="73" x="130.5" y="98.6089">naam: string</text><line style="stroke: #A80036; stroke-width: 1.5;" x1="111.5" x2="251.5" y1="105.2031" y2="105.2031"/><text fill="#888888" font-family="sans-serif" font-size="10" lengthAdjust="spacingAndGlyphs" textLength="363" x="0" y="129.4854">Common Gateway Plugin | Commongateway | Customerinteractionbundle</text><!--MD5=[8107b50e98137e027d8aeffafaed3224]
@startuml
title: Actor
footer: Common Gateway Plugin | Commongateway | Customerinteractionbundle 
header: Schema

class Actor {
  + klantcontactId: array
  + naam: string
}
@enduml

PlantUML version 1.2020.02(Sun Mar 01 10:22:07 UTC 2020)
(GPL source distribution)
Java Runtime: OpenJDK Runtime Environment
JVM: OpenJDK 64-Bit Server VM
Java Version: 11.0.20.1+1
Operating System: Linux
Default Encoding: UTF-8
Language: en
Country: null
--></g></svg>