<?xml version="1.0" encoding="UTF-8" standalone="no"?><svg xmlns="http://www.w3.org/2000/svg" xmlns:xlink="http://www.w3.org/1999/xlink" contentScriptType="application/ecmascript" contentStyleType="text/css" height="104px" preserveAspectRatio="none" style="width:195px;height:104px;" version="1.1" viewBox="0 0 195 104" width="195px" zoomAndPan="magnify"><defs><filter height="300%" id="fcgdr0tw8geu3" width="300%" x="-1" y="-1"><feGaussianBlur result="blurOut" stdDeviation="2.0"/><feColorMatrix in="blurOut" result="blurOut2" type="matrix" values="0 0 0 0 0 0 0 0 0 0 0 0 0 0 0 0 0 0 .4 0"/><feOffset dx="4.0" dy="4.0" in="blurOut2" result="blurOut3"/><feBlend in="SourceGraphic" in2="blurOut3" mode="normal"/></filter></defs><g><!--MD5=[8b4fc1a08565664f2cf613ae20348a52]
class ExterneIdentificatie--><rect fill="#FEFECE" filter="url(#fcgdr0tw8geu3)" height="86.4141" id="ExterneIdentificatie" style="stroke: #A80036; stroke-width: 1.5;" width="177" x="7" y="7"/><ellipse cx="32.8" cy="23" fill="#ADD1B2" rx="11" ry="11" style="stroke: #A80036; stroke-width: 1.0;"/><path d="M35.7688,28.6406 Q35.1906,28.9375 34.55,29.0781 Q33.9094,29.2344 33.2063,29.2344 Q30.7062,29.2344 29.3781,27.5938 Q28.0656,25.9375 28.0656,22.8125 Q28.0656,19.6875 29.3781,18.0313 Q30.7062,16.375 33.2063,16.375 Q33.9094,16.375 34.55,16.5313 Q35.2063,16.6875 35.7688,16.9844 L35.7688,19.7031 Q35.1438,19.125 34.55,18.8594 Q33.9563,18.5781 33.3313,18.5781 Q31.9875,18.5781 31.3,19.6563 Q30.6125,20.7188 30.6125,22.8125 Q30.6125,24.9063 31.3,25.9844 Q31.9875,27.0469 33.3313,27.0469 Q33.9563,27.0469 34.55,26.7813 Q35.1438,26.5 35.7688,25.9219 L35.7688,28.6406 Z "/><text fill="#000000" font-family="sans-serif" font-size="12" lengthAdjust="spacingAndGlyphs" textLength="121" x="49.2" y="27.1543">ExterneIdentificatie</text><line style="stroke: #A80036; stroke-width: 1.5;" x1="8" x2="183" y1="39" y2="39"/><ellipse cx="18" cy="50" fill="none" rx="3" ry="3" style="stroke: #038048; stroke-width: 1.0;"/><text fill="#000000" font-family="sans-serif" font-size="11" lengthAdjust="spacingAndGlyphs" textLength="151" x="27" y="53.2104">anderSoortExternId: string</text><ellipse cx="18" cy="62.8047" fill="none" rx="3" ry="3" style="stroke: #038048; stroke-width: 1.0;"/><text fill="#000000" font-family="sans-serif" font-size="11" lengthAdjust="spacingAndGlyphs" textLength="87" x="27" y="66.0151">externId: string</text><ellipse cx="18" cy="75.6094" fill="none" rx="3" ry="3" style="stroke: #038048; stroke-width: 1.0;"/><text fill="#000000" font-family="sans-serif" font-size="11" lengthAdjust="spacingAndGlyphs" textLength="118" x="27" y="78.8198">soortExternId: object</text><line style="stroke: #A80036; stroke-width: 1.5;" x1="8" x2="183" y1="85.4141" y2="85.4141"/><!--MD5=[037b6f832a0918435d630230e580b842]
@startuml
class ExterneIdentificatie {
  + anderSoortExternId: string
  + externId: string
  + soortExternId: object
}
@enduml

PlantUML version 1.2020.02(Sun Mar 01 10:22:07 UTC 2020)
(GPL source distribution)
Java Runtime: OpenJDK Runtime Environment
JVM: OpenJDK 64-Bit Server VM
Java Version: 11.0.20.1+1
Operating System: Linux
Default Encoding: UTF-8
Language: en
Country: null
--></g></svg>