<?xml version="1.0" encoding="UTF-8" standalone="no"?><svg xmlns="http://www.w3.org/2000/svg" xmlns:xlink="http://www.w3.org/1999/xlink" contentScriptType="application/ecmascript" contentStyleType="text/css" height="296px" preserveAspectRatio="none" style="width:375px;height:296px;" version="1.1" viewBox="0 0 375 296" width="375px" zoomAndPan="magnify"><defs><filter height="300%" id="fok3yzok4desg" width="300%" x="-1" y="-1"><feGaussianBlur result="blurOut" stdDeviation="2.0"/><feColorMatrix in="blurOut" result="blurOut2" type="matrix" values="0 0 0 0 0 0 0 0 0 0 0 0 0 0 0 0 0 0 .4 0"/><feOffset dx="4.0" dy="4.0" in="blurOut2" result="blurOut3"/><feBlend in="SourceGraphic" in2="blurOut3" mode="normal"/></filter></defs><g><text fill="#888888" font-family="sans-serif" font-size="10" lengthAdjust="spacingAndGlyphs" textLength="40" x="323" y="9.2822">Schema</text><text fill="#000000" font-family="sans-serif" font-size="18" lengthAdjust="spacingAndGlyphs" textLength="196" x="83.5" y="28.3486">Correspondentieadres</text><!--MD5=[5fa66283ba4423a3a683775b3b210f7c]
class Correspondentieadres--><rect fill="#FEFECE" filter="url(#fok3yzok4desg)" height="227.2656" id="Correspondentieadres" style="stroke: #A80036; stroke-width: 1.5;" width="225" x="69" y="39.5938"/><ellipse cx="107.4" cy="55.5938" fill="#ADD1B2" rx="11" ry="11" style="stroke: #A80036; stroke-width: 1.0;"/><path d="M110.3688,61.2344 Q109.7906,61.5313 109.15,61.6719 Q108.5094,61.8281 107.8063,61.8281 Q105.3063,61.8281 103.9781,60.1875 Q102.6656,58.5313 102.6656,55.4063 Q102.6656,52.2813 103.9781,50.625 Q105.3063,48.9688 107.8063,48.9688 Q108.5094,48.9688 109.15,49.125 Q109.8063,49.2813 110.3688,49.5781 L110.3688,52.2969 Q109.7438,51.7188 109.15,51.4531 Q108.5563,51.1719 107.9313,51.1719 Q106.5875,51.1719 105.9,52.25 Q105.2125,53.3125 105.2125,55.4063 Q105.2125,57.5 105.9,58.5781 Q106.5875,59.6406 107.9313,59.6406 Q108.5563,59.6406 109.15,59.375 Q109.7438,59.0938 110.3688,58.5156 L110.3688,61.2344 Z "/><text fill="#000000" font-family="sans-serif" font-size="12" lengthAdjust="spacingAndGlyphs" textLength="141" x="126.6" y="59.748">Correspondentieadres</text><line style="stroke: #A80036; stroke-width: 1.5;" x1="70" x2="293" y1="71.5938" y2="71.5938"/><ellipse cx="80" cy="82.5938" fill="none" rx="3" ry="3" style="stroke: #038048; stroke-width: 1.0;"/><text fill="#000000" font-family="sans-serif" font-size="11" lengthAdjust="spacingAndGlyphs" textLength="190" x="89" y="85.8042">aanduidingBijHuisnummer: string</text><ellipse cx="80" cy="95.3984" fill="none" rx="3" ry="3" style="stroke: #038048; stroke-width: 1.0;"/><text fill="#000000" font-family="sans-serif" font-size="11" lengthAdjust="spacingAndGlyphs" textLength="170" x="89" y="98.6089">adresregelBuitenland1: string</text><ellipse cx="80" cy="108.2031" fill="none" rx="3" ry="3" style="stroke: #038048; stroke-width: 1.0;"/><text fill="#000000" font-family="sans-serif" font-size="11" lengthAdjust="spacingAndGlyphs" textLength="170" x="89" y="111.4136">adresregelBuitenland2: string</text><ellipse cx="80" cy="121.0078" fill="none" rx="3" ry="3" style="stroke: #038048; stroke-width: 1.0;"/><text fill="#000000" font-family="sans-serif" font-size="11" lengthAdjust="spacingAndGlyphs" textLength="170" x="89" y="124.2183">adresregelBuitenland3: string</text><ellipse cx="80" cy="133.8125" fill="none" rx="3" ry="3" style="stroke: #038048; stroke-width: 1.0;"/><text fill="#000000" font-family="sans-serif" font-size="11" lengthAdjust="spacingAndGlyphs" textLength="149" x="89" y="137.0229">antwoordnummer: integer</text><ellipse cx="80" cy="146.6172" fill="none" rx="3" ry="3" style="stroke: #038048; stroke-width: 1.0;"/><text fill="#000000" font-family="sans-serif" font-size="11" lengthAdjust="spacingAndGlyphs" textLength="95" x="89" y="149.8276">huisletter: string</text><ellipse cx="80" cy="159.4219" fill="none" rx="3" ry="3" style="stroke: #038048; stroke-width: 1.0;"/><text fill="#000000" font-family="sans-serif" font-size="11" lengthAdjust="spacingAndGlyphs" textLength="120" x="89" y="162.6323">huisnummer: integer</text><ellipse cx="80" cy="172.2266" fill="none" rx="3" ry="3" style="stroke: #038048; stroke-width: 1.0;"/><text fill="#000000" font-family="sans-serif" font-size="11" lengthAdjust="spacingAndGlyphs" textLength="175" x="89" y="175.437">huisnummertoevoeging: string</text><ellipse cx="80" cy="185.0313" fill="none" rx="3" ry="3" style="stroke: #038048; stroke-width: 1.0;"/><text fill="#000000" font-family="sans-serif" font-size="11" lengthAdjust="spacingAndGlyphs" textLength="66" x="89" y="188.2417">land: object</text><ellipse cx="80" cy="197.8359" fill="none" rx="3" ry="3" style="stroke: #038048; stroke-width: 1.0;"/><text fill="#000000" font-family="sans-serif" font-size="11" lengthAdjust="spacingAndGlyphs" textLength="142" x="89" y="201.0464">postbusnummer: integer</text><ellipse cx="80" cy="210.6406" fill="none" rx="3" ry="3" style="stroke: #038048; stroke-width: 1.0;"/><text fill="#000000" font-family="sans-serif" font-size="11" lengthAdjust="spacingAndGlyphs" textLength="93" x="89" y="213.8511">postcode: string</text><ellipse cx="80" cy="223.4453" fill="none" rx="3" ry="3" style="stroke: #038048; stroke-width: 1.0;"/><text fill="#000000" font-family="sans-serif" font-size="11" lengthAdjust="spacingAndGlyphs" textLength="199" x="89" y="226.6558">soortCorrespondentieadres: string</text><ellipse cx="80" cy="236.25" fill="none" rx="3" ry="3" style="stroke: #038048; stroke-width: 1.0;"/><text fill="#000000" font-family="sans-serif" font-size="11" lengthAdjust="spacingAndGlyphs" textLength="75" x="89" y="239.4604">straat: string</text><ellipse cx="80" cy="249.0547" fill="none" rx="3" ry="3" style="stroke: #038048; stroke-width: 1.0;"/><text fill="#000000" font-family="sans-serif" font-size="11" lengthAdjust="spacingAndGlyphs" textLength="106" x="89" y="252.2651">woonplaats: string</text><line style="stroke: #A80036; stroke-width: 1.5;" x1="70" x2="293" y1="258.8594" y2="258.8594"/><text fill="#888888" font-family="sans-serif" font-size="10" lengthAdjust="spacingAndGlyphs" textLength="363" x="0" y="283.1416">Common Gateway Plugin | Commongateway | Customerinteractionbundle</text><!--MD5=[244566197e7038d661f8108967f3d195]
@startuml
title: Correspondentieadres
footer: Common Gateway Plugin | Commongateway | Customerinteractionbundle 
header: Schema

class Correspondentieadres {
  + aanduidingBijHuisnummer: string
  + adresregelBuitenland1: string
  + adresregelBuitenland2: string
  + adresregelBuitenland3: string
  + antwoordnummer: integer
  + huisletter: string
  + huisnummer: integer
  + huisnummertoevoeging: string
  + land: object
  + postbusnummer: integer
  + postcode: string
  + soortCorrespondentieadres: string
  + straat: string
  + woonplaats: string
}
@enduml

PlantUML version 1.2020.02(Sun Mar 01 10:22:07 UTC 2020)
(GPL source distribution)
Java Runtime: OpenJDK Runtime Environment
JVM: OpenJDK 64-Bit Server VM
Java Version: 11.0.20.1+1
Operating System: Linux
Default Encoding: UTF-8
Language: en
Country: null
--></g></svg>