<?xml version="1.0" encoding="UTF-8" standalone="no"?><svg xmlns="http://www.w3.org/2000/svg" xmlns:xlink="http://www.w3.org/1999/xlink" contentScriptType="application/ecmascript" contentStyleType="text/css" height="130px" preserveAspectRatio="none" style="width:222px;height:130px;" version="1.1" viewBox="0 0 222 130" width="222px" zoomAndPan="magnify"><defs><filter height="300%" id="fjeum6qy6w8uf" width="300%" x="-1" y="-1"><feGaussianBlur result="blurOut" stdDeviation="2.0"/><feColorMatrix in="blurOut" result="blurOut2" type="matrix" values="0 0 0 0 0 0 0 0 0 0 0 0 0 0 0 0 0 0 .4 0"/><feOffset dx="4.0" dy="4.0" in="blurOut2" result="blurOut3"/><feBlend in="SourceGraphic" in2="blurOut3" mode="normal"/></filter></defs><g><!--MD5=[c8b62534d940e04573c4f5293d1dfeb0]
class Bijlage--><rect fill="#FEFECE" filter="url(#fjeum6qy6w8uf)" height="112.0234" id="Bijlage" style="stroke: #A80036; stroke-width: 1.5;" width="204" x="7" y="7"/><ellipse cx="84.25" cy="23" fill="#ADD1B2" rx="11" ry="11" style="stroke: #A80036; stroke-width: 1.0;"/><path d="M87.2188,28.6406 Q86.6406,28.9375 86,29.0781 Q85.3594,29.2344 84.6563,29.2344 Q82.1563,29.2344 80.8281,27.5938 Q79.5156,25.9375 79.5156,22.8125 Q79.5156,19.6875 80.8281,18.0313 Q82.1563,16.375 84.6563,16.375 Q85.3594,16.375 86,16.5313 Q86.6563,16.6875 87.2188,16.9844 L87.2188,19.7031 Q86.5938,19.125 86,18.8594 Q85.4063,18.5781 84.7813,18.5781 Q83.4375,18.5781 82.75,19.6563 Q82.0625,20.7188 82.0625,22.8125 Q82.0625,24.9063 82.75,25.9844 Q83.4375,27.0469 84.7813,27.0469 Q85.4063,27.0469 86,26.7813 Q86.5938,26.5 87.2188,25.9219 L87.2188,28.6406 Z "/><text fill="#000000" font-family="sans-serif" font-size="12" lengthAdjust="spacingAndGlyphs" textLength="41" x="104.75" y="27.1543">Bijlage</text><line style="stroke: #A80036; stroke-width: 1.5;" x1="8" x2="210" y1="39" y2="39"/><ellipse cx="18" cy="50" fill="none" rx="3" ry="3" style="stroke: #038048; stroke-width: 1.0;"/><text fill="#000000" font-family="sans-serif" font-size="11" lengthAdjust="spacingAndGlyphs" textLength="87" x="27" y="53.2104">externId: string</text><ellipse cx="18" cy="62.8047" fill="none" rx="3" ry="3" style="stroke: #038048; stroke-width: 1.0;"/><text fill="#000000" font-family="sans-serif" font-size="11" lengthAdjust="spacingAndGlyphs" textLength="124" x="27" y="66.0151">externRegister: string</text><ellipse cx="18" cy="75.6094" fill="none" rx="3" ry="3" style="stroke: #038048; stroke-width: 1.0;"/><text fill="#000000" font-family="sans-serif" font-size="11" lengthAdjust="spacingAndGlyphs" textLength="178" x="27" y="78.8198">indicatieWeerTeGeven: boolean</text><ellipse cx="18" cy="88.4141" fill="none" rx="3" ry="3" style="stroke: #038048; stroke-width: 1.0;"/><text fill="#000000" font-family="sans-serif" font-size="11" lengthAdjust="spacingAndGlyphs" textLength="119" x="27" y="91.6245">klantcontactId: string</text><ellipse cx="18" cy="101.2188" fill="none" rx="3" ry="3" style="stroke: #038048; stroke-width: 1.0;"/><text fill="#000000" font-family="sans-serif" font-size="11" lengthAdjust="spacingAndGlyphs" textLength="113" x="27" y="104.4292">omschrijving: string</text><line style="stroke: #A80036; stroke-width: 1.5;" x1="8" x2="210" y1="111.0234" y2="111.0234"/><!--MD5=[82499732036b0567d4389dd9dde77256]
@startuml
class Bijlage {
  + externId: string
  + externRegister: string
  + indicatieWeerTeGeven: boolean
  + klantcontactId: string
  + omschrijving: string
}
@enduml

PlantUML version 1.2020.02(Sun Mar 01 10:22:07 UTC 2020)
(GPL source distribution)
Java Runtime: OpenJDK Runtime Environment
JVM: OpenJDK 64-Bit Server VM
Java Version: 11.0.20.1+1
Operating System: Linux
Default Encoding: UTF-8
Language: en
Country: null
--></g></svg>