<?xml version="1.0" encoding="UTF-8" standalone="no"?><svg xmlns="http://www.w3.org/2000/svg" xmlns:xlink="http://www.w3.org/1999/xlink" contentScriptType="application/ecmascript" contentStyleType="text/css" height="155px" preserveAspectRatio="none" style="width:375px;height:155px;" version="1.1" viewBox="0 0 375 155" width="375px" zoomAndPan="magnify"><defs><filter height="300%" id="f37l5ujt8mnrg" width="300%" x="-1" y="-1"><feGaussianBlur result="blurOut" stdDeviation="2.0"/><feColorMatrix in="blurOut" result="blurOut2" type="matrix" values="0 0 0 0 0 0 0 0 0 0 0 0 0 0 0 0 0 0 .4 0"/><feOffset dx="4.0" dy="4.0" in="blurOut2" result="blurOut3"/><feBlend in="SourceGraphic" in2="blurOut3" mode="normal"/></filter></defs><g><text fill="#888888" font-family="sans-serif" font-size="10" lengthAdjust="spacingAndGlyphs" textLength="40" x="323" y="9.2822">Schema</text><text fill="#000000" font-family="sans-serif" font-size="18" lengthAdjust="spacingAndGlyphs" textLength="124" x="119.5" y="28.3486">SoortExternId</text><!--MD5=[c4b843d63f981010a0d07e532e4ab5b5]
class SoortExternId--><rect fill="#FEFECE" filter="url(#f37l5ujt8mnrg)" height="86.4141" id="SoortExternId" style="stroke: #A80036; stroke-width: 1.5;" width="150" x="106.5" y="39.5938"/><ellipse cx="136.35" cy="55.5938" fill="#ADD1B2" rx="11" ry="11" style="stroke: #A80036; stroke-width: 1.0;"/><path d="M139.3188,61.2344 Q138.7406,61.5313 138.1,61.6719 Q137.4594,61.8281 136.7563,61.8281 Q134.2563,61.8281 132.9281,60.1875 Q131.6156,58.5313 131.6156,55.4063 Q131.6156,52.2813 132.9281,50.625 Q134.2563,48.9688 136.7563,48.9688 Q137.4594,48.9688 138.1,49.125 Q138.7563,49.2813 139.3188,49.5781 L139.3188,52.2969 Q138.6938,51.7188 138.1,51.4531 Q137.5063,51.1719 136.8813,51.1719 Q135.5375,51.1719 134.85,52.25 Q134.1625,53.3125 134.1625,55.4063 Q134.1625,57.5 134.85,58.5781 Q135.5375,59.6406 136.8813,59.6406 Q137.5063,59.6406 138.1,59.375 Q138.6938,59.0938 139.3188,58.5156 L139.3188,61.2344 Z "/><text fill="#000000" font-family="sans-serif" font-size="12" lengthAdjust="spacingAndGlyphs" textLength="85" x="153.65" y="59.748">SoortExternId</text><line style="stroke: #A80036; stroke-width: 1.5;" x1="107.5" x2="255.5" y1="71.5938" y2="71.5938"/><ellipse cx="117.5" cy="82.5938" fill="none" rx="3" ry="3" style="stroke: #038048; stroke-width: 1.0;"/><text fill="#000000" font-family="sans-serif" font-size="11" lengthAdjust="spacingAndGlyphs" textLength="68" x="126.5" y="85.8042">code: string</text><ellipse cx="117.5" cy="95.3984" fill="none" rx="3" ry="3" style="stroke: #038048; stroke-width: 1.0;"/><text fill="#000000" font-family="sans-serif" font-size="11" lengthAdjust="spacingAndGlyphs" textLength="124" x="126.5" y="98.6089">externRegister: string</text><ellipse cx="117.5" cy="108.2031" fill="none" rx="3" ry="3" style="stroke: #038048; stroke-width: 1.0;"/><text fill="#000000" font-family="sans-serif" font-size="11" lengthAdjust="spacingAndGlyphs" textLength="73" x="126.5" y="111.4136">naam: string</text><line style="stroke: #A80036; stroke-width: 1.5;" x1="107.5" x2="255.5" y1="118.0078" y2="118.0078"/><text fill="#888888" font-family="sans-serif" font-size="10" lengthAdjust="spacingAndGlyphs" textLength="363" x="0" y="142.29">Common Gateway Plugin | Commongateway | Customerinteractionbundle</text><!--MD5=[7943f8f38b69fc9162567698fc346118]
@startuml
title: SoortExternId
footer: Common Gateway Plugin | Commongateway | Customerinteractionbundle 
header: Schema

class SoortExternId {
  + code: string
  + externRegister: string
  + naam: string
}
@enduml

PlantUML version 1.2020.02(Sun Mar 01 10:22:07 UTC 2020)
(GPL source distribution)
Java Runtime: OpenJDK Runtime Environment
JVM: OpenJDK 64-Bit Server VM
Java Version: 11.0.20.1+1
Operating System: Linux
Default Encoding: UTF-8
Language: en
Country: null
--></g></svg>