<?xml version="1.0" encoding="us-ascii" standalone="no"?><svg xmlns="http://www.w3.org/2000/svg" xmlns:xlink="http://www.w3.org/1999/xlink" contentStyleType="text/css" height="196px" preserveAspectRatio="none" style="width:410px;height:196px;background:#FFFFFF;" version="1.1" viewBox="0 0 410 196" width="410px" zoomAndPan="magnify"><defs/><g><text fill="#888888" font-family="sans-serif" font-size="10" lengthAdjust="spacing" textLength="45" x="357" y="9.2822">Schema</text><text fill="#000000" font-family="sans-serif" font-size="14" font-weight="bold" lengthAdjust="spacing" textLength="39" x="181.5" y="35.6357">Land</text><!--class Land--><g id="elem_Land"><rect codeLine="5" fill="#F1F1F1" height="113.1875" id="Land" rx="2.5" ry="2.5" style="stroke:#181818;stroke-width:0.5;" width="203" x="100" y="56.9375"/><ellipse cx="180.25" cy="72.9375" fill="#ADD1B2" rx="11" ry="11" style="stroke:#181818;stroke-width:1.0;"/><path d="M182.5938,68.6094 C181.6563,68.1719 181.0625,68.0313 180.1875,68.0313 C177.5625,68.0313 175.5625,70.1094 175.5625,72.8281 L175.5625,73.9531 C175.5625,76.5313 177.6719,78.4219 180.5625,78.4219 C181.7813,78.4219 182.9375,78.125 183.6875,77.5781 C184.2656,77.1719 184.5938,76.7188 184.5938,76.3281 C184.5938,75.875 184.2031,75.4844 183.7344,75.4844 C183.5156,75.4844 183.3125,75.5625 183.125,75.75 C182.6719,76.2344 182.6719,76.2344 182.4844,76.3281 C182.0625,76.5938 181.375,76.7188 180.6094,76.7188 C178.5625,76.7188 177.2656,75.625 177.2656,73.9219 L177.2656,72.8281 C177.2656,71.0469 178.5156,69.7344 180.25,69.7344 C180.8281,69.7344 181.4375,69.8906 181.9063,70.1406 C182.3906,70.4219 182.5625,70.6406 182.6563,71.0469 C182.7188,71.4531 182.75,71.5781 182.8906,71.7031 C183.0313,71.8438 183.2656,71.9531 183.4844,71.9531 C183.75,71.9531 184.0156,71.8125 184.1875,71.5938 C184.2969,71.4375 184.3281,71.25 184.3281,70.8281 L184.3281,69.4063 C184.3281,68.9688 184.3125,68.8438 184.2188,68.6875 C184.0625,68.4219 183.7813,68.2813 183.4844,68.2813 C183.1875,68.2813 182.9844,68.375 182.7656,68.6875 L182.5938,68.6094 Z " fill="#000000"/><text fill="#000000" font-family="sans-serif" font-size="14" lengthAdjust="spacing" textLength="34" x="200.75" y="77.7842">Land</text><line style="stroke:#181818;stroke-width:0.5;" x1="101" x2="302" y1="88.9375" y2="88.9375"/><ellipse cx="111" cy="102.5859" fill="none" rx="3" ry="3" style="stroke:#038048;stroke-width:1.0;"/><text fill="#000000" font-family="sans-serif" font-size="14" lengthAdjust="spacing" textLength="153" x="120" y="105.9326">einddatumLand: date</text><ellipse cx="111" cy="118.8828" fill="none" rx="3" ry="3" style="stroke:#038048;stroke-width:1.0;"/><text fill="#000000" font-family="sans-serif" font-size="14" lengthAdjust="spacing" textLength="177" x="120" y="122.2295">ingangsdatumLand: date</text><ellipse cx="111" cy="135.1797" fill="none" rx="3" ry="3" style="stroke:#038048;stroke-width:1.0;"/><text fill="#000000" font-family="sans-serif" font-size="14" lengthAdjust="spacing" textLength="116" x="120" y="138.5264">landcode: string</text><ellipse cx="111" cy="151.4766" fill="none" rx="3" ry="3" style="stroke:#038048;stroke-width:1.0;"/><text fill="#000000" font-family="sans-serif" font-size="14" lengthAdjust="spacing" textLength="120" x="120" y="154.8232">landnaam: string</text><line style="stroke:#181818;stroke-width:0.5;" x1="101" x2="302" y1="162.125" y2="162.125"/></g><text fill="#888888" font-family="sans-serif" font-size="10" lengthAdjust="spacing" textLength="402" x="0" y="186.4072">Common Gateway Plugin | Commongateway | Customerinteractionbundle</text><!--SRC=[ROwn3i8m34JtV8Lt_Y0h0mi34bzWOfD6IcofSOGGyEzrgweJszspV7TMh7A4Amg5fwhn7E6ihQd01OrV-8PR7Ra8V7UUT-n-TDF6Sn5_msH5vJ64AaEO66cDkgU96uQGAlQ-jS0d09o0Yn2XZRQo22vvuyNp9VT_f-esAVdQRjwP3oY8xO2_1G00]--></g></svg>