<?xml version="1.0" encoding="us-ascii" standalone="no"?><svg xmlns="http://www.w3.org/2000/svg" xmlns:xlink="http://www.w3.org/1999/xlink" contentStyleType="text/css" height="164px" preserveAspectRatio="none" style="width:410px;height:164px;background:#FFFFFF;" version="1.1" viewBox="0 0 410 164" width="410px" zoomAndPan="magnify"><defs/><g><text fill="#888888" font-family="sans-serif" font-size="10" lengthAdjust="spacing" textLength="45" x="357" y="9.2822">Schema</text><text fill="#000000" font-family="sans-serif" font-size="14" font-weight="bold" lengthAdjust="spacing" textLength="140" x="131" y="35.6357">TaakIdentificatie</text><!--class TaakIdentificatie--><g id="elem_TaakIdentificatie"><rect codeLine="5" fill="#F1F1F1" height="80.5938" id="TaakIdentificatie" rx="2.5" ry="2.5" style="stroke:#181818;stroke-width:0.5;" width="154" x="124.5" y="56.9375"/><ellipse cx="139.5" cy="72.9375" fill="#ADD1B2" rx="11" ry="11" style="stroke:#181818;stroke-width:1.0;"/><path d="M141.8438,68.6094 C140.9063,68.1719 140.3125,68.0313 139.4375,68.0313 C136.8125,68.0313 134.8125,70.1094 134.8125,72.8281 L134.8125,73.9531 C134.8125,76.5313 136.9219,78.4219 139.8125,78.4219 C141.0313,78.4219 142.1875,78.125 142.9375,77.5781 C143.5156,77.1719 143.8438,76.7188 143.8438,76.3281 C143.8438,75.875 143.4531,75.4844 142.9844,75.4844 C142.7656,75.4844 142.5625,75.5625 142.375,75.75 C141.9219,76.2344 141.9219,76.2344 141.7344,76.3281 C141.3125,76.5938 140.625,76.7188 139.8594,76.7188 C137.8125,76.7188 136.5156,75.625 136.5156,73.9219 L136.5156,72.8281 C136.5156,71.0469 137.7656,69.7344 139.5,69.7344 C140.0781,69.7344 140.6875,69.8906 141.1563,70.1406 C141.6406,70.4219 141.8125,70.6406 141.9063,71.0469 C141.9688,71.4531 142,71.5781 142.1406,71.7031 C142.2813,71.8438 142.5156,71.9531 142.7344,71.9531 C143,71.9531 143.2656,71.8125 143.4375,71.5938 C143.5469,71.4375 143.5781,71.25 143.5781,70.8281 L143.5781,69.4063 C143.5781,68.9688 143.5625,68.8438 143.4688,68.6875 C143.3125,68.4219 143.0313,68.2813 142.7344,68.2813 C142.4375,68.2813 142.2344,68.375 142.0156,68.6875 L141.8438,68.6094 Z " fill="#000000"/><text fill="#000000" font-family="sans-serif" font-size="14" lengthAdjust="spacing" textLength="122" x="153.5" y="77.7842">TaakIdentificatie</text><line style="stroke:#181818;stroke-width:0.5;" x1="125.5" x2="277.5" y1="88.9375" y2="88.9375"/><ellipse cx="135.5" cy="102.5859" fill="none" rx="3" ry="3" style="stroke:#038048;stroke-width:1.0;"/><text fill="#000000" font-family="sans-serif" font-size="14" lengthAdjust="spacing" textLength="85" x="144.5" y="105.9326">type: string</text><ellipse cx="135.5" cy="118.8828" fill="none" rx="3" ry="3" style="stroke:#038048;stroke-width:1.0;"/><text fill="#000000" font-family="sans-serif" font-size="14" lengthAdjust="spacing" textLength="88" x="144.5" y="122.2295">value: string</text><line style="stroke:#181818;stroke-width:0.5;" x1="125.5" x2="277.5" y1="129.5313" y2="129.5313"/></g><text fill="#888888" font-family="sans-serif" font-size="10" lengthAdjust="spacing" textLength="402" x="0" y="153.8135">Common Gateway Plugin | Commongateway | Customerinteractionbundle</text><!--SRC=[POun3W8n30JxlC8zFxYM0j4XmGTCuijPE3QwEA0Jy7S2Eec2SaVQsNLseG5EY9Tz8dKUEQ8pXT7CQHvWQwMOmWwTxhZ0GLfcXUVAyufxRjMjqCpQQnYTJSzDan24YJ1zLCSuKS4Gec2j_vFm200RyENQ3rNlflm5DvJs8wyt]--></g></svg>