<?xml version="1.0" encoding="us-ascii" standalone="no"?><svg xmlns="http://www.w3.org/2000/svg" xmlns:xlink="http://www.w3.org/1999/xlink" contentStyleType="text/css" height="359px" preserveAspectRatio="none" style="width:410px;height:359px;background:#FFFFFF;" version="1.1" viewBox="0 0 410 359" width="410px" zoomAndPan="magnify"><defs/><g><text fill="#888888" font-family="sans-serif" font-size="10" lengthAdjust="spacing" textLength="45" x="357" y="9.2822">Schema</text><text fill="#000000" font-family="sans-serif" font-size="14" font-weight="bold" lengthAdjust="spacing" textLength="178" x="112" y="35.6357">Correspondentieadres</text><!--class Correspondentieadres--><g id="elem_Correspondentieadres"><rect codeLine="5" fill="#F1F1F1" height="276.1563" id="Correspondentieadres" rx="2.5" ry="2.5" style="stroke:#181818;stroke-width:0.5;" width="276" x="63.5" y="56.9375"/><ellipse cx="116.75" cy="72.9375" fill="#ADD1B2" rx="11" ry="11" style="stroke:#181818;stroke-width:1.0;"/><path d="M119.0938,68.6094 C118.1563,68.1719 117.5625,68.0313 116.6875,68.0313 C114.0625,68.0313 112.0625,70.1094 112.0625,72.8281 L112.0625,73.9531 C112.0625,76.5313 114.1719,78.4219 117.0625,78.4219 C118.2813,78.4219 119.4375,78.125 120.1875,77.5781 C120.7656,77.1719 121.0938,76.7188 121.0938,76.3281 C121.0938,75.875 120.7031,75.4844 120.2344,75.4844 C120.0156,75.4844 119.8125,75.5625 119.625,75.75 C119.1719,76.2344 119.1719,76.2344 118.9844,76.3281 C118.5625,76.5938 117.875,76.7188 117.1094,76.7188 C115.0625,76.7188 113.7656,75.625 113.7656,73.9219 L113.7656,72.8281 C113.7656,71.0469 115.0156,69.7344 116.75,69.7344 C117.3281,69.7344 117.9375,69.8906 118.4063,70.1406 C118.8906,70.4219 119.0625,70.6406 119.1563,71.0469 C119.2188,71.4531 119.25,71.5781 119.3906,71.7031 C119.5313,71.8438 119.7656,71.9531 119.9844,71.9531 C120.25,71.9531 120.5156,71.8125 120.6875,71.5938 C120.7969,71.4375 120.8281,71.25 120.8281,70.8281 L120.8281,69.4063 C120.8281,68.9688 120.8125,68.8438 120.7188,68.6875 C120.5625,68.4219 120.2813,68.2813 119.9844,68.2813 C119.6875,68.2813 119.4844,68.375 119.2656,68.6875 L119.0938,68.6094 Z " fill="#000000"/><text fill="#000000" font-family="sans-serif" font-size="14" lengthAdjust="spacing" textLength="161" x="137.25" y="77.7842">Correspondentieadres</text><line style="stroke:#181818;stroke-width:0.5;" x1="64.5" x2="338.5" y1="88.9375" y2="88.9375"/><ellipse cx="74.5" cy="102.5859" fill="none" rx="3" ry="3" style="stroke:#038048;stroke-width:1.0;"/><text fill="#000000" font-family="sans-serif" font-size="14" lengthAdjust="spacing" textLength="235" x="83.5" y="105.9326">aanduidingBijHuisnummer: string</text><ellipse cx="74.5" cy="118.8828" fill="none" rx="3" ry="3" style="stroke:#038048;stroke-width:1.0;"/><text fill="#000000" font-family="sans-serif" font-size="14" lengthAdjust="spacing" textLength="213" x="83.5" y="122.2295">adresregelBuitenland1: string</text><ellipse cx="74.5" cy="135.1797" fill="none" rx="3" ry="3" style="stroke:#038048;stroke-width:1.0;"/><text fill="#000000" font-family="sans-serif" font-size="14" lengthAdjust="spacing" textLength="212" x="83.5" y="138.5264">adresregelBuitenland2: string</text><ellipse cx="74.5" cy="151.4766" fill="none" rx="3" ry="3" style="stroke:#038048;stroke-width:1.0;"/><text fill="#000000" font-family="sans-serif" font-size="14" lengthAdjust="spacing" textLength="213" x="83.5" y="154.8232">adresregelBuitenland3: string</text><ellipse cx="74.5" cy="167.7734" fill="none" rx="3" ry="3" style="stroke:#038048;stroke-width:1.0;"/><text fill="#000000" font-family="sans-serif" font-size="14" lengthAdjust="spacing" textLength="190" x="83.5" y="171.1201">antwoordnummer: integer</text><ellipse cx="74.5" cy="184.0703" fill="none" rx="3" ry="3" style="stroke:#038048;stroke-width:1.0;"/><text fill="#000000" font-family="sans-serif" font-size="14" lengthAdjust="spacing" textLength="121" x="83.5" y="187.417">huisletter: string</text><ellipse cx="74.5" cy="200.3672" fill="none" rx="3" ry="3" style="stroke:#038048;stroke-width:1.0;"/><text fill="#000000" font-family="sans-serif" font-size="14" lengthAdjust="spacing" textLength="150" x="83.5" y="203.7139">huisnummer: integer</text><ellipse cx="74.5" cy="216.6641" fill="none" rx="3" ry="3" style="stroke:#038048;stroke-width:1.0;"/><text fill="#000000" font-family="sans-serif" font-size="14" lengthAdjust="spacing" textLength="221" x="83.5" y="220.0107">huisnummertoevoeging: string</text><ellipse cx="74.5" cy="232.9609" fill="none" rx="3" ry="3" style="stroke:#038048;stroke-width:1.0;"/><text fill="#000000" font-family="sans-serif" font-size="14" lengthAdjust="spacing" textLength="86" x="83.5" y="236.3076">land: object</text><ellipse cx="74.5" cy="249.2578" fill="none" rx="3" ry="3" style="stroke:#038048;stroke-width:1.0;"/><text fill="#000000" font-family="sans-serif" font-size="14" lengthAdjust="spacing" textLength="180" x="83.5" y="252.6045">postbusnummer: integer</text><ellipse cx="74.5" cy="265.5547" fill="none" rx="3" ry="3" style="stroke:#038048;stroke-width:1.0;"/><text fill="#000000" font-family="sans-serif" font-size="14" lengthAdjust="spacing" textLength="119" x="83.5" y="268.9014">postcode: string</text><ellipse cx="74.5" cy="281.8516" fill="none" rx="3" ry="3" style="stroke:#038048;stroke-width:1.0;"/><text fill="#000000" font-family="sans-serif" font-size="14" lengthAdjust="spacing" textLength="250" x="83.5" y="285.1982">soortCorrespondentieadres: string</text><ellipse cx="74.5" cy="298.1484" fill="none" rx="3" ry="3" style="stroke:#038048;stroke-width:1.0;"/><text fill="#000000" font-family="sans-serif" font-size="14" lengthAdjust="spacing" textLength="94" x="83.5" y="301.4951">straat: string</text><ellipse cx="74.5" cy="314.4453" fill="none" rx="3" ry="3" style="stroke:#038048;stroke-width:1.0;"/><text fill="#000000" font-family="sans-serif" font-size="14" lengthAdjust="spacing" textLength="133" x="83.5" y="317.792">woonplaats: string</text><line style="stroke:#181818;stroke-width:0.5;" x1="64.5" x2="338.5" y1="325.0938" y2="325.0938"/></g><text fill="#888888" font-family="sans-serif" font-size="10" lengthAdjust="spacing" textLength="402" x="0" y="349.376">Common Gateway Plugin | Commongateway | Customerinteractionbundle</text><!--SRC=[XP2nJaCn34NtV4Ls9c3hM0OOaVW2lyJafKhifyHfXMZ_7QSjWbHFwkZhu-jhIvI46_l2fM1Tc3oIH0IlbVba5YozcJEJVGN10tpPzzH297kywk4gQzsgSCOIISV0IMIQ6lc4ringsQq-t8mPZ749QbtTQh-DjGyMW7oBFbBOnjrRYvLQpjsXYlg72zFvWW7JjaL1IZhpU9TukaiyZmJ9WRdutm3zke3bt9irM4AHcs3plxot-4KNnZsZlZ4CWttxnlAqGoTdOU4gKrirwot77WU3gabbxQqZ9GL01abFf2Mf-aUUVW00]--></g></svg>