<?xml version="1.0" encoding="UTF-8" standalone="no"?><svg xmlns="http://www.w3.org/2000/svg" xmlns:xlink="http://www.w3.org/1999/xlink" contentScriptType="application/ecmascript" contentStyleType="text/css" height="271px" preserveAspectRatio="none" style="width:375px;height:271px;" version="1.1" viewBox="0 0 375 271" width="375px" zoomAndPan="magnify"><defs><filter height="300%" id="fvf6u7c98689g" width="300%" x="-1" y="-1"><feGaussianBlur result="blurOut" stdDeviation="2.0"/><feColorMatrix in="blurOut" result="blurOut2" type="matrix" values="0 0 0 0 0 0 0 0 0 0 0 0 0 0 0 0 0 0 .4 0"/><feOffset dx="4.0" dy="4.0" in="blurOut2" result="blurOut3"/><feBlend in="SourceGraphic" in2="blurOut3" mode="normal"/></filter></defs><g><text fill="#888888" font-family="sans-serif" font-size="10" lengthAdjust="spacingAndGlyphs" textLength="40" x="323" y="9.2822">Schema</text><text fill="#000000" font-family="sans-serif" font-size="18" lengthAdjust="spacingAndGlyphs" textLength="112" x="125.5" y="28.3486">Bezoekadres</text><!--MD5=[0ac84a77012d526b097cc82c2e60c9d3]
class Bezoekadres--><rect fill="#FEFECE" filter="url(#fvf6u7c98689g)" height="201.6563" id="Bezoekadres" style="stroke: #A80036; stroke-width: 1.5;" width="216" x="73.5" y="39.5938"/><ellipse cx="137.25" cy="55.5938" fill="#ADD1B2" rx="11" ry="11" style="stroke: #A80036; stroke-width: 1.0;"/><path d="M140.2188,61.2344 Q139.6406,61.5313 139,61.6719 Q138.3594,61.8281 137.6563,61.8281 Q135.1563,61.8281 133.8281,60.1875 Q132.5156,58.5313 132.5156,55.4063 Q132.5156,52.2813 133.8281,50.625 Q135.1563,48.9688 137.6563,48.9688 Q138.3594,48.9688 139,49.125 Q139.6563,49.2813 140.2188,49.5781 L140.2188,52.2969 Q139.5938,51.7188 139,51.4531 Q138.4063,51.1719 137.7813,51.1719 Q136.4375,51.1719 135.75,52.25 Q135.0625,53.3125 135.0625,55.4063 Q135.0625,57.5 135.75,58.5781 Q136.4375,59.6406 137.7813,59.6406 Q138.4063,59.6406 139,59.375 Q139.5938,59.0938 140.2188,58.5156 L140.2188,61.2344 Z "/><text fill="#000000" font-family="sans-serif" font-size="12" lengthAdjust="spacingAndGlyphs" textLength="80" x="157.75" y="59.748">Bezoekadres</text><line style="stroke: #A80036; stroke-width: 1.5;" x1="74.5" x2="288.5" y1="71.5938" y2="71.5938"/><ellipse cx="84.5" cy="82.5938" fill="none" rx="3" ry="3" style="stroke: #038048; stroke-width: 1.0;"/><text fill="#000000" font-family="sans-serif" font-size="11" lengthAdjust="spacingAndGlyphs" textLength="190" x="93.5" y="85.8042">aanduidingBijHuisnummer: string</text><ellipse cx="84.5" cy="95.3984" fill="none" rx="3" ry="3" style="stroke: #038048; stroke-width: 1.0;"/><text fill="#000000" font-family="sans-serif" font-size="11" lengthAdjust="spacingAndGlyphs" textLength="170" x="93.5" y="98.6089">adresregelBuitenland1: string</text><ellipse cx="84.5" cy="108.2031" fill="none" rx="3" ry="3" style="stroke: #038048; stroke-width: 1.0;"/><text fill="#000000" font-family="sans-serif" font-size="11" lengthAdjust="spacingAndGlyphs" textLength="170" x="93.5" y="111.4136">adresregelBuitenland2: string</text><ellipse cx="84.5" cy="121.0078" fill="none" rx="3" ry="3" style="stroke: #038048; stroke-width: 1.0;"/><text fill="#000000" font-family="sans-serif" font-size="11" lengthAdjust="spacingAndGlyphs" textLength="170" x="93.5" y="124.2183">adresregelBuitenland3: string</text><ellipse cx="84.5" cy="133.8125" fill="none" rx="3" ry="3" style="stroke: #038048; stroke-width: 1.0;"/><text fill="#000000" font-family="sans-serif" font-size="11" lengthAdjust="spacingAndGlyphs" textLength="95" x="93.5" y="137.0229">huisletter: string</text><ellipse cx="84.5" cy="146.6172" fill="none" rx="3" ry="3" style="stroke: #038048; stroke-width: 1.0;"/><text fill="#000000" font-family="sans-serif" font-size="11" lengthAdjust="spacingAndGlyphs" textLength="120" x="93.5" y="149.8276">huisnummer: integer</text><ellipse cx="84.5" cy="159.4219" fill="none" rx="3" ry="3" style="stroke: #038048; stroke-width: 1.0;"/><text fill="#000000" font-family="sans-serif" font-size="11" lengthAdjust="spacingAndGlyphs" textLength="175" x="93.5" y="162.6323">huisnummertoevoeging: string</text><ellipse cx="84.5" cy="172.2266" fill="none" rx="3" ry="3" style="stroke: #038048; stroke-width: 1.0;"/><text fill="#000000" font-family="sans-serif" font-size="11" lengthAdjust="spacingAndGlyphs" textLength="66" x="93.5" y="175.437">land: object</text><ellipse cx="84.5" cy="185.0313" fill="none" rx="3" ry="3" style="stroke: #038048; stroke-width: 1.0;"/><text fill="#000000" font-family="sans-serif" font-size="11" lengthAdjust="spacingAndGlyphs" textLength="93" x="93.5" y="188.2417">postcode: string</text><ellipse cx="84.5" cy="197.8359" fill="none" rx="3" ry="3" style="stroke: #038048; stroke-width: 1.0;"/><text fill="#000000" font-family="sans-serif" font-size="11" lengthAdjust="spacingAndGlyphs" textLength="144" x="93.5" y="201.0464">soortBezoekadres: string</text><ellipse cx="84.5" cy="210.6406" fill="none" rx="3" ry="3" style="stroke: #038048; stroke-width: 1.0;"/><text fill="#000000" font-family="sans-serif" font-size="11" lengthAdjust="spacingAndGlyphs" textLength="75" x="93.5" y="213.8511">straat: string</text><ellipse cx="84.5" cy="223.4453" fill="none" rx="3" ry="3" style="stroke: #038048; stroke-width: 1.0;"/><text fill="#000000" font-family="sans-serif" font-size="11" lengthAdjust="spacingAndGlyphs" textLength="106" x="93.5" y="226.6558">woonplaats: string</text><line style="stroke: #A80036; stroke-width: 1.5;" x1="74.5" x2="288.5" y1="233.25" y2="233.25"/><text fill="#888888" font-family="sans-serif" font-size="10" lengthAdjust="spacingAndGlyphs" textLength="363" x="0" y="257.5322">Common Gateway Plugin | Commongateway | Customerinteractionbundle</text><!--MD5=[3f9a32e7d732afe284fa10ff65c23288]
@startuml
title: Bezoekadres
footer: Common Gateway Plugin | Commongateway | Customerinteractionbundle 
header: Schema

class Bezoekadres {
  + aanduidingBijHuisnummer: string
  + adresregelBuitenland1: string
  + adresregelBuitenland2: string
  + adresregelBuitenland3: string
  + huisletter: string
  + huisnummer: integer
  + huisnummertoevoeging: string
  + land: object
  + postcode: string
  + soortBezoekadres: string
  + straat: string
  + woonplaats: string
}
@enduml

PlantUML version 1.2020.02(Sun Mar 01 10:22:07 UTC 2020)
(GPL source distribution)
Java Runtime: OpenJDK Runtime Environment
JVM: OpenJDK 64-Bit Server VM
Java Version: 11.0.20.1+1
Operating System: Linux
Default Encoding: UTF-8
Language: en
Country: null
--></g></svg>