<?xml version="1.0" encoding="UTF-8" standalone="no"?><svg xmlns="http://www.w3.org/2000/svg" xmlns:xlink="http://www.w3.org/1999/xlink" contentScriptType="application/ecmascript" contentStyleType="text/css" height="181px" preserveAspectRatio="none" style="width:375px;height:181px;" version="1.1" viewBox="0 0 375 181" width="375px" zoomAndPan="magnify"><defs><filter height="300%" id="f1cruie63yo9n5" width="300%" x="-1" y="-1"><feGaussianBlur result="blurOut" stdDeviation="2.0"/><feColorMatrix in="blurOut" result="blurOut2" type="matrix" values="0 0 0 0 0 0 0 0 0 0 0 0 0 0 0 0 0 0 .4 0"/><feOffset dx="4.0" dy="4.0" in="blurOut2" result="blurOut3"/><feBlend in="SourceGraphic" in2="blurOut3" mode="normal"/></filter></defs><g><text fill="#888888" font-family="sans-serif" font-size="10" lengthAdjust="spacingAndGlyphs" textLength="40" x="323" y="9.2822">Schema</text><text fill="#000000" font-family="sans-serif" font-size="18" lengthAdjust="spacingAndGlyphs" textLength="59" x="152" y="28.3486">Bijlage</text><!--MD5=[c8b62534d940e04573c4f5293d1dfeb0]
class Bijlage--><rect fill="#FEFECE" filter="url(#f1cruie63yo9n5)" height="112.0234" id="Bijlage" style="stroke: #A80036; stroke-width: 1.5;" width="204" x="79.5" y="39.5938"/><ellipse cx="156.75" cy="55.5938" fill="#ADD1B2" rx="11" ry="11" style="stroke: #A80036; stroke-width: 1.0;"/><path d="M159.7188,61.2344 Q159.1406,61.5313 158.5,61.6719 Q157.8594,61.8281 157.1563,61.8281 Q154.6563,61.8281 153.3281,60.1875 Q152.0156,58.5313 152.0156,55.4063 Q152.0156,52.2813 153.3281,50.625 Q154.6563,48.9688 157.1563,48.9688 Q157.8594,48.9688 158.5,49.125 Q159.1563,49.2813 159.7188,49.5781 L159.7188,52.2969 Q159.0938,51.7188 158.5,51.4531 Q157.9063,51.1719 157.2813,51.1719 Q155.9375,51.1719 155.25,52.25 Q154.5625,53.3125 154.5625,55.4063 Q154.5625,57.5 155.25,58.5781 Q155.9375,59.6406 157.2813,59.6406 Q157.9063,59.6406 158.5,59.375 Q159.0938,59.0938 159.7188,58.5156 L159.7188,61.2344 Z "/><text fill="#000000" font-family="sans-serif" font-size="12" lengthAdjust="spacingAndGlyphs" textLength="41" x="177.25" y="59.748">Bijlage</text><line style="stroke: #A80036; stroke-width: 1.5;" x1="80.5" x2="282.5" y1="71.5938" y2="71.5938"/><ellipse cx="90.5" cy="82.5938" fill="none" rx="3" ry="3" style="stroke: #038048; stroke-width: 1.0;"/><text fill="#000000" font-family="sans-serif" font-size="11" lengthAdjust="spacingAndGlyphs" textLength="87" x="99.5" y="85.8042">externId: string</text><ellipse cx="90.5" cy="95.3984" fill="none" rx="3" ry="3" style="stroke: #038048; stroke-width: 1.0;"/><text fill="#000000" font-family="sans-serif" font-size="11" lengthAdjust="spacingAndGlyphs" textLength="124" x="99.5" y="98.6089">externRegister: string</text><ellipse cx="90.5" cy="108.2031" fill="none" rx="3" ry="3" style="stroke: #038048; stroke-width: 1.0;"/><text fill="#000000" font-family="sans-serif" font-size="11" lengthAdjust="spacingAndGlyphs" textLength="178" x="99.5" y="111.4136">indicatieWeerTeGeven: boolean</text><ellipse cx="90.5" cy="121.0078" fill="none" rx="3" ry="3" style="stroke: #038048; stroke-width: 1.0;"/><text fill="#000000" font-family="sans-serif" font-size="11" lengthAdjust="spacingAndGlyphs" textLength="119" x="99.5" y="124.2183">klantcontactId: string</text><ellipse cx="90.5" cy="133.8125" fill="none" rx="3" ry="3" style="stroke: #038048; stroke-width: 1.0;"/><text fill="#000000" font-family="sans-serif" font-size="11" lengthAdjust="spacingAndGlyphs" textLength="113" x="99.5" y="137.0229">omschrijving: string</text><line style="stroke: #A80036; stroke-width: 1.5;" x1="80.5" x2="282.5" y1="143.6172" y2="143.6172"/><text fill="#888888" font-family="sans-serif" font-size="10" lengthAdjust="spacingAndGlyphs" textLength="363" x="0" y="167.8994">Common Gateway Plugin | Commongateway | Customerinteractionbundle</text><!--MD5=[05ee5d5b9305fd01507da2dfd49a76ea]
@startuml
title: Bijlage
footer: Common Gateway Plugin | Commongateway | Customerinteractionbundle 
header: Schema

class Bijlage {
  + externId: string
  + externRegister: string
  + indicatieWeerTeGeven: boolean
  + klantcontactId: string
  + omschrijving: string
}
@enduml

PlantUML version 1.2020.02(Sun Mar 01 10:22:07 UTC 2020)
(GPL source distribution)
Java Runtime: OpenJDK Runtime Environment
JVM: OpenJDK 64-Bit Server VM
Java Version: 11.0.20.1+1
Operating System: Linux
Default Encoding: UTF-8
Language: en
Country: null
--></g></svg>