<?xml version="1.0" encoding="us-ascii" standalone="no"?><svg xmlns="http://www.w3.org/2000/svg" xmlns:xlink="http://www.w3.org/1999/xlink" contentStyleType="text/css" height="180px" preserveAspectRatio="none" style="width:410px;height:180px;background:#FFFFFF;" version="1.1" viewBox="0 0 410 180" width="410px" zoomAndPan="magnify"><defs/><g><text fill="#888888" font-family="sans-serif" font-size="10" lengthAdjust="spacing" textLength="45" x="357" y="9.2822">Schema</text><text fill="#000000" font-family="sans-serif" font-size="14" font-weight="bold" lengthAdjust="spacing" textLength="110" x="146" y="35.6357">DigitaalAdres</text><!--class DigitaalAdres--><g id="elem_DigitaalAdres"><rect codeLine="5" fill="#F1F1F1" height="96.8906" id="DigitaalAdres" rx="2.5" ry="2.5" style="stroke:#181818;stroke-width:0.5;" width="216" x="93.5" y="56.9375"/><ellipse cx="149.25" cy="72.9375" fill="#ADD1B2" rx="11" ry="11" style="stroke:#181818;stroke-width:1.0;"/><path d="M151.5938,68.6094 C150.6563,68.1719 150.0625,68.0313 149.1875,68.0313 C146.5625,68.0313 144.5625,70.1094 144.5625,72.8281 L144.5625,73.9531 C144.5625,76.5313 146.6719,78.4219 149.5625,78.4219 C150.7813,78.4219 151.9375,78.125 152.6875,77.5781 C153.2656,77.1719 153.5938,76.7188 153.5938,76.3281 C153.5938,75.875 153.2031,75.4844 152.7344,75.4844 C152.5156,75.4844 152.3125,75.5625 152.125,75.75 C151.6719,76.2344 151.6719,76.2344 151.4844,76.3281 C151.0625,76.5938 150.375,76.7188 149.6094,76.7188 C147.5625,76.7188 146.2656,75.625 146.2656,73.9219 L146.2656,72.8281 C146.2656,71.0469 147.5156,69.7344 149.25,69.7344 C149.8281,69.7344 150.4375,69.8906 150.9063,70.1406 C151.3906,70.4219 151.5625,70.6406 151.6563,71.0469 C151.7188,71.4531 151.75,71.5781 151.8906,71.7031 C152.0313,71.8438 152.2656,71.9531 152.4844,71.9531 C152.75,71.9531 153.0156,71.8125 153.1875,71.5938 C153.2969,71.4375 153.3281,71.25 153.3281,70.8281 L153.3281,69.4063 C153.3281,68.9688 153.3125,68.8438 153.2188,68.6875 C153.0625,68.4219 152.7813,68.2813 152.4844,68.2813 C152.1875,68.2813 151.9844,68.375 151.7656,68.6875 L151.5938,68.6094 Z " fill="#000000"/><text fill="#000000" font-family="sans-serif" font-size="14" lengthAdjust="spacing" textLength="96" x="169.75" y="77.7842">DigitaalAdres</text><line style="stroke:#181818;stroke-width:0.5;" x1="94.5" x2="308.5" y1="88.9375" y2="88.9375"/><ellipse cx="104.5" cy="102.5859" fill="none" rx="3" ry="3" style="stroke:#038048;stroke-width:1.0;"/><text fill="#000000" font-family="sans-serif" font-size="14" lengthAdjust="spacing" textLength="90" x="113.5" y="105.9326">adres: string</text><ellipse cx="104.5" cy="118.8828" fill="none" rx="3" ry="3" style="stroke:#038048;stroke-width:1.0;"/><text fill="#000000" font-family="sans-serif" font-size="14" lengthAdjust="spacing" textLength="142" x="113.5" y="122.2295">omschrijving: string</text><ellipse cx="104.5" cy="135.1797" fill="none" rx="3" ry="3" style="stroke:#038048;stroke-width:1.0;"/><text fill="#000000" font-family="sans-serif" font-size="14" lengthAdjust="spacing" textLength="190" x="113.5" y="138.5264">soortDigitaalAdres: object</text><line style="stroke:#181818;stroke-width:0.5;" x1="94.5" x2="308.5" y1="145.8281" y2="145.8281"/></g><text fill="#888888" font-family="sans-serif" font-size="10" lengthAdjust="spacing" textLength="402" x="0" y="170.1104">Common Gateway Plugin | Commongateway | Customerinteractionbundle</text><!--SRC=[LOqn3i8m34NtdC8xDyY6G695uWHkOb9NIIp53WW1ToT5NRhvlw__R6oPF9mviI7cOsoaxYvYr3oSf1IfS46Z9xxWcdlY2f-DfmsFtDMaKECwPXYCfKwznapWPiAugcvXfeBEXOog-tVmTW07mFNse3OqwK-aQ9WRBuy1TeMADDivFCYqK33t_G40]--></g></svg>