<?xml version="1.0" encoding="us-ascii" standalone="no"?><svg xmlns="http://www.w3.org/2000/svg" xmlns:xlink="http://www.w3.org/1999/xlink" contentStyleType="text/css" height="408px" preserveAspectRatio="none" style="width:371px;height:408px;background:#FFFFFF;" version="1.1" viewBox="0 0 371 408" width="371px" zoomAndPan="magnify"><defs/><g><text fill="#888888" font-family="sans-serif" font-size="10" lengthAdjust="spacing" textLength="40" x="323" y="9.2822">Schema</text><text fill="#000000" font-family="sans-serif" font-size="14" font-weight="bold" lengthAdjust="spacing" textLength="37" x="163" y="35.6357">Taak</text><!--class Taak--><g id="elem_Taak"><rect codeLine="5" fill="#F1F1F1" height="325.0469" id="Taak" rx="2.5" ry="2.5" style="stroke:#181818;stroke-width:0.5;" width="197" x="83.5" y="56.9375"/><ellipse cx="161.25" cy="72.9375" fill="#ADD1B2" rx="11" ry="11" style="stroke:#181818;stroke-width:1.0;"/><path d="M164.2188,78.5781 Q163.6406,78.875 163,79.0156 Q162.3594,79.1719 161.6563,79.1719 Q159.1563,79.1719 157.8281,77.5313 Q156.5156,75.875 156.5156,72.75 Q156.5156,69.625 157.8281,67.9688 Q159.1563,66.3125 161.6563,66.3125 Q162.3594,66.3125 163,66.4688 Q163.6563,66.625 164.2188,66.9219 L164.2188,69.6406 Q163.5938,69.0625 163,68.7969 Q162.4063,68.5156 161.7813,68.5156 Q160.4375,68.5156 159.75,69.5938 Q159.0625,70.6563 159.0625,72.75 Q159.0625,74.8438 159.75,75.9219 Q160.4375,76.9844 161.7813,76.9844 Q162.4063,76.9844 163,76.7188 Q163.5938,76.4375 164.2188,75.8594 L164.2188,78.5781 Z " fill="#000000"/><text fill="#000000" font-family="sans-serif" font-size="14" lengthAdjust="spacing" textLength="33" x="181.75" y="77.7842">Taak</text><line style="stroke:#181818;stroke-width:0.5;" x1="84.5" x2="279.5" y1="88.9375" y2="88.9375"/><ellipse cx="94.5" cy="102.5859" fill="none" rx="3" ry="3" style="stroke:#038048;stroke-width:1.0;"/><text fill="#000000" font-family="sans-serif" font-size="14" lengthAdjust="spacing" textLength="60" x="103.5" y="105.9326">id: string</text><ellipse cx="94.5" cy="118.8828" fill="none" rx="3" ry="3" style="stroke:#038048;stroke-width:1.0;"/><text fill="#000000" font-family="sans-serif" font-size="14" lengthAdjust="spacing" textLength="78" x="103.5" y="122.2295">type: string</text><ellipse cx="94.5" cy="135.1797" fill="none" rx="3" ry="3" style="stroke:#038048;stroke-width:1.0;"/><text fill="#000000" font-family="sans-serif" font-size="14" lengthAdjust="spacing" textLength="65" x="103.5" y="138.5264">url: string</text><ellipse cx="94.5" cy="151.4766" fill="none" rx="3" ry="3" style="stroke:#038048;stroke-width:1.0;"/><text fill="#000000" font-family="sans-serif" font-size="14" lengthAdjust="spacing" textLength="72" x="103.5" y="154.8232">data: array</text><ellipse cx="94.5" cy="167.7734" fill="none" rx="3" ry="3" style="stroke:#038048;stroke-width:1.0;"/><text fill="#000000" font-family="sans-serif" font-size="14" lengthAdjust="spacing" textLength="80" x="103.5" y="171.1201">zaak: string</text><ellipse cx="94.5" cy="184.0703" fill="none" rx="3" ry="3" style="stroke:#038048;stroke-width:1.0;"/><text fill="#000000" font-family="sans-serif" font-size="14" lengthAdjust="spacing" textLength="73" x="103.5" y="187.417">title: string</text><ellipse cx="94.5" cy="200.3672" fill="none" rx="3" ry="3" style="stroke:#038048;stroke-width:1.0;"/><text fill="#000000" font-family="sans-serif" font-size="14" lengthAdjust="spacing" textLength="123" x="103.5" y="203.7139">onderwerp: string</text><ellipse cx="94.5" cy="216.6641" fill="none" rx="3" ry="3" style="stroke:#038048;stroke-width:1.0;"/><text fill="#000000" font-family="sans-serif" font-size="14" lengthAdjust="spacing" textLength="120" x="103.5" y="220.0107">toelichting: string</text><ellipse cx="94.5" cy="232.9609" fill="none" rx="3" ry="3" style="stroke:#038048;stroke-width:1.0;"/><text fill="#000000" font-family="sans-serif" font-size="14" lengthAdjust="spacing" textLength="91" x="103.5" y="236.3076">status: string</text><ellipse cx="94.5" cy="249.2578" fill="none" rx="3" ry="3" style="stroke:#038048;stroke-width:1.0;"/><text fill="#000000" font-family="sans-serif" font-size="14" lengthAdjust="spacing" textLength="85" x="103.5" y="252.6045">actie: object</text><ellipse cx="94.5" cy="265.5547" fill="none" rx="3" ry="3" style="stroke:#038048;stroke-width:1.0;"/><text fill="#000000" font-family="sans-serif" font-size="14" lengthAdjust="spacing" textLength="143" x="103.5" y="268.9014">verloopdatum: string</text><ellipse cx="94.5" cy="281.8516" fill="none" rx="3" ry="3" style="stroke:#038048;stroke-width:1.0;"/><text fill="#000000" font-family="sans-serif" font-size="14" lengthAdjust="spacing" textLength="131" x="103.5" y="285.1982">vervaldatum: string</text><ellipse cx="94.5" cy="298.1484" fill="none" rx="3" ry="3" style="stroke:#038048;stroke-width:1.0;"/><text fill="#000000" font-family="sans-serif" font-size="14" lengthAdjust="spacing" textLength="130" x="103.5" y="301.4951">identificatie: object</text><ellipse cx="94.5" cy="314.4453" fill="none" rx="3" ry="3" style="stroke:#038048;stroke-width:1.0;"/><text fill="#000000" font-family="sans-serif" font-size="14" lengthAdjust="spacing" textLength="153" x="103.5" y="317.792">verzonden_data: array</text><ellipse cx="94.5" cy="330.7422" fill="none" rx="3" ry="3" style="stroke:#038048;stroke-width:1.0;"/><text fill="#000000" font-family="sans-serif" font-size="14" lengthAdjust="spacing" textLength="171" x="103.5" y="334.0889">verwerker_taak_id: string</text><ellipse cx="94.5" cy="347.0391" fill="none" rx="3" ry="3" style="stroke:#038048;stroke-width:1.0;"/><text fill="#000000" font-family="sans-serif" font-size="14" lengthAdjust="spacing" textLength="131" x="103.5" y="350.3857">betrokkenen: array</text><ellipse cx="94.5" cy="363.3359" fill="none" rx="3" ry="3" style="stroke:#038048;stroke-width:1.0;"/><text fill="#000000" font-family="sans-serif" font-size="14" lengthAdjust="spacing" textLength="108" x="103.5" y="366.6826">extraData: array</text><line style="stroke:#181818;stroke-width:0.5;" x1="84.5" x2="279.5" y1="373.9844" y2="373.9844"/></g><text fill="#888888" font-family="sans-serif" font-size="10" lengthAdjust="spacing" textLength="363" x="0" y="398.2666">Common Gateway Plugin | Commongateway | Customerinteractionbundle</text><!--SRC=[RP2nSiGW34Hxla9z_i1jCfCsCvVU8uFE9WRa0U6BBxb_3oPNc4lAVKZBhiIAemxU4MTrPXQA7JopznpW5OKkkC6RowCDy7tdunqNdPEmfsX3MKCjbiEGWt44QY8qkzL9J-HHAUqmfVeBV2c09x2cWoHbTQnIjeKQaADhj4713Z16tAg-5glMuRV8WN0e4IuKbtQEoLazIT4DJuAIKuFsIiMIXm_IKibAqJ4l9KpspMXvMD7zvTPG47ks6l-nkku9G_zORQsfPugzb9BzmwK6aiZpJ872SOa-9UBBmUds0m00]--></g></svg>