<?xml version="1.0" encoding="UTF-8" standalone="no"?><svg xmlns="http://www.w3.org/2000/svg" xmlns:xlink="http://www.w3.org/1999/xlink" contentScriptType="application/ecmascript" contentStyleType="text/css" height="245px" preserveAspectRatio="none" style="width:375px;height:245px;" version="1.1" viewBox="0 0 375 245" width="375px" zoomAndPan="magnify"><defs><filter height="300%" id="f1m3gnd2g006ka" width="300%" x="-1" y="-1"><feGaussianBlur result="blurOut" stdDeviation="2.0"/><feColorMatrix in="blurOut" result="blurOut2" type="matrix" values="0 0 0 0 0 0 0 0 0 0 0 0 0 0 0 0 0 0 .4 0"/><feOffset dx="4.0" dy="4.0" in="blurOut2" result="blurOut3"/><feBlend in="SourceGraphic" in2="blurOut3" mode="normal"/></filter></defs><g><text fill="#888888" font-family="sans-serif" font-size="10" lengthAdjust="spacingAndGlyphs" textLength="40" x="323" y="9.2822">Schema</text><text fill="#000000" font-family="sans-serif" font-size="18" lengthAdjust="spacingAndGlyphs" textLength="46" x="158.5" y="28.3486">Partij</text><!--MD5=[0d7473760788abc3a66a3c31bb5f2a95]
class Partij--><rect fill="#FEFECE" filter="url(#f1m3gnd2g006ka)" height="176.0469" id="Partij" style="stroke: #A80036; stroke-width: 1.5;" width="194" x="84.5" y="39.5938"/><ellipse cx="161.25" cy="55.5938" fill="#ADD1B2" rx="11" ry="11" style="stroke: #A80036; stroke-width: 1.0;"/><path d="M164.2188,61.2344 Q163.6406,61.5313 163,61.6719 Q162.3594,61.8281 161.6563,61.8281 Q159.1563,61.8281 157.8281,60.1875 Q156.5156,58.5313 156.5156,55.4063 Q156.5156,52.2813 157.8281,50.625 Q159.1563,48.9688 161.6563,48.9688 Q162.3594,48.9688 163,49.125 Q163.6563,49.2813 164.2188,49.5781 L164.2188,52.2969 Q163.5938,51.7188 163,51.4531 Q162.4063,51.1719 161.7813,51.1719 Q160.4375,51.1719 159.75,52.25 Q159.0625,53.3125 159.0625,55.4063 Q159.0625,57.5 159.75,58.5781 Q160.4375,59.6406 161.7813,59.6406 Q162.4063,59.6406 163,59.375 Q163.5938,59.0938 164.2188,58.5156 L164.2188,61.2344 Z "/><text fill="#000000" font-family="sans-serif" font-size="12" lengthAdjust="spacingAndGlyphs" textLength="32" x="181.75" y="59.748">Partij</text><line style="stroke: #A80036; stroke-width: 1.5;" x1="85.5" x2="277.5" y1="71.5938" y2="71.5938"/><ellipse cx="95.5" cy="82.5938" fill="none" rx="3" ry="3" style="stroke: #038048; stroke-width: 1.0;"/><text fill="#000000" font-family="sans-serif" font-size="11" lengthAdjust="spacingAndGlyphs" textLength="114" x="104.5" y="85.8042">bezoekadres: object</text><ellipse cx="95.5" cy="95.3984" fill="none" rx="3" ry="3" style="stroke: #038048; stroke-width: 1.0;"/><text fill="#000000" font-family="sans-serif" font-size="11" lengthAdjust="spacingAndGlyphs" textLength="168" x="104.5" y="98.6089">correspondentieadres: object</text><ellipse cx="95.5" cy="108.2031" fill="none" rx="3" ry="3" style="stroke: #038048; stroke-width: 1.0;"/><text fill="#000000" font-family="sans-serif" font-size="11" lengthAdjust="spacingAndGlyphs" textLength="146" x="104.5" y="111.4136">externeIdentificatie: array</text><ellipse cx="95.5" cy="121.0078" fill="none" rx="3" ry="3" style="stroke: #038048; stroke-width: 1.0;"/><text fill="#000000" font-family="sans-serif" font-size="11" lengthAdjust="spacingAndGlyphs" textLength="117" x="104.5" y="124.2183">interneNotitie: string</text><ellipse cx="95.5" cy="133.8125" fill="none" rx="3" ry="3" style="stroke: #038048; stroke-width: 1.0;"/><text fill="#000000" font-family="sans-serif" font-size="11" lengthAdjust="spacingAndGlyphs" textLength="99" x="104.5" y="137.0229">klanttaakId: array</text><ellipse cx="95.5" cy="146.6172" fill="none" rx="3" ry="3" style="stroke: #038048; stroke-width: 1.0;"/><text fill="#000000" font-family="sans-serif" font-size="11" lengthAdjust="spacingAndGlyphs" textLength="96" x="104.5" y="149.8276">nummer: integer</text><ellipse cx="95.5" cy="159.4219" fill="none" rx="3" ry="3" style="stroke: #038048; stroke-width: 1.0;"/><text fill="#000000" font-family="sans-serif" font-size="11" lengthAdjust="spacingAndGlyphs" textLength="137" x="104.5" y="162.6323">organisatienaam: string</text><ellipse cx="95.5" cy="172.2266" fill="none" rx="3" ry="3" style="stroke: #038048; stroke-width: 1.0;"/><text fill="#000000" font-family="sans-serif" font-size="11" lengthAdjust="spacingAndGlyphs" textLength="128" x="104.5" y="175.437">persoonsnaam: object</text><ellipse cx="95.5" cy="185.0313" fill="none" rx="3" ry="3" style="stroke: #038048; stroke-width: 1.0;"/><text fill="#000000" font-family="sans-serif" font-size="11" lengthAdjust="spacingAndGlyphs" textLength="136" x="104.5" y="188.2417">voorkeurskanaal: object</text><ellipse cx="95.5" cy="197.8359" fill="none" rx="3" ry="3" style="stroke: #038048; stroke-width: 1.0;"/><text fill="#000000" font-family="sans-serif" font-size="11" lengthAdjust="spacingAndGlyphs" textLength="120" x="104.5" y="201.0464">voorkeurstaal: object</text><line style="stroke: #A80036; stroke-width: 1.5;" x1="85.5" x2="277.5" y1="207.6406" y2="207.6406"/><text fill="#888888" font-family="sans-serif" font-size="10" lengthAdjust="spacingAndGlyphs" textLength="363" x="0" y="231.9229">Common Gateway Plugin | Commongateway | Customerinteractionbundle</text><!--MD5=[1745c925d1b506ced58393fd48a1b789]
@startuml
title: Partij
footer: Common Gateway Plugin | Commongateway | Customerinteractionbundle 
header: Schema

class Partij {
  + bezoekadres: object
  + correspondentieadres: object
  + externeIdentificatie: array
  + interneNotitie: string
  + klanttaakId: array
  + nummer: integer
  + organisatienaam: string
  + persoonsnaam: object
  + voorkeurskanaal: object
  + voorkeurstaal: object
}
@enduml

PlantUML version 1.2020.02(Sun Mar 01 10:22:07 UTC 2020)
(GPL source distribution)
Java Runtime: OpenJDK Runtime Environment
JVM: OpenJDK 64-Bit Server VM
Java Version: 11.0.20.1+1
Operating System: Linux
Default Encoding: UTF-8
Language: en
Country: null
--></g></svg>