<?xml version="1.0" encoding="UTF-8" standalone="no"?><svg xmlns="http://www.w3.org/2000/svg" xmlns:xlink="http://www.w3.org/1999/xlink" contentScriptType="application/ecmascript" contentStyleType="text/css" height="168px" preserveAspectRatio="none" style="width:375px;height:168px;" version="1.1" viewBox="0 0 375 168" width="375px" zoomAndPan="magnify"><defs><filter height="300%" id="fox1fkndbg3dj" width="300%" x="-1" y="-1"><feGaussianBlur result="blurOut" stdDeviation="2.0"/><feColorMatrix in="blurOut" result="blurOut2" type="matrix" values="0 0 0 0 0 0 0 0 0 0 0 0 0 0 0 0 0 0 .4 0"/><feOffset dx="4.0" dy="4.0" in="blurOut2" result="blurOut3"/><feBlend in="SourceGraphic" in2="blurOut3" mode="normal"/></filter></defs><g><text fill="#888888" font-family="sans-serif" font-size="10" lengthAdjust="spacingAndGlyphs" textLength="40" x="323" y="9.2822">Schema</text><text fill="#000000" font-family="sans-serif" font-size="18" lengthAdjust="spacingAndGlyphs" textLength="42" x="160.5" y="28.3486">Land</text><!--MD5=[3b2ebc2a82a6ca42650088e4a2410713]
class Land--><rect fill="#FEFECE" filter="url(#fox1fkndbg3dj)" height="99.2188" id="Land" style="stroke: #A80036; stroke-width: 1.5;" width="167" x="98" y="39.5938"/><ellipse cx="162.25" cy="55.5938" fill="#ADD1B2" rx="11" ry="11" style="stroke: #A80036; stroke-width: 1.0;"/><path d="M165.2188,61.2344 Q164.6406,61.5313 164,61.6719 Q163.3594,61.8281 162.6563,61.8281 Q160.1563,61.8281 158.8281,60.1875 Q157.5156,58.5313 157.5156,55.4063 Q157.5156,52.2813 158.8281,50.625 Q160.1563,48.9688 162.6563,48.9688 Q163.3594,48.9688 164,49.125 Q164.6563,49.2813 165.2188,49.5781 L165.2188,52.2969 Q164.5938,51.7188 164,51.4531 Q163.4063,51.1719 162.7813,51.1719 Q161.4375,51.1719 160.75,52.25 Q160.0625,53.3125 160.0625,55.4063 Q160.0625,57.5 160.75,58.5781 Q161.4375,59.6406 162.7813,59.6406 Q163.4063,59.6406 164,59.375 Q164.5938,59.0938 165.2188,58.5156 L165.2188,61.2344 Z "/><text fill="#000000" font-family="sans-serif" font-size="12" lengthAdjust="spacingAndGlyphs" textLength="30" x="182.75" y="59.748">Land</text><line style="stroke: #A80036; stroke-width: 1.5;" x1="99" x2="264" y1="71.5938" y2="71.5938"/><ellipse cx="109" cy="82.5938" fill="none" rx="3" ry="3" style="stroke: #038048; stroke-width: 1.0;"/><text fill="#000000" font-family="sans-serif" font-size="11" lengthAdjust="spacingAndGlyphs" textLength="120" x="118" y="85.8042">einddatumLand: date</text><ellipse cx="109" cy="95.3984" fill="none" rx="3" ry="3" style="stroke: #038048; stroke-width: 1.0;"/><text fill="#000000" font-family="sans-serif" font-size="11" lengthAdjust="spacingAndGlyphs" textLength="141" x="118" y="98.6089">ingangsdatumLand: date</text><ellipse cx="109" cy="108.2031" fill="none" rx="3" ry="3" style="stroke: #038048; stroke-width: 1.0;"/><text fill="#000000" font-family="sans-serif" font-size="11" lengthAdjust="spacingAndGlyphs" textLength="92" x="118" y="111.4136">landcode: string</text><ellipse cx="109" cy="121.0078" fill="none" rx="3" ry="3" style="stroke: #038048; stroke-width: 1.0;"/><text fill="#000000" font-family="sans-serif" font-size="11" lengthAdjust="spacingAndGlyphs" textLength="97" x="118" y="124.2183">landnaam: string</text><line style="stroke: #A80036; stroke-width: 1.5;" x1="99" x2="264" y1="130.8125" y2="130.8125"/><text fill="#888888" font-family="sans-serif" font-size="10" lengthAdjust="spacingAndGlyphs" textLength="363" x="0" y="155.0947">Common Gateway Plugin | Commongateway | Customerinteractionbundle</text><!--MD5=[dcd9f1e4fd5712e9ef951d575f84f73d]
@startuml
title: Land
footer: Common Gateway Plugin | Commongateway | Customerinteractionbundle 
header: Schema

class Land {
  + einddatumLand: date
  + ingangsdatumLand: date
  + landcode: string
  + landnaam: string
}
@enduml

PlantUML version 1.2020.02(Sun Mar 01 10:22:07 UTC 2020)
(GPL source distribution)
Java Runtime: OpenJDK Runtime Environment
JVM: OpenJDK 64-Bit Server VM
Java Version: 11.0.20.1+1
Operating System: Linux
Default Encoding: UTF-8
Language: en
Country: null
--></g></svg>