<?xml version="1.0" encoding="UTF-8" standalone="no"?><svg xmlns="http://www.w3.org/2000/svg" xmlns:xlink="http://www.w3.org/1999/xlink" contentScriptType="application/ecmascript" contentStyleType="text/css" height="130px" preserveAspectRatio="none" style="width:201px;height:130px;" version="1.1" viewBox="0 0 201 130" width="201px" zoomAndPan="magnify"><defs><filter height="300%" id="f19spfp6otmvy9" width="300%" x="-1" y="-1"><feGaussianBlur result="blurOut" stdDeviation="2.0"/><feColorMatrix in="blurOut" result="blurOut2" type="matrix" values="0 0 0 0 0 0 0 0 0 0 0 0 0 0 0 0 0 0 .4 0"/><feOffset dx="4.0" dy="4.0" in="blurOut2" result="blurOut3"/><feBlend in="SourceGraphic" in2="blurOut3" mode="normal"/></filter></defs><g><!--MD5=[72141835bfefcae872b00d91d99df213]
class InterneTaak--><rect fill="#FEFECE" filter="url(#f19spfp6otmvy9)" height="112.0234" id="InterneTaak" style="stroke: #A80036; stroke-width: 1.5;" width="183" x="7" y="7"/><ellipse cx="56.75" cy="23" fill="#ADD1B2" rx="11" ry="11" style="stroke: #A80036; stroke-width: 1.0;"/><path d="M59.7188,28.6406 Q59.1406,28.9375 58.5,29.0781 Q57.8594,29.2344 57.1563,29.2344 Q54.6563,29.2344 53.3281,27.5938 Q52.0156,25.9375 52.0156,22.8125 Q52.0156,19.6875 53.3281,18.0313 Q54.6563,16.375 57.1563,16.375 Q57.8594,16.375 58.5,16.5313 Q59.1563,16.6875 59.7188,16.9844 L59.7188,19.7031 Q59.0938,19.125 58.5,18.8594 Q57.9063,18.5781 57.2813,18.5781 Q55.9375,18.5781 55.25,19.6563 Q54.5625,20.7188 54.5625,22.8125 Q54.5625,24.9063 55.25,25.9844 Q55.9375,27.0469 57.2813,27.0469 Q57.9063,27.0469 58.5,26.7813 Q59.0938,26.5 59.7188,25.9219 L59.7188,28.6406 Z "/><text fill="#000000" font-family="sans-serif" font-size="12" lengthAdjust="spacingAndGlyphs" textLength="75" x="77.25" y="27.1543">InterneTaak</text><line style="stroke: #A80036; stroke-width: 1.5;" x1="8" x2="189" y1="39" y2="39"/><ellipse cx="18" cy="50" fill="none" rx="3" ry="3" style="stroke: #038048; stroke-width: 1.0;"/><text fill="#000000" font-family="sans-serif" font-size="11" lengthAdjust="spacingAndGlyphs" textLength="80" x="27" y="53.2104">actorId: string</text><ellipse cx="18" cy="62.8047" fill="none" rx="3" ry="3" style="stroke: #038048; stroke-width: 1.0;"/><text fill="#000000" font-family="sans-serif" font-size="11" lengthAdjust="spacingAndGlyphs" textLength="152" x="27" y="66.0151">geregistreerdOp: datetime</text><ellipse cx="18" cy="75.6094" fill="none" rx="3" ry="3" style="stroke: #038048; stroke-width: 1.0;"/><text fill="#000000" font-family="sans-serif" font-size="11" lengthAdjust="spacingAndGlyphs" textLength="157" x="27" y="78.8198">gevraagdeHandeling: string</text><ellipse cx="18" cy="88.4141" fill="none" rx="3" ry="3" style="stroke: #038048; stroke-width: 1.0;"/><text fill="#000000" font-family="sans-serif" font-size="11" lengthAdjust="spacingAndGlyphs" textLength="96" x="27" y="91.6245">nummer: integer</text><ellipse cx="18" cy="101.2188" fill="none" rx="3" ry="3" style="stroke: #038048; stroke-width: 1.0;"/><text fill="#000000" font-family="sans-serif" font-size="11" lengthAdjust="spacingAndGlyphs" textLength="77" x="27" y="104.4292">status: string</text><line style="stroke: #A80036; stroke-width: 1.5;" x1="8" x2="189" y1="111.0234" y2="111.0234"/><!--MD5=[c00b512cc94c135126afb2682d7c0beb]
@startuml
class InterneTaak {
  + actorId: string
  + geregistreerdOp: datetime
  + gevraagdeHandeling: string
  + nummer: integer
  + status: string
}
@enduml

PlantUML version 1.2020.02(Sun Mar 01 10:22:07 UTC 2020)
(GPL source distribution)
Java Runtime: OpenJDK Runtime Environment
JVM: OpenJDK 64-Bit Server VM
Java Version: 11.0.20.1+1
Operating System: Linux
Default Encoding: UTF-8
Language: en
Country: null
--></g></svg>