<?xml version="1.0" encoding="UTF-8" standalone="no"?><svg xmlns="http://www.w3.org/2000/svg" xmlns:xlink="http://www.w3.org/1999/xlink" contentScriptType="application/ecmascript" contentStyleType="text/css" height="104px" preserveAspectRatio="none" style="width:168px;height:104px;" version="1.1" viewBox="0 0 168 104" width="168px" zoomAndPan="magnify"><defs><filter height="300%" id="ft0wuwvhe4sec" width="300%" x="-1" y="-1"><feGaussianBlur result="blurOut" stdDeviation="2.0"/><feColorMatrix in="blurOut" result="blurOut2" type="matrix" values="0 0 0 0 0 0 0 0 0 0 0 0 0 0 0 0 0 0 .4 0"/><feOffset dx="4.0" dy="4.0" in="blurOut2" result="blurOut3"/><feBlend in="SourceGraphic" in2="blurOut3" mode="normal"/></filter></defs><g><!--MD5=[c4b843d63f981010a0d07e532e4ab5b5]
class SoortExternId--><rect fill="#FEFECE" filter="url(#ft0wuwvhe4sec)" height="86.4141" id="SoortExternId" style="stroke: #A80036; stroke-width: 1.5;" width="150" x="7" y="7"/><ellipse cx="36.85" cy="23" fill="#ADD1B2" rx="11" ry="11" style="stroke: #A80036; stroke-width: 1.0;"/><path d="M39.8188,28.6406 Q39.2406,28.9375 38.6,29.0781 Q37.9594,29.2344 37.2563,29.2344 Q34.7563,29.2344 33.4281,27.5938 Q32.1156,25.9375 32.1156,22.8125 Q32.1156,19.6875 33.4281,18.0313 Q34.7563,16.375 37.2563,16.375 Q37.9594,16.375 38.6,16.5313 Q39.2563,16.6875 39.8188,16.9844 L39.8188,19.7031 Q39.1938,19.125 38.6,18.8594 Q38.0063,18.5781 37.3813,18.5781 Q36.0375,18.5781 35.35,19.6563 Q34.6625,20.7188 34.6625,22.8125 Q34.6625,24.9063 35.35,25.9844 Q36.0375,27.0469 37.3813,27.0469 Q38.0063,27.0469 38.6,26.7813 Q39.1938,26.5 39.8188,25.9219 L39.8188,28.6406 Z "/><text fill="#000000" font-family="sans-serif" font-size="12" lengthAdjust="spacingAndGlyphs" textLength="85" x="54.15" y="27.1543">SoortExternId</text><line style="stroke: #A80036; stroke-width: 1.5;" x1="8" x2="156" y1="39" y2="39"/><ellipse cx="18" cy="50" fill="none" rx="3" ry="3" style="stroke: #038048; stroke-width: 1.0;"/><text fill="#000000" font-family="sans-serif" font-size="11" lengthAdjust="spacingAndGlyphs" textLength="68" x="27" y="53.2104">code: string</text><ellipse cx="18" cy="62.8047" fill="none" rx="3" ry="3" style="stroke: #038048; stroke-width: 1.0;"/><text fill="#000000" font-family="sans-serif" font-size="11" lengthAdjust="spacingAndGlyphs" textLength="124" x="27" y="66.0151">externRegister: string</text><ellipse cx="18" cy="75.6094" fill="none" rx="3" ry="3" style="stroke: #038048; stroke-width: 1.0;"/><text fill="#000000" font-family="sans-serif" font-size="11" lengthAdjust="spacingAndGlyphs" textLength="73" x="27" y="78.8198">naam: string</text><line style="stroke: #A80036; stroke-width: 1.5;" x1="8" x2="156" y1="85.4141" y2="85.4141"/><!--MD5=[2b49749facdae135473baf467065edd5]
@startuml
class SoortExternId {
  + code: string
  + externRegister: string
  + naam: string
}
@enduml

PlantUML version 1.2020.02(Sun Mar 01 10:22:07 UTC 2020)
(GPL source distribution)
Java Runtime: OpenJDK Runtime Environment
JVM: OpenJDK 64-Bit Server VM
Java Version: 11.0.20.1+1
Operating System: Linux
Default Encoding: UTF-8
Language: en
Country: null
--></g></svg>