<?xml version="1.0" encoding="UTF-8" standalone="no"?><svg xmlns="http://www.w3.org/2000/svg" xmlns:xlink="http://www.w3.org/1999/xlink" contentScriptType="application/ecmascript" contentStyleType="text/css" height="219px" preserveAspectRatio="none" style="width:234px;height:219px;" version="1.1" viewBox="0 0 234 219" width="234px" zoomAndPan="magnify"><defs><filter height="300%" id="f11sdwmbh15r65" width="300%" x="-1" y="-1"><feGaussianBlur result="blurOut" stdDeviation="2.0"/><feColorMatrix in="blurOut" result="blurOut2" type="matrix" values="0 0 0 0 0 0 0 0 0 0 0 0 0 0 0 0 0 0 .4 0"/><feOffset dx="4.0" dy="4.0" in="blurOut2" result="blurOut3"/><feBlend in="SourceGraphic" in2="blurOut3" mode="normal"/></filter></defs><g><!--MD5=[0ac84a77012d526b097cc82c2e60c9d3]
class Bezoekadres--><rect fill="#FEFECE" filter="url(#f11sdwmbh15r65)" height="201.6563" id="Bezoekadres" style="stroke: #A80036; stroke-width: 1.5;" width="216" x="7" y="7"/><ellipse cx="70.75" cy="23" fill="#ADD1B2" rx="11" ry="11" style="stroke: #A80036; stroke-width: 1.0;"/><path d="M73.7188,28.6406 Q73.1406,28.9375 72.5,29.0781 Q71.8594,29.2344 71.1563,29.2344 Q68.6563,29.2344 67.3281,27.5938 Q66.0156,25.9375 66.0156,22.8125 Q66.0156,19.6875 67.3281,18.0313 Q68.6563,16.375 71.1563,16.375 Q71.8594,16.375 72.5,16.5313 Q73.1563,16.6875 73.7188,16.9844 L73.7188,19.7031 Q73.0938,19.125 72.5,18.8594 Q71.9063,18.5781 71.2813,18.5781 Q69.9375,18.5781 69.25,19.6563 Q68.5625,20.7188 68.5625,22.8125 Q68.5625,24.9063 69.25,25.9844 Q69.9375,27.0469 71.2813,27.0469 Q71.9063,27.0469 72.5,26.7813 Q73.0938,26.5 73.7188,25.9219 L73.7188,28.6406 Z "/><text fill="#000000" font-family="sans-serif" font-size="12" lengthAdjust="spacingAndGlyphs" textLength="80" x="91.25" y="27.1543">Bezoekadres</text><line style="stroke: #A80036; stroke-width: 1.5;" x1="8" x2="222" y1="39" y2="39"/><ellipse cx="18" cy="50" fill="none" rx="3" ry="3" style="stroke: #038048; stroke-width: 1.0;"/><text fill="#000000" font-family="sans-serif" font-size="11" lengthAdjust="spacingAndGlyphs" textLength="190" x="27" y="53.2104">aanduidingBijHuisnummer: string</text><ellipse cx="18" cy="62.8047" fill="none" rx="3" ry="3" style="stroke: #038048; stroke-width: 1.0;"/><text fill="#000000" font-family="sans-serif" font-size="11" lengthAdjust="spacingAndGlyphs" textLength="170" x="27" y="66.0151">adresregelBuitenland1: string</text><ellipse cx="18" cy="75.6094" fill="none" rx="3" ry="3" style="stroke: #038048; stroke-width: 1.0;"/><text fill="#000000" font-family="sans-serif" font-size="11" lengthAdjust="spacingAndGlyphs" textLength="170" x="27" y="78.8198">adresregelBuitenland2: string</text><ellipse cx="18" cy="88.4141" fill="none" rx="3" ry="3" style="stroke: #038048; stroke-width: 1.0;"/><text fill="#000000" font-family="sans-serif" font-size="11" lengthAdjust="spacingAndGlyphs" textLength="170" x="27" y="91.6245">adresregelBuitenland3: string</text><ellipse cx="18" cy="101.2188" fill="none" rx="3" ry="3" style="stroke: #038048; stroke-width: 1.0;"/><text fill="#000000" font-family="sans-serif" font-size="11" lengthAdjust="spacingAndGlyphs" textLength="95" x="27" y="104.4292">huisletter: string</text><ellipse cx="18" cy="114.0234" fill="none" rx="3" ry="3" style="stroke: #038048; stroke-width: 1.0;"/><text fill="#000000" font-family="sans-serif" font-size="11" lengthAdjust="spacingAndGlyphs" textLength="120" x="27" y="117.2339">huisnummer: integer</text><ellipse cx="18" cy="126.8281" fill="none" rx="3" ry="3" style="stroke: #038048; stroke-width: 1.0;"/><text fill="#000000" font-family="sans-serif" font-size="11" lengthAdjust="spacingAndGlyphs" textLength="175" x="27" y="130.0386">huisnummertoevoeging: string</text><ellipse cx="18" cy="139.6328" fill="none" rx="3" ry="3" style="stroke: #038048; stroke-width: 1.0;"/><text fill="#000000" font-family="sans-serif" font-size="11" lengthAdjust="spacingAndGlyphs" textLength="66" x="27" y="142.8433">land: object</text><ellipse cx="18" cy="152.4375" fill="none" rx="3" ry="3" style="stroke: #038048; stroke-width: 1.0;"/><text fill="#000000" font-family="sans-serif" font-size="11" lengthAdjust="spacingAndGlyphs" textLength="93" x="27" y="155.6479">postcode: string</text><ellipse cx="18" cy="165.2422" fill="none" rx="3" ry="3" style="stroke: #038048; stroke-width: 1.0;"/><text fill="#000000" font-family="sans-serif" font-size="11" lengthAdjust="spacingAndGlyphs" textLength="144" x="27" y="168.4526">soortBezoekadres: string</text><ellipse cx="18" cy="178.0469" fill="none" rx="3" ry="3" style="stroke: #038048; stroke-width: 1.0;"/><text fill="#000000" font-family="sans-serif" font-size="11" lengthAdjust="spacingAndGlyphs" textLength="75" x="27" y="181.2573">straat: string</text><ellipse cx="18" cy="190.8516" fill="none" rx="3" ry="3" style="stroke: #038048; stroke-width: 1.0;"/><text fill="#000000" font-family="sans-serif" font-size="11" lengthAdjust="spacingAndGlyphs" textLength="106" x="27" y="194.062">woonplaats: string</text><line style="stroke: #A80036; stroke-width: 1.5;" x1="8" x2="222" y1="200.6563" y2="200.6563"/><!--MD5=[e40c254807650fbc11440335ff0a54bb]
@startuml
class Bezoekadres {
  + aanduidingBijHuisnummer: string
  + adresregelBuitenland1: string
  + adresregelBuitenland2: string
  + adresregelBuitenland3: string
  + huisletter: string
  + huisnummer: integer
  + huisnummertoevoeging: string
  + land: object
  + postcode: string
  + soortBezoekadres: string
  + straat: string
  + woonplaats: string
}
@enduml

PlantUML version 1.2020.02(Sun Mar 01 10:22:07 UTC 2020)
(GPL source distribution)
Java Runtime: OpenJDK Runtime Environment
JVM: OpenJDK 64-Bit Server VM
Java Version: 11.0.20.1+1
Operating System: Linux
Default Encoding: UTF-8
Language: en
Country: null
--></g></svg>