<?xml version="1.0" encoding="UTF-8" standalone="no"?><svg xmlns="http://www.w3.org/2000/svg" xmlns:xlink="http://www.w3.org/1999/xlink" contentScriptType="application/ecmascript" contentStyleType="text/css" height="91px" preserveAspectRatio="none" style="width:160px;height:91px;" version="1.1" viewBox="0 0 160 91" width="160px" zoomAndPan="magnify"><defs><filter height="300%" id="fakau6l9sw029" width="300%" x="-1" y="-1"><feGaussianBlur result="blurOut" stdDeviation="2.0"/><feColorMatrix in="blurOut" result="blurOut2" type="matrix" values="0 0 0 0 0 0 0 0 0 0 0 0 0 0 0 0 0 0 .4 0"/><feOffset dx="4.0" dy="4.0" in="blurOut2" result="blurOut3"/><feBlend in="SourceGraphic" in2="blurOut3" mode="normal"/></filter></defs><g><!--MD5=[44201db48fb57df1a9c7f5b6b15426b0]
class Actor--><rect fill="#FEFECE" filter="url(#fakau6l9sw029)" height="73.6094" id="Actor" style="stroke: #A80036; stroke-width: 1.5;" width="142" x="7" y="7"/><ellipse cx="57.25" cy="23" fill="#ADD1B2" rx="11" ry="11" style="stroke: #A80036; stroke-width: 1.0;"/><path d="M60.2188,28.6406 Q59.6406,28.9375 59,29.0781 Q58.3594,29.2344 57.6563,29.2344 Q55.1563,29.2344 53.8281,27.5938 Q52.5156,25.9375 52.5156,22.8125 Q52.5156,19.6875 53.8281,18.0313 Q55.1563,16.375 57.6563,16.375 Q58.3594,16.375 59,16.5313 Q59.6563,16.6875 60.2188,16.9844 L60.2188,19.7031 Q59.5938,19.125 59,18.8594 Q58.4063,18.5781 57.7813,18.5781 Q56.4375,18.5781 55.75,19.6563 Q55.0625,20.7188 55.0625,22.8125 Q55.0625,24.9063 55.75,25.9844 Q56.4375,27.0469 57.7813,27.0469 Q58.4063,27.0469 59,26.7813 Q59.5938,26.5 60.2188,25.9219 L60.2188,28.6406 Z "/><text fill="#000000" font-family="sans-serif" font-size="12" lengthAdjust="spacingAndGlyphs" textLength="33" x="77.75" y="27.1543">Actor</text><line style="stroke: #A80036; stroke-width: 1.5;" x1="8" x2="148" y1="39" y2="39"/><ellipse cx="18" cy="50" fill="none" rx="3" ry="3" style="stroke: #038048; stroke-width: 1.0;"/><text fill="#000000" font-family="sans-serif" font-size="11" lengthAdjust="spacingAndGlyphs" textLength="116" x="27" y="53.2104">klantcontactId: array</text><ellipse cx="18" cy="62.8047" fill="none" rx="3" ry="3" style="stroke: #038048; stroke-width: 1.0;"/><text fill="#000000" font-family="sans-serif" font-size="11" lengthAdjust="spacingAndGlyphs" textLength="73" x="27" y="66.0151">naam: string</text><line style="stroke: #A80036; stroke-width: 1.5;" x1="8" x2="148" y1="72.6094" y2="72.6094"/><!--MD5=[00a8cf2709d1ea4de2198802eea58ab7]
@startuml
class Actor {
  + klantcontactId: array
  + naam: string
}
@enduml

PlantUML version 1.2020.02(Sun Mar 01 10:22:07 UTC 2020)
(GPL source distribution)
Java Runtime: OpenJDK Runtime Environment
JVM: OpenJDK 64-Bit Server VM
Java Version: 11.0.20.1+1
Operating System: Linux
Default Encoding: UTF-8
Language: en
Country: null
--></g></svg>