<?xml version="1.0" encoding="UTF-8" standalone="no"?><svg xmlns="http://www.w3.org/2000/svg" xmlns:xlink="http://www.w3.org/1999/xlink" contentScriptType="application/ecmascript" contentStyleType="text/css" height="142px" preserveAspectRatio="none" style="width:375px;height:142px;" version="1.1" viewBox="0 0 375 142" width="375px" zoomAndPan="magnify"><defs><filter height="300%" id="fkc34ghvfofsi" width="300%" x="-1" y="-1"><feGaussianBlur result="blurOut" stdDeviation="2.0"/><feColorMatrix in="blurOut" result="blurOut2" type="matrix" values="0 0 0 0 0 0 0 0 0 0 0 0 0 0 0 0 0 0 .4 0"/><feOffset dx="4.0" dy="4.0" in="blurOut2" result="blurOut3"/><feBlend in="SourceGraphic" in2="blurOut3" mode="normal"/></filter></defs><g><text fill="#888888" font-family="sans-serif" font-size="10" lengthAdjust="spacingAndGlyphs" textLength="40" x="323" y="9.2822">Schema</text><text fill="#000000" font-family="sans-serif" font-size="18" lengthAdjust="spacingAndGlyphs" textLength="82" x="140.5" y="28.3486">Voorkeur</text><!--MD5=[4b180284b7b841cbe62fec8867018211]
class Voorkeur--><rect fill="#FEFECE" filter="url(#fkc34ghvfofsi)" height="73.6094" id="Voorkeur" style="stroke: #A80036; stroke-width: 1.5;" width="99" x="132" y="39.5938"/><ellipse cx="151.5" cy="55.5938" fill="#ADD1B2" rx="11" ry="11" style="stroke: #A80036; stroke-width: 1.0;"/><path d="M154.4688,61.2344 Q153.8906,61.5313 153.25,61.6719 Q152.6094,61.8281 151.9063,61.8281 Q149.4063,61.8281 148.0781,60.1875 Q146.7656,58.5313 146.7656,55.4063 Q146.7656,52.2813 148.0781,50.625 Q149.4063,48.9688 151.9063,48.9688 Q152.6094,48.9688 153.25,49.125 Q153.9063,49.2813 154.4688,49.5781 L154.4688,52.2969 Q153.8438,51.7188 153.25,51.4531 Q152.6563,51.1719 152.0313,51.1719 Q150.6875,51.1719 150,52.25 Q149.3125,53.3125 149.3125,55.4063 Q149.3125,57.5 150,58.5781 Q150.6875,59.6406 152.0313,59.6406 Q152.6563,59.6406 153.25,59.375 Q153.8438,59.0938 154.4688,58.5156 L154.4688,61.2344 Z "/><text fill="#000000" font-family="sans-serif" font-size="12" lengthAdjust="spacingAndGlyphs" textLength="57" x="166.5" y="59.748">Voorkeur</text><line style="stroke: #A80036; stroke-width: 1.5;" x1="133" x2="230" y1="71.5938" y2="71.5938"/><ellipse cx="143" cy="82.5938" fill="none" rx="3" ry="3" style="stroke: #038048; stroke-width: 1.0;"/><text fill="#000000" font-family="sans-serif" font-size="11" lengthAdjust="spacingAndGlyphs" textLength="68" x="152" y="85.8042">code: string</text><ellipse cx="143" cy="95.3984" fill="none" rx="3" ry="3" style="stroke: #038048; stroke-width: 1.0;"/><text fill="#000000" font-family="sans-serif" font-size="11" lengthAdjust="spacingAndGlyphs" textLength="73" x="152" y="98.6089">naam: string</text><line style="stroke: #A80036; stroke-width: 1.5;" x1="133" x2="230" y1="105.2031" y2="105.2031"/><text fill="#888888" font-family="sans-serif" font-size="10" lengthAdjust="spacingAndGlyphs" textLength="363" x="0" y="129.4854">Common Gateway Plugin | Commongateway | Customerinteractionbundle</text><!--MD5=[754a09f9ce63b572ff550fafd80180ca]
@startuml
title: Voorkeur
footer: Common Gateway Plugin | Commongateway | Customerinteractionbundle 
header: Schema

class Voorkeur {
  + code: string
  + naam: string
}
@enduml

PlantUML version 1.2020.02(Sun Mar 01 10:22:07 UTC 2020)
(GPL source distribution)
Java Runtime: OpenJDK Runtime Environment
JVM: OpenJDK 64-Bit Server VM
Java Version: 11.0.20.1+1
Operating System: Linux
Default Encoding: UTF-8
Language: en
Country: null
--></g></svg>