<?xml version="1.0" encoding="UTF-8" standalone="no"?><svg xmlns="http://www.w3.org/2000/svg" xmlns:xlink="http://www.w3.org/1999/xlink" contentScriptType="application/ecmascript" contentStyleType="text/css" height="271px" preserveAspectRatio="none" style="width:375px;height:271px;" version="1.1" viewBox="0 0 375 271" width="375px" zoomAndPan="magnify"><defs><filter height="300%" id="fhy7sby14jw48" width="300%" x="-1" y="-1"><feGaussianBlur result="blurOut" stdDeviation="2.0"/><feColorMatrix in="blurOut" result="blurOut2" type="matrix" values="0 0 0 0 0 0 0 0 0 0 0 0 0 0 0 0 0 0 .4 0"/><feOffset dx="4.0" dy="4.0" in="blurOut2" result="blurOut3"/><feBlend in="SourceGraphic" in2="blurOut3" mode="normal"/></filter></defs><g><text fill="#888888" font-family="sans-serif" font-size="10" lengthAdjust="spacingAndGlyphs" textLength="40" x="323" y="9.2822">Schema</text><text fill="#000000" font-family="sans-serif" font-size="18" lengthAdjust="spacingAndGlyphs" textLength="109" x="127" y="28.3486">Klantcontact</text><!--MD5=[a79366a696fcced8109003f7acca0773]
class Klantcontact--><rect fill="#FEFECE" filter="url(#fhy7sby14jw48)" height="201.6563" id="Klantcontact" style="stroke: #A80036; stroke-width: 1.5;" width="198" x="82.5" y="39.5938"/><ellipse cx="137.75" cy="55.5938" fill="#ADD1B2" rx="11" ry="11" style="stroke: #A80036; stroke-width: 1.0;"/><path d="M140.7188,61.2344 Q140.1406,61.5313 139.5,61.6719 Q138.8594,61.8281 138.1563,61.8281 Q135.6563,61.8281 134.3281,60.1875 Q133.0156,58.5313 133.0156,55.4063 Q133.0156,52.2813 134.3281,50.625 Q135.6563,48.9688 138.1563,48.9688 Q138.8594,48.9688 139.5,49.125 Q140.1563,49.2813 140.7188,49.5781 L140.7188,52.2969 Q140.0938,51.7188 139.5,51.4531 Q138.9063,51.1719 138.2813,51.1719 Q136.9375,51.1719 136.25,52.25 Q135.5625,53.3125 135.5625,55.4063 Q135.5625,57.5 136.25,58.5781 Q136.9375,59.6406 138.2813,59.6406 Q138.9063,59.6406 139.5,59.375 Q140.0938,59.0938 140.7188,58.5156 L140.7188,61.2344 Z "/><text fill="#000000" font-family="sans-serif" font-size="12" lengthAdjust="spacingAndGlyphs" textLength="79" x="158.25" y="59.748">Klantcontact</text><line style="stroke: #A80036; stroke-width: 1.5;" x1="83.5" x2="279.5" y1="71.5938" y2="71.5938"/><ellipse cx="93.5" cy="82.5938" fill="none" rx="3" ry="3" style="stroke: #038048; stroke-width: 1.0;"/><text fill="#000000" font-family="sans-serif" font-size="11" lengthAdjust="spacingAndGlyphs" textLength="80" x="102.5" y="85.8042">actorId: string</text><ellipse cx="93.5" cy="95.3984" fill="none" rx="3" ry="3" style="stroke: #038048; stroke-width: 1.0;"/><text fill="#000000" font-family="sans-serif" font-size="11" lengthAdjust="spacingAndGlyphs" textLength="88" x="102.5" y="98.6089">bijlageId: string</text><ellipse cx="93.5" cy="108.2031" fill="none" rx="3" ry="3" style="stroke: #038048; stroke-width: 1.0;"/><text fill="#000000" font-family="sans-serif" font-size="11" lengthAdjust="spacingAndGlyphs" textLength="167" x="102.5" y="111.4136">gaatOverInterneTaakId: array</text><ellipse cx="93.5" cy="121.0078" fill="none" rx="3" ry="3" style="stroke: #038048; stroke-width: 1.0;"/><text fill="#000000" font-family="sans-serif" font-size="11" lengthAdjust="spacingAndGlyphs" textLength="152" x="102.5" y="124.2183">geregistreerdOp: datetime</text><ellipse cx="93.5" cy="133.8125" fill="none" rx="3" ry="3" style="stroke: #038048; stroke-width: 1.0;"/><text fill="#000000" font-family="sans-serif" font-size="11" lengthAdjust="spacingAndGlyphs" textLength="170" x="102.5" y="137.0229">indicatieContactMislukt: string</text><ellipse cx="93.5" cy="146.6172" fill="none" rx="3" ry="3" style="stroke: #038048; stroke-width: 1.0;"/><text fill="#000000" font-family="sans-serif" font-size="11" lengthAdjust="spacingAndGlyphs" textLength="79" x="102.5" y="149.8276">inhoud: string</text><ellipse cx="93.5" cy="159.4219" fill="none" rx="3" ry="3" style="stroke: #038048; stroke-width: 1.0;"/><text fill="#000000" font-family="sans-serif" font-size="11" lengthAdjust="spacingAndGlyphs" textLength="123" x="102.5" y="162.6323">initiatiefnemer: string</text><ellipse cx="93.5" cy="172.2266" fill="none" rx="3" ry="3" style="stroke: #038048; stroke-width: 1.0;"/><text fill="#000000" font-family="sans-serif" font-size="11" lengthAdjust="spacingAndGlyphs" textLength="172" x="102.5" y="175.437">interneTaakOntstaanUit: array</text><ellipse cx="93.5" cy="185.0313" fill="none" rx="3" ry="3" style="stroke: #038048; stroke-width: 1.0;"/><text fill="#000000" font-family="sans-serif" font-size="11" lengthAdjust="spacingAndGlyphs" textLength="79" x="102.5" y="188.2417">kanaal: object</text><ellipse cx="93.5" cy="197.8359" fill="none" rx="3" ry="3" style="stroke: #038048; stroke-width: 1.0;"/><text fill="#000000" font-family="sans-serif" font-size="11" lengthAdjust="spacingAndGlyphs" textLength="96" x="102.5" y="201.0464">nummer: integer</text><ellipse cx="93.5" cy="210.6406" fill="none" rx="3" ry="3" style="stroke: #038048; stroke-width: 1.0;"/><text fill="#000000" font-family="sans-serif" font-size="11" lengthAdjust="spacingAndGlyphs" textLength="102" x="102.5" y="213.8511">onderwerp: string</text><ellipse cx="93.5" cy="223.4453" fill="none" rx="3" ry="3" style="stroke: #038048; stroke-width: 1.0;"/><text fill="#000000" font-family="sans-serif" font-size="11" lengthAdjust="spacingAndGlyphs" textLength="164" x="102.5" y="226.6558">plaatsgevondenOp: datetime</text><line style="stroke: #A80036; stroke-width: 1.5;" x1="83.5" x2="279.5" y1="233.25" y2="233.25"/><text fill="#888888" font-family="sans-serif" font-size="10" lengthAdjust="spacingAndGlyphs" textLength="363" x="0" y="257.5322">Common Gateway Plugin | Commongateway | Customerinteractionbundle</text><!--MD5=[e918ea6338399c57350a1a6ffae0a661]
@startuml
title: Klantcontact
footer: Common Gateway Plugin | Commongateway | Customerinteractionbundle 
header: Schema

class Klantcontact {
  + actorId: string
  + bijlageId: string
  + gaatOverInterneTaakId: array
  + geregistreerdOp: datetime
  + indicatieContactMislukt: string
  + inhoud: string
  + initiatiefnemer: string
  + interneTaakOntstaanUit: array
  + kanaal: object
  + nummer: integer
  + onderwerp: string
  + plaatsgevondenOp: datetime
}
@enduml

PlantUML version 1.2020.02(Sun Mar 01 10:22:07 UTC 2020)
(GPL source distribution)
Java Runtime: OpenJDK Runtime Environment
JVM: OpenJDK 64-Bit Server VM
Java Version: 11.0.20.1+1
Operating System: Linux
Default Encoding: UTF-8
Language: en
Country: null
--></g></svg>