<?xml version="1.0" encoding="UTF-8" standalone="no"?><svg xmlns="http://www.w3.org/2000/svg" xmlns:xlink="http://www.w3.org/1999/xlink" contentScriptType="application/ecmascript" contentStyleType="text/css" height="207px" preserveAspectRatio="none" style="width:375px;height:207px;" version="1.1" viewBox="0 0 375 207" width="375px" zoomAndPan="magnify"><defs><filter height="300%" id="fsdj94sp13qxy" width="300%" x="-1" y="-1"><feGaussianBlur result="blurOut" stdDeviation="2.0"/><feColorMatrix in="blurOut" result="blurOut2" type="matrix" values="0 0 0 0 0 0 0 0 0 0 0 0 0 0 0 0 0 0 .4 0"/><feOffset dx="4.0" dy="4.0" in="blurOut2" result="blurOut3"/><feBlend in="SourceGraphic" in2="blurOut3" mode="normal"/></filter></defs><g><text fill="#888888" font-family="sans-serif" font-size="10" lengthAdjust="spacingAndGlyphs" textLength="40" x="323" y="9.2822">Schema</text><text fill="#000000" font-family="sans-serif" font-size="18" lengthAdjust="spacingAndGlyphs" textLength="113" x="125" y="28.3486">Medewerker</text><!--MD5=[2cd9410b25ecbbe082f88bc14d031c03]
class Medewerker--><rect fill="#FEFECE" filter="url(#fsdj94sp13qxy)" height="137.6328" id="Medewerker" style="stroke: #A80036; stroke-width: 1.5;" width="161" x="101" y="39.5938"/><ellipse cx="139.85" cy="55.5938" fill="#ADD1B2" rx="11" ry="11" style="stroke: #A80036; stroke-width: 1.0;"/><path d="M142.8188,61.2344 Q142.2406,61.5313 141.6,61.6719 Q140.9594,61.8281 140.2563,61.8281 Q137.7563,61.8281 136.4281,60.1875 Q135.1156,58.5313 135.1156,55.4063 Q135.1156,52.2813 136.4281,50.625 Q137.7563,48.9688 140.2563,48.9688 Q140.9594,48.9688 141.6,49.125 Q142.2563,49.2813 142.8188,49.5781 L142.8188,52.2969 Q142.1938,51.7188 141.6,51.4531 Q141.0063,51.1719 140.3813,51.1719 Q139.0375,51.1719 138.35,52.25 Q137.6625,53.3125 137.6625,55.4063 Q137.6625,57.5 138.35,58.5781 Q139.0375,59.6406 140.3813,59.6406 Q141.0063,59.6406 141.6,59.375 Q142.1938,59.0938 142.8188,58.5156 L142.8188,61.2344 Z "/><text fill="#000000" font-family="sans-serif" font-size="12" lengthAdjust="spacingAndGlyphs" textLength="76" x="159.15" y="59.748">Medewerker</text><line style="stroke: #A80036; stroke-width: 1.5;" x1="102" x2="261" y1="71.5938" y2="71.5938"/><ellipse cx="112" cy="82.5938" fill="none" rx="3" ry="3" style="stroke: #038048; stroke-width: 1.0;"/><text fill="#000000" font-family="sans-serif" font-size="11" lengthAdjust="spacingAndGlyphs" textLength="116" x="121" y="85.8042">klantcontactId: array</text><ellipse cx="112" cy="95.3984" fill="none" rx="3" ry="3" style="stroke: #038048; stroke-width: 1.0;"/><text fill="#000000" font-family="sans-serif" font-size="11" lengthAdjust="spacingAndGlyphs" textLength="73" x="121" y="98.6089">naam: string</text><ellipse cx="112" cy="108.2031" fill="none" rx="3" ry="3" style="stroke: #038048; stroke-width: 1.0;"/><text fill="#000000" font-family="sans-serif" font-size="11" lengthAdjust="spacingAndGlyphs" textLength="103" x="121" y="111.4136">eMailadres: string</text><ellipse cx="112" cy="121.0078" fill="none" rx="3" ry="3" style="stroke: #038048; stroke-width: 1.0;"/><text fill="#000000" font-family="sans-serif" font-size="11" lengthAdjust="spacingAndGlyphs" textLength="87" x="121" y="124.2183">externId: string</text><ellipse cx="112" cy="133.8125" fill="none" rx="3" ry="3" style="stroke: #038048; stroke-width: 1.0;"/><text fill="#000000" font-family="sans-serif" font-size="11" lengthAdjust="spacingAndGlyphs" textLength="124" x="121" y="137.0229">externRegister: string</text><ellipse cx="112" cy="146.6172" fill="none" rx="3" ry="3" style="stroke: #038048; stroke-width: 1.0;"/><text fill="#000000" font-family="sans-serif" font-size="11" lengthAdjust="spacingAndGlyphs" textLength="79" x="121" y="149.8276">functie: string</text><ellipse cx="112" cy="159.4219" fill="none" rx="3" ry="3" style="stroke: #038048; stroke-width: 1.0;"/><text fill="#000000" font-family="sans-serif" font-size="11" lengthAdjust="spacingAndGlyphs" textLength="135" x="121" y="162.6323">telefoonnummer: string</text><line style="stroke: #A80036; stroke-width: 1.5;" x1="102" x2="261" y1="169.2266" y2="169.2266"/><text fill="#888888" font-family="sans-serif" font-size="10" lengthAdjust="spacingAndGlyphs" textLength="363" x="0" y="193.5088">Common Gateway Plugin | Commongateway | Customerinteractionbundle</text><!--MD5=[2385594f33b7f5353a15a0782244849e]
@startuml
title: Medewerker
footer: Common Gateway Plugin | Commongateway | Customerinteractionbundle 
header: Schema

class Medewerker {
  + klantcontactId: array
  + naam: string
  + eMailadres: string
  + externId: string
  + externRegister: string
  + functie: string
  + telefoonnummer: string
}
@enduml

PlantUML version 1.2020.02(Sun Mar 01 10:22:07 UTC 2020)
(GPL source distribution)
Java Runtime: OpenJDK Runtime Environment
JVM: OpenJDK 64-Bit Server VM
Java Version: 11.0.20.1+1
Operating System: Linux
Default Encoding: UTF-8
Language: en
Country: null
--></g></svg>