<?xml version="1.0" encoding="UTF-8" standalone="no"?><svg xmlns="http://www.w3.org/2000/svg" xmlns:xlink="http://www.w3.org/1999/xlink" contentScriptType="application/ecmascript" contentStyleType="text/css" height="155px" preserveAspectRatio="none" style="width:179px;height:155px;" version="1.1" viewBox="0 0 179 155" width="179px" zoomAndPan="magnify"><defs><filter height="300%" id="f1480zicdtbgcl" width="300%" x="-1" y="-1"><feGaussianBlur result="blurOut" stdDeviation="2.0"/><feColorMatrix in="blurOut" result="blurOut2" type="matrix" values="0 0 0 0 0 0 0 0 0 0 0 0 0 0 0 0 0 0 .4 0"/><feOffset dx="4.0" dy="4.0" in="blurOut2" result="blurOut3"/><feBlend in="SourceGraphic" in2="blurOut3" mode="normal"/></filter></defs><g><!--MD5=[2cd9410b25ecbbe082f88bc14d031c03]
class Medewerker--><rect fill="#FEFECE" filter="url(#f1480zicdtbgcl)" height="137.6328" id="Medewerker" style="stroke: #A80036; stroke-width: 1.5;" width="161" x="7" y="7"/><ellipse cx="45.85" cy="23" fill="#ADD1B2" rx="11" ry="11" style="stroke: #A80036; stroke-width: 1.0;"/><path d="M48.8188,28.6406 Q48.2406,28.9375 47.6,29.0781 Q46.9594,29.2344 46.2563,29.2344 Q43.7563,29.2344 42.4281,27.5938 Q41.1156,25.9375 41.1156,22.8125 Q41.1156,19.6875 42.4281,18.0313 Q43.7563,16.375 46.2563,16.375 Q46.9594,16.375 47.6,16.5313 Q48.2563,16.6875 48.8188,16.9844 L48.8188,19.7031 Q48.1938,19.125 47.6,18.8594 Q47.0063,18.5781 46.3813,18.5781 Q45.0375,18.5781 44.35,19.6563 Q43.6625,20.7188 43.6625,22.8125 Q43.6625,24.9063 44.35,25.9844 Q45.0375,27.0469 46.3813,27.0469 Q47.0063,27.0469 47.6,26.7813 Q48.1938,26.5 48.8188,25.9219 L48.8188,28.6406 Z "/><text fill="#000000" font-family="sans-serif" font-size="12" lengthAdjust="spacingAndGlyphs" textLength="76" x="65.15" y="27.1543">Medewerker</text><line style="stroke: #A80036; stroke-width: 1.5;" x1="8" x2="167" y1="39" y2="39"/><ellipse cx="18" cy="50" fill="none" rx="3" ry="3" style="stroke: #038048; stroke-width: 1.0;"/><text fill="#000000" font-family="sans-serif" font-size="11" lengthAdjust="spacingAndGlyphs" textLength="116" x="27" y="53.2104">klantcontactId: array</text><ellipse cx="18" cy="62.8047" fill="none" rx="3" ry="3" style="stroke: #038048; stroke-width: 1.0;"/><text fill="#000000" font-family="sans-serif" font-size="11" lengthAdjust="spacingAndGlyphs" textLength="73" x="27" y="66.0151">naam: string</text><ellipse cx="18" cy="75.6094" fill="none" rx="3" ry="3" style="stroke: #038048; stroke-width: 1.0;"/><text fill="#000000" font-family="sans-serif" font-size="11" lengthAdjust="spacingAndGlyphs" textLength="103" x="27" y="78.8198">eMailadres: string</text><ellipse cx="18" cy="88.4141" fill="none" rx="3" ry="3" style="stroke: #038048; stroke-width: 1.0;"/><text fill="#000000" font-family="sans-serif" font-size="11" lengthAdjust="spacingAndGlyphs" textLength="87" x="27" y="91.6245">externId: string</text><ellipse cx="18" cy="101.2188" fill="none" rx="3" ry="3" style="stroke: #038048; stroke-width: 1.0;"/><text fill="#000000" font-family="sans-serif" font-size="11" lengthAdjust="spacingAndGlyphs" textLength="124" x="27" y="104.4292">externRegister: string</text><ellipse cx="18" cy="114.0234" fill="none" rx="3" ry="3" style="stroke: #038048; stroke-width: 1.0;"/><text fill="#000000" font-family="sans-serif" font-size="11" lengthAdjust="spacingAndGlyphs" textLength="79" x="27" y="117.2339">functie: string</text><ellipse cx="18" cy="126.8281" fill="none" rx="3" ry="3" style="stroke: #038048; stroke-width: 1.0;"/><text fill="#000000" font-family="sans-serif" font-size="11" lengthAdjust="spacingAndGlyphs" textLength="135" x="27" y="130.0386">telefoonnummer: string</text><line style="stroke: #A80036; stroke-width: 1.5;" x1="8" x2="167" y1="136.6328" y2="136.6328"/><!--MD5=[af0a1dad24818807e33781b315d2c157]
@startuml
class Medewerker {
  + klantcontactId: array
  + naam: string
  + eMailadres: string
  + externId: string
  + externRegister: string
  + functie: string
  + telefoonnummer: string
}
@enduml

PlantUML version 1.2020.02(Sun Mar 01 10:22:07 UTC 2020)
(GPL source distribution)
Java Runtime: OpenJDK Runtime Environment
JVM: OpenJDK 64-Bit Server VM
Java Version: 11.0.20.1+1
Operating System: Linux
Default Encoding: UTF-8
Language: en
Country: null
--></g></svg>