<?xml version="1.0" encoding="us-ascii" standalone="no"?><svg xmlns="http://www.w3.org/2000/svg" xmlns:xlink="http://www.w3.org/1999/xlink" contentStyleType="text/css" height="180px" preserveAspectRatio="none" style="width:410px;height:180px;background:#FFFFFF;" version="1.1" viewBox="0 0 410 180" width="410px" zoomAndPan="magnify"><defs/><g><text fill="#888888" font-family="sans-serif" font-size="10" lengthAdjust="spacing" textLength="45" x="357" y="9.2822">Schema</text><text fill="#000000" font-family="sans-serif" font-size="14" font-weight="bold" lengthAdjust="spacing" textLength="112" x="145" y="35.6357">SoortExternId</text><!--class SoortExternId--><g id="elem_SoortExternId"><rect codeLine="5" fill="#F1F1F1" height="96.8906" id="SoortExternId" rx="2.5" ry="2.5" style="stroke:#181818;stroke-width:0.5;" width="186" x="108.5" y="56.9375"/><ellipse cx="147.35" cy="72.9375" fill="#ADD1B2" rx="11" ry="11" style="stroke:#181818;stroke-width:1.0;"/><path d="M149.6938,68.6094 C148.7563,68.1719 148.1625,68.0313 147.2875,68.0313 C144.6625,68.0313 142.6625,70.1094 142.6625,72.8281 L142.6625,73.9531 C142.6625,76.5313 144.7719,78.4219 147.6625,78.4219 C148.8813,78.4219 150.0375,78.125 150.7875,77.5781 C151.3656,77.1719 151.6938,76.7188 151.6938,76.3281 C151.6938,75.875 151.3031,75.4844 150.8344,75.4844 C150.6156,75.4844 150.4125,75.5625 150.225,75.75 C149.7719,76.2344 149.7719,76.2344 149.5844,76.3281 C149.1625,76.5938 148.475,76.7188 147.7094,76.7188 C145.6625,76.7188 144.3656,75.625 144.3656,73.9219 L144.3656,72.8281 C144.3656,71.0469 145.6156,69.7344 147.35,69.7344 C147.9281,69.7344 148.5375,69.8906 149.0063,70.1406 C149.4906,70.4219 149.6625,70.6406 149.7563,71.0469 C149.8188,71.4531 149.85,71.5781 149.9906,71.7031 C150.1313,71.8438 150.3656,71.9531 150.5844,71.9531 C150.85,71.9531 151.1156,71.8125 151.2875,71.5938 C151.3969,71.4375 151.4281,71.25 151.4281,70.8281 L151.4281,69.4063 C151.4281,68.9688 151.4125,68.8438 151.3188,68.6875 C151.1625,68.4219 150.8813,68.2813 150.5844,68.2813 C150.2875,68.2813 150.0844,68.375 149.8656,68.6875 L149.6938,68.6094 Z " fill="#000000"/><text fill="#000000" font-family="sans-serif" font-size="14" lengthAdjust="spacing" textLength="101" x="166.65" y="77.7842">SoortExternId</text><line style="stroke:#181818;stroke-width:0.5;" x1="109.5" x2="293.5" y1="88.9375" y2="88.9375"/><ellipse cx="119.5" cy="102.5859" fill="none" rx="3" ry="3" style="stroke:#038048;stroke-width:1.0;"/><text fill="#000000" font-family="sans-serif" font-size="14" lengthAdjust="spacing" textLength="86" x="128.5" y="105.9326">code: string</text><ellipse cx="119.5" cy="118.8828" fill="none" rx="3" ry="3" style="stroke:#038048;stroke-width:1.0;"/><text fill="#000000" font-family="sans-serif" font-size="14" lengthAdjust="spacing" textLength="160" x="128.5" y="122.2295">externRegister: string</text><ellipse cx="119.5" cy="135.1797" fill="none" rx="3" ry="3" style="stroke:#038048;stroke-width:1.0;"/><text fill="#000000" font-family="sans-serif" font-size="14" lengthAdjust="spacing" textLength="90" x="128.5" y="138.5264">naam: string</text><line style="stroke:#181818;stroke-width:0.5;" x1="109.5" x2="293.5" y1="145.8281" y2="145.8281"/></g><text fill="#888888" font-family="sans-serif" font-size="10" lengthAdjust="spacing" textLength="402" x="0" y="170.1104">Common Gateway Plugin | Commongateway | Customerinteractionbundle</text><!--SRC=[LOv12a8n34JtFKNstk1lHSIT-4yGszXVQ1DeKrJKknlBHtGtUKDcHfDccc0MgRgxALK-17SHCJN1LaeHXZqgNV4EnznZOdYkFAxOxjvK2jN4zePUa_2vSyW4RY4CdwZPBrJGEP-njVywU3Y03NW9DgIffSG1QFWdYgcDDJyM8vOlUBq1]--></g></svg>