<?xml version="1.0" encoding="UTF-8" standalone="no"?><svg xmlns="http://www.w3.org/2000/svg" xmlns:xlink="http://www.w3.org/1999/xlink" contentScriptType="application/ecmascript" contentStyleType="text/css" height="194px" preserveAspectRatio="none" style="width:212px;height:194px;" version="1.1" viewBox="0 0 212 194" width="212px" zoomAndPan="magnify"><defs><filter height="300%" id="f28wzvyyzfdp2" width="300%" x="-1" y="-1"><feGaussianBlur result="blurOut" stdDeviation="2.0"/><feColorMatrix in="blurOut" result="blurOut2" type="matrix" values="0 0 0 0 0 0 0 0 0 0 0 0 0 0 0 0 0 0 .4 0"/><feOffset dx="4.0" dy="4.0" in="blurOut2" result="blurOut3"/><feBlend in="SourceGraphic" in2="blurOut3" mode="normal"/></filter></defs><g><!--MD5=[0d7473760788abc3a66a3c31bb5f2a95]
class Partij--><rect fill="#FEFECE" filter="url(#f28wzvyyzfdp2)" height="176.0469" id="Partij" style="stroke: #A80036; stroke-width: 1.5;" width="194" x="7" y="7"/><ellipse cx="83.75" cy="23" fill="#ADD1B2" rx="11" ry="11" style="stroke: #A80036; stroke-width: 1.0;"/><path d="M86.7188,28.6406 Q86.1406,28.9375 85.5,29.0781 Q84.8594,29.2344 84.1563,29.2344 Q81.6563,29.2344 80.3281,27.5938 Q79.0156,25.9375 79.0156,22.8125 Q79.0156,19.6875 80.3281,18.0313 Q81.6563,16.375 84.1563,16.375 Q84.8594,16.375 85.5,16.5313 Q86.1563,16.6875 86.7188,16.9844 L86.7188,19.7031 Q86.0938,19.125 85.5,18.8594 Q84.9063,18.5781 84.2813,18.5781 Q82.9375,18.5781 82.25,19.6563 Q81.5625,20.7188 81.5625,22.8125 Q81.5625,24.9063 82.25,25.9844 Q82.9375,27.0469 84.2813,27.0469 Q84.9063,27.0469 85.5,26.7813 Q86.0938,26.5 86.7188,25.9219 L86.7188,28.6406 Z "/><text fill="#000000" font-family="sans-serif" font-size="12" lengthAdjust="spacingAndGlyphs" textLength="32" x="104.25" y="27.1543">Partij</text><line style="stroke: #A80036; stroke-width: 1.5;" x1="8" x2="200" y1="39" y2="39"/><ellipse cx="18" cy="50" fill="none" rx="3" ry="3" style="stroke: #038048; stroke-width: 1.0;"/><text fill="#000000" font-family="sans-serif" font-size="11" lengthAdjust="spacingAndGlyphs" textLength="114" x="27" y="53.2104">bezoekadres: object</text><ellipse cx="18" cy="62.8047" fill="none" rx="3" ry="3" style="stroke: #038048; stroke-width: 1.0;"/><text fill="#000000" font-family="sans-serif" font-size="11" lengthAdjust="spacingAndGlyphs" textLength="168" x="27" y="66.0151">correspondentieadres: object</text><ellipse cx="18" cy="75.6094" fill="none" rx="3" ry="3" style="stroke: #038048; stroke-width: 1.0;"/><text fill="#000000" font-family="sans-serif" font-size="11" lengthAdjust="spacingAndGlyphs" textLength="146" x="27" y="78.8198">externeIdentificatie: array</text><ellipse cx="18" cy="88.4141" fill="none" rx="3" ry="3" style="stroke: #038048; stroke-width: 1.0;"/><text fill="#000000" font-family="sans-serif" font-size="11" lengthAdjust="spacingAndGlyphs" textLength="117" x="27" y="91.6245">interneNotitie: string</text><ellipse cx="18" cy="101.2188" fill="none" rx="3" ry="3" style="stroke: #038048; stroke-width: 1.0;"/><text fill="#000000" font-family="sans-serif" font-size="11" lengthAdjust="spacingAndGlyphs" textLength="99" x="27" y="104.4292">klanttaakId: array</text><ellipse cx="18" cy="114.0234" fill="none" rx="3" ry="3" style="stroke: #038048; stroke-width: 1.0;"/><text fill="#000000" font-family="sans-serif" font-size="11" lengthAdjust="spacingAndGlyphs" textLength="96" x="27" y="117.2339">nummer: integer</text><ellipse cx="18" cy="126.8281" fill="none" rx="3" ry="3" style="stroke: #038048; stroke-width: 1.0;"/><text fill="#000000" font-family="sans-serif" font-size="11" lengthAdjust="spacingAndGlyphs" textLength="137" x="27" y="130.0386">organisatienaam: string</text><ellipse cx="18" cy="139.6328" fill="none" rx="3" ry="3" style="stroke: #038048; stroke-width: 1.0;"/><text fill="#000000" font-family="sans-serif" font-size="11" lengthAdjust="spacingAndGlyphs" textLength="128" x="27" y="142.8433">persoonsnaam: object</text><ellipse cx="18" cy="152.4375" fill="none" rx="3" ry="3" style="stroke: #038048; stroke-width: 1.0;"/><text fill="#000000" font-family="sans-serif" font-size="11" lengthAdjust="spacingAndGlyphs" textLength="136" x="27" y="155.6479">voorkeurskanaal: object</text><ellipse cx="18" cy="165.2422" fill="none" rx="3" ry="3" style="stroke: #038048; stroke-width: 1.0;"/><text fill="#000000" font-family="sans-serif" font-size="11" lengthAdjust="spacingAndGlyphs" textLength="120" x="27" y="168.4526">voorkeurstaal: object</text><line style="stroke: #A80036; stroke-width: 1.5;" x1="8" x2="200" y1="175.0469" y2="175.0469"/><!--MD5=[fd16f3f7ee49102803013d67d170b639]
@startuml
class Partij {
  + bezoekadres: object
  + correspondentieadres: object
  + externeIdentificatie: array
  + interneNotitie: string
  + klanttaakId: array
  + nummer: integer
  + organisatienaam: string
  + persoonsnaam: object
  + voorkeurskanaal: object
  + voorkeurstaal: object
}
@enduml

PlantUML version 1.2020.02(Sun Mar 01 10:22:07 UTC 2020)
(GPL source distribution)
Java Runtime: OpenJDK Runtime Environment
JVM: OpenJDK 64-Bit Server VM
Java Version: 11.0.20.1+1
Operating System: Linux
Default Encoding: UTF-8
Language: en
Country: null
--></g></svg>