<?xml version="1.0" encoding="UTF-8" standalone="no"?><svg xmlns="http://www.w3.org/2000/svg" xmlns:xlink="http://www.w3.org/1999/xlink" contentScriptType="application/ecmascript" contentStyleType="text/css" height="117px" preserveAspectRatio="none" style="width:185px;height:117px;" version="1.1" viewBox="0 0 185 117" width="185px" zoomAndPan="magnify"><defs><filter height="300%" id="f1sqdoap9sb2dg" width="300%" x="-1" y="-1"><feGaussianBlur result="blurOut" stdDeviation="2.0"/><feColorMatrix in="blurOut" result="blurOut2" type="matrix" values="0 0 0 0 0 0 0 0 0 0 0 0 0 0 0 0 0 0 .4 0"/><feOffset dx="4.0" dy="4.0" in="blurOut2" result="blurOut3"/><feBlend in="SourceGraphic" in2="blurOut3" mode="normal"/></filter></defs><g><!--MD5=[3b2ebc2a82a6ca42650088e4a2410713]
class Land--><rect fill="#FEFECE" filter="url(#f1sqdoap9sb2dg)" height="99.2188" id="Land" style="stroke: #A80036; stroke-width: 1.5;" width="167" x="7" y="7"/><ellipse cx="71.25" cy="23" fill="#ADD1B2" rx="11" ry="11" style="stroke: #A80036; stroke-width: 1.0;"/><path d="M74.2188,28.6406 Q73.6406,28.9375 73,29.0781 Q72.3594,29.2344 71.6563,29.2344 Q69.1563,29.2344 67.8281,27.5938 Q66.5156,25.9375 66.5156,22.8125 Q66.5156,19.6875 67.8281,18.0313 Q69.1563,16.375 71.6563,16.375 Q72.3594,16.375 73,16.5313 Q73.6563,16.6875 74.2188,16.9844 L74.2188,19.7031 Q73.5938,19.125 73,18.8594 Q72.4063,18.5781 71.7813,18.5781 Q70.4375,18.5781 69.75,19.6563 Q69.0625,20.7188 69.0625,22.8125 Q69.0625,24.9063 69.75,25.9844 Q70.4375,27.0469 71.7813,27.0469 Q72.4063,27.0469 73,26.7813 Q73.5938,26.5 74.2188,25.9219 L74.2188,28.6406 Z "/><text fill="#000000" font-family="sans-serif" font-size="12" lengthAdjust="spacingAndGlyphs" textLength="30" x="91.75" y="27.1543">Land</text><line style="stroke: #A80036; stroke-width: 1.5;" x1="8" x2="173" y1="39" y2="39"/><ellipse cx="18" cy="50" fill="none" rx="3" ry="3" style="stroke: #038048; stroke-width: 1.0;"/><text fill="#000000" font-family="sans-serif" font-size="11" lengthAdjust="spacingAndGlyphs" textLength="120" x="27" y="53.2104">einddatumLand: date</text><ellipse cx="18" cy="62.8047" fill="none" rx="3" ry="3" style="stroke: #038048; stroke-width: 1.0;"/><text fill="#000000" font-family="sans-serif" font-size="11" lengthAdjust="spacingAndGlyphs" textLength="141" x="27" y="66.0151">ingangsdatumLand: date</text><ellipse cx="18" cy="75.6094" fill="none" rx="3" ry="3" style="stroke: #038048; stroke-width: 1.0;"/><text fill="#000000" font-family="sans-serif" font-size="11" lengthAdjust="spacingAndGlyphs" textLength="92" x="27" y="78.8198">landcode: string</text><ellipse cx="18" cy="88.4141" fill="none" rx="3" ry="3" style="stroke: #038048; stroke-width: 1.0;"/><text fill="#000000" font-family="sans-serif" font-size="11" lengthAdjust="spacingAndGlyphs" textLength="97" x="27" y="91.6245">landnaam: string</text><line style="stroke: #A80036; stroke-width: 1.5;" x1="8" x2="173" y1="98.2188" y2="98.2188"/><!--MD5=[9d7a80cb71f81ccbc6678b9adcf3a644]
@startuml
class Land {
  + einddatumLand: date
  + ingangsdatumLand: date
  + landcode: string
  + landnaam: string
}
@enduml

PlantUML version 1.2020.02(Sun Mar 01 10:22:07 UTC 2020)
(GPL source distribution)
Java Runtime: OpenJDK Runtime Environment
JVM: OpenJDK 64-Bit Server VM
Java Version: 11.0.20.1+1
Operating System: Linux
Default Encoding: UTF-8
Language: en
Country: null
--></g></svg>