<?xml version="1.0" encoding="UTF-8" standalone="no"?><svg xmlns="http://www.w3.org/2000/svg" xmlns:xlink="http://www.w3.org/1999/xlink" contentScriptType="application/ecmascript" contentStyleType="text/css" height="232px" preserveAspectRatio="none" style="width:375px;height:232px;" version="1.1" viewBox="0 0 375 232" width="375px" zoomAndPan="magnify"><defs><filter height="300%" id="f1ge688rtqx9od" width="300%" x="-1" y="-1"><feGaussianBlur result="blurOut" stdDeviation="2.0"/><feColorMatrix in="blurOut" result="blurOut2" type="matrix" values="0 0 0 0 0 0 0 0 0 0 0 0 0 0 0 0 0 0 .4 0"/><feOffset dx="4.0" dy="4.0" in="blurOut2" result="blurOut3"/><feBlend in="SourceGraphic" in2="blurOut3" mode="normal"/></filter></defs><g><text fill="#888888" font-family="sans-serif" font-size="10" lengthAdjust="spacingAndGlyphs" textLength="40" x="323" y="9.2822">Schema</text><text fill="#000000" font-family="sans-serif" font-size="18" lengthAdjust="spacingAndGlyphs" textLength="233" x="65" y="28.3486">BetrokkeneBijKlantcontact</text><!--MD5=[5770d716e94e3d9aa408167f9436902a]
class BetrokkeneBijKlantcontact--><rect fill="#FEFECE" filter="url(#f1ge688rtqx9od)" height="163.2422" id="BetrokkeneBijKlantcontact" style="stroke: #A80036; stroke-width: 1.5;" width="197" x="83" y="39.5938"/><ellipse cx="98" cy="55.5938" fill="#ADD1B2" rx="11" ry="11" style="stroke: #A80036; stroke-width: 1.0;"/><path d="M100.9688,61.2344 Q100.3906,61.5313 99.75,61.6719 Q99.1094,61.8281 98.4063,61.8281 Q95.9063,61.8281 94.5781,60.1875 Q93.2656,58.5313 93.2656,55.4063 Q93.2656,52.2813 94.5781,50.625 Q95.9063,48.9688 98.4063,48.9688 Q99.1094,48.9688 99.75,49.125 Q100.4063,49.2813 100.9688,49.5781 L100.9688,52.2969 Q100.3438,51.7188 99.75,51.4531 Q99.1563,51.1719 98.5313,51.1719 Q97.1875,51.1719 96.5,52.25 Q95.8125,53.3125 95.8125,55.4063 Q95.8125,57.5 96.5,58.5781 Q97.1875,59.6406 98.5313,59.6406 Q99.1563,59.6406 99.75,59.375 Q100.3438,59.0938 100.9688,58.5156 L100.9688,61.2344 Z "/><text fill="#000000" font-family="sans-serif" font-size="12" lengthAdjust="spacingAndGlyphs" textLength="165" x="112" y="59.748">BetrokkeneBijKlantcontact</text><line style="stroke: #A80036; stroke-width: 1.5;" x1="84" x2="279" y1="71.5938" y2="71.5938"/><ellipse cx="94" cy="82.5938" fill="none" rx="3" ry="3" style="stroke: #038048; stroke-width: 1.0;"/><text fill="#000000" font-family="sans-serif" font-size="11" lengthAdjust="spacingAndGlyphs" textLength="114" x="103" y="85.8042">bezoekadres: object</text><ellipse cx="94" cy="95.3984" fill="none" rx="3" ry="3" style="stroke: #038048; stroke-width: 1.0;"/><text fill="#000000" font-family="sans-serif" font-size="11" lengthAdjust="spacingAndGlyphs" textLength="168" x="103" y="98.6089">correspondentieadres: object</text><ellipse cx="94" cy="108.2031" fill="none" rx="3" ry="3" style="stroke: #038048; stroke-width: 1.0;"/><text fill="#000000" font-family="sans-serif" font-size="11" lengthAdjust="spacingAndGlyphs" textLength="119" x="103" y="111.4136">klantcontactId: string</text><ellipse cx="94" cy="121.0078" fill="none" rx="3" ry="3" style="stroke: #038048; stroke-width: 1.0;"/><text fill="#000000" font-family="sans-serif" font-size="11" lengthAdjust="spacingAndGlyphs" textLength="137" x="103" y="124.2183">organisatienaam: string</text><ellipse cx="94" cy="133.8125" fill="none" rx="3" ry="3" style="stroke: #038048; stroke-width: 1.0;"/><text fill="#000000" font-family="sans-serif" font-size="11" lengthAdjust="spacingAndGlyphs" textLength="80" x="103" y="137.0229">partijId: string</text><ellipse cx="94" cy="146.6172" fill="none" rx="3" ry="3" style="stroke: #038048; stroke-width: 1.0;"/><text fill="#000000" font-family="sans-serif" font-size="11" lengthAdjust="spacingAndGlyphs" textLength="128" x="103" y="149.8276">persoonsnaam: object</text><ellipse cx="94" cy="159.4219" fill="none" rx="3" ry="3" style="stroke: #038048; stroke-width: 1.0;"/><text fill="#000000" font-family="sans-serif" font-size="11" lengthAdjust="spacingAndGlyphs" textLength="56" x="103" y="162.6323">rol: string</text><ellipse cx="94" cy="172.2266" fill="none" rx="3" ry="3" style="stroke: #038048; stroke-width: 1.0;"/><text fill="#000000" font-family="sans-serif" font-size="11" lengthAdjust="spacingAndGlyphs" textLength="136" x="103" y="175.437">voorkeurskanaal: object</text><ellipse cx="94" cy="185.0313" fill="none" rx="3" ry="3" style="stroke: #038048; stroke-width: 1.0;"/><text fill="#000000" font-family="sans-serif" font-size="11" lengthAdjust="spacingAndGlyphs" textLength="120" x="103" y="188.2417">voorkeurstaal: object</text><line style="stroke: #A80036; stroke-width: 1.5;" x1="84" x2="279" y1="194.8359" y2="194.8359"/><text fill="#888888" font-family="sans-serif" font-size="10" lengthAdjust="spacingAndGlyphs" textLength="363" x="0" y="219.1182">Common Gateway Plugin | Commongateway | Customerinteractionbundle</text><!--MD5=[95218414238f357981c8fbd65d981520]
@startuml
title: BetrokkeneBijKlantcontact
footer: Common Gateway Plugin | Commongateway | Customerinteractionbundle 
header: Schema

class BetrokkeneBijKlantcontact {
  + bezoekadres: object
  + correspondentieadres: object
  + klantcontactId: string
  + organisatienaam: string
  + partijId: string
  + persoonsnaam: object
  + rol: string
  + voorkeurskanaal: object
  + voorkeurstaal: object
}
@enduml

PlantUML version 1.2020.02(Sun Mar 01 10:22:07 UTC 2020)
(GPL source distribution)
Java Runtime: OpenJDK Runtime Environment
JVM: OpenJDK 64-Bit Server VM
Java Version: 11.0.20.1+1
Operating System: Linux
Default Encoding: UTF-8
Language: en
Country: null
--></g></svg>