<?xml version="1.0" encoding="UTF-8" standalone="no"?><svg xmlns="http://www.w3.org/2000/svg" xmlns:xlink="http://www.w3.org/1999/xlink" contentScriptType="application/ecmascript" contentStyleType="text/css" height="155px" preserveAspectRatio="none" style="width:375px;height:155px;" version="1.1" viewBox="0 0 375 155" width="375px" zoomAndPan="magnify"><defs><filter height="300%" id="f1v25xl6wmtmk4" width="300%" x="-1" y="-1"><feGaussianBlur result="blurOut" stdDeviation="2.0"/><feColorMatrix in="blurOut" result="blurOut2" type="matrix" values="0 0 0 0 0 0 0 0 0 0 0 0 0 0 0 0 0 0 .4 0"/><feOffset dx="4.0" dy="4.0" in="blurOut2" result="blurOut3"/><feBlend in="SourceGraphic" in2="blurOut3" mode="normal"/></filter></defs><g><text fill="#888888" font-family="sans-serif" font-size="10" lengthAdjust="spacingAndGlyphs" textLength="40" x="323" y="9.2822">Schema</text><text fill="#000000" font-family="sans-serif" font-size="18" lengthAdjust="spacingAndGlyphs" textLength="174" x="94.5" y="28.3486">ExterneIdentificatie</text><!--MD5=[8b4fc1a08565664f2cf613ae20348a52]
class ExterneIdentificatie--><rect fill="#FEFECE" filter="url(#f1v25xl6wmtmk4)" height="86.4141" id="ExterneIdentificatie" style="stroke: #A80036; stroke-width: 1.5;" width="177" x="93" y="39.5938"/><ellipse cx="118.8" cy="55.5938" fill="#ADD1B2" rx="11" ry="11" style="stroke: #A80036; stroke-width: 1.0;"/><path d="M121.7688,61.2344 Q121.1906,61.5313 120.55,61.6719 Q119.9094,61.8281 119.2063,61.8281 Q116.7063,61.8281 115.3781,60.1875 Q114.0656,58.5313 114.0656,55.4063 Q114.0656,52.2813 115.3781,50.625 Q116.7063,48.9688 119.2063,48.9688 Q119.9094,48.9688 120.55,49.125 Q121.2063,49.2813 121.7688,49.5781 L121.7688,52.2969 Q121.1438,51.7188 120.55,51.4531 Q119.9563,51.1719 119.3313,51.1719 Q117.9875,51.1719 117.3,52.25 Q116.6125,53.3125 116.6125,55.4063 Q116.6125,57.5 117.3,58.5781 Q117.9875,59.6406 119.3313,59.6406 Q119.9563,59.6406 120.55,59.375 Q121.1438,59.0938 121.7688,58.5156 L121.7688,61.2344 Z "/><text fill="#000000" font-family="sans-serif" font-size="12" lengthAdjust="spacingAndGlyphs" textLength="121" x="135.2" y="59.748">ExterneIdentificatie</text><line style="stroke: #A80036; stroke-width: 1.5;" x1="94" x2="269" y1="71.5938" y2="71.5938"/><ellipse cx="104" cy="82.5938" fill="none" rx="3" ry="3" style="stroke: #038048; stroke-width: 1.0;"/><text fill="#000000" font-family="sans-serif" font-size="11" lengthAdjust="spacingAndGlyphs" textLength="151" x="113" y="85.8042">anderSoortExternId: string</text><ellipse cx="104" cy="95.3984" fill="none" rx="3" ry="3" style="stroke: #038048; stroke-width: 1.0;"/><text fill="#000000" font-family="sans-serif" font-size="11" lengthAdjust="spacingAndGlyphs" textLength="87" x="113" y="98.6089">externId: string</text><ellipse cx="104" cy="108.2031" fill="none" rx="3" ry="3" style="stroke: #038048; stroke-width: 1.0;"/><text fill="#000000" font-family="sans-serif" font-size="11" lengthAdjust="spacingAndGlyphs" textLength="118" x="113" y="111.4136">soortExternId: object</text><line style="stroke: #A80036; stroke-width: 1.5;" x1="94" x2="269" y1="118.0078" y2="118.0078"/><text fill="#888888" font-family="sans-serif" font-size="10" lengthAdjust="spacingAndGlyphs" textLength="363" x="0" y="142.29">Common Gateway Plugin | Commongateway | Customerinteractionbundle</text><!--MD5=[ec8ba20528b1dd5438fe5b6cf79ab374]
@startuml
title: ExterneIdentificatie
footer: Common Gateway Plugin | Commongateway | Customerinteractionbundle 
header: Schema

class ExterneIdentificatie {
  + anderSoortExternId: string
  + externId: string
  + soortExternId: object
}
@enduml

PlantUML version 1.2020.02(Sun Mar 01 10:22:07 UTC 2020)
(GPL source distribution)
Java Runtime: OpenJDK Runtime Environment
JVM: OpenJDK 64-Bit Server VM
Java Version: 11.0.20.1+1
Operating System: Linux
Default Encoding: UTF-8
Language: en
Country: null
--></g></svg>