<?xml version="1.0" encoding="UTF-8"?>
<svg id="_Ñëîé_1" data-name="Ñëîé 1" xmlns="http://www.w3.org/2000/svg" xmlns:xlink="http://www.w3.org/1999/xlink" viewBox="0 0 2800 2000">
  <defs>
    <style>
      .cls-1 {
        fill: #060633;
      }

      .cls-1, .cls-2, .cls-3, .cls-4, .cls-5, .cls-6, .cls-7, .cls-8, .cls-9, .cls-10, .cls-11, .cls-12, .cls-13, .cls-14, .cls-15, .cls-16, .cls-17, .cls-18, .cls-19, .cls-20, .cls-21, .cls-22, .cls-23, .cls-24, .cls-25, .cls-26, .cls-27, .cls-28, .cls-29, .cls-30, .cls-31, .cls-32, .cls-33 {
        stroke-width: 0px;
      }

      .cls-2 {
        fill: #ea6868;
      }

      .cls-3 {
        fill: #fa7267;
      }

      .cls-4 {
        fill: #0b0755;
      }

      .cls-5 {
        fill: #0c0c4c;
      }

      .cls-6 {
        fill: #fafafc;
      }

      .cls-7 {
        fill: #dde7fe;
      }

      .cls-8 {
        fill: #14148c;
      }

      .cls-9 {
        fill: #272035;
      }

      .cls-10 {
        fill: #f78181;
      }

      .cls-11 {
        fill: #bdd1f9;
      }

      .cls-12 {
        fill: #9abdf4;
      }

      .cls-13 {
        fill: #fb9391;
      }

      .cls-14 {
        fill: #0e0e68;
      }

      .cls-15 {
        fill: #f87267;
      }

      .cls-16 {
        fill: none;
      }

      .cls-17 {
        fill: #ff7367;
      }

      .cls-34 {
        clip-path: url(#clippath-1);
      }

      .cls-18 {
        fill: #f4f6fb;
      }

      .cls-19 {
        fill: #ff9391;
      }

      .cls-20 {
        fill: #fff;
      }

      .cls-21 {
        fill: #91b5f8;
      }

      .cls-35 {
        clip-path: url(#clippath);
      }

      .cls-22 {
        fill: #37978b;
      }

      .cls-23 {
        fill: #040156;
      }

      .cls-24 {
        fill: #f3f7ff;
      }

      .cls-25 {
        fill: #1abc9c;
      }

      .cls-26 {
        fill: #050521;
      }

      .cls-27 {
        fill: #4851ec;
      }

      .cls-28 {
        fill: #acc7f9;
      }

      .cls-29 {
        fill: #474fea;
      }

      .cls-30 {
        fill: #7c9af2;
      }

      .cls-31 {
        fill: #6c9ae5;
      }

      .cls-32 {
        fill: #240d39;
      }

      .cls-33 {
        fill: #010131;
      }
    </style>
    <clipPath id="clippath">
      <rect class="cls-16" x="1480.97" y="825.06" width="283.41" height="292.49"/>
    </clipPath>
    <clipPath id="clippath-1">
      <rect class="cls-16" x="1125.15" y="972.01" width="184.94" height="145.54"/>
    </clipPath>
  </defs>
  <rect class="cls-20" width="2800" height="2000"/>
  <g>
    <path class="cls-7" d="m2432.11,1573.68c-7.78,17.73-16.08,35.25-24.9,52.53-6.79,13.31-14.18,26.52-22.26,39.32-15.44,24.6-33.99,48.6-55.54,68.42-23.67,21.85-50.92,38.58-81.52,47.28-33.62,9.59-74.44,17.62-119.84,24.34,0,0,0,.01,0,.01-49.49,7.31-104.41,13.07-161.41,17.59-271.22,21.5-589.18,14.95-589.18,14.95-103.8,4.92-308.65-1.77-468.04-18.21-.23,0-30.42-3.11-58.99-6.84-31.65-4.15-67.81-9.64-98.87-16.95-26.8-6.38-51.39-13.76-73.13-21.61-33.38-11.95-65.86-26.64-96.55-44.07-28.06-15.92-54.6-34.14-78.97-54.68-39.58-33.35-73.41-72.84-98.54-118.54-29.87-54.32-46.38-115.09-56.38-176.27-71.02-434.22,203.36-992.43,612.58-1172.6,180.86-79.62,387.76-84.45,581.89-47.58,138.55,26.32,272.15,72.92,402.64,125.6,109.15,44.05,237.68,85.48,326.38,165.69,34.09,30.83,61.43,68.37,86.03,107.19,188.99,298.26,216.43,691.64,74.6,1014.43Z"/>
    <path class="cls-11" d="m848.42,1738.88c-27.37,36.99-63.14,51.84-101.29,56.18-.13-.03-.26-.06-.39-.09-.4-.09-.79-.19-1.2-.3-16.92-4.14-33.75-8.95-50.41-14.41-3.03-1-6.05-2.02-9.07-3.06-2.55-.87-5.1-1.77-7.63-2.68-33.38-11.95-65.86-26.64-96.55-44.07-28.06-15.92-54.6-34.14-78.97-54.68-8.31-66.22,24.02-100.78,44.62-155.8,21.05-56.27-4.87-122.52-5.49-185.37-.7-70.26,41.92-108.83,49.74-173.4,5.66-46.69-14.08-94.78,5.57-138.89,10.39-23.35,29.66-37.77,49.51-44.04,19.67-6.2,43.61-8.35,66.2-3.9,38.03,7.49,72.28,33.65,76.18,90.56,3.69,53.88-27.2,107.22-11.92,160.58,15.68,54.77,60.44,73.52,44.1,141.27-5.82,24.13-15.19,47.66-14.72,72.99,1,53.09,39.92,85.51,58.94,127.16,24.55,53.74,15.46,127.79-17.22,171.95Z"/>
    <g>
      <path class="cls-30" d="m700.62,1763.27c.13-.02.25-.06.37-.11.99-.39,1.48-1.51,1.08-2.5-102.65-258.83-191.41-440.17-249.92-510.61-1.3-1.56-2.24-2.69-2.61-3.27-.58-.9-1.77-1.16-2.67-.59-.9.57-1.16,1.77-.59,2.67.5.78,1.4,1.87,2.89,3.66,58.25,70.14,146.79,251.11,249.3,509.57.34.87,1.25,1.35,2.13,1.19Z"/>
      <path class="cls-30" d="m414.66,1239.5c6.89,7.88,39.27,20.65,41.52,18.68,2.25-1.97-6.1-35.75-12.99-43.63-6.89-7.88-18.86-8.68-26.74-1.79-7.88,6.89-8.68,18.86-1.79,26.74Z"/>
      <path class="cls-30" d="m476.81,1259.92c-2.19,10.48,7.31,44.79,10.3,45.42,2.99.63,25.46-27,27.65-37.48,2.19-10.48-4.53-20.75-15.01-22.95-10.48-2.19-20.75,4.53-22.95,15.01Z"/>
      <path class="cls-30" d="m445.02,1324.08c10.71-.22,42-17.21,41.93-20.27-.06-3.06-32.04-18.72-42.74-18.5-10.71.22-19.2,9.08-18.98,19.79.22,10.71,9.08,19.2,19.79,18.98Z"/>
      <path class="cls-30" d="m583.13,1428.19c-5.56,17.09,4.1,76.07,8.98,77.66,4.88,1.59,47.37-40.45,52.92-57.54,5.56-17.09-3.8-35.45-20.89-41.01-17.09-5.56-35.45,3.8-41.01,20.89Z"/>
      <path class="cls-30" d="m518.47,1529.5c17.9,1.56,73.2-21.12,73.64-26.23.45-5.11-50.07-37.04-67.98-38.6-17.9-1.56-33.69,11.68-35.25,29.59-1.56,17.9,11.68,33.69,29.59,35.25Z"/>
      <path class="cls-30" d="m635.38,1490.63c-11.24,18.91-15.6,91.91-10.2,95.12,5.4,3.21,67.43-35.53,78.67-54.43,11.24-18.91,5.02-43.34-13.89-54.58-18.91-11.24-43.34-5.02-54.58,13.89Z"/>
      <path class="cls-30" d="m541.92,1623.99c21.99-.35,86.44-34.93,86.34-41.2-.1-6.28-65.62-38.78-87.61-38.43-21.99.35-39.53,18.46-39.18,40.45.35,21.99,18.46,39.53,40.45,39.18Z"/>
      <path class="cls-30" d="m671.62,1574.8c-11.23,18.91-15.6,91.91-10.2,95.12,5.4,3.21,67.43-35.52,78.67-54.43,11.24-18.91,5.02-43.34-13.89-54.58-18.91-11.24-43.34-5.02-54.58,13.89Z"/>
      <path class="cls-30" d="m578.16,1708.15c21.99-.35,86.44-34.93,86.34-41.2-.1-6.28-65.62-38.78-87.61-38.43-21.99.35-39.53,18.46-39.18,40.45.35,21.99,18.46,39.53,40.45,39.18Z"/>
      <path class="cls-30" d="m744.12,1678.25c-17.59,13.2-49.43,79.04-45.66,84.06,3.77,5.02,75.88-7.16,93.47-20.36,17.59-13.2,21.15-38.16,7.95-55.75-13.2-17.59-38.16-21.15-55.76-7.95Z"/>
      <path class="cls-30" d="m701.8,1761.58c-.05.44-.44,1-1.14,1.63-.02.02-.05.04-.08.07-3.04,2.69-11.47,6.89-22.15,11.24-33.38-11.95-65.86-26.64-96.55-44.07,7.94-12.23,22.33-19.65,37.81-17.95,17.36,1.91,59.36,27.8,75.58,41.51,1.37,1.15,2.54,2.21,3.51,3.17,2.02,2.01,3.12,3.55,3.03,4.41Z"/>
      <path class="cls-30" d="m509.65,1312.33c-2.23,10.65,7.43,45.51,10.47,46.15,3.04.64,25.86-27.43,28.09-38.08,2.23-10.65-4.6-21.09-15.25-23.31-10.65-2.23-21.09,4.6-23.31,15.25Z"/>
      <path class="cls-30" d="m478.8,1378.06c10.88-.23,42.67-17.49,42.6-20.59-.06-3.1-32.55-19.02-43.43-18.8-10.88.23-19.51,9.23-19.28,20.11.23,10.88,9.23,19.51,20.1,19.28Z"/>
      <path class="cls-30" d="m546.13,1360.5c-4.4,14.82,5.22,65.31,9.44,66.56,4.23,1.25,39.82-35.82,44.21-50.64,4.4-14.82-4.05-30.39-18.87-34.79-14.82-4.4-30.39,4.05-34.79,18.87Z"/>
      <path class="cls-30" d="m495.35,1454.53c15.45-.32,60.62-24.84,60.53-29.25-.09-4.41-46.24-27.03-61.7-26.7-15.45.32-27.72,13.11-27.39,28.56.32,15.45,13.11,27.72,28.56,27.39Z"/>
    </g>
    <g>
      <path class="cls-11" d="m2331.85,1695.78c.14.01.29,0,.44-.01,1.19-.15,2.04-1.24,1.89-2.43-38.86-311.33-84.46-534.2-128.38-627.57-.98-2.07-1.68-3.57-1.92-4.31-.37-1.14-1.6-1.76-2.74-1.39-1.14.37-1.77,1.6-1.39,2.74.33,1,1,2.43,2.12,4.81,43.73,92.96,89.19,315.37,128,626.25.13,1.04.98,1.82,1.99,1.9Z"/>
      <path class="cls-11" d="m2167.88,1043.68c5.29,10.54,37,33.61,40.01,32.1,3.01-1.51,3.45-40.72-1.84-51.26-5.29-10.54-18.12-14.79-28.66-9.5-10.54,5.29-14.8,18.12-9.5,28.66Z"/>
      <path class="cls-11" d="m2229.91,1083.51c-5.35,10.81-4.68,50.93-1.59,52.45,3.09,1.53,35.39-22.26,40.75-33.07s.93-23.92-9.89-29.27c-10.81-5.35-23.92-.93-29.27,9.89Z"/>
      <path class="cls-11" d="m2177.1,1144.51c11.74,2.78,50.67-6.91,51.46-10.26.79-3.35-29.66-29.47-41.4-32.25-11.74-2.78-23.51,4.48-26.29,16.22-2.78,11.74,4.48,23.51,16.22,26.29Z"/>
      <path class="cls-11" d="m2298.35,1297.09c-10.89,17.08-17.02,84.14-12.14,87.25,4.87,3.11,63.09-30.74,73.98-47.82,10.89-17.08,5.87-39.74-11.2-50.63-17.08-10.89-39.74-5.87-50.63,11.2Z"/>
      <path class="cls-11" d="m2199.2,1389.33c19.09,6.76,85.81-2.37,87.74-7.81,1.93-5.45-44.16-54.55-63.25-61.31-19.09-6.76-40.04,3.23-46.81,22.32-6.76,19.09,3.23,40.05,22.32,46.81Z"/>
      <path class="cls-11" d="m2337.71,1379.96c-17.6,17.45-42.98,95.85-38,100.87,4.98,5.02,83.59-19.7,101.19-37.15,17.6-17.45,17.72-45.86.26-63.46-17.45-17.6-45.86-17.71-63.46-.26Z"/>
      <path class="cls-11" d="m2198.09,1499.03c24.09,5.83,104.15-13.68,105.82-20.56,1.66-6.87-60.62-60.84-84.7-66.67-24.09-5.83-48.34,8.97-54.17,33.06-5.83,24.09,8.97,48.34,33.06,54.17Z"/>
      <path class="cls-11" d="m2353.46,1482c-17.6,17.45-42.98,95.85-37.99,100.88,4.98,5.02,83.59-19.7,101.19-37.15s17.71-45.86.26-63.46c-17.45-17.6-45.86-17.72-63.46-.27Z"/>
      <path class="cls-11" d="m2213.84,1601.07c24.09,5.83,104.15-13.68,105.82-20.56,1.66-6.88-60.62-60.84-84.71-66.67-24.09-5.83-48.34,8.97-54.17,33.06-5.83,24.09,8.97,48.34,33.06,54.17Z"/>
      <path class="cls-11" d="m2226.07,1701.43c23.17,8.79,105.04-.56,107.55-7.17,2.51-6.61-52.54-67.94-75.71-76.73-23.17-8.79-49.08,2.86-57.88,26.03-8.79,23.17,2.86,49.08,26.03,57.88Z"/>
      <path class="cls-11" d="m2250.92,1149.96c-5.44,10.99-4.75,51.74-1.62,53.29,3.14,1.55,35.96-22.62,41.4-33.6,5.44-10.99.94-24.3-10.04-29.74-10.99-5.44-24.3-.94-29.74,10.04Z"/>
      <path class="cls-11" d="m2198.71,1212.94c11.93,2.83,51.48-7.02,52.29-10.43.81-3.41-30.13-29.95-42.06-32.77-11.93-2.83-23.89,4.55-26.71,16.48-2.82,11.93,4.55,23.89,16.48,26.71Z"/>
      <path class="cls-11" d="m2277.11,1212.8c-8.98,14.92-12.76,72.71-8.5,75.27,4.26,2.56,53.55-27.83,62.53-42.75,8.98-14.92,4.17-34.3-10.76-43.28-14.92-8.98-34.3-4.16-43.28,10.76Z"/>
      <path class="cls-11" d="m2195.15,1301.03c16.95,4.01,73.14-9.98,74.29-14.81,1.15-4.84-42.81-42.54-59.75-46.56-16.95-4.01-33.94,6.47-37.95,23.42-4.01,16.95,6.47,33.94,23.42,37.95Z"/>
    </g>
    <g>
      <path class="cls-30" d="m2366.11,1693c-.24.33-.49.66-.73.98-4.36,5.76-8.89,11.36-13.57,16.78-7.08,8.19-14.53,15.96-22.39,23.19-8.08,7.46-16.6,14.33-25.55,20.52-69.54,2.68-116.2-34.55-147.52-86.31-62.48-103.26-63.88-264.35-63.85-281.79h0c0-1.03.01-1.55.01-1.55.04.02.08.03.12.05.65.27,1.31.54,1.96.82,127.46,53.34,197.93,111.59,235.29,165.49.59.85,1.18,1.71,1.75,2.56.4.6.8,1.2,1.19,1.78,35.47,53.46,38.7,102.34,33.3,137.47Z"/>
      <path class="cls-21" d="m2365.38,1693.98c-4.36,5.76-8.89,11.36-13.57,16.78l-3.34-4.19-67.47-84.83-1.96-2.47h0s-52.82-66.42-52.82-66.42l-1.59-2-131.99-165.97-.59-.74c.65.27,1.31.54,1.96.82,128.09,53.59,198.65,112.13,235.88,166.23.59.85,1.18,1.71,1.75,2.56.4.6.8,1.2,1.19,1.78,35.59,54.05,38.3,103.37,32.57,138.46Z"/>
      <path class="cls-1" d="m2347.83,1706.79c-.3,0-.6-.13-.81-.39l-255.8-321.63c-.35-.44-.28-1.09.16-1.44.44-.35,1.09-.28,1.44.17l255.8,321.63c.35.44.28,1.09-.17,1.44-.19.15-.41.22-.64.22Z"/>
      <path class="cls-1" d="m2225.57,1553.07c-.06,0-.11,0-.17-.01l-112.63-18.64c-.56-.09-.94-.62-.85-1.18.09-.56.63-.95,1.18-.85l112.63,18.63c.56.09.94.62.85,1.18-.08.5-.52.86-1.01.86Z"/>
      <path class="cls-1" d="m2280.36,1621.96c-.49,0-.93-.35-1.01-.85l-18.97-110.45c-.1-.56.28-1.09.84-1.19.55-.09,1.09.28,1.19.84l18.97,110.45c.1.56-.28,1.09-.84,1.19-.06,0-.12.01-.17.01Z"/>
    </g>
    <g>
      <path class="cls-21" d="m2329.42,1733.95c-8.08,7.46-16.6,14.33-25.55,20.52-12.08,8.34-24.97,15.41-38.72,20.88-5.61,2.24-11.35,4.21-17.25,5.89-33.62,9.59-74.44,17.62-119.84,24.34-.2-.15-.39-.31-.58-.46-.1-.08-.2-.17-.31-.26-62.38-50.49-107.72-116.3-110.62-120.56,0-.03-.04-.06-.06-.09-.02-.04-.06-.09-.09-.13,54.87-11.83,101.06-16.46,139.96-15.9,93.72,1.33,145.02,32.74,173.08,65.79Z"/>
      <path class="cls-30" d="m2128.06,1805.57c45.41-6.71,86.22-14.75,119.84-24.34,5.9-1.68,11.64-3.65,17.25-5.89l-248.76-91.28s.07.09.09.13c.02.03.05.06.06.09,40.4,54.02,77.27,93.01,110.62,120.56.11.09.21.18.31.26.19.16.38.32.57.47h0Z"/>
    </g>
    <path class="cls-11" d="m1966.64,600.01v1223.16c-271.22,21.5-589.18,14.95-589.18,14.95-103.85,4.92-308.86-1.78-468.3-18.24V600.01h1057.48Z"/>
    <polygon class="cls-25" points="2029.75 655.08 846.06 655.08 909.16 374.6 1966.64 374.6 2029.75 655.08"/>
    <rect class="cls-11" x="1696.4" y="317.1" width="127.91" height="253.61"/>
    <rect class="cls-4" x="1072.57" y="457.85" width="108.56" height="108.56"/>
    <g>
      <path class="cls-22" d="m1186.15,571.44h-118.61v-118.61h118.61v118.61Zm-108.56-10.05h98.5v-98.5h-98.5v98.5Z"/>
      <rect class="cls-22" x="1072.57" y="507.22" width="108.56" height="9.83" transform="translate(1638.98 -614.72) rotate(90)"/>
    </g>
    <rect class="cls-4" x="1363.56" y="457.85" width="108.56" height="108.56"/>
    <g>
      <path class="cls-22" d="m1477.15,571.44h-118.61v-118.61h118.61v118.61Zm-108.56-10.05h98.5v-98.5h-98.5v98.5Z"/>
      <rect class="cls-22" x="1363.56" y="507.22" width="108.56" height="9.83" transform="translate(1929.98 -905.71) rotate(90)"/>
    </g>
    <rect class="cls-21" x="1118.11" y="708.39" width="227.88" height="416.2"/>
    <rect class="cls-21" x="1512.63" y="708.39" width="227.88" height="416.2"/>
    <rect class="cls-21" x="1118.11" y="1312.5" width="227.87" height="416.2"/>
    <rect class="cls-21" x="1512.63" y="1312.5" width="227.88" height="416.2"/>
    <rect class="cls-12" x="897.17" y="1211.37" width="1084.06" height="46.74"/>
    <path class="cls-4" d="m1353.02,1728.69h-241.95v-430.27h241.95v430.27Zm-227.87-14.07h213.8v-402.12h-213.8v402.12Z"/>
    <rect class="cls-12" x="1066.04" y="1131.62" width="334.72" height="39.43"/>
    <rect class="cls-22" x="1045.97" y="432.52" width="157.16" height="22.77"/>
    <rect class="cls-22" x="1335.77" y="432.52" width="157.16" height="22.77"/>
    <rect class="cls-12" x="1459.21" y="1131.62" width="334.72" height="39.43"/>
    <rect class="cls-12" x="1066.04" y="1727.49" width="334.72" height="39.43"/>
    <rect class="cls-12" x="1459.21" y="1727.49" width="334.72" height="39.43"/>
    <g>
      <path class="cls-30" d="m894.35,1641.73c-24.76-125.15-147.33-251.5-160.21-264.5-.72-.72-1.1-1.1-1.1-1.1-.02.04-.03.07-.05.11-.27.66-.55,1.33-.82,1.98-53.55,128.11-64.21,220.64-54.19,287.18.15.98.3,1.96.46,2.92.17,1.03.34,2.06.52,3.08,0,0,0,.02.01.03.1.6.21,1.22.32,1.82.05.3.11.61.17.92,10.98,59.62,38.92,97.22,66.07,120.48.4.11.79.21,1.2.3,1.61.39,3.22.77,4.83,1.16,8.33,1.96,17.37,3.87,27.02,5.71,16.55,3.16,34.91,6.12,54.66,8.91.98.14,1.95.28,2.93.41,59.01-47.23,70.3-108.18,58.18-169.42Z"/>
      <path class="cls-21" d="m778.58,1801.83c-9.65-1.84-18.69-3.75-27.02-5.71-1.61-.38-3.22-.76-4.83-1.16-27.44-23.07-56-60.67-67.27-120.79-.06-.31-.12-.62-.17-.92-.11-.6-.22-1.22-.32-1.82-.01-.01-.01-.02-.01-.03-.18-1.02-.35-2.05-.52-3.08-11.03-66.84-.99-160.46,53.63-291.08.27-.65.54-1.31.82-1.97l.1.96,23.41,218.57.27,2.53,9.38,87.55h0s.34,3.15.34,3.15l11.96,111.69.22,2.09Z"/>
      <path class="cls-1" d="m778.96,1799.45c-.16.16-.37.26-.61.29-.56.06-1.07-.35-1.13-.91l-45.35-423.43c-.06-.57.35-1.07.91-1.13.56-.06,1.07.35,1.13.91l45.35,423.43c.04.33-.09.63-.3.84Z"/>
      <path class="cls-1" d="m757.29,1597.07c-.35.34-.91.4-1.32.1-.46-.33-.56-.97-.23-1.44l69.53-95.71c.32-.46.98-.56,1.44-.23.46.33.56.97.23,1.43l-69.53,95.71s-.07.09-.11.13Z"/>
      <path class="cls-1" d="m767,1687.77s-.09.08-.13.11c-.47.32-1.11.21-1.43-.26l-66.38-95.28c-.33-.47-.19-1.11.26-1.43.47-.32,1.11-.21,1.43.26l66.38,95.28c.29.42.23.97-.12,1.32Z"/>
    </g>
    <g>
      <path class="cls-29" d="m975.3,1708.96c0,.05-.02.11-.03.16-8.89,46.01-28.17,91.55-68.32,110.52h-.01c-19.63-2.04-38.55-4.23-56.5-6.57-4.83-.63-9.58-1.27-14.26-1.92-.98-.13-1.95-.27-2.93-.41-12.73-29.52-25.45-95.22,61.11-169,21.84-18.63,50.01-37.76,86.1-56.96,0,.04,0,.07,0,.11,0,.03,0,.05.01.08,0,.04,0,.07,0,.11.48,4.77,6.25,64.67-5.18,123.88Z"/>
      <path class="cls-30" d="m975.3,1708.96c0,.05-.02.11-.03.16-12.09,66.19-39.23,97.02-65.85,110.78h-.01c-.08-.01-.16-.02-.24-.03-.74-.08-1.49-.15-2.22-.23h-.01c-19.63-2.04-38.55-4.23-56.5-6.57l6.18-10.87,1.49-2.6h0s55.68-97.77,55.68-97.77l2.32-4.07h0s64.34-112.99,64.34-112.99c0,.04,0,.07,0,.11,0,.03,0,.05.01.08,3.04,51.11.72,91.74-5.17,123.99Z"/>
      <path class="cls-29" d="m910.97,1703.75c-.46.25-1.04.12-1.34-.32-.32-.47-.2-1.11.27-1.43l53.16-36.33c.47-.29,1.11-.2,1.43.27.32.47.2,1.11-.27,1.43l-53.16,36.33s-.06.04-.09.05Z"/>
      <path class="cls-29" d="m932.43,1761.42h0s-74.81,40.78-74.81,40.78c-.5.27-1.12.09-1.39-.41-.27-.5-.09-1.12.41-1.39h0s74.81-40.78,74.81-40.78c.5-.27,1.12-.09,1.39.41.27.5.09,1.12-.41,1.39Z"/>
    </g>
    <path class="cls-20" d="m689.45,905.1c1.76-.3,3.55-.61,5.13-1.43,7.98-4.1,4.73-17.36-3.12-21.69-7.85-4.34-17.42-3.21-26.35-4-8.93-.79-19.15-5.26-20.53-14.12-1.04-6.7,3.44-14.05.22-20.02-1.42-2.64-4.09-4.35-6.76-5.73-14.72-7.58-32.98-7.88-47.94-.79-2.03.96-4.08,2.13-5.24,4.05-1.08,1.79-1.22,3.97-1.8,5.97-2.53,8.68-12.76,12.6-21.79,12.94-17.74.66-43.68-2.04-46.78,22.66-2.29,18.24,11.36,23.65,26.37,27.69,44.12,11.89,104.38,1.96,148.59-5.53Z"/>
    <path class="cls-20" d="m793.99,739.69c6.99.06,15.15.04,19.4-5.51,4.59-5.97,1.29-15.37-5.04-19.45-6.33-4.08-14.44-4.07-21.9-3.02-16.49,2.34-32.47,9.12-49.11,8.38-6.43-.29-12.87-1.7-19.26-.96-23.62,2.73-15.91,29.55,3.67,30.74,22.95,1.4,48.33-10.39,72.24-10.18Z"/>
    <path class="cls-20" d="m2305.37,832.71c2.37-.4,4.78-.83,6.92-1.93,10.75-5.52,6.37-23.39-4.21-29.23-10.58-5.85-23.47-4.32-35.51-5.39-12.04-1.06-25.81-7.08-27.67-19.02-1.4-9.03,4.63-18.93.3-26.98-1.92-3.56-5.51-5.87-9.11-7.72-19.84-10.21-44.43-10.62-64.6-1.07-2.73,1.29-5.5,2.87-7.06,5.46-1.45,2.41-1.64,5.34-2.43,8.04-3.41,11.69-17.2,16.98-29.37,17.44-23.9.89-58.86-2.75-63.04,30.53-3.09,24.58,15.31,31.86,35.54,37.32,59.45,16.02,140.65,2.64,200.23-7.45Z"/>
    <path class="cls-20" d="m2389.81,1037.23c6.27.05,13.59.03,17.41-4.94,4.12-5.36,1.16-13.79-4.52-17.45-5.68-3.66-12.95-3.65-19.64-2.71-14.79,2.1-29.13,8.18-44.05,7.51-5.77-.26-11.54-1.53-17.28-.86-21.19,2.45-14.27,26.5,3.29,27.57,20.59,1.25,43.35-9.32,64.79-9.13Z"/>
    <path class="cls-20" d="m1538.88,304.4c7.79.07,16.89.04,21.64-6.14,5.12-6.66,1.44-17.14-5.62-21.69-7.06-4.55-16.1-4.54-24.42-3.36-18.39,2.61-36.21,10.16-54.77,9.34-7.18-.32-14.35-1.9-21.48-1.07-26.34,3.04-17.74,32.95,4.1,34.28,25.59,1.56,53.89-11.58,80.55-11.35Z"/>
    <path class="cls-20" d="m1240.43,286.34c14.64.12,31.73.07,40.65-11.54,9.61-12.51,2.7-32.2-10.56-40.75-13.26-8.55-30.25-8.53-45.87-6.32-34.54,4.9-68.03,19.09-102.88,17.55-13.48-.6-26.95-3.56-40.36-2.02-49.48,5.71-33.33,61.9,7.69,64.4,48.08,2.93,101.24-21.76,151.33-21.33Z"/>
    <rect class="cls-4" x="1719.49" y="282.82" width="23.8" height="34.27"/>
    <rect class="cls-4" x="1777.42" y="282.82" width="23.8" height="34.27"/>
    <rect class="cls-30" x="1688.32" y="317.1" width="144.08" height="19.12"/>
    <g>
      <path class="cls-25" d="m1125.15,1714.62h187.74c11.02-21.71-2.33-44.75-21.03-43.71-6.64.37-11.27-3.45-15.14-9.88-2.61-4.31-4.88-9.81-7.21-16.01-.37-1-.75-2.01-1.13-3.04-.42-1.15-.84-2.31-1.28-3.5-.21-.57-.42-1.16-.63-1.74-.79-2.16-1.61-4.37-2.45-6.62-.16-.41-.31-.82-.48-1.25-10.46-27.43-26.66-59.69-72-68.15-5.1-.96-10.55-1.61-16.42-1.92-1.02-.06-2.04-.1-3.09-.13h-.01c-.22-.01-.44-.02-.67-.02-1.41-.04-2.83-.06-4.28-.06-17.4,0-31.69,5.29-41.91,14.57v141.46Z"/>
      <g>
        <path class="cls-4" d="m1195.56,1545.21c.83.01,17.61-4.87,15.78-25.71-1.82-20.84-20.17-22.93-29.55-21.68-9.38,1.25-25.64,14.91-19.18,30.91,6.46,16,14.59,22.04,14.59,22.04l18.35-5.56Z"/>
        <g>
          <path class="cls-2" d="m1207.15,1534.78s2.12-2.19,3.24-.92c2.85,3.22-1.41,5.98-3.77,6.31l.53-5.38Z"/>
          <path class="cls-13" d="m1191.85,1500.51c-10.33-1.25-20.13,5.55-22.59,15.67-.81,3.33-.76,6.64-.03,9.72,1.48,7.62,2.73,13.78,4.83,18.48,2.14,4.77,2.51,10.14.83,15.09l-1.7,5c10.74,8.15,16.86,4.18,16.86,4.18l2.41-12.84h0c13.11.88,15.84-23.1,17.16-30.1h-.02c.06-.26.12-.52.17-.79,2.2-11.71-5.91-22.96-17.92-24.41Z"/>
          <path class="cls-4" d="m1186.49,1520.97c-2.97,2.07-5.67,4.5-8.37,6.92-2.85,2.56-5.82,5.29-7.03,8.93-2.83-3.13-4.25-7.28-5.33-11.37-.5-1.89-.95-3.83-.86-5.79.12-2.77,1.3-5.37,2.45-7.9,1.49-3.25,3.08-6.64,5.9-8.84,1.87-1.46,4.15-2.29,6.45-2.88,5.36-1.36,11.12-1.46,16.37.31,5.24,1.76,9.92,5.48,12.31,10.47,3.08,6.43,2.14,13.96,1.13,21.02-.16-3.04-1.62-5.83-3.05-8.51-.93-1.75-1.89-3.53-3.34-4.87-2.48-2.29-3.33-2.05-7.63-6.31-2.09,4.07-5.29,6.23-9,8.82Z"/>
          <path class="cls-1" d="m1204.57,1534.34c.28-.96-.27-1.96-1.23-2.24-.96-.28-1.96.27-2.24,1.23-.28.96.27,1.96,1.23,2.24.96.28,1.96-.27,2.24-1.23Z"/>
          <path class="cls-1" d="m1186.6,1533.07c.28-.96-.27-1.96-1.23-2.24-.96-.28-1.96.27-2.24,1.23-.28.96.27,1.96,1.23,2.24.96.28,1.96-.27,2.24-1.23Z"/>
          <path class="cls-2" d="m1198.98,1545.18s-2.19-1.83-3.14-1.7c-.95.13-1.6,1.17-1.6,1.17,0,0-.4-1.18-1.51-1.34-1.11-.16-5.11,1.45-5.11,1.45,0,0,2.88,5.21,6.34,5.04,3.52-.17,5.03-4.62,5.03-4.62h0Z"/>
          <path class="cls-4" d="m1181.61,1530.22c-.21-.04-.41-.17-.52-.37-.2-.36-.07-.82.29-1.02.11-.06,2.72-1.47,5.99-.7.4.09.66.5.56.9-.09.4-.53.65-.9.56-2.73-.64-4.9.54-4.92.55-.16.09-.34.11-.51.08Z"/>
          <path class="cls-4" d="m1200.12,1530.8c-.19-.1-.34-.28-.39-.5-.09-.41.16-.81.56-.9.12-.03,2.99-.67,5.95,1,.36.2.49.66.29,1.02-.2.36-.68.49-1.02.29-2.45-1.38-4.85-.85-4.88-.84-.18.04-.36.01-.51-.06Z"/>
          <path class="cls-2" d="m1193.34,1541.35c2.16.08,3.16-1.37,3.39-2.27.04-.16.02-.32-.06-.47-1.46-2.65-.63-5.99-.62-6.02.09-.34-.12-.68-.46-.77-.33-.09-.68.12-.77.45-.04.15-.92,3.64.6,6.69-.21.47-.93,1.47-2.91,1-.35-.08-.68.13-.76.47-.08.34.13.68.47.76.4.1.77.15,1.11.16Z"/>
          <path class="cls-20" d="m1187.61,1544.77s6.88.62,11.37.41c0,0-2.48,3.21-5.1,2.88-2.62-.33-6.27-3.29-6.27-3.29Z"/>
          <path class="cls-1" d="m1184.76,1526.4c-3.13,0-5.74,2.3-6.2,5.32-.04.19-.06.38-.06.57-.02.13-.02.26-.02.39,0,3.46,2.82,6.28,6.28,6.28,3.14,0,5.74-2.31,6.2-5.31.04-.22.06-.45.07-.68,0-.1,0-.19,0-.29,0-3.47-2.81-6.28-6.28-6.28Zm0,11.98c-3.15,0-5.7-2.55-5.7-5.7s2.55-5.71,5.7-5.71,5.71,2.56,5.71,5.71-2.56,5.7-5.71,5.7Z"/>
          <path class="cls-1" d="m1208.67,1531.15c-.92-2.32-3.19-3.97-5.84-3.97-3.35,0-6.08,2.61-6.26,5.91-.02.12-.02.25-.02.37,0,.11,0,.21,0,.32.17,3.32,2.92,5.96,6.27,5.96.92,0,1.8-.2,2.59-.56.5-.22.96-.51,1.38-.85.14-.11.28-.23.41-.37h0s0-.02,0-.02c1.09-1.06,1.79-2.49,1.87-4.1h0c.02-.11.02-.21.02-.31v-.06c0-.81-.16-1.6-.44-2.31Zm-.15,2.6c-.03.68-.18,1.33-.43,1.92-.01,0-.01.02-.02.03-.01.02-.01.03-.02.05-.14.33-.31.64-.52.93-.19.28-.4.54-.64.78-.02.03-.05.05-.07.07h0c-1.03,1.01-2.42,1.63-3.97,1.63-3.15,0-5.7-2.56-5.7-5.71s2.55-5.7,5.7-5.7c2.79,0,5.1,1.99,5.61,4.64v.02c.06.33.09.68.09,1.04,0,.1,0,.18-.01.28h0Z"/>
          <rect class="cls-1" x="1174.76" y="1527.86" width=".58" height="7.5" transform="translate(-479.55 2526.02) rotate(-83.51)"/>
          <path class="cls-1" d="m1196.65,1533.86c-.09-.08-2.34-2.08-5.8-.14l-.28-.5c3.84-2.16,6.45.19,6.48.22l-.39.42Z"/>
          <path class="cls-13" d="m1174.37,1532.78c-.21-.72-.69-1.33-1.32-1.74-1.3-.83-3.67-1.92-5.69-.53-2.97,2.03.82,9.61,6.41,7.25,0,0,1.69-1.16.6-4.98Z"/>
        </g>
        <path class="cls-27" d="m1312.88,1714.62h13.75c-.41-8.3-1.12-15.69-2.26-20.23-7.09-28.16-29.18-29.95-29.18-29.95l-18.48-3.41-19.55-3.6-12.16-2.24-4.71-.86h0l-5.7-1.06-6.93-1.28-2.01.31h-.01l-.87.13h0l-3.06.46-.56.09h0l-.7.1-.21.04-.46.07-3.27.49h-.01l-16.02,2.43-5.24.79-.99.15-.58.09-36.7,5.58s.34,3.31,2.25,8.11c2.15,5.42,6.31,12.74,14.26,19.36,15.01,12.5,65.04,10.85,65.04,10.85l1.37,13.56h38c2.12-16.84,1.14-22.5.83-23.71-.05-.19-.08-.27-.08-.27.07.06.15.12.22.18,6.33,5.36,10.62,14.09,13.54,23.8h20.52Z"/>
        <path class="cls-4" d="m1168.17,1568.76s1.39-10.7,3.61-10.15c2.22.56,21.96,4.15,23.9,3.74,1.95-.41,0,9.05,0,9.05,0,0,16.12,1.39,21.68,10.84,5.56,9.45,4.53,52.56,9.25,55.62,4.73,3.06,34.1,4.97,34.1,4.97l-38.43,21.62-36.41-1.7s-26.33,15.78-46.9,3.49c-20.57-12.29-16.95-76.77,2.5-88.17,19.46-11.4,26.68-9.31,26.68-9.31Z"/>
        <path class="cls-27" d="m1228.49,1660.35s-.05,0-.07,0c-13.95-3.35-14.65-31.33-14.67-32.52,0-.07.02-.14.07-.19.05-.06,5.19-6.11,4.66-12.85-.54-6.75-9.26-14.46-9.35-14.53-.12-.11-.13-.29-.03-.41.11-.12.29-.13.41-.03.37.32,8.99,7.94,9.55,14.92.53,6.62-4.05,12.39-4.72,13.19.06,1.93,1.13,28.71,14.23,31.86.16.04.25.19.21.35-.03.13-.15.22-.28.22Z"/>
        <path class="cls-4" d="m1278.61,1690.92c-.14,0-.26-.1-.29-.24-.05-.25-5.11-24.7-45.13-27.59-.16-.01-.28-.15-.27-.31.01-.16.14-.29.31-.27,40.49,2.93,45.61,27.81,45.66,28.06.03.16-.07.31-.23.34-.02,0-.04,0-.05,0Z"/>
        <g>
          <path class="cls-18" d="m1269.14,1662.93s-6.31,5-30.65,2.07c-24.29-2.93-39.38-13.18-44.89-20.69-5.5-7.52-3.46-16.8,2.78-21.2,6.24-4.4,17.8-.19,17.8-.19,2.31-1.13,4.7-2.01,7.14-2.65,2.08-.56,4.2-.94,6.33-1.17,1.66-.18,3.33-.27,5-.28,2.73-.01,5.46.2,8.12.61,1.8.27,3.57.63,5.3,1.07,2.97.75,5.82,1.72,8.45,2.85,2.53,1.09,4.87,2.33,6.96,3.67,3.88,2.5,6.87,5.36,8.52,8.25.08.14.16.27.23.41,6.21,11.73-1.1,27.26-1.1,27.26Z"/>
          <path class="cls-18" d="m1230.72,1670.43c-9.01-3.16-14.14-8.01-18.3-13.83-1.44-2.01-.97-4.8,1.04-6.24,2.01-1.44,4.8-.97,6.24,1.04,5.15,7.2,18.93,10.93,35.96,9.72,9.9-.7,12.76-11.74,12.79-11.85.59-2.37-4.09-8.78-1.72-8.25.03,0,3.22-4.24,3.25-4.24,2.4.6,6.85,10.69,7.15,14.64.5,6.66-1.81,18.54-20.91,20.44-8.67.86-15.67,2-25.49-1.44Z"/>
          <path class="cls-18" d="m1198.7,1625.09s.77-9.14,4.17-12.59c3.41-3.45,6.67,8.5,6.75,11,.08,2.49-10.92,1.59-10.92,1.59Z"/>
          <path class="cls-18" d="m1192.68,1637.97s-7.4-5.42-8.57-10.12c-1.17-4.7,10.73-1.26,12.9-.03,2.17,1.23-4.33,10.15-4.33,10.15Z"/>
          <path class="cls-5" d="m1206.42,1631.6c-.29-.07-.48-.14-.5-.14l.3-.8s1.5.55,2.58-.12c.66-.4,1.06-1.19,1.19-2.33l.85.1c-.16,1.42-.7,2.42-1.6,2.96-1,.61-2.17.48-2.82.33Z"/>
          <path class="cls-5" d="m1198.96,1637.56c-.29-.07-.48-.13-.5-.14l.3-.8s1.5.55,2.58-.12c.66-.4,1.06-1.19,1.19-2.33l.85.1c-.17,1.42-.7,2.42-1.6,2.96-1,.61-2.17.48-2.82.33Z"/>
          <path class="cls-15" d="m1206.65,1636.68s1.42-1.54,1.8-1.26c.37.28,0,1.89,0,1.89,0,0-2.62.59-1.81-.64Z"/>
          <path class="cls-5" d="m1209.89,1638.26c-1.01-.23-1.58-.79-1.59-.8l.3-.3c.06.06,1.58,1.54,4.22.25,1.09-.53,1.65-1.34,1.66-2.42,0-.82-.31-1.49-.31-1.49l.38-.19s.37.76.36,1.68c0,.86-.35,2.05-1.9,2.8-1.28.62-2.33.64-3.12.46Z"/>
          <path class="cls-5" d="m1204.95,1643.29s-.07-.02-.11-.03c-.89-.23-1.5-.76-1.53-.79l.28-.32c.09.08,2.24,1.9,4.14-.27,1.93-2.21.91-4.06.87-4.14l.37-.21s1.23,2.18-.91,4.63c-1.09,1.25-2.27,1.31-3.1,1.12Z"/>
          <path class="cls-15" d="m1202.11,1621.35c0-.19.97-5.31,2.45-5.41,1.48-.1,3.84,5.61,3.48,6.18-.36.57-6,.89-5.93-.77Z"/>
          <path class="cls-15" d="m1193.01,1628.02c-.17-.08-5.2-1.45-5.94-.17-.74,1.29,3.35,5.91,4.03,5.84.67-.07,3.43-5.01,1.91-5.67Z"/>
          <path class="cls-5" d="m1214.27,1659.19s-2.26-3.62-1.52-6.66c.31-1.26,1.08-2.26,2.29-2.97,4.77-2.8,7.5.05,10.65,3.36,1.35,1.41,2.74,2.87,4.44,4.12,4.21,3.08,20.69,5.94,30.15,3.42,3.11-.83,5.09-2.15,5.88-3.92l.19.09c-.82,1.83-2.84,3.19-6.02,4.04-4.22,1.12-10.4,1.28-16.96.43-6.05-.79-11.17-2.27-13.37-3.88-1.72-1.26-3.12-2.73-4.47-4.15-3.22-3.38-5.76-6.04-10.39-3.32-1.16.68-1.9,1.64-2.19,2.84-.72,2.95,1.47,6.47,1.49,6.5l-.18.11Z"/>
          <path class="cls-5" d="m1219.63,1640.15l-.11-.15s2.69-2.01,2.41-6.52c-.39-6.4-7.71-10.44-7.79-10.48l.09-.17c.07.04,7.49,4.12,7.88,10.63.28,4.62-2.46,6.66-2.49,6.68Z"/>
        </g>
        <path class="cls-27" d="m1179.39,1624.14c-3.53,0-7.71-1.07-12.49-4.13-.13-.09-.17-.26-.09-.4.09-.14.27-.17.4-.09,15.17,9.75,24.27-1.22,24.36-1.33.1-.12.28-.15.41-.04.12.1.14.28.04.41-.06.08-4.63,5.58-12.63,5.58Z"/>
        <path class="cls-4" d="m1185.89,1663.03c-.11,0-.22-.06-.27-.17-.06-.15,0-.32.15-.38l8.01-3.5-1.12-13.96c-2.45-.48-24.96-4.86-35.71-6.12-.14-.02-.25-.14-.26-.28-.02-1.08-.4-26.46,1.28-30.23.07-.15.24-.21.38-.15.15.07.21.24.15.38-1.54,3.46-1.27,27.02-1.23,29.73,11.45,1.37,35.48,6.09,35.72,6.14.13.02.22.13.23.26l1.16,14.38c.01.12-.06.24-.17.29l-8.2,3.58s-.08.02-.12.02Z"/>
        <g>
          <g>
            <path class="cls-10" d="m1200.49,1646.74s.55.02,1.48.05c4.56.14,18.21.61,19.8,1.17,1.91.67-3.83,12.58-3.83,12.58,0,0-16.4.9-21.68-2.62-5.28-3.52,4.24-11.17,4.24-11.17Z"/>
            <path class="cls-10" d="m1215.77,1660.61s9.15,4.14,9.96,3.24c.81-.9-7.16-5.52-7.16-5.52l-2.79,2.29Z"/>
            <path class="cls-10" d="m1218.26,1657.68s13.55,5.57,14.57,3.7c1.02-1.87-13.96-6.71-13.96-6.71l-.61,3.01Z"/>
            <path class="cls-10" d="m1220.06,1654.4s13.98,4.37,14.84,2.41c.86-1.95-14.5-5.46-14.5-5.46l-.34,3.05Z"/>
            <path class="cls-10" d="m1220.77,1650.88s13.06,4.26,13.88,2.31c.82-1.96-13.54-5.36-13.54-5.36l-.34,3.05Z"/>
          </g>
          <polygon class="cls-10" points="1203.61 1647.14 1193.3 1645.84 1194.25 1657.5 1199.55 1658.68 1203.61 1647.14"/>
        </g>
        <path class="cls-4" d="m1183.06,1500.31c0-7.03-5.69-12.72-12.72-12.72s-12.72,5.7-12.72,12.72,5.7,12.72,12.72,12.72,12.72-5.7,12.72-12.72Z"/>
      </g>
    </g>
    <g>
      <path class="cls-20" d="m1206.96,1367.28h68.49c.84,0,1.51.68,1.51,1.51v15.82h-71.51v-15.82c0-.84.68-1.51,1.51-1.51Z"/>
      <rect class="cls-20" x="1240.5" y="1313.41" width="1.3" height="68.88"/>
    </g>
    <path class="cls-7" d="m1630.01,715.42s-24.34,129.86-110.35,196.2v-196.2h110.35Z"/>
    <path class="cls-7" d="m1733.47,866.72s-87.37-70.73-88.71-151.3h88.71v151.3Z"/>
    <g>
      <rect class="cls-4" x="1512.63" y="806.15" width="227.88" height="15.43"/>
      <path class="cls-4" d="m1747.54,1131.62h-241.95v-430.27h241.95v430.27Zm-227.88-14.07h213.8v-402.12h-213.8v402.12Z"/>
    </g>
    <g>
      <g>
        <path class="cls-29" d="m1150.08,783.91c.22-.73.99-1.14,1.71-.92.73.22,1.14.99.92,1.71-.22.73-.99,1.14-1.71.92-.73-.22-1.14-.99-.92-1.71Z"/>
        <path class="cls-29" d="m1150.08,786.72c.22-.73.99-1.14,1.71-.92.73.22,1.14.99.92,1.71-.22.73-.99,1.14-1.71.92-.73-.22-1.14-.99-.92-1.71Z"/>
        <path class="cls-29" d="m1150.08,789.53c.22-.73.99-1.14,1.71-.92.73.22,1.14.99.92,1.71-.22.73-.99,1.14-1.71.92-.73-.22-1.14-.99-.92-1.71Z"/>
        <path class="cls-29" d="m1150.08,792.35c.22-.73.99-1.14,1.71-.92.73.22,1.14.99.92,1.71-.22.73-.99,1.14-1.71.92-.73-.22-1.14-.99-.92-1.71Z"/>
        <path class="cls-29" d="m1150.08,795.16c.22-.73.99-1.14,1.71-.92.73.22,1.14.99.92,1.71-.22.73-.99,1.14-1.71.92-.73-.22-1.14-.99-.92-1.71Z"/>
        <path class="cls-29" d="m1150.08,797.97c.22-.73.99-1.14,1.71-.92.73.22,1.14.99.92,1.71-.22.73-.99,1.14-1.71.92-.73-.22-1.14-.99-.92-1.71Z"/>
        <path class="cls-29" d="m1150.08,800.79c.22-.73.99-1.14,1.71-.92.73.22,1.14.99.92,1.71-.22.73-.99,1.14-1.71.92-.73-.22-1.14-.99-.92-1.71Z"/>
        <path class="cls-29" d="m1150.08,803.6c.22-.73.99-1.14,1.71-.92.73.22,1.14.99.92,1.71-.22.73-.99,1.14-1.71.92-.73-.22-1.14-.99-.92-1.71Z"/>
        <path class="cls-29" d="m1150.08,806.41c.22-.73.99-1.14,1.71-.92.73.22,1.14.99.92,1.71-.22.73-.99,1.14-1.71.92-.73-.22-1.14-.99-.92-1.71Z"/>
        <path class="cls-29" d="m1150.08,809.22c.22-.73.99-1.14,1.71-.92.73.22,1.14.99.92,1.71-.22.73-.99,1.14-1.71.92-.73-.22-1.14-.99-.92-1.71Z"/>
        <path class="cls-29" d="m1150.08,812.04c.22-.73.99-1.14,1.71-.92.73.22,1.14.99.92,1.71-.22.73-.99,1.14-1.71.92-.73-.22-1.14-.99-.92-1.71Z"/>
        <path class="cls-29" d="m1150.08,814.85c.22-.73.99-1.14,1.71-.92.73.22,1.14.99.92,1.71-.22.73-.99,1.14-1.71.92-.73-.22-1.14-.99-.92-1.71Z"/>
        <path class="cls-29" d="m1150.08,817.66c.22-.73.99-1.14,1.71-.92.73.22,1.14.99.92,1.71-.22.73-.99,1.14-1.71.92-.73-.22-1.14-.99-.92-1.71Z"/>
        <path class="cls-29" d="m1150.08,820.47c.22-.73.99-1.14,1.71-.92.73.22,1.14.99.92,1.71-.22.73-.99,1.14-1.71.92-.73-.22-1.14-.99-.92-1.71Z"/>
        <path class="cls-29" d="m1150.08,823.29c.22-.73.99-1.14,1.71-.92.73.22,1.14.99.92,1.71-.22.73-.99,1.14-1.71.92-.73-.22-1.14-.99-.92-1.71Z"/>
        <path class="cls-29" d="m1150.08,826.1c.22-.73.99-1.14,1.71-.92.73.22,1.14.99.92,1.71-.22.73-.99,1.14-1.71.92-.73-.22-1.14-.99-.92-1.71Z"/>
        <path class="cls-29" d="m1150.08,828.91c.22-.73.99-1.14,1.71-.92.73.22,1.14.99.92,1.71-.22.73-.99,1.14-1.71.92-.73-.22-1.14-.99-.92-1.71Z"/>
        <path class="cls-29" d="m1150.08,831.73c.22-.73.99-1.14,1.71-.92.73.22,1.14.99.92,1.71-.22.73-.99,1.14-1.71.92-.73-.22-1.14-.99-.92-1.71Z"/>
        <path class="cls-29" d="m1150.08,834.54c.22-.73.99-1.14,1.71-.92.73.22,1.14.99.92,1.71-.22.73-.99,1.14-1.71.92-.73-.22-1.14-.99-.92-1.71Z"/>
        <path class="cls-29" d="m1150.08,837.35c.22-.73.99-1.14,1.71-.92.73.22,1.14.99.92,1.71-.22.73-.99,1.14-1.71.92-.73-.22-1.14-.99-.92-1.71Z"/>
        <path class="cls-29" d="m1150.08,840.16c.22-.73.99-1.14,1.71-.92.73.22,1.14.99.92,1.71-.22.73-.99,1.14-1.71.92-.73-.22-1.14-.99-.92-1.71Z"/>
        <path class="cls-29" d="m1150.08,842.98c.22-.73.99-1.14,1.71-.92.73.22,1.14.99.92,1.71-.22.73-.99,1.14-1.71.92-.73-.22-1.14-.99-.92-1.71Z"/>
        <path class="cls-29" d="m1150.08,845.79c.22-.73.99-1.14,1.71-.92.73.22,1.14.99.92,1.71-.22.73-.99,1.14-1.71.92-.73-.22-1.14-.99-.92-1.71Z"/>
        <path class="cls-29" d="m1150.08,848.6c.22-.73.99-1.14,1.71-.92.73.22,1.14.99.92,1.71-.22.73-.99,1.14-1.71.92-.73-.22-1.14-.99-.92-1.71Z"/>
        <path class="cls-29" d="m1150.08,716.4c.22-.73.99-1.14,1.71-.92.73.22,1.14.99.92,1.71-.22.73-.99,1.14-1.71.92-.73-.22-1.14-.99-.92-1.71Z"/>
        <path class="cls-29" d="m1150.08,719.21c.22-.73.99-1.14,1.71-.92.73.22,1.14.99.92,1.71-.22.73-.99,1.14-1.71.92-.73-.22-1.14-.99-.92-1.71Z"/>
        <path class="cls-29" d="m1150.08,722.03c.22-.73.99-1.14,1.71-.92.73.22,1.14.99.92,1.71-.22.73-.99,1.14-1.71.92-.73-.22-1.14-.99-.92-1.71Z"/>
        <path class="cls-29" d="m1150.08,724.84c.22-.73.99-1.14,1.71-.92.73.22,1.14.99.92,1.71-.22.73-.99,1.14-1.71.92-.73-.22-1.14-.99-.92-1.71Z"/>
        <path class="cls-29" d="m1150.08,727.65c.22-.73.99-1.14,1.71-.92.73.22,1.14.99.92,1.71-.22.73-.99,1.14-1.71.92-.73-.22-1.14-.99-.92-1.71Z"/>
        <path class="cls-29" d="m1150.08,730.47c.22-.73.99-1.14,1.71-.92.73.22,1.14.99.92,1.71-.22.73-.99,1.14-1.71.92-.73-.22-1.14-.99-.92-1.71Z"/>
        <path class="cls-29" d="m1150.08,733.28c.22-.73.99-1.14,1.71-.92.73.22,1.14.99.92,1.71-.22.73-.99,1.14-1.71.92-.73-.22-1.14-.99-.92-1.71Z"/>
        <path class="cls-29" d="m1150.08,736.09c.22-.73.99-1.14,1.71-.92.73.22,1.14.99.92,1.71-.22.73-.99,1.14-1.71.92-.73-.22-1.14-.99-.92-1.71Z"/>
        <path class="cls-29" d="m1150.08,738.9c.22-.73.99-1.14,1.71-.92.73.22,1.14.99.92,1.71-.22.73-.99,1.14-1.71.92-.73-.22-1.14-.99-.92-1.71Z"/>
        <path class="cls-29" d="m1150.08,741.72c.22-.73.99-1.14,1.71-.92.73.22,1.14.99.92,1.71-.22.73-.99,1.14-1.71.92-.73-.22-1.14-.99-.92-1.71Z"/>
        <path class="cls-29" d="m1150.08,744.53c.22-.73.99-1.14,1.71-.92.73.22,1.14.99.92,1.71-.22.73-.99,1.14-1.71.92-.73-.22-1.14-.99-.92-1.71Z"/>
        <path class="cls-29" d="m1150.08,747.34c.22-.73.99-1.14,1.71-.92.73.22,1.14.99.92,1.71-.22.73-.99,1.14-1.71.92-.73-.22-1.14-.99-.92-1.71Z"/>
        <path class="cls-29" d="m1150.08,750.16c.22-.73.99-1.14,1.71-.92.73.22,1.14.99.92,1.71-.22.73-.99,1.14-1.71.92-.73-.22-1.14-.99-.92-1.71Z"/>
        <path class="cls-29" d="m1150.08,752.97c.22-.73.99-1.14,1.71-.92.73.22,1.14.99.92,1.71-.22.73-.99,1.14-1.71.92-.73-.22-1.14-.99-.92-1.71Z"/>
        <path class="cls-29" d="m1150.08,755.78c.22-.73.99-1.14,1.71-.92.73.22,1.14.99.92,1.71-.22.73-.99,1.14-1.71.92-.73-.22-1.14-.99-.92-1.71Z"/>
        <path class="cls-29" d="m1150.08,758.59c.22-.73.99-1.14,1.71-.92.73.22,1.14.99.92,1.71-.22.73-.99,1.14-1.71.92-.73-.22-1.14-.99-.92-1.71Z"/>
        <path class="cls-29" d="m1150.08,761.41c.22-.73.99-1.14,1.71-.92.73.22,1.14.99.92,1.71-.22.73-.99,1.14-1.71.92-.73-.22-1.14-.99-.92-1.71Z"/>
        <path class="cls-29" d="m1150.08,764.22c.22-.73.99-1.14,1.71-.92.73.22,1.14.99.92,1.71-.22.73-.99,1.14-1.71.92-.73-.22-1.14-.99-.92-1.71Z"/>
        <path class="cls-29" d="m1150.08,767.03c.22-.73.99-1.14,1.71-.92.73.22,1.14.99.92,1.71-.22.73-.99,1.14-1.71.92-.73-.22-1.14-.99-.92-1.71Z"/>
        <path class="cls-29" d="m1150.08,769.84c.22-.73.99-1.14,1.71-.92.73.22,1.14.99.92,1.71-.22.73-.99,1.14-1.71.92-.73-.22-1.14-.99-.92-1.71Z"/>
        <path class="cls-29" d="m1150.08,772.66c.22-.73.99-1.14,1.71-.92.73.22,1.14.99.92,1.71-.22.73-.99,1.14-1.71.92-.73-.22-1.14-.99-.92-1.71Z"/>
        <path class="cls-29" d="m1150.08,775.47c.22-.73.99-1.14,1.71-.92.73.22,1.14.99.92,1.71-.22.73-.99,1.14-1.71.92-.73-.22-1.14-.99-.92-1.71Z"/>
        <path class="cls-29" d="m1150.08,778.28c.22-.73.99-1.14,1.71-.92.73.22,1.14.99.92,1.71-.22.73-.99,1.14-1.71.92-.73-.22-1.14-.99-.92-1.71Z"/>
        <path class="cls-29" d="m1150.08,781.1c.22-.73.99-1.14,1.71-.92.73.22,1.14.99.92,1.71-.22.73-.99,1.14-1.71.92-.73-.22-1.14-.99-.92-1.71Z"/>
      </g>
      <g>
        <path class="cls-29" d="m1321.13,783.91c.22-.73.99-1.14,1.71-.92.73.22,1.14.99.92,1.71-.22.73-.99,1.14-1.71.92-.73-.22-1.14-.99-.92-1.71Z"/>
        <path class="cls-29" d="m1321.13,786.72c.22-.73.99-1.14,1.71-.92.73.22,1.14.99.92,1.71-.22.73-.99,1.14-1.71.92-.73-.22-1.14-.99-.92-1.71Z"/>
        <path class="cls-29" d="m1321.13,789.53c.22-.73.99-1.14,1.71-.92.73.22,1.14.99.92,1.71-.22.73-.99,1.14-1.71.92-.73-.22-1.14-.99-.92-1.71Z"/>
        <path class="cls-29" d="m1321.13,792.35c.22-.73.99-1.14,1.71-.92.73.22,1.14.99.92,1.71-.22.73-.99,1.14-1.71.92-.73-.22-1.14-.99-.92-1.71Z"/>
        <path class="cls-29" d="m1321.13,795.16c.22-.73.99-1.14,1.71-.92.73.22,1.14.99.92,1.71-.22.73-.99,1.14-1.71.92-.73-.22-1.14-.99-.92-1.71Z"/>
        <path class="cls-29" d="m1321.13,797.97c.22-.73.99-1.14,1.71-.92.73.22,1.14.99.92,1.71-.22.73-.99,1.14-1.71.92-.73-.22-1.14-.99-.92-1.71Z"/>
        <path class="cls-29" d="m1321.13,800.79c.22-.73.99-1.14,1.71-.92.73.22,1.14.99.92,1.71-.22.73-.99,1.14-1.71.92-.73-.22-1.14-.99-.92-1.71Z"/>
        <path class="cls-29" d="m1321.13,803.6c.22-.73.99-1.14,1.71-.92.73.22,1.14.99.92,1.71-.22.73-.99,1.14-1.71.92-.73-.22-1.14-.99-.92-1.71Z"/>
        <path class="cls-29" d="m1321.13,806.41c.22-.73.99-1.14,1.71-.92.73.22,1.14.99.92,1.71-.22.73-.99,1.14-1.71.92-.73-.22-1.14-.99-.92-1.71Z"/>
        <path class="cls-29" d="m1321.13,809.22c.22-.73.99-1.14,1.71-.92.73.22,1.14.99.92,1.71-.22.73-.99,1.14-1.71.92-.73-.22-1.14-.99-.92-1.71Z"/>
        <path class="cls-29" d="m1321.13,812.04c.22-.73.99-1.14,1.71-.92.73.22,1.14.99.92,1.71-.22.73-.99,1.14-1.71.92-.73-.22-1.14-.99-.92-1.71Z"/>
        <path class="cls-29" d="m1321.13,814.85c.22-.73.99-1.14,1.71-.92.73.22,1.14.99.92,1.71-.22.73-.99,1.14-1.71.92-.73-.22-1.14-.99-.92-1.71Z"/>
        <path class="cls-29" d="m1321.13,817.66c.22-.73.99-1.14,1.71-.92.73.22,1.14.99.92,1.71-.22.73-.99,1.14-1.71.92-.73-.22-1.14-.99-.92-1.71Z"/>
        <path class="cls-29" d="m1321.13,820.47c.22-.73.99-1.14,1.71-.92.73.22,1.14.99.92,1.71-.22.73-.99,1.14-1.71.92-.73-.22-1.14-.99-.92-1.71Z"/>
        <path class="cls-29" d="m1321.13,823.29c.22-.73.99-1.14,1.71-.92.73.22,1.14.99.92,1.71-.22.73-.99,1.14-1.71.92-.73-.22-1.14-.99-.92-1.71Z"/>
        <path class="cls-29" d="m1321.13,826.1c.22-.73.99-1.14,1.71-.92.73.22,1.14.99.92,1.71-.22.73-.99,1.14-1.71.92-.73-.22-1.14-.99-.92-1.71Z"/>
        <path class="cls-29" d="m1321.13,828.91c.22-.73.99-1.14,1.71-.92.73.22,1.14.99.92,1.71-.22.73-.99,1.14-1.71.92-.73-.22-1.14-.99-.92-1.71Z"/>
        <path class="cls-29" d="m1321.13,831.73c.22-.73.99-1.14,1.71-.92.73.22,1.14.99.92,1.71-.22.73-.99,1.14-1.71.92-.73-.22-1.14-.99-.92-1.71Z"/>
        <path class="cls-29" d="m1321.13,834.54c.22-.73.99-1.14,1.71-.92.73.22,1.14.99.92,1.71-.22.73-.99,1.14-1.71.92-.73-.22-1.14-.99-.92-1.71Z"/>
        <path class="cls-29" d="m1321.13,837.35c.22-.73.99-1.14,1.71-.92.73.22,1.14.99.92,1.71-.22.73-.99,1.14-1.71.92-.73-.22-1.14-.99-.92-1.71Z"/>
        <path class="cls-29" d="m1321.13,840.16c.22-.73.99-1.14,1.71-.92.73.22,1.14.99.92,1.71-.22.73-.99,1.14-1.71.92-.73-.22-1.14-.99-.92-1.71Z"/>
        <path class="cls-29" d="m1321.13,842.98c.22-.73.99-1.14,1.71-.92.73.22,1.14.99.92,1.71-.22.73-.99,1.14-1.71.92-.73-.22-1.14-.99-.92-1.71Z"/>
        <path class="cls-29" d="m1321.13,845.79c.22-.73.99-1.14,1.71-.92.73.22,1.14.99.92,1.71-.22.73-.99,1.14-1.71.92-.73-.22-1.14-.99-.92-1.71Z"/>
        <path class="cls-29" d="m1321.13,848.6c.22-.73.99-1.14,1.71-.92.73.22,1.14.99.92,1.71-.22.73-.99,1.14-1.71.92-.73-.22-1.14-.99-.92-1.71Z"/>
        <path class="cls-29" d="m1321.13,716.4c.22-.73.99-1.14,1.71-.92.73.22,1.14.99.92,1.71-.22.73-.99,1.14-1.71.92-.73-.22-1.14-.99-.92-1.71Z"/>
        <path class="cls-29" d="m1321.13,719.21c.22-.73.99-1.14,1.71-.92.73.22,1.14.99.92,1.71-.22.73-.99,1.14-1.71.92-.73-.22-1.14-.99-.92-1.71Z"/>
        <path class="cls-29" d="m1321.13,722.03c.22-.73.99-1.14,1.71-.92.73.22,1.14.99.92,1.71-.22.73-.99,1.14-1.71.92-.73-.22-1.14-.99-.92-1.71Z"/>
        <path class="cls-29" d="m1321.13,724.84c.22-.73.99-1.14,1.71-.92.73.22,1.14.99.92,1.71-.22.73-.99,1.14-1.71.92-.73-.22-1.14-.99-.92-1.71Z"/>
        <path class="cls-29" d="m1321.13,727.65c.22-.73.99-1.14,1.71-.92.73.22,1.14.99.92,1.71-.22.73-.99,1.14-1.71.92-.73-.22-1.14-.99-.92-1.71Z"/>
        <path class="cls-29" d="m1321.13,730.47c.22-.73.99-1.14,1.71-.92.73.22,1.14.99.92,1.71-.22.73-.99,1.14-1.71.92-.73-.22-1.14-.99-.92-1.71Z"/>
        <path class="cls-29" d="m1321.13,733.28c.22-.73.99-1.14,1.71-.92.73.22,1.14.99.92,1.71-.22.73-.99,1.14-1.71.92-.73-.22-1.14-.99-.92-1.71Z"/>
        <path class="cls-29" d="m1321.13,736.09c.22-.73.99-1.14,1.71-.92.73.22,1.14.99.92,1.71-.22.73-.99,1.14-1.71.92-.73-.22-1.14-.99-.92-1.71Z"/>
        <path class="cls-29" d="m1321.13,738.9c.22-.73.99-1.14,1.71-.92.73.22,1.14.99.92,1.71-.22.73-.99,1.14-1.71.92-.73-.22-1.14-.99-.92-1.71Z"/>
        <path class="cls-29" d="m1321.13,741.72c.22-.73.99-1.14,1.71-.92.73.22,1.14.99.92,1.71-.22.73-.99,1.14-1.71.92-.73-.22-1.14-.99-.92-1.71Z"/>
        <path class="cls-29" d="m1321.13,744.53c.22-.73.99-1.14,1.71-.92.73.22,1.14.99.92,1.71-.22.73-.99,1.14-1.71.92-.73-.22-1.14-.99-.92-1.71Z"/>
        <path class="cls-29" d="m1321.13,747.34c.22-.73.99-1.14,1.71-.92.73.22,1.14.99.92,1.71-.22.73-.99,1.14-1.71.92-.73-.22-1.14-.99-.92-1.71Z"/>
        <path class="cls-29" d="m1321.13,750.16c.22-.73.99-1.14,1.71-.92.73.22,1.14.99.92,1.71-.22.73-.99,1.14-1.71.92-.73-.22-1.14-.99-.92-1.71Z"/>
        <path class="cls-29" d="m1321.13,752.97c.22-.73.99-1.14,1.71-.92.73.22,1.14.99.92,1.71-.22.73-.99,1.14-1.71.92-.73-.22-1.14-.99-.92-1.71Z"/>
        <path class="cls-29" d="m1321.13,755.78c.22-.73.99-1.14,1.71-.92.73.22,1.14.99.92,1.71-.22.73-.99,1.14-1.71.92-.73-.22-1.14-.99-.92-1.71Z"/>
        <path class="cls-29" d="m1321.13,758.59c.22-.73.99-1.14,1.71-.92.73.22,1.14.99.92,1.71-.22.73-.99,1.14-1.71.92-.73-.22-1.14-.99-.92-1.71Z"/>
        <path class="cls-29" d="m1321.13,761.41c.22-.73.99-1.14,1.71-.92.73.22,1.14.99.92,1.71-.22.73-.99,1.14-1.71.92-.73-.22-1.14-.99-.92-1.71Z"/>
        <path class="cls-29" d="m1321.13,764.22c.22-.73.99-1.14,1.71-.92.73.22,1.14.99.92,1.71-.22.73-.99,1.14-1.71.92-.73-.22-1.14-.99-.92-1.71Z"/>
        <path class="cls-29" d="m1321.13,767.03c.22-.73.99-1.14,1.71-.92.73.22,1.14.99.92,1.71-.22.73-.99,1.14-1.71.92-.73-.22-1.14-.99-.92-1.71Z"/>
        <path class="cls-29" d="m1321.13,769.84c.22-.73.99-1.14,1.71-.92.73.22,1.14.99.92,1.71-.22.73-.99,1.14-1.71.92-.73-.22-1.14-.99-.92-1.71Z"/>
        <path class="cls-29" d="m1321.13,772.66c.22-.73.99-1.14,1.71-.92.73.22,1.14.99.92,1.71-.22.73-.99,1.14-1.71.92-.73-.22-1.14-.99-.92-1.71Z"/>
        <path class="cls-29" d="m1321.13,775.47c.22-.73.99-1.14,1.71-.92.73.22,1.14.99.92,1.71-.22.73-.99,1.14-1.71.92-.73-.22-1.14-.99-.92-1.71Z"/>
        <path class="cls-29" d="m1321.13,778.28c.22-.73.99-1.14,1.71-.92.73.22,1.14.99.92,1.71-.22.73-.99,1.14-1.71.92-.73-.22-1.14-.99-.92-1.71Z"/>
        <path class="cls-29" d="m1321.13,781.1c.22-.73.99-1.14,1.71-.92.73.22,1.14.99.92,1.71-.22.73-.99,1.14-1.71.92-.73-.22-1.14-.99-.92-1.71Z"/>
      </g>
      <g>
        <rect class="cls-20" x="1128.08" y="727.17" width="207.07" height="11.06"/>
        <rect class="cls-20" x="1128.08" y="744.71" width="207.07" height="11.06"/>
        <rect class="cls-20" x="1128.08" y="762.25" width="207.07" height="11.06"/>
        <rect class="cls-20" x="1128.08" y="779.79" width="207.07" height="11.06"/>
        <rect class="cls-20" x="1128.08" y="797.33" width="207.07" height="11.06"/>
        <rect class="cls-20" x="1128.08" y="814.87" width="207.07" height="11.06"/>
        <rect class="cls-20" x="1128.08" y="832.41" width="207.07" height="11.06"/>
      </g>
    </g>
    <g>
      <g>
        <path class="cls-29" d="m1543.35,1380.98c.22-.73.99-1.14,1.71-.92.73.22,1.14.99.92,1.71-.22.73-.99,1.14-1.71.92-.73-.22-1.14-.99-.92-1.71Z"/>
        <path class="cls-29" d="m1543.35,1383.79c.22-.73.99-1.14,1.71-.92.73.22,1.14.99.92,1.71-.22.73-.99,1.14-1.71.92-.73-.22-1.14-.99-.92-1.71Z"/>
        <path class="cls-29" d="m1543.35,1386.61c.22-.73.99-1.14,1.71-.92.73.22,1.14.99.92,1.71-.22.73-.99,1.14-1.71.92-.73-.22-1.14-.99-.92-1.71Z"/>
        <path class="cls-29" d="m1543.35,1389.42c.22-.73.99-1.14,1.71-.92.73.22,1.14.99.92,1.71-.22.73-.99,1.14-1.71.92-.73-.22-1.14-.99-.92-1.71Z"/>
        <path class="cls-29" d="m1543.35,1392.23c.22-.73.99-1.14,1.71-.92.73.22,1.14.99.92,1.71-.22.73-.99,1.14-1.71.92-.73-.22-1.14-.99-.92-1.71Z"/>
        <path class="cls-29" d="m1543.35,1395.04c.22-.73.99-1.14,1.71-.92.73.22,1.14.99.92,1.71-.22.73-.99,1.14-1.71.92-.73-.22-1.14-.99-.92-1.71Z"/>
        <path class="cls-29" d="m1543.35,1397.86c.22-.73.99-1.14,1.71-.92.73.22,1.14.99.92,1.71-.22.73-.99,1.14-1.71.92-.73-.22-1.14-.99-.92-1.71Z"/>
        <path class="cls-29" d="m1543.35,1400.67c.22-.73.99-1.14,1.71-.92.73.22,1.14.99.92,1.71-.22.73-.99,1.14-1.71.92-.73-.22-1.14-.99-.92-1.71Z"/>
        <path class="cls-29" d="m1543.35,1403.48c.22-.73.99-1.14,1.71-.92.73.22,1.14.99.92,1.71-.22.73-.99,1.14-1.71.92-.73-.22-1.14-.99-.92-1.71Z"/>
        <path class="cls-29" d="m1543.35,1406.3c.22-.73.99-1.14,1.71-.92.73.22,1.14.99.92,1.71-.22.73-.99,1.14-1.71.92-.73-.22-1.14-.99-.92-1.71Z"/>
        <path class="cls-29" d="m1543.35,1409.11c.22-.73.99-1.14,1.71-.92.73.22,1.14.99.92,1.71-.22.73-.99,1.14-1.71.92-.73-.22-1.14-.99-.92-1.71Z"/>
        <path class="cls-29" d="m1543.35,1411.92c.22-.73.99-1.14,1.71-.92.73.22,1.14.99.92,1.71-.22.73-.99,1.14-1.71.92-.73-.22-1.14-.99-.92-1.71Z"/>
        <path class="cls-29" d="m1543.35,1414.73c.22-.73.99-1.14,1.71-.92.73.22,1.14.99.92,1.71-.22.73-.99,1.14-1.71.92-.73-.22-1.14-.99-.92-1.71Z"/>
        <path class="cls-29" d="m1543.35,1417.55c.22-.73.99-1.14,1.71-.92.73.22,1.14.99.92,1.71-.22.73-.99,1.14-1.71.92-.73-.22-1.14-.99-.92-1.71Z"/>
        <path class="cls-29" d="m1543.35,1420.36c.22-.73.99-1.14,1.71-.92.73.22,1.14.99.92,1.71-.22.73-.99,1.14-1.71.92-.73-.22-1.14-.99-.92-1.71Z"/>
        <path class="cls-29" d="m1543.35,1423.17c.22-.73.99-1.14,1.71-.92.73.22,1.14.99.92,1.71-.22.73-.99,1.14-1.71.92-.73-.22-1.14-.99-.92-1.71Z"/>
        <path class="cls-29" d="m1543.35,1425.99c.22-.73.99-1.14,1.71-.92.73.22,1.14.99.92,1.71-.22.73-.99,1.14-1.71.92-.73-.22-1.14-.99-.92-1.71Z"/>
        <path class="cls-29" d="m1543.35,1428.8c.22-.73.99-1.14,1.71-.92.73.22,1.14.99.92,1.71-.22.73-.99,1.14-1.71.92-.73-.22-1.14-.99-.92-1.71Z"/>
        <path class="cls-29" d="m1543.35,1431.61c.22-.73.99-1.14,1.71-.92.73.22,1.14.99.92,1.71-.22.73-.99,1.14-1.71.92-.73-.22-1.14-.99-.92-1.71Z"/>
        <path class="cls-29" d="m1543.35,1434.42c.22-.73.99-1.14,1.71-.92.73.22,1.14.99.92,1.71-.22.73-.99,1.14-1.71.92-.73-.22-1.14-.99-.92-1.71Z"/>
        <path class="cls-29" d="m1543.35,1437.24c.22-.73.99-1.14,1.71-.92.73.22,1.14.99.92,1.71-.22.73-.99,1.14-1.71.92-.73-.22-1.14-.99-.92-1.71Z"/>
        <path class="cls-29" d="m1543.35,1440.05c.22-.73.99-1.14,1.71-.92.73.22,1.14.99.92,1.71-.22.73-.99,1.14-1.71.92-.73-.22-1.14-.99-.92-1.71Z"/>
        <path class="cls-29" d="m1543.35,1442.86c.22-.73.99-1.14,1.71-.92.73.22,1.14.99.92,1.71-.22.73-.99,1.14-1.71.92-.73-.22-1.14-.99-.92-1.71Z"/>
        <path class="cls-29" d="m1543.35,1445.68c.22-.73.99-1.14,1.71-.92.73.22,1.14.99.92,1.71-.22.73-.99,1.14-1.71.92-.73-.22-1.14-.99-.92-1.71Z"/>
        <path class="cls-29" d="m1543.35,1313.47c.22-.73.99-1.14,1.71-.92.73.22,1.14.99.92,1.71-.22.73-.99,1.14-1.71.92-.73-.22-1.14-.99-.92-1.71Z"/>
        <path class="cls-29" d="m1543.35,1316.29c.22-.73.99-1.14,1.71-.92.73.22,1.14.99.92,1.71-.22.73-.99,1.14-1.71.92-.73-.22-1.14-.99-.92-1.71Z"/>
        <path class="cls-29" d="m1543.35,1319.1c.22-.73.99-1.14,1.71-.92.73.22,1.14.99.92,1.71-.22.73-.99,1.14-1.71.92-.73-.22-1.14-.99-.92-1.71Z"/>
        <path class="cls-29" d="m1543.35,1321.91c.22-.73.99-1.14,1.71-.92.73.22,1.14.99.92,1.71-.22.73-.99,1.14-1.71.92-.73-.22-1.14-.99-.92-1.71Z"/>
        <path class="cls-29" d="m1543.35,1324.73c.22-.73.99-1.14,1.71-.92.73.22,1.14.99.92,1.71-.22.73-.99,1.14-1.71.92-.73-.22-1.14-.99-.92-1.71Z"/>
        <path class="cls-29" d="m1543.35,1327.54c.22-.73.99-1.14,1.71-.92.73.22,1.14.99.92,1.71-.22.73-.99,1.14-1.71.92-.73-.22-1.14-.99-.92-1.71Z"/>
        <path class="cls-29" d="m1543.35,1330.35c.22-.73.99-1.14,1.71-.92.73.22,1.14.99.92,1.71-.22.73-.99,1.14-1.71.92-.73-.22-1.14-.99-.92-1.71Z"/>
        <path class="cls-29" d="m1543.35,1333.16c.22-.73.99-1.14,1.71-.92.73.22,1.14.99.92,1.71-.22.73-.99,1.14-1.71.92-.73-.22-1.14-.99-.92-1.71Z"/>
        <path class="cls-29" d="m1543.35,1335.98c.22-.73.99-1.14,1.71-.92.73.22,1.14.99.92,1.71-.22.73-.99,1.14-1.71.92-.73-.22-1.14-.99-.92-1.71Z"/>
        <path class="cls-29" d="m1543.35,1338.79c.22-.73.99-1.14,1.71-.92.73.22,1.14.99.92,1.71-.22.73-.99,1.14-1.71.92-.73-.22-1.14-.99-.92-1.71Z"/>
        <path class="cls-29" d="m1543.35,1341.6c.22-.73.99-1.14,1.71-.92.73.22,1.14.99.92,1.71-.22.73-.99,1.14-1.71.92-.73-.22-1.14-.99-.92-1.71Z"/>
        <path class="cls-29" d="m1543.35,1344.42c.22-.73.99-1.14,1.71-.92.73.22,1.14.99.92,1.71-.22.73-.99,1.14-1.71.92-.73-.22-1.14-.99-.92-1.71Z"/>
        <path class="cls-29" d="m1543.35,1347.23c.22-.73.99-1.14,1.71-.92.73.22,1.14.99.92,1.71-.22.73-.99,1.14-1.71.92-.73-.22-1.14-.99-.92-1.71Z"/>
        <path class="cls-29" d="m1543.35,1350.04c.22-.73.99-1.14,1.71-.92.73.22,1.14.99.92,1.71-.22.73-.99,1.14-1.71.92-.73-.22-1.14-.99-.92-1.71Z"/>
        <path class="cls-29" d="m1543.35,1352.85c.22-.73.99-1.14,1.71-.92.73.22,1.14.99.92,1.71-.22.73-.99,1.14-1.71.92-.73-.22-1.14-.99-.92-1.71Z"/>
        <path class="cls-29" d="m1543.35,1355.67c.22-.73.99-1.14,1.71-.92.73.22,1.14.99.92,1.71-.22.73-.99,1.14-1.71.92-.73-.22-1.14-.99-.92-1.71Z"/>
        <path class="cls-29" d="m1543.35,1358.48c.22-.73.99-1.14,1.71-.92.73.22,1.14.99.92,1.71-.22.73-.99,1.14-1.71.92-.73-.22-1.14-.99-.92-1.71Z"/>
        <path class="cls-29" d="m1543.35,1361.29c.22-.73.99-1.14,1.71-.92.73.22,1.14.99.92,1.71-.22.73-.99,1.14-1.71.92-.73-.22-1.14-.99-.92-1.71Z"/>
        <path class="cls-29" d="m1543.35,1364.1c.22-.73.99-1.14,1.71-.92.73.22,1.14.99.92,1.71-.22.73-.99,1.14-1.71.92-.73-.22-1.14-.99-.92-1.71Z"/>
        <path class="cls-29" d="m1543.35,1366.92c.22-.73.99-1.14,1.71-.92.73.22,1.14.99.92,1.71-.22.73-.99,1.14-1.71.92-.73-.22-1.14-.99-.92-1.71Z"/>
        <path class="cls-29" d="m1543.35,1369.73c.22-.73.99-1.14,1.71-.92.73.22,1.14.99.92,1.71-.22.73-.99,1.14-1.71.92-.73-.22-1.14-.99-.92-1.71Z"/>
        <path class="cls-29" d="m1543.35,1372.54c.22-.73.99-1.14,1.71-.92.73.22,1.14.99.92,1.71-.22.73-.99,1.14-1.71.92-.73-.22-1.14-.99-.92-1.71Z"/>
        <path class="cls-29" d="m1543.35,1375.36c.22-.73.99-1.14,1.71-.92.73.22,1.14.99.92,1.71-.22.73-.99,1.14-1.71.92-.73-.22-1.14-.99-.92-1.71Z"/>
        <path class="cls-29" d="m1543.35,1378.17c.22-.73.99-1.14,1.71-.92.73.22,1.14.99.92,1.71-.22.73-.99,1.14-1.71.92-.73-.22-1.14-.99-.92-1.71Z"/>
      </g>
      <g>
        <path class="cls-29" d="m1714.41,1380.98c.22-.73.99-1.14,1.71-.92.73.22,1.14.99.92,1.71-.22.73-.99,1.14-1.71.92-.73-.22-1.14-.99-.92-1.71Z"/>
        <path class="cls-29" d="m1714.41,1383.79c.22-.73.99-1.14,1.71-.92.73.22,1.14.99.92,1.71-.22.73-.99,1.14-1.71.92-.73-.22-1.14-.99-.92-1.71Z"/>
        <path class="cls-29" d="m1714.41,1386.61c.22-.73.99-1.14,1.71-.92.73.22,1.14.99.92,1.71-.22.73-.99,1.14-1.71.92-.73-.22-1.14-.99-.92-1.71Z"/>
        <path class="cls-29" d="m1714.41,1389.42c.22-.73.99-1.14,1.71-.92.73.22,1.14.99.92,1.71-.22.73-.99,1.14-1.71.92-.73-.22-1.14-.99-.92-1.71Z"/>
        <path class="cls-29" d="m1714.41,1392.23c.22-.73.99-1.14,1.71-.92.73.22,1.14.99.92,1.71-.22.73-.99,1.14-1.71.92-.73-.22-1.14-.99-.92-1.71Z"/>
        <path class="cls-29" d="m1714.41,1395.04c.22-.73.99-1.14,1.71-.92.73.22,1.14.99.92,1.71-.22.73-.99,1.14-1.71.92-.73-.22-1.14-.99-.92-1.71Z"/>
        <path class="cls-29" d="m1714.41,1397.86c.22-.73.99-1.14,1.71-.92.73.22,1.14.99.92,1.71-.22.73-.99,1.14-1.71.92-.73-.22-1.14-.99-.92-1.71Z"/>
        <path class="cls-29" d="m1714.41,1400.67c.22-.73.99-1.14,1.71-.92.73.22,1.14.99.92,1.71-.22.73-.99,1.14-1.71.92-.73-.22-1.14-.99-.92-1.71Z"/>
        <path class="cls-29" d="m1714.41,1403.48c.22-.73.99-1.14,1.71-.92.73.22,1.14.99.92,1.71-.22.73-.99,1.14-1.71.92-.73-.22-1.14-.99-.92-1.71Z"/>
        <path class="cls-29" d="m1714.41,1406.3c.22-.73.99-1.14,1.71-.92.73.22,1.14.99.92,1.71-.22.73-.99,1.14-1.71.92-.73-.22-1.14-.99-.92-1.71Z"/>
        <path class="cls-29" d="m1714.41,1409.11c.22-.73.99-1.14,1.71-.92.73.22,1.14.99.92,1.71-.22.73-.99,1.14-1.71.92-.73-.22-1.14-.99-.92-1.71Z"/>
        <path class="cls-29" d="m1714.41,1411.92c.22-.73.99-1.14,1.71-.92.73.22,1.14.99.92,1.71-.22.73-.99,1.14-1.71.92-.73-.22-1.14-.99-.92-1.71Z"/>
        <path class="cls-29" d="m1714.41,1414.73c.22-.73.99-1.14,1.71-.92.73.22,1.14.99.92,1.71-.22.73-.99,1.14-1.71.92-.73-.22-1.14-.99-.92-1.71Z"/>
        <path class="cls-29" d="m1714.41,1417.55c.22-.73.99-1.14,1.71-.92.73.22,1.14.99.92,1.71-.22.73-.99,1.14-1.71.92-.73-.22-1.14-.99-.92-1.71Z"/>
        <path class="cls-29" d="m1714.41,1420.36c.22-.73.99-1.14,1.71-.92.73.22,1.14.99.92,1.71-.22.73-.99,1.14-1.71.92-.73-.22-1.14-.99-.92-1.71Z"/>
        <path class="cls-29" d="m1714.41,1423.17c.22-.73.99-1.14,1.71-.92.73.22,1.14.99.92,1.71-.22.73-.99,1.14-1.71.92-.73-.22-1.14-.99-.92-1.71Z"/>
        <path class="cls-29" d="m1714.41,1425.99c.22-.73.99-1.14,1.71-.92.73.22,1.14.99.92,1.71-.22.73-.99,1.14-1.71.92-.73-.22-1.14-.99-.92-1.71Z"/>
        <path class="cls-29" d="m1714.41,1428.8c.22-.73.99-1.14,1.71-.92.73.22,1.14.99.92,1.71-.22.73-.99,1.14-1.71.92-.73-.22-1.14-.99-.92-1.71Z"/>
        <path class="cls-29" d="m1714.41,1431.61c.22-.73.99-1.14,1.71-.92.73.22,1.14.99.92,1.71-.22.73-.99,1.14-1.71.92-.73-.22-1.14-.99-.92-1.71Z"/>
        <path class="cls-29" d="m1714.41,1434.42c.22-.73.99-1.14,1.71-.92.73.22,1.14.99.92,1.71-.22.73-.99,1.14-1.71.92-.73-.22-1.14-.99-.92-1.71Z"/>
        <path class="cls-29" d="m1714.41,1437.24c.22-.73.99-1.14,1.71-.92.73.22,1.14.99.92,1.71-.22.73-.99,1.14-1.71.92-.73-.22-1.14-.99-.92-1.71Z"/>
        <path class="cls-29" d="m1714.41,1440.05c.22-.73.99-1.14,1.71-.92.73.22,1.14.99.92,1.71-.22.73-.99,1.14-1.71.92-.73-.22-1.14-.99-.92-1.71Z"/>
        <path class="cls-29" d="m1714.41,1442.86c.22-.73.99-1.14,1.71-.92.73.22,1.14.99.92,1.71-.22.73-.99,1.14-1.71.92-.73-.22-1.14-.99-.92-1.71Z"/>
        <path class="cls-29" d="m1714.41,1445.68c.22-.73.99-1.14,1.71-.92.73.22,1.14.99.92,1.71-.22.73-.99,1.14-1.71.92-.73-.22-1.14-.99-.92-1.71Z"/>
        <path class="cls-29" d="m1714.41,1313.47c.22-.73.99-1.14,1.71-.92.73.22,1.14.99.92,1.71-.22.73-.99,1.14-1.71.92-.73-.22-1.14-.99-.92-1.71Z"/>
        <path class="cls-29" d="m1714.41,1316.29c.22-.73.99-1.14,1.71-.92.73.22,1.14.99.92,1.71-.22.73-.99,1.14-1.71.92-.73-.22-1.14-.99-.92-1.71Z"/>
        <path class="cls-29" d="m1714.41,1319.1c.22-.73.99-1.14,1.71-.92.73.22,1.14.99.92,1.71-.22.73-.99,1.14-1.71.92-.73-.22-1.14-.99-.92-1.71Z"/>
        <path class="cls-29" d="m1714.41,1321.91c.22-.73.99-1.14,1.71-.92.73.22,1.14.99.92,1.71-.22.73-.99,1.14-1.71.92-.73-.22-1.14-.99-.92-1.71Z"/>
        <path class="cls-29" d="m1714.41,1324.73c.22-.73.99-1.14,1.71-.92.73.22,1.14.99.92,1.71-.22.73-.99,1.14-1.71.92-.73-.22-1.14-.99-.92-1.71Z"/>
        <path class="cls-29" d="m1714.41,1327.54c.22-.73.99-1.14,1.71-.92.73.22,1.14.99.92,1.71-.22.73-.99,1.14-1.71.92-.73-.22-1.14-.99-.92-1.71Z"/>
        <path class="cls-29" d="m1714.41,1330.35c.22-.73.99-1.14,1.71-.92.73.22,1.14.99.92,1.71-.22.73-.99,1.14-1.71.92-.73-.22-1.14-.99-.92-1.71Z"/>
        <path class="cls-29" d="m1714.41,1333.16c.22-.73.99-1.14,1.71-.92.73.22,1.14.99.92,1.71-.22.73-.99,1.14-1.71.92-.73-.22-1.14-.99-.92-1.71Z"/>
        <path class="cls-29" d="m1714.41,1335.98c.22-.73.99-1.14,1.71-.92.73.22,1.14.99.92,1.71-.22.73-.99,1.14-1.71.92-.73-.22-1.14-.99-.92-1.71Z"/>
        <path class="cls-29" d="m1714.41,1338.79c.22-.73.99-1.14,1.71-.92.73.22,1.14.99.92,1.71-.22.73-.99,1.14-1.71.92-.73-.22-1.14-.99-.92-1.71Z"/>
        <path class="cls-29" d="m1714.41,1341.6c.22-.73.99-1.14,1.71-.92.73.22,1.14.99.92,1.71-.22.73-.99,1.14-1.71.92-.73-.22-1.14-.99-.92-1.71Z"/>
        <path class="cls-29" d="m1714.41,1344.42c.22-.73.99-1.14,1.71-.92.73.22,1.14.99.92,1.71-.22.73-.99,1.14-1.71.92-.73-.22-1.14-.99-.92-1.71Z"/>
        <path class="cls-29" d="m1714.41,1347.23c.22-.73.99-1.14,1.71-.92.73.22,1.14.99.92,1.71-.22.73-.99,1.14-1.71.92-.73-.22-1.14-.99-.92-1.71Z"/>
        <path class="cls-29" d="m1714.41,1350.04c.22-.73.99-1.14,1.71-.92.73.22,1.14.99.92,1.71-.22.73-.99,1.14-1.71.92-.73-.22-1.14-.99-.92-1.71Z"/>
        <path class="cls-29" d="m1714.41,1352.85c.22-.73.99-1.14,1.71-.92.73.22,1.14.99.92,1.71-.22.73-.99,1.14-1.71.92-.73-.22-1.14-.99-.92-1.71Z"/>
        <path class="cls-29" d="m1714.41,1355.67c.22-.73.99-1.14,1.71-.92.73.22,1.14.99.92,1.71-.22.73-.99,1.14-1.71.92-.73-.22-1.14-.99-.92-1.71Z"/>
        <path class="cls-29" d="m1714.41,1358.48c.22-.73.99-1.14,1.71-.92.73.22,1.14.99.92,1.71-.22.73-.99,1.14-1.71.92-.73-.22-1.14-.99-.92-1.71Z"/>
        <path class="cls-29" d="m1714.41,1361.29c.22-.73.99-1.14,1.71-.92.73.22,1.14.99.92,1.71-.22.73-.99,1.14-1.71.92-.73-.22-1.14-.99-.92-1.71Z"/>
        <path class="cls-29" d="m1714.41,1364.1c.22-.73.99-1.14,1.71-.92.73.22,1.14.99.92,1.71-.22.73-.99,1.14-1.71.92-.73-.22-1.14-.99-.92-1.71Z"/>
        <path class="cls-29" d="m1714.41,1366.92c.22-.73.99-1.14,1.71-.92.73.22,1.14.99.92,1.71-.22.73-.99,1.14-1.71.92-.73-.22-1.14-.99-.92-1.71Z"/>
        <path class="cls-29" d="m1714.41,1369.73c.22-.73.99-1.14,1.71-.92.73.22,1.14.99.92,1.71-.22.73-.99,1.14-1.71.92-.73-.22-1.14-.99-.92-1.71Z"/>
        <path class="cls-29" d="m1714.41,1372.54c.22-.73.99-1.14,1.71-.92.73.22,1.14.99.92,1.71-.22.73-.99,1.14-1.71.92-.73-.22-1.14-.99-.92-1.71Z"/>
        <path class="cls-29" d="m1714.41,1375.36c.22-.73.99-1.14,1.71-.92.73.22,1.14.99.92,1.71-.22.73-.99,1.14-1.71.92-.73-.22-1.14-.99-.92-1.71Z"/>
        <path class="cls-29" d="m1714.41,1378.17c.22-.73.99-1.14,1.71-.92.73.22,1.14.99.92,1.71-.22.73-.99,1.14-1.71.92-.73-.22-1.14-.99-.92-1.71Z"/>
      </g>
      <g>
        <rect class="cls-20" x="1521.36" y="1324.24" width="207.07" height="11.06"/>
        <rect class="cls-20" x="1521.36" y="1341.78" width="207.07" height="11.06"/>
        <rect class="cls-20" x="1521.36" y="1359.32" width="207.07" height="11.06"/>
        <rect class="cls-20" x="1521.36" y="1376.86" width="207.07" height="11.06"/>
        <rect class="cls-20" x="1521.36" y="1394.4" width="207.07" height="11.06"/>
        <rect class="cls-20" x="1521.36" y="1411.94" width="207.07" height="11.06"/>
        <rect class="cls-20" x="1521.36" y="1429.48" width="207.07" height="11.06"/>
      </g>
    </g>
    <rect class="cls-4" x="1118.11" y="806.15" width="227.87" height="15.43"/>
    <path class="cls-25" d="m1210.07,1313.41s-31.57,142.82-84.92,190.51v-191.42l84.92.91Z"/>
    <path class="cls-25" d="m1268.14,1313.41s-.45,123.3,70.81,184.77v-185.68l-70.81.91Z"/>
    <rect class="cls-4" x="1118.11" y="1418.33" width="227.87" height="15.43"/>
    <g>
      <rect class="cls-4" x="1512.63" y="1418.33" width="227.88" height="15.43"/>
      <path class="cls-4" d="m1505.59,1298.43v430.27h241.95v-430.27h-241.95Zm227.88,416.2h-213.81v-402.12h213.81v402.12Z"/>
    </g>
    <g>
      <path class="cls-1" d="m1720.1,1572.56c-1.83-4.66-5.47-8.49-9.82-10.91-3.88-2.16-8.83-2.89-11.76-6.52-4.1-5.08-1.58-12.67-3.2-19-1.37-5.32-5.84-9.69-10.79-11.81-4.63-1.98-10.37-2.25-13.84-6.32-3.77-4.43-2.52-10.55-3.2-15.85-.96-7.59-6.01-14.31-12.5-18.36-1.94-1.21-4.04-2.22-6.25-3.03-14.57-5.36-33.57-1.66-38.69,15.01-1.56,5.1-1.45,10.82-4.24,15.37-3.04,4.95-9.15,7.88-10.83,13.43-2.12,6.98,3.87,14.48,1.89,21.5-1.29,4.58-5.57,7.56-9.36,10.44-3.79,2.89-7.69,6.72-7.55,11.5.16,5.43,5.55,10.13,6.27,15.09.17,1.09.1,2.19-.3,3.31-.49,1.39-1.44,2.59-1.83,4.01-.86,3.12,1.48,6.48,4.5,7.62,3.04,1.14,6.47.5,9.45-.75,2.99-1.25,5.7-3.07,8.65-4.42.76-.35,1.55-.67,2.34-.95.16-.06.34-.12.5-.17,5.85-2.03,12.21-2.54,18.32-3.74,7.23-1.42,14.41-3.86,21.75-3.35,8.48.59,16.11,5.03,24.05,8.06,8.09,3.09,16.71,4.76,25.36,4.93,3.79.07,7.7-.17,11.22-1.5.68-.25,1.34-.54,1.98-.88,8-4.17,11.09-14.55,7.88-22.73Z"/>
      <path class="cls-1" d="m1586.67,1714.53c1.72-4.03,3.5-8.11,5.29-12.17,8.58-19.33,17.7-37.75,23.86-43.34.7-.65,1.37-1.12,1.99-1.41,13.01-5.97,50.63,5.28,50.63,5.28,0,0,.37.62,1.03,1.75,3.1,5.34,12.53,22.01,18.82,37.73.23.58.46,1.16.69,1.73,1.11,2.88,2.38,7.86,3.19,10.57l-105.5-.12Z"/>
      <path class="cls-24" d="m1653.86,1554.78c14.24.53,36.38,6.86,49.04,27.95,12.66,21.09,18.46,40.6,18.46,40.6l-30.58,11.07-3.16-12.13s-7.91,38.5-15.82,41.66c-7.91,3.16-13.18-2.64-17.93-3.16-4.75-.53-20.04,4.22-32.7.53-12.66-3.69-13.18-13.18-14.77-24.26-1.58-11.07-3.69-21.09-3.69-21.09l-4.75,3.69-24.45-24.45s28.67-29.34,44.49-34.09c15.82-4.75,35.86-6.33,35.86-6.33Z"/>
      <path class="cls-13" d="m1715.17,1625.58s1.03,13.98-2.64,36.71c-3.59,22.21-26.9,36.71-26.9,36.71l-2.37-8.8s15.44-19.87,11.05-57.07l20.86-7.55Z"/>
      <path class="cls-2" d="m1613.15,1519.33s-2.37-2.61-3.71-1.2c-3.42,3.61,1.39,6.97,4.1,7.44l-.39-6.24Z"/>
      <path class="cls-13" d="m1632.22,1480.33c12-1.03,23.05,7.23,25.48,19.03.8,3.88.61,7.7-.36,11.24-2.02,8.75-3.71,15.81-6.33,21.17-2.66,5.43-3.32,11.62-1.57,17.4l1.76,5.84c-12.75,8.99-19.83,3.01-19.83,3.01l-2.09-13.79h0c-15.19.49-17.38-27.35-18.62-35.49h.02c-.06-.3-.12-.61-.16-.91-2.07-13.62,7.75-26.3,21.7-27.5Z"/>
      <path class="cls-1" d="m1637.58,1504.19c3.35,2.51,6.38,5.43,9.39,8.34,3.19,3.08,6.51,6.35,7.77,10.6,3.4-3.51,5.2-8.24,6.62-12.92.66-2.17,1.25-4.39,1.23-6.66-.03-3.21-1.28-6.26-2.51-9.23-1.59-3.82-3.29-7.8-6.47-10.46-2.1-1.76-4.71-2.82-7.34-3.59-6.14-1.79-12.8-2.13-18.93-.31-6.13,1.83-11.68,5.94-14.65,11.61-3.82,7.3-3.04,16.06-2.16,24.25.31-3.5,2.11-6.67,3.87-9.72,1.15-1.98,2.32-4,4.06-5.49,2.96-2.54,3.94-2.24,9.07-6.99,2.26,4.79,5.86,7.41,10.05,10.56Z"/>
      <path class="cls-13" d="m1651.12,1518.33c.27-.82.85-1.51,1.59-1.95,1.54-.91,4.31-2.07,6.6-.38,3.35,2.47-1.33,11.08-7.7,8.12,0,0-1.91-1.4-.49-5.78Z"/>
      <path class="cls-1" d="m1617.1,1518.96c-.28-1.12.4-2.26,1.52-2.54,1.12-.28,2.26.4,2.54,1.52.28,1.12-.4,2.26-1.52,2.54-1.12.28-2.26-.4-2.54-1.52Z"/>
      <path class="cls-1" d="m1636.97,1518.18c-.28-1.12.4-2.26,1.52-2.54,1.12-.28,2.26.4,2.54,1.52.28,1.12-.4,2.26-1.52,2.54-1.12.28-2.26-.4-2.54-1.52Z"/>
      <path class="cls-2" d="m1623.89,1533.23s1.64-1.47,2.73-1.28c1.09.19,1.8,1.42,1.8,1.42,0,0,.51-1.34,1.81-1.49,1.29-.14,5.02.5,5.02.5,0,0-2.83,5.83-6.79,5.24-3.96-.59-4.5-4.22-4.5-4.22l-.07-.18Z"/>
      <path class="cls-32" d="m1627.73,1535.14c4.53.51,8.53-3.17,8.58-3.22.12-.11.12-.3.01-.42-.11-.12-.3-.12-.42-.01-.26.25-6.5,5.99-12.03,1.3-.12-.11-.31-.09-.41.03-.11.12-.09.31.03.42,1.39,1.18,2.84,1.74,4.23,1.9Z"/>
      <path class="cls-1" d="m1643.32,1514.18c.24-.05.46-.21.59-.44.23-.42.07-.95-.36-1.18-.13-.07-3.17-1.64-6.95-.69-.47.12-.75.59-.63,1.06.12.47.63.75,1.06.63,3.15-.79,5.68.52,5.7.53.19.1.39.12.59.08Z"/>
      <path class="cls-1" d="m1621.73,1513.8c.23-.09.42-.29.5-.54.15-.46-.11-.95-.56-1.09-.14-.04-3.38-1.06-6.96.57-.44.2-.63.72-.43,1.15.2.44.73.63,1.15.43,2.96-1.35,5.68-.5,5.71-.5.2.06.41.05.59-.02Z"/>
      <path class="cls-2" d="m1628.85,1527.48c-2.5,0-3.59-1.71-3.83-2.76-.04-.18-.01-.37.08-.54,1.79-3.01.97-6.89.96-6.93-.09-.39.16-.79.56-.87.39-.09.78.16.87.56.04.18.91,4.25-.96,7.7.23.55,1.01,1.74,3.32,1.27.41-.08.78.18.86.57.08.4-.18.78-.57.86-.47.09-.9.14-1.29.14Z"/>
      <path class="cls-9" d="m1602.7,1616.14c-.09,0-.17-.07-.18-.17-.96-10.48,7.15-25.27,7.23-25.42.05-.09.16-.12.25-.07.09.05.12.16.07.25-.08.15-8.13,14.84-7.18,25.21,0,.1-.06.19-.17.2,0,0-.01,0-.02,0Z"/>
      <path class="cls-9" d="m1660.85,1623.09c-8.93,0-16.49-5.15-16.59-5.23-.08-.06-.1-.17-.04-.25s.17-.1.25-.05c.14.1,14.46,9.86,26.87,2.28.08-.05.2-.02.25.06.05.09.03.2-.06.25-3.53,2.16-7.21,2.94-10.68,2.94Z"/>
      <path class="cls-13" d="m1516.24,1586.39s-2.67-11.2-4.53-15.03c-1.86-3.83-.82-8.93-3.27-8.66-2.46.27-2.08,8.46-2.08,8.46,0,0-6.92-5.22-8.8-7.14-1.88-1.93-6.13-4.51-7.64-3.25-1.52,1.27,8.18,9.89,8.18,9.89,0,0-8.87-6.46-10.52-5.59-1.65.87,8.43,10.75,8.43,10.75,0,0-9.13-7.35-10.35-7.3-1.22.05-1.21,1.61,1.4,5,2.6,3.39,6.13,6.18,6.13,6.18,0,0-6.8-4.68-7.81-4.96-1.01-.28-2.61.08,1.77,4.69,4.38,4.61,15.48,13.03,22.74,14.99l6.37-8.02Z"/>
      <path class="cls-13" d="m1592.98,1614.67s-23.13,27.71-41.98,24.67c-18.85-3.03-44.47-48.88-44.47-48.88l9.12-5.56s28.41,31.07,38.33,29.09c9.92-1.98,23.94-14.38,23.94-14.38l15.07,15.07Z"/>
    </g>
    <g>
      <g>
        <path class="cls-25" d="m1674.78,1666.83c-.17-.5-.34-.99-.52-1.49-.76-2.11-1.6-4.15-2.51-6.09-2.62-5.61-5.87-10.45-9.68-14.08-.07-.07-.14-.14-.2-.2-.67-.62-1.35-1.21-2.06-1.75-.01-.01-.03-.02-.05-.03-1.22-.96-2.49-1.78-3.82-2.47-.2-.1-.39-.21-.59-.31-2.24-1.16-4.41-2.15-6.49-2.98-.74-.3-1.47-.58-2.19-.83-.01,0-.03-.01-.04-.02-.85-.3-1.69-.59-2.52-.84-12.94-3.98-22.17-1.54-26.51,4.54-.09.13-.18.26-.27.39,0,0,0,0,0,0-6.84,10.43-3.12,38.55.11,57.23h0c.02.1.03.19.05.29,1.64,9.43,3.13,16.39,3.03,17.35,0,.05-.01.09-.03.1l48.54-.05h8.3c1.33-5.27,2.04-11,2.18-16.88.26-10.76-1.4-22.03-4.73-31.88Zm-42.84,32.29c-1.52-.19-3-.37-4.4-.53l2.35-14.8s6.81,12.66,2.05,15.34Z"/>
        <path class="cls-25" d="m1640.99,1632.87c-1.61-1.9-1.83-4.6-.61-6.77.01-.02.02-.04.03-.05,1.2-2.14,2.52-5.16,2.62-8.18.03-.89-.04-1.78-.26-2.64-.02-.1-.05-.21-.08-.32-.63-2.26-2.19-5.25-4.47-7.93-.73-.86-1.54-1.69-2.41-2.44h0c-2.8-2.44-6.3-4.19-10.24-4.08-.1,0-.21,0-.3,0-.41.01-.81.03-1.2.06-4.16.27-6.61,1.2-8.31,2.47-3.14,2.35-3.79,5.88-8.04,8.74-.5.34-1.04.66-1.65.97-.81.42-1.24,2.1-1.12,4.33,0,.14.02.29.03.43.01.14.02.27.04.41.06.55.16,1.13.28,1.73.03.15.07.31.1.47.24,1.02.58,2.08,1.03,3.13.06.13.11.26.17.38,1.65,3.64,4.63,7.06,9.37,8.23.11,4.46,1.47,9.82,2.49,12.23,1.49,3.53,30.42-6.63,30.42-6.63-2.84-.96-6.16-2.53-7.88-4.55Z"/>
        <path class="cls-25" d="m1635.81,1604.54c.07-.55-4.04-14.49-8.78-14.63-4.74-.14-3.34,18.94,0,18.67,3.34-.28,8.36-.56,8.78-4.04Z"/>
        <path class="cls-22" d="m1627.5,1607.14c.07-.55-4.04-14.49-8.78-14.63-4.74-.14-3.34,18.95,0,18.67,3.34-.28,8.36-.56,8.78-4.04Z"/>
        <g>
          <path class="cls-22" d="m1659.76,1643.19s-11.48.28-11.99,5.67c-.51,5.39-9.66,8.67-4.74,12.89,4.93,4.22,13.37,2.66,16.88-.78,3.51-3.44,9.52-6.2,9.52-6.2,0,0-4.36-8.55-9.67-11.59Z"/>
          <path class="cls-22" d="m1679.51,1698.71c-4.92-1.91-10.42-8.84-15.62-5.32-7.27,4.92-18.05-1.88-17.38-11.02.67-9.14,16.68-4.69,18.36-8.67,1.14-2.71,6.56-5.42,9.91-6.87,3.33,9.85,4.99,21.12,4.73,31.88Z"/>
          <path class="cls-22" d="m1641.04,1644.17s-4.8,2.34-4.34,4.69c.47,2.34,4.56,2.34,6.32.59,1.76-1.76,1.32-7.58-1.99-5.27Z"/>
          <path class="cls-22" d="m1642.68,1614.9c-1.86-.14-4.25-.98-5.27-.52-1.52.68-3.75,2.25-4.92,0-1.17-2.25,1.76-2.91,2.7-5.14.48-1.14,1.83-1.85,3.03-2.27,2.28,2.68,3.84,5.67,4.47,7.93Z"/>
          <path class="cls-22" d="m1643.03,1617.86c-.1,3.02-1.42,6.04-2.62,8.18-1.18-.72-2.51-2-4.18-2.38-.14-.03-.28-.06-.42-.08-2.7-.35-4.35-1.94-4.81-3.72-.1-.36-.15-.72-.15-1.08,0-2.17,4.32,0,6.91-1.35,1.5-.79,3.69-.21,5.26.42Z"/>
        </g>
        <g>
          <path class="cls-25" d="m1664.83,1704.05s-54.38-9.27-65.14-5.75c-10.77,3.52-12.62,17-2.97,17.14s73.23.15,73.23.15l-5.11-11.54Z"/>
          <path class="cls-1" d="m1664.87,1703.77l-.04.28-.04.28c-.27-.04-19.56-2.99-34.02-4.79-.02,0-.03,0-.05,0-5.6-.69-10.46-1.22-13.22-1.34h-.06v-.28s0,0,0,0v-.27c2.23.09,5.84.45,10.1.95,1.4.16,2.88.35,4.4.53,14.34,1.81,32.67,4.62,32.93,4.66Z"/>
        </g>
      </g>
      <path class="cls-14" d="m1607.88,1611.62s-1.99.46-2.7,1.93c-.7,1.45-.24,3.42-.24,3.42,0,0,4.79-2.05,2.94-5.34Z"/>
    </g>
    <path class="cls-13" d="m1681.86,1701.35c-4.63,2.4-10.89,4.37-15.55,5.38h0c-1.28.29-2.44.49-3.41.61-5.61.7-5.02-.64-4.29-1.21.68-.54,6.74-2.65,7.58-2.94-.63.16-4.12,1.02-7.56,1.09-3.8.07-4.92-.74-4.31-1.64.59-.87,10.11-3.39,10.67-3.54-.63.1-12.36,1.95-12.12.35.24-1.56,8.65-4.29,9.49-4.56-.97.2-11.23,2.28-11.33.6-.1-1.75,3.99-3.43,6.36-3.75,2.38-.33,9.76-2.52,9.76-2.52,0,0-6.05-4.06-4.95-5.96,1.11-1.9,4.2,1.54,7.92,2.23,2.02.38,5.74,1.73,8.69,2.9.68.26,1.32.52,1.88.75,1.53.62,2.57,1.06,2.57,1.06l.78,2.88,1.5,5.6.09.31c-1.03.82-2.32,1.61-3.77,2.36Z"/>
    <polygon class="cls-12" points="909.16 655.08 954.46 681.03 1966.64 681.03 1966.64 655.08 909.16 655.08"/>
    <g>
      <circle class="cls-25" cx="1278.09" cy="1499.02" r="32.99"/>
      <path class="cls-20" d="m1303.69,1498.78c0-14.49-11.75-26.24-26.24-26.24s-26.24,11.75-26.24,26.24,11.75,26.24,26.24,26.24,26.24-11.75,26.24-26.24Z"/>
      <path class="cls-4" d="m1278.01,1495.64l.02-16.05.95,1.17c.12.14.28.21.45.21.13,0,.26-.04.37-.13.25-.2.29-.57.08-.82l-1.98-2.43c-.07-.08-.16-.13-.25-.17-.01,0-.02-.02-.03-.02-.01,0-.02,0-.04,0-.11-.03-.21-.03-.32,0-.01,0-.02.01-.04.02-.05.02-.11.04-.15.08-.03.03-.05.06-.08.1,0,.01-.02.01-.03.02l-1.79,2.6c-.18.26-.12.63.15.81.26.18.63.12.81-.15l.73-1.06-.02,15.81c-1.19.24-2.12,1.2-2.31,2.41l-8.18-.02.84-1.03c.2-.25.17-.62-.08-.82-.25-.2-.61-.17-.82.08l-1.62,1.98s-.04.07-.06.11c0,.01-.02.02-.03.03,0,0,0,.02,0,.02-.04.09-.05.19-.03.29,0,.02.01.03.02.05.02.08.06.16.12.22,0,.01,0,.03.02.04l1.73,1.79c.11.12.27.18.42.18s.29-.05.41-.16c.23-.22.24-.59.01-.82l-.77-.8,8.08.02c.31,1.28,1.46,2.24,2.84,2.24,1.62,0,2.94-1.31,2.94-2.94,0-1.42-1.01-2.61-2.35-2.88Z"/>
    </g>
    <path class="cls-4" d="m1353.02,1131.62h-241.95v-430.27h241.95v430.27Zm-227.87-14.07h213.8v-402.12h-213.8v402.12Z"/>
    <g class="cls-35">
      <g>
        <g>
          <path class="cls-19" d="m1531.28,1043.01s-11.83,1.54-15.98,3.05c-4.15,1.5-9.29-.12-9.28,2.44.01,2.56,8.49,3.06,8.49,3.06,0,0-6.12,6.57-8.31,8.3-2.19,1.73-5.31,5.83-4.17,7.53,1.14,1.7,11.07-7.36,11.07-7.36,0,0-7.61,8.45-6.89,10.25.72,1.79,11.99-7.54,11.99-7.54,0,0-8.56,8.62-8.64,9.88-.08,1.26,1.53,1.42,5.3-.9,3.77-2.32,7.03-5.65,7.03-5.65,0,0-5.56,6.51-5.96,7.52-.39,1.01-.2,2.7,5.02-1.32,5.22-4.02,15.1-14.55,17.9-21.82l-7.57-7.43Z"/>
          <path class="cls-19" d="m1573.88,1279.29s-2.33,25.63-2.57,25.98c-.24.34,1.49,3.77,1.49,3.77l7.92,2.3,7.72-2.61s1.86-23.86,3.03-27.54c1.17-3.67-17.59-1.9-17.59-1.9Z"/>
          <path class="cls-23" d="m1588.44,1308.73s-9.65,2.27-17.03-3.95c0,0-32.2,8.35-32.19,17.28,0,0-1.6,2.49,11.88,3.34,13.48.85,34.4,2.45,34.99,2.2.59-.25,3.07,1.44,2.34-18.86Z"/>
          <path class="cls-19" d="m1715.43,1265.13s14.91,20.98,14.96,21.39c.04.42,3.58,1.89,3.58,1.89l7.51-3.41,4.16-7.01s-14.12-19.33-15.62-22.87c-1.5-3.55-14.59,10.01-14.59,10.01Z"/>
          <path class="cls-23" d="m1745.64,1277.99s-5.84,8.01-15.5,8.09c0,0-19.01,27.3-13.19,34.07,0,0,.41,2.93,11.2-5.2,10.79-8.13,27.71-20.54,28-21.11.29-.58,3.27-.9-10.5-15.84Z"/>
          <path class="cls-25" d="m1590.82,1087.65s-26.1,76.13-28.18,90.98c-2.08,14.85,1.54,103.79,1.54,103.79,0,0,7.28,3.34,14.09,4.92,6.81,1.58,16.17,1.02,16.17,1.02,0,0,11.11-86.87,12.8-95.41,1.69-8.54,19.67-56.37,26.12-58.27,6.45-1.9,14.75,58.54,28.54,81.87,13.79,23.33,50.67,59.64,50.67,59.64,0,0,24.57-15.16,24.85-19.75.29-4.59-21.68-19.29-33.8-61.21-12.12-41.92-5.14-97.94-5.14-97.94l-78.3-18.75-29.37,9.1Z"/>
          <path class="cls-27" d="m1650.84,921.32s-15.22,5.68-21.22,4.87c-6-.81-23.15,4.16-47.59,42.38-24.43,38.21-58.35,69.35-58.35,69.35l13.44,19.86s41.79-12.06,62.27-35.41c0,0-10.1,57.59-17.64,74.45,0,0,15.94,7.54,33.71,13.41,17.77,5.87,64.11,4.03,64.11,4.03l6.3-10.89,6.42,11.26,16.58-2.63,3.48-55.3s46.21-16.97,26.7-64c-19.5-47.03-52.92-69.16-88.2-71.38Z"/>
          <path class="cls-33" d="m1690.22,1000.15l.83-.22c-5.21-19.14-12.84-35.31-12.92-35.47l-.78.37c.08.16,7.67,16.26,12.87,35.32Z"/>
          <g>
            <path class="cls-22" d="m1621.18,1016.14s-3.79,9.48-6.09,13.73c-2.3,4.25,3.36,7.59.61,9.97-2.75,2.39-6.5-.94-7.74-5.89-1.24-4.95-.98-15.52-.98-15.52l14.2-2.3Z"/>
            <path class="cls-22" d="m1651.31,952.76c-1.65-1.62-8.29-15.73-2.92-17.35,5.37-1.62,6.31,1.39,5.71,6.03-.6,4.64,1.02,9.63,1.02,9.63l-3.8,1.68Z"/>
            <path class="cls-25" d="m1654.95,981.59c.08-6.69-13.92-18.56-8.72-26.57,5.2-8.01,13.92-8.07,20.35-9.02,6.43-.94,7.69-7.97,10.83-6.89,3.14,1.08,1.83,14.02-6.2,27.67l1.7,11.99s4.47,1.07,8.1-.17c3.64-1.23,8.52-5.68,10.05-5.21,1.54.46,2.91,4.42-.91,7.82-3.82,3.4-12.5,5.54-12.5,5.54,0,0,8.28,5.12,12.4,4.99,4.12-.13,6.39-3.61,8.47.22,2.08,3.83-6.31,8.09-12.13,8.69-5.82.6-13.67-1.23-13.67-1.23,0,0-8.65,13.55-25.36,19.61-16.72,6.06-30.39,2.22-30.39,2.22,0,0-6.49,5.54-12.51,7.83-6.02,2.29.6,12.1-4.15,13.82-4.75,1.72-8.45-7.48-7.79-11.58.66-4.1,5.27-9.57,5.37-13.22.09-3.66-1.43-10.97-1.43-10.97,0,0-12.2-6.77-14.72-13.83-2.52-7.06-1.29-16.74,3.76-16.5,5.05.24,1.36,24.13,13.35,24.14,0,0,4.67-4.92,11.91-6.61s13.09,6.38,25.65.81c12.56-5.56,18.54-13.54,18.54-13.54Z"/>
            <path class="cls-33" d="m1662.04,954.66c-.43-.97-1.56-1.4-2.52-.97-.96.43-1.4,1.56-.97,2.52.43.96,1.56,1.4,2.52.97.96-.43,1.4-1.56.97-2.52Z"/>
            <path class="cls-33" d="m1679.28,937.11c-.67-1.5-2.42-2.18-3.93-1.52-1.5.67-2.18,2.42-1.52,3.93.66,1.5,2.42,2.18,3.93,1.52,1.5-.67,2.18-2.42,1.52-3.93Z"/>
            <path class="cls-22" d="m1652.05,958.28c.61,1.76-9.18,2.03-10,6.2-.82,4.17-7.46,14.15-12.53,9.74-5.08-4.41,2.4-12.86,9.56-16.03,7.16-3.17,11.65-3.75,12.97.1Z"/>
          </g>
          <path class="cls-19" d="m1643.89,1004.33s-7.35-9.39-10.76-12.2c-3.41-2.8-4.63-8.05-6.83-6.74-2.2,1.31,1.7,8.87,1.7,8.87,0,0-8.77-1.92-11.38-2.92-2.61-1-7.72-1.6-8.6.25-.88,1.85,11.97,5.78,11.97,5.78,0,0-11.15-2.24-12.33-.71-1.18,1.53,12.59,6.47,12.59,6.47,0,0-11.78-2.97-12.9-2.4-1.13.57-.44,2.04,3.47,4.1,3.91,2.07,8.44,3.17,8.44,3.17,0,0-8.43-1.47-9.5-1.29-1.07.18-2.42,1.2,3.7,3.65,6.12,2.45,20.21,5.58,27.89,4.28l2.53-10.31Z"/>
          <path class="cls-33" d="m1702.78,1057.37c5.87.37,9.52-.23,9.64-.25l-.15-.84c-.4.06-40.84,6.68-71.01-39.82l3.28-12.41c3.35-.66,38.2-7.27,68.73-.88l.18-.84c-32.13-6.73-68.98.85-69.34.93l-.26.05-3.52,13.29.1.16c21.52,33.28,48.3,39.73,62.35,40.61Z"/>
          <path class="cls-27" d="m1713.27,1003.17s-17.37-2.72-31.77-2.75c-16.32-.03-36.92,3.32-36.92,3.32l-3.32,12.72s9.45,14.1,14.12,17.56c4.67,3.46,57.9-30.84,57.9-30.84Z"/>
        </g>
        <g>
          <g>
            <path class="cls-2" d="m1626.85,884.5s-1.69-3.13-3.34-2.07c-4.22,2.71-.64,7.01,1.91,8.13l1.43-6.05Z"/>
            <path class="cls-13" d="m1626.97,873.52h.02c.02-.3.03-.62.06-.93,1.26-13.85,13.96-23.9,27.92-21.7,11.63,1.84,20.36,12.02,20.38,23.8,0,4.37-1.12,8.42-3.09,11.92-2.75,5.43-5.15,10.08-7.6,13.9-4.04,6.32-5.83,13.82-5.25,21.3l.45,5.88c-15.53,6.53-21.61-1.41-21.61-1.41l.7-10.66c.09-1.39-.9-2.61-2.28-2.82,0,0-.02,0-.03,0-18.25-2.87-10.43-30.99-9.68-39.26Z"/>
            <path class="cls-26" d="m1650.65,888.42c.11-1.24,1.21-2.15,2.45-2.04,1.24.11,2.15,1.21,2.04,2.45-.11,1.24-1.21,2.15-2.45,2.04-1.24-.11-2.15-1.21-2.04-2.45Z"/>
            <path class="cls-26" d="m1631.07,882.62c.11-1.24,1.21-2.15,2.45-2.04,1.24.11,2.15,1.21,2.04,2.45-.11,1.24-1.21,2.15-2.45,2.04-1.24-.11-2.15-1.21-2.04-2.45Z"/>
            <path class="cls-26" d="m1659,885.66c.23.02.47-.02.69-.13.66-.32.93-1.11.61-1.76-.95-1.98-4.15-5.18-9.4-3.13-.68.27-1.01,1.03-.75,1.71.27.68,1.03,1.01,1.71.75,4.31-1.69,5.99,1.67,6.06,1.82.21.43.62.7,1.07.74Z"/>
            <path class="cls-26" d="m1638.29,880.24c.23.02.47-.02.69-.13.66-.32.93-1.11.62-1.76-.96-1.98-4.15-5.18-9.4-3.13-.68.27-1.01,1.03-.75,1.71.27.68,1.03,1.01,1.71.75,4.31-1.69,5.99,1.67,6.06,1.82.21.43.62.7,1.07.74Z"/>
            <polygon class="cls-26" points="1677.25 878.84 1669.23 894.54 1664.93 893.27 1664.22 872 1677.25 878.84"/>
            <path class="cls-13" d="m1664.3,892.69c.46-.74,1.19-1.28,2.03-1.53,1.72-.52,4.73-.98,6.56,1.22,2.69,3.23-3.98,10.53-9.51,6.1,0,0-1.53-1.83.92-5.79Z"/>
            <path class="cls-2" d="m1638.38,895.5c2.06,1.25,4.08.26,4.1.25.19-.1.27-.33.17-.52-.1-.19-.33-.27-.53-.18-.09.05-2.34,1.12-4.31-1.02-.32-.35-.48-.62-.47-.81.01-.27.36-.58.85-1.02,1.12-1.01,3-2.69,3.91-6.8.05-.21-.09-.42-.3-.47-.21-.05-.42.09-.47.3-.86,3.87-2.55,5.38-3.67,6.39-.61.54-1.08.97-1.11,1.57-.02.42.19.85.67,1.38.37.4.75.71,1.13.94Z"/>
            <path class="cls-20" d="m1647.05,900.41s-9.25.29-14.8-2.94c0,0,.8,7.17,6.06,8.21,5.27,1.04,8.74-5.28,8.74-5.28Z"/>
            <path class="cls-26" d="m1631.7,864.51s-3.68,2.12-5.87,16.67c0,0,.31-16.41,2.29-18.04,1.98-1.63,3.58,1.38,3.58,1.38Z"/>
          </g>
          <path class="cls-26" d="m1669.03,849.79c-.69-.71-1.97-1.28-2.55-.48-.23.32-.24.75-.21,1.15.08,1.16.36,2.3.81,3.37-4.06-4.76-10.84-6.24-17.11-6.15-6.26.09-12.48,1.46-18.74,1.15-2.48-.12-5.45-.3-6.91,1.71-1.02,1.4-.78,3.45.24,4.86,1.02,1.4,2.67,2.23,4.35,2.64-1.29-.54-2.91-.18-3.84.87-.93,1.05-1.1,2.7-.4,3.92,1.07,1.86,3.53,2.27,5.66,2.45,6.8.56,13.63.75,20.45.58-.99.8-1.98,1.6-2.98,2.4-.34.27-.69.56-.85.97-.22.55-.03,1.2.3,1.7.84,1.3,2.44,1.93,3.98,2.03,1.54.1,3.07-.25,4.6-.5,2.23-.36,4.49-.52,6.74-.47.47.01.95.03,1.37.23.57.27.95.81,1.35,1.3,2.4,2.89,6.2,4.12,9.8,5.21,1.12.34,2.59.56,3.21-.43.24-.38.27-.86.29-1.31.18-5.41-1.14-10.86-3.77-15.59.67,1.21,2.34,1.51,3.08.1.95-1.8-1.31-3.28-2.58-4.02-1.16-.68-2.27-.82-3.13-1.95-1.36-1.77-1.5-4.03-3.17-5.75Z"/>
        </g>
      </g>
    </g>
    <g>
      <path class="cls-13" d="m1346.66,1031.62s.14-12.54,1.2-17.07c1.06-4.52-1.27-9.69,1.4-9.99s4.24,8.49,4.24,8.49c0,0,6.1-7.21,7.64-9.71,1.54-2.5,5.43-6.27,7.35-5.29s-6.32,12.48-6.32,12.48c0,0,7.88-9,9.85-8.47,1.96.53-6.38,13.45-6.38,13.45,0,0,7.94-10.01,9.25-10.25,1.31-.24,1.67,1.42-.28,5.65-1.95,4.23-5.03,8.04-5.03,8.04,0,0,6.11-6.62,7.12-7.15,1.01-.54,2.79-.54-.76,5.41-3.55,5.96-13.33,17.58-20.57,21.4l-8.7-6.99Z"/>
      <path class="cls-31" d="m1360.32,1038.62s-29.35,56.18-50.25,56.18c-19.53,0-29.06-16.4-30.23-18.54-.08-.15-.12-.23-.12-.23v.26s1,41.25,1,41.25h-104.48c-14.36-13.77-27.92-28.55-29.61-36.61-3.73-17.84,9.7-85.15,20.75-98.59,9.74-11.83,43.12-22.51,50.94-24.88,1.06-.32,1.65-.49,1.65-.49,0,0,9.88,1.18,21.56,3.86,12.38,2.85,26.81,7.4,33.71,14.05,11.3,10.88,24.35,57.27,28.22,71.77.79,2.98,3.86,4.69,6.84,3.88,13.9-3.77,34.61-23.9,34.61-23.9l1.84,1.43,11.37,8.84,2.21,1.72Z"/>
      <path class="cls-1" d="m1279.72,1076.29c-.14,0-.25-.11-.26-.25l-.99-29.5s0-.09.03-.13c.05-.09,5.19-9.51,5.19-18.78s-10.27-19.62-10.37-19.72c-.1-.1-.1-.26,0-.37.1-.1.27-.1.37,0,.11.11,10.52,10.63,10.52,20.09s-4.77,18.12-5.22,18.97l.99,29.42c0,.14-.11.26-.25.27h0Z"/>
      <path class="cls-1" d="m1224.47,1117.55h-.62l-29.96-42.56c-1.37-1.93-2.01-4.3-1.8-6.67l4.65-52.41c0-.14.13-.24.28-.23.14,0,.24.14.23.28l-4.64,52.4c-.2,2.24.4,4.49,1.7,6.33l30.15,42.82s.01.02.01.03Z"/>
      <g>
        <path class="cls-26" d="m1248.47,866.82c7.75.13,16.01,4.67,17.83,12.2.61,2.53.5,5.3,1.79,7.56,2.61,4.57,9.71,5.08,12.08,9.78,2.42,4.81-1.67,10.61-.53,15.87.75,3.46,3.63,6.04,5.12,9.25,2.28,4.91,1.01,10.95-2.18,15.32-3.19,4.37-8.02,7.29-13.02,9.35-2.35.97-5.02,2.01-5.98,4.36-.33.81-.42,1.7-.65,2.55-1.31,4.78-7.02,7.07-11.96,6.63-4.93-.44-9.45-2.83-14.16-4.34-16.55-5.34-35.71-.04-51.22-7.89-1.72-.87-3.54-2.14-3.79-4.05-.37-2.76,2.61-4.72,3.62-7.32,1.82-4.69-3.07-9.03-5.08-13.64-2.02-4.65-.83-10.51,2.85-14,2.49-2.36,5.97-3.72,7.8-6.62,1.79-2.82,1.58-6.41,2.2-9.69,1.2-6.37,5.74-11.82,11.38-14.99,6.5-3.65,13.58-3.62,20.69-4.87,7.92-1.4,15-5.6,23.23-5.46Z"/>
        <path class="cls-13" d="m1238.54,873.81c-14.06-1.27-27.06,8.36-29.98,22.17-.96,4.54-.76,9.03.37,13.18,2.32,10.27,4.26,18.56,7.31,24.85,3.09,6.38,3.83,13.64,1.75,20.41l-.83,2.71c-.79,2.57.34,5.34,2.69,6.64,7.26,4.02,12.62,3.72,15.82,2.78,2.05-.6,3.56-2.34,3.89-4.45l2.09-13.37h0c17.81.65,20.52-31.97,22.02-41.51h-.03c.07-.35.14-.71.2-1.07,2.5-15.96-8.95-30.88-25.3-32.35Z"/>
        <path class="cls-26" d="m1256.06,919.19c.34-1.31-.45-2.65-1.77-2.99s-2.65.45-2.99,1.76c-.34,1.31.45,2.65,1.77,2.99,1.31.34,2.65-.45,2.99-1.77Z"/>
        <path class="cls-26" d="m1232.78,918.17c.34-1.31-.45-2.65-1.77-2.99-1.31-.34-2.65.45-2.99,1.76s.45,2.65,1.77,2.99c1.31.34,2.65-.45,2.99-1.77Z"/>
        <path class="cls-26" d="m1225.35,913.45c-.29-.06-.54-.24-.69-.52-.26-.5-.07-1.12.42-1.38.15-.08,3.73-1.91,8.15-.77.55.14.88.7.74,1.24-.14.55-.74.87-1.24.73-3.68-.95-6.66.58-6.69.6-.22.12-.46.14-.69.1Z"/>
        <path class="cls-26" d="m1250.67,913.12c-.27-.11-.49-.34-.59-.64-.17-.54.13-1.11.67-1.28.16-.05,3.97-1.23,8.15.71.51.24.74.84.5,1.35-.23.51-.86.73-1.35.5-3.46-1.6-6.65-.62-6.69-.61-.24.08-.48.06-.69-.03Z"/>
        <path class="cls-2" d="m1243.31,928.52c-.67.14-1.48.15-2.47-.06-.19-.04-.32-.23-.28-.43.04-.2.23-.32.43-.28,3.42.71,4.36-1.44,4.54-2-2.23-3.94-1.19-8.68-1.15-8.89.04-.19.24-.32.43-.27.19.04.32.24.27.43-.01.05-1.04,4.78,1.14,8.5.05.08.06.17.04.26,0,.03-.55,2.23-2.96,2.73Z"/>
        <path class="cls-26" d="m1223.87,907.72c3.16-4.44,5.53-9.38,8.14-14.16.37-.68.76-1.37,1.33-1.88.87-.78,2.06-1.07,3.2-1.34,2.58-.6,5.67-1.08,7.55.79,2.09,2.07,1.3,5.62,2.45,8.32,1.87,4.4,8.31,5.51,9.96,10,1.32,3.57-.94,8.09,1.33,11.14.93,1.25,2.45,1.94,3.4,3.18,3.09,4.01-1.52,10.65,1.58,14.66,3.06-4.9,5.86-9.97,8.37-15.17.64-1.32,1.27-2.69,1.35-4.16.15-2.8-1.69-5.25-2.98-7.74-2.35-4.56-2.96-9.78-4.14-14.77-1.39-5.91-3.63-11.61-6.63-16.89-.5-.89-1.05-1.78-1.85-2.41-.97-.76-2.22-1.05-3.43-1.31-5.96-1.29-12-2.47-18.1-2.52-6.1-.05-12.33,1.06-17.63,4.1-2.06,1.18-3.98,2.65-5.55,4.43-1.75,1.99-3.05,4.33-4.34,6.66-1.57,2.84-3.16,5.74-3.73,8.93-.46,2.63-.2,5.33.1,7.98.27,2.41.59,4.86,1.62,7.06,4.84,10.37,13.89.85,17.99-4.9Z"/>
        <path class="cls-13" d="m1216.19,918.28c-.31-.97-.98-1.78-1.86-2.3-1.8-1.07-5.05-2.45-7.74-.49-3.95,2.88,1.5,13,8.99,9.56,0,0,2.24-1.63.6-6.78Z"/>
        <path class="cls-3" d="m1249.87,935.32s-2.95-2.56-4.42-2.44c-1.47.11-2.59,1.31-2.59,1.31,0,0-.48-1.41-2.18-1.65-1.69-.24-6.31,2.8-6.31,2.8,0,0,3.28,6.41,8.62,6.37,5.44-.04,6.74-6.1,6.74-6.1l.14-.29Z"/>
        <path class="cls-6" d="m1249.87,935.32l-15.5.02s4.65,3.68,8.8,3.85c4.15.17,6.7-3.87,6.7-3.87Z"/>
      </g>
    </g>
    <g class="cls-34">
      <g>
        <path class="cls-33" d="m1243.65,1026.67c-.53-.88-.69-1.93-.78-2.95-.32-3.65.06-7.35,1.1-10.86.41-1.38.96-2.79,2.02-3.77,1.33-1.23,3.23-1.59,5.03-1.78,3.05-.32,6.52-.14,8.6,2.12,2.23,2.43,1.6,6.84-1.2,8.56-1.2.73-2.65,1-3.82,1.79-2.5,1.71-2.79,4.95-4.13,7.44-1.59,2.96-5.04,2.37-6.83-.56Z"/>
        <path class="cls-33" d="m1111.45,1113.79c-3.64-2.5-6.4-6.1-8.79-9.82-1.37-2.14-2.65-4.39-3.18-6.87-.75-3.52.09-7.19-.27-10.77-.37-3.58-2.7-7.52-6.3-7.58-2.37-.04-4.43,1.65-5.86,3.54-4.78,6.29-4.57,15.89.49,21.96.74.89,1.58,1.72,2.05,2.78.69,1.56.47,3.36.66,5.06.56,5.07,4.86,9.09,9.64,10.85,4.78,1.76,10.02,1.7,15.11,1.61,2.7-.05,8.57-2.08,7.01-6.08-.96-2.46-8.15-3.02-10.56-4.67Z"/>
        <path class="cls-20" d="m1240.69,1028.79c9.61-5.17,25.52,3.31,32.13,2.13,6.62-1.18,14.65-5.91,17.01-4.25s1.42,29.31-24.57,24.82c0,0,13.23,5.2,12.05,6.38-1.18,1.18-5.67,0-5.67,0,0,0-15.83,5.67-16.54,13.94-.71,8.27-1.42,26-.95,29.54.47,3.54,2.48,27.77,1.06,36.63-1.42,8.86-1.77,41.48-1.77,41.48h-12.76s.71-30.49-1.42-30.13c-2.13.35-12.76,22.69-12.05,30.13h-13.82s-3.54-26.94-13.82-26.94-41.82-.71-45.36,1.06c-3.54,1.77-18.43,12.05-24.81,14.89-6.38,2.84-10.28,8.51-10.28,8.51h-32.6s19.49-52.82,35.79-62.39c16.3-9.57,50.32-2.84,60.25-4.61,9.92-1.77,42.76-11.7,45.72-35.1,1.87-14.81-6.02-36.16,12.4-46.09Z"/>
        <path class="cls-8" d="m1259.79,1036.73c1.12,4.18-1.33,9.85-4.13,12.92-3.18,3.48-9.06,4.33-12.45.63-2.75-2.99-2.48-7.75-1.1-11.29,2.62-6.75,15.05-12.17,17.69-2.26Z"/>
        <path class="cls-33" d="m1290.54,1033.07s4.14-8.42,0-9.13c-4.13-.71-8.86,5.32-8.15,6.26.71.95,6.38,3.25,8.15,2.86Z"/>
        <path class="cls-33" d="m1254.95,1038.05c0-1.35-1.09-2.44-2.44-2.44s-2.44,1.09-2.44,2.44,1.09,2.44,2.44,2.44,2.44-1.09,2.44-2.44Z"/>
        <path class="cls-17" d="m1263.73,1051.47s12.17-.83,16.66.47c4.49,1.3,9.09,5.44,6.97,8.39-2.12,2.96-10.83-3.59-10.83-3.59l-12.79-5.27Z"/>
        <rect class="cls-33" x="1247.73" y="1087.86" width=".98" height="7.31"/>
        <path class="cls-8" d="m1231.75,1042.61c-1.65-.47-2.76-2.04-3.39-3.63s-.94-3.32-1.71-4.85c-2.15-4.27-7.26-6-10.8-9.22-3.07-2.79-4.95-6.85-5.1-10.99-.03-.94.02-1.9.34-2.77.39-1.04,1.13-1.91,1.93-2.69,2.48-2.43,5.65-4.22,9.08-4.71,1.79-.26,3.7-.14,5.26.77,2.21,1.29,3.31,3.91,3.66,6.44.35,2.53.09,5.11.34,7.66.63,6.41,4.4,12.24,4.7,18.67.11,2.38-1.22,6.21-4.3,5.34Z"/>
        <path class="cls-17" d="m1225.89,1080.54s18.83,4.52,28.97,3.54v4.7s-15.75,1.26-30.64-4.72l1.67-3.52Z"/>
        <path class="cls-33" d="m1252.21,1096.67c0-2.2-1.79-3.99-3.99-3.99s-3.99,1.79-3.99,3.99,1.79,3.99,3.99,3.99,3.99-1.79,3.99-3.99Z"/>
        <path class="cls-8" d="m1220.87,1111.32c5.12-8.37,4.2-16.13-1.46-19.44-11.24,11.43-29.9,16.82-36.96,18.08-8.76,1.56-36.27-3.49-53.83,1.88-13.15,3.67-14.59,13.44-10.52,15.22,10.73,4.69,39.5,8.63,50.88,11.42,12.05,2.95,24-4.31,34.29-11.24,6.61-4.45,13.43-9.12,17.59-15.92Z"/>
      </g>
    </g>
    <g>
      <path class="cls-25" d="m1279.3,1100.66h66.94v2.11h-34.34c-3.46,0-6.27,3.07-6.27,6.86h0c0,3.79,2.81,6.86,6.27,6.86h34.34v1.98h-66.94c-4.49,0-8.13-3.99-8.13-8.91h0c0-4.92,3.64-8.91,8.13-8.91Z"/>
      <path class="cls-22" d="m1302.58,1109.57h0c0-4.92,3.64-8.91,8.13-8.91h35.53v2.11h-34.34c-3.46,0-6.27,3.07-6.27,6.86h0c0,3.79,2.81,6.86,6.27,6.86h34.34v1.98h-35.53c-4.49,0-8.13-3.99-8.13-8.91Z"/>
      <path class="cls-20" d="m1311.9,1102.78h34.34v.05c-3.12.39-5.54,3.3-5.54,6.82h0c0,3.52,2.42,6.42,5.54,6.82v.05h-34.34c-3.46,0-6.27-3.07-6.27-6.87h0c0-3.79,2.81-6.86,6.27-6.86Z"/>
      <path class="cls-28" d="m1305.63,1109.57c0-3.79,2.81-6.86,6.27-6.86h34.34v.05c-1.61.2-3.04,1.08-4.04,2.36-6.87-.6-27.36-1.29-29.51,11.32h-.79c-3.46,0-6.27-3.07-6.27-6.86Z"/>
    </g>
  </g>
</svg>