<?xml version="1.0" encoding="us-ascii" standalone="no"?><svg xmlns="http://www.w3.org/2000/svg" xmlns:xlink="http://www.w3.org/1999/xlink" contentStyleType="text/css" height="289px" preserveAspectRatio="none" style="width:735px;height:289px;background:#FFFFFF;" version="1.1" viewBox="0 0 735 289" width="735px" zoomAndPan="magnify"><defs/><g><text fill="#000000" font-family="sans-serif" font-size="14" font-weight="bold" lengthAdjust="spacing" textLength="284" x="218.75" y="22.9951">Lagen model voor klant interacties</text><!--class Klant Interactie Component--><g id="elem_Klant Interactie Component"><rect codeLine="5" fill="#F1F1F1" height="80.5938" id="Klant Interactie Component" rx="2.5" ry="2.5" style="stroke:#181818;stroke-width:0.5;" width="276" x="98" y="44.2969"/><ellipse cx="131.45" cy="60.2969" fill="#ADD1B2" rx="11" ry="11" style="stroke:#181818;stroke-width:1.0;"/><path d="M133.7938,55.9688 C132.8563,55.5313 132.2625,55.3906 131.3875,55.3906 C128.7625,55.3906 126.7625,57.4688 126.7625,60.1875 L126.7625,61.3125 C126.7625,63.8906 128.8719,65.7813 131.7625,65.7813 C132.9813,65.7813 134.1375,65.4844 134.8875,64.9375 C135.4656,64.5313 135.7938,64.0781 135.7938,63.6875 C135.7938,63.2344 135.4031,62.8438 134.9344,62.8438 C134.7156,62.8438 134.5125,62.9219 134.325,63.1094 C133.8719,63.5938 133.8719,63.5938 133.6844,63.6875 C133.2625,63.9531 132.575,64.0781 131.8094,64.0781 C129.7625,64.0781 128.4656,62.9844 128.4656,61.2813 L128.4656,60.1875 C128.4656,58.4063 129.7156,57.0938 131.45,57.0938 C132.0281,57.0938 132.6375,57.25 133.1063,57.5 C133.5906,57.7813 133.7625,58 133.8563,58.4063 C133.9188,58.8125 133.95,58.9375 134.0906,59.0625 C134.2313,59.2031 134.4656,59.3125 134.6844,59.3125 C134.95,59.3125 135.2156,59.1719 135.3875,58.9531 C135.4969,58.7969 135.5281,58.6094 135.5281,58.1875 L135.5281,56.7656 C135.5281,56.3281 135.5125,56.2031 135.4188,56.0469 C135.2625,55.7813 134.9813,55.6406 134.6844,55.6406 C134.3875,55.6406 134.1844,55.7344 133.9656,56.0469 L133.7938,55.9688 Z " fill="#000000"/><text fill="#000000" font-family="sans-serif" font-size="14" lengthAdjust="spacing" textLength="203" x="149.55" y="65.1436">Klant Interactie Component</text><line style="stroke:#181818;stroke-width:0.5;" x1="99" x2="373" y1="76.2969" y2="76.2969"/><text fill="#000000" font-family="sans-serif" font-size="14" lengthAdjust="spacing" textLength="207" x="104" y="93.292">class "Laag 1: Data Opslag" {</text><line style="stroke:#181818;stroke-width:0.5;" x1="99" x2="373" y1="100.5938" y2="100.5938"/><rect fill="#F24D5C" height="6" style="stroke:#C82930;stroke-width:1.0;" width="6" x="106" y="111.2422"/><text fill="#000000" font-family="sans-serif" font-size="14" lengthAdjust="spacing" textLength="250" x="118" y="117.5889">Object Store Oplossing (MongoDB)</text></g><!--class Laag 4: API's--><g id="elem_Laag 4: API's"><rect codeLine="10" fill="#F1F1F1" height="64.2969" id="Laag 4: API's" rx="2.5" ry="2.5" style="stroke:#181818;stroke-width:0.5;" width="319" x="409.5" y="52.7969"/><ellipse cx="520.75" cy="68.7969" fill="#ADD1B2" rx="11" ry="11" style="stroke:#181818;stroke-width:1.0;"/><path d="M523.0938,64.4688 C522.1563,64.0313 521.5625,63.8906 520.6875,63.8906 C518.0625,63.8906 516.0625,65.9688 516.0625,68.6875 L516.0625,69.8125 C516.0625,72.3906 518.1719,74.2813 521.0625,74.2813 C522.2813,74.2813 523.4375,73.9844 524.1875,73.4375 C524.7656,73.0313 525.0938,72.5781 525.0938,72.1875 C525.0938,71.7344 524.7031,71.3438 524.2344,71.3438 C524.0156,71.3438 523.8125,71.4219 523.625,71.6094 C523.1719,72.0938 523.1719,72.0938 522.9844,72.1875 C522.5625,72.4531 521.875,72.5781 521.1094,72.5781 C519.0625,72.5781 517.7656,71.4844 517.7656,69.7813 L517.7656,68.6875 C517.7656,66.9063 519.0156,65.5938 520.75,65.5938 C521.3281,65.5938 521.9375,65.75 522.4063,66 C522.8906,66.2813 523.0625,66.5 523.1563,66.9063 C523.2188,67.3125 523.25,67.4375 523.3906,67.5625 C523.5313,67.7031 523.7656,67.8125 523.9844,67.8125 C524.25,67.8125 524.5156,67.6719 524.6875,67.4531 C524.7969,67.2969 524.8281,67.1094 524.8281,66.6875 L524.8281,65.2656 C524.8281,64.8281 524.8125,64.7031 524.7188,64.5469 C524.5625,64.2813 524.2813,64.1406 523.9844,64.1406 C523.6875,64.1406 523.4844,64.2344 523.2656,64.5469 L523.0938,64.4688 Z " fill="#000000"/><text fill="#000000" font-family="sans-serif" font-size="14" lengthAdjust="spacing" textLength="88" x="541.25" y="73.6436">Laag 4: API's</text><line style="stroke:#181818;stroke-width:0.5;" x1="410.5" x2="727.5" y1="84.7969" y2="84.7969"/><rect fill="none" height="6" style="stroke:#C82930;stroke-width:1.0;" width="6" x="417.5" y="95.4453"/><text fill="#000000" font-family="sans-serif" font-size="14" lengthAdjust="spacing" textLength="293" x="429.5" y="101.792">Adapter naar Klant Interactie CRUD API's</text><line style="stroke:#181818;stroke-width:0.5;" x1="410.5" x2="727.5" y1="109.0938" y2="109.0938"/></g><!--class Laag 3: Integratie--><g id="elem_Laag 3: Integratie"><rect codeLine="14" fill="#F1F1F1" height="96.8906" id="Laag 3: Integratie" rx="2.5" ry="2.5" style="stroke:#181818;stroke-width:0.5;" width="458" x="7" y="185.2969"/><ellipse cx="168.25" cy="201.2969" fill="#ADD1B2" rx="11" ry="11" style="stroke:#181818;stroke-width:1.0;"/><path d="M170.5938,196.9688 C169.6563,196.5313 169.0625,196.3906 168.1875,196.3906 C165.5625,196.3906 163.5625,198.4688 163.5625,201.1875 L163.5625,202.3125 C163.5625,204.8906 165.6719,206.7813 168.5625,206.7813 C169.7813,206.7813 170.9375,206.4844 171.6875,205.9375 C172.2656,205.5313 172.5938,205.0781 172.5938,204.6875 C172.5938,204.2344 172.2031,203.8438 171.7344,203.8438 C171.5156,203.8438 171.3125,203.9219 171.125,204.1094 C170.6719,204.5938 170.6719,204.5938 170.4844,204.6875 C170.0625,204.9531 169.375,205.0781 168.6094,205.0781 C166.5625,205.0781 165.2656,203.9844 165.2656,202.2813 L165.2656,201.1875 C165.2656,199.4063 166.5156,198.0938 168.25,198.0938 C168.8281,198.0938 169.4375,198.25 169.9063,198.5 C170.3906,198.7813 170.5625,199 170.6563,199.4063 C170.7188,199.8125 170.75,199.9375 170.8906,200.0625 C171.0313,200.2031 171.2656,200.3125 171.4844,200.3125 C171.75,200.3125 172.0156,200.1719 172.1875,199.9531 C172.2969,199.7969 172.3281,199.6094 172.3281,199.1875 L172.3281,197.7656 C172.3281,197.3281 172.3125,197.2031 172.2188,197.0469 C172.0625,196.7813 171.7813,196.6406 171.4844,196.6406 C171.1875,196.6406 170.9844,196.7344 170.7656,197.0469 L170.5938,196.9688 Z " fill="#000000"/><text fill="#000000" font-family="sans-serif" font-size="14" lengthAdjust="spacing" textLength="127" x="188.75" y="206.1436">Laag 3: Integratie</text><line style="stroke:#181818;stroke-width:0.5;" x1="8" x2="464" y1="217.2969" y2="217.2969"/><rect fill="none" height="6" style="stroke:#C82930;stroke-width:1.0;" width="6" x="15" y="227.9453"/><text fill="#000000" font-family="sans-serif" font-size="14" lengthAdjust="spacing" textLength="295" x="27" y="234.292">Integratie van Diverse Gegevensbronnen</text><rect fill="none" height="6" style="stroke:#C82930;stroke-width:1.0;" width="6" x="15" y="244.2422"/><text fill="#000000" font-family="sans-serif" font-size="14" lengthAdjust="spacing" textLength="276" x="27" y="250.5889">Brononafhankelijke Serviceaanbieding</text><rect fill="none" height="6" style="stroke:#C82930;stroke-width:1.0;" width="6" x="15" y="260.5391"/><text fill="#000000" font-family="sans-serif" font-size="14" lengthAdjust="spacing" textLength="432" x="27" y="266.8857">Bronoverstijgende Extensie zonder Koppeling van Registers</text><line style="stroke:#181818;stroke-width:0.5;" x1="8" x2="464" y1="274.1875" y2="274.1875"/></g><!--SRC=[TP51Jm9138Nl-okUNDI31wCdRi0IGaGne3-Wx9PnO6WtCvEDqV3VBM1S4lNOzhslVJFPvy2OaMF1JciEQ5KZje4amqlcI5Nsd8hYekQr5yPYF7ePF4rcOrI1aWswHk_XQ9l-s33INQF2adluB73cxSs876xxA2aJvaqAv4uQu0RprOQhZ6NMo3OCcf8NXwj75QVbyDfa- -8FtdqVW-VfPUf8WveQkmP25F7xlCLhUNByHxph7_KkakaxRDT3IuBIjnmJOyAEMvQqYYgM-biyj4g5rcyaMmv-isKiERQ-OY9PUQujsxdqmCf-OrzICyRlsO2svqEjj0pQD0QnrpWiNh3poUASxjz_0G00]--></g></svg>