<svg xmlns="http://www.w3.org/2000/svg" xmlns:xlink="http://www.w3.org/1999/xlink" contentStyleType="text/css" height="1117px" preserveAspectRatio="none" style="width:1883px;height:1117px;background:#FFFFFF;" version="1.1" viewBox="0 0 1883 1117" width="1883px" zoomAndPan="magnify"><defs/><g><line style="stroke:#181818;stroke-width:0.5;stroke-dasharray:5.0,5.0;" x1="51" x2="51" y1="81.2969" y2="1037.1484"/><line style="stroke:#181818;stroke-width:0.5;stroke-dasharray:5.0,5.0;" x1="325.1431" x2="325.1431" y1="81.2969" y2="1037.1484"/><line style="stroke:#181818;stroke-width:0.5;stroke-dasharray:5.0,5.0;" x1="410.1548" x2="410.1548" y1="81.2969" y2="1037.1484"/><line style="stroke:#181818;stroke-width:0.5;stroke-dasharray:5.0,5.0;" x1="982.0371" x2="982.0371" y1="81.2969" y2="1037.1484"/><line style="stroke:#181818;stroke-width:0.5;stroke-dasharray:5.0,5.0;" x1="1110.5098" x2="1110.5098" y1="81.2969" y2="1037.1484"/><line style="stroke:#181818;stroke-width:0.5;stroke-dasharray:5.0,5.0;" x1="1249.3057" x2="1249.3057" y1="81.2969" y2="1037.1484"/><line style="stroke:#181818;stroke-width:0.5;stroke-dasharray:5.0,5.0;" x1="1673.9746" x2="1673.9746" y1="81.2969" y2="1037.1484"/><line style="stroke:#181818;stroke-width:0.5;stroke-dasharray:5.0,5.0;" x1="1819.3965" x2="1819.3965" y1="81.2969" y2="1037.1484"/><text fill="#000000" font-family="sans-serif" font-size="14" lengthAdjust="spacing" textLength="86.4883" x="5" y="77.9951">Medewerker</text><ellipse cx="51.2441" cy="13.5" fill="#E2E2F0" rx="8" ry="8" style="stroke:#181818;stroke-width:0.5;"/><path d="M51.2441,21.5 L51.2441,48.5 M38.2441,29.5 L64.2441,29.5 M51.2441,48.5 L38.2441,63.5 M51.2441,48.5 L64.2441,63.5 " fill="none" style="stroke:#181818;stroke-width:0.5;"/><text fill="#000000" font-family="sans-serif" font-size="14" lengthAdjust="spacing" textLength="86.4883" x="5" y="1049.1436">Medewerker</text><ellipse cx="51.2441" cy="1060.9453" fill="#E2E2F0" rx="8" ry="8" style="stroke:#181818;stroke-width:0.5;"/><path d="M51.2441,1068.9453 L51.2441,1095.9453 M38.2441,1076.9453 L64.2441,1076.9453 M51.2441,1095.9453 L38.2441,1110.9453 M51.2441,1095.9453 L64.2441,1110.9453 " fill="none" style="stroke:#181818;stroke-width:0.5;"/><text fill="#000000" font-family="sans-serif" font-size="14" lengthAdjust="spacing" textLength="36.0117" x="304.1431" y="77.9951">Klant</text><ellipse cx="325.1489" cy="13.5" fill="#E2E2F0" rx="8" ry="8" style="stroke:#181818;stroke-width:0.5;"/><path d="M325.1489,21.5 L325.1489,48.5 M312.1489,29.5 L338.1489,29.5 M325.1489,48.5 L312.1489,63.5 M325.1489,48.5 L338.1489,63.5 " fill="none" style="stroke:#181818;stroke-width:0.5;"/><text fill="#000000" font-family="sans-serif" font-size="14" lengthAdjust="spacing" textLength="36.0117" x="304.1431" y="1049.1436">Klant</text><ellipse cx="325.1489" cy="1060.9453" fill="#E2E2F0" rx="8" ry="8" style="stroke:#181818;stroke-width:0.5;"/><path d="M325.1489,1068.9453 L325.1489,1095.9453 M312.1489,1076.9453 L338.1489,1076.9453 M325.1489,1095.9453 L312.1489,1110.9453 M325.1489,1095.9453 L338.1489,1110.9453 " fill="none" style="stroke:#181818;stroke-width:0.5;"/><rect fill="#E2E2F0" height="30.2969" rx="2.5" ry="2.5" style="stroke:#181818;stroke-width:0.5;" width="108.083" x="356.1548" y="50"/><text fill="#000000" font-family="sans-serif" font-size="14" lengthAdjust="spacing" textLength="94.083" x="363.1548" y="69.9951">Zaaksysteem</text><rect fill="#E2E2F0" height="30.2969" rx="2.5" ry="2.5" style="stroke:#181818;stroke-width:0.5;" width="108.083" x="356.1548" y="1036.1484"/><text fill="#000000" font-family="sans-serif" font-size="14" lengthAdjust="spacing" textLength="94.083" x="363.1548" y="1056.1436">Zaaksysteem</text><rect fill="#E2E2F0" height="30.2969" rx="2.5" ry="2.5" style="stroke:#181818;stroke-width:0.5;" width="115.4727" x="925.0371" y="50"/><text fill="#000000" font-family="sans-serif" font-size="14" lengthAdjust="spacing" textLength="97.0225" x="932.0371" y="69.9951">Takenregister</text><rect fill="#E2E2F0" height="30.2969" rx="2.5" ry="2.5" style="stroke:#181818;stroke-width:0.5;" width="115.4727" x="925.0371" y="1036.1484"/><text fill="#000000" font-family="sans-serif" font-size="14" lengthAdjust="spacing" textLength="97.0225" x="932.0371" y="1056.1436">Takenregister</text><rect fill="#E2E2F0" height="30.2969" rx="2.5" ry="2.5" style="stroke:#181818;stroke-width:0.5;" width="121.7959" x="1050.5098" y="50"/><text fill="#000000" font-family="sans-serif" font-size="14" lengthAdjust="spacing" textLength="107.7959" x="1057.5098" y="69.9951">Klantenregister</text><rect fill="#E2E2F0" height="30.2969" rx="2.5" ry="2.5" style="stroke:#181818;stroke-width:0.5;" width="121.7959" x="1050.5098" y="1036.1484"/><text fill="#000000" font-family="sans-serif" font-size="14" lengthAdjust="spacing" textLength="107.7959" x="1057.5098" y="1056.1436">Klantenregister</text><rect fill="#E2E2F0" height="30.2969" rx="2.5" ry="2.5" style="stroke:#181818;stroke-width:0.5;" width="135.707" x="1182.3057" y="50"/><text fill="#000000" font-family="sans-serif" font-size="14" lengthAdjust="spacing" textLength="121.707" x="1189.3057" y="69.9951">Berichtenregister</text><rect fill="#E2E2F0" height="30.2969" rx="2.5" ry="2.5" style="stroke:#181818;stroke-width:0.5;" width="135.707" x="1182.3057" y="1036.1484"/><text fill="#000000" font-family="sans-serif" font-size="14" lengthAdjust="spacing" textLength="121.707" x="1189.3057" y="1056.1436">Berichtenregister</text><rect fill="#E2E2F0" height="30.2969" rx="2.5" ry="2.5" style="stroke:#181818;stroke-width:0.5;" width="155.4219" x="1596.9746" y="50"/><text fill="#000000" font-family="sans-serif" font-size="14" lengthAdjust="spacing" textLength="141.4219" x="1603.9746" y="69.9951">Afhandelcomponent</text><rect fill="#E2E2F0" height="30.2969" rx="2.5" ry="2.5" style="stroke:#181818;stroke-width:0.5;" width="155.4219" x="1596.9746" y="1036.1484"/><text fill="#000000" font-family="sans-serif" font-size="14" lengthAdjust="spacing" textLength="141.4219" x="1603.9746" y="1056.1436">Afhandelcomponent</text><rect fill="#E2E2F0" height="30.2969" rx="2.5" ry="2.5" style="stroke:#181818;stroke-width:0.5;" width="114.8232" x="1762.3965" y="50"/><text fill="#000000" font-family="sans-serif" font-size="14" lengthAdjust="spacing" textLength="100.8232" x="1769.3965" y="69.9951">MijnOmgeving</text><rect fill="#E2E2F0" height="30.2969" rx="2.5" ry="2.5" style="stroke:#181818;stroke-width:0.5;" width="114.8232" x="1762.3965" y="1036.1484"/><text fill="#000000" font-family="sans-serif" font-size="14" lengthAdjust="spacing" textLength="100.8232" x="1769.3965" y="1056.1436">MijnOmgeving</text><polygon fill="#181818" points="1807.8081,108.4297,1817.8081,112.4297,1807.8081,116.4297,1811.8081,112.4297" style="stroke:#181818;stroke-width:1.0;"/><line style="stroke:#181818;stroke-width:1.0;" x1="325.1489" x2="1813.8081" y1="112.4297" y2="112.4297"/><text fill="#000000" font-family="sans-serif" font-size="13" lengthAdjust="spacing" textLength="157.5234" x="332.1489" y="107.3638">Log in op MijnOmgeving</text><polygon fill="#181818" points="1807.8081,137.5625,1817.8081,141.5625,1807.8081,145.5625,1811.8081,141.5625" style="stroke:#181818;stroke-width:1.0;"/><line style="stroke:#181818;stroke-width:1.0;" x1="325.1489" x2="1813.8081" y1="141.5625" y2="141.5625"/><text fill="#000000" font-family="sans-serif" font-size="13" lengthAdjust="spacing" textLength="149.5127" x="332.1489" y="136.4966">Vraag een product aan</text><polygon fill="#181818" points="421.1963,166.6953,411.1963,170.6953,421.1963,174.6953,417.1963,170.6953" style="stroke:#181818;stroke-width:1.0;"/><line style="stroke:#181818;stroke-width:1.0;" x1="415.1963" x2="1818.8081" y1="170.6953" y2="170.6953"/><text fill="#000000" font-family="sans-serif" font-size="13" lengthAdjust="spacing" textLength="78.1777" x="427.1963" y="165.6294">Cre&#235;er zaak</text><line style="stroke:#181818;stroke-width:1.0;" x1="51.2441" x2="93.2441" y1="199.8281" y2="199.8281"/><line style="stroke:#181818;stroke-width:1.0;" x1="93.2441" x2="93.2441" y1="199.8281" y2="212.8281"/><line style="stroke:#181818;stroke-width:1.0;" x1="52.2441" x2="93.2441" y1="212.8281" y2="212.8281"/><polygon fill="#181818" points="62.2441,208.8281,52.2441,212.8281,62.2441,216.8281,58.2441,212.8281" style="stroke:#181818;stroke-width:1.0;"/><text fill="#000000" font-family="sans-serif" font-size="13" lengthAdjust="spacing" textLength="178.6738" x="58.2441" y="194.7622">Neemt zaak in behandeling</text><line style="stroke:#181818;stroke-width:1.0;" x1="51.2441" x2="93.2441" y1="241.9609" y2="241.9609"/><line style="stroke:#181818;stroke-width:1.0;" x1="93.2441" x2="93.2441" y1="241.9609" y2="254.9609"/><line style="stroke:#181818;stroke-width:1.0;" x1="52.2441" x2="93.2441" y1="254.9609" y2="254.9609"/><polygon fill="#181818" points="62.2441,250.9609,52.2441,254.9609,62.2441,258.9609,58.2441,254.9609" style="stroke:#181818;stroke-width:1.0;"/><text fill="#000000" font-family="sans-serif" font-size="13" lengthAdjust="spacing" textLength="100.4453" x="58.2441" y="236.895">Beoordeel zaak</text><line style="stroke:#181818;stroke-width:1.0;" x1="51.2441" x2="93.2441" y1="284.0938" y2="284.0938"/><line style="stroke:#181818;stroke-width:1.0;" x1="93.2441" x2="93.2441" y1="284.0938" y2="297.0938"/><line style="stroke:#181818;stroke-width:1.0;" x1="52.2441" x2="93.2441" y1="297.0938" y2="297.0938"/><polygon fill="#181818" points="62.2441,293.0938,52.2441,297.0938,62.2441,301.0938,58.2441,297.0938" style="stroke:#181818;stroke-width:1.0;"/><text fill="#000000" font-family="sans-serif" font-size="13" lengthAdjust="spacing" textLength="259.9048" x="58.2441" y="279.0278">Constateer dat extra document nodig is</text><polygon fill="#181818" points="398.1963,322.2266,408.1963,326.2266,398.1963,330.2266,402.1963,326.2266" style="stroke:#181818;stroke-width:1.0;"/><line style="stroke:#181818;stroke-width:1.0;" x1="51.2441" x2="404.1963" y1="326.2266" y2="326.2266"/><text fill="#000000" font-family="sans-serif" font-size="13" lengthAdjust="spacing" textLength="330.3955" x="58.2441" y="321.1606">Maak verzoek tot aanvulling aan (extra document)</text><polygon fill="#181818" points="970.7734,351.3594,980.7734,355.3594,970.7734,359.3594,974.7734,355.3594" style="stroke:#181818;stroke-width:1.0;"/><line style="stroke:#181818;stroke-width:1.0;" x1="410.1963" x2="976.7734" y1="355.3594" y2="355.3594"/><text fill="#000000" font-family="sans-serif" font-size="13" lengthAdjust="spacing" textLength="548.5771" x="417.1963" y="350.2935">Schrijf taak weg in Takenregister (Zaakspecifiek voorkeurskanaal in extraData-veld)</text><polygon fill="#181818" points="1662.6855,380.4922,1672.6855,384.4922,1662.6855,388.4922,1666.6855,384.4922" style="stroke:#181818;stroke-width:1.0;"/><line style="stroke:#181818;stroke-width:1.0;" x1="982.7734" x2="1668.6855" y1="384.4922" y2="384.4922"/><text fill="#000000" font-family="sans-serif" font-size="13" lengthAdjust="spacing" textLength="342.418" x="989.7734" y="379.4263">Stuur event "Nieuwe taak" naar Afhandelcomponent</text><polygon fill="#181818" points="993.7734,409.625,983.7734,413.625,993.7734,417.625,989.7734,413.625" style="stroke:#181818;stroke-width:1.0;"/><line style="stroke:#181818;stroke-width:1.0;" x1="987.7734" x2="1673.6855" y1="413.625" y2="413.625"/><text fill="#000000" font-family="sans-serif" font-size="13" lengthAdjust="spacing" textLength="202.7505" x="999.7734" y="408.5591">Haalt taak op uit Takenregister</text><polygon fill="#181818" points="1122.4077,438.7578,1112.4077,442.7578,1122.4077,446.7578,1118.4077,442.7578" style="stroke:#181818;stroke-width:1.0;"/><line style="stroke:#181818;stroke-width:1.0;" x1="1116.4077" x2="1673.6855" y1="442.7578" y2="442.7578"/><text fill="#000000" font-family="sans-serif" font-size="13" lengthAdjust="spacing" textLength="539.2778" x="1128.4077" y="437.6919">Haalt klant op uit het Klantenregister (tbv Voorkeurskanaal als niet gevuld in taak)</text><line style="stroke:#181818;stroke-width:1.0;" x1="1674.6855" x2="1716.6855" y1="471.8906" y2="471.8906"/><line style="stroke:#181818;stroke-width:1.0;" x1="1716.6855" x2="1716.6855" y1="471.8906" y2="484.8906"/><line style="stroke:#181818;stroke-width:1.0;" x1="1675.6855" x2="1716.6855" y1="484.8906" y2="484.8906"/><polygon fill="#181818" points="1685.6855,480.8906,1675.6855,484.8906,1685.6855,488.8906,1681.6855,484.8906" style="stroke:#181818;stroke-width:1.0;"/><text fill="#000000" font-family="sans-serif" font-size="13" lengthAdjust="spacing" textLength="93.5835" x="1681.6855" y="466.8247">Cre&#235;er bericht</text><polygon fill="#181818" points="336.1489,510.0234,326.1489,514.0234,336.1489,518.0234,332.1489,514.0234" style="stroke:#181818;stroke-width:1.0;"/><line style="stroke:#181818;stroke-width:1.0;" x1="330.1489" x2="1673.6855" y1="514.0234" y2="514.0234"/><text fill="#000000" font-family="sans-serif" font-size="13" lengthAdjust="spacing" textLength="241.395" x="342.1489" y="508.9575">Verstuur bericht via voorkeurskanaal</text><polygon fill="#181818" points="1261.1592,539.1563,1251.1592,543.1563,1261.1592,547.1563,1257.1592,543.1563" style="stroke:#181818;stroke-width:1.0;"/><line style="stroke:#181818;stroke-width:1.0;" x1="1255.1592" x2="1673.6855" y1="543.1563" y2="543.1563"/><text fill="#000000" font-family="sans-serif" font-size="13" lengthAdjust="spacing" textLength="223.1201" x="1267.1592" y="538.0903">Sla bericht op in Berichtenregister</text><polygon fill="#181818" points="1807.8081,568.2891,1817.8081,572.2891,1807.8081,576.2891,1811.8081,572.2891" style="stroke:#181818;stroke-width:1.0;"/><line style="stroke:#181818;stroke-width:1.0;" x1="325.1489" x2="1813.8081" y1="572.2891" y2="572.2891"/><text fill="#000000" font-family="sans-serif" font-size="13" lengthAdjust="spacing" textLength="157.5234" x="332.1489" y="567.2231">Log in op MijnOmgeving</text><polygon fill="#181818" points="993.7734,597.4219,983.7734,601.4219,993.7734,605.4219,989.7734,601.4219" style="stroke:#181818;stroke-width:1.0;"/><line style="stroke:#181818;stroke-width:1.0;" x1="987.7734" x2="1818.8081" y1="601.4219" y2="601.4219"/><text fill="#000000" font-family="sans-serif" font-size="13" lengthAdjust="spacing" textLength="202.7505" x="999.7734" y="596.356">Haalt taak op uit Takenregister</text><polygon fill="#181818" points="1807.8081,626.5547,1817.8081,630.5547,1807.8081,634.5547,1811.8081,630.5547" style="stroke:#181818;stroke-width:1.0;"/><line style="stroke:#181818;stroke-width:1.0;" x1="325.1489" x2="1813.8081" y1="630.5547" y2="630.5547"/><text fill="#000000" font-family="sans-serif" font-size="13" lengthAdjust="spacing" textLength="269.1914" x="332.1489" y="625.4888">Voer taak uit door document te uploaden</text><polygon fill="#181818" points="993.7734,655.6875,983.7734,659.6875,993.7734,663.6875,989.7734,659.6875" style="stroke:#181818;stroke-width:1.0;"/><line style="stroke:#181818;stroke-width:1.0;" x1="987.7734" x2="1818.8081" y1="659.6875" y2="659.6875"/><text fill="#000000" font-family="sans-serif" font-size="13" lengthAdjust="spacing" textLength="335.5879" x="999.7734" y="654.6216">Update taakstatus in Takenregister naar "gesloten"</text><polygon fill="#181818" points="421.1963,684.8203,411.1963,688.8203,421.1963,692.8203,417.1963,688.8203" style="stroke:#181818;stroke-width:1.0;"/><line style="stroke:#181818;stroke-width:1.0;" x1="415.1963" x2="1818.8081" y1="688.8203" y2="688.8203"/><text fill="#000000" font-family="sans-serif" font-size="13" lengthAdjust="spacing" textLength="247.7998" x="427.1963" y="683.7544">Voeg document toe aan Zaaksysteem</text><polygon fill="#181818" points="62.2441,713.9531,52.2441,717.9531,62.2441,721.9531,58.2441,717.9531" style="stroke:#181818;stroke-width:1.0;"/><line style="stroke:#181818;stroke-width:1.0;" x1="56.2441" x2="409.1963" y1="717.9531" y2="717.9531"/><text fill="#000000" font-family="sans-serif" font-size="13" lengthAdjust="spacing" textLength="333.3789" x="68.2441" y="712.8872">Notificeer medewerker over toegevoegd document</text><line style="stroke:#181818;stroke-width:1.0;" x1="51.2441" x2="93.2441" y1="747.0859" y2="747.0859"/><line style="stroke:#181818;stroke-width:1.0;" x1="93.2441" x2="93.2441" y1="747.0859" y2="760.0859"/><line style="stroke:#181818;stroke-width:1.0;" x1="52.2441" x2="93.2441" y1="760.0859" y2="760.0859"/><polygon fill="#181818" points="62.2441,756.0859,52.2441,760.0859,62.2441,764.0859,58.2441,760.0859" style="stroke:#181818;stroke-width:1.0;"/><text fill="#000000" font-family="sans-serif" font-size="13" lengthAdjust="spacing" textLength="140.8481" x="58.2441" y="742.02">Beoordeelt document</text><line style="stroke:#181818;stroke-width:1.0;" x1="51.2441" x2="93.2441" y1="789.2188" y2="789.2188"/><line style="stroke:#181818;stroke-width:1.0;" x1="93.2441" x2="93.2441" y1="789.2188" y2="802.2188"/><line style="stroke:#181818;stroke-width:1.0;" x1="52.2441" x2="93.2441" y1="802.2188" y2="802.2188"/><polygon fill="#181818" points="62.2441,798.2188,52.2441,802.2188,62.2441,806.2188,58.2441,802.2188" style="stroke:#181818;stroke-width:1.0;"/><text fill="#000000" font-family="sans-serif" font-size="13" lengthAdjust="spacing" textLength="140.6958" x="58.2441" y="784.1528">Accepteert document</text><polygon fill="#181818" points="398.1963,827.3516,408.1963,831.3516,398.1963,835.3516,402.1963,831.3516" style="stroke:#181818;stroke-width:1.0;"/><line style="stroke:#181818;stroke-width:1.0;" x1="51.2441" x2="404.1963" y1="831.3516" y2="831.3516"/><text fill="#000000" font-family="sans-serif" font-size="13" lengthAdjust="spacing" textLength="198.2754" x="58.2441" y="826.2856">Zet zaak naar volgende status</text><polygon fill="#181818" points="1662.6855,856.4844,1672.6855,860.4844,1662.6855,864.4844,1666.6855,860.4844" style="stroke:#181818;stroke-width:1.0;"/><line style="stroke:#181818;stroke-width:1.0;" x1="410.1963" x2="1668.6855" y1="860.4844" y2="860.4844"/><text fill="#000000" font-family="sans-serif" font-size="13" lengthAdjust="spacing" textLength="381.6909" x="417.1963" y="855.4185">Stuur event "update zaakstatus" naar Afhandelcomponent</text><polygon fill="#181818" points="421.1963,885.6172,411.1963,889.6172,421.1963,893.6172,417.1963,889.6172" style="stroke:#181818;stroke-width:1.0;"/><line style="stroke:#181818;stroke-width:1.0;" x1="415.1963" x2="1673.6855" y1="889.6172" y2="889.6172"/><text fill="#000000" font-family="sans-serif" font-size="13" lengthAdjust="spacing" textLength="475.5029" x="427.1963" y="884.5513">Haal zaak op a.h.v. "update zaakstatus" (inclusief zaak voorkeurskanaal)</text><polygon fill="#181818" points="1122.4077,914.75,1112.4077,918.75,1122.4077,922.75,1118.4077,918.75" style="stroke:#181818;stroke-width:1.0;"/><line style="stroke:#181818;stroke-width:1.0;" x1="1116.4077" x2="1673.6855" y1="918.75" y2="918.75"/><text fill="#000000" font-family="sans-serif" font-size="13" lengthAdjust="spacing" textLength="216.6392" x="1128.4077" y="913.6841">Haalt klant op uit Klantenregister</text><line style="stroke:#181818;stroke-width:1.0;" x1="1674.6855" x2="1716.6855" y1="947.8828" y2="947.8828"/><line style="stroke:#181818;stroke-width:1.0;" x1="1716.6855" x2="1716.6855" y1="947.8828" y2="960.8828"/><line style="stroke:#181818;stroke-width:1.0;" x1="1675.6855" x2="1716.6855" y1="960.8828" y2="960.8828"/><polygon fill="#181818" points="1685.6855,956.8828,1675.6855,960.8828,1685.6855,964.8828,1681.6855,960.8828" style="stroke:#181818;stroke-width:1.0;"/><text fill="#000000" font-family="sans-serif" font-size="13" lengthAdjust="spacing" textLength="93.5835" x="1681.6855" y="942.8169">Cre&#235;er bericht</text><polygon fill="#181818" points="336.1489,986.0156,326.1489,990.0156,336.1489,994.0156,332.1489,990.0156" style="stroke:#181818;stroke-width:1.0;"/><line style="stroke:#181818;stroke-width:1.0;" x1="330.1489" x2="1673.6855" y1="990.0156" y2="990.0156"/><text fill="#000000" font-family="sans-serif" font-size="13" lengthAdjust="spacing" textLength="241.395" x="342.1489" y="984.9497">Verstuur bericht via voorkeurskanaal</text><polygon fill="#181818" points="1261.1592,1015.1484,1251.1592,1019.1484,1261.1592,1023.1484,1257.1592,1019.1484" style="stroke:#181818;stroke-width:1.0;"/><line style="stroke:#181818;stroke-width:1.0;" x1="1255.1592" x2="1673.6855" y1="1019.1484" y2="1019.1484"/><text fill="#000000" font-family="sans-serif" font-size="13" lengthAdjust="spacing" textLength="223.1201" x="1267.1592" y="1014.0825">Sla bericht op in Berichtenregister</text><!--SRC=[tLGnSjim4EpvYXjMKc4_G4LcBAV8Z2EdYEF2tGauKJ0XW0C2LA8lvHdvM0wWH8cKQCifqsX8Qh6tTzWz5DuwM92aBRcIN8RfmuD6uxCAdLT2LVmCBuXb_QlsH9lUzuUdEM0D-HEMP1mLYY4EyZucif59kFtp0Ta7piafiJv0kxVBuFnkjKOZIGkxgQmXu_l_BzIh-ROfg56coB9K5su-zJxFuAijG1cmLHy-WdvsY0KGwwkSbK5uG3JPAIQUEHdL3EuT_VdD4zdnn-muvyJTlStWaS4-WQAS9RMTHIdZP-PahPD4-ZtoUsjgZwp7WKGFzDCx16b5sF3Gm5YfU0XrDc3ejR68oXfoEqibU9iQRuAE2kCZJFgaq-paT2HZcypWkrWxzRe27ycsb2RVzyqa7Qj8g9NYGWqtM59mTOa6KKTyglCPFTuqfEKqY_vZ_Wjcu7e-10VKn2xpHqLXIwbs3ipcuEn8Te6b4_-51VXMEhibA3-GFdguDVo1e4pEsZEigGl7SGH-sS3pe77KDHZ5Q7PPq38E8YgPZXMzE8w35PTjhjuKp5udLwVvxU7GA1nUo1X5bro-0uqT0tVDmizY_T5m3lDspVMC9jhoGDAfU4HoUyTWU89GQOkIpEMQFogEKskfcAzGdniw6IqlgDQMEyxVtXKifZWfRob5wtJpPiDSzNQ8zHmR4ME-EIRPDh53PgQ6VsJ7VyrYyTUWxuIWAYwNKNIloHVQxxaqciRgWjX0q0vmsDxxiGxj7UowE_Xek7lYeejQTMmYl5tVDhSNIqoK4JhKYbOjUf2BwRyiWy4Y-2-Y_HS0]--></g></svg>