<svg xmlns="http://www.w3.org/2000/svg" xmlns:xlink="http://www.w3.org/1999/xlink" contentStyleType="text/css" height="1117px" preserveAspectRatio="none" style="width:1754px;height:1117px;background:#FFFFFF;" version="1.1" viewBox="0 0 1754 1117" width="1754px" zoomAndPan="magnify"><defs/><g><line style="stroke:#181818;stroke-width:0.5;stroke-dasharray:5.0,5.0;" x1="51" x2="51" y1="81.2969" y2="1037.1484"/><line style="stroke:#181818;stroke-width:0.5;stroke-dasharray:5.0,5.0;" x1="325.1431" x2="325.1431" y1="81.2969" y2="1037.1484"/><line style="stroke:#181818;stroke-width:0.5;stroke-dasharray:5.0,5.0;" x1="410.1548" x2="410.1548" y1="81.2969" y2="1037.1484"/><line style="stroke:#181818;stroke-width:0.5;stroke-dasharray:5.0,5.0;" x1="981.8408" x2="981.8408" y1="81.2969" y2="1037.1484"/><line style="stroke:#181818;stroke-width:0.5;stroke-dasharray:5.0,5.0;" x1="1545.3403" x2="1545.3403" y1="81.2969" y2="1037.1484"/><line style="stroke:#181818;stroke-width:0.5;stroke-dasharray:5.0,5.0;" x1="1690.7622" x2="1690.7622" y1="81.2969" y2="1037.1484"/><text fill="#000000" font-family="sans-serif" font-size="14" lengthAdjust="spacing" textLength="86.4883" x="5" y="77.9951">Medewerker</text><ellipse cx="51.2441" cy="13.5" fill="#E2E2F0" rx="8" ry="8" style="stroke:#181818;stroke-width:0.5;"/><path d="M51.2441,21.5 L51.2441,48.5 M38.2441,29.5 L64.2441,29.5 M51.2441,48.5 L38.2441,63.5 M51.2441,48.5 L64.2441,63.5 " fill="none" style="stroke:#181818;stroke-width:0.5;"/><text fill="#000000" font-family="sans-serif" font-size="14" lengthAdjust="spacing" textLength="86.4883" x="5" y="1049.1436">Medewerker</text><ellipse cx="51.2441" cy="1060.9453" fill="#E2E2F0" rx="8" ry="8" style="stroke:#181818;stroke-width:0.5;"/><path d="M51.2441,1068.9453 L51.2441,1095.9453 M38.2441,1076.9453 L64.2441,1076.9453 M51.2441,1095.9453 L38.2441,1110.9453 M51.2441,1095.9453 L64.2441,1110.9453 " fill="none" style="stroke:#181818;stroke-width:0.5;"/><text fill="#000000" font-family="sans-serif" font-size="14" lengthAdjust="spacing" textLength="36.0117" x="304.1431" y="77.9951">Klant</text><ellipse cx="325.1489" cy="13.5" fill="#E2E2F0" rx="8" ry="8" style="stroke:#181818;stroke-width:0.5;"/><path d="M325.1489,21.5 L325.1489,48.5 M312.1489,29.5 L338.1489,29.5 M325.1489,48.5 L312.1489,63.5 M325.1489,48.5 L338.1489,63.5 " fill="none" style="stroke:#181818;stroke-width:0.5;"/><text fill="#000000" font-family="sans-serif" font-size="14" lengthAdjust="spacing" textLength="36.0117" x="304.1431" y="1049.1436">Klant</text><ellipse cx="325.1489" cy="1060.9453" fill="#E2E2F0" rx="8" ry="8" style="stroke:#181818;stroke-width:0.5;"/><path d="M325.1489,1068.9453 L325.1489,1095.9453 M312.1489,1076.9453 L338.1489,1076.9453 M325.1489,1095.9453 L312.1489,1110.9453 M325.1489,1095.9453 L338.1489,1110.9453 " fill="none" style="stroke:#181818;stroke-width:0.5;"/><rect fill="#E2E2F0" height="30.2969" rx="2.5" ry="2.5" style="stroke:#181818;stroke-width:0.5;" width="108.083" x="356.1548" y="50"/><text fill="#000000" font-family="sans-serif" font-size="14" lengthAdjust="spacing" textLength="94.083" x="363.1548" y="69.9951">Zaaksysteem</text><rect fill="#E2E2F0" height="30.2969" rx="2.5" ry="2.5" style="stroke:#181818;stroke-width:0.5;" width="108.083" x="356.1548" y="1036.1484"/><text fill="#000000" font-family="sans-serif" font-size="14" lengthAdjust="spacing" textLength="94.083" x="363.1548" y="1056.1436">Zaaksysteem</text><rect fill="#E2E2F0" height="30.2969" rx="2.5" ry="2.5" style="stroke:#181818;stroke-width:0.5;" width="285.8652" x="839.8408" y="50"/><text fill="#000000" font-family="sans-serif" font-size="14" lengthAdjust="spacing" textLength="271.8652" x="846.8408" y="69.9951">Klanten, Taken &amp; Berichten - Registers</text><rect fill="#E2E2F0" height="30.2969" rx="2.5" ry="2.5" style="stroke:#181818;stroke-width:0.5;" width="285.8652" x="839.8408" y="1036.1484"/><text fill="#000000" font-family="sans-serif" font-size="14" lengthAdjust="spacing" textLength="271.8652" x="846.8408" y="1056.1436">Klanten, Taken &amp; Berichten - Registers</text><rect fill="#E2E2F0" height="30.2969" rx="2.5" ry="2.5" style="stroke:#181818;stroke-width:0.5;" width="155.4219" x="1468.3403" y="50"/><text fill="#000000" font-family="sans-serif" font-size="14" lengthAdjust="spacing" textLength="141.4219" x="1475.3403" y="69.9951">Afhandelcomponent</text><rect fill="#E2E2F0" height="30.2969" rx="2.5" ry="2.5" style="stroke:#181818;stroke-width:0.5;" width="155.4219" x="1468.3403" y="1036.1484"/><text fill="#000000" font-family="sans-serif" font-size="14" lengthAdjust="spacing" textLength="141.4219" x="1475.3403" y="1056.1436">Afhandelcomponent</text><rect fill="#E2E2F0" height="30.2969" rx="2.5" ry="2.5" style="stroke:#181818;stroke-width:0.5;" width="114.8232" x="1633.7622" y="50"/><text fill="#000000" font-family="sans-serif" font-size="14" lengthAdjust="spacing" textLength="100.8232" x="1640.7622" y="69.9951">MijnOmgeving</text><rect fill="#E2E2F0" height="30.2969" rx="2.5" ry="2.5" style="stroke:#181818;stroke-width:0.5;" width="114.8232" x="1633.7622" y="1036.1484"/><text fill="#000000" font-family="sans-serif" font-size="14" lengthAdjust="spacing" textLength="100.8232" x="1640.7622" y="1056.1436">MijnOmgeving</text><polygon fill="#181818" points="1679.1738,108.4297,1689.1738,112.4297,1679.1738,116.4297,1683.1738,112.4297" style="stroke:#181818;stroke-width:1.0;"/><line style="stroke:#181818;stroke-width:1.0;" x1="325.1489" x2="1685.1738" y1="112.4297" y2="112.4297"/><text fill="#000000" font-family="sans-serif" font-size="13" lengthAdjust="spacing" textLength="157.5234" x="332.1489" y="107.3638">Log in op MijnOmgeving</text><polygon fill="#181818" points="1679.1738,137.5625,1689.1738,141.5625,1679.1738,145.5625,1683.1738,141.5625" style="stroke:#181818;stroke-width:1.0;"/><line style="stroke:#181818;stroke-width:1.0;" x1="325.1489" x2="1685.1738" y1="141.5625" y2="141.5625"/><text fill="#000000" font-family="sans-serif" font-size="13" lengthAdjust="spacing" textLength="149.5127" x="332.1489" y="136.4966">Vraag een product aan</text><polygon fill="#181818" points="421.1963,166.6953,411.1963,170.6953,421.1963,174.6953,417.1963,170.6953" style="stroke:#181818;stroke-width:1.0;"/><line style="stroke:#181818;stroke-width:1.0;" x1="415.1963" x2="1690.1738" y1="170.6953" y2="170.6953"/><text fill="#000000" font-family="sans-serif" font-size="13" lengthAdjust="spacing" textLength="78.1777" x="427.1963" y="165.6294">Cre&#235;er zaak</text><line style="stroke:#181818;stroke-width:1.0;" x1="51.2441" x2="93.2441" y1="199.8281" y2="199.8281"/><line style="stroke:#181818;stroke-width:1.0;" x1="93.2441" x2="93.2441" y1="199.8281" y2="212.8281"/><line style="stroke:#181818;stroke-width:1.0;" x1="52.2441" x2="93.2441" y1="212.8281" y2="212.8281"/><polygon fill="#181818" points="62.2441,208.8281,52.2441,212.8281,62.2441,216.8281,58.2441,212.8281" style="stroke:#181818;stroke-width:1.0;"/><text fill="#000000" font-family="sans-serif" font-size="13" lengthAdjust="spacing" textLength="178.6738" x="58.2441" y="194.7622">Neemt zaak in behandeling</text><line style="stroke:#181818;stroke-width:1.0;" x1="51.2441" x2="93.2441" y1="241.9609" y2="241.9609"/><line style="stroke:#181818;stroke-width:1.0;" x1="93.2441" x2="93.2441" y1="241.9609" y2="254.9609"/><line style="stroke:#181818;stroke-width:1.0;" x1="52.2441" x2="93.2441" y1="254.9609" y2="254.9609"/><polygon fill="#181818" points="62.2441,250.9609,52.2441,254.9609,62.2441,258.9609,58.2441,254.9609" style="stroke:#181818;stroke-width:1.0;"/><text fill="#000000" font-family="sans-serif" font-size="13" lengthAdjust="spacing" textLength="100.4453" x="58.2441" y="236.895">Beoordeel zaak</text><line style="stroke:#181818;stroke-width:1.0;" x1="51.2441" x2="93.2441" y1="284.0938" y2="284.0938"/><line style="stroke:#181818;stroke-width:1.0;" x1="93.2441" x2="93.2441" y1="284.0938" y2="297.0938"/><line style="stroke:#181818;stroke-width:1.0;" x1="52.2441" x2="93.2441" y1="297.0938" y2="297.0938"/><polygon fill="#181818" points="62.2441,293.0938,52.2441,297.0938,62.2441,301.0938,58.2441,297.0938" style="stroke:#181818;stroke-width:1.0;"/><text fill="#000000" font-family="sans-serif" font-size="13" lengthAdjust="spacing" textLength="259.9048" x="58.2441" y="279.0278">Constateer dat extra document nodig is</text><polygon fill="#181818" points="398.1963,322.2266,408.1963,326.2266,398.1963,330.2266,402.1963,326.2266" style="stroke:#181818;stroke-width:1.0;"/><line style="stroke:#181818;stroke-width:1.0;" x1="51.2441" x2="404.1963" y1="326.2266" y2="326.2266"/><text fill="#000000" font-family="sans-serif" font-size="13" lengthAdjust="spacing" textLength="330.3955" x="58.2441" y="321.1606">Maak verzoek tot aanvulling aan (extra document)</text><polygon fill="#181818" points="970.7734,351.3594,980.7734,355.3594,970.7734,359.3594,974.7734,355.3594" style="stroke:#181818;stroke-width:1.0;"/><line style="stroke:#181818;stroke-width:1.0;" x1="410.1963" x2="976.7734" y1="355.3594" y2="355.3594"/><text fill="#000000" font-family="sans-serif" font-size="13" lengthAdjust="spacing" textLength="548.5771" x="417.1963" y="350.2935">Schrijf taak weg in Takenregister (Zaakspecifiek voorkeurskanaal in extraData-veld)</text><polygon fill="#181818" points="1534.0513,380.4922,1544.0513,384.4922,1534.0513,388.4922,1538.0513,384.4922" style="stroke:#181818;stroke-width:1.0;"/><line style="stroke:#181818;stroke-width:1.0;" x1="982.7734" x2="1540.0513" y1="384.4922" y2="384.4922"/><text fill="#000000" font-family="sans-serif" font-size="13" lengthAdjust="spacing" textLength="342.418" x="989.7734" y="379.4263">Stuur event "Nieuwe taak" naar Afhandelcomponent</text><polygon fill="#181818" points="993.7734,409.625,983.7734,413.625,993.7734,417.625,989.7734,413.625" style="stroke:#181818;stroke-width:1.0;"/><line style="stroke:#181818;stroke-width:1.0;" x1="987.7734" x2="1545.0513" y1="413.625" y2="413.625"/><text fill="#000000" font-family="sans-serif" font-size="13" lengthAdjust="spacing" textLength="202.7505" x="999.7734" y="408.5591">Haalt taak op uit Takenregister</text><polygon fill="#181818" points="993.7734,438.7578,983.7734,442.7578,993.7734,446.7578,989.7734,442.7578" style="stroke:#181818;stroke-width:1.0;"/><line style="stroke:#181818;stroke-width:1.0;" x1="987.7734" x2="1545.0513" y1="442.7578" y2="442.7578"/><text fill="#000000" font-family="sans-serif" font-size="13" lengthAdjust="spacing" textLength="539.2778" x="999.7734" y="437.6919">Haalt klant op uit het Klantenregister (tbv Voorkeurskanaal als niet gevuld in taak)</text><line style="stroke:#181818;stroke-width:1.0;" x1="1546.0513" x2="1588.0513" y1="471.8906" y2="471.8906"/><line style="stroke:#181818;stroke-width:1.0;" x1="1588.0513" x2="1588.0513" y1="471.8906" y2="484.8906"/><line style="stroke:#181818;stroke-width:1.0;" x1="1547.0513" x2="1588.0513" y1="484.8906" y2="484.8906"/><polygon fill="#181818" points="1557.0513,480.8906,1547.0513,484.8906,1557.0513,488.8906,1553.0513,484.8906" style="stroke:#181818;stroke-width:1.0;"/><text fill="#000000" font-family="sans-serif" font-size="13" lengthAdjust="spacing" textLength="93.5835" x="1553.0513" y="466.8247">Cre&#235;er bericht</text><polygon fill="#181818" points="336.1489,510.0234,326.1489,514.0234,336.1489,518.0234,332.1489,514.0234" style="stroke:#181818;stroke-width:1.0;"/><line style="stroke:#181818;stroke-width:1.0;" x1="330.1489" x2="1545.0513" y1="514.0234" y2="514.0234"/><text fill="#000000" font-family="sans-serif" font-size="13" lengthAdjust="spacing" textLength="241.395" x="342.1489" y="508.9575">Verstuur bericht via voorkeurskanaal</text><polygon fill="#181818" points="993.7734,539.1563,983.7734,543.1563,993.7734,547.1563,989.7734,543.1563" style="stroke:#181818;stroke-width:1.0;"/><line style="stroke:#181818;stroke-width:1.0;" x1="987.7734" x2="1545.0513" y1="543.1563" y2="543.1563"/><text fill="#000000" font-family="sans-serif" font-size="13" lengthAdjust="spacing" textLength="223.1201" x="999.7734" y="538.0903">Sla bericht op in Berichtenregister</text><polygon fill="#181818" points="1679.1738,568.2891,1689.1738,572.2891,1679.1738,576.2891,1683.1738,572.2891" style="stroke:#181818;stroke-width:1.0;"/><line style="stroke:#181818;stroke-width:1.0;" x1="325.1489" x2="1685.1738" y1="572.2891" y2="572.2891"/><text fill="#000000" font-family="sans-serif" font-size="13" lengthAdjust="spacing" textLength="157.5234" x="332.1489" y="567.2231">Log in op MijnOmgeving</text><polygon fill="#181818" points="993.7734,597.4219,983.7734,601.4219,993.7734,605.4219,989.7734,601.4219" style="stroke:#181818;stroke-width:1.0;"/><line style="stroke:#181818;stroke-width:1.0;" x1="987.7734" x2="1690.1738" y1="601.4219" y2="601.4219"/><text fill="#000000" font-family="sans-serif" font-size="13" lengthAdjust="spacing" textLength="202.7505" x="999.7734" y="596.356">Haalt taak op uit Takenregister</text><polygon fill="#181818" points="1679.1738,626.5547,1689.1738,630.5547,1679.1738,634.5547,1683.1738,630.5547" style="stroke:#181818;stroke-width:1.0;"/><line style="stroke:#181818;stroke-width:1.0;" x1="325.1489" x2="1685.1738" y1="630.5547" y2="630.5547"/><text fill="#000000" font-family="sans-serif" font-size="13" lengthAdjust="spacing" textLength="269.1914" x="332.1489" y="625.4888">Voer taak uit door document te uploaden</text><polygon fill="#181818" points="993.7734,655.6875,983.7734,659.6875,993.7734,663.6875,989.7734,659.6875" style="stroke:#181818;stroke-width:1.0;"/><line style="stroke:#181818;stroke-width:1.0;" x1="987.7734" x2="1690.1738" y1="659.6875" y2="659.6875"/><text fill="#000000" font-family="sans-serif" font-size="13" lengthAdjust="spacing" textLength="335.5879" x="999.7734" y="654.6216">Update taakstatus in Takenregister naar "gesloten"</text><polygon fill="#181818" points="421.1963,684.8203,411.1963,688.8203,421.1963,692.8203,417.1963,688.8203" style="stroke:#181818;stroke-width:1.0;"/><line style="stroke:#181818;stroke-width:1.0;" x1="415.1963" x2="1690.1738" y1="688.8203" y2="688.8203"/><text fill="#000000" font-family="sans-serif" font-size="13" lengthAdjust="spacing" textLength="247.7998" x="427.1963" y="683.7544">Voeg document toe aan Zaaksysteem</text><polygon fill="#181818" points="62.2441,713.9531,52.2441,717.9531,62.2441,721.9531,58.2441,717.9531" style="stroke:#181818;stroke-width:1.0;"/><line style="stroke:#181818;stroke-width:1.0;" x1="56.2441" x2="409.1963" y1="717.9531" y2="717.9531"/><text fill="#000000" font-family="sans-serif" font-size="13" lengthAdjust="spacing" textLength="333.3789" x="68.2441" y="712.8872">Notificeer medewerker over toegevoegd document</text><line style="stroke:#181818;stroke-width:1.0;" x1="51.2441" x2="93.2441" y1="747.0859" y2="747.0859"/><line style="stroke:#181818;stroke-width:1.0;" x1="93.2441" x2="93.2441" y1="747.0859" y2="760.0859"/><line style="stroke:#181818;stroke-width:1.0;" x1="52.2441" x2="93.2441" y1="760.0859" y2="760.0859"/><polygon fill="#181818" points="62.2441,756.0859,52.2441,760.0859,62.2441,764.0859,58.2441,760.0859" style="stroke:#181818;stroke-width:1.0;"/><text fill="#000000" font-family="sans-serif" font-size="13" lengthAdjust="spacing" textLength="140.8481" x="58.2441" y="742.02">Beoordeelt document</text><line style="stroke:#181818;stroke-width:1.0;" x1="51.2441" x2="93.2441" y1="789.2188" y2="789.2188"/><line style="stroke:#181818;stroke-width:1.0;" x1="93.2441" x2="93.2441" y1="789.2188" y2="802.2188"/><line style="stroke:#181818;stroke-width:1.0;" x1="52.2441" x2="93.2441" y1="802.2188" y2="802.2188"/><polygon fill="#181818" points="62.2441,798.2188,52.2441,802.2188,62.2441,806.2188,58.2441,802.2188" style="stroke:#181818;stroke-width:1.0;"/><text fill="#000000" font-family="sans-serif" font-size="13" lengthAdjust="spacing" textLength="140.6958" x="58.2441" y="784.1528">Accepteert document</text><polygon fill="#181818" points="398.1963,827.3516,408.1963,831.3516,398.1963,835.3516,402.1963,831.3516" style="stroke:#181818;stroke-width:1.0;"/><line style="stroke:#181818;stroke-width:1.0;" x1="51.2441" x2="404.1963" y1="831.3516" y2="831.3516"/><text fill="#000000" font-family="sans-serif" font-size="13" lengthAdjust="spacing" textLength="198.2754" x="58.2441" y="826.2856">Zet zaak naar volgende status</text><polygon fill="#181818" points="1534.0513,856.4844,1544.0513,860.4844,1534.0513,864.4844,1538.0513,860.4844" style="stroke:#181818;stroke-width:1.0;"/><line style="stroke:#181818;stroke-width:1.0;" x1="410.1963" x2="1540.0513" y1="860.4844" y2="860.4844"/><text fill="#000000" font-family="sans-serif" font-size="13" lengthAdjust="spacing" textLength="381.6909" x="417.1963" y="855.4185">Stuur event "update zaakstatus" naar Afhandelcomponent</text><polygon fill="#181818" points="421.1963,885.6172,411.1963,889.6172,421.1963,893.6172,417.1963,889.6172" style="stroke:#181818;stroke-width:1.0;"/><line style="stroke:#181818;stroke-width:1.0;" x1="415.1963" x2="1545.0513" y1="889.6172" y2="889.6172"/><text fill="#000000" font-family="sans-serif" font-size="13" lengthAdjust="spacing" textLength="475.5029" x="427.1963" y="884.5513">Haal zaak op a.h.v. "update zaakstatus" (inclusief zaak voorkeurskanaal)</text><polygon fill="#181818" points="993.7734,914.75,983.7734,918.75,993.7734,922.75,989.7734,918.75" style="stroke:#181818;stroke-width:1.0;"/><line style="stroke:#181818;stroke-width:1.0;" x1="987.7734" x2="1545.0513" y1="918.75" y2="918.75"/><text fill="#000000" font-family="sans-serif" font-size="13" lengthAdjust="spacing" textLength="216.6392" x="999.7734" y="913.6841">Haalt klant op uit Klantenregister</text><line style="stroke:#181818;stroke-width:1.0;" x1="1546.0513" x2="1588.0513" y1="947.8828" y2="947.8828"/><line style="stroke:#181818;stroke-width:1.0;" x1="1588.0513" x2="1588.0513" y1="947.8828" y2="960.8828"/><line style="stroke:#181818;stroke-width:1.0;" x1="1547.0513" x2="1588.0513" y1="960.8828" y2="960.8828"/><polygon fill="#181818" points="1557.0513,956.8828,1547.0513,960.8828,1557.0513,964.8828,1553.0513,960.8828" style="stroke:#181818;stroke-width:1.0;"/><text fill="#000000" font-family="sans-serif" font-size="13" lengthAdjust="spacing" textLength="93.5835" x="1553.0513" y="942.8169">Cre&#235;er bericht</text><polygon fill="#181818" points="336.1489,986.0156,326.1489,990.0156,336.1489,994.0156,332.1489,990.0156" style="stroke:#181818;stroke-width:1.0;"/><line style="stroke:#181818;stroke-width:1.0;" x1="330.1489" x2="1545.0513" y1="990.0156" y2="990.0156"/><text fill="#000000" font-family="sans-serif" font-size="13" lengthAdjust="spacing" textLength="241.395" x="342.1489" y="984.9497">Verstuur bericht via voorkeurskanaal</text><polygon fill="#181818" points="993.7734,1015.1484,983.7734,1019.1484,993.7734,1023.1484,989.7734,1019.1484" style="stroke:#181818;stroke-width:1.0;"/><line style="stroke:#181818;stroke-width:1.0;" x1="987.7734" x2="1545.0513" y1="1019.1484" y2="1019.1484"/><text fill="#000000" font-family="sans-serif" font-size="13" lengthAdjust="spacing" textLength="223.1201" x="999.7734" y="1014.0825">Sla bericht op in Berichtenregister</text><!--SRC=[rLJDRXen4BxlKupsK85KU00EbK9wY9IIIasQGswJzR0uQ-oLrpOjhzJ7w8jrx2N0RjW4ZhqWCFFpVJFVDrWuOs51WZPaAx8PfeTRXTfbDLed2rdpTtX2h9hVZIDQTzvl7-Q03UGfW_HdUC2AD7o2ELbPhFW99l23IicfjiaxkVdLSeLQa2hCkZQQjEl-lv0l-lkwf21rcMMf0qo-T9vdyCsK83MOkXi-4Fre4KiWHbLR8tpX055dnp4nvuZi3Auj_Vr35hRyc1qcbMhlVytWZeDT2efmdgbb5g4Cvyp962k8r4V5hurk738U2m8Tq2zd4OGf_9g71je8oKDeibw53er5H1R8RWrLu4mY7hoA2EDN67MBZhEZx5YC5ps3-s9bvSiIN2oseJJvj72xsp2CKbfDXLnARXIOO4NUDXLgH1NZKv-lw70II8bn5XN4zK-8WVivxorGY2ppEqb-Gwbt3bpDmfkKx4ILFVWR1k1QwAmMBrqF-Xd9LLBLBdj53dQoFz1tpm4UUwHHDQ0bHxF2l19n2175UAZXoL6yol2vzTKWs0Y8TSvcIxFRXKEGs5_6ktpl5UvpcIz3tXlwbUobbkoxx9ob3FhOy2XILamHJEnW1qVWQsLGa3xTysVD9cg555tbcxSoJlBAIsgKOSRv-nU2mPH7xGqbGnrVpAplfixbC8xDKaHphm_-DI4ovCeK-4FiwvzpJjmvqLT5GNKyAOFH7P9FjBjkQJJ1g99OEj0Ei4_lOpFxTWVR_GukjNG7N5HHYuv5XDFLD4nFjXX9NIZVI5gsqJr7Z2yz0Jtx_-U6_WS0]--></g></svg>