<svg xmlns="http://www.w3.org/2000/svg" xmlns:xlink="http://www.w3.org/1999/xlink" contentStyleType="text/css" height="1163px" preserveAspectRatio="none" style="width:1213px;height:1163px;background:#FFFFFF;" version="1.1" viewBox="0 0 1213 1163" width="1213px" zoomAndPan="magnify"><defs/><g><line style="stroke:#181818;stroke-width:0.5;stroke-dasharray:5.0,5.0;" x1="51" x2="51" y1="81.2969" y2="1082.4141"/><line style="stroke:#181818;stroke-width:0.5;stroke-dasharray:5.0,5.0;" x1="333.4521" x2="333.4521" y1="81.2969" y2="1082.4141"/><line style="stroke:#181818;stroke-width:0.5;stroke-dasharray:5.0,5.0;" x1="418.4639" x2="418.4639" y1="81.2969" y2="1082.4141"/><line style="stroke:#181818;stroke-width:0.5;stroke-dasharray:5.0,5.0;" x1="606.5469" x2="606.5469" y1="81.2969" y2="1082.4141"/><line style="stroke:#181818;stroke-width:0.5;stroke-dasharray:5.0,5.0;" x1="959.2036" x2="959.2036" y1="81.2969" y2="1082.4141"/><line style="stroke:#181818;stroke-width:0.5;stroke-dasharray:5.0,5.0;" x1="1149.2378" x2="1149.2378" y1="81.2969" y2="1082.4141"/><text fill="#000000" font-family="sans-serif" font-size="14" lengthAdjust="spacing" textLength="86.4883" x="5" y="77.9951">Medewerker</text><ellipse cx="51.2441" cy="13.5" fill="#E2E2F0" rx="8" ry="8" style="stroke:#181818;stroke-width:0.5;"/><path d="M51.2441,21.5 L51.2441,48.5 M38.2441,29.5 L64.2441,29.5 M51.2441,48.5 L38.2441,63.5 M51.2441,48.5 L64.2441,63.5 " fill="none" style="stroke:#181818;stroke-width:0.5;"/><text fill="#000000" font-family="sans-serif" font-size="14" lengthAdjust="spacing" textLength="86.4883" x="5" y="1094.4092">Medewerker</text><ellipse cx="51.2441" cy="1106.2109" fill="#E2E2F0" rx="8" ry="8" style="stroke:#181818;stroke-width:0.5;"/><path d="M51.2441,1114.2109 L51.2441,1141.2109 M38.2441,1122.2109 L64.2441,1122.2109 M51.2441,1141.2109 L38.2441,1156.2109 M51.2441,1141.2109 L64.2441,1156.2109 " fill="none" style="stroke:#181818;stroke-width:0.5;"/><text fill="#000000" font-family="sans-serif" font-size="14" lengthAdjust="spacing" textLength="36.0117" x="312.4521" y="77.9951">Klant</text><ellipse cx="333.458" cy="13.5" fill="#E2E2F0" rx="8" ry="8" style="stroke:#181818;stroke-width:0.5;"/><path d="M333.458,21.5 L333.458,48.5 M320.458,29.5 L346.458,29.5 M333.458,48.5 L320.458,63.5 M333.458,48.5 L346.458,63.5 " fill="none" style="stroke:#181818;stroke-width:0.5;"/><text fill="#000000" font-family="sans-serif" font-size="14" lengthAdjust="spacing" textLength="36.0117" x="312.4521" y="1094.4092">Klant</text><ellipse cx="333.458" cy="1106.2109" fill="#E2E2F0" rx="8" ry="8" style="stroke:#181818;stroke-width:0.5;"/><path d="M333.458,1114.2109 L333.458,1141.2109 M320.458,1122.2109 L346.458,1122.2109 M333.458,1141.2109 L320.458,1156.2109 M333.458,1141.2109 L346.458,1156.2109 " fill="none" style="stroke:#181818;stroke-width:0.5;"/><rect fill="#E2E2F0" height="30.2969" rx="2.5" ry="2.5" style="stroke:#181818;stroke-width:0.5;" width="108.083" x="364.4639" y="50"/><text fill="#000000" font-family="sans-serif" font-size="14" lengthAdjust="spacing" textLength="94.083" x="371.4639" y="69.9951">Zaaksysteem</text><rect fill="#E2E2F0" height="30.2969" rx="2.5" ry="2.5" style="stroke:#181818;stroke-width:0.5;" width="108.083" x="364.4639" y="1081.4141"/><text fill="#000000" font-family="sans-serif" font-size="14" lengthAdjust="spacing" textLength="94.083" x="371.4639" y="1101.4092">Zaaksysteem</text><rect fill="#E2E2F0" height="30.2969" rx="2.5" ry="2.5" style="stroke:#181818;stroke-width:0.5;" width="249.0605" x="482.5469" y="50"/><text fill="#000000" font-family="sans-serif" font-size="14" lengthAdjust="spacing" textLength="235.0605" x="489.5469" y="69.9951">Klanten, Taken &amp; Berichten (KTB)</text><rect fill="#E2E2F0" height="30.2969" rx="2.5" ry="2.5" style="stroke:#181818;stroke-width:0.5;" width="249.0605" x="482.5469" y="1081.4141"/><text fill="#000000" font-family="sans-serif" font-size="14" lengthAdjust="spacing" textLength="235.0605" x="489.5469" y="1101.4092">Klanten, Taken &amp; Berichten (KTB)</text><rect fill="#E2E2F0" height="30.2969" rx="2.5" ry="2.5" style="stroke:#181818;stroke-width:0.5;" width="245.0342" x="837.2036" y="50"/><text fill="#000000" font-family="sans-serif" font-size="14" lengthAdjust="spacing" textLength="231.0342" x="844.2036" y="69.9951">Output Management Component</text><rect fill="#E2E2F0" height="30.2969" rx="2.5" ry="2.5" style="stroke:#181818;stroke-width:0.5;" width="245.0342" x="837.2036" y="1081.4141"/><text fill="#000000" font-family="sans-serif" font-size="14" lengthAdjust="spacing" textLength="231.0342" x="844.2036" y="1101.4092">Output Management Component</text><rect fill="#E2E2F0" height="30.2969" rx="2.5" ry="2.5" style="stroke:#181818;stroke-width:0.5;" width="114.8232" x="1092.2378" y="50"/><text fill="#000000" font-family="sans-serif" font-size="14" lengthAdjust="spacing" textLength="100.8232" x="1099.2378" y="69.9951">MijnOmgeving</text><rect fill="#E2E2F0" height="30.2969" rx="2.5" ry="2.5" style="stroke:#181818;stroke-width:0.5;" width="114.8232" x="1092.2378" y="1081.4141"/><text fill="#000000" font-family="sans-serif" font-size="14" lengthAdjust="spacing" textLength="100.8232" x="1099.2378" y="1101.4092">MijnOmgeving</text><polygon fill="#181818" points="1137.6494,108.4297,1147.6494,112.4297,1137.6494,116.4297,1141.6494,112.4297" style="stroke:#181818;stroke-width:1.0;"/><line style="stroke:#181818;stroke-width:1.0;" x1="333.458" x2="1143.6494" y1="112.4297" y2="112.4297"/><text fill="#000000" font-family="sans-serif" font-size="13" lengthAdjust="spacing" textLength="157.5234" x="340.458" y="107.3638">Log in op MijnOmgeving</text><polygon fill="#181818" points="1137.6494,137.5625,1147.6494,141.5625,1137.6494,145.5625,1141.6494,141.5625" style="stroke:#181818;stroke-width:1.0;"/><line style="stroke:#181818;stroke-width:1.0;" x1="333.458" x2="1143.6494" y1="141.5625" y2="141.5625"/><text fill="#000000" font-family="sans-serif" font-size="13" lengthAdjust="spacing" textLength="198.3071" x="340.458" y="136.4966">Vraag e-dienst en product aan</text><polygon fill="#181818" points="429.5054,166.6953,419.5054,170.6953,429.5054,174.6953,425.5054,170.6953" style="stroke:#181818;stroke-width:1.0;"/><line style="stroke:#181818;stroke-width:1.0;" x1="423.5054" x2="1148.6494" y1="170.6953" y2="170.6953"/><text fill="#000000" font-family="sans-serif" font-size="13" lengthAdjust="spacing" textLength="78.1777" x="435.5054" y="165.6294">Cre&#235;er zaak</text><polygon fill="#181818" points="62.2441,195.8281,52.2441,199.8281,62.2441,203.8281,58.2441,199.8281" style="stroke:#181818;stroke-width:1.0;"/><line style="stroke:#181818;stroke-width:1.0;" x1="56.2441" x2="417.5054" y1="199.8281" y2="199.8281"/><text fill="#000000" font-family="sans-serif" font-size="13" lengthAdjust="spacing" textLength="267.3442" x="68.2441" y="194.7622">Notificeer medewerker over nieuwe zaak</text><line style="stroke:#181818;stroke-width:1.0;" x1="51.2441" x2="93.2441" y1="228.9609" y2="228.9609"/><line style="stroke:#181818;stroke-width:1.0;" x1="93.2441" x2="93.2441" y1="228.9609" y2="241.9609"/><line style="stroke:#181818;stroke-width:1.0;" x1="52.2441" x2="93.2441" y1="241.9609" y2="241.9609"/><polygon fill="#181818" points="62.2441,237.9609,52.2441,241.9609,62.2441,245.9609,58.2441,241.9609" style="stroke:#181818;stroke-width:1.0;"/><text fill="#000000" font-family="sans-serif" font-size="13" lengthAdjust="spacing" textLength="100.4453" x="58.2441" y="223.895">Beoordeel zaak</text><line style="stroke:#181818;stroke-width:1.0;" x1="51.2441" x2="93.2441" y1="271.0938" y2="271.0938"/><line style="stroke:#181818;stroke-width:1.0;" x1="93.2441" x2="93.2441" y1="271.0938" y2="284.0938"/><line style="stroke:#181818;stroke-width:1.0;" x1="52.2441" x2="93.2441" y1="284.0938" y2="284.0938"/><polygon fill="#181818" points="62.2441,280.0938,52.2441,284.0938,62.2441,288.0938,58.2441,284.0938" style="stroke:#181818;stroke-width:1.0;"/><text fill="#000000" font-family="sans-serif" font-size="13" lengthAdjust="spacing" textLength="259.9048" x="58.2441" y="266.0278">Constateer dat extra document nodig is</text><polygon fill="#181818" points="406.5054,309.2266,416.5054,313.2266,406.5054,317.2266,410.5054,313.2266" style="stroke:#181818;stroke-width:1.0;"/><line style="stroke:#181818;stroke-width:1.0;" x1="51.2441" x2="412.5054" y1="313.2266" y2="313.2266"/><text fill="#000000" font-family="sans-serif" font-size="13" lengthAdjust="spacing" textLength="330.3955" x="58.2441" y="308.1606">Maak verzoek tot aanvulling aan (extra document)</text><polygon fill="#181818" points="595.0771,338.3594,605.0771,342.3594,595.0771,346.3594,599.0771,342.3594" style="stroke:#181818;stroke-width:1.0;"/><line style="stroke:#181818;stroke-width:1.0;" x1="418.5054" x2="601.0771" y1="342.3594" y2="342.3594"/><text fill="#000000" font-family="sans-serif" font-size="13" lengthAdjust="spacing" textLength="149.9888" x="425.5054" y="337.2935">Schrijf taak weg in KTB</text><polygon fill="#181818" points="947.7207,367.4922,957.7207,371.4922,947.7207,375.4922,951.7207,371.4922" style="stroke:#181818;stroke-width:1.0;"/><line style="stroke:#181818;stroke-width:1.0;" x1="607.0771" x2="953.7207" y1="371.4922" y2="371.4922"/><text fill="#000000" font-family="sans-serif" font-size="13" lengthAdjust="spacing" textLength="328.6436" x="614.0771" y="366.4263">Stuur event naar Output Management Component</text><polygon fill="#181818" points="618.0771,396.625,608.0771,400.625,618.0771,404.625,614.0771,400.625" style="stroke:#181818;stroke-width:1.0;"/><line style="stroke:#181818;stroke-width:1.0;" x1="612.0771" x2="958.7207" y1="400.625" y2="400.625"/><text fill="#000000" font-family="sans-serif" font-size="13" lengthAdjust="spacing" textLength="163.9346" x="624.0771" y="395.5591">Haal taak op a.h.v. event</text><polygon fill="#181818" points="618.0771,425.7578,608.0771,429.7578,618.0771,433.7578,614.0771,429.7578" style="stroke:#181818;stroke-width:1.0;"/><line style="stroke:#181818;stroke-width:1.0;" x1="612.0771" x2="958.7207" y1="429.7578" y2="429.7578"/><text fill="#000000" font-family="sans-serif" font-size="13" lengthAdjust="spacing" textLength="267.0205" x="624.0771" y="424.6919">Haal klant op en bepaal voorkeurskanaal</text><polygon fill="#181818" points="947.7207,454.8906,957.7207,458.8906,947.7207,462.8906,951.7207,458.8906" style="stroke:#181818;stroke-width:1.0;"/><line style="stroke:#181818;stroke-width:1.0;" x1="607.0771" x2="953.7207" y1="458.8906" y2="458.8906"/><text fill="#000000" font-family="sans-serif" font-size="13" lengthAdjust="spacing" textLength="267.5601" x="614.0771" y="453.8247">Stuur klantgegevens en voorkeurskanaal</text><line style="stroke:#181818;stroke-width:1.0;" x1="959.7207" x2="1001.7207" y1="488.0234" y2="488.0234"/><line style="stroke:#181818;stroke-width:1.0;" x1="1001.7207" x2="1001.7207" y1="488.0234" y2="501.0234"/><line style="stroke:#181818;stroke-width:1.0;" x1="960.7207" x2="1001.7207" y1="501.0234" y2="501.0234"/><polygon fill="#181818" points="970.7207,497.0234,960.7207,501.0234,970.7207,505.0234,966.7207,501.0234" style="stroke:#181818;stroke-width:1.0;"/><text fill="#000000" font-family="sans-serif" font-size="13" lengthAdjust="spacing" textLength="93.5835" x="966.7207" y="482.9575">Cre&#235;er bericht</text><polygon fill="#181818" points="344.458,526.1563,334.458,530.1563,344.458,534.1563,340.458,530.1563" style="stroke:#181818;stroke-width:1.0;"/><line style="stroke:#181818;stroke-width:1.0;" x1="338.458" x2="958.7207" y1="530.1563" y2="530.1563"/><text fill="#000000" font-family="sans-serif" font-size="13" lengthAdjust="spacing" textLength="241.395" x="350.458" y="525.0903">Verstuur bericht via voorkeurskanaal</text><polygon fill="#181818" points="618.0771,555.2891,608.0771,559.2891,618.0771,563.2891,614.0771,559.2891" style="stroke:#181818;stroke-width:1.0;"/><line style="stroke:#181818;stroke-width:1.0;" x1="612.0771" x2="958.7207" y1="559.2891" y2="559.2891"/><text fill="#000000" font-family="sans-serif" font-size="13" lengthAdjust="spacing" textLength="135.4907" x="624.0771" y="554.2231">Sla bericht op in KTB</text><polygon fill="#181818" points="1137.6494,584.4219,1147.6494,588.4219,1137.6494,592.4219,1141.6494,588.4219" style="stroke:#181818;stroke-width:1.0;"/><line style="stroke:#181818;stroke-width:1.0;" x1="333.458" x2="1143.6494" y1="588.4219" y2="588.4219"/><text fill="#000000" font-family="sans-serif" font-size="13" lengthAdjust="spacing" textLength="157.5234" x="340.458" y="583.356">Log in op MijnOmgeving</text><polygon fill="#181818" points="618.0771,613.5547,608.0771,617.5547,618.0771,621.5547,614.0771,617.5547" style="stroke:#181818;stroke-width:1.0;"/><line style="stroke:#181818;stroke-width:1.0;" x1="612.0771" x2="1148.6494" y1="617.5547" y2="617.5547"/><text fill="#000000" font-family="sans-serif" font-size="13" lengthAdjust="spacing" textLength="132.9453" x="624.0771" y="612.4888">Haal taak op uit KTB</text><polygon fill="#181818" points="1137.6494,642.6875,1147.6494,646.6875,1137.6494,650.6875,1141.6494,646.6875" style="stroke:#181818;stroke-width:1.0;"/><line style="stroke:#181818;stroke-width:1.0;" x1="333.458" x2="1143.6494" y1="646.6875" y2="646.6875"/><text fill="#000000" font-family="sans-serif" font-size="13" lengthAdjust="spacing" textLength="269.1914" x="340.458" y="641.6216">Voer taak uit door document te uploaden</text><polygon fill="#181818" points="618.0771,671.8203,608.0771,675.8203,618.0771,679.8203,614.0771,675.8203" style="stroke:#181818;stroke-width:1.0;"/><line style="stroke:#181818;stroke-width:1.0;" x1="612.0771" x2="1148.6494" y1="675.8203" y2="675.8203"/><text fill="#000000" font-family="sans-serif" font-size="13" lengthAdjust="spacing" textLength="125.0044" x="624.0771" y="670.7544">Zet taak op gereed</text><polygon fill="#181818" points="429.5054,700.9531,419.5054,704.9531,429.5054,708.9531,425.5054,704.9531" style="stroke:#181818;stroke-width:1.0;"/><line style="stroke:#181818;stroke-width:1.0;" x1="423.5054" x2="1148.6494" y1="704.9531" y2="704.9531"/><text fill="#000000" font-family="sans-serif" font-size="13" lengthAdjust="spacing" textLength="247.7998" x="435.5054" y="699.8872">Voeg document toe aan Zaaksysteem</text><polygon fill="#181818" points="62.2441,730.0859,52.2441,734.0859,62.2441,738.0859,58.2441,734.0859" style="stroke:#181818;stroke-width:1.0;"/><line style="stroke:#181818;stroke-width:1.0;" x1="56.2441" x2="417.5054" y1="734.0859" y2="734.0859"/><text fill="#000000" font-family="sans-serif" font-size="13" lengthAdjust="spacing" textLength="333.3789" x="68.2441" y="729.02">Notificeer medewerker over toegevoegd document</text><polygon fill="#181818" points="406.5054,759.2188,416.5054,763.2188,406.5054,767.2188,410.5054,763.2188" style="stroke:#181818;stroke-width:1.0;"/><line style="stroke:#181818;stroke-width:1.0;" x1="51.2441" x2="412.5054" y1="763.2188" y2="763.2188"/><text fill="#000000" font-family="sans-serif" font-size="13" lengthAdjust="spacing" textLength="128.813" x="58.2441" y="758.1528">Zet Zaak op gereed</text><line style="stroke:#181818;stroke-width:1.0;" x1="51.2441" x2="93.2441" y1="792.3516" y2="792.3516"/><line style="stroke:#181818;stroke-width:1.0;" x1="93.2441" x2="93.2441" y1="792.3516" y2="805.3516"/><line style="stroke:#181818;stroke-width:1.0;" x1="52.2441" x2="93.2441" y1="805.3516" y2="805.3516"/><polygon fill="#181818" points="62.2441,801.3516,52.2441,805.3516,62.2441,809.3516,58.2441,805.3516" style="stroke:#181818;stroke-width:1.0;"/><text fill="#000000" font-family="sans-serif" font-size="13" lengthAdjust="spacing" textLength="100.4453" x="58.2441" y="787.2856">Beoordeel zaak</text><line style="stroke:#181818;stroke-width:1.0;" x1="51.2441" x2="93.2441" y1="834.4844" y2="834.4844"/><line style="stroke:#181818;stroke-width:1.0;" x1="93.2441" x2="93.2441" y1="834.4844" y2="847.4844"/><line style="stroke:#181818;stroke-width:1.0;" x1="52.2441" x2="93.2441" y1="847.4844" y2="847.4844"/><polygon fill="#181818" points="62.2441,843.4844,52.2441,847.4844,62.2441,851.4844,58.2441,847.4844" style="stroke:#181818;stroke-width:1.0;"/><text fill="#000000" font-family="sans-serif" font-size="13" lengthAdjust="spacing" textLength="268.2139" x="58.2441" y="829.4185">Constateer dat extra document acoord is</text><polygon fill="#181818" points="406.5054,872.6172,416.5054,876.6172,406.5054,880.6172,410.5054,876.6172" style="stroke:#181818;stroke-width:1.0;"/><line style="stroke:#181818;stroke-width:1.0;" x1="51.2441" x2="412.5054" y1="876.6172" y2="876.6172"/><text fill="#000000" font-family="sans-serif" font-size="13" lengthAdjust="spacing" textLength="162.2397" x="58.2441" y="871.5513">Zet zaak op afgehandeld</text><polygon fill="#181818" points="947.7207,901.75,957.7207,905.75,947.7207,909.75,951.7207,905.75" style="stroke:#181818;stroke-width:1.0;"/><line style="stroke:#181818;stroke-width:1.0;" x1="607.0771" x2="953.7207" y1="905.75" y2="905.75"/><text fill="#000000" font-family="sans-serif" font-size="13" lengthAdjust="spacing" textLength="328.6436" x="614.0771" y="900.6841">Stuur event naar Output Management Component</text><polygon fill="#181818" points="618.0771,930.8828,608.0771,934.8828,618.0771,938.8828,614.0771,934.8828" style="stroke:#181818;stroke-width:1.0;"/><line style="stroke:#181818;stroke-width:1.0;" x1="612.0771" x2="958.7207" y1="934.8828" y2="934.8828"/><text fill="#000000" font-family="sans-serif" font-size="13" lengthAdjust="spacing" textLength="267.0205" x="624.0771" y="929.8169">Haal klant op en bepaal voorkeurskanaal</text><polygon fill="#181818" points="947.7207,960.0156,957.7207,964.0156,947.7207,968.0156,951.7207,964.0156" style="stroke:#181818;stroke-width:1.0;"/><line style="stroke:#181818;stroke-width:1.0;" x1="607.0771" x2="953.7207" y1="964.0156" y2="964.0156"/><text fill="#000000" font-family="sans-serif" font-size="13" lengthAdjust="spacing" textLength="267.5601" x="614.0771" y="958.9497">Stuur klantgegevens en voorkeurskanaal</text><line style="stroke:#181818;stroke-width:1.0;" x1="959.7207" x2="1001.7207" y1="993.1484" y2="993.1484"/><line style="stroke:#181818;stroke-width:1.0;" x1="1001.7207" x2="1001.7207" y1="993.1484" y2="1006.1484"/><line style="stroke:#181818;stroke-width:1.0;" x1="960.7207" x2="1001.7207" y1="1006.1484" y2="1006.1484"/><polygon fill="#181818" points="970.7207,1002.1484,960.7207,1006.1484,970.7207,1010.1484,966.7207,1006.1484" style="stroke:#181818;stroke-width:1.0;"/><text fill="#000000" font-family="sans-serif" font-size="13" lengthAdjust="spacing" textLength="93.5835" x="966.7207" y="988.0825">Cre&#235;er bericht</text><polygon fill="#181818" points="344.458,1031.2813,334.458,1035.2813,344.458,1039.2813,340.458,1035.2813" style="stroke:#181818;stroke-width:1.0;"/><line style="stroke:#181818;stroke-width:1.0;" x1="338.458" x2="958.7207" y1="1035.2813" y2="1035.2813"/><text fill="#000000" font-family="sans-serif" font-size="13" lengthAdjust="spacing" textLength="241.395" x="350.458" y="1030.2153">Verstuur bericht via voorkeurskanaal</text><polygon fill="#181818" points="618.0771,1060.4141,608.0771,1064.4141,618.0771,1068.4141,614.0771,1064.4141" style="stroke:#181818;stroke-width:1.0;"/><line style="stroke:#181818;stroke-width:1.0;" x1="612.0771" x2="958.7207" y1="1064.4141" y2="1064.4141"/><text fill="#000000" font-family="sans-serif" font-size="13" lengthAdjust="spacing" textLength="135.4907" x="624.0771" y="1059.3481">Sla bericht op in KTB</text><!--SRC=[xLJ1Rjim3BthAuWSYXPOym4vx91S1hHf3ojso8sr64MrBHcov6pvfNt6VcoKtBgsrphDiA6NNWoP8XyVAJvYvgs3DKdQayl92Ko6gmAD5nKwhpDTyHasY7dze_P4vS1-TRS4h66M8iXyWZlCoS0PBCdfRCScE6UVYzaWQdORV1KyhD6WefBOjB9bPGsVXfvh_M1kIqMDDag8b0KkFm_C2xYs2hG1MmtTN_7-vX0LqANKP6eFpB1oLeRC0w8HVTyOsojy0Ij7ltwIWmCRHUyc9UcQk80Rw_LMPyIkPMS6s_37Q0fxQX6UGyO0IxBMIQBYcEFASWteOoQ9NCntxn2apK9ggh5ISsjgCK8O5BNc7s1g1qivU9lQq8IYY0tW8vmFGI_6XVFpBk1hjdFwOGi-WkqflGTVY3WVx3Fvu1pjGt10JUACw632NKnYTOI-81Oj6nuBdE_cpRnDS4fydYQ80NX8xgcAfeOV9gVWwfp3iJYfm0IdI4KUTSGSWnsbTYJDqtpUj-9xGwcH4Kk2N9qOFWP2e_5qSkqW5DYXSECUn-14vOv5-EUB1ktR-Nf5uvQxa7oZe-HAdaNX2K9LM9HaNawq8T_bKUI8vFHMu6Ig1syfoQQ_CSLVBWl6ufpyaHt-b98ZySs8-FzUCPX5cBXZZX0xF6bngsY7Hb8XttaxVAZxtwZxDm00]--></g></svg>