<svg xmlns="http://www.w3.org/2000/svg" xmlns:xlink="http://www.w3.org/1999/xlink" contentStyleType="text/css" height="560px" preserveAspectRatio="none" style="width:1200px;height:560px;background:#FFFFFF;" version="1.1" viewBox="0 0 1200 560" width="1200px" zoomAndPan="magnify"><defs/><g><line style="stroke:#181818;stroke-width:0.5;stroke-dasharray:5.0,5.0;" x1="51" x2="51" y1="81.2969" y2="480.0234"/><line style="stroke:#181818;stroke-width:0.5;stroke-dasharray:5.0,5.0;" x1="128.4883" x2="128.4883" y1="81.2969" y2="480.0234"/><line style="stroke:#181818;stroke-width:0.5;stroke-dasharray:5.0,5.0;" x1="405.5981" x2="405.5981" y1="81.2969" y2="480.0234"/><line style="stroke:#181818;stroke-width:0.5;stroke-dasharray:5.0,5.0;" x1="593.6812" x2="593.6812" y1="81.2969" y2="480.0234"/><line style="stroke:#181818;stroke-width:0.5;stroke-dasharray:5.0,5.0;" x1="946.3379" x2="946.3379" y1="81.2969" y2="480.0234"/><line style="stroke:#181818;stroke-width:0.5;stroke-dasharray:5.0,5.0;" x1="1136.3721" x2="1136.3721" y1="81.2969" y2="480.0234"/><text fill="#000000" font-family="sans-serif" font-size="14" lengthAdjust="spacing" textLength="86.4883" x="5" y="77.9951">Medewerker</text><ellipse cx="51.2441" cy="13.5" fill="#E2E2F0" rx="8" ry="8" style="stroke:#181818;stroke-width:0.5;"/><path d="M51.2441,21.5 L51.2441,48.5 M38.2441,29.5 L64.2441,29.5 M51.2441,48.5 L38.2441,63.5 M51.2441,48.5 L64.2441,63.5 " fill="none" style="stroke:#181818;stroke-width:0.5;"/><text fill="#000000" font-family="sans-serif" font-size="14" lengthAdjust="spacing" textLength="86.4883" x="5" y="492.0186">Medewerker</text><ellipse cx="51.2441" cy="503.8203" fill="#E2E2F0" rx="8" ry="8" style="stroke:#181818;stroke-width:0.5;"/><path d="M51.2441,511.8203 L51.2441,538.8203 M38.2441,519.8203 L64.2441,519.8203 M51.2441,538.8203 L38.2441,553.8203 M51.2441,538.8203 L64.2441,553.8203 " fill="none" style="stroke:#181818;stroke-width:0.5;"/><text fill="#000000" font-family="sans-serif" font-size="14" lengthAdjust="spacing" textLength="36.0117" x="107.4883" y="77.9951">Klant</text><ellipse cx="128.4941" cy="13.5" fill="#E2E2F0" rx="8" ry="8" style="stroke:#181818;stroke-width:0.5;"/><path d="M128.4941,21.5 L128.4941,48.5 M115.4941,29.5 L141.4941,29.5 M128.4941,48.5 L115.4941,63.5 M128.4941,48.5 L141.4941,63.5 " fill="none" style="stroke:#181818;stroke-width:0.5;"/><text fill="#000000" font-family="sans-serif" font-size="14" lengthAdjust="spacing" textLength="36.0117" x="107.4883" y="492.0186">Klant</text><ellipse cx="128.4941" cy="503.8203" fill="#E2E2F0" rx="8" ry="8" style="stroke:#181818;stroke-width:0.5;"/><path d="M128.4941,511.8203 L128.4941,538.8203 M115.4941,519.8203 L141.4941,519.8203 M128.4941,538.8203 L115.4941,553.8203 M128.4941,538.8203 L141.4941,553.8203 " fill="none" style="stroke:#181818;stroke-width:0.5;"/><rect fill="#E2E2F0" height="30.2969" rx="2.5" ry="2.5" style="stroke:#181818;stroke-width:0.5;" width="108.083" x="351.5981" y="50"/><text fill="#000000" font-family="sans-serif" font-size="14" lengthAdjust="spacing" textLength="94.083" x="358.5981" y="69.9951">Zaaksysteem</text><rect fill="#E2E2F0" height="30.2969" rx="2.5" ry="2.5" style="stroke:#181818;stroke-width:0.5;" width="108.083" x="351.5981" y="479.0234"/><text fill="#000000" font-family="sans-serif" font-size="14" lengthAdjust="spacing" textLength="94.083" x="358.5981" y="499.0186">Zaaksysteem</text><rect fill="#E2E2F0" height="30.2969" rx="2.5" ry="2.5" style="stroke:#181818;stroke-width:0.5;" width="249.0605" x="469.6812" y="50"/><text fill="#000000" font-family="sans-serif" font-size="14" lengthAdjust="spacing" textLength="235.0605" x="476.6812" y="69.9951">Klanten, Taken &amp; Berichten (KTB)</text><rect fill="#E2E2F0" height="30.2969" rx="2.5" ry="2.5" style="stroke:#181818;stroke-width:0.5;" width="249.0605" x="469.6812" y="479.0234"/><text fill="#000000" font-family="sans-serif" font-size="14" lengthAdjust="spacing" textLength="235.0605" x="476.6812" y="499.0186">Klanten, Taken &amp; Berichten (KTB)</text><rect fill="#E2E2F0" height="30.2969" rx="2.5" ry="2.5" style="stroke:#181818;stroke-width:0.5;" width="245.0342" x="824.3379" y="50"/><text fill="#000000" font-family="sans-serif" font-size="14" lengthAdjust="spacing" textLength="231.0342" x="831.3379" y="69.9951">Output Management Component</text><rect fill="#E2E2F0" height="30.2969" rx="2.5" ry="2.5" style="stroke:#181818;stroke-width:0.5;" width="245.0342" x="824.3379" y="479.0234"/><text fill="#000000" font-family="sans-serif" font-size="14" lengthAdjust="spacing" textLength="231.0342" x="831.3379" y="499.0186">Output Management Component</text><rect fill="#E2E2F0" height="30.2969" rx="2.5" ry="2.5" style="stroke:#181818;stroke-width:0.5;" width="114.8232" x="1079.3721" y="50"/><text fill="#000000" font-family="sans-serif" font-size="14" lengthAdjust="spacing" textLength="100.8232" x="1086.3721" y="69.9951">MijnOmgeving</text><rect fill="#E2E2F0" height="30.2969" rx="2.5" ry="2.5" style="stroke:#181818;stroke-width:0.5;" width="114.8232" x="1079.3721" y="479.0234"/><text fill="#000000" font-family="sans-serif" font-size="14" lengthAdjust="spacing" textLength="100.8232" x="1086.3721" y="499.0186">MijnOmgeving</text><polygon fill="#181818" points="393.6396,108.4297,403.6396,112.4297,393.6396,116.4297,397.6396,112.4297" style="stroke:#181818;stroke-width:1.0;"/><line style="stroke:#181818;stroke-width:1.0;" x1="51.2441" x2="399.6396" y1="112.4297" y2="112.4297"/><text fill="#000000" font-family="sans-serif" font-size="13" lengthAdjust="spacing" textLength="330.3955" x="58.2441" y="107.3638">Maak verzoek tot aanvulling aan (extra document)</text><polygon fill="#181818" points="582.2114,137.5625,592.2114,141.5625,582.2114,145.5625,586.2114,141.5625" style="stroke:#181818;stroke-width:1.0;"/><line style="stroke:#181818;stroke-width:1.0;" x1="405.6396" x2="588.2114" y1="141.5625" y2="141.5625"/><text fill="#000000" font-family="sans-serif" font-size="13" lengthAdjust="spacing" textLength="149.9888" x="412.6396" y="136.4966">Schrijf taak weg in KTB</text><polygon fill="#181818" points="934.855,166.6953,944.855,170.6953,934.855,174.6953,938.855,170.6953" style="stroke:#181818;stroke-width:1.0;"/><line style="stroke:#181818;stroke-width:1.0;" x1="594.2114" x2="940.855" y1="170.6953" y2="170.6953"/><text fill="#000000" font-family="sans-serif" font-size="13" lengthAdjust="spacing" textLength="328.6436" x="601.2114" y="165.6294">Stuur event naar Output Management Component</text><polygon fill="#181818" points="605.2114,195.8281,595.2114,199.8281,605.2114,203.8281,601.2114,199.8281" style="stroke:#181818;stroke-width:1.0;"/><line style="stroke:#181818;stroke-width:1.0;" x1="599.2114" x2="945.855" y1="199.8281" y2="199.8281"/><text fill="#000000" font-family="sans-serif" font-size="13" lengthAdjust="spacing" textLength="163.9346" x="611.2114" y="194.7622">Haal taak op a.h.v. event</text><polygon fill="#181818" points="605.2114,224.9609,595.2114,228.9609,605.2114,232.9609,601.2114,228.9609" style="stroke:#181818;stroke-width:1.0;"/><line style="stroke:#181818;stroke-width:1.0;" x1="599.2114" x2="945.855" y1="228.9609" y2="228.9609"/><text fill="#000000" font-family="sans-serif" font-size="13" lengthAdjust="spacing" textLength="267.0205" x="611.2114" y="223.895">Haal klant op en bepaal voorkeurskanaal</text><polygon fill="#181818" points="934.855,254.0938,944.855,258.0938,934.855,262.0938,938.855,258.0938" style="stroke:#181818;stroke-width:1.0;"/><line style="stroke:#181818;stroke-width:1.0;" x1="594.2114" x2="940.855" y1="258.0938" y2="258.0938"/><text fill="#000000" font-family="sans-serif" font-size="13" lengthAdjust="spacing" textLength="267.5601" x="601.2114" y="253.0278">Stuur klantgegevens en voorkeurskanaal</text><polygon fill="#181818" points="139.4941,283.2266,129.4941,287.2266,139.4941,291.2266,135.4941,287.2266" style="stroke:#181818;stroke-width:1.0;"/><line style="stroke:#181818;stroke-width:1.0;" x1="133.4941" x2="945.855" y1="287.2266" y2="287.2266"/><text fill="#000000" font-family="sans-serif" font-size="13" lengthAdjust="spacing" textLength="241.395" x="145.4941" y="282.1606">Verstuur bericht via voorkeurskanaal</text><polygon fill="#181818" points="605.2114,312.3594,595.2114,316.3594,605.2114,320.3594,601.2114,316.3594" style="stroke:#181818;stroke-width:1.0;"/><line style="stroke:#181818;stroke-width:1.0;" x1="599.2114" x2="945.855" y1="316.3594" y2="316.3594"/><text fill="#000000" font-family="sans-serif" font-size="13" lengthAdjust="spacing" textLength="135.4907" x="611.2114" y="311.2935">Sla bericht op in KTB</text><polygon fill="#181818" points="1124.7837,341.4922,1134.7837,345.4922,1124.7837,349.4922,1128.7837,345.4922" style="stroke:#181818;stroke-width:1.0;"/><line style="stroke:#181818;stroke-width:1.0;" x1="128.4941" x2="1130.7837" y1="345.4922" y2="345.4922"/><text fill="#000000" font-family="sans-serif" font-size="13" lengthAdjust="spacing" textLength="157.5234" x="135.4941" y="340.4263">Log in op MijnOmgeving</text><polygon fill="#181818" points="605.2114,370.625,595.2114,374.625,605.2114,378.625,601.2114,374.625" style="stroke:#181818;stroke-width:1.0;"/><line style="stroke:#181818;stroke-width:1.0;" x1="599.2114" x2="1135.7837" y1="374.625" y2="374.625"/><text fill="#000000" font-family="sans-serif" font-size="13" lengthAdjust="spacing" textLength="132.9453" x="611.2114" y="369.5591">Haal taak op uit KTB</text><polygon fill="#181818" points="1124.7837,399.7578,1134.7837,403.7578,1124.7837,407.7578,1128.7837,403.7578" style="stroke:#181818;stroke-width:1.0;"/><line style="stroke:#181818;stroke-width:1.0;" x1="128.4941" x2="1130.7837" y1="403.7578" y2="403.7578"/><text fill="#000000" font-family="sans-serif" font-size="13" lengthAdjust="spacing" textLength="269.1914" x="135.4941" y="398.6919">Voer taak uit door document te uploaden</text><polygon fill="#181818" points="605.2114,428.8906,595.2114,432.8906,605.2114,436.8906,601.2114,432.8906" style="stroke:#181818;stroke-width:1.0;"/><line style="stroke:#181818;stroke-width:1.0;" x1="599.2114" x2="1135.7837" y1="432.8906" y2="432.8906"/><text fill="#000000" font-family="sans-serif" font-size="13" lengthAdjust="spacing" textLength="125.0044" x="611.2114" y="427.8247">Zet taak op gereed</text><polygon fill="#181818" points="416.6396,458.0234,406.6396,462.0234,416.6396,466.0234,412.6396,462.0234" style="stroke:#181818;stroke-width:1.0;"/><line style="stroke:#181818;stroke-width:1.0;" x1="410.6396" x2="1135.7837" y1="462.0234" y2="462.0234"/><text fill="#000000" font-family="sans-serif" font-size="13" lengthAdjust="spacing" textLength="247.7998" x="422.6396" y="456.9575">Voeg document toe aan Zaaksysteem</text><!--SRC=[dPB1Ri8m38RlUGgBmmJInWFqi0ExJDeGXo4Et4phXT0sgTAaR7lwsM7gsWqniLjmVt_-ZN_CW_Emf8AEv4lo2bFXgK8RL8C-cDmq_8OjOjc-ju6e7jMVrWl05YQfW-mjhB4a2pUm86_oFPTWofhPPDGrMSNGn01BjAYf9YuzkBfnbbzZvT8SxAhMr1chbVes2dVtGqyPex24Zlo7enA22u1ekrXLt2TFcD9Ry0Y5owFCcwb1jy3OP0Ol-TwRmoi4WHr9Wx7oGScMhBbecxj3Z1weaxf5z711hYwoUaEFYDN9ZMi0v_jvDpyDkAQ_bDi8W8-neqPAdNFyBqRVbjoErLKB9fmcBJvQOVw4_MrD21bioBU9k3jb1Jg3_u2bmrNOKtZHhxEfD4X4mnXbyEpIPLauYjVmn_aBH1DEUJZFtJWEPjAAiE1D-hn188XDvR0WUtxGba8_HvCdAdxfHe7dONg0TvHYFf1y0W00]--></g></svg>