<svg xmlns="http://www.w3.org/2000/svg" xmlns:xlink="http://www.w3.org/1999/xlink" contentStyleType="text/css" height="531px" preserveAspectRatio="none" style="width:1878px;height:531px;background:#FFFFFF;" version="1.1" viewBox="0 0 1878 531" width="1878px" zoomAndPan="magnify"><defs/><g><line style="stroke:#181818;stroke-width:0.5;stroke-dasharray:5.0,5.0;" x1="51" x2="51" y1="81.2969" y2="450.8906"/><line style="stroke:#181818;stroke-width:0.5;stroke-dasharray:5.0,5.0;" x1="128.4883" x2="128.4883" y1="81.2969" y2="450.8906"/><line style="stroke:#181818;stroke-width:0.5;stroke-dasharray:5.0,5.0;" x1="405.5981" x2="405.5981" y1="81.2969" y2="450.8906"/><line style="stroke:#181818;stroke-width:0.5;stroke-dasharray:5.0,5.0;" x1="977.4805" x2="977.4805" y1="81.2969" y2="450.8906"/><line style="stroke:#181818;stroke-width:0.5;stroke-dasharray:5.0,5.0;" x1="1105.9531" x2="1105.9531" y1="81.2969" y2="450.8906"/><line style="stroke:#181818;stroke-width:0.5;stroke-dasharray:5.0,5.0;" x1="1244.749" x2="1244.749" y1="81.2969" y2="450.8906"/><line style="stroke:#181818;stroke-width:0.5;stroke-dasharray:5.0,5.0;" x1="1669.418" x2="1669.418" y1="81.2969" y2="450.8906"/><line style="stroke:#181818;stroke-width:0.5;stroke-dasharray:5.0,5.0;" x1="1814.8398" x2="1814.8398" y1="81.2969" y2="450.8906"/><text fill="#000000" font-family="sans-serif" font-size="14" lengthAdjust="spacing" textLength="86.4883" x="5" y="77.9951">Medewerker</text><ellipse cx="51.2441" cy="13.5" fill="#E2E2F0" rx="8" ry="8" style="stroke:#181818;stroke-width:0.5;"/><path d="M51.2441,21.5 L51.2441,48.5 M38.2441,29.5 L64.2441,29.5 M51.2441,48.5 L38.2441,63.5 M51.2441,48.5 L64.2441,63.5 " fill="none" style="stroke:#181818;stroke-width:0.5;"/><text fill="#000000" font-family="sans-serif" font-size="14" lengthAdjust="spacing" textLength="86.4883" x="5" y="462.8857">Medewerker</text><ellipse cx="51.2441" cy="474.6875" fill="#E2E2F0" rx="8" ry="8" style="stroke:#181818;stroke-width:0.5;"/><path d="M51.2441,482.6875 L51.2441,509.6875 M38.2441,490.6875 L64.2441,490.6875 M51.2441,509.6875 L38.2441,524.6875 M51.2441,509.6875 L64.2441,524.6875 " fill="none" style="stroke:#181818;stroke-width:0.5;"/><text fill="#000000" font-family="sans-serif" font-size="14" lengthAdjust="spacing" textLength="36.0117" x="107.4883" y="77.9951">Klant</text><ellipse cx="128.4941" cy="13.5" fill="#E2E2F0" rx="8" ry="8" style="stroke:#181818;stroke-width:0.5;"/><path d="M128.4941,21.5 L128.4941,48.5 M115.4941,29.5 L141.4941,29.5 M128.4941,48.5 L115.4941,63.5 M128.4941,48.5 L141.4941,63.5 " fill="none" style="stroke:#181818;stroke-width:0.5;"/><text fill="#000000" font-family="sans-serif" font-size="14" lengthAdjust="spacing" textLength="36.0117" x="107.4883" y="462.8857">Klant</text><ellipse cx="128.4941" cy="474.6875" fill="#E2E2F0" rx="8" ry="8" style="stroke:#181818;stroke-width:0.5;"/><path d="M128.4941,482.6875 L128.4941,509.6875 M115.4941,490.6875 L141.4941,490.6875 M128.4941,509.6875 L115.4941,524.6875 M128.4941,509.6875 L141.4941,524.6875 " fill="none" style="stroke:#181818;stroke-width:0.5;"/><rect fill="#E2E2F0" height="30.2969" rx="2.5" ry="2.5" style="stroke:#181818;stroke-width:0.5;" width="108.083" x="351.5981" y="50"/><text fill="#000000" font-family="sans-serif" font-size="14" lengthAdjust="spacing" textLength="94.083" x="358.5981" y="69.9951">Zaaksysteem</text><rect fill="#E2E2F0" height="30.2969" rx="2.5" ry="2.5" style="stroke:#181818;stroke-width:0.5;" width="108.083" x="351.5981" y="449.8906"/><text fill="#000000" font-family="sans-serif" font-size="14" lengthAdjust="spacing" textLength="94.083" x="358.5981" y="469.8857">Zaaksysteem</text><rect fill="#E2E2F0" height="30.2969" rx="2.5" ry="2.5" style="stroke:#181818;stroke-width:0.5;" width="115.4727" x="920.4805" y="50"/><text fill="#000000" font-family="sans-serif" font-size="14" lengthAdjust="spacing" textLength="97.0225" x="927.4805" y="69.9951">Takenregister</text><rect fill="#E2E2F0" height="30.2969" rx="2.5" ry="2.5" style="stroke:#181818;stroke-width:0.5;" width="115.4727" x="920.4805" y="449.8906"/><text fill="#000000" font-family="sans-serif" font-size="14" lengthAdjust="spacing" textLength="97.0225" x="927.4805" y="469.8857">Takenregister</text><rect fill="#E2E2F0" height="30.2969" rx="2.5" ry="2.5" style="stroke:#181818;stroke-width:0.5;" width="121.7959" x="1045.9531" y="50"/><text fill="#000000" font-family="sans-serif" font-size="14" lengthAdjust="spacing" textLength="107.7959" x="1052.9531" y="69.9951">Klantenregister</text><rect fill="#E2E2F0" height="30.2969" rx="2.5" ry="2.5" style="stroke:#181818;stroke-width:0.5;" width="121.7959" x="1045.9531" y="449.8906"/><text fill="#000000" font-family="sans-serif" font-size="14" lengthAdjust="spacing" textLength="107.7959" x="1052.9531" y="469.8857">Klantenregister</text><rect fill="#E2E2F0" height="30.2969" rx="2.5" ry="2.5" style="stroke:#181818;stroke-width:0.5;" width="135.707" x="1177.749" y="50"/><text fill="#000000" font-family="sans-serif" font-size="14" lengthAdjust="spacing" textLength="121.707" x="1184.749" y="69.9951">Berichtenregister</text><rect fill="#E2E2F0" height="30.2969" rx="2.5" ry="2.5" style="stroke:#181818;stroke-width:0.5;" width="135.707" x="1177.749" y="449.8906"/><text fill="#000000" font-family="sans-serif" font-size="14" lengthAdjust="spacing" textLength="121.707" x="1184.749" y="469.8857">Berichtenregister</text><rect fill="#E2E2F0" height="30.2969" rx="2.5" ry="2.5" style="stroke:#181818;stroke-width:0.5;" width="155.4219" x="1592.418" y="50"/><text fill="#000000" font-family="sans-serif" font-size="14" lengthAdjust="spacing" textLength="141.4219" x="1599.418" y="69.9951">Afhandelcomponent</text><rect fill="#E2E2F0" height="30.2969" rx="2.5" ry="2.5" style="stroke:#181818;stroke-width:0.5;" width="155.4219" x="1592.418" y="449.8906"/><text fill="#000000" font-family="sans-serif" font-size="14" lengthAdjust="spacing" textLength="141.4219" x="1599.418" y="469.8857">Afhandelcomponent</text><rect fill="#E2E2F0" height="30.2969" rx="2.5" ry="2.5" style="stroke:#181818;stroke-width:0.5;" width="114.8232" x="1757.8398" y="50"/><text fill="#000000" font-family="sans-serif" font-size="14" lengthAdjust="spacing" textLength="100.8232" x="1764.8398" y="69.9951">MijnOmgeving</text><rect fill="#E2E2F0" height="30.2969" rx="2.5" ry="2.5" style="stroke:#181818;stroke-width:0.5;" width="114.8232" x="1757.8398" y="449.8906"/><text fill="#000000" font-family="sans-serif" font-size="14" lengthAdjust="spacing" textLength="100.8232" x="1764.8398" y="469.8857">MijnOmgeving</text><polygon fill="#181818" points="393.6396,108.4297,403.6396,112.4297,393.6396,116.4297,397.6396,112.4297" style="stroke:#181818;stroke-width:1.0;"/><line style="stroke:#181818;stroke-width:1.0;" x1="51.2441" x2="399.6396" y1="112.4297" y2="112.4297"/><text fill="#000000" font-family="sans-serif" font-size="13" lengthAdjust="spacing" textLength="330.3955" x="58.2441" y="107.3638">Maak verzoek tot aanvulling aan (extra document)</text><polygon fill="#181818" points="966.2168,137.5625,976.2168,141.5625,966.2168,145.5625,970.2168,141.5625" style="stroke:#181818;stroke-width:1.0;"/><line style="stroke:#181818;stroke-width:1.0;" x1="405.6396" x2="972.2168" y1="141.5625" y2="141.5625"/><text fill="#000000" font-family="sans-serif" font-size="13" lengthAdjust="spacing" textLength="548.5771" x="412.6396" y="136.4966">Schrijf taak weg in Takenregister (Zaakspecifiek voorkeurskanaal in extraData-veld)</text><polygon fill="#181818" points="1658.1289,166.6953,1668.1289,170.6953,1658.1289,174.6953,1662.1289,170.6953" style="stroke:#181818;stroke-width:1.0;"/><line style="stroke:#181818;stroke-width:1.0;" x1="978.2168" x2="1664.1289" y1="170.6953" y2="170.6953"/><text fill="#000000" font-family="sans-serif" font-size="13" lengthAdjust="spacing" textLength="342.418" x="985.2168" y="165.6294">Stuur event "Nieuwe taak" naar Afhandelcomponent</text><polygon fill="#181818" points="989.2168,195.8281,979.2168,199.8281,989.2168,203.8281,985.2168,199.8281" style="stroke:#181818;stroke-width:1.0;"/><line style="stroke:#181818;stroke-width:1.0;" x1="983.2168" x2="1669.1289" y1="199.8281" y2="199.8281"/><text fill="#000000" font-family="sans-serif" font-size="13" lengthAdjust="spacing" textLength="202.7505" x="995.2168" y="194.7622">Haalt taak op uit Takenregister</text><polygon fill="#181818" points="1117.8511,224.9609,1107.8511,228.9609,1117.8511,232.9609,1113.8511,228.9609" style="stroke:#181818;stroke-width:1.0;"/><line style="stroke:#181818;stroke-width:1.0;" x1="1111.8511" x2="1669.1289" y1="228.9609" y2="228.9609"/><text fill="#000000" font-family="sans-serif" font-size="13" lengthAdjust="spacing" textLength="539.2778" x="1123.8511" y="223.895">Haalt klant op uit het Klantenregister (tbv Voorkeurskanaal als niet gevuld in taak)</text><polygon fill="#181818" points="139.4941,254.0938,129.4941,258.0938,139.4941,262.0938,135.4941,258.0938" style="stroke:#181818;stroke-width:1.0;"/><line style="stroke:#181818;stroke-width:1.0;" x1="133.4941" x2="1669.1289" y1="258.0938" y2="258.0938"/><text fill="#000000" font-family="sans-serif" font-size="13" lengthAdjust="spacing" textLength="241.395" x="145.4941" y="253.0278">Verstuur bericht via voorkeurskanaal</text><polygon fill="#181818" points="1256.6025,283.2266,1246.6025,287.2266,1256.6025,291.2266,1252.6025,287.2266" style="stroke:#181818;stroke-width:1.0;"/><line style="stroke:#181818;stroke-width:1.0;" x1="1250.6025" x2="1669.1289" y1="287.2266" y2="287.2266"/><text fill="#000000" font-family="sans-serif" font-size="13" lengthAdjust="spacing" textLength="223.1201" x="1262.6025" y="282.1606">Sla bericht op in Berichtenregister</text><polygon fill="#181818" points="1803.2515,312.3594,1813.2515,316.3594,1803.2515,320.3594,1807.2515,316.3594" style="stroke:#181818;stroke-width:1.0;"/><line style="stroke:#181818;stroke-width:1.0;" x1="128.4941" x2="1809.2515" y1="316.3594" y2="316.3594"/><text fill="#000000" font-family="sans-serif" font-size="13" lengthAdjust="spacing" textLength="157.5234" x="135.4941" y="311.2935">Log in op MijnOmgeving</text><polygon fill="#181818" points="989.2168,341.4922,979.2168,345.4922,989.2168,349.4922,985.2168,345.4922" style="stroke:#181818;stroke-width:1.0;"/><line style="stroke:#181818;stroke-width:1.0;" x1="983.2168" x2="1814.2515" y1="345.4922" y2="345.4922"/><text fill="#000000" font-family="sans-serif" font-size="13" lengthAdjust="spacing" textLength="197.6533" x="995.2168" y="340.4263">Haal taak op uit Takenregister</text><polygon fill="#181818" points="1803.2515,370.625,1813.2515,374.625,1803.2515,378.625,1807.2515,374.625" style="stroke:#181818;stroke-width:1.0;"/><line style="stroke:#181818;stroke-width:1.0;" x1="128.4941" x2="1809.2515" y1="374.625" y2="374.625"/><text fill="#000000" font-family="sans-serif" font-size="13" lengthAdjust="spacing" textLength="269.1914" x="135.4941" y="369.5591">Voer taak uit door document te uploaden</text><polygon fill="#181818" points="989.2168,399.7578,979.2168,403.7578,989.2168,407.7578,985.2168,403.7578" style="stroke:#181818;stroke-width:1.0;"/><line style="stroke:#181818;stroke-width:1.0;" x1="983.2168" x2="1814.2515" y1="403.7578" y2="403.7578"/><text fill="#000000" font-family="sans-serif" font-size="13" lengthAdjust="spacing" textLength="335.5879" x="995.2168" y="398.6919">Update taakstatus in Takenregister naar "gesloten"</text><polygon fill="#181818" points="416.6396,428.8906,406.6396,432.8906,416.6396,436.8906,412.6396,432.8906" style="stroke:#181818;stroke-width:1.0;"/><line style="stroke:#181818;stroke-width:1.0;" x1="410.6396" x2="1814.2515" y1="432.8906" y2="432.8906"/><text fill="#000000" font-family="sans-serif" font-size="13" lengthAdjust="spacing" textLength="247.7998" x="422.6396" y="427.8247">Voeg document toe aan Zaaksysteem</text><!--SRC=[VLExKiCm4Epr5JUkaY8_a88P60fc8500AUWE- -8eLYIFT7A0h-Ua4CVEWqvdx-tUhLPOilEme8fsv1lo2lE7HuEMLOkUTQbRESC7OXE-0nDjHzyVt-u00nHls93rL6k1U2Z6cCH6DkF-pWVa67X7NfVh0xIlBeEBszKQRKMcTDlMMR8y_h_G6_kohQdJjbRgk2BCReRRp64X1NJaVnmrm8u1qNRH6EbBHvZG5tk4ofLnAofJDUXEP6B175xBjTUR5N0Ysr4DsiBOaqbkQwdKAor2dNCoJVIXGOje4Zxht2FZh2DJJLNoLlWlB2fw7AC7wYWvyQmfxYXh5o1i7ivQr0MMVlW76O3texiMekQJqQysxo_pGD2ayi2mflxYZnRmPmVBayNH1B1Qq79LqLJ9Y3J9z5_HEIp9X-p1vpucq6ayDVKQHPyiyT5Wpo2JY_XPx9JAagbncAavFBbypT8sojgm65bytU5h2aidhkMkr5B9TdqCWGbYQnnMP2zBlhSLyZuLWP5ZECzapafHKp1E5YxEU4RlH8Qf1_AEykiOG7u1]--></g></svg>